%TF.GenerationSoftware,KiCad,Pcbnew,7.0.9*%
%TF.CreationDate,2023-12-30T16:17:41+00:00*%
%TF.ProjectId,keybird42,6b657962-6972-4643-9432-2e6b69636164,0.1*%
%TF.SameCoordinates,Original*%
%TF.FileFunction,Soldermask,Bot*%
%TF.FilePolarity,Negative*%
%FSLAX46Y46*%
G04 Gerber Fmt 4.6, Leading zero omitted, Abs format (unit mm)*
G04 Created by KiCad (PCBNEW 7.0.9) date 2023-12-30 16:17:41*
%MOMM*%
%LPD*%
G01*
G04 APERTURE LIST*
G04 Aperture macros list*
%AMRoundRect*
0 Rectangle with rounded corners*
0 $1 Rounding radius*
0 $2 $3 $4 $5 $6 $7 $8 $9 X,Y pos of 4 corners*
0 Add a 4 corners polygon primitive as box body*
4,1,4,$2,$3,$4,$5,$6,$7,$8,$9,$2,$3,0*
0 Add four circle primitives for the rounded corners*
1,1,$1+$1,$2,$3*
1,1,$1+$1,$4,$5*
1,1,$1+$1,$6,$7*
1,1,$1+$1,$8,$9*
0 Add four rect primitives between the rounded corners*
20,1,$1+$1,$2,$3,$4,$5,0*
20,1,$1+$1,$4,$5,$6,$7,0*
20,1,$1+$1,$6,$7,$8,$9,0*
20,1,$1+$1,$8,$9,$2,$3,0*%
G04 Aperture macros list end*
%ADD10C,1.750000*%
%ADD11C,3.050000*%
%ADD12C,4.000000*%
%ADD13RoundRect,0.250000X-1.025000X-1.000000X1.025000X-1.000000X1.025000X1.000000X-1.025000X1.000000X0*%
%ADD14RoundRect,0.350000X0.350000X-0.350000X0.350000X0.350000X-0.350000X0.350000X-0.350000X-0.350000X0*%
%ADD15C,3.048000*%
%ADD16C,3.987800*%
%ADD17RoundRect,0.254000X-0.381000X-1.651000X0.381000X-1.651000X0.381000X1.651000X-0.381000X1.651000X0*%
%ADD18RoundRect,0.254000X1.651000X-0.381000X1.651000X0.381000X-1.651000X0.381000X-1.651000X-0.381000X0*%
%ADD19RoundRect,0.254000X0.381000X1.651000X-0.381000X1.651000X-0.381000X-1.651000X0.381000X-1.651000X0*%
%ADD20R,0.300000X1.300000*%
%ADD21R,1.800000X2.200000*%
G04 APERTURE END LIST*
D10*
%TO.C,SW112*%
X90170000Y-28575000D03*
D11*
X91440000Y-26035000D03*
D12*
X95250000Y-28575000D03*
D11*
X97790000Y-23495000D03*
D10*
X100330000Y-28575000D03*
D13*
X88165000Y-26035000D03*
X101092000Y-23495000D03*
%TD*%
D10*
%TO.C,SW123*%
X166370000Y-28575000D03*
D11*
X167640000Y-26035000D03*
D12*
X171450000Y-28575000D03*
D11*
X173990000Y-23495000D03*
D10*
X176530000Y-28575000D03*
D13*
X164365000Y-26035000D03*
X177292000Y-23495000D03*
%TD*%
D10*
%TO.C,SW312*%
X97313750Y-66675000D03*
D11*
X98583750Y-64135000D03*
D12*
X102393750Y-66675000D03*
D11*
X104933750Y-61595000D03*
D10*
X107473750Y-66675000D03*
D13*
X95308750Y-64135000D03*
X108235750Y-61595000D03*
%TD*%
D10*
%TO.C,SW226*%
X328295000Y-47625000D03*
D11*
X329565000Y-45085000D03*
D12*
X333375000Y-47625000D03*
D11*
X335915000Y-42545000D03*
D10*
X338455000Y-47625000D03*
D13*
X326290000Y-45085000D03*
X339217000Y-42545000D03*
%TD*%
D10*
%TO.C,SW325*%
X275907500Y-66675000D03*
D11*
X277177500Y-64135000D03*
D12*
X280987500Y-66675000D03*
D11*
X283527500Y-61595000D03*
D10*
X286067500Y-66675000D03*
D13*
X273902500Y-64135000D03*
X286829500Y-61595000D03*
%TD*%
D10*
%TO.C,SW336*%
X344964044Y-66675056D03*
D11*
X346234044Y-64135056D03*
D12*
X350044044Y-66675056D03*
D11*
X352584044Y-61595056D03*
D10*
X355124044Y-66675056D03*
D13*
X342959044Y-64135056D03*
X355886044Y-61595056D03*
%TD*%
D10*
%TO.C,SW222*%
X118745000Y-47625000D03*
D11*
X120015000Y-45085000D03*
D12*
X123825000Y-47625000D03*
D11*
X126365000Y-42545000D03*
D10*
X128905000Y-47625000D03*
D13*
X116740000Y-45085000D03*
X129667000Y-42545000D03*
%TD*%
D10*
%TO.C,SW332*%
X142557500Y-66675000D03*
D11*
X143827500Y-64135000D03*
D12*
X147637500Y-66675000D03*
D11*
X150177500Y-61595000D03*
D10*
X152717500Y-66675000D03*
D13*
X140552500Y-64135000D03*
X153479500Y-61595000D03*
%TD*%
D10*
%TO.C,SW132*%
X128270000Y-28575000D03*
D11*
X129540000Y-26035000D03*
D12*
X133350000Y-28575000D03*
D11*
X135890000Y-23495000D03*
D10*
X138430000Y-28575000D03*
D13*
X126265000Y-26035000D03*
X139192000Y-23495000D03*
%TD*%
D10*
%TO.C,SW227*%
X399732500Y-52387500D03*
D11*
X401002500Y-49847500D03*
D12*
X404812500Y-52387500D03*
D11*
X407352500Y-47307500D03*
D10*
X409892500Y-52387500D03*
D13*
X397727500Y-49847500D03*
X410654500Y-47307500D03*
%TD*%
D10*
%TO.C,SW411*%
X28257500Y-95250000D03*
D11*
X29527500Y-92710000D03*
D12*
X33337500Y-95250000D03*
D11*
X35877500Y-90170000D03*
D10*
X38417500Y-95250000D03*
D13*
X26252500Y-92710000D03*
X39179500Y-90170000D03*
%TD*%
D10*
%TO.C,SW327*%
X399732500Y-76200000D03*
D11*
X401002500Y-73660000D03*
D12*
X404812500Y-76200000D03*
D11*
X407352500Y-71120000D03*
D10*
X409892500Y-76200000D03*
D13*
X397727500Y-73660000D03*
X410654500Y-71120000D03*
%TD*%
D10*
%TO.C,SW113*%
X147320000Y-28575000D03*
D11*
X148590000Y-26035000D03*
D12*
X152400000Y-28575000D03*
D11*
X154940000Y-23495000D03*
D10*
X157480000Y-28575000D03*
D13*
X145315000Y-26035000D03*
X158242000Y-23495000D03*
%TD*%
D10*
%TO.C,SW413*%
X152082500Y-85725000D03*
D11*
X153352500Y-83185000D03*
D12*
X157162500Y-85725000D03*
D11*
X159702500Y-80645000D03*
D10*
X162242500Y-85725000D03*
D13*
X150077500Y-83185000D03*
X163004500Y-80645000D03*
%TD*%
D10*
%TO.C,SW136*%
X356870304Y-28575024D03*
D11*
X358140304Y-26035024D03*
D12*
X361950304Y-28575024D03*
D11*
X364490304Y-23495024D03*
D10*
X367030304Y-28575024D03*
D13*
X354865304Y-26035024D03*
X367792304Y-23495024D03*
%TD*%
D10*
%TO.C,SW322*%
X123507500Y-66675000D03*
D11*
X124777500Y-64135000D03*
D12*
X128587500Y-66675000D03*
D11*
X131127500Y-61595000D03*
D10*
X133667500Y-66675000D03*
D13*
X121502500Y-64135000D03*
X134429500Y-61595000D03*
%TD*%
D10*
%TO.C,SW134*%
X242570208Y-28575024D03*
D11*
X243840208Y-26035024D03*
D12*
X247650208Y-28575024D03*
D11*
X250190208Y-23495024D03*
D10*
X252730208Y-28575024D03*
D13*
X240565208Y-26035024D03*
X253492208Y-23495024D03*
%TD*%
D10*
%TO.C,SW321*%
X47307500Y-76200000D03*
D11*
X48577500Y-73660000D03*
D12*
X52387500Y-76200000D03*
D11*
X54927500Y-71120000D03*
D10*
X57467500Y-76200000D03*
D13*
X45302500Y-73660000D03*
X58229500Y-71120000D03*
%TD*%
D10*
%TO.C,SW433*%
X190182500Y-85725000D03*
D11*
X191452500Y-83185000D03*
D12*
X195262500Y-85725000D03*
D11*
X197802500Y-80645000D03*
D10*
X200342500Y-85725000D03*
D13*
X188177500Y-83185000D03*
X201104500Y-80645000D03*
%TD*%
D10*
%TO.C,SW126*%
X337820000Y-28575000D03*
D11*
X339090000Y-26035000D03*
D12*
X342900000Y-28575000D03*
D11*
X345440000Y-23495000D03*
D10*
X347980000Y-28575000D03*
D13*
X335815000Y-26035000D03*
X348742000Y-23495000D03*
%TD*%
D10*
%TO.C,SW503*%
X142557500Y-104775000D03*
D11*
X143827500Y-102235000D03*
D12*
X147637500Y-104775000D03*
D11*
X150177500Y-99695000D03*
D10*
X152717500Y-104775000D03*
D13*
X140552500Y-102235000D03*
X153479500Y-99695000D03*
%TD*%
D10*
%TO.C,SW334*%
X237807704Y-66675056D03*
D11*
X239077704Y-64135056D03*
D12*
X242887704Y-66675056D03*
D11*
X245427704Y-61595056D03*
D10*
X247967704Y-66675056D03*
D13*
X235802704Y-64135056D03*
X248729704Y-61595056D03*
%TD*%
D10*
%TO.C,SW223*%
X175895000Y-47625000D03*
D11*
X177165000Y-45085000D03*
D12*
X180975000Y-47625000D03*
D11*
X183515000Y-42545000D03*
D10*
X186055000Y-47625000D03*
D13*
X173890000Y-45085000D03*
X186817000Y-42545000D03*
%TD*%
D10*
%TO.C,SW316*%
X314007768Y-66675056D03*
D11*
X315277768Y-64135056D03*
D12*
X319087768Y-66675056D03*
D11*
X321627768Y-61595056D03*
D10*
X324167768Y-66675056D03*
D13*
X312002768Y-64135056D03*
X324929768Y-61595056D03*
%TD*%
D10*
%TO.C,SW311*%
X28257500Y-76200000D03*
D11*
X29527500Y-73660000D03*
D12*
X33337500Y-76200000D03*
D11*
X35877500Y-71120000D03*
D10*
X38417500Y-76200000D03*
D13*
X26252500Y-73660000D03*
X39179500Y-71120000D03*
%TD*%
D10*
%TO.C,SW221*%
X47307500Y-52387500D03*
D11*
X48577500Y-49847500D03*
D12*
X52387500Y-52387500D03*
D11*
X54927500Y-47307500D03*
D10*
X57467500Y-52387500D03*
D13*
X45302500Y-49847500D03*
X58229500Y-47307500D03*
%TD*%
D10*
%TO.C,SW114*%
X204470000Y-28575000D03*
D11*
X205740000Y-26035000D03*
D12*
X209550000Y-28575000D03*
D11*
X212090000Y-23495000D03*
D10*
X214630000Y-28575000D03*
D13*
X202465000Y-26035000D03*
X215392000Y-23495000D03*
%TD*%
D10*
%TO.C,SW432*%
X133032500Y-85725000D03*
D11*
X134302500Y-83185000D03*
D12*
X138112500Y-85725000D03*
D11*
X140652500Y-80645000D03*
D10*
X143192500Y-85725000D03*
D13*
X131027500Y-83185000D03*
X143954500Y-80645000D03*
%TD*%
D10*
%TO.C,SW502*%
X116363750Y-104775000D03*
D11*
X117633750Y-102235000D03*
D12*
X121443750Y-104775000D03*
D11*
X123983750Y-99695000D03*
D10*
X126523750Y-104775000D03*
D13*
X114358750Y-102235000D03*
X127285750Y-99695000D03*
%TD*%
D10*
%TO.C,SW412*%
X102076250Y-85725000D03*
D11*
X103346250Y-83185000D03*
D12*
X107156250Y-85725000D03*
D11*
X109696250Y-80645000D03*
D10*
X112236250Y-85725000D03*
D13*
X100071250Y-83185000D03*
X112998250Y-80645000D03*
%TD*%
D10*
%TO.C,SW216*%
X309245264Y-47625040D03*
D11*
X310515264Y-45085040D03*
D12*
X314325264Y-47625040D03*
D11*
X316865264Y-42545040D03*
D10*
X319405264Y-47625040D03*
D13*
X307240264Y-45085040D03*
X320167264Y-42545040D03*
%TD*%
D10*
%TO.C,SW135*%
X299720256Y-28575024D03*
D11*
X300990256Y-26035024D03*
D12*
X304800256Y-28575024D03*
D11*
X307340256Y-23495024D03*
D10*
X309880256Y-28575024D03*
D13*
X297715256Y-26035024D03*
X310642256Y-23495024D03*
%TD*%
D10*
%TO.C,SW314*%
X199707500Y-66675000D03*
D11*
X200977500Y-64135000D03*
D12*
X204787500Y-66675000D03*
D11*
X207327500Y-61595000D03*
D10*
X209867500Y-66675000D03*
D13*
X197702500Y-64135000D03*
X210629500Y-61595000D03*
%TD*%
D10*
%TO.C,SW414*%
X209232680Y-85725072D03*
D11*
X210502680Y-83185072D03*
D12*
X214312680Y-85725072D03*
D11*
X216852680Y-80645072D03*
D10*
X219392680Y-85725072D03*
D13*
X207227680Y-83185072D03*
X220154680Y-80645072D03*
%TD*%
D10*
%TO.C,SW504*%
X223520000Y-104775000D03*
D11*
X224790000Y-102235000D03*
D12*
X228600000Y-104775000D03*
D11*
X231140000Y-99695000D03*
D10*
X233680000Y-104775000D03*
D13*
X221515000Y-102235000D03*
X234442000Y-99695000D03*
%TD*%
D10*
%TO.C,SW232*%
X137795000Y-47625000D03*
D11*
X139065000Y-45085000D03*
D12*
X142875000Y-47625000D03*
D11*
X145415000Y-42545000D03*
D10*
X147955000Y-47625000D03*
D13*
X135790000Y-45085000D03*
X148717000Y-42545000D03*
%TD*%
D10*
%TO.C,SW424*%
X228282712Y-85725000D03*
D11*
X229552712Y-83185000D03*
D12*
X233362712Y-85725000D03*
D11*
X235902712Y-80645000D03*
D10*
X238442712Y-85725000D03*
D13*
X226277712Y-83185000D03*
X239204712Y-80645000D03*
%TD*%
D10*
%TO.C,SW213*%
X156845000Y-47625000D03*
D11*
X158115000Y-45085000D03*
D12*
X161925000Y-47625000D03*
D11*
X164465000Y-42545000D03*
D10*
X167005000Y-47625000D03*
D13*
X154840000Y-45085000D03*
X167767000Y-42545000D03*
%TD*%
D10*
%TO.C,SW337*%
X418782856Y-76200064D03*
D11*
X420052856Y-73660064D03*
D12*
X423862856Y-76200064D03*
D11*
X426402856Y-71120064D03*
D10*
X428942856Y-76200064D03*
D13*
X416777856Y-73660064D03*
X429704856Y-71120064D03*
%TD*%
D10*
%TO.C,SW506*%
X330676250Y-104775000D03*
D11*
X331946250Y-102235000D03*
D12*
X335756250Y-104775000D03*
D11*
X338296250Y-99695000D03*
D10*
X340836250Y-104775000D03*
D13*
X328671250Y-102235000D03*
X341598250Y-99695000D03*
%TD*%
D10*
%TO.C,SW236*%
X352107800Y-47625040D03*
D11*
X353377800Y-45085040D03*
D12*
X357187800Y-47625040D03*
D11*
X359727800Y-42545040D03*
D10*
X362267800Y-47625040D03*
D13*
X350102800Y-45085040D03*
X363029800Y-42545040D03*
%TD*%
D10*
%TO.C,SW225*%
X271145000Y-47625000D03*
D11*
X272415000Y-45085000D03*
D12*
X276225000Y-47625000D03*
D11*
X278765000Y-42545000D03*
D10*
X281305000Y-47625000D03*
D13*
X269140000Y-45085000D03*
X282067000Y-42545000D03*
%TD*%
D10*
%TO.C,SW423*%
X171132500Y-85725000D03*
D11*
X172402500Y-83185000D03*
D12*
X176212500Y-85725000D03*
D11*
X178752500Y-80645000D03*
D10*
X181292500Y-85725000D03*
D13*
X169127500Y-83185000D03*
X182054500Y-80645000D03*
%TD*%
D10*
%TO.C,SW415*%
X266382728Y-85725000D03*
D11*
X267652728Y-83185000D03*
D12*
X271462728Y-85725000D03*
D11*
X274002728Y-80645000D03*
D10*
X276542728Y-85725000D03*
D13*
X264377728Y-83185000D03*
X277304728Y-80645000D03*
%TD*%
D10*
%TO.C,SW133*%
X185420000Y-28575000D03*
D11*
X186690000Y-26035000D03*
D12*
X190500000Y-28575000D03*
D11*
X193040000Y-23495000D03*
D10*
X195580000Y-28575000D03*
D13*
X183415000Y-26035000D03*
X196342000Y-23495000D03*
%TD*%
D10*
%TO.C,SW115*%
X261620224Y-28575024D03*
D11*
X262890224Y-26035024D03*
D12*
X266700224Y-28575024D03*
D11*
X269240224Y-23495024D03*
D10*
X271780224Y-28575024D03*
D13*
X259615224Y-26035024D03*
X272542224Y-23495024D03*
%TD*%
D10*
%TO.C,SW501*%
X92551250Y-104775000D03*
D11*
X93821250Y-102235000D03*
D12*
X97631250Y-104775000D03*
D11*
X100171250Y-99695000D03*
D10*
X102711250Y-104775000D03*
D13*
X90546250Y-102235000D03*
X103473250Y-99695000D03*
%TD*%
D10*
%TO.C,SW317*%
X380682824Y-76200064D03*
D11*
X381952824Y-73660064D03*
D12*
X385762824Y-76200064D03*
D11*
X388302824Y-71120064D03*
D10*
X390842824Y-76200064D03*
D13*
X378677824Y-73660064D03*
X391604824Y-71120064D03*
%TD*%
D10*
%TO.C,SW335*%
X294957752Y-66675056D03*
D11*
X296227752Y-64135056D03*
D12*
X300037752Y-66675056D03*
D11*
X302577752Y-61595056D03*
D10*
X305117752Y-66675056D03*
D13*
X292952752Y-64135056D03*
X305879752Y-61595056D03*
%TD*%
D10*
%TO.C,SW116*%
X318770272Y-28575024D03*
D11*
X320040272Y-26035024D03*
D12*
X323850272Y-28575024D03*
D11*
X326390272Y-23495024D03*
D10*
X328930272Y-28575024D03*
D13*
X316765272Y-26035024D03*
X329692272Y-23495024D03*
%TD*%
D10*
%TO.C,SW507*%
X354488750Y-104775000D03*
D11*
X355758750Y-102235000D03*
D12*
X359568750Y-104775000D03*
D11*
X362108750Y-99695000D03*
D10*
X364648750Y-104775000D03*
D13*
X352483750Y-102235000D03*
X365410750Y-99695000D03*
%TD*%
D10*
%TO.C,SW127*%
X399732500Y-33337500D03*
D11*
X401002500Y-30797500D03*
D12*
X404812500Y-33337500D03*
D11*
X407352500Y-28257500D03*
D10*
X409892500Y-33337500D03*
D13*
X397727500Y-30797500D03*
X410654500Y-28257500D03*
%TD*%
D10*
%TO.C,SW231*%
X66357500Y-52387500D03*
D11*
X67627500Y-49847500D03*
D12*
X71437500Y-52387500D03*
D11*
X73977500Y-47307500D03*
D10*
X76517500Y-52387500D03*
D13*
X64352500Y-49847500D03*
X77279500Y-47307500D03*
%TD*%
D10*
%TO.C,SW421*%
X47307500Y-95250000D03*
D11*
X48577500Y-92710000D03*
D12*
X52387500Y-95250000D03*
D11*
X54927500Y-90170000D03*
D10*
X57467500Y-95250000D03*
D13*
X45302500Y-92710000D03*
X58229500Y-90170000D03*
%TD*%
D10*
%TO.C,SW214*%
X213995000Y-47625000D03*
D11*
X215265000Y-45085000D03*
D12*
X219075000Y-47625000D03*
D11*
X221615000Y-42545000D03*
D10*
X224155000Y-47625000D03*
D13*
X211990000Y-45085000D03*
X224917000Y-42545000D03*
%TD*%
D10*
%TO.C,SW505*%
X304482500Y-104775000D03*
D11*
X305752500Y-102235000D03*
D12*
X309562500Y-104775000D03*
D11*
X312102500Y-99695000D03*
D10*
X314642500Y-104775000D03*
D13*
X302477500Y-102235000D03*
X315404500Y-99695000D03*
%TD*%
D10*
%TO.C,SW417*%
X380682824Y-95250000D03*
D11*
X381952824Y-92710000D03*
D12*
X385762824Y-95250000D03*
D11*
X388302824Y-90170000D03*
D10*
X390842824Y-95250000D03*
D13*
X378677824Y-92710000D03*
X391604824Y-90170000D03*
%TD*%
D10*
%TO.C,SW125*%
X280670000Y-28575000D03*
D11*
X281940000Y-26035000D03*
D12*
X285750000Y-28575000D03*
D11*
X288290000Y-23495000D03*
D10*
X290830000Y-28575000D03*
D13*
X278665000Y-26035000D03*
X291592000Y-23495000D03*
%TD*%
D10*
%TO.C,SW437*%
X418782856Y-95250080D03*
D11*
X420052856Y-92710080D03*
D12*
X423862856Y-95250080D03*
D11*
X426402856Y-90170080D03*
D10*
X428942856Y-95250080D03*
D13*
X416777856Y-92710080D03*
X429704856Y-90170080D03*
%TD*%
D10*
%TO.C,SW111*%
X28257500Y-33337500D03*
D11*
X29527500Y-30797500D03*
D12*
X33337500Y-33337500D03*
D11*
X35877500Y-28257500D03*
D10*
X38417500Y-33337500D03*
D13*
X26252500Y-30797500D03*
X39179500Y-28257500D03*
%TD*%
D10*
%TO.C,SW217*%
X380682824Y-52387500D03*
D11*
X381952824Y-49847500D03*
D12*
X385762824Y-52387500D03*
D11*
X388302824Y-47307500D03*
D10*
X390842824Y-52387500D03*
D13*
X378677824Y-49847500D03*
X391604824Y-47307500D03*
%TD*%
D10*
%TO.C,SW121*%
X47307500Y-33337500D03*
D11*
X48577500Y-30797500D03*
D12*
X52387500Y-33337500D03*
D11*
X54927500Y-28257500D03*
D10*
X57467500Y-33337500D03*
D13*
X45302500Y-30797500D03*
X58229500Y-28257500D03*
%TD*%
D10*
%TO.C,SW416*%
X304482760Y-85725000D03*
D11*
X305752760Y-83185000D03*
D12*
X309562760Y-85725000D03*
D11*
X312102760Y-80645000D03*
D10*
X314642760Y-85725000D03*
D13*
X302477760Y-83185000D03*
X315404760Y-80645000D03*
%TD*%
D10*
%TO.C,SW212*%
X94932500Y-47625000D03*
D11*
X96202500Y-45085000D03*
D12*
X100012500Y-47625000D03*
D11*
X102552500Y-42545000D03*
D10*
X105092500Y-47625000D03*
D13*
X92927500Y-45085000D03*
X105854500Y-42545000D03*
%TD*%
D10*
%TO.C,SW234*%
X233045000Y-47625000D03*
D11*
X234315000Y-45085000D03*
D12*
X238125000Y-47625000D03*
D11*
X240665000Y-42545000D03*
D10*
X243205000Y-47625000D03*
D13*
X231040000Y-45085000D03*
X243967000Y-42545000D03*
%TD*%
D10*
%TO.C,SW117*%
X380682824Y-33337500D03*
D11*
X381952824Y-30797500D03*
D12*
X385762824Y-33337500D03*
D11*
X388302824Y-28257500D03*
D10*
X390842824Y-33337500D03*
D13*
X378677824Y-30797500D03*
X391604824Y-28257500D03*
%TD*%
D10*
%TO.C,SW137*%
X418782856Y-33337528D03*
D11*
X420052856Y-30797528D03*
D12*
X423862856Y-33337528D03*
D11*
X426402856Y-28257528D03*
D10*
X428942856Y-33337528D03*
D13*
X416777856Y-30797528D03*
X429704856Y-28257528D03*
%TD*%
D10*
%TO.C,SW233*%
X194945000Y-47625000D03*
D11*
X196215000Y-45085000D03*
D12*
X200025000Y-47625000D03*
D11*
X202565000Y-42545000D03*
D10*
X205105000Y-47625000D03*
D13*
X192940000Y-45085000D03*
X205867000Y-42545000D03*
%TD*%
D10*
%TO.C,SW211*%
X28257500Y-52387500D03*
D11*
X29527500Y-49847500D03*
D12*
X33337500Y-52387500D03*
D11*
X35877500Y-47307500D03*
D10*
X38417500Y-52387500D03*
D13*
X26252500Y-49847500D03*
X39179500Y-47307500D03*
%TD*%
D10*
%TO.C,SW315*%
X256857720Y-66675056D03*
D11*
X258127720Y-64135056D03*
D12*
X261937720Y-66675056D03*
D11*
X264477720Y-61595056D03*
D10*
X267017720Y-66675056D03*
D13*
X254852720Y-64135056D03*
X267779720Y-61595056D03*
%TD*%
D10*
%TO.C,SW425*%
X285432500Y-85725000D03*
D11*
X286702500Y-83185000D03*
D12*
X290512500Y-85725000D03*
D11*
X293052500Y-80645000D03*
D10*
X295592500Y-85725000D03*
D13*
X283427500Y-83185000D03*
X296354500Y-80645000D03*
%TD*%
D10*
%TO.C,SW333*%
X180657500Y-66675000D03*
D11*
X181927500Y-64135000D03*
D12*
X185737500Y-66675000D03*
D11*
X188277500Y-61595000D03*
D10*
X190817500Y-66675000D03*
D13*
X178652500Y-64135000D03*
X191579500Y-61595000D03*
%TD*%
D10*
%TO.C,SW235*%
X290195248Y-47625040D03*
D11*
X291465248Y-45085040D03*
D12*
X295275248Y-47625040D03*
D11*
X297815248Y-42545040D03*
D10*
X300355248Y-47625040D03*
D13*
X288190248Y-45085040D03*
X301117248Y-42545040D03*
%TD*%
D10*
%TO.C,SW323*%
X161607500Y-66675000D03*
D11*
X162877500Y-64135000D03*
D12*
X166687500Y-66675000D03*
D11*
X169227500Y-61595000D03*
D10*
X171767500Y-66675000D03*
D13*
X159602500Y-64135000D03*
X172529500Y-61595000D03*
%TD*%
D10*
%TO.C,SW122*%
X109220000Y-28575000D03*
D11*
X110490000Y-26035000D03*
D12*
X114300000Y-28575000D03*
D11*
X116840000Y-23495000D03*
D10*
X119380000Y-28575000D03*
D13*
X107215000Y-26035000D03*
X120142000Y-23495000D03*
%TD*%
D10*
%TO.C,SW436*%
X354489052Y-85725072D03*
D11*
X355759052Y-83185072D03*
D12*
X359569052Y-85725072D03*
D11*
X362109052Y-80645072D03*
D10*
X364649052Y-85725072D03*
D13*
X352484052Y-83185072D03*
X365411052Y-80645072D03*
%TD*%
D10*
%TO.C,SW427*%
X399732500Y-95250000D03*
D11*
X401002500Y-92710000D03*
D12*
X404812500Y-95250000D03*
D11*
X407352500Y-90170000D03*
D10*
X409892500Y-95250000D03*
D13*
X397727500Y-92710000D03*
X410654500Y-90170000D03*
%TD*%
D10*
%TO.C,SW331*%
X66357500Y-76200000D03*
D11*
X67627500Y-73660000D03*
D12*
X71437500Y-76200000D03*
D11*
X73977500Y-71120000D03*
D10*
X76517500Y-76200000D03*
D13*
X64352500Y-73660000D03*
X77279500Y-71120000D03*
%TD*%
D10*
%TO.C,SW237*%
X418782856Y-52387544D03*
D11*
X420052856Y-49847544D03*
D12*
X423862856Y-52387544D03*
D11*
X426402856Y-47307544D03*
D10*
X428942856Y-52387544D03*
D13*
X416777856Y-49847544D03*
X429704856Y-47307544D03*
%TD*%
D10*
%TO.C,SW434*%
X247332712Y-85725000D03*
D11*
X248602712Y-83185000D03*
D12*
X252412712Y-85725000D03*
D11*
X254952712Y-80645000D03*
D10*
X257492712Y-85725000D03*
D13*
X245327712Y-83185000D03*
X258254712Y-80645000D03*
%TD*%
D10*
%TO.C,SW426*%
X330676250Y-85725000D03*
D11*
X331946250Y-83185000D03*
D12*
X335756250Y-85725000D03*
D11*
X338296250Y-80645000D03*
D10*
X340836250Y-85725000D03*
D13*
X328671250Y-83185000D03*
X341598250Y-80645000D03*
%TD*%
D10*
%TO.C,SW215*%
X252095216Y-47625040D03*
D11*
X253365216Y-45085040D03*
D12*
X257175216Y-47625040D03*
D11*
X259715216Y-42545040D03*
D10*
X262255216Y-47625040D03*
D13*
X250090216Y-45085040D03*
X263017216Y-42545040D03*
%TD*%
D10*
%TO.C,SW431*%
X66357500Y-95250000D03*
D11*
X67627500Y-92710000D03*
D12*
X71437500Y-95250000D03*
D11*
X73977500Y-90170000D03*
D10*
X76517500Y-95250000D03*
D13*
X64352500Y-92710000D03*
X77279500Y-90170000D03*
%TD*%
D10*
%TO.C,SW124*%
X223520192Y-28575024D03*
D11*
X224790192Y-26035024D03*
D12*
X228600192Y-28575024D03*
D11*
X231140192Y-23495024D03*
D10*
X233680192Y-28575024D03*
D13*
X221515192Y-26035024D03*
X234442192Y-23495024D03*
%TD*%
D10*
%TO.C,SW131*%
X66357500Y-33337500D03*
D11*
X67627500Y-30797500D03*
D12*
X71437500Y-33337500D03*
D11*
X73977500Y-28257500D03*
D10*
X76517500Y-33337500D03*
D13*
X64352500Y-30797500D03*
X77279500Y-28257500D03*
%TD*%
D10*
%TO.C,SW324*%
X218757688Y-66675056D03*
D11*
X220027688Y-64135056D03*
D12*
X223837688Y-66675056D03*
D11*
X226377688Y-61595056D03*
D10*
X228917688Y-66675056D03*
D13*
X216752688Y-64135056D03*
X229679688Y-61595056D03*
%TD*%
D14*
%TO.C,D324*%
X232172070Y-67284430D03*
X232172070Y-63684430D03*
%TD*%
%TO.C,D504*%
X236934375Y-105384375D03*
X236934375Y-101784375D03*
%TD*%
%TO.C,D134*%
X255984279Y-29184375D03*
X255984279Y-25584375D03*
%TD*%
%TO.C,D215*%
X265509291Y-48234375D03*
X265509291Y-44634375D03*
%TD*%
%TO.C,D427*%
X413146503Y-95859347D03*
X413146503Y-92259347D03*
%TD*%
%TO.C,D335*%
X308372134Y-67284430D03*
X308372134Y-63684430D03*
%TD*%
%TO.C,D424*%
X241696845Y-86334347D03*
X241696845Y-82734347D03*
%TD*%
D15*
%TO.C,REF\u002A\u002A*%
X285750192Y-111760088D03*
D16*
X285750192Y-96550088D03*
D15*
X171450192Y-111760088D03*
D16*
X171450192Y-96550088D03*
%TD*%
D14*
%TO.C,D412*%
X115490383Y-86334347D03*
X115490383Y-82734347D03*
%TD*%
%TO.C,D507*%
X367903125Y-105384375D03*
X367903125Y-101784375D03*
%TD*%
%TO.C,D414*%
X222647062Y-86334446D03*
X222647062Y-82734446D03*
%TD*%
%TO.C,D317*%
X394096843Y-76809411D03*
X394096843Y-73209411D03*
%TD*%
%TO.C,D237*%
X432196875Y-52996891D03*
X432196875Y-49396891D03*
%TD*%
%TO.C,D436*%
X367903434Y-86334446D03*
X367903434Y-82734446D03*
%TD*%
%TO.C,D421*%
X60721875Y-95859411D03*
X60721875Y-92259411D03*
%TD*%
%TO.C,D503*%
X155971875Y-105384375D03*
X155971875Y-101784375D03*
%TD*%
%TO.C,D124*%
X236934263Y-29184375D03*
X236934263Y-25584375D03*
%TD*%
%TO.C,D115*%
X275034295Y-29184375D03*
X275034295Y-25584375D03*
%TD*%
%TO.C,D336*%
X358378426Y-67284430D03*
X358378426Y-63684430D03*
%TD*%
%TO.C,D123*%
X179784071Y-29184351D03*
X179784071Y-25584351D03*
%TD*%
%TO.C,D226*%
X341709075Y-48234335D03*
X341709075Y-44634335D03*
%TD*%
%TO.C,D235*%
X303609323Y-48234375D03*
X303609323Y-44634375D03*
%TD*%
%TO.C,D505*%
X317896875Y-105384375D03*
X317896875Y-101784375D03*
%TD*%
%TO.C,D325*%
X289321875Y-67284375D03*
X289321875Y-63684375D03*
%TD*%
%TO.C,D425*%
X298846633Y-86334347D03*
X298846633Y-82734347D03*
%TD*%
%TO.C,D323*%
X175021875Y-67284375D03*
X175021875Y-63684375D03*
%TD*%
%TO.C,D314*%
X213121875Y-67284375D03*
X213121875Y-63684375D03*
%TD*%
%TO.C,D331*%
X79771875Y-76809411D03*
X79771875Y-73209411D03*
%TD*%
%TO.C,D334*%
X251222079Y-67284431D03*
X251222079Y-63684431D03*
%TD*%
%TO.C,D337*%
X432197238Y-76809438D03*
X432197238Y-73209438D03*
%TD*%
%TO.C,D126*%
X351234071Y-29184351D03*
X351234071Y-25584351D03*
%TD*%
%TO.C,D333*%
X194071875Y-67284375D03*
X194071875Y-63684375D03*
%TD*%
%TO.C,D411*%
X41671875Y-95859411D03*
X41671875Y-92259411D03*
%TD*%
%TO.C,D214*%
X227409075Y-48234335D03*
X227409075Y-44634335D03*
%TD*%
%TO.C,D221*%
X60721875Y-52996875D03*
X60721875Y-49396875D03*
%TD*%
%TO.C,D432*%
X146446633Y-86334347D03*
X146446633Y-82734347D03*
%TD*%
%TO.C,D415*%
X279796861Y-86334347D03*
X279796861Y-82734347D03*
%TD*%
%TO.C,D212*%
X108346575Y-48234335D03*
X108346575Y-44634335D03*
%TD*%
%TO.C,D135*%
X313134327Y-29184375D03*
X313134327Y-25584375D03*
%TD*%
%TO.C,D416*%
X317896893Y-86334347D03*
X317896893Y-82734347D03*
%TD*%
%TO.C,D233*%
X208359075Y-48234335D03*
X208359075Y-44634335D03*
%TD*%
%TO.C,D321*%
X60721875Y-76809411D03*
X60721875Y-73209411D03*
%TD*%
%TO.C,D332*%
X155971875Y-67284375D03*
X155971875Y-63684375D03*
%TD*%
%TO.C,D216*%
X322659339Y-48234375D03*
X322659339Y-44634375D03*
%TD*%
%TO.C,D133*%
X198834071Y-29184351D03*
X198834071Y-25584351D03*
%TD*%
%TO.C,D136*%
X370284375Y-29184375D03*
X370284375Y-25584375D03*
%TD*%
%TO.C,D312*%
X110728125Y-67284375D03*
X110728125Y-63684375D03*
%TD*%
%TO.C,D431*%
X79771875Y-95859411D03*
X79771875Y-92259411D03*
%TD*%
%TO.C,D213*%
X170259075Y-48234335D03*
X170259075Y-44634335D03*
%TD*%
%TO.C,D234*%
X246459075Y-48234335D03*
X246459075Y-44634335D03*
%TD*%
%TO.C,D231*%
X79771875Y-52996875D03*
X79771875Y-49396875D03*
%TD*%
%TO.C,D227*%
X413146519Y-52996847D03*
X413146519Y-49396847D03*
%TD*%
%TO.C,D423*%
X184546633Y-86334347D03*
X184546633Y-82734347D03*
%TD*%
%TO.C,D127*%
X413146519Y-33946847D03*
X413146519Y-30346847D03*
%TD*%
%TO.C,D225*%
X284559075Y-48234335D03*
X284559075Y-44634335D03*
%TD*%
%TO.C,D502*%
X129778125Y-105384375D03*
X129778125Y-101784375D03*
%TD*%
%TO.C,D311*%
X41671875Y-76809411D03*
X41671875Y-73209411D03*
%TD*%
%TO.C,D121*%
X60721875Y-33946875D03*
X60721875Y-30346875D03*
%TD*%
%TO.C,D117*%
X394096843Y-33946847D03*
X394096843Y-30346847D03*
%TD*%
%TO.C,D232*%
X151209075Y-48234335D03*
X151209075Y-44634335D03*
%TD*%
%TO.C,D217*%
X394096843Y-52996847D03*
X394096843Y-49396847D03*
%TD*%
%TO.C,D211*%
X41671910Y-52996918D03*
X41671910Y-49396918D03*
%TD*%
%TO.C,D113*%
X160734071Y-29184351D03*
X160734071Y-25584351D03*
%TD*%
%TO.C,D223*%
X189309075Y-48234335D03*
X189309075Y-44634335D03*
%TD*%
%TO.C,D426*%
X344090383Y-86334347D03*
X344090383Y-82734347D03*
%TD*%
%TO.C,D434*%
X260746845Y-86334347D03*
X260746845Y-82734347D03*
%TD*%
%TO.C,D437*%
X432197238Y-95859454D03*
X432197238Y-92259454D03*
%TD*%
%TO.C,D506*%
X344090625Y-105384375D03*
X344090625Y-101784375D03*
%TD*%
%TO.C,D236*%
X365521875Y-48234375D03*
X365521875Y-44634375D03*
%TD*%
%TO.C,D111*%
X41671875Y-33946875D03*
X41671875Y-30346875D03*
%TD*%
%TO.C,D112*%
X103584071Y-29184351D03*
X103584071Y-25584351D03*
%TD*%
%TO.C,D132*%
X141684071Y-29184351D03*
X141684071Y-25584351D03*
%TD*%
D15*
%TO.C,REF\u002A\u002A*%
X119094340Y-92710072D03*
D16*
X119094340Y-77500072D03*
D15*
X95218340Y-92710072D03*
D16*
X95218340Y-77500072D03*
%TD*%
D14*
%TO.C,D316*%
X327422143Y-67284431D03*
X327422143Y-63684431D03*
%TD*%
%TO.C,D131*%
X79771875Y-33946875D03*
X79771875Y-30346875D03*
%TD*%
%TO.C,D433*%
X203596633Y-86334347D03*
X203596633Y-82734347D03*
%TD*%
%TO.C,D501*%
X105965625Y-105384375D03*
X105965625Y-101784375D03*
%TD*%
%TO.C,D137*%
X432196875Y-33946875D03*
X432196875Y-30346875D03*
%TD*%
%TO.C,D322*%
X136921875Y-67284375D03*
X136921875Y-63684375D03*
%TD*%
%TO.C,D116*%
X332184343Y-29184375D03*
X332184343Y-25584375D03*
%TD*%
%TO.C,D125*%
X294084071Y-29184351D03*
X294084071Y-25584351D03*
%TD*%
%TO.C,D222*%
X132159075Y-48234335D03*
X132159075Y-44634335D03*
%TD*%
%TO.C,D417*%
X394096487Y-95859347D03*
X394096487Y-92259347D03*
%TD*%
%TO.C,D327*%
X413146519Y-76809347D03*
X413146519Y-73209347D03*
%TD*%
%TO.C,D315*%
X270272095Y-67284431D03*
X270272095Y-63684431D03*
%TD*%
%TO.C,D122*%
X122634071Y-29184351D03*
X122634071Y-25584351D03*
%TD*%
D15*
%TO.C,REF\u002A\u002A*%
X361982044Y-73660056D03*
D16*
X361982044Y-58450056D03*
D15*
X338106044Y-73660056D03*
D16*
X338106044Y-58450056D03*
%TD*%
D14*
%TO.C,D413*%
X165496633Y-86334347D03*
X165496633Y-82734347D03*
%TD*%
D17*
%TO.C,U1*%
X251777500Y-95329462D03*
X254317500Y-95329462D03*
X256857500Y-95329462D03*
X259397500Y-95329462D03*
X261937500Y-95329462D03*
X264477500Y-95329462D03*
X267017500Y-95329462D03*
X269557500Y-95329462D03*
X272097500Y-95329462D03*
D18*
X272732500Y-98504462D03*
X272732500Y-101044462D03*
X272732500Y-103584462D03*
X272732500Y-106124462D03*
X272732500Y-108664462D03*
D19*
X272097500Y-111839462D03*
X269557500Y-111839462D03*
X267017500Y-111839462D03*
X264477500Y-111839462D03*
X261937500Y-111839462D03*
X259397500Y-111839462D03*
X256857500Y-111839462D03*
X254317500Y-111839462D03*
X251777500Y-111839462D03*
%TD*%
D14*
%TO.C,D114*%
X217884071Y-29184351D03*
X217884071Y-25584351D03*
%TD*%
D20*
%TO.C,J1*%
X247424784Y-105434462D03*
X247924784Y-105434462D03*
X248424784Y-105434462D03*
X248924784Y-105434462D03*
X249424784Y-105434462D03*
X249924784Y-105434462D03*
X250424784Y-105434462D03*
X250924784Y-105434462D03*
X251424784Y-105434462D03*
X251924784Y-105434462D03*
X252424784Y-105434462D03*
X252924784Y-105434462D03*
X253424784Y-105434462D03*
X253924784Y-105434462D03*
X254424784Y-105434462D03*
X254924784Y-105434462D03*
X255424784Y-105434462D03*
X255924784Y-105434462D03*
X256424784Y-105434462D03*
X256924784Y-105434462D03*
X257424784Y-105434462D03*
X257924784Y-105434462D03*
X258424784Y-105434462D03*
X258924784Y-105434462D03*
X259424784Y-105434462D03*
X259924784Y-105434462D03*
X260424784Y-105434462D03*
X260924784Y-105434462D03*
X261424784Y-105434462D03*
X261924784Y-105434462D03*
X262424784Y-105434462D03*
X262924784Y-105434462D03*
X263424784Y-105434462D03*
X263924784Y-105434462D03*
X264424784Y-105434462D03*
X264924784Y-105434462D03*
X265424784Y-105434462D03*
X265924784Y-105434462D03*
X266424784Y-105434462D03*
X266924784Y-105434462D03*
D21*
X245524784Y-102184462D03*
X268824784Y-102184462D03*
%TD*%
M02*
