%TF.GenerationSoftware,KiCad,Pcbnew,7.0.9*%
%TF.CreationDate,2023-12-30T16:17:37+00:00*%
%TF.ProjectId,keybird42,6b657962-6972-4643-9432-2e6b69636164,0.1*%
%TF.SameCoordinates,Original*%
%TF.FileFunction,Drillmap*%
%TF.FilePolarity,Positive*%
%FSLAX45Y45*%
G04 Gerber Fmt 4.5, Leading zero omitted, Abs format (unit mm)*
G04 Created by KiCad (PCBNEW 7.0.9) date 2023-12-30 16:17:37*
%MOMM*%
%LPD*%
G01*
G04 APERTURE LIST*
%ADD10C,0.100000*%
%ADD11C,0.200000*%
%ADD12C,0.175000*%
%ADD13C,0.304800*%
%ADD14C,0.305000*%
%ADD15C,0.398780*%
%ADD16C,0.400000*%
G04 APERTURE END LIST*
D10*
X16430625Y-11191875D02*
X16668750Y-11430000D01*
X43100661Y-2381252D02*
X37623750Y-2381250D01*
X43100661Y-10477500D02*
X43874568Y-9703602D01*
X29289375Y-11191875D02*
X36909375Y-11191875D01*
X43874568Y-9703602D02*
X43874568Y-3155159D01*
X2619377Y-2381252D02*
X1845470Y-3155159D01*
X37147500Y-1905000D02*
X8572500Y-1905000D01*
X8096250Y-10477500D02*
X8810625Y-11191875D01*
X29051250Y-11430000D02*
X29289375Y-11191875D01*
X8096250Y-2381250D02*
X2619377Y-2381252D01*
X37623750Y-2381250D02*
X37147500Y-1905000D01*
X37623750Y-10477500D02*
X43100661Y-10477500D01*
X2619377Y-10477509D02*
X8096250Y-10477500D01*
X36909375Y-11191875D02*
X37623750Y-10477500D01*
X43100661Y-2381252D02*
X43874568Y-3155159D01*
X8572500Y-1905000D02*
X8096250Y-2381250D01*
X8810625Y-11191875D02*
X16430625Y-11191875D01*
X2619377Y-10477509D02*
X1845470Y-9703602D01*
X1845470Y-3155159D02*
X1845470Y-9703602D01*
X16668750Y-11430000D02*
X29051250Y-11430000D01*
D11*
D12*
X2738250Y-3246250D02*
X2913250Y-3421250D01*
X2913250Y-3246250D02*
X2738250Y-3421250D01*
X2738250Y-5151250D02*
X2913250Y-5326250D01*
X2913250Y-5151250D02*
X2738250Y-5326250D01*
X2738250Y-7532500D02*
X2913250Y-7707500D01*
X2913250Y-7532500D02*
X2738250Y-7707500D01*
X2738250Y-9437500D02*
X2913250Y-9612500D01*
X2913250Y-9437500D02*
X2738250Y-9612500D01*
X3754250Y-3246250D02*
X3929250Y-3421250D01*
X3929250Y-3246250D02*
X3754250Y-3421250D01*
X3754250Y-5151250D02*
X3929250Y-5326250D01*
X3929250Y-5151250D02*
X3754250Y-5326250D01*
X3754250Y-7532500D02*
X3929250Y-7707500D01*
X3929250Y-7532500D02*
X3754250Y-7707500D01*
X3754250Y-9437500D02*
X3929250Y-9612500D01*
X3929250Y-9437500D02*
X3754250Y-9612500D01*
X4643250Y-3246250D02*
X4818250Y-3421250D01*
X4818250Y-3246250D02*
X4643250Y-3421250D01*
X4643250Y-5151250D02*
X4818250Y-5326250D01*
X4818250Y-5151250D02*
X4643250Y-5326250D01*
X4643250Y-7532500D02*
X4818250Y-7707500D01*
X4818250Y-7532500D02*
X4643250Y-7707500D01*
X4643250Y-9437500D02*
X4818250Y-9612500D01*
X4818250Y-9437500D02*
X4643250Y-9612500D01*
X5659250Y-3246250D02*
X5834250Y-3421250D01*
X5834250Y-3246250D02*
X5659250Y-3421250D01*
X5659250Y-5151250D02*
X5834250Y-5326250D01*
X5834250Y-5151250D02*
X5659250Y-5326250D01*
X5659250Y-7532500D02*
X5834250Y-7707500D01*
X5834250Y-7532500D02*
X5659250Y-7707500D01*
X5659250Y-9437500D02*
X5834250Y-9612500D01*
X5834250Y-9437500D02*
X5659250Y-9612500D01*
X6548250Y-3246250D02*
X6723250Y-3421250D01*
X6723250Y-3246250D02*
X6548250Y-3421250D01*
X6548250Y-5151250D02*
X6723250Y-5326250D01*
X6723250Y-5151250D02*
X6548250Y-5326250D01*
X6548250Y-7532500D02*
X6723250Y-7707500D01*
X6723250Y-7532500D02*
X6548250Y-7707500D01*
X6548250Y-9437500D02*
X6723250Y-9612500D01*
X6723250Y-9437500D02*
X6548250Y-9612500D01*
X7564250Y-3246250D02*
X7739250Y-3421250D01*
X7739250Y-3246250D02*
X7564250Y-3421250D01*
X7564250Y-5151250D02*
X7739250Y-5326250D01*
X7739250Y-5151250D02*
X7564250Y-5326250D01*
X7564250Y-7532500D02*
X7739250Y-7707500D01*
X7739250Y-7532500D02*
X7564250Y-7707500D01*
X7564250Y-9437500D02*
X7739250Y-9612500D01*
X7739250Y-9437500D02*
X7564250Y-9612500D01*
X8929500Y-2770000D02*
X9104500Y-2945000D01*
X9104500Y-2770000D02*
X8929500Y-2945000D01*
X9167625Y-10390000D02*
X9342625Y-10565000D01*
X9342625Y-10390000D02*
X9167625Y-10565000D01*
X9405750Y-4675000D02*
X9580750Y-4850000D01*
X9580750Y-4675000D02*
X9405750Y-4850000D01*
X9643875Y-6580000D02*
X9818875Y-6755000D01*
X9818875Y-6580000D02*
X9643875Y-6755000D01*
X9945500Y-2770000D02*
X10120500Y-2945000D01*
X10120500Y-2770000D02*
X9945500Y-2945000D01*
X10120125Y-8485000D02*
X10295125Y-8660000D01*
X10295125Y-8485000D02*
X10120125Y-8660000D01*
X10183625Y-10390000D02*
X10358625Y-10565000D01*
X10358625Y-10390000D02*
X10183625Y-10565000D01*
X10421750Y-4675000D02*
X10596750Y-4850000D01*
X10596750Y-4675000D02*
X10421750Y-4850000D01*
X10659875Y-6580000D02*
X10834875Y-6755000D01*
X10834875Y-6580000D02*
X10659875Y-6755000D01*
X10834500Y-2770000D02*
X11009500Y-2945000D01*
X11009500Y-2770000D02*
X10834500Y-2945000D01*
X11136125Y-8485000D02*
X11311125Y-8660000D01*
X11311125Y-8485000D02*
X11136125Y-8660000D01*
X11548875Y-10390000D02*
X11723875Y-10565000D01*
X11723875Y-10390000D02*
X11548875Y-10565000D01*
X11787000Y-4675000D02*
X11962000Y-4850000D01*
X11962000Y-4675000D02*
X11787000Y-4850000D01*
X11850500Y-2770000D02*
X12025500Y-2945000D01*
X12025500Y-2770000D02*
X11850500Y-2945000D01*
X12263250Y-6580000D02*
X12438250Y-6755000D01*
X12438250Y-6580000D02*
X12263250Y-6755000D01*
X12564875Y-10390000D02*
X12739875Y-10565000D01*
X12739875Y-10390000D02*
X12564875Y-10565000D01*
X12739500Y-2770000D02*
X12914500Y-2945000D01*
X12914500Y-2770000D02*
X12739500Y-2945000D01*
X12803000Y-4675000D02*
X12978000Y-4850000D01*
X12978000Y-4675000D02*
X12803000Y-4850000D01*
X13215750Y-8485000D02*
X13390750Y-8660000D01*
X13390750Y-8485000D02*
X13215750Y-8660000D01*
X13279250Y-6580000D02*
X13454250Y-6755000D01*
X13454250Y-6580000D02*
X13279250Y-6755000D01*
X13692000Y-4675000D02*
X13867000Y-4850000D01*
X13867000Y-4675000D02*
X13692000Y-4850000D01*
X13755500Y-2770000D02*
X13930500Y-2945000D01*
X13930500Y-2770000D02*
X13755500Y-2945000D01*
X14168250Y-6580000D02*
X14343250Y-6755000D01*
X14343250Y-6580000D02*
X14168250Y-6755000D01*
X14168250Y-10390000D02*
X14343250Y-10565000D01*
X14343250Y-10390000D02*
X14168250Y-10565000D01*
X14231750Y-8485000D02*
X14406750Y-8660000D01*
X14406750Y-8485000D02*
X14231750Y-8660000D01*
X14644500Y-2770000D02*
X14819500Y-2945000D01*
X14819500Y-2770000D02*
X14644500Y-2945000D01*
X14708000Y-4675000D02*
X14883000Y-4850000D01*
X14883000Y-4675000D02*
X14708000Y-4850000D01*
X15120750Y-8485000D02*
X15295750Y-8660000D01*
X15295750Y-8485000D02*
X15120750Y-8660000D01*
X15184250Y-6580000D02*
X15359250Y-6755000D01*
X15359250Y-6580000D02*
X15184250Y-6755000D01*
X15184250Y-10390000D02*
X15359250Y-10565000D01*
X15359250Y-10390000D02*
X15184250Y-10565000D01*
X15597000Y-4675000D02*
X15772000Y-4850000D01*
X15772000Y-4675000D02*
X15597000Y-4850000D01*
X15660500Y-2770000D02*
X15835500Y-2945000D01*
X15835500Y-2770000D02*
X15660500Y-2945000D01*
X16073250Y-6580000D02*
X16248250Y-6755000D01*
X16248250Y-6580000D02*
X16073250Y-6755000D01*
X16136750Y-8485000D02*
X16311750Y-8660000D01*
X16311750Y-8485000D02*
X16136750Y-8660000D01*
X16549500Y-2770000D02*
X16724500Y-2945000D01*
X16724500Y-2770000D02*
X16549500Y-2945000D01*
X16613000Y-4675000D02*
X16788000Y-4850000D01*
X16788000Y-4675000D02*
X16613000Y-4850000D01*
X17025750Y-8485000D02*
X17200750Y-8660000D01*
X17200750Y-8485000D02*
X17025750Y-8660000D01*
X17089250Y-6580000D02*
X17264250Y-6755000D01*
X17264250Y-6580000D02*
X17089250Y-6755000D01*
X17502000Y-4675000D02*
X17677000Y-4850000D01*
X17677000Y-4675000D02*
X17502000Y-4850000D01*
X17565500Y-2770000D02*
X17740500Y-2945000D01*
X17740500Y-2770000D02*
X17565500Y-2945000D01*
X17978250Y-6580000D02*
X18153250Y-6755000D01*
X18153250Y-6580000D02*
X17978250Y-6755000D01*
X18041750Y-8485000D02*
X18216750Y-8660000D01*
X18216750Y-8485000D02*
X18041750Y-8660000D01*
X18454500Y-2770000D02*
X18629500Y-2945000D01*
X18629500Y-2770000D02*
X18454500Y-2945000D01*
X18518000Y-4675000D02*
X18693000Y-4850000D01*
X18693000Y-4675000D02*
X18518000Y-4850000D01*
X18930750Y-8485000D02*
X19105750Y-8660000D01*
X19105750Y-8485000D02*
X18930750Y-8660000D01*
X18994250Y-6580000D02*
X19169250Y-6755000D01*
X19169250Y-6580000D02*
X18994250Y-6755000D01*
X19407000Y-4675000D02*
X19582000Y-4850000D01*
X19582000Y-4675000D02*
X19407000Y-4850000D01*
X19470500Y-2770000D02*
X19645500Y-2945000D01*
X19645500Y-2770000D02*
X19470500Y-2945000D01*
X19883250Y-6580000D02*
X20058250Y-6755000D01*
X20058250Y-6580000D02*
X19883250Y-6755000D01*
X19946750Y-8485000D02*
X20121750Y-8660000D01*
X20121750Y-8485000D02*
X19946750Y-8660000D01*
X20359500Y-2770000D02*
X20534500Y-2945000D01*
X20534500Y-2770000D02*
X20359500Y-2945000D01*
X20423000Y-4675000D02*
X20598000Y-4850000D01*
X20598000Y-4675000D02*
X20423000Y-4850000D01*
X20835768Y-8485007D02*
X21010768Y-8660007D01*
X21010768Y-8485007D02*
X20835768Y-8660007D01*
X20899250Y-6580000D02*
X21074250Y-6755000D01*
X21074250Y-6580000D02*
X20899250Y-6755000D01*
X21312000Y-4675000D02*
X21487000Y-4850000D01*
X21487000Y-4675000D02*
X21312000Y-4850000D01*
X21375500Y-2770000D02*
X21550500Y-2945000D01*
X21550500Y-2770000D02*
X21375500Y-2945000D01*
X21788269Y-6580006D02*
X21963269Y-6755006D01*
X21963269Y-6580006D02*
X21788269Y-6755006D01*
X21851768Y-8485007D02*
X22026768Y-8660007D01*
X22026768Y-8485007D02*
X21851768Y-8660007D01*
X22264500Y-10390000D02*
X22439500Y-10565000D01*
X22439500Y-10390000D02*
X22264500Y-10565000D01*
X22264519Y-2770002D02*
X22439519Y-2945002D01*
X22439519Y-2770002D02*
X22264519Y-2945002D01*
X22328000Y-4675000D02*
X22503000Y-4850000D01*
X22503000Y-4675000D02*
X22328000Y-4850000D01*
X22740771Y-8485000D02*
X22915771Y-8660000D01*
X22915771Y-8485000D02*
X22740771Y-8660000D01*
X22804269Y-6580006D02*
X22979269Y-6755006D01*
X22979269Y-6580006D02*
X22804269Y-6755006D01*
X23217000Y-4675000D02*
X23392000Y-4850000D01*
X23392000Y-4675000D02*
X23217000Y-4850000D01*
X23280500Y-10390000D02*
X23455500Y-10565000D01*
X23455500Y-10390000D02*
X23280500Y-10565000D01*
X23280519Y-2770002D02*
X23455519Y-2945002D01*
X23455519Y-2770002D02*
X23280519Y-2945002D01*
X23693270Y-6580006D02*
X23868270Y-6755006D01*
X23868270Y-6580006D02*
X23693270Y-6755006D01*
X23756771Y-8485000D02*
X23931771Y-8660000D01*
X23931771Y-8485000D02*
X23756771Y-8660000D01*
X24169521Y-2770002D02*
X24344521Y-2945002D01*
X24344521Y-2770002D02*
X24169521Y-2945002D01*
X24233000Y-4675000D02*
X24408000Y-4850000D01*
X24408000Y-4675000D02*
X24233000Y-4850000D01*
X24645771Y-8485000D02*
X24820771Y-8660000D01*
X24820771Y-8485000D02*
X24645771Y-8660000D01*
X24709270Y-6580006D02*
X24884270Y-6755006D01*
X24884270Y-6580006D02*
X24709270Y-6755006D01*
X25122022Y-4675004D02*
X25297022Y-4850004D01*
X25297022Y-4675004D02*
X25122022Y-4850004D01*
X25185521Y-2770002D02*
X25360521Y-2945002D01*
X25360521Y-2770002D02*
X25185521Y-2945002D01*
X25598272Y-6580006D02*
X25773272Y-6755006D01*
X25773272Y-6580006D02*
X25598272Y-6755006D01*
X25661771Y-8485000D02*
X25836771Y-8660000D01*
X25836771Y-8485000D02*
X25661771Y-8660000D01*
X26074522Y-2770002D02*
X26249522Y-2945002D01*
X26249522Y-2770002D02*
X26074522Y-2945002D01*
X26138022Y-4675004D02*
X26313022Y-4850004D01*
X26313022Y-4675004D02*
X26138022Y-4850004D01*
X26550773Y-8485000D02*
X26725773Y-8660000D01*
X26725773Y-8485000D02*
X26550773Y-8660000D01*
X26614272Y-6580006D02*
X26789272Y-6755006D01*
X26789272Y-6580006D02*
X26614272Y-6755006D01*
X27027000Y-4675000D02*
X27202000Y-4850000D01*
X27202000Y-4675000D02*
X27027000Y-4850000D01*
X27090522Y-2770002D02*
X27265522Y-2945002D01*
X27265522Y-2770002D02*
X27090522Y-2945002D01*
X27503250Y-6580000D02*
X27678250Y-6755000D01*
X27678250Y-6580000D02*
X27503250Y-6755000D01*
X27566773Y-8485000D02*
X27741773Y-8660000D01*
X27741773Y-8485000D02*
X27566773Y-8660000D01*
X27979500Y-2770000D02*
X28154500Y-2945000D01*
X28154500Y-2770000D02*
X27979500Y-2945000D01*
X28043000Y-4675000D02*
X28218000Y-4850000D01*
X28218000Y-4675000D02*
X28043000Y-4850000D01*
X28455750Y-8485000D02*
X28630750Y-8660000D01*
X28630750Y-8485000D02*
X28455750Y-8660000D01*
X28519250Y-6580000D02*
X28694250Y-6755000D01*
X28694250Y-6580000D02*
X28519250Y-6755000D01*
X28932025Y-4675004D02*
X29107025Y-4850004D01*
X29107025Y-4675004D02*
X28932025Y-4850004D01*
X28995500Y-2770000D02*
X29170500Y-2945000D01*
X29170500Y-2770000D02*
X28995500Y-2945000D01*
X29408275Y-6580006D02*
X29583275Y-6755006D01*
X29583275Y-6580006D02*
X29408275Y-6755006D01*
X29471750Y-8485000D02*
X29646750Y-8660000D01*
X29646750Y-8485000D02*
X29471750Y-8660000D01*
X29884526Y-2770002D02*
X30059526Y-2945002D01*
X30059526Y-2770002D02*
X29884526Y-2945002D01*
X29948025Y-4675004D02*
X30123025Y-4850004D01*
X30123025Y-4675004D02*
X29948025Y-4850004D01*
X30360750Y-10390000D02*
X30535750Y-10565000D01*
X30535750Y-10390000D02*
X30360750Y-10565000D01*
X30360776Y-8485000D02*
X30535776Y-8660000D01*
X30535776Y-8485000D02*
X30360776Y-8660000D01*
X30424275Y-6580006D02*
X30599275Y-6755006D01*
X30599275Y-6580006D02*
X30424275Y-6755006D01*
X30837026Y-4675004D02*
X31012026Y-4850004D01*
X31012026Y-4675004D02*
X30837026Y-4850004D01*
X30900526Y-2770002D02*
X31075526Y-2945002D01*
X31075526Y-2770002D02*
X30900526Y-2945002D01*
X31313277Y-6580006D02*
X31488277Y-6755006D01*
X31488277Y-6580006D02*
X31313277Y-6755006D01*
X31376750Y-10390000D02*
X31551750Y-10565000D01*
X31551750Y-10390000D02*
X31376750Y-10565000D01*
X31376776Y-8485000D02*
X31551776Y-8660000D01*
X31551776Y-8485000D02*
X31376776Y-8660000D01*
X31789527Y-2770002D02*
X31964527Y-2945002D01*
X31964527Y-2770002D02*
X31789527Y-2945002D01*
X31853026Y-4675004D02*
X32028026Y-4850004D01*
X32028026Y-4675004D02*
X31853026Y-4850004D01*
X32329277Y-6580006D02*
X32504277Y-6755006D01*
X32504277Y-6580006D02*
X32329277Y-6755006D01*
X32742000Y-4675000D02*
X32917000Y-4850000D01*
X32917000Y-4675000D02*
X32742000Y-4850000D01*
X32805527Y-2770002D02*
X32980527Y-2945002D01*
X32980527Y-2770002D02*
X32805527Y-2945002D01*
X32980125Y-8485000D02*
X33155125Y-8660000D01*
X33155125Y-8485000D02*
X32980125Y-8660000D01*
X32980125Y-10390000D02*
X33155125Y-10565000D01*
X33155125Y-10390000D02*
X32980125Y-10565000D01*
X33694500Y-2770000D02*
X33869500Y-2945000D01*
X33869500Y-2770000D02*
X33694500Y-2945000D01*
X33758000Y-4675000D02*
X33933000Y-4850000D01*
X33933000Y-4675000D02*
X33758000Y-4850000D01*
X33996125Y-8485000D02*
X34171125Y-8660000D01*
X34171125Y-8485000D02*
X33996125Y-8660000D01*
X33996125Y-10390000D02*
X34171125Y-10565000D01*
X34171125Y-10390000D02*
X33996125Y-10565000D01*
X34408904Y-6580006D02*
X34583904Y-6755006D01*
X34583904Y-6580006D02*
X34408904Y-6755006D01*
X34710500Y-2770000D02*
X34885500Y-2945000D01*
X34885500Y-2770000D02*
X34710500Y-2945000D01*
X35123280Y-4675004D02*
X35298280Y-4850004D01*
X35298280Y-4675004D02*
X35123280Y-4850004D01*
X35361375Y-10390000D02*
X35536375Y-10565000D01*
X35536375Y-10390000D02*
X35361375Y-10565000D01*
X35361405Y-8485007D02*
X35536405Y-8660007D01*
X35536405Y-8485007D02*
X35361405Y-8660007D01*
X35424904Y-6580006D02*
X35599904Y-6755006D01*
X35599904Y-6580006D02*
X35424904Y-6755006D01*
X35599530Y-2770002D02*
X35774530Y-2945002D01*
X35774530Y-2770002D02*
X35599530Y-2945002D01*
X36139280Y-4675004D02*
X36314280Y-4850004D01*
X36314280Y-4675004D02*
X36139280Y-4850004D01*
X36377375Y-10390000D02*
X36552375Y-10565000D01*
X36552375Y-10390000D02*
X36377375Y-10565000D01*
X36377405Y-8485007D02*
X36552405Y-8660007D01*
X36552405Y-8485007D02*
X36377405Y-8660007D01*
X36615530Y-2770002D02*
X36790530Y-2945002D01*
X36790530Y-2770002D02*
X36615530Y-2945002D01*
X37980782Y-3246250D02*
X38155782Y-3421250D01*
X38155782Y-3246250D02*
X37980782Y-3421250D01*
X37980782Y-5151250D02*
X38155782Y-5326250D01*
X38155782Y-5151250D02*
X37980782Y-5326250D01*
X37980782Y-7532506D02*
X38155782Y-7707506D01*
X38155782Y-7532506D02*
X37980782Y-7707506D01*
X37980782Y-9437500D02*
X38155782Y-9612500D01*
X38155782Y-9437500D02*
X37980782Y-9612500D01*
X38996782Y-3246250D02*
X39171782Y-3421250D01*
X39171782Y-3246250D02*
X38996782Y-3421250D01*
X38996782Y-5151250D02*
X39171782Y-5326250D01*
X39171782Y-5151250D02*
X38996782Y-5326250D01*
X38996782Y-7532506D02*
X39171782Y-7707506D01*
X39171782Y-7532506D02*
X38996782Y-7707506D01*
X38996782Y-9437500D02*
X39171782Y-9612500D01*
X39171782Y-9437500D02*
X38996782Y-9612500D01*
X39885750Y-3246250D02*
X40060750Y-3421250D01*
X40060750Y-3246250D02*
X39885750Y-3421250D01*
X39885750Y-5151250D02*
X40060750Y-5326250D01*
X40060750Y-5151250D02*
X39885750Y-5326250D01*
X39885750Y-7532500D02*
X40060750Y-7707500D01*
X40060750Y-7532500D02*
X39885750Y-7707500D01*
X39885750Y-9437500D02*
X40060750Y-9612500D01*
X40060750Y-9437500D02*
X39885750Y-9612500D01*
X40901750Y-3246250D02*
X41076750Y-3421250D01*
X41076750Y-3246250D02*
X40901750Y-3421250D01*
X40901750Y-5151250D02*
X41076750Y-5326250D01*
X41076750Y-5151250D02*
X40901750Y-5326250D01*
X40901750Y-7532500D02*
X41076750Y-7707500D01*
X41076750Y-7532500D02*
X40901750Y-7707500D01*
X40901750Y-9437500D02*
X41076750Y-9612500D01*
X41076750Y-9437500D02*
X40901750Y-9612500D01*
X41790786Y-3246253D02*
X41965786Y-3421253D01*
X41965786Y-3246253D02*
X41790786Y-3421253D01*
X41790786Y-5151254D02*
X41965786Y-5326254D01*
X41965786Y-5151254D02*
X41790786Y-5326254D01*
X41790786Y-7532506D02*
X41965786Y-7707506D01*
X41965786Y-7532506D02*
X41790786Y-7707506D01*
X41790786Y-9437508D02*
X41965786Y-9612508D01*
X41965786Y-9437508D02*
X41790786Y-9612508D01*
X42806786Y-3246253D02*
X42981786Y-3421253D01*
X42981786Y-3246253D02*
X42806786Y-3421253D01*
X42806786Y-5151254D02*
X42981786Y-5326254D01*
X42981786Y-5151254D02*
X42806786Y-5326254D01*
X42806786Y-7532506D02*
X42981786Y-7707506D01*
X42981786Y-7532506D02*
X42806786Y-7707506D01*
X42806786Y-9437508D02*
X42981786Y-9612508D01*
X42981786Y-9437508D02*
X42806786Y-9612508D01*
D13*
X9674234Y-9271007D02*
G75*
G03*
X9674234Y-9271007I-152400J0D01*
G01*
X12061834Y-9271007D02*
G75*
G03*
X12061834Y-9271007I-152400J0D01*
G01*
X17297419Y-11176009D02*
G75*
G03*
X17297419Y-11176009I-152400J0D01*
G01*
X28727419Y-11176009D02*
G75*
G03*
X28727419Y-11176009I-152400J0D01*
G01*
X33963004Y-7366006D02*
G75*
G03*
X33963004Y-7366006I-152400J0D01*
G01*
X36350604Y-7366006D02*
G75*
G03*
X36350604Y-7366006I-152400J0D01*
G01*
D14*
X2952750Y-2927250D02*
X2952750Y-3232250D01*
X2800250Y-3079750D02*
X3105250Y-3079750D01*
X2952750Y-4832250D02*
X2952750Y-5137250D01*
X2800250Y-4984750D02*
X3105250Y-4984750D01*
X2952750Y-7213500D02*
X2952750Y-7518500D01*
X2800250Y-7366000D02*
X3105250Y-7366000D01*
X2952750Y-9118500D02*
X2952750Y-9423500D01*
X2800250Y-9271000D02*
X3105250Y-9271000D01*
X3587750Y-2673250D02*
X3587750Y-2978250D01*
X3435250Y-2825750D02*
X3740250Y-2825750D01*
X3587750Y-4578250D02*
X3587750Y-4883250D01*
X3435250Y-4730750D02*
X3740250Y-4730750D01*
X3587750Y-6959500D02*
X3587750Y-7264500D01*
X3435250Y-7112000D02*
X3740250Y-7112000D01*
X3587750Y-8864500D02*
X3587750Y-9169500D01*
X3435250Y-9017000D02*
X3740250Y-9017000D01*
X4857750Y-2927250D02*
X4857750Y-3232250D01*
X4705250Y-3079750D02*
X5010250Y-3079750D01*
X4857750Y-4832250D02*
X4857750Y-5137250D01*
X4705250Y-4984750D02*
X5010250Y-4984750D01*
X4857750Y-7213500D02*
X4857750Y-7518500D01*
X4705250Y-7366000D02*
X5010250Y-7366000D01*
X4857750Y-9118500D02*
X4857750Y-9423500D01*
X4705250Y-9271000D02*
X5010250Y-9271000D01*
X5492750Y-2673250D02*
X5492750Y-2978250D01*
X5340250Y-2825750D02*
X5645250Y-2825750D01*
X5492750Y-4578250D02*
X5492750Y-4883250D01*
X5340250Y-4730750D02*
X5645250Y-4730750D01*
X5492750Y-6959500D02*
X5492750Y-7264500D01*
X5340250Y-7112000D02*
X5645250Y-7112000D01*
X5492750Y-8864500D02*
X5492750Y-9169500D01*
X5340250Y-9017000D02*
X5645250Y-9017000D01*
X6762750Y-2927250D02*
X6762750Y-3232250D01*
X6610250Y-3079750D02*
X6915250Y-3079750D01*
X6762750Y-4832250D02*
X6762750Y-5137250D01*
X6610250Y-4984750D02*
X6915250Y-4984750D01*
X6762750Y-7213500D02*
X6762750Y-7518500D01*
X6610250Y-7366000D02*
X6915250Y-7366000D01*
X6762750Y-9118500D02*
X6762750Y-9423500D01*
X6610250Y-9271000D02*
X6915250Y-9271000D01*
X7397750Y-2673250D02*
X7397750Y-2978250D01*
X7245250Y-2825750D02*
X7550250Y-2825750D01*
X7397750Y-4578250D02*
X7397750Y-4883250D01*
X7245250Y-4730750D02*
X7550250Y-4730750D01*
X7397750Y-6959500D02*
X7397750Y-7264500D01*
X7245250Y-7112000D02*
X7550250Y-7112000D01*
X7397750Y-8864500D02*
X7397750Y-9169500D01*
X7245250Y-9017000D02*
X7550250Y-9017000D01*
X9144000Y-2451000D02*
X9144000Y-2756000D01*
X8991500Y-2603500D02*
X9296500Y-2603500D01*
X9382125Y-10071000D02*
X9382125Y-10376000D01*
X9229625Y-10223500D02*
X9534625Y-10223500D01*
X9620250Y-4356000D02*
X9620250Y-4661000D01*
X9467750Y-4508500D02*
X9772750Y-4508500D01*
X9779000Y-2197000D02*
X9779000Y-2502000D01*
X9626500Y-2349500D02*
X9931500Y-2349500D01*
X9858375Y-6261000D02*
X9858375Y-6566000D01*
X9705875Y-6413500D02*
X10010875Y-6413500D01*
X10017125Y-9817000D02*
X10017125Y-10122000D01*
X9864625Y-9969500D02*
X10169625Y-9969500D01*
X10255250Y-4102000D02*
X10255250Y-4407000D01*
X10102750Y-4254500D02*
X10407750Y-4254500D01*
X10334625Y-8166000D02*
X10334625Y-8471000D01*
X10182125Y-8318500D02*
X10487125Y-8318500D01*
X10493375Y-6007000D02*
X10493375Y-6312000D01*
X10340875Y-6159500D02*
X10645875Y-6159500D01*
X10969625Y-7912000D02*
X10969625Y-8217000D01*
X10817125Y-8064500D02*
X11122125Y-8064500D01*
X11049000Y-2451000D02*
X11049000Y-2756000D01*
X10896500Y-2603500D02*
X11201500Y-2603500D01*
X11684000Y-2197000D02*
X11684000Y-2502000D01*
X11531500Y-2349500D02*
X11836500Y-2349500D01*
X11763375Y-10071000D02*
X11763375Y-10376000D01*
X11610875Y-10223500D02*
X11915875Y-10223500D01*
X12001500Y-4356000D02*
X12001500Y-4661000D01*
X11849000Y-4508500D02*
X12154000Y-4508500D01*
X12398375Y-9817000D02*
X12398375Y-10122000D01*
X12245875Y-9969500D02*
X12550875Y-9969500D01*
X12477750Y-6261000D02*
X12477750Y-6566000D01*
X12325250Y-6413500D02*
X12630250Y-6413500D01*
X12636500Y-4102000D02*
X12636500Y-4407000D01*
X12484000Y-4254500D02*
X12789000Y-4254500D01*
X12954000Y-2451000D02*
X12954000Y-2756000D01*
X12801500Y-2603500D02*
X13106500Y-2603500D01*
X13112750Y-6007000D02*
X13112750Y-6312000D01*
X12960250Y-6159500D02*
X13265250Y-6159500D01*
X13430250Y-8166000D02*
X13430250Y-8471000D01*
X13277750Y-8318500D02*
X13582750Y-8318500D01*
X13589000Y-2197000D02*
X13589000Y-2502000D01*
X13436500Y-2349500D02*
X13741500Y-2349500D01*
X13906500Y-4356000D02*
X13906500Y-4661000D01*
X13754000Y-4508500D02*
X14059000Y-4508500D01*
X14065250Y-7912000D02*
X14065250Y-8217000D01*
X13912750Y-8064500D02*
X14217750Y-8064500D01*
X14382750Y-6261000D02*
X14382750Y-6566000D01*
X14230250Y-6413500D02*
X14535250Y-6413500D01*
X14382750Y-10071000D02*
X14382750Y-10376000D01*
X14230250Y-10223500D02*
X14535250Y-10223500D01*
X14541500Y-4102000D02*
X14541500Y-4407000D01*
X14389000Y-4254500D02*
X14694000Y-4254500D01*
X14859000Y-2451000D02*
X14859000Y-2756000D01*
X14706500Y-2603500D02*
X15011500Y-2603500D01*
X15017750Y-6007000D02*
X15017750Y-6312000D01*
X14865250Y-6159500D02*
X15170250Y-6159500D01*
X15017750Y-9817000D02*
X15017750Y-10122000D01*
X14865250Y-9969500D02*
X15170250Y-9969500D01*
X15335250Y-8166000D02*
X15335250Y-8471000D01*
X15182750Y-8318500D02*
X15487750Y-8318500D01*
X15494000Y-2197000D02*
X15494000Y-2502000D01*
X15341500Y-2349500D02*
X15646500Y-2349500D01*
X15811500Y-4356000D02*
X15811500Y-4661000D01*
X15659000Y-4508500D02*
X15964000Y-4508500D01*
X15970250Y-7912000D02*
X15970250Y-8217000D01*
X15817750Y-8064500D02*
X16122750Y-8064500D01*
X16287750Y-6261000D02*
X16287750Y-6566000D01*
X16135250Y-6413500D02*
X16440250Y-6413500D01*
X16446500Y-4102000D02*
X16446500Y-4407000D01*
X16294000Y-4254500D02*
X16599000Y-4254500D01*
X16764000Y-2451000D02*
X16764000Y-2756000D01*
X16611500Y-2603500D02*
X16916500Y-2603500D01*
X16922750Y-6007000D02*
X16922750Y-6312000D01*
X16770250Y-6159500D02*
X17075250Y-6159500D01*
X17240250Y-8166000D02*
X17240250Y-8471000D01*
X17087750Y-8318500D02*
X17392750Y-8318500D01*
X17399000Y-2197000D02*
X17399000Y-2502000D01*
X17246500Y-2349500D02*
X17551500Y-2349500D01*
X17716500Y-4356000D02*
X17716500Y-4661000D01*
X17564000Y-4508500D02*
X17869000Y-4508500D01*
X17875250Y-7912000D02*
X17875250Y-8217000D01*
X17722750Y-8064500D02*
X18027750Y-8064500D01*
X18192750Y-6261000D02*
X18192750Y-6566000D01*
X18040250Y-6413500D02*
X18345250Y-6413500D01*
X18351500Y-4102000D02*
X18351500Y-4407000D01*
X18199000Y-4254500D02*
X18504000Y-4254500D01*
X18669000Y-2451000D02*
X18669000Y-2756000D01*
X18516500Y-2603500D02*
X18821500Y-2603500D01*
X18827750Y-6007000D02*
X18827750Y-6312000D01*
X18675250Y-6159500D02*
X18980250Y-6159500D01*
X19145250Y-8166000D02*
X19145250Y-8471000D01*
X18992750Y-8318500D02*
X19297750Y-8318500D01*
X19304000Y-2197000D02*
X19304000Y-2502000D01*
X19151500Y-2349500D02*
X19456500Y-2349500D01*
X19621500Y-4356000D02*
X19621500Y-4661000D01*
X19469000Y-4508500D02*
X19774000Y-4508500D01*
X19780250Y-7912000D02*
X19780250Y-8217000D01*
X19627750Y-8064500D02*
X19932750Y-8064500D01*
X20097750Y-6261000D02*
X20097750Y-6566000D01*
X19945250Y-6413500D02*
X20250250Y-6413500D01*
X20256500Y-4102000D02*
X20256500Y-4407000D01*
X20104000Y-4254500D02*
X20409000Y-4254500D01*
X20574000Y-2451000D02*
X20574000Y-2756000D01*
X20421500Y-2603500D02*
X20726500Y-2603500D01*
X20732750Y-6007000D02*
X20732750Y-6312000D01*
X20580250Y-6159500D02*
X20885250Y-6159500D01*
X21050268Y-8166007D02*
X21050268Y-8471007D01*
X20897768Y-8318507D02*
X21202768Y-8318507D01*
X21209000Y-2197000D02*
X21209000Y-2502000D01*
X21056500Y-2349500D02*
X21361500Y-2349500D01*
X21526500Y-4356000D02*
X21526500Y-4661000D01*
X21374000Y-4508500D02*
X21679000Y-4508500D01*
X21685268Y-7912007D02*
X21685268Y-8217007D01*
X21532768Y-8064507D02*
X21837768Y-8064507D01*
X22002769Y-6261006D02*
X22002769Y-6566006D01*
X21850269Y-6413506D02*
X22155269Y-6413506D01*
X22161500Y-4102000D02*
X22161500Y-4407000D01*
X22009000Y-4254500D02*
X22314000Y-4254500D01*
X22479000Y-10071000D02*
X22479000Y-10376000D01*
X22326500Y-10223500D02*
X22631500Y-10223500D01*
X22479019Y-2451002D02*
X22479019Y-2756002D01*
X22326519Y-2603502D02*
X22631519Y-2603502D01*
X22637769Y-6007006D02*
X22637769Y-6312006D01*
X22485269Y-6159506D02*
X22790269Y-6159506D01*
X22955271Y-8166000D02*
X22955271Y-8471000D01*
X22802771Y-8318500D02*
X23107771Y-8318500D01*
X23114000Y-9817000D02*
X23114000Y-10122000D01*
X22961500Y-9969500D02*
X23266500Y-9969500D01*
X23114019Y-2197002D02*
X23114019Y-2502002D01*
X22961519Y-2349502D02*
X23266519Y-2349502D01*
X23431500Y-4356000D02*
X23431500Y-4661000D01*
X23279000Y-4508500D02*
X23584000Y-4508500D01*
X23590271Y-7912000D02*
X23590271Y-8217000D01*
X23437771Y-8064500D02*
X23742771Y-8064500D01*
X23907770Y-6261006D02*
X23907770Y-6566006D01*
X23755270Y-6413506D02*
X24060270Y-6413506D01*
X24066500Y-4102000D02*
X24066500Y-4407000D01*
X23914000Y-4254500D02*
X24219000Y-4254500D01*
X24384021Y-2451002D02*
X24384021Y-2756002D01*
X24231521Y-2603502D02*
X24536521Y-2603502D01*
X24542770Y-6007006D02*
X24542770Y-6312006D01*
X24390270Y-6159506D02*
X24695270Y-6159506D01*
X24860271Y-8166000D02*
X24860271Y-8471000D01*
X24707771Y-8318500D02*
X25012771Y-8318500D01*
X25019021Y-2197002D02*
X25019021Y-2502002D01*
X24866521Y-2349502D02*
X25171521Y-2349502D01*
X25336522Y-4356004D02*
X25336522Y-4661004D01*
X25184022Y-4508504D02*
X25489022Y-4508504D01*
X25495271Y-7912000D02*
X25495271Y-8217000D01*
X25342771Y-8064500D02*
X25647771Y-8064500D01*
X25812772Y-6261006D02*
X25812772Y-6566006D01*
X25660272Y-6413506D02*
X25965272Y-6413506D01*
X25971522Y-4102004D02*
X25971522Y-4407004D01*
X25819022Y-4254504D02*
X26124022Y-4254504D01*
X26289022Y-2451002D02*
X26289022Y-2756002D01*
X26136522Y-2603502D02*
X26441522Y-2603502D01*
X26447772Y-6007006D02*
X26447772Y-6312006D01*
X26295272Y-6159506D02*
X26600272Y-6159506D01*
X26765273Y-8166000D02*
X26765273Y-8471000D01*
X26612773Y-8318500D02*
X26917773Y-8318500D01*
X26924022Y-2197002D02*
X26924022Y-2502002D01*
X26771522Y-2349502D02*
X27076522Y-2349502D01*
X27241500Y-4356000D02*
X27241500Y-4661000D01*
X27089000Y-4508500D02*
X27394000Y-4508500D01*
X27400273Y-7912000D02*
X27400273Y-8217000D01*
X27247773Y-8064500D02*
X27552773Y-8064500D01*
X27717750Y-6261000D02*
X27717750Y-6566000D01*
X27565250Y-6413500D02*
X27870250Y-6413500D01*
X27876500Y-4102000D02*
X27876500Y-4407000D01*
X27724000Y-4254500D02*
X28029000Y-4254500D01*
X28194000Y-2451000D02*
X28194000Y-2756000D01*
X28041500Y-2603500D02*
X28346500Y-2603500D01*
X28352750Y-6007000D02*
X28352750Y-6312000D01*
X28200250Y-6159500D02*
X28505250Y-6159500D01*
X28670250Y-8166000D02*
X28670250Y-8471000D01*
X28517750Y-8318500D02*
X28822750Y-8318500D01*
X28829000Y-2197000D02*
X28829000Y-2502000D01*
X28676500Y-2349500D02*
X28981500Y-2349500D01*
X29146525Y-4356004D02*
X29146525Y-4661004D01*
X28994025Y-4508504D02*
X29299025Y-4508504D01*
X29305250Y-7912000D02*
X29305250Y-8217000D01*
X29152750Y-8064500D02*
X29457750Y-8064500D01*
X29622775Y-6261006D02*
X29622775Y-6566006D01*
X29470275Y-6413506D02*
X29775275Y-6413506D01*
X29781525Y-4102004D02*
X29781525Y-4407004D01*
X29629025Y-4254504D02*
X29934025Y-4254504D01*
X30099026Y-2451002D02*
X30099026Y-2756002D01*
X29946526Y-2603502D02*
X30251526Y-2603502D01*
X30257775Y-6007006D02*
X30257775Y-6312006D01*
X30105275Y-6159506D02*
X30410275Y-6159506D01*
X30575250Y-10071000D02*
X30575250Y-10376000D01*
X30422750Y-10223500D02*
X30727750Y-10223500D01*
X30575276Y-8166000D02*
X30575276Y-8471000D01*
X30422776Y-8318500D02*
X30727776Y-8318500D01*
X30734026Y-2197002D02*
X30734026Y-2502002D01*
X30581526Y-2349502D02*
X30886526Y-2349502D01*
X31051526Y-4356004D02*
X31051526Y-4661004D01*
X30899026Y-4508504D02*
X31204026Y-4508504D01*
X31210250Y-9817000D02*
X31210250Y-10122000D01*
X31057750Y-9969500D02*
X31362750Y-9969500D01*
X31210276Y-7912000D02*
X31210276Y-8217000D01*
X31057776Y-8064500D02*
X31362776Y-8064500D01*
X31527777Y-6261006D02*
X31527777Y-6566006D01*
X31375277Y-6413506D02*
X31680277Y-6413506D01*
X31686526Y-4102004D02*
X31686526Y-4407004D01*
X31534026Y-4254504D02*
X31839026Y-4254504D01*
X32004027Y-2451002D02*
X32004027Y-2756002D01*
X31851527Y-2603502D02*
X32156527Y-2603502D01*
X32162777Y-6007006D02*
X32162777Y-6312006D01*
X32010277Y-6159506D02*
X32315277Y-6159506D01*
X32639027Y-2197002D02*
X32639027Y-2502002D01*
X32486527Y-2349502D02*
X32791527Y-2349502D01*
X32956500Y-4356000D02*
X32956500Y-4661000D01*
X32804000Y-4508500D02*
X33109000Y-4508500D01*
X33194625Y-8166000D02*
X33194625Y-8471000D01*
X33042125Y-8318500D02*
X33347125Y-8318500D01*
X33194625Y-10071000D02*
X33194625Y-10376000D01*
X33042125Y-10223500D02*
X33347125Y-10223500D01*
X33591500Y-4102000D02*
X33591500Y-4407000D01*
X33439000Y-4254500D02*
X33744000Y-4254500D01*
X33829625Y-7912000D02*
X33829625Y-8217000D01*
X33677125Y-8064500D02*
X33982125Y-8064500D01*
X33829625Y-9817000D02*
X33829625Y-10122000D01*
X33677125Y-9969500D02*
X33982125Y-9969500D01*
X33909000Y-2451000D02*
X33909000Y-2756000D01*
X33756500Y-2603500D02*
X34061500Y-2603500D01*
X34544000Y-2197000D02*
X34544000Y-2502000D01*
X34391500Y-2349500D02*
X34696500Y-2349500D01*
X34623404Y-6261006D02*
X34623404Y-6566006D01*
X34470904Y-6413506D02*
X34775904Y-6413506D01*
X35258404Y-6007006D02*
X35258404Y-6312006D01*
X35105904Y-6159506D02*
X35410904Y-6159506D01*
X35337780Y-4356004D02*
X35337780Y-4661004D01*
X35185280Y-4508504D02*
X35490280Y-4508504D01*
X35575875Y-10071000D02*
X35575875Y-10376000D01*
X35423375Y-10223500D02*
X35728375Y-10223500D01*
X35575905Y-8166007D02*
X35575905Y-8471007D01*
X35423405Y-8318507D02*
X35728405Y-8318507D01*
X35814030Y-2451002D02*
X35814030Y-2756002D01*
X35661530Y-2603502D02*
X35966530Y-2603502D01*
X35972780Y-4102004D02*
X35972780Y-4407004D01*
X35820280Y-4254504D02*
X36125280Y-4254504D01*
X36210875Y-9817000D02*
X36210875Y-10122000D01*
X36058375Y-9969500D02*
X36363375Y-9969500D01*
X36210905Y-7912007D02*
X36210905Y-8217007D01*
X36058405Y-8064507D02*
X36363405Y-8064507D01*
X36449030Y-2197002D02*
X36449030Y-2502002D01*
X36296530Y-2349502D02*
X36601530Y-2349502D01*
X38195282Y-2927250D02*
X38195282Y-3232250D01*
X38042782Y-3079750D02*
X38347782Y-3079750D01*
X38195282Y-4832250D02*
X38195282Y-5137250D01*
X38042782Y-4984750D02*
X38347782Y-4984750D01*
X38195282Y-7213506D02*
X38195282Y-7518506D01*
X38042782Y-7366006D02*
X38347782Y-7366006D01*
X38195282Y-9118500D02*
X38195282Y-9423500D01*
X38042782Y-9271000D02*
X38347782Y-9271000D01*
X38830282Y-2673250D02*
X38830282Y-2978250D01*
X38677782Y-2825750D02*
X38982782Y-2825750D01*
X38830282Y-4578250D02*
X38830282Y-4883250D01*
X38677782Y-4730750D02*
X38982782Y-4730750D01*
X38830282Y-6959506D02*
X38830282Y-7264506D01*
X38677782Y-7112006D02*
X38982782Y-7112006D01*
X38830282Y-8864500D02*
X38830282Y-9169500D01*
X38677782Y-9017000D02*
X38982782Y-9017000D01*
X40100250Y-2927250D02*
X40100250Y-3232250D01*
X39947750Y-3079750D02*
X40252750Y-3079750D01*
X40100250Y-4832250D02*
X40100250Y-5137250D01*
X39947750Y-4984750D02*
X40252750Y-4984750D01*
X40100250Y-7213500D02*
X40100250Y-7518500D01*
X39947750Y-7366000D02*
X40252750Y-7366000D01*
X40100250Y-9118500D02*
X40100250Y-9423500D01*
X39947750Y-9271000D02*
X40252750Y-9271000D01*
X40735250Y-2673250D02*
X40735250Y-2978250D01*
X40582750Y-2825750D02*
X40887750Y-2825750D01*
X40735250Y-4578250D02*
X40735250Y-4883250D01*
X40582750Y-4730750D02*
X40887750Y-4730750D01*
X40735250Y-6959500D02*
X40735250Y-7264500D01*
X40582750Y-7112000D02*
X40887750Y-7112000D01*
X40735250Y-8864500D02*
X40735250Y-9169500D01*
X40582750Y-9017000D02*
X40887750Y-9017000D01*
X42005286Y-2927253D02*
X42005286Y-3232253D01*
X41852786Y-3079753D02*
X42157786Y-3079753D01*
X42005286Y-4832254D02*
X42005286Y-5137254D01*
X41852786Y-4984754D02*
X42157786Y-4984754D01*
X42005286Y-7213506D02*
X42005286Y-7518506D01*
X41852786Y-7366006D02*
X42157786Y-7366006D01*
X42005286Y-9118508D02*
X42005286Y-9423508D01*
X41852786Y-9271008D02*
X42157786Y-9271008D01*
X42640286Y-2673253D02*
X42640286Y-2978253D01*
X42487786Y-2825753D02*
X42792786Y-2825753D01*
X42640286Y-4578254D02*
X42640286Y-4883254D01*
X42487786Y-4730754D02*
X42792786Y-4730754D01*
X42640286Y-6959506D02*
X42640286Y-7264506D01*
X42487786Y-7112006D02*
X42792786Y-7112006D01*
X42640286Y-8864508D02*
X42640286Y-9169508D01*
X42487786Y-9017008D02*
X42792786Y-9017008D01*
D15*
X9662825Y-7890999D02*
X9662825Y-7609016D01*
X9380843Y-7609016D01*
X9380843Y-7890999D01*
X9662825Y-7890999D01*
X12050425Y-7890999D02*
X12050425Y-7609016D01*
X11768443Y-7609016D01*
X11768443Y-7890999D01*
X12050425Y-7890999D01*
X17286011Y-9796000D02*
X17286011Y-9514017D01*
X17004028Y-9514017D01*
X17004028Y-9796000D01*
X17286011Y-9796000D01*
X28716011Y-9796000D02*
X28716011Y-9514017D01*
X28434028Y-9514017D01*
X28434028Y-9796000D01*
X28716011Y-9796000D01*
X33951596Y-5985997D02*
X33951596Y-5704014D01*
X33669613Y-5704014D01*
X33669613Y-5985997D01*
X33951596Y-5985997D01*
X36339196Y-5985997D02*
X36339196Y-5704014D01*
X36057213Y-5704014D01*
X36057213Y-5985997D01*
X36339196Y-5985997D01*
D16*
X3333750Y-3533750D02*
X3533750Y-3333750D01*
X3333750Y-3133750D01*
X3133750Y-3333750D01*
X3333750Y-3533750D01*
X3333750Y-5438750D02*
X3533750Y-5238750D01*
X3333750Y-5038750D01*
X3133750Y-5238750D01*
X3333750Y-5438750D01*
X3333750Y-7820000D02*
X3533750Y-7620000D01*
X3333750Y-7420000D01*
X3133750Y-7620000D01*
X3333750Y-7820000D01*
X3333750Y-9725000D02*
X3533750Y-9525000D01*
X3333750Y-9325000D01*
X3133750Y-9525000D01*
X3333750Y-9725000D01*
X5238750Y-3533750D02*
X5438750Y-3333750D01*
X5238750Y-3133750D01*
X5038750Y-3333750D01*
X5238750Y-3533750D01*
X5238750Y-5438750D02*
X5438750Y-5238750D01*
X5238750Y-5038750D01*
X5038750Y-5238750D01*
X5238750Y-5438750D01*
X5238750Y-7820000D02*
X5438750Y-7620000D01*
X5238750Y-7420000D01*
X5038750Y-7620000D01*
X5238750Y-7820000D01*
X5238750Y-9725000D02*
X5438750Y-9525000D01*
X5238750Y-9325000D01*
X5038750Y-9525000D01*
X5238750Y-9725000D01*
X7143750Y-3533750D02*
X7343750Y-3333750D01*
X7143750Y-3133750D01*
X6943750Y-3333750D01*
X7143750Y-3533750D01*
X7143750Y-5438750D02*
X7343750Y-5238750D01*
X7143750Y-5038750D01*
X6943750Y-5238750D01*
X7143750Y-5438750D01*
X7143750Y-7820000D02*
X7343750Y-7620000D01*
X7143750Y-7420000D01*
X6943750Y-7620000D01*
X7143750Y-7820000D01*
X7143750Y-9725000D02*
X7343750Y-9525000D01*
X7143750Y-9325000D01*
X6943750Y-9525000D01*
X7143750Y-9725000D01*
X9525000Y-3057500D02*
X9725000Y-2857500D01*
X9525000Y-2657500D01*
X9325000Y-2857500D01*
X9525000Y-3057500D01*
X9763125Y-10677500D02*
X9963125Y-10477500D01*
X9763125Y-10277500D01*
X9563125Y-10477500D01*
X9763125Y-10677500D01*
X10001250Y-4962500D02*
X10201250Y-4762500D01*
X10001250Y-4562500D01*
X9801250Y-4762500D01*
X10001250Y-4962500D01*
X10239375Y-6867500D02*
X10439375Y-6667500D01*
X10239375Y-6467500D01*
X10039375Y-6667500D01*
X10239375Y-6867500D01*
X10715625Y-8772500D02*
X10915625Y-8572500D01*
X10715625Y-8372500D01*
X10515625Y-8572500D01*
X10715625Y-8772500D01*
X11430000Y-3057500D02*
X11630000Y-2857500D01*
X11430000Y-2657500D01*
X11230000Y-2857500D01*
X11430000Y-3057500D01*
X12144375Y-10677500D02*
X12344375Y-10477500D01*
X12144375Y-10277500D01*
X11944375Y-10477500D01*
X12144375Y-10677500D01*
X12382500Y-4962500D02*
X12582500Y-4762500D01*
X12382500Y-4562500D01*
X12182500Y-4762500D01*
X12382500Y-4962500D01*
X12858750Y-6867500D02*
X13058750Y-6667500D01*
X12858750Y-6467500D01*
X12658750Y-6667500D01*
X12858750Y-6867500D01*
X13335000Y-3057500D02*
X13535000Y-2857500D01*
X13335000Y-2657500D01*
X13135000Y-2857500D01*
X13335000Y-3057500D01*
X13811250Y-8772500D02*
X14011250Y-8572500D01*
X13811250Y-8372500D01*
X13611250Y-8572500D01*
X13811250Y-8772500D01*
X14287500Y-4962500D02*
X14487500Y-4762500D01*
X14287500Y-4562500D01*
X14087500Y-4762500D01*
X14287500Y-4962500D01*
X14763750Y-6867500D02*
X14963750Y-6667500D01*
X14763750Y-6467500D01*
X14563750Y-6667500D01*
X14763750Y-6867500D01*
X14763750Y-10677500D02*
X14963750Y-10477500D01*
X14763750Y-10277500D01*
X14563750Y-10477500D01*
X14763750Y-10677500D01*
X15240000Y-3057500D02*
X15440000Y-2857500D01*
X15240000Y-2657500D01*
X15040000Y-2857500D01*
X15240000Y-3057500D01*
X15716250Y-8772500D02*
X15916250Y-8572500D01*
X15716250Y-8372500D01*
X15516250Y-8572500D01*
X15716250Y-8772500D01*
X16192500Y-4962500D02*
X16392500Y-4762500D01*
X16192500Y-4562500D01*
X15992500Y-4762500D01*
X16192500Y-4962500D01*
X16668750Y-6867500D02*
X16868750Y-6667500D01*
X16668750Y-6467500D01*
X16468750Y-6667500D01*
X16668750Y-6867500D01*
X17145000Y-3057500D02*
X17345000Y-2857500D01*
X17145000Y-2657500D01*
X16945000Y-2857500D01*
X17145000Y-3057500D01*
X17621250Y-8772500D02*
X17821250Y-8572500D01*
X17621250Y-8372500D01*
X17421250Y-8572500D01*
X17621250Y-8772500D01*
X18097500Y-4962500D02*
X18297500Y-4762500D01*
X18097500Y-4562500D01*
X17897500Y-4762500D01*
X18097500Y-4962500D01*
X18573750Y-6867500D02*
X18773750Y-6667500D01*
X18573750Y-6467500D01*
X18373750Y-6667500D01*
X18573750Y-6867500D01*
X19050000Y-3057500D02*
X19250000Y-2857500D01*
X19050000Y-2657500D01*
X18850000Y-2857500D01*
X19050000Y-3057500D01*
X19526250Y-8772500D02*
X19726250Y-8572500D01*
X19526250Y-8372500D01*
X19326250Y-8572500D01*
X19526250Y-8772500D01*
X20002500Y-4962500D02*
X20202500Y-4762500D01*
X20002500Y-4562500D01*
X19802500Y-4762500D01*
X20002500Y-4962500D01*
X20478750Y-6867500D02*
X20678750Y-6667500D01*
X20478750Y-6467500D01*
X20278750Y-6667500D01*
X20478750Y-6867500D01*
X20955000Y-3057500D02*
X21155000Y-2857500D01*
X20955000Y-2657500D01*
X20755000Y-2857500D01*
X20955000Y-3057500D01*
X21431268Y-8772507D02*
X21631268Y-8572507D01*
X21431268Y-8372507D01*
X21231268Y-8572507D01*
X21431268Y-8772507D01*
X21907500Y-4962500D02*
X22107500Y-4762500D01*
X21907500Y-4562500D01*
X21707500Y-4762500D01*
X21907500Y-4962500D01*
X22383769Y-6867506D02*
X22583769Y-6667506D01*
X22383769Y-6467506D01*
X22183769Y-6667506D01*
X22383769Y-6867506D01*
X22860000Y-10677500D02*
X23060000Y-10477500D01*
X22860000Y-10277500D01*
X22660000Y-10477500D01*
X22860000Y-10677500D01*
X22860019Y-3057502D02*
X23060019Y-2857502D01*
X22860019Y-2657502D01*
X22660019Y-2857502D01*
X22860019Y-3057502D01*
X23336271Y-8772500D02*
X23536271Y-8572500D01*
X23336271Y-8372500D01*
X23136271Y-8572500D01*
X23336271Y-8772500D01*
X23812500Y-4962500D02*
X24012500Y-4762500D01*
X23812500Y-4562500D01*
X23612500Y-4762500D01*
X23812500Y-4962500D01*
X24288770Y-6867506D02*
X24488770Y-6667506D01*
X24288770Y-6467506D01*
X24088770Y-6667506D01*
X24288770Y-6867506D01*
X24765021Y-3057502D02*
X24965021Y-2857502D01*
X24765021Y-2657502D01*
X24565021Y-2857502D01*
X24765021Y-3057502D01*
X25241271Y-8772500D02*
X25441271Y-8572500D01*
X25241271Y-8372500D01*
X25041271Y-8572500D01*
X25241271Y-8772500D01*
X25717522Y-4962504D02*
X25917522Y-4762504D01*
X25717522Y-4562504D01*
X25517522Y-4762504D01*
X25717522Y-4962504D01*
X26193772Y-6867506D02*
X26393772Y-6667506D01*
X26193772Y-6467506D01*
X25993772Y-6667506D01*
X26193772Y-6867506D01*
X26670022Y-3057502D02*
X26870022Y-2857502D01*
X26670022Y-2657502D01*
X26470022Y-2857502D01*
X26670022Y-3057502D01*
X27146273Y-8772500D02*
X27346273Y-8572500D01*
X27146273Y-8372500D01*
X26946273Y-8572500D01*
X27146273Y-8772500D01*
X27622500Y-4962500D02*
X27822500Y-4762500D01*
X27622500Y-4562500D01*
X27422500Y-4762500D01*
X27622500Y-4962500D01*
X28098750Y-6867500D02*
X28298750Y-6667500D01*
X28098750Y-6467500D01*
X27898750Y-6667500D01*
X28098750Y-6867500D01*
X28575000Y-3057500D02*
X28775000Y-2857500D01*
X28575000Y-2657500D01*
X28375000Y-2857500D01*
X28575000Y-3057500D01*
X29051250Y-8772500D02*
X29251250Y-8572500D01*
X29051250Y-8372500D01*
X28851250Y-8572500D01*
X29051250Y-8772500D01*
X29527525Y-4962504D02*
X29727525Y-4762504D01*
X29527525Y-4562504D01*
X29327525Y-4762504D01*
X29527525Y-4962504D01*
X30003775Y-6867506D02*
X30203775Y-6667506D01*
X30003775Y-6467506D01*
X29803775Y-6667506D01*
X30003775Y-6867506D01*
X30480026Y-3057502D02*
X30680026Y-2857502D01*
X30480026Y-2657502D01*
X30280026Y-2857502D01*
X30480026Y-3057502D01*
X30956250Y-10677500D02*
X31156250Y-10477500D01*
X30956250Y-10277500D01*
X30756250Y-10477500D01*
X30956250Y-10677500D01*
X30956276Y-8772500D02*
X31156276Y-8572500D01*
X30956276Y-8372500D01*
X30756276Y-8572500D01*
X30956276Y-8772500D01*
X31432526Y-4962504D02*
X31632526Y-4762504D01*
X31432526Y-4562504D01*
X31232526Y-4762504D01*
X31432526Y-4962504D01*
X31908777Y-6867506D02*
X32108777Y-6667506D01*
X31908777Y-6467506D01*
X31708777Y-6667506D01*
X31908777Y-6867506D01*
X32385027Y-3057502D02*
X32585027Y-2857502D01*
X32385027Y-2657502D01*
X32185027Y-2857502D01*
X32385027Y-3057502D01*
X33337500Y-4962500D02*
X33537500Y-4762500D01*
X33337500Y-4562500D01*
X33137500Y-4762500D01*
X33337500Y-4962500D01*
X33575625Y-8772500D02*
X33775625Y-8572500D01*
X33575625Y-8372500D01*
X33375625Y-8572500D01*
X33575625Y-8772500D01*
X33575625Y-10677500D02*
X33775625Y-10477500D01*
X33575625Y-10277500D01*
X33375625Y-10477500D01*
X33575625Y-10677500D01*
X34290000Y-3057500D02*
X34490000Y-2857500D01*
X34290000Y-2657500D01*
X34090000Y-2857500D01*
X34290000Y-3057500D01*
X35004404Y-6867506D02*
X35204404Y-6667506D01*
X35004404Y-6467506D01*
X34804404Y-6667506D01*
X35004404Y-6867506D01*
X35718780Y-4962504D02*
X35918780Y-4762504D01*
X35718780Y-4562504D01*
X35518780Y-4762504D01*
X35718780Y-4962504D01*
X35956875Y-10677500D02*
X36156875Y-10477500D01*
X35956875Y-10277500D01*
X35756875Y-10477500D01*
X35956875Y-10677500D01*
X35956905Y-8772507D02*
X36156905Y-8572507D01*
X35956905Y-8372507D01*
X35756905Y-8572507D01*
X35956905Y-8772507D01*
X36195030Y-3057502D02*
X36395030Y-2857502D01*
X36195030Y-2657502D01*
X35995030Y-2857502D01*
X36195030Y-3057502D01*
X38576282Y-3533750D02*
X38776282Y-3333750D01*
X38576282Y-3133750D01*
X38376282Y-3333750D01*
X38576282Y-3533750D01*
X38576282Y-5438750D02*
X38776282Y-5238750D01*
X38576282Y-5038750D01*
X38376282Y-5238750D01*
X38576282Y-5438750D01*
X38576282Y-7820006D02*
X38776282Y-7620006D01*
X38576282Y-7420006D01*
X38376282Y-7620006D01*
X38576282Y-7820006D01*
X38576282Y-9725000D02*
X38776282Y-9525000D01*
X38576282Y-9325000D01*
X38376282Y-9525000D01*
X38576282Y-9725000D01*
X40481250Y-3533750D02*
X40681250Y-3333750D01*
X40481250Y-3133750D01*
X40281250Y-3333750D01*
X40481250Y-3533750D01*
X40481250Y-5438750D02*
X40681250Y-5238750D01*
X40481250Y-5038750D01*
X40281250Y-5238750D01*
X40481250Y-5438750D01*
X40481250Y-7820000D02*
X40681250Y-7620000D01*
X40481250Y-7420000D01*
X40281250Y-7620000D01*
X40481250Y-7820000D01*
X40481250Y-9725000D02*
X40681250Y-9525000D01*
X40481250Y-9325000D01*
X40281250Y-9525000D01*
X40481250Y-9725000D01*
X42386286Y-3533753D02*
X42586286Y-3333753D01*
X42386286Y-3133753D01*
X42186286Y-3333753D01*
X42386286Y-3533753D01*
X42386286Y-5438754D02*
X42586286Y-5238754D01*
X42386286Y-5038754D01*
X42186286Y-5238754D01*
X42386286Y-5438754D01*
X42386286Y-7820006D02*
X42586286Y-7620006D01*
X42386286Y-7420006D01*
X42186286Y-7620006D01*
X42386286Y-7820006D01*
X42386286Y-9725008D02*
X42586286Y-9525008D01*
X42386286Y-9325008D01*
X42186286Y-9525008D01*
X42386286Y-9725008D01*
D11*
X2101247Y-11746484D02*
X2101247Y-11546484D01*
X2101247Y-11546484D02*
X2148866Y-11546484D01*
X2148866Y-11546484D02*
X2177438Y-11556008D01*
X2177438Y-11556008D02*
X2196485Y-11575055D01*
X2196485Y-11575055D02*
X2206009Y-11594103D01*
X2206009Y-11594103D02*
X2215533Y-11632198D01*
X2215533Y-11632198D02*
X2215533Y-11660769D01*
X2215533Y-11660769D02*
X2206009Y-11698865D01*
X2206009Y-11698865D02*
X2196485Y-11717912D01*
X2196485Y-11717912D02*
X2177438Y-11736960D01*
X2177438Y-11736960D02*
X2148866Y-11746484D01*
X2148866Y-11746484D02*
X2101247Y-11746484D01*
X2301247Y-11746484D02*
X2301247Y-11613150D01*
X2301247Y-11651246D02*
X2310771Y-11632198D01*
X2310771Y-11632198D02*
X2320295Y-11622674D01*
X2320295Y-11622674D02*
X2339342Y-11613150D01*
X2339342Y-11613150D02*
X2358390Y-11613150D01*
X2425057Y-11746484D02*
X2425057Y-11613150D01*
X2425057Y-11546484D02*
X2415533Y-11556008D01*
X2415533Y-11556008D02*
X2425057Y-11565531D01*
X2425057Y-11565531D02*
X2434580Y-11556008D01*
X2434580Y-11556008D02*
X2425057Y-11546484D01*
X2425057Y-11546484D02*
X2425057Y-11565531D01*
X2548866Y-11746484D02*
X2529819Y-11736960D01*
X2529819Y-11736960D02*
X2520295Y-11717912D01*
X2520295Y-11717912D02*
X2520295Y-11546484D01*
X2653628Y-11746484D02*
X2634580Y-11736960D01*
X2634580Y-11736960D02*
X2625057Y-11717912D01*
X2625057Y-11717912D02*
X2625057Y-11546484D01*
X2882199Y-11746484D02*
X2882199Y-11546484D01*
X2882199Y-11546484D02*
X2948866Y-11689341D01*
X2948866Y-11689341D02*
X3015533Y-11546484D01*
X3015533Y-11546484D02*
X3015533Y-11746484D01*
X3196485Y-11746484D02*
X3196485Y-11641722D01*
X3196485Y-11641722D02*
X3186961Y-11622674D01*
X3186961Y-11622674D02*
X3167914Y-11613150D01*
X3167914Y-11613150D02*
X3129818Y-11613150D01*
X3129818Y-11613150D02*
X3110771Y-11622674D01*
X3196485Y-11736960D02*
X3177438Y-11746484D01*
X3177438Y-11746484D02*
X3129818Y-11746484D01*
X3129818Y-11746484D02*
X3110771Y-11736960D01*
X3110771Y-11736960D02*
X3101247Y-11717912D01*
X3101247Y-11717912D02*
X3101247Y-11698865D01*
X3101247Y-11698865D02*
X3110771Y-11679817D01*
X3110771Y-11679817D02*
X3129818Y-11670293D01*
X3129818Y-11670293D02*
X3177438Y-11670293D01*
X3177438Y-11670293D02*
X3196485Y-11660769D01*
X3291723Y-11613150D02*
X3291723Y-11813150D01*
X3291723Y-11622674D02*
X3310771Y-11613150D01*
X3310771Y-11613150D02*
X3348866Y-11613150D01*
X3348866Y-11613150D02*
X3367914Y-11622674D01*
X3367914Y-11622674D02*
X3377438Y-11632198D01*
X3377438Y-11632198D02*
X3386961Y-11651246D01*
X3386961Y-11651246D02*
X3386961Y-11708388D01*
X3386961Y-11708388D02*
X3377438Y-11727436D01*
X3377438Y-11727436D02*
X3367914Y-11736960D01*
X3367914Y-11736960D02*
X3348866Y-11746484D01*
X3348866Y-11746484D02*
X3310771Y-11746484D01*
X3310771Y-11746484D02*
X3291723Y-11736960D01*
X3472676Y-11727436D02*
X3482199Y-11736960D01*
X3482199Y-11736960D02*
X3472676Y-11746484D01*
X3472676Y-11746484D02*
X3463152Y-11736960D01*
X3463152Y-11736960D02*
X3472676Y-11727436D01*
X3472676Y-11727436D02*
X3472676Y-11746484D01*
X3472676Y-11622674D02*
X3482199Y-11632198D01*
X3482199Y-11632198D02*
X3472676Y-11641722D01*
X3472676Y-11641722D02*
X3463152Y-11632198D01*
X3463152Y-11632198D02*
X3472676Y-11622674D01*
X3472676Y-11622674D02*
X3472676Y-11641722D01*
D12*
X1665470Y-11987500D02*
X1840470Y-12162500D01*
X1840470Y-11987500D02*
X1665470Y-12162500D01*
D11*
X2206009Y-12166484D02*
X2091723Y-12166484D01*
X2148866Y-12166484D02*
X2148866Y-11966484D01*
X2148866Y-11966484D02*
X2129819Y-11995055D01*
X2129819Y-11995055D02*
X2110771Y-12014103D01*
X2110771Y-12014103D02*
X2091723Y-12023627D01*
X2291723Y-12147436D02*
X2301247Y-12156960D01*
X2301247Y-12156960D02*
X2291723Y-12166484D01*
X2291723Y-12166484D02*
X2282200Y-12156960D01*
X2282200Y-12156960D02*
X2291723Y-12147436D01*
X2291723Y-12147436D02*
X2291723Y-12166484D01*
X2367914Y-11966484D02*
X2501247Y-11966484D01*
X2501247Y-11966484D02*
X2415533Y-12166484D01*
X2672676Y-11966484D02*
X2577438Y-11966484D01*
X2577438Y-11966484D02*
X2567914Y-12061722D01*
X2567914Y-12061722D02*
X2577438Y-12052198D01*
X2577438Y-12052198D02*
X2596485Y-12042674D01*
X2596485Y-12042674D02*
X2644104Y-12042674D01*
X2644104Y-12042674D02*
X2663152Y-12052198D01*
X2663152Y-12052198D02*
X2672676Y-12061722D01*
X2672676Y-12061722D02*
X2682200Y-12080769D01*
X2682200Y-12080769D02*
X2682200Y-12128388D01*
X2682200Y-12128388D02*
X2672676Y-12147436D01*
X2672676Y-12147436D02*
X2663152Y-12156960D01*
X2663152Y-12156960D02*
X2644104Y-12166484D01*
X2644104Y-12166484D02*
X2596485Y-12166484D01*
X2596485Y-12166484D02*
X2577438Y-12156960D01*
X2577438Y-12156960D02*
X2567914Y-12147436D01*
X2806009Y-11966484D02*
X2825057Y-11966484D01*
X2825057Y-11966484D02*
X2844104Y-11976008D01*
X2844104Y-11976008D02*
X2853628Y-11985531D01*
X2853628Y-11985531D02*
X2863152Y-12004579D01*
X2863152Y-12004579D02*
X2872676Y-12042674D01*
X2872676Y-12042674D02*
X2872676Y-12090293D01*
X2872676Y-12090293D02*
X2863152Y-12128388D01*
X2863152Y-12128388D02*
X2853628Y-12147436D01*
X2853628Y-12147436D02*
X2844104Y-12156960D01*
X2844104Y-12156960D02*
X2825057Y-12166484D01*
X2825057Y-12166484D02*
X2806009Y-12166484D01*
X2806009Y-12166484D02*
X2786961Y-12156960D01*
X2786961Y-12156960D02*
X2777438Y-12147436D01*
X2777438Y-12147436D02*
X2767914Y-12128388D01*
X2767914Y-12128388D02*
X2758390Y-12090293D01*
X2758390Y-12090293D02*
X2758390Y-12042674D01*
X2758390Y-12042674D02*
X2767914Y-12004579D01*
X2767914Y-12004579D02*
X2777438Y-11985531D01*
X2777438Y-11985531D02*
X2786961Y-11976008D01*
X2786961Y-11976008D02*
X2806009Y-11966484D01*
X2958390Y-12166484D02*
X2958390Y-12033150D01*
X2958390Y-12052198D02*
X2967914Y-12042674D01*
X2967914Y-12042674D02*
X2986961Y-12033150D01*
X2986961Y-12033150D02*
X3015533Y-12033150D01*
X3015533Y-12033150D02*
X3034580Y-12042674D01*
X3034580Y-12042674D02*
X3044104Y-12061722D01*
X3044104Y-12061722D02*
X3044104Y-12166484D01*
X3044104Y-12061722D02*
X3053628Y-12042674D01*
X3053628Y-12042674D02*
X3072676Y-12033150D01*
X3072676Y-12033150D02*
X3101247Y-12033150D01*
X3101247Y-12033150D02*
X3120295Y-12042674D01*
X3120295Y-12042674D02*
X3129819Y-12061722D01*
X3129819Y-12061722D02*
X3129819Y-12166484D01*
X3225057Y-12166484D02*
X3225057Y-12033150D01*
X3225057Y-12052198D02*
X3234580Y-12042674D01*
X3234580Y-12042674D02*
X3253628Y-12033150D01*
X3253628Y-12033150D02*
X3282200Y-12033150D01*
X3282200Y-12033150D02*
X3301247Y-12042674D01*
X3301247Y-12042674D02*
X3310771Y-12061722D01*
X3310771Y-12061722D02*
X3310771Y-12166484D01*
X3310771Y-12061722D02*
X3320295Y-12042674D01*
X3320295Y-12042674D02*
X3339342Y-12033150D01*
X3339342Y-12033150D02*
X3367914Y-12033150D01*
X3367914Y-12033150D02*
X3386961Y-12042674D01*
X3386961Y-12042674D02*
X3396485Y-12061722D01*
X3396485Y-12061722D02*
X3396485Y-12166484D01*
X3786961Y-11956960D02*
X3615533Y-12214103D01*
X4044104Y-11966484D02*
X4063152Y-11966484D01*
X4063152Y-11966484D02*
X4082200Y-11976008D01*
X4082200Y-11976008D02*
X4091723Y-11985531D01*
X4091723Y-11985531D02*
X4101247Y-12004579D01*
X4101247Y-12004579D02*
X4110771Y-12042674D01*
X4110771Y-12042674D02*
X4110771Y-12090293D01*
X4110771Y-12090293D02*
X4101247Y-12128388D01*
X4101247Y-12128388D02*
X4091723Y-12147436D01*
X4091723Y-12147436D02*
X4082200Y-12156960D01*
X4082200Y-12156960D02*
X4063152Y-12166484D01*
X4063152Y-12166484D02*
X4044104Y-12166484D01*
X4044104Y-12166484D02*
X4025057Y-12156960D01*
X4025057Y-12156960D02*
X4015533Y-12147436D01*
X4015533Y-12147436D02*
X4006009Y-12128388D01*
X4006009Y-12128388D02*
X3996485Y-12090293D01*
X3996485Y-12090293D02*
X3996485Y-12042674D01*
X3996485Y-12042674D02*
X4006009Y-12004579D01*
X4006009Y-12004579D02*
X4015533Y-11985531D01*
X4015533Y-11985531D02*
X4025057Y-11976008D01*
X4025057Y-11976008D02*
X4044104Y-11966484D01*
X4196485Y-12147436D02*
X4206009Y-12156960D01*
X4206009Y-12156960D02*
X4196485Y-12166484D01*
X4196485Y-12166484D02*
X4186962Y-12156960D01*
X4186962Y-12156960D02*
X4196485Y-12147436D01*
X4196485Y-12147436D02*
X4196485Y-12166484D01*
X4329819Y-11966484D02*
X4348866Y-11966484D01*
X4348866Y-11966484D02*
X4367914Y-11976008D01*
X4367914Y-11976008D02*
X4377438Y-11985531D01*
X4377438Y-11985531D02*
X4386962Y-12004579D01*
X4386962Y-12004579D02*
X4396485Y-12042674D01*
X4396485Y-12042674D02*
X4396485Y-12090293D01*
X4396485Y-12090293D02*
X4386962Y-12128388D01*
X4386962Y-12128388D02*
X4377438Y-12147436D01*
X4377438Y-12147436D02*
X4367914Y-12156960D01*
X4367914Y-12156960D02*
X4348866Y-12166484D01*
X4348866Y-12166484D02*
X4329819Y-12166484D01*
X4329819Y-12166484D02*
X4310771Y-12156960D01*
X4310771Y-12156960D02*
X4301247Y-12147436D01*
X4301247Y-12147436D02*
X4291724Y-12128388D01*
X4291724Y-12128388D02*
X4282200Y-12090293D01*
X4282200Y-12090293D02*
X4282200Y-12042674D01*
X4282200Y-12042674D02*
X4291724Y-12004579D01*
X4291724Y-12004579D02*
X4301247Y-11985531D01*
X4301247Y-11985531D02*
X4310771Y-11976008D01*
X4310771Y-11976008D02*
X4329819Y-11966484D01*
X4567914Y-11966484D02*
X4529819Y-11966484D01*
X4529819Y-11966484D02*
X4510771Y-11976008D01*
X4510771Y-11976008D02*
X4501247Y-11985531D01*
X4501247Y-11985531D02*
X4482200Y-12014103D01*
X4482200Y-12014103D02*
X4472676Y-12052198D01*
X4472676Y-12052198D02*
X4472676Y-12128388D01*
X4472676Y-12128388D02*
X4482200Y-12147436D01*
X4482200Y-12147436D02*
X4491724Y-12156960D01*
X4491724Y-12156960D02*
X4510771Y-12166484D01*
X4510771Y-12166484D02*
X4548866Y-12166484D01*
X4548866Y-12166484D02*
X4567914Y-12156960D01*
X4567914Y-12156960D02*
X4577438Y-12147436D01*
X4577438Y-12147436D02*
X4586962Y-12128388D01*
X4586962Y-12128388D02*
X4586962Y-12080769D01*
X4586962Y-12080769D02*
X4577438Y-12061722D01*
X4577438Y-12061722D02*
X4567914Y-12052198D01*
X4567914Y-12052198D02*
X4548866Y-12042674D01*
X4548866Y-12042674D02*
X4510771Y-12042674D01*
X4510771Y-12042674D02*
X4491724Y-12052198D01*
X4491724Y-12052198D02*
X4482200Y-12061722D01*
X4482200Y-12061722D02*
X4472676Y-12080769D01*
X4701247Y-12052198D02*
X4682200Y-12042674D01*
X4682200Y-12042674D02*
X4672676Y-12033150D01*
X4672676Y-12033150D02*
X4663152Y-12014103D01*
X4663152Y-12014103D02*
X4663152Y-12004579D01*
X4663152Y-12004579D02*
X4672676Y-11985531D01*
X4672676Y-11985531D02*
X4682200Y-11976008D01*
X4682200Y-11976008D02*
X4701247Y-11966484D01*
X4701247Y-11966484D02*
X4739343Y-11966484D01*
X4739343Y-11966484D02*
X4758390Y-11976008D01*
X4758390Y-11976008D02*
X4767914Y-11985531D01*
X4767914Y-11985531D02*
X4777438Y-12004579D01*
X4777438Y-12004579D02*
X4777438Y-12014103D01*
X4777438Y-12014103D02*
X4767914Y-12033150D01*
X4767914Y-12033150D02*
X4758390Y-12042674D01*
X4758390Y-12042674D02*
X4739343Y-12052198D01*
X4739343Y-12052198D02*
X4701247Y-12052198D01*
X4701247Y-12052198D02*
X4682200Y-12061722D01*
X4682200Y-12061722D02*
X4672676Y-12071246D01*
X4672676Y-12071246D02*
X4663152Y-12090293D01*
X4663152Y-12090293D02*
X4663152Y-12128388D01*
X4663152Y-12128388D02*
X4672676Y-12147436D01*
X4672676Y-12147436D02*
X4682200Y-12156960D01*
X4682200Y-12156960D02*
X4701247Y-12166484D01*
X4701247Y-12166484D02*
X4739343Y-12166484D01*
X4739343Y-12166484D02*
X4758390Y-12156960D01*
X4758390Y-12156960D02*
X4767914Y-12147436D01*
X4767914Y-12147436D02*
X4777438Y-12128388D01*
X4777438Y-12128388D02*
X4777438Y-12090293D01*
X4777438Y-12090293D02*
X4767914Y-12071246D01*
X4767914Y-12071246D02*
X4758390Y-12061722D01*
X4758390Y-12061722D02*
X4739343Y-12052198D01*
X4872676Y-12166484D02*
X4910771Y-12166484D01*
X4910771Y-12166484D02*
X4929819Y-12156960D01*
X4929819Y-12156960D02*
X4939343Y-12147436D01*
X4939343Y-12147436D02*
X4958390Y-12118865D01*
X4958390Y-12118865D02*
X4967914Y-12080769D01*
X4967914Y-12080769D02*
X4967914Y-12004579D01*
X4967914Y-12004579D02*
X4958390Y-11985531D01*
X4958390Y-11985531D02*
X4948866Y-11976008D01*
X4948866Y-11976008D02*
X4929819Y-11966484D01*
X4929819Y-11966484D02*
X4891724Y-11966484D01*
X4891724Y-11966484D02*
X4872676Y-11976008D01*
X4872676Y-11976008D02*
X4863152Y-11985531D01*
X4863152Y-11985531D02*
X4853628Y-12004579D01*
X4853628Y-12004579D02*
X4853628Y-12052198D01*
X4853628Y-12052198D02*
X4863152Y-12071246D01*
X4863152Y-12071246D02*
X4872676Y-12080769D01*
X4872676Y-12080769D02*
X4891724Y-12090293D01*
X4891724Y-12090293D02*
X4929819Y-12090293D01*
X4929819Y-12090293D02*
X4948866Y-12080769D01*
X4948866Y-12080769D02*
X4958390Y-12071246D01*
X4958390Y-12071246D02*
X4967914Y-12052198D01*
X5044105Y-11966484D02*
X5044105Y-12004579D01*
X5120295Y-11966484D02*
X5120295Y-12004579D01*
X5415533Y-12242674D02*
X5406009Y-12233150D01*
X5406009Y-12233150D02*
X5386962Y-12204579D01*
X5386962Y-12204579D02*
X5377438Y-12185531D01*
X5377438Y-12185531D02*
X5367914Y-12156960D01*
X5367914Y-12156960D02*
X5358390Y-12109341D01*
X5358390Y-12109341D02*
X5358390Y-12071246D01*
X5358390Y-12071246D02*
X5367914Y-12023627D01*
X5367914Y-12023627D02*
X5377438Y-11995055D01*
X5377438Y-11995055D02*
X5386962Y-11976008D01*
X5386962Y-11976008D02*
X5406009Y-11947436D01*
X5406009Y-11947436D02*
X5415533Y-11937912D01*
X5596485Y-12166484D02*
X5482200Y-12166484D01*
X5539343Y-12166484D02*
X5539343Y-11966484D01*
X5539343Y-11966484D02*
X5520295Y-11995055D01*
X5520295Y-11995055D02*
X5501247Y-12014103D01*
X5501247Y-12014103D02*
X5482200Y-12023627D01*
X5663152Y-11966484D02*
X5796485Y-11966484D01*
X5796485Y-11966484D02*
X5710771Y-12166484D01*
X5863152Y-11985531D02*
X5872676Y-11976008D01*
X5872676Y-11976008D02*
X5891724Y-11966484D01*
X5891724Y-11966484D02*
X5939343Y-11966484D01*
X5939343Y-11966484D02*
X5958390Y-11976008D01*
X5958390Y-11976008D02*
X5967914Y-11985531D01*
X5967914Y-11985531D02*
X5977438Y-12004579D01*
X5977438Y-12004579D02*
X5977438Y-12023627D01*
X5977438Y-12023627D02*
X5967914Y-12052198D01*
X5967914Y-12052198D02*
X5853628Y-12166484D01*
X5853628Y-12166484D02*
X5977438Y-12166484D01*
X6215533Y-12166484D02*
X6215533Y-11966484D01*
X6301247Y-12166484D02*
X6301247Y-12061722D01*
X6301247Y-12061722D02*
X6291724Y-12042674D01*
X6291724Y-12042674D02*
X6272676Y-12033150D01*
X6272676Y-12033150D02*
X6244105Y-12033150D01*
X6244105Y-12033150D02*
X6225057Y-12042674D01*
X6225057Y-12042674D02*
X6215533Y-12052198D01*
X6425057Y-12166484D02*
X6406009Y-12156960D01*
X6406009Y-12156960D02*
X6396486Y-12147436D01*
X6396486Y-12147436D02*
X6386962Y-12128388D01*
X6386962Y-12128388D02*
X6386962Y-12071246D01*
X6386962Y-12071246D02*
X6396486Y-12052198D01*
X6396486Y-12052198D02*
X6406009Y-12042674D01*
X6406009Y-12042674D02*
X6425057Y-12033150D01*
X6425057Y-12033150D02*
X6453628Y-12033150D01*
X6453628Y-12033150D02*
X6472676Y-12042674D01*
X6472676Y-12042674D02*
X6482200Y-12052198D01*
X6482200Y-12052198D02*
X6491724Y-12071246D01*
X6491724Y-12071246D02*
X6491724Y-12128388D01*
X6491724Y-12128388D02*
X6482200Y-12147436D01*
X6482200Y-12147436D02*
X6472676Y-12156960D01*
X6472676Y-12156960D02*
X6453628Y-12166484D01*
X6453628Y-12166484D02*
X6425057Y-12166484D01*
X6606009Y-12166484D02*
X6586962Y-12156960D01*
X6586962Y-12156960D02*
X6577438Y-12137912D01*
X6577438Y-12137912D02*
X6577438Y-11966484D01*
X6758390Y-12156960D02*
X6739343Y-12166484D01*
X6739343Y-12166484D02*
X6701247Y-12166484D01*
X6701247Y-12166484D02*
X6682200Y-12156960D01*
X6682200Y-12156960D02*
X6672676Y-12137912D01*
X6672676Y-12137912D02*
X6672676Y-12061722D01*
X6672676Y-12061722D02*
X6682200Y-12042674D01*
X6682200Y-12042674D02*
X6701247Y-12033150D01*
X6701247Y-12033150D02*
X6739343Y-12033150D01*
X6739343Y-12033150D02*
X6758390Y-12042674D01*
X6758390Y-12042674D02*
X6767914Y-12061722D01*
X6767914Y-12061722D02*
X6767914Y-12080769D01*
X6767914Y-12080769D02*
X6672676Y-12099817D01*
X6844105Y-12156960D02*
X6863152Y-12166484D01*
X6863152Y-12166484D02*
X6901247Y-12166484D01*
X6901247Y-12166484D02*
X6920295Y-12156960D01*
X6920295Y-12156960D02*
X6929819Y-12137912D01*
X6929819Y-12137912D02*
X6929819Y-12128388D01*
X6929819Y-12128388D02*
X6920295Y-12109341D01*
X6920295Y-12109341D02*
X6901247Y-12099817D01*
X6901247Y-12099817D02*
X6872676Y-12099817D01*
X6872676Y-12099817D02*
X6853628Y-12090293D01*
X6853628Y-12090293D02*
X6844105Y-12071246D01*
X6844105Y-12071246D02*
X6844105Y-12061722D01*
X6844105Y-12061722D02*
X6853628Y-12042674D01*
X6853628Y-12042674D02*
X6872676Y-12033150D01*
X6872676Y-12033150D02*
X6901247Y-12033150D01*
X6901247Y-12033150D02*
X6920295Y-12042674D01*
X6996486Y-12242674D02*
X7006009Y-12233150D01*
X7006009Y-12233150D02*
X7025057Y-12204579D01*
X7025057Y-12204579D02*
X7034581Y-12185531D01*
X7034581Y-12185531D02*
X7044105Y-12156960D01*
X7044105Y-12156960D02*
X7053628Y-12109341D01*
X7053628Y-12109341D02*
X7053628Y-12071246D01*
X7053628Y-12071246D02*
X7044105Y-12023627D01*
X7044105Y-12023627D02*
X7034581Y-11995055D01*
X7034581Y-11995055D02*
X7025057Y-11976008D01*
X7025057Y-11976008D02*
X7006009Y-11947436D01*
X7006009Y-11947436D02*
X6996486Y-11937912D01*
X7358390Y-12242674D02*
X7348867Y-12233150D01*
X7348867Y-12233150D02*
X7329819Y-12204579D01*
X7329819Y-12204579D02*
X7320295Y-12185531D01*
X7320295Y-12185531D02*
X7310771Y-12156960D01*
X7310771Y-12156960D02*
X7301248Y-12109341D01*
X7301248Y-12109341D02*
X7301248Y-12071246D01*
X7301248Y-12071246D02*
X7310771Y-12023627D01*
X7310771Y-12023627D02*
X7320295Y-11995055D01*
X7320295Y-11995055D02*
X7329819Y-11976008D01*
X7329819Y-11976008D02*
X7348867Y-11947436D01*
X7348867Y-11947436D02*
X7358390Y-11937912D01*
X7434581Y-12033150D02*
X7434581Y-12166484D01*
X7434581Y-12052198D02*
X7444105Y-12042674D01*
X7444105Y-12042674D02*
X7463152Y-12033150D01*
X7463152Y-12033150D02*
X7491724Y-12033150D01*
X7491724Y-12033150D02*
X7510771Y-12042674D01*
X7510771Y-12042674D02*
X7520295Y-12061722D01*
X7520295Y-12061722D02*
X7520295Y-12166484D01*
X7644105Y-12166484D02*
X7625057Y-12156960D01*
X7625057Y-12156960D02*
X7615533Y-12147436D01*
X7615533Y-12147436D02*
X7606009Y-12128388D01*
X7606009Y-12128388D02*
X7606009Y-12071246D01*
X7606009Y-12071246D02*
X7615533Y-12052198D01*
X7615533Y-12052198D02*
X7625057Y-12042674D01*
X7625057Y-12042674D02*
X7644105Y-12033150D01*
X7644105Y-12033150D02*
X7672676Y-12033150D01*
X7672676Y-12033150D02*
X7691724Y-12042674D01*
X7691724Y-12042674D02*
X7701248Y-12052198D01*
X7701248Y-12052198D02*
X7710771Y-12071246D01*
X7710771Y-12071246D02*
X7710771Y-12128388D01*
X7710771Y-12128388D02*
X7701248Y-12147436D01*
X7701248Y-12147436D02*
X7691724Y-12156960D01*
X7691724Y-12156960D02*
X7672676Y-12166484D01*
X7672676Y-12166484D02*
X7644105Y-12166484D01*
X7767914Y-12033150D02*
X7844105Y-12033150D01*
X7796486Y-11966484D02*
X7796486Y-12137912D01*
X7796486Y-12137912D02*
X7806009Y-12156960D01*
X7806009Y-12156960D02*
X7825057Y-12166484D01*
X7825057Y-12166484D02*
X7844105Y-12166484D01*
X8063152Y-12033150D02*
X8063152Y-12233150D01*
X8063152Y-12042674D02*
X8082200Y-12033150D01*
X8082200Y-12033150D02*
X8120295Y-12033150D01*
X8120295Y-12033150D02*
X8139343Y-12042674D01*
X8139343Y-12042674D02*
X8148867Y-12052198D01*
X8148867Y-12052198D02*
X8158390Y-12071246D01*
X8158390Y-12071246D02*
X8158390Y-12128388D01*
X8158390Y-12128388D02*
X8148867Y-12147436D01*
X8148867Y-12147436D02*
X8139343Y-12156960D01*
X8139343Y-12156960D02*
X8120295Y-12166484D01*
X8120295Y-12166484D02*
X8082200Y-12166484D01*
X8082200Y-12166484D02*
X8063152Y-12156960D01*
X8272676Y-12166484D02*
X8253629Y-12156960D01*
X8253629Y-12156960D02*
X8244105Y-12137912D01*
X8244105Y-12137912D02*
X8244105Y-11966484D01*
X8434581Y-12166484D02*
X8434581Y-12061722D01*
X8434581Y-12061722D02*
X8425057Y-12042674D01*
X8425057Y-12042674D02*
X8406010Y-12033150D01*
X8406010Y-12033150D02*
X8367914Y-12033150D01*
X8367914Y-12033150D02*
X8348867Y-12042674D01*
X8434581Y-12156960D02*
X8415533Y-12166484D01*
X8415533Y-12166484D02*
X8367914Y-12166484D01*
X8367914Y-12166484D02*
X8348867Y-12156960D01*
X8348867Y-12156960D02*
X8339343Y-12137912D01*
X8339343Y-12137912D02*
X8339343Y-12118865D01*
X8339343Y-12118865D02*
X8348867Y-12099817D01*
X8348867Y-12099817D02*
X8367914Y-12090293D01*
X8367914Y-12090293D02*
X8415533Y-12090293D01*
X8415533Y-12090293D02*
X8434581Y-12080769D01*
X8501248Y-12033150D02*
X8577438Y-12033150D01*
X8529819Y-11966484D02*
X8529819Y-12137912D01*
X8529819Y-12137912D02*
X8539343Y-12156960D01*
X8539343Y-12156960D02*
X8558391Y-12166484D01*
X8558391Y-12166484D02*
X8577438Y-12166484D01*
X8720295Y-12156960D02*
X8701248Y-12166484D01*
X8701248Y-12166484D02*
X8663152Y-12166484D01*
X8663152Y-12166484D02*
X8644105Y-12156960D01*
X8644105Y-12156960D02*
X8634581Y-12137912D01*
X8634581Y-12137912D02*
X8634581Y-12061722D01*
X8634581Y-12061722D02*
X8644105Y-12042674D01*
X8644105Y-12042674D02*
X8663152Y-12033150D01*
X8663152Y-12033150D02*
X8701248Y-12033150D01*
X8701248Y-12033150D02*
X8720295Y-12042674D01*
X8720295Y-12042674D02*
X8729819Y-12061722D01*
X8729819Y-12061722D02*
X8729819Y-12080769D01*
X8729819Y-12080769D02*
X8634581Y-12099817D01*
X8901248Y-12166484D02*
X8901248Y-11966484D01*
X8901248Y-12156960D02*
X8882200Y-12166484D01*
X8882200Y-12166484D02*
X8844105Y-12166484D01*
X8844105Y-12166484D02*
X8825057Y-12156960D01*
X8825057Y-12156960D02*
X8815533Y-12147436D01*
X8815533Y-12147436D02*
X8806010Y-12128388D01*
X8806010Y-12128388D02*
X8806010Y-12071246D01*
X8806010Y-12071246D02*
X8815533Y-12052198D01*
X8815533Y-12052198D02*
X8825057Y-12042674D01*
X8825057Y-12042674D02*
X8844105Y-12033150D01*
X8844105Y-12033150D02*
X8882200Y-12033150D01*
X8882200Y-12033150D02*
X8901248Y-12042674D01*
X8977438Y-12242674D02*
X8986962Y-12233150D01*
X8986962Y-12233150D02*
X9006010Y-12204579D01*
X9006010Y-12204579D02*
X9015533Y-12185531D01*
X9015533Y-12185531D02*
X9025057Y-12156960D01*
X9025057Y-12156960D02*
X9034581Y-12109341D01*
X9034581Y-12109341D02*
X9034581Y-12071246D01*
X9034581Y-12071246D02*
X9025057Y-12023627D01*
X9025057Y-12023627D02*
X9015533Y-11995055D01*
X9015533Y-11995055D02*
X9006010Y-11976008D01*
X9006010Y-11976008D02*
X8986962Y-11947436D01*
X8986962Y-11947436D02*
X8977438Y-11937912D01*
X1840470Y-12370000D02*
G75*
G03*
X1840470Y-12370000I-100000J0D01*
G01*
X2082199Y-12261484D02*
X2206009Y-12261484D01*
X2206009Y-12261484D02*
X2139342Y-12337674D01*
X2139342Y-12337674D02*
X2167914Y-12337674D01*
X2167914Y-12337674D02*
X2186961Y-12347198D01*
X2186961Y-12347198D02*
X2196485Y-12356722D01*
X2196485Y-12356722D02*
X2206009Y-12375769D01*
X2206009Y-12375769D02*
X2206009Y-12423388D01*
X2206009Y-12423388D02*
X2196485Y-12442436D01*
X2196485Y-12442436D02*
X2186961Y-12451960D01*
X2186961Y-12451960D02*
X2167914Y-12461484D01*
X2167914Y-12461484D02*
X2110771Y-12461484D01*
X2110771Y-12461484D02*
X2091723Y-12451960D01*
X2091723Y-12451960D02*
X2082199Y-12442436D01*
X2291723Y-12442436D02*
X2301247Y-12451960D01*
X2301247Y-12451960D02*
X2291723Y-12461484D01*
X2291723Y-12461484D02*
X2282200Y-12451960D01*
X2282200Y-12451960D02*
X2291723Y-12442436D01*
X2291723Y-12442436D02*
X2291723Y-12461484D01*
X2425057Y-12261484D02*
X2444104Y-12261484D01*
X2444104Y-12261484D02*
X2463152Y-12271008D01*
X2463152Y-12271008D02*
X2472676Y-12280531D01*
X2472676Y-12280531D02*
X2482200Y-12299579D01*
X2482200Y-12299579D02*
X2491723Y-12337674D01*
X2491723Y-12337674D02*
X2491723Y-12385293D01*
X2491723Y-12385293D02*
X2482200Y-12423388D01*
X2482200Y-12423388D02*
X2472676Y-12442436D01*
X2472676Y-12442436D02*
X2463152Y-12451960D01*
X2463152Y-12451960D02*
X2444104Y-12461484D01*
X2444104Y-12461484D02*
X2425057Y-12461484D01*
X2425057Y-12461484D02*
X2406009Y-12451960D01*
X2406009Y-12451960D02*
X2396485Y-12442436D01*
X2396485Y-12442436D02*
X2386961Y-12423388D01*
X2386961Y-12423388D02*
X2377438Y-12385293D01*
X2377438Y-12385293D02*
X2377438Y-12337674D01*
X2377438Y-12337674D02*
X2386961Y-12299579D01*
X2386961Y-12299579D02*
X2396485Y-12280531D01*
X2396485Y-12280531D02*
X2406009Y-12271008D01*
X2406009Y-12271008D02*
X2425057Y-12261484D01*
X2663152Y-12328150D02*
X2663152Y-12461484D01*
X2615533Y-12251960D02*
X2567914Y-12394817D01*
X2567914Y-12394817D02*
X2691723Y-12394817D01*
X2796485Y-12347198D02*
X2777438Y-12337674D01*
X2777438Y-12337674D02*
X2767914Y-12328150D01*
X2767914Y-12328150D02*
X2758390Y-12309103D01*
X2758390Y-12309103D02*
X2758390Y-12299579D01*
X2758390Y-12299579D02*
X2767914Y-12280531D01*
X2767914Y-12280531D02*
X2777438Y-12271008D01*
X2777438Y-12271008D02*
X2796485Y-12261484D01*
X2796485Y-12261484D02*
X2834580Y-12261484D01*
X2834580Y-12261484D02*
X2853628Y-12271008D01*
X2853628Y-12271008D02*
X2863152Y-12280531D01*
X2863152Y-12280531D02*
X2872676Y-12299579D01*
X2872676Y-12299579D02*
X2872676Y-12309103D01*
X2872676Y-12309103D02*
X2863152Y-12328150D01*
X2863152Y-12328150D02*
X2853628Y-12337674D01*
X2853628Y-12337674D02*
X2834580Y-12347198D01*
X2834580Y-12347198D02*
X2796485Y-12347198D01*
X2796485Y-12347198D02*
X2777438Y-12356722D01*
X2777438Y-12356722D02*
X2767914Y-12366246D01*
X2767914Y-12366246D02*
X2758390Y-12385293D01*
X2758390Y-12385293D02*
X2758390Y-12423388D01*
X2758390Y-12423388D02*
X2767914Y-12442436D01*
X2767914Y-12442436D02*
X2777438Y-12451960D01*
X2777438Y-12451960D02*
X2796485Y-12461484D01*
X2796485Y-12461484D02*
X2834580Y-12461484D01*
X2834580Y-12461484D02*
X2853628Y-12451960D01*
X2853628Y-12451960D02*
X2863152Y-12442436D01*
X2863152Y-12442436D02*
X2872676Y-12423388D01*
X2872676Y-12423388D02*
X2872676Y-12385293D01*
X2872676Y-12385293D02*
X2863152Y-12366246D01*
X2863152Y-12366246D02*
X2853628Y-12356722D01*
X2853628Y-12356722D02*
X2834580Y-12347198D01*
X2958390Y-12461484D02*
X2958390Y-12328150D01*
X2958390Y-12347198D02*
X2967914Y-12337674D01*
X2967914Y-12337674D02*
X2986961Y-12328150D01*
X2986961Y-12328150D02*
X3015533Y-12328150D01*
X3015533Y-12328150D02*
X3034580Y-12337674D01*
X3034580Y-12337674D02*
X3044104Y-12356722D01*
X3044104Y-12356722D02*
X3044104Y-12461484D01*
X3044104Y-12356722D02*
X3053628Y-12337674D01*
X3053628Y-12337674D02*
X3072676Y-12328150D01*
X3072676Y-12328150D02*
X3101247Y-12328150D01*
X3101247Y-12328150D02*
X3120295Y-12337674D01*
X3120295Y-12337674D02*
X3129819Y-12356722D01*
X3129819Y-12356722D02*
X3129819Y-12461484D01*
X3225057Y-12461484D02*
X3225057Y-12328150D01*
X3225057Y-12347198D02*
X3234580Y-12337674D01*
X3234580Y-12337674D02*
X3253628Y-12328150D01*
X3253628Y-12328150D02*
X3282200Y-12328150D01*
X3282200Y-12328150D02*
X3301247Y-12337674D01*
X3301247Y-12337674D02*
X3310771Y-12356722D01*
X3310771Y-12356722D02*
X3310771Y-12461484D01*
X3310771Y-12356722D02*
X3320295Y-12337674D01*
X3320295Y-12337674D02*
X3339342Y-12328150D01*
X3339342Y-12328150D02*
X3367914Y-12328150D01*
X3367914Y-12328150D02*
X3386961Y-12337674D01*
X3386961Y-12337674D02*
X3396485Y-12356722D01*
X3396485Y-12356722D02*
X3396485Y-12461484D01*
X3786961Y-12251960D02*
X3615533Y-12509103D01*
X4044104Y-12261484D02*
X4063152Y-12261484D01*
X4063152Y-12261484D02*
X4082200Y-12271008D01*
X4082200Y-12271008D02*
X4091723Y-12280531D01*
X4091723Y-12280531D02*
X4101247Y-12299579D01*
X4101247Y-12299579D02*
X4110771Y-12337674D01*
X4110771Y-12337674D02*
X4110771Y-12385293D01*
X4110771Y-12385293D02*
X4101247Y-12423388D01*
X4101247Y-12423388D02*
X4091723Y-12442436D01*
X4091723Y-12442436D02*
X4082200Y-12451960D01*
X4082200Y-12451960D02*
X4063152Y-12461484D01*
X4063152Y-12461484D02*
X4044104Y-12461484D01*
X4044104Y-12461484D02*
X4025057Y-12451960D01*
X4025057Y-12451960D02*
X4015533Y-12442436D01*
X4015533Y-12442436D02*
X4006009Y-12423388D01*
X4006009Y-12423388D02*
X3996485Y-12385293D01*
X3996485Y-12385293D02*
X3996485Y-12337674D01*
X3996485Y-12337674D02*
X4006009Y-12299579D01*
X4006009Y-12299579D02*
X4015533Y-12280531D01*
X4015533Y-12280531D02*
X4025057Y-12271008D01*
X4025057Y-12271008D02*
X4044104Y-12261484D01*
X4196485Y-12442436D02*
X4206009Y-12451960D01*
X4206009Y-12451960D02*
X4196485Y-12461484D01*
X4196485Y-12461484D02*
X4186962Y-12451960D01*
X4186962Y-12451960D02*
X4196485Y-12442436D01*
X4196485Y-12442436D02*
X4196485Y-12461484D01*
X4396485Y-12461484D02*
X4282200Y-12461484D01*
X4339343Y-12461484D02*
X4339343Y-12261484D01*
X4339343Y-12261484D02*
X4320295Y-12290055D01*
X4320295Y-12290055D02*
X4301247Y-12309103D01*
X4301247Y-12309103D02*
X4282200Y-12318627D01*
X4472676Y-12280531D02*
X4482200Y-12271008D01*
X4482200Y-12271008D02*
X4501247Y-12261484D01*
X4501247Y-12261484D02*
X4548866Y-12261484D01*
X4548866Y-12261484D02*
X4567914Y-12271008D01*
X4567914Y-12271008D02*
X4577438Y-12280531D01*
X4577438Y-12280531D02*
X4586962Y-12299579D01*
X4586962Y-12299579D02*
X4586962Y-12318627D01*
X4586962Y-12318627D02*
X4577438Y-12347198D01*
X4577438Y-12347198D02*
X4463152Y-12461484D01*
X4463152Y-12461484D02*
X4586962Y-12461484D01*
X4710771Y-12261484D02*
X4729819Y-12261484D01*
X4729819Y-12261484D02*
X4748866Y-12271008D01*
X4748866Y-12271008D02*
X4758390Y-12280531D01*
X4758390Y-12280531D02*
X4767914Y-12299579D01*
X4767914Y-12299579D02*
X4777438Y-12337674D01*
X4777438Y-12337674D02*
X4777438Y-12385293D01*
X4777438Y-12385293D02*
X4767914Y-12423388D01*
X4767914Y-12423388D02*
X4758390Y-12442436D01*
X4758390Y-12442436D02*
X4748866Y-12451960D01*
X4748866Y-12451960D02*
X4729819Y-12461484D01*
X4729819Y-12461484D02*
X4710771Y-12461484D01*
X4710771Y-12461484D02*
X4691724Y-12451960D01*
X4691724Y-12451960D02*
X4682200Y-12442436D01*
X4682200Y-12442436D02*
X4672676Y-12423388D01*
X4672676Y-12423388D02*
X4663152Y-12385293D01*
X4663152Y-12385293D02*
X4663152Y-12337674D01*
X4663152Y-12337674D02*
X4672676Y-12299579D01*
X4672676Y-12299579D02*
X4682200Y-12280531D01*
X4682200Y-12280531D02*
X4691724Y-12271008D01*
X4691724Y-12271008D02*
X4710771Y-12261484D01*
X4901247Y-12261484D02*
X4920295Y-12261484D01*
X4920295Y-12261484D02*
X4939343Y-12271008D01*
X4939343Y-12271008D02*
X4948866Y-12280531D01*
X4948866Y-12280531D02*
X4958390Y-12299579D01*
X4958390Y-12299579D02*
X4967914Y-12337674D01*
X4967914Y-12337674D02*
X4967914Y-12385293D01*
X4967914Y-12385293D02*
X4958390Y-12423388D01*
X4958390Y-12423388D02*
X4948866Y-12442436D01*
X4948866Y-12442436D02*
X4939343Y-12451960D01*
X4939343Y-12451960D02*
X4920295Y-12461484D01*
X4920295Y-12461484D02*
X4901247Y-12461484D01*
X4901247Y-12461484D02*
X4882200Y-12451960D01*
X4882200Y-12451960D02*
X4872676Y-12442436D01*
X4872676Y-12442436D02*
X4863152Y-12423388D01*
X4863152Y-12423388D02*
X4853628Y-12385293D01*
X4853628Y-12385293D02*
X4853628Y-12337674D01*
X4853628Y-12337674D02*
X4863152Y-12299579D01*
X4863152Y-12299579D02*
X4872676Y-12280531D01*
X4872676Y-12280531D02*
X4882200Y-12271008D01*
X4882200Y-12271008D02*
X4901247Y-12261484D01*
X5044105Y-12261484D02*
X5044105Y-12299579D01*
X5120295Y-12261484D02*
X5120295Y-12299579D01*
X5415533Y-12537674D02*
X5406009Y-12528150D01*
X5406009Y-12528150D02*
X5386962Y-12499579D01*
X5386962Y-12499579D02*
X5377438Y-12480531D01*
X5377438Y-12480531D02*
X5367914Y-12451960D01*
X5367914Y-12451960D02*
X5358390Y-12404341D01*
X5358390Y-12404341D02*
X5358390Y-12366246D01*
X5358390Y-12366246D02*
X5367914Y-12318627D01*
X5367914Y-12318627D02*
X5377438Y-12290055D01*
X5377438Y-12290055D02*
X5386962Y-12271008D01*
X5386962Y-12271008D02*
X5406009Y-12242436D01*
X5406009Y-12242436D02*
X5415533Y-12232912D01*
X5577438Y-12261484D02*
X5539343Y-12261484D01*
X5539343Y-12261484D02*
X5520295Y-12271008D01*
X5520295Y-12271008D02*
X5510771Y-12280531D01*
X5510771Y-12280531D02*
X5491724Y-12309103D01*
X5491724Y-12309103D02*
X5482200Y-12347198D01*
X5482200Y-12347198D02*
X5482200Y-12423388D01*
X5482200Y-12423388D02*
X5491724Y-12442436D01*
X5491724Y-12442436D02*
X5501247Y-12451960D01*
X5501247Y-12451960D02*
X5520295Y-12461484D01*
X5520295Y-12461484D02*
X5558390Y-12461484D01*
X5558390Y-12461484D02*
X5577438Y-12451960D01*
X5577438Y-12451960D02*
X5586962Y-12442436D01*
X5586962Y-12442436D02*
X5596485Y-12423388D01*
X5596485Y-12423388D02*
X5596485Y-12375769D01*
X5596485Y-12375769D02*
X5586962Y-12356722D01*
X5586962Y-12356722D02*
X5577438Y-12347198D01*
X5577438Y-12347198D02*
X5558390Y-12337674D01*
X5558390Y-12337674D02*
X5520295Y-12337674D01*
X5520295Y-12337674D02*
X5501247Y-12347198D01*
X5501247Y-12347198D02*
X5491724Y-12356722D01*
X5491724Y-12356722D02*
X5482200Y-12375769D01*
X5834581Y-12461484D02*
X5834581Y-12261484D01*
X5920295Y-12461484D02*
X5920295Y-12356722D01*
X5920295Y-12356722D02*
X5910771Y-12337674D01*
X5910771Y-12337674D02*
X5891724Y-12328150D01*
X5891724Y-12328150D02*
X5863152Y-12328150D01*
X5863152Y-12328150D02*
X5844105Y-12337674D01*
X5844105Y-12337674D02*
X5834581Y-12347198D01*
X6044105Y-12461484D02*
X6025057Y-12451960D01*
X6025057Y-12451960D02*
X6015533Y-12442436D01*
X6015533Y-12442436D02*
X6006009Y-12423388D01*
X6006009Y-12423388D02*
X6006009Y-12366246D01*
X6006009Y-12366246D02*
X6015533Y-12347198D01*
X6015533Y-12347198D02*
X6025057Y-12337674D01*
X6025057Y-12337674D02*
X6044105Y-12328150D01*
X6044105Y-12328150D02*
X6072676Y-12328150D01*
X6072676Y-12328150D02*
X6091724Y-12337674D01*
X6091724Y-12337674D02*
X6101247Y-12347198D01*
X6101247Y-12347198D02*
X6110771Y-12366246D01*
X6110771Y-12366246D02*
X6110771Y-12423388D01*
X6110771Y-12423388D02*
X6101247Y-12442436D01*
X6101247Y-12442436D02*
X6091724Y-12451960D01*
X6091724Y-12451960D02*
X6072676Y-12461484D01*
X6072676Y-12461484D02*
X6044105Y-12461484D01*
X6225057Y-12461484D02*
X6206009Y-12451960D01*
X6206009Y-12451960D02*
X6196486Y-12432912D01*
X6196486Y-12432912D02*
X6196486Y-12261484D01*
X6377438Y-12451960D02*
X6358390Y-12461484D01*
X6358390Y-12461484D02*
X6320295Y-12461484D01*
X6320295Y-12461484D02*
X6301247Y-12451960D01*
X6301247Y-12451960D02*
X6291724Y-12432912D01*
X6291724Y-12432912D02*
X6291724Y-12356722D01*
X6291724Y-12356722D02*
X6301247Y-12337674D01*
X6301247Y-12337674D02*
X6320295Y-12328150D01*
X6320295Y-12328150D02*
X6358390Y-12328150D01*
X6358390Y-12328150D02*
X6377438Y-12337674D01*
X6377438Y-12337674D02*
X6386962Y-12356722D01*
X6386962Y-12356722D02*
X6386962Y-12375769D01*
X6386962Y-12375769D02*
X6291724Y-12394817D01*
X6463152Y-12451960D02*
X6482200Y-12461484D01*
X6482200Y-12461484D02*
X6520295Y-12461484D01*
X6520295Y-12461484D02*
X6539343Y-12451960D01*
X6539343Y-12451960D02*
X6548867Y-12432912D01*
X6548867Y-12432912D02*
X6548867Y-12423388D01*
X6548867Y-12423388D02*
X6539343Y-12404341D01*
X6539343Y-12404341D02*
X6520295Y-12394817D01*
X6520295Y-12394817D02*
X6491724Y-12394817D01*
X6491724Y-12394817D02*
X6472676Y-12385293D01*
X6472676Y-12385293D02*
X6463152Y-12366246D01*
X6463152Y-12366246D02*
X6463152Y-12356722D01*
X6463152Y-12356722D02*
X6472676Y-12337674D01*
X6472676Y-12337674D02*
X6491724Y-12328150D01*
X6491724Y-12328150D02*
X6520295Y-12328150D01*
X6520295Y-12328150D02*
X6539343Y-12337674D01*
X6615533Y-12537674D02*
X6625057Y-12528150D01*
X6625057Y-12528150D02*
X6644105Y-12499579D01*
X6644105Y-12499579D02*
X6653628Y-12480531D01*
X6653628Y-12480531D02*
X6663152Y-12451960D01*
X6663152Y-12451960D02*
X6672676Y-12404341D01*
X6672676Y-12404341D02*
X6672676Y-12366246D01*
X6672676Y-12366246D02*
X6663152Y-12318627D01*
X6663152Y-12318627D02*
X6653628Y-12290055D01*
X6653628Y-12290055D02*
X6644105Y-12271008D01*
X6644105Y-12271008D02*
X6625057Y-12242436D01*
X6625057Y-12242436D02*
X6615533Y-12232912D01*
X6977438Y-12537674D02*
X6967914Y-12528150D01*
X6967914Y-12528150D02*
X6948867Y-12499579D01*
X6948867Y-12499579D02*
X6939343Y-12480531D01*
X6939343Y-12480531D02*
X6929819Y-12451960D01*
X6929819Y-12451960D02*
X6920295Y-12404341D01*
X6920295Y-12404341D02*
X6920295Y-12366246D01*
X6920295Y-12366246D02*
X6929819Y-12318627D01*
X6929819Y-12318627D02*
X6939343Y-12290055D01*
X6939343Y-12290055D02*
X6948867Y-12271008D01*
X6948867Y-12271008D02*
X6967914Y-12242436D01*
X6967914Y-12242436D02*
X6977438Y-12232912D01*
X7053628Y-12328150D02*
X7053628Y-12461484D01*
X7053628Y-12347198D02*
X7063152Y-12337674D01*
X7063152Y-12337674D02*
X7082200Y-12328150D01*
X7082200Y-12328150D02*
X7110771Y-12328150D01*
X7110771Y-12328150D02*
X7129819Y-12337674D01*
X7129819Y-12337674D02*
X7139343Y-12356722D01*
X7139343Y-12356722D02*
X7139343Y-12461484D01*
X7263152Y-12461484D02*
X7244105Y-12451960D01*
X7244105Y-12451960D02*
X7234581Y-12442436D01*
X7234581Y-12442436D02*
X7225057Y-12423388D01*
X7225057Y-12423388D02*
X7225057Y-12366246D01*
X7225057Y-12366246D02*
X7234581Y-12347198D01*
X7234581Y-12347198D02*
X7244105Y-12337674D01*
X7244105Y-12337674D02*
X7263152Y-12328150D01*
X7263152Y-12328150D02*
X7291724Y-12328150D01*
X7291724Y-12328150D02*
X7310771Y-12337674D01*
X7310771Y-12337674D02*
X7320295Y-12347198D01*
X7320295Y-12347198D02*
X7329819Y-12366246D01*
X7329819Y-12366246D02*
X7329819Y-12423388D01*
X7329819Y-12423388D02*
X7320295Y-12442436D01*
X7320295Y-12442436D02*
X7310771Y-12451960D01*
X7310771Y-12451960D02*
X7291724Y-12461484D01*
X7291724Y-12461484D02*
X7263152Y-12461484D01*
X7386962Y-12328150D02*
X7463152Y-12328150D01*
X7415533Y-12261484D02*
X7415533Y-12432912D01*
X7415533Y-12432912D02*
X7425057Y-12451960D01*
X7425057Y-12451960D02*
X7444105Y-12461484D01*
X7444105Y-12461484D02*
X7463152Y-12461484D01*
X7682200Y-12328150D02*
X7682200Y-12528150D01*
X7682200Y-12337674D02*
X7701248Y-12328150D01*
X7701248Y-12328150D02*
X7739343Y-12328150D01*
X7739343Y-12328150D02*
X7758390Y-12337674D01*
X7758390Y-12337674D02*
X7767914Y-12347198D01*
X7767914Y-12347198D02*
X7777438Y-12366246D01*
X7777438Y-12366246D02*
X7777438Y-12423388D01*
X7777438Y-12423388D02*
X7767914Y-12442436D01*
X7767914Y-12442436D02*
X7758390Y-12451960D01*
X7758390Y-12451960D02*
X7739343Y-12461484D01*
X7739343Y-12461484D02*
X7701248Y-12461484D01*
X7701248Y-12461484D02*
X7682200Y-12451960D01*
X7891724Y-12461484D02*
X7872676Y-12451960D01*
X7872676Y-12451960D02*
X7863152Y-12432912D01*
X7863152Y-12432912D02*
X7863152Y-12261484D01*
X8053629Y-12461484D02*
X8053629Y-12356722D01*
X8053629Y-12356722D02*
X8044105Y-12337674D01*
X8044105Y-12337674D02*
X8025057Y-12328150D01*
X8025057Y-12328150D02*
X7986962Y-12328150D01*
X7986962Y-12328150D02*
X7967914Y-12337674D01*
X8053629Y-12451960D02*
X8034581Y-12461484D01*
X8034581Y-12461484D02*
X7986962Y-12461484D01*
X7986962Y-12461484D02*
X7967914Y-12451960D01*
X7967914Y-12451960D02*
X7958390Y-12432912D01*
X7958390Y-12432912D02*
X7958390Y-12413865D01*
X7958390Y-12413865D02*
X7967914Y-12394817D01*
X7967914Y-12394817D02*
X7986962Y-12385293D01*
X7986962Y-12385293D02*
X8034581Y-12385293D01*
X8034581Y-12385293D02*
X8053629Y-12375769D01*
X8120295Y-12328150D02*
X8196486Y-12328150D01*
X8148867Y-12261484D02*
X8148867Y-12432912D01*
X8148867Y-12432912D02*
X8158390Y-12451960D01*
X8158390Y-12451960D02*
X8177438Y-12461484D01*
X8177438Y-12461484D02*
X8196486Y-12461484D01*
X8339343Y-12451960D02*
X8320295Y-12461484D01*
X8320295Y-12461484D02*
X8282200Y-12461484D01*
X8282200Y-12461484D02*
X8263152Y-12451960D01*
X8263152Y-12451960D02*
X8253629Y-12432912D01*
X8253629Y-12432912D02*
X8253629Y-12356722D01*
X8253629Y-12356722D02*
X8263152Y-12337674D01*
X8263152Y-12337674D02*
X8282200Y-12328150D01*
X8282200Y-12328150D02*
X8320295Y-12328150D01*
X8320295Y-12328150D02*
X8339343Y-12337674D01*
X8339343Y-12337674D02*
X8348867Y-12356722D01*
X8348867Y-12356722D02*
X8348867Y-12375769D01*
X8348867Y-12375769D02*
X8253629Y-12394817D01*
X8520295Y-12461484D02*
X8520295Y-12261484D01*
X8520295Y-12451960D02*
X8501248Y-12461484D01*
X8501248Y-12461484D02*
X8463152Y-12461484D01*
X8463152Y-12461484D02*
X8444105Y-12451960D01*
X8444105Y-12451960D02*
X8434581Y-12442436D01*
X8434581Y-12442436D02*
X8425057Y-12423388D01*
X8425057Y-12423388D02*
X8425057Y-12366246D01*
X8425057Y-12366246D02*
X8434581Y-12347198D01*
X8434581Y-12347198D02*
X8444105Y-12337674D01*
X8444105Y-12337674D02*
X8463152Y-12328150D01*
X8463152Y-12328150D02*
X8501248Y-12328150D01*
X8501248Y-12328150D02*
X8520295Y-12337674D01*
X8596486Y-12537674D02*
X8606010Y-12528150D01*
X8606010Y-12528150D02*
X8625057Y-12499579D01*
X8625057Y-12499579D02*
X8634581Y-12480531D01*
X8634581Y-12480531D02*
X8644105Y-12451960D01*
X8644105Y-12451960D02*
X8653629Y-12404341D01*
X8653629Y-12404341D02*
X8653629Y-12366246D01*
X8653629Y-12366246D02*
X8644105Y-12318627D01*
X8644105Y-12318627D02*
X8634581Y-12290055D01*
X8634581Y-12290055D02*
X8625057Y-12271008D01*
X8625057Y-12271008D02*
X8606010Y-12242436D01*
X8606010Y-12242436D02*
X8596486Y-12232912D01*
X1740470Y-12590000D02*
X1740470Y-12790000D01*
X1640470Y-12690000D02*
X1840470Y-12690000D01*
X2082199Y-12581484D02*
X2206009Y-12581484D01*
X2206009Y-12581484D02*
X2139342Y-12657674D01*
X2139342Y-12657674D02*
X2167914Y-12657674D01*
X2167914Y-12657674D02*
X2186961Y-12667198D01*
X2186961Y-12667198D02*
X2196485Y-12676722D01*
X2196485Y-12676722D02*
X2206009Y-12695769D01*
X2206009Y-12695769D02*
X2206009Y-12743388D01*
X2206009Y-12743388D02*
X2196485Y-12762436D01*
X2196485Y-12762436D02*
X2186961Y-12771960D01*
X2186961Y-12771960D02*
X2167914Y-12781484D01*
X2167914Y-12781484D02*
X2110771Y-12781484D01*
X2110771Y-12781484D02*
X2091723Y-12771960D01*
X2091723Y-12771960D02*
X2082199Y-12762436D01*
X2291723Y-12762436D02*
X2301247Y-12771960D01*
X2301247Y-12771960D02*
X2291723Y-12781484D01*
X2291723Y-12781484D02*
X2282200Y-12771960D01*
X2282200Y-12771960D02*
X2291723Y-12762436D01*
X2291723Y-12762436D02*
X2291723Y-12781484D01*
X2425057Y-12581484D02*
X2444104Y-12581484D01*
X2444104Y-12581484D02*
X2463152Y-12591008D01*
X2463152Y-12591008D02*
X2472676Y-12600531D01*
X2472676Y-12600531D02*
X2482200Y-12619579D01*
X2482200Y-12619579D02*
X2491723Y-12657674D01*
X2491723Y-12657674D02*
X2491723Y-12705293D01*
X2491723Y-12705293D02*
X2482200Y-12743388D01*
X2482200Y-12743388D02*
X2472676Y-12762436D01*
X2472676Y-12762436D02*
X2463152Y-12771960D01*
X2463152Y-12771960D02*
X2444104Y-12781484D01*
X2444104Y-12781484D02*
X2425057Y-12781484D01*
X2425057Y-12781484D02*
X2406009Y-12771960D01*
X2406009Y-12771960D02*
X2396485Y-12762436D01*
X2396485Y-12762436D02*
X2386961Y-12743388D01*
X2386961Y-12743388D02*
X2377438Y-12705293D01*
X2377438Y-12705293D02*
X2377438Y-12657674D01*
X2377438Y-12657674D02*
X2386961Y-12619579D01*
X2386961Y-12619579D02*
X2396485Y-12600531D01*
X2396485Y-12600531D02*
X2406009Y-12591008D01*
X2406009Y-12591008D02*
X2425057Y-12581484D01*
X2672676Y-12581484D02*
X2577438Y-12581484D01*
X2577438Y-12581484D02*
X2567914Y-12676722D01*
X2567914Y-12676722D02*
X2577438Y-12667198D01*
X2577438Y-12667198D02*
X2596485Y-12657674D01*
X2596485Y-12657674D02*
X2644104Y-12657674D01*
X2644104Y-12657674D02*
X2663152Y-12667198D01*
X2663152Y-12667198D02*
X2672676Y-12676722D01*
X2672676Y-12676722D02*
X2682200Y-12695769D01*
X2682200Y-12695769D02*
X2682200Y-12743388D01*
X2682200Y-12743388D02*
X2672676Y-12762436D01*
X2672676Y-12762436D02*
X2663152Y-12771960D01*
X2663152Y-12771960D02*
X2644104Y-12781484D01*
X2644104Y-12781484D02*
X2596485Y-12781484D01*
X2596485Y-12781484D02*
X2577438Y-12771960D01*
X2577438Y-12771960D02*
X2567914Y-12762436D01*
X2806009Y-12581484D02*
X2825057Y-12581484D01*
X2825057Y-12581484D02*
X2844104Y-12591008D01*
X2844104Y-12591008D02*
X2853628Y-12600531D01*
X2853628Y-12600531D02*
X2863152Y-12619579D01*
X2863152Y-12619579D02*
X2872676Y-12657674D01*
X2872676Y-12657674D02*
X2872676Y-12705293D01*
X2872676Y-12705293D02*
X2863152Y-12743388D01*
X2863152Y-12743388D02*
X2853628Y-12762436D01*
X2853628Y-12762436D02*
X2844104Y-12771960D01*
X2844104Y-12771960D02*
X2825057Y-12781484D01*
X2825057Y-12781484D02*
X2806009Y-12781484D01*
X2806009Y-12781484D02*
X2786961Y-12771960D01*
X2786961Y-12771960D02*
X2777438Y-12762436D01*
X2777438Y-12762436D02*
X2767914Y-12743388D01*
X2767914Y-12743388D02*
X2758390Y-12705293D01*
X2758390Y-12705293D02*
X2758390Y-12657674D01*
X2758390Y-12657674D02*
X2767914Y-12619579D01*
X2767914Y-12619579D02*
X2777438Y-12600531D01*
X2777438Y-12600531D02*
X2786961Y-12591008D01*
X2786961Y-12591008D02*
X2806009Y-12581484D01*
X2958390Y-12781484D02*
X2958390Y-12648150D01*
X2958390Y-12667198D02*
X2967914Y-12657674D01*
X2967914Y-12657674D02*
X2986961Y-12648150D01*
X2986961Y-12648150D02*
X3015533Y-12648150D01*
X3015533Y-12648150D02*
X3034580Y-12657674D01*
X3034580Y-12657674D02*
X3044104Y-12676722D01*
X3044104Y-12676722D02*
X3044104Y-12781484D01*
X3044104Y-12676722D02*
X3053628Y-12657674D01*
X3053628Y-12657674D02*
X3072676Y-12648150D01*
X3072676Y-12648150D02*
X3101247Y-12648150D01*
X3101247Y-12648150D02*
X3120295Y-12657674D01*
X3120295Y-12657674D02*
X3129819Y-12676722D01*
X3129819Y-12676722D02*
X3129819Y-12781484D01*
X3225057Y-12781484D02*
X3225057Y-12648150D01*
X3225057Y-12667198D02*
X3234580Y-12657674D01*
X3234580Y-12657674D02*
X3253628Y-12648150D01*
X3253628Y-12648150D02*
X3282200Y-12648150D01*
X3282200Y-12648150D02*
X3301247Y-12657674D01*
X3301247Y-12657674D02*
X3310771Y-12676722D01*
X3310771Y-12676722D02*
X3310771Y-12781484D01*
X3310771Y-12676722D02*
X3320295Y-12657674D01*
X3320295Y-12657674D02*
X3339342Y-12648150D01*
X3339342Y-12648150D02*
X3367914Y-12648150D01*
X3367914Y-12648150D02*
X3386961Y-12657674D01*
X3386961Y-12657674D02*
X3396485Y-12676722D01*
X3396485Y-12676722D02*
X3396485Y-12781484D01*
X3786961Y-12571960D02*
X3615533Y-12829103D01*
X4044104Y-12581484D02*
X4063152Y-12581484D01*
X4063152Y-12581484D02*
X4082200Y-12591008D01*
X4082200Y-12591008D02*
X4091723Y-12600531D01*
X4091723Y-12600531D02*
X4101247Y-12619579D01*
X4101247Y-12619579D02*
X4110771Y-12657674D01*
X4110771Y-12657674D02*
X4110771Y-12705293D01*
X4110771Y-12705293D02*
X4101247Y-12743388D01*
X4101247Y-12743388D02*
X4091723Y-12762436D01*
X4091723Y-12762436D02*
X4082200Y-12771960D01*
X4082200Y-12771960D02*
X4063152Y-12781484D01*
X4063152Y-12781484D02*
X4044104Y-12781484D01*
X4044104Y-12781484D02*
X4025057Y-12771960D01*
X4025057Y-12771960D02*
X4015533Y-12762436D01*
X4015533Y-12762436D02*
X4006009Y-12743388D01*
X4006009Y-12743388D02*
X3996485Y-12705293D01*
X3996485Y-12705293D02*
X3996485Y-12657674D01*
X3996485Y-12657674D02*
X4006009Y-12619579D01*
X4006009Y-12619579D02*
X4015533Y-12600531D01*
X4015533Y-12600531D02*
X4025057Y-12591008D01*
X4025057Y-12591008D02*
X4044104Y-12581484D01*
X4196485Y-12762436D02*
X4206009Y-12771960D01*
X4206009Y-12771960D02*
X4196485Y-12781484D01*
X4196485Y-12781484D02*
X4186962Y-12771960D01*
X4186962Y-12771960D02*
X4196485Y-12762436D01*
X4196485Y-12762436D02*
X4196485Y-12781484D01*
X4396485Y-12781484D02*
X4282200Y-12781484D01*
X4339343Y-12781484D02*
X4339343Y-12581484D01*
X4339343Y-12581484D02*
X4320295Y-12610055D01*
X4320295Y-12610055D02*
X4301247Y-12629103D01*
X4301247Y-12629103D02*
X4282200Y-12638627D01*
X4472676Y-12600531D02*
X4482200Y-12591008D01*
X4482200Y-12591008D02*
X4501247Y-12581484D01*
X4501247Y-12581484D02*
X4548866Y-12581484D01*
X4548866Y-12581484D02*
X4567914Y-12591008D01*
X4567914Y-12591008D02*
X4577438Y-12600531D01*
X4577438Y-12600531D02*
X4586962Y-12619579D01*
X4586962Y-12619579D02*
X4586962Y-12638627D01*
X4586962Y-12638627D02*
X4577438Y-12667198D01*
X4577438Y-12667198D02*
X4463152Y-12781484D01*
X4463152Y-12781484D02*
X4586962Y-12781484D01*
X4710771Y-12581484D02*
X4729819Y-12581484D01*
X4729819Y-12581484D02*
X4748866Y-12591008D01*
X4748866Y-12591008D02*
X4758390Y-12600531D01*
X4758390Y-12600531D02*
X4767914Y-12619579D01*
X4767914Y-12619579D02*
X4777438Y-12657674D01*
X4777438Y-12657674D02*
X4777438Y-12705293D01*
X4777438Y-12705293D02*
X4767914Y-12743388D01*
X4767914Y-12743388D02*
X4758390Y-12762436D01*
X4758390Y-12762436D02*
X4748866Y-12771960D01*
X4748866Y-12771960D02*
X4729819Y-12781484D01*
X4729819Y-12781484D02*
X4710771Y-12781484D01*
X4710771Y-12781484D02*
X4691724Y-12771960D01*
X4691724Y-12771960D02*
X4682200Y-12762436D01*
X4682200Y-12762436D02*
X4672676Y-12743388D01*
X4672676Y-12743388D02*
X4663152Y-12705293D01*
X4663152Y-12705293D02*
X4663152Y-12657674D01*
X4663152Y-12657674D02*
X4672676Y-12619579D01*
X4672676Y-12619579D02*
X4682200Y-12600531D01*
X4682200Y-12600531D02*
X4691724Y-12591008D01*
X4691724Y-12591008D02*
X4710771Y-12581484D01*
X4967914Y-12781484D02*
X4853628Y-12781484D01*
X4910771Y-12781484D02*
X4910771Y-12581484D01*
X4910771Y-12581484D02*
X4891724Y-12610055D01*
X4891724Y-12610055D02*
X4872676Y-12629103D01*
X4872676Y-12629103D02*
X4853628Y-12638627D01*
X5044105Y-12581484D02*
X5044105Y-12619579D01*
X5120295Y-12581484D02*
X5120295Y-12619579D01*
X5415533Y-12857674D02*
X5406009Y-12848150D01*
X5406009Y-12848150D02*
X5386962Y-12819579D01*
X5386962Y-12819579D02*
X5377438Y-12800531D01*
X5377438Y-12800531D02*
X5367914Y-12771960D01*
X5367914Y-12771960D02*
X5358390Y-12724341D01*
X5358390Y-12724341D02*
X5358390Y-12686246D01*
X5358390Y-12686246D02*
X5367914Y-12638627D01*
X5367914Y-12638627D02*
X5377438Y-12610055D01*
X5377438Y-12610055D02*
X5386962Y-12591008D01*
X5386962Y-12591008D02*
X5406009Y-12562436D01*
X5406009Y-12562436D02*
X5415533Y-12552912D01*
X5596485Y-12781484D02*
X5482200Y-12781484D01*
X5539343Y-12781484D02*
X5539343Y-12581484D01*
X5539343Y-12581484D02*
X5520295Y-12610055D01*
X5520295Y-12610055D02*
X5501247Y-12629103D01*
X5501247Y-12629103D02*
X5482200Y-12638627D01*
X5663152Y-12581484D02*
X5796485Y-12581484D01*
X5796485Y-12581484D02*
X5710771Y-12781484D01*
X5863152Y-12600531D02*
X5872676Y-12591008D01*
X5872676Y-12591008D02*
X5891724Y-12581484D01*
X5891724Y-12581484D02*
X5939343Y-12581484D01*
X5939343Y-12581484D02*
X5958390Y-12591008D01*
X5958390Y-12591008D02*
X5967914Y-12600531D01*
X5967914Y-12600531D02*
X5977438Y-12619579D01*
X5977438Y-12619579D02*
X5977438Y-12638627D01*
X5977438Y-12638627D02*
X5967914Y-12667198D01*
X5967914Y-12667198D02*
X5853628Y-12781484D01*
X5853628Y-12781484D02*
X5977438Y-12781484D01*
X6215533Y-12781484D02*
X6215533Y-12581484D01*
X6301247Y-12781484D02*
X6301247Y-12676722D01*
X6301247Y-12676722D02*
X6291724Y-12657674D01*
X6291724Y-12657674D02*
X6272676Y-12648150D01*
X6272676Y-12648150D02*
X6244105Y-12648150D01*
X6244105Y-12648150D02*
X6225057Y-12657674D01*
X6225057Y-12657674D02*
X6215533Y-12667198D01*
X6425057Y-12781484D02*
X6406009Y-12771960D01*
X6406009Y-12771960D02*
X6396486Y-12762436D01*
X6396486Y-12762436D02*
X6386962Y-12743388D01*
X6386962Y-12743388D02*
X6386962Y-12686246D01*
X6386962Y-12686246D02*
X6396486Y-12667198D01*
X6396486Y-12667198D02*
X6406009Y-12657674D01*
X6406009Y-12657674D02*
X6425057Y-12648150D01*
X6425057Y-12648150D02*
X6453628Y-12648150D01*
X6453628Y-12648150D02*
X6472676Y-12657674D01*
X6472676Y-12657674D02*
X6482200Y-12667198D01*
X6482200Y-12667198D02*
X6491724Y-12686246D01*
X6491724Y-12686246D02*
X6491724Y-12743388D01*
X6491724Y-12743388D02*
X6482200Y-12762436D01*
X6482200Y-12762436D02*
X6472676Y-12771960D01*
X6472676Y-12771960D02*
X6453628Y-12781484D01*
X6453628Y-12781484D02*
X6425057Y-12781484D01*
X6606009Y-12781484D02*
X6586962Y-12771960D01*
X6586962Y-12771960D02*
X6577438Y-12752912D01*
X6577438Y-12752912D02*
X6577438Y-12581484D01*
X6758390Y-12771960D02*
X6739343Y-12781484D01*
X6739343Y-12781484D02*
X6701247Y-12781484D01*
X6701247Y-12781484D02*
X6682200Y-12771960D01*
X6682200Y-12771960D02*
X6672676Y-12752912D01*
X6672676Y-12752912D02*
X6672676Y-12676722D01*
X6672676Y-12676722D02*
X6682200Y-12657674D01*
X6682200Y-12657674D02*
X6701247Y-12648150D01*
X6701247Y-12648150D02*
X6739343Y-12648150D01*
X6739343Y-12648150D02*
X6758390Y-12657674D01*
X6758390Y-12657674D02*
X6767914Y-12676722D01*
X6767914Y-12676722D02*
X6767914Y-12695769D01*
X6767914Y-12695769D02*
X6672676Y-12714817D01*
X6844105Y-12771960D02*
X6863152Y-12781484D01*
X6863152Y-12781484D02*
X6901247Y-12781484D01*
X6901247Y-12781484D02*
X6920295Y-12771960D01*
X6920295Y-12771960D02*
X6929819Y-12752912D01*
X6929819Y-12752912D02*
X6929819Y-12743388D01*
X6929819Y-12743388D02*
X6920295Y-12724341D01*
X6920295Y-12724341D02*
X6901247Y-12714817D01*
X6901247Y-12714817D02*
X6872676Y-12714817D01*
X6872676Y-12714817D02*
X6853628Y-12705293D01*
X6853628Y-12705293D02*
X6844105Y-12686246D01*
X6844105Y-12686246D02*
X6844105Y-12676722D01*
X6844105Y-12676722D02*
X6853628Y-12657674D01*
X6853628Y-12657674D02*
X6872676Y-12648150D01*
X6872676Y-12648150D02*
X6901247Y-12648150D01*
X6901247Y-12648150D02*
X6920295Y-12657674D01*
X6996486Y-12857674D02*
X7006009Y-12848150D01*
X7006009Y-12848150D02*
X7025057Y-12819579D01*
X7025057Y-12819579D02*
X7034581Y-12800531D01*
X7034581Y-12800531D02*
X7044105Y-12771960D01*
X7044105Y-12771960D02*
X7053628Y-12724341D01*
X7053628Y-12724341D02*
X7053628Y-12686246D01*
X7053628Y-12686246D02*
X7044105Y-12638627D01*
X7044105Y-12638627D02*
X7034581Y-12610055D01*
X7034581Y-12610055D02*
X7025057Y-12591008D01*
X7025057Y-12591008D02*
X7006009Y-12562436D01*
X7006009Y-12562436D02*
X6996486Y-12552912D01*
X7358390Y-12857674D02*
X7348867Y-12848150D01*
X7348867Y-12848150D02*
X7329819Y-12819579D01*
X7329819Y-12819579D02*
X7320295Y-12800531D01*
X7320295Y-12800531D02*
X7310771Y-12771960D01*
X7310771Y-12771960D02*
X7301248Y-12724341D01*
X7301248Y-12724341D02*
X7301248Y-12686246D01*
X7301248Y-12686246D02*
X7310771Y-12638627D01*
X7310771Y-12638627D02*
X7320295Y-12610055D01*
X7320295Y-12610055D02*
X7329819Y-12591008D01*
X7329819Y-12591008D02*
X7348867Y-12562436D01*
X7348867Y-12562436D02*
X7358390Y-12552912D01*
X7434581Y-12648150D02*
X7434581Y-12781484D01*
X7434581Y-12667198D02*
X7444105Y-12657674D01*
X7444105Y-12657674D02*
X7463152Y-12648150D01*
X7463152Y-12648150D02*
X7491724Y-12648150D01*
X7491724Y-12648150D02*
X7510771Y-12657674D01*
X7510771Y-12657674D02*
X7520295Y-12676722D01*
X7520295Y-12676722D02*
X7520295Y-12781484D01*
X7644105Y-12781484D02*
X7625057Y-12771960D01*
X7625057Y-12771960D02*
X7615533Y-12762436D01*
X7615533Y-12762436D02*
X7606009Y-12743388D01*
X7606009Y-12743388D02*
X7606009Y-12686246D01*
X7606009Y-12686246D02*
X7615533Y-12667198D01*
X7615533Y-12667198D02*
X7625057Y-12657674D01*
X7625057Y-12657674D02*
X7644105Y-12648150D01*
X7644105Y-12648150D02*
X7672676Y-12648150D01*
X7672676Y-12648150D02*
X7691724Y-12657674D01*
X7691724Y-12657674D02*
X7701248Y-12667198D01*
X7701248Y-12667198D02*
X7710771Y-12686246D01*
X7710771Y-12686246D02*
X7710771Y-12743388D01*
X7710771Y-12743388D02*
X7701248Y-12762436D01*
X7701248Y-12762436D02*
X7691724Y-12771960D01*
X7691724Y-12771960D02*
X7672676Y-12781484D01*
X7672676Y-12781484D02*
X7644105Y-12781484D01*
X7767914Y-12648150D02*
X7844105Y-12648150D01*
X7796486Y-12581484D02*
X7796486Y-12752912D01*
X7796486Y-12752912D02*
X7806009Y-12771960D01*
X7806009Y-12771960D02*
X7825057Y-12781484D01*
X7825057Y-12781484D02*
X7844105Y-12781484D01*
X8063152Y-12648150D02*
X8063152Y-12848150D01*
X8063152Y-12657674D02*
X8082200Y-12648150D01*
X8082200Y-12648150D02*
X8120295Y-12648150D01*
X8120295Y-12648150D02*
X8139343Y-12657674D01*
X8139343Y-12657674D02*
X8148867Y-12667198D01*
X8148867Y-12667198D02*
X8158390Y-12686246D01*
X8158390Y-12686246D02*
X8158390Y-12743388D01*
X8158390Y-12743388D02*
X8148867Y-12762436D01*
X8148867Y-12762436D02*
X8139343Y-12771960D01*
X8139343Y-12771960D02*
X8120295Y-12781484D01*
X8120295Y-12781484D02*
X8082200Y-12781484D01*
X8082200Y-12781484D02*
X8063152Y-12771960D01*
X8272676Y-12781484D02*
X8253629Y-12771960D01*
X8253629Y-12771960D02*
X8244105Y-12752912D01*
X8244105Y-12752912D02*
X8244105Y-12581484D01*
X8434581Y-12781484D02*
X8434581Y-12676722D01*
X8434581Y-12676722D02*
X8425057Y-12657674D01*
X8425057Y-12657674D02*
X8406010Y-12648150D01*
X8406010Y-12648150D02*
X8367914Y-12648150D01*
X8367914Y-12648150D02*
X8348867Y-12657674D01*
X8434581Y-12771960D02*
X8415533Y-12781484D01*
X8415533Y-12781484D02*
X8367914Y-12781484D01*
X8367914Y-12781484D02*
X8348867Y-12771960D01*
X8348867Y-12771960D02*
X8339343Y-12752912D01*
X8339343Y-12752912D02*
X8339343Y-12733865D01*
X8339343Y-12733865D02*
X8348867Y-12714817D01*
X8348867Y-12714817D02*
X8367914Y-12705293D01*
X8367914Y-12705293D02*
X8415533Y-12705293D01*
X8415533Y-12705293D02*
X8434581Y-12695769D01*
X8501248Y-12648150D02*
X8577438Y-12648150D01*
X8529819Y-12581484D02*
X8529819Y-12752912D01*
X8529819Y-12752912D02*
X8539343Y-12771960D01*
X8539343Y-12771960D02*
X8558391Y-12781484D01*
X8558391Y-12781484D02*
X8577438Y-12781484D01*
X8720295Y-12771960D02*
X8701248Y-12781484D01*
X8701248Y-12781484D02*
X8663152Y-12781484D01*
X8663152Y-12781484D02*
X8644105Y-12771960D01*
X8644105Y-12771960D02*
X8634581Y-12752912D01*
X8634581Y-12752912D02*
X8634581Y-12676722D01*
X8634581Y-12676722D02*
X8644105Y-12657674D01*
X8644105Y-12657674D02*
X8663152Y-12648150D01*
X8663152Y-12648150D02*
X8701248Y-12648150D01*
X8701248Y-12648150D02*
X8720295Y-12657674D01*
X8720295Y-12657674D02*
X8729819Y-12676722D01*
X8729819Y-12676722D02*
X8729819Y-12695769D01*
X8729819Y-12695769D02*
X8634581Y-12714817D01*
X8901248Y-12781484D02*
X8901248Y-12581484D01*
X8901248Y-12771960D02*
X8882200Y-12781484D01*
X8882200Y-12781484D02*
X8844105Y-12781484D01*
X8844105Y-12781484D02*
X8825057Y-12771960D01*
X8825057Y-12771960D02*
X8815533Y-12762436D01*
X8815533Y-12762436D02*
X8806010Y-12743388D01*
X8806010Y-12743388D02*
X8806010Y-12686246D01*
X8806010Y-12686246D02*
X8815533Y-12667198D01*
X8815533Y-12667198D02*
X8825057Y-12657674D01*
X8825057Y-12657674D02*
X8844105Y-12648150D01*
X8844105Y-12648150D02*
X8882200Y-12648150D01*
X8882200Y-12648150D02*
X8901248Y-12657674D01*
X8977438Y-12857674D02*
X8986962Y-12848150D01*
X8986962Y-12848150D02*
X9006010Y-12819579D01*
X9006010Y-12819579D02*
X9015533Y-12800531D01*
X9015533Y-12800531D02*
X9025057Y-12771960D01*
X9025057Y-12771960D02*
X9034581Y-12724341D01*
X9034581Y-12724341D02*
X9034581Y-12686246D01*
X9034581Y-12686246D02*
X9025057Y-12638627D01*
X9025057Y-12638627D02*
X9015533Y-12610055D01*
X9015533Y-12610055D02*
X9006010Y-12591008D01*
X9006010Y-12591008D02*
X8986962Y-12562436D01*
X8986962Y-12562436D02*
X8977438Y-12552912D01*
X1811182Y-13080711D02*
X1811182Y-12939289D01*
X1669759Y-12939289D01*
X1669759Y-13080711D01*
X1811182Y-13080711D01*
X2082199Y-12901484D02*
X2206009Y-12901484D01*
X2206009Y-12901484D02*
X2139342Y-12977674D01*
X2139342Y-12977674D02*
X2167914Y-12977674D01*
X2167914Y-12977674D02*
X2186961Y-12987198D01*
X2186961Y-12987198D02*
X2196485Y-12996722D01*
X2196485Y-12996722D02*
X2206009Y-13015769D01*
X2206009Y-13015769D02*
X2206009Y-13063388D01*
X2206009Y-13063388D02*
X2196485Y-13082436D01*
X2196485Y-13082436D02*
X2186961Y-13091960D01*
X2186961Y-13091960D02*
X2167914Y-13101484D01*
X2167914Y-13101484D02*
X2110771Y-13101484D01*
X2110771Y-13101484D02*
X2091723Y-13091960D01*
X2091723Y-13091960D02*
X2082199Y-13082436D01*
X2291723Y-13082436D02*
X2301247Y-13091960D01*
X2301247Y-13091960D02*
X2291723Y-13101484D01*
X2291723Y-13101484D02*
X2282200Y-13091960D01*
X2282200Y-13091960D02*
X2291723Y-13082436D01*
X2291723Y-13082436D02*
X2291723Y-13101484D01*
X2396485Y-13101484D02*
X2434580Y-13101484D01*
X2434580Y-13101484D02*
X2453628Y-13091960D01*
X2453628Y-13091960D02*
X2463152Y-13082436D01*
X2463152Y-13082436D02*
X2482200Y-13053865D01*
X2482200Y-13053865D02*
X2491723Y-13015769D01*
X2491723Y-13015769D02*
X2491723Y-12939579D01*
X2491723Y-12939579D02*
X2482200Y-12920531D01*
X2482200Y-12920531D02*
X2472676Y-12911008D01*
X2472676Y-12911008D02*
X2453628Y-12901484D01*
X2453628Y-12901484D02*
X2415533Y-12901484D01*
X2415533Y-12901484D02*
X2396485Y-12911008D01*
X2396485Y-12911008D02*
X2386961Y-12920531D01*
X2386961Y-12920531D02*
X2377438Y-12939579D01*
X2377438Y-12939579D02*
X2377438Y-12987198D01*
X2377438Y-12987198D02*
X2386961Y-13006246D01*
X2386961Y-13006246D02*
X2396485Y-13015769D01*
X2396485Y-13015769D02*
X2415533Y-13025293D01*
X2415533Y-13025293D02*
X2453628Y-13025293D01*
X2453628Y-13025293D02*
X2472676Y-13015769D01*
X2472676Y-13015769D02*
X2482200Y-13006246D01*
X2482200Y-13006246D02*
X2491723Y-12987198D01*
X2606009Y-12987198D02*
X2586961Y-12977674D01*
X2586961Y-12977674D02*
X2577438Y-12968150D01*
X2577438Y-12968150D02*
X2567914Y-12949103D01*
X2567914Y-12949103D02*
X2567914Y-12939579D01*
X2567914Y-12939579D02*
X2577438Y-12920531D01*
X2577438Y-12920531D02*
X2586961Y-12911008D01*
X2586961Y-12911008D02*
X2606009Y-12901484D01*
X2606009Y-12901484D02*
X2644104Y-12901484D01*
X2644104Y-12901484D02*
X2663152Y-12911008D01*
X2663152Y-12911008D02*
X2672676Y-12920531D01*
X2672676Y-12920531D02*
X2682200Y-12939579D01*
X2682200Y-12939579D02*
X2682200Y-12949103D01*
X2682200Y-12949103D02*
X2672676Y-12968150D01*
X2672676Y-12968150D02*
X2663152Y-12977674D01*
X2663152Y-12977674D02*
X2644104Y-12987198D01*
X2644104Y-12987198D02*
X2606009Y-12987198D01*
X2606009Y-12987198D02*
X2586961Y-12996722D01*
X2586961Y-12996722D02*
X2577438Y-13006246D01*
X2577438Y-13006246D02*
X2567914Y-13025293D01*
X2567914Y-13025293D02*
X2567914Y-13063388D01*
X2567914Y-13063388D02*
X2577438Y-13082436D01*
X2577438Y-13082436D02*
X2586961Y-13091960D01*
X2586961Y-13091960D02*
X2606009Y-13101484D01*
X2606009Y-13101484D02*
X2644104Y-13101484D01*
X2644104Y-13101484D02*
X2663152Y-13091960D01*
X2663152Y-13091960D02*
X2672676Y-13082436D01*
X2672676Y-13082436D02*
X2682200Y-13063388D01*
X2682200Y-13063388D02*
X2682200Y-13025293D01*
X2682200Y-13025293D02*
X2672676Y-13006246D01*
X2672676Y-13006246D02*
X2663152Y-12996722D01*
X2663152Y-12996722D02*
X2644104Y-12987198D01*
X2796485Y-12987198D02*
X2777438Y-12977674D01*
X2777438Y-12977674D02*
X2767914Y-12968150D01*
X2767914Y-12968150D02*
X2758390Y-12949103D01*
X2758390Y-12949103D02*
X2758390Y-12939579D01*
X2758390Y-12939579D02*
X2767914Y-12920531D01*
X2767914Y-12920531D02*
X2777438Y-12911008D01*
X2777438Y-12911008D02*
X2796485Y-12901484D01*
X2796485Y-12901484D02*
X2834580Y-12901484D01*
X2834580Y-12901484D02*
X2853628Y-12911008D01*
X2853628Y-12911008D02*
X2863152Y-12920531D01*
X2863152Y-12920531D02*
X2872676Y-12939579D01*
X2872676Y-12939579D02*
X2872676Y-12949103D01*
X2872676Y-12949103D02*
X2863152Y-12968150D01*
X2863152Y-12968150D02*
X2853628Y-12977674D01*
X2853628Y-12977674D02*
X2834580Y-12987198D01*
X2834580Y-12987198D02*
X2796485Y-12987198D01*
X2796485Y-12987198D02*
X2777438Y-12996722D01*
X2777438Y-12996722D02*
X2767914Y-13006246D01*
X2767914Y-13006246D02*
X2758390Y-13025293D01*
X2758390Y-13025293D02*
X2758390Y-13063388D01*
X2758390Y-13063388D02*
X2767914Y-13082436D01*
X2767914Y-13082436D02*
X2777438Y-13091960D01*
X2777438Y-13091960D02*
X2796485Y-13101484D01*
X2796485Y-13101484D02*
X2834580Y-13101484D01*
X2834580Y-13101484D02*
X2853628Y-13091960D01*
X2853628Y-13091960D02*
X2863152Y-13082436D01*
X2863152Y-13082436D02*
X2872676Y-13063388D01*
X2872676Y-13063388D02*
X2872676Y-13025293D01*
X2872676Y-13025293D02*
X2863152Y-13006246D01*
X2863152Y-13006246D02*
X2853628Y-12996722D01*
X2853628Y-12996722D02*
X2834580Y-12987198D01*
X2958390Y-13101484D02*
X2958390Y-12968150D01*
X2958390Y-12987198D02*
X2967914Y-12977674D01*
X2967914Y-12977674D02*
X2986961Y-12968150D01*
X2986961Y-12968150D02*
X3015533Y-12968150D01*
X3015533Y-12968150D02*
X3034580Y-12977674D01*
X3034580Y-12977674D02*
X3044104Y-12996722D01*
X3044104Y-12996722D02*
X3044104Y-13101484D01*
X3044104Y-12996722D02*
X3053628Y-12977674D01*
X3053628Y-12977674D02*
X3072676Y-12968150D01*
X3072676Y-12968150D02*
X3101247Y-12968150D01*
X3101247Y-12968150D02*
X3120295Y-12977674D01*
X3120295Y-12977674D02*
X3129819Y-12996722D01*
X3129819Y-12996722D02*
X3129819Y-13101484D01*
X3225057Y-13101484D02*
X3225057Y-12968150D01*
X3225057Y-12987198D02*
X3234580Y-12977674D01*
X3234580Y-12977674D02*
X3253628Y-12968150D01*
X3253628Y-12968150D02*
X3282200Y-12968150D01*
X3282200Y-12968150D02*
X3301247Y-12977674D01*
X3301247Y-12977674D02*
X3310771Y-12996722D01*
X3310771Y-12996722D02*
X3310771Y-13101484D01*
X3310771Y-12996722D02*
X3320295Y-12977674D01*
X3320295Y-12977674D02*
X3339342Y-12968150D01*
X3339342Y-12968150D02*
X3367914Y-12968150D01*
X3367914Y-12968150D02*
X3386961Y-12977674D01*
X3386961Y-12977674D02*
X3396485Y-12996722D01*
X3396485Y-12996722D02*
X3396485Y-13101484D01*
X3786961Y-12891960D02*
X3615533Y-13149103D01*
X4044104Y-12901484D02*
X4063152Y-12901484D01*
X4063152Y-12901484D02*
X4082200Y-12911008D01*
X4082200Y-12911008D02*
X4091723Y-12920531D01*
X4091723Y-12920531D02*
X4101247Y-12939579D01*
X4101247Y-12939579D02*
X4110771Y-12977674D01*
X4110771Y-12977674D02*
X4110771Y-13025293D01*
X4110771Y-13025293D02*
X4101247Y-13063388D01*
X4101247Y-13063388D02*
X4091723Y-13082436D01*
X4091723Y-13082436D02*
X4082200Y-13091960D01*
X4082200Y-13091960D02*
X4063152Y-13101484D01*
X4063152Y-13101484D02*
X4044104Y-13101484D01*
X4044104Y-13101484D02*
X4025057Y-13091960D01*
X4025057Y-13091960D02*
X4015533Y-13082436D01*
X4015533Y-13082436D02*
X4006009Y-13063388D01*
X4006009Y-13063388D02*
X3996485Y-13025293D01*
X3996485Y-13025293D02*
X3996485Y-12977674D01*
X3996485Y-12977674D02*
X4006009Y-12939579D01*
X4006009Y-12939579D02*
X4015533Y-12920531D01*
X4015533Y-12920531D02*
X4025057Y-12911008D01*
X4025057Y-12911008D02*
X4044104Y-12901484D01*
X4196485Y-13082436D02*
X4206009Y-13091960D01*
X4206009Y-13091960D02*
X4196485Y-13101484D01*
X4196485Y-13101484D02*
X4186962Y-13091960D01*
X4186962Y-13091960D02*
X4196485Y-13082436D01*
X4196485Y-13082436D02*
X4196485Y-13101484D01*
X4396485Y-13101484D02*
X4282200Y-13101484D01*
X4339343Y-13101484D02*
X4339343Y-12901484D01*
X4339343Y-12901484D02*
X4320295Y-12930055D01*
X4320295Y-12930055D02*
X4301247Y-12949103D01*
X4301247Y-12949103D02*
X4282200Y-12958627D01*
X4577438Y-12901484D02*
X4482200Y-12901484D01*
X4482200Y-12901484D02*
X4472676Y-12996722D01*
X4472676Y-12996722D02*
X4482200Y-12987198D01*
X4482200Y-12987198D02*
X4501247Y-12977674D01*
X4501247Y-12977674D02*
X4548866Y-12977674D01*
X4548866Y-12977674D02*
X4567914Y-12987198D01*
X4567914Y-12987198D02*
X4577438Y-12996722D01*
X4577438Y-12996722D02*
X4586962Y-13015769D01*
X4586962Y-13015769D02*
X4586962Y-13063388D01*
X4586962Y-13063388D02*
X4577438Y-13082436D01*
X4577438Y-13082436D02*
X4567914Y-13091960D01*
X4567914Y-13091960D02*
X4548866Y-13101484D01*
X4548866Y-13101484D02*
X4501247Y-13101484D01*
X4501247Y-13101484D02*
X4482200Y-13091960D01*
X4482200Y-13091960D02*
X4472676Y-13082436D01*
X4653628Y-12901484D02*
X4786962Y-12901484D01*
X4786962Y-12901484D02*
X4701247Y-13101484D01*
X4901247Y-12901484D02*
X4920295Y-12901484D01*
X4920295Y-12901484D02*
X4939343Y-12911008D01*
X4939343Y-12911008D02*
X4948866Y-12920531D01*
X4948866Y-12920531D02*
X4958390Y-12939579D01*
X4958390Y-12939579D02*
X4967914Y-12977674D01*
X4967914Y-12977674D02*
X4967914Y-13025293D01*
X4967914Y-13025293D02*
X4958390Y-13063388D01*
X4958390Y-13063388D02*
X4948866Y-13082436D01*
X4948866Y-13082436D02*
X4939343Y-13091960D01*
X4939343Y-13091960D02*
X4920295Y-13101484D01*
X4920295Y-13101484D02*
X4901247Y-13101484D01*
X4901247Y-13101484D02*
X4882200Y-13091960D01*
X4882200Y-13091960D02*
X4872676Y-13082436D01*
X4872676Y-13082436D02*
X4863152Y-13063388D01*
X4863152Y-13063388D02*
X4853628Y-13025293D01*
X4853628Y-13025293D02*
X4853628Y-12977674D01*
X4853628Y-12977674D02*
X4863152Y-12939579D01*
X4863152Y-12939579D02*
X4872676Y-12920531D01*
X4872676Y-12920531D02*
X4882200Y-12911008D01*
X4882200Y-12911008D02*
X4901247Y-12901484D01*
X5044105Y-12901484D02*
X5044105Y-12939579D01*
X5120295Y-12901484D02*
X5120295Y-12939579D01*
X5415533Y-13177674D02*
X5406009Y-13168150D01*
X5406009Y-13168150D02*
X5386962Y-13139579D01*
X5386962Y-13139579D02*
X5377438Y-13120531D01*
X5377438Y-13120531D02*
X5367914Y-13091960D01*
X5367914Y-13091960D02*
X5358390Y-13044341D01*
X5358390Y-13044341D02*
X5358390Y-13006246D01*
X5358390Y-13006246D02*
X5367914Y-12958627D01*
X5367914Y-12958627D02*
X5377438Y-12930055D01*
X5377438Y-12930055D02*
X5386962Y-12911008D01*
X5386962Y-12911008D02*
X5406009Y-12882436D01*
X5406009Y-12882436D02*
X5415533Y-12872912D01*
X5577438Y-12901484D02*
X5539343Y-12901484D01*
X5539343Y-12901484D02*
X5520295Y-12911008D01*
X5520295Y-12911008D02*
X5510771Y-12920531D01*
X5510771Y-12920531D02*
X5491724Y-12949103D01*
X5491724Y-12949103D02*
X5482200Y-12987198D01*
X5482200Y-12987198D02*
X5482200Y-13063388D01*
X5482200Y-13063388D02*
X5491724Y-13082436D01*
X5491724Y-13082436D02*
X5501247Y-13091960D01*
X5501247Y-13091960D02*
X5520295Y-13101484D01*
X5520295Y-13101484D02*
X5558390Y-13101484D01*
X5558390Y-13101484D02*
X5577438Y-13091960D01*
X5577438Y-13091960D02*
X5586962Y-13082436D01*
X5586962Y-13082436D02*
X5596485Y-13063388D01*
X5596485Y-13063388D02*
X5596485Y-13015769D01*
X5596485Y-13015769D02*
X5586962Y-12996722D01*
X5586962Y-12996722D02*
X5577438Y-12987198D01*
X5577438Y-12987198D02*
X5558390Y-12977674D01*
X5558390Y-12977674D02*
X5520295Y-12977674D01*
X5520295Y-12977674D02*
X5501247Y-12987198D01*
X5501247Y-12987198D02*
X5491724Y-12996722D01*
X5491724Y-12996722D02*
X5482200Y-13015769D01*
X5834581Y-13101484D02*
X5834581Y-12901484D01*
X5920295Y-13101484D02*
X5920295Y-12996722D01*
X5920295Y-12996722D02*
X5910771Y-12977674D01*
X5910771Y-12977674D02*
X5891724Y-12968150D01*
X5891724Y-12968150D02*
X5863152Y-12968150D01*
X5863152Y-12968150D02*
X5844105Y-12977674D01*
X5844105Y-12977674D02*
X5834581Y-12987198D01*
X6044105Y-13101484D02*
X6025057Y-13091960D01*
X6025057Y-13091960D02*
X6015533Y-13082436D01*
X6015533Y-13082436D02*
X6006009Y-13063388D01*
X6006009Y-13063388D02*
X6006009Y-13006246D01*
X6006009Y-13006246D02*
X6015533Y-12987198D01*
X6015533Y-12987198D02*
X6025057Y-12977674D01*
X6025057Y-12977674D02*
X6044105Y-12968150D01*
X6044105Y-12968150D02*
X6072676Y-12968150D01*
X6072676Y-12968150D02*
X6091724Y-12977674D01*
X6091724Y-12977674D02*
X6101247Y-12987198D01*
X6101247Y-12987198D02*
X6110771Y-13006246D01*
X6110771Y-13006246D02*
X6110771Y-13063388D01*
X6110771Y-13063388D02*
X6101247Y-13082436D01*
X6101247Y-13082436D02*
X6091724Y-13091960D01*
X6091724Y-13091960D02*
X6072676Y-13101484D01*
X6072676Y-13101484D02*
X6044105Y-13101484D01*
X6225057Y-13101484D02*
X6206009Y-13091960D01*
X6206009Y-13091960D02*
X6196486Y-13072912D01*
X6196486Y-13072912D02*
X6196486Y-12901484D01*
X6377438Y-13091960D02*
X6358390Y-13101484D01*
X6358390Y-13101484D02*
X6320295Y-13101484D01*
X6320295Y-13101484D02*
X6301247Y-13091960D01*
X6301247Y-13091960D02*
X6291724Y-13072912D01*
X6291724Y-13072912D02*
X6291724Y-12996722D01*
X6291724Y-12996722D02*
X6301247Y-12977674D01*
X6301247Y-12977674D02*
X6320295Y-12968150D01*
X6320295Y-12968150D02*
X6358390Y-12968150D01*
X6358390Y-12968150D02*
X6377438Y-12977674D01*
X6377438Y-12977674D02*
X6386962Y-12996722D01*
X6386962Y-12996722D02*
X6386962Y-13015769D01*
X6386962Y-13015769D02*
X6291724Y-13034817D01*
X6463152Y-13091960D02*
X6482200Y-13101484D01*
X6482200Y-13101484D02*
X6520295Y-13101484D01*
X6520295Y-13101484D02*
X6539343Y-13091960D01*
X6539343Y-13091960D02*
X6548867Y-13072912D01*
X6548867Y-13072912D02*
X6548867Y-13063388D01*
X6548867Y-13063388D02*
X6539343Y-13044341D01*
X6539343Y-13044341D02*
X6520295Y-13034817D01*
X6520295Y-13034817D02*
X6491724Y-13034817D01*
X6491724Y-13034817D02*
X6472676Y-13025293D01*
X6472676Y-13025293D02*
X6463152Y-13006246D01*
X6463152Y-13006246D02*
X6463152Y-12996722D01*
X6463152Y-12996722D02*
X6472676Y-12977674D01*
X6472676Y-12977674D02*
X6491724Y-12968150D01*
X6491724Y-12968150D02*
X6520295Y-12968150D01*
X6520295Y-12968150D02*
X6539343Y-12977674D01*
X6615533Y-13177674D02*
X6625057Y-13168150D01*
X6625057Y-13168150D02*
X6644105Y-13139579D01*
X6644105Y-13139579D02*
X6653628Y-13120531D01*
X6653628Y-13120531D02*
X6663152Y-13091960D01*
X6663152Y-13091960D02*
X6672676Y-13044341D01*
X6672676Y-13044341D02*
X6672676Y-13006246D01*
X6672676Y-13006246D02*
X6663152Y-12958627D01*
X6663152Y-12958627D02*
X6653628Y-12930055D01*
X6653628Y-12930055D02*
X6644105Y-12911008D01*
X6644105Y-12911008D02*
X6625057Y-12882436D01*
X6625057Y-12882436D02*
X6615533Y-12872912D01*
X6977438Y-13177674D02*
X6967914Y-13168150D01*
X6967914Y-13168150D02*
X6948867Y-13139579D01*
X6948867Y-13139579D02*
X6939343Y-13120531D01*
X6939343Y-13120531D02*
X6929819Y-13091960D01*
X6929819Y-13091960D02*
X6920295Y-13044341D01*
X6920295Y-13044341D02*
X6920295Y-13006246D01*
X6920295Y-13006246D02*
X6929819Y-12958627D01*
X6929819Y-12958627D02*
X6939343Y-12930055D01*
X6939343Y-12930055D02*
X6948867Y-12911008D01*
X6948867Y-12911008D02*
X6967914Y-12882436D01*
X6967914Y-12882436D02*
X6977438Y-12872912D01*
X7053628Y-12968150D02*
X7053628Y-13101484D01*
X7053628Y-12987198D02*
X7063152Y-12977674D01*
X7063152Y-12977674D02*
X7082200Y-12968150D01*
X7082200Y-12968150D02*
X7110771Y-12968150D01*
X7110771Y-12968150D02*
X7129819Y-12977674D01*
X7129819Y-12977674D02*
X7139343Y-12996722D01*
X7139343Y-12996722D02*
X7139343Y-13101484D01*
X7263152Y-13101484D02*
X7244105Y-13091960D01*
X7244105Y-13091960D02*
X7234581Y-13082436D01*
X7234581Y-13082436D02*
X7225057Y-13063388D01*
X7225057Y-13063388D02*
X7225057Y-13006246D01*
X7225057Y-13006246D02*
X7234581Y-12987198D01*
X7234581Y-12987198D02*
X7244105Y-12977674D01*
X7244105Y-12977674D02*
X7263152Y-12968150D01*
X7263152Y-12968150D02*
X7291724Y-12968150D01*
X7291724Y-12968150D02*
X7310771Y-12977674D01*
X7310771Y-12977674D02*
X7320295Y-12987198D01*
X7320295Y-12987198D02*
X7329819Y-13006246D01*
X7329819Y-13006246D02*
X7329819Y-13063388D01*
X7329819Y-13063388D02*
X7320295Y-13082436D01*
X7320295Y-13082436D02*
X7310771Y-13091960D01*
X7310771Y-13091960D02*
X7291724Y-13101484D01*
X7291724Y-13101484D02*
X7263152Y-13101484D01*
X7386962Y-12968150D02*
X7463152Y-12968150D01*
X7415533Y-12901484D02*
X7415533Y-13072912D01*
X7415533Y-13072912D02*
X7425057Y-13091960D01*
X7425057Y-13091960D02*
X7444105Y-13101484D01*
X7444105Y-13101484D02*
X7463152Y-13101484D01*
X7682200Y-12968150D02*
X7682200Y-13168150D01*
X7682200Y-12977674D02*
X7701248Y-12968150D01*
X7701248Y-12968150D02*
X7739343Y-12968150D01*
X7739343Y-12968150D02*
X7758390Y-12977674D01*
X7758390Y-12977674D02*
X7767914Y-12987198D01*
X7767914Y-12987198D02*
X7777438Y-13006246D01*
X7777438Y-13006246D02*
X7777438Y-13063388D01*
X7777438Y-13063388D02*
X7767914Y-13082436D01*
X7767914Y-13082436D02*
X7758390Y-13091960D01*
X7758390Y-13091960D02*
X7739343Y-13101484D01*
X7739343Y-13101484D02*
X7701248Y-13101484D01*
X7701248Y-13101484D02*
X7682200Y-13091960D01*
X7891724Y-13101484D02*
X7872676Y-13091960D01*
X7872676Y-13091960D02*
X7863152Y-13072912D01*
X7863152Y-13072912D02*
X7863152Y-12901484D01*
X8053629Y-13101484D02*
X8053629Y-12996722D01*
X8053629Y-12996722D02*
X8044105Y-12977674D01*
X8044105Y-12977674D02*
X8025057Y-12968150D01*
X8025057Y-12968150D02*
X7986962Y-12968150D01*
X7986962Y-12968150D02*
X7967914Y-12977674D01*
X8053629Y-13091960D02*
X8034581Y-13101484D01*
X8034581Y-13101484D02*
X7986962Y-13101484D01*
X7986962Y-13101484D02*
X7967914Y-13091960D01*
X7967914Y-13091960D02*
X7958390Y-13072912D01*
X7958390Y-13072912D02*
X7958390Y-13053865D01*
X7958390Y-13053865D02*
X7967914Y-13034817D01*
X7967914Y-13034817D02*
X7986962Y-13025293D01*
X7986962Y-13025293D02*
X8034581Y-13025293D01*
X8034581Y-13025293D02*
X8053629Y-13015769D01*
X8120295Y-12968150D02*
X8196486Y-12968150D01*
X8148867Y-12901484D02*
X8148867Y-13072912D01*
X8148867Y-13072912D02*
X8158390Y-13091960D01*
X8158390Y-13091960D02*
X8177438Y-13101484D01*
X8177438Y-13101484D02*
X8196486Y-13101484D01*
X8339343Y-13091960D02*
X8320295Y-13101484D01*
X8320295Y-13101484D02*
X8282200Y-13101484D01*
X8282200Y-13101484D02*
X8263152Y-13091960D01*
X8263152Y-13091960D02*
X8253629Y-13072912D01*
X8253629Y-13072912D02*
X8253629Y-12996722D01*
X8253629Y-12996722D02*
X8263152Y-12977674D01*
X8263152Y-12977674D02*
X8282200Y-12968150D01*
X8282200Y-12968150D02*
X8320295Y-12968150D01*
X8320295Y-12968150D02*
X8339343Y-12977674D01*
X8339343Y-12977674D02*
X8348867Y-12996722D01*
X8348867Y-12996722D02*
X8348867Y-13015769D01*
X8348867Y-13015769D02*
X8253629Y-13034817D01*
X8520295Y-13101484D02*
X8520295Y-12901484D01*
X8520295Y-13091960D02*
X8501248Y-13101484D01*
X8501248Y-13101484D02*
X8463152Y-13101484D01*
X8463152Y-13101484D02*
X8444105Y-13091960D01*
X8444105Y-13091960D02*
X8434581Y-13082436D01*
X8434581Y-13082436D02*
X8425057Y-13063388D01*
X8425057Y-13063388D02*
X8425057Y-13006246D01*
X8425057Y-13006246D02*
X8434581Y-12987198D01*
X8434581Y-12987198D02*
X8444105Y-12977674D01*
X8444105Y-12977674D02*
X8463152Y-12968150D01*
X8463152Y-12968150D02*
X8501248Y-12968150D01*
X8501248Y-12968150D02*
X8520295Y-12977674D01*
X8596486Y-13177674D02*
X8606010Y-13168150D01*
X8606010Y-13168150D02*
X8625057Y-13139579D01*
X8625057Y-13139579D02*
X8634581Y-13120531D01*
X8634581Y-13120531D02*
X8644105Y-13091960D01*
X8644105Y-13091960D02*
X8653629Y-13044341D01*
X8653629Y-13044341D02*
X8653629Y-13006246D01*
X8653629Y-13006246D02*
X8644105Y-12958627D01*
X8644105Y-12958627D02*
X8634581Y-12930055D01*
X8634581Y-12930055D02*
X8625057Y-12911008D01*
X8625057Y-12911008D02*
X8606010Y-12882436D01*
X8606010Y-12882436D02*
X8596486Y-12872912D01*
X1740470Y-13430000D02*
X1840470Y-13330000D01*
X1740470Y-13230000D01*
X1640470Y-13330000D01*
X1740470Y-13430000D01*
X2186961Y-13288150D02*
X2186961Y-13421484D01*
X2139342Y-13211960D02*
X2091723Y-13354817D01*
X2091723Y-13354817D02*
X2215533Y-13354817D01*
X2291723Y-13402436D02*
X2301247Y-13411960D01*
X2301247Y-13411960D02*
X2291723Y-13421484D01*
X2291723Y-13421484D02*
X2282200Y-13411960D01*
X2282200Y-13411960D02*
X2291723Y-13402436D01*
X2291723Y-13402436D02*
X2291723Y-13421484D01*
X2425057Y-13221484D02*
X2444104Y-13221484D01*
X2444104Y-13221484D02*
X2463152Y-13231008D01*
X2463152Y-13231008D02*
X2472676Y-13240531D01*
X2472676Y-13240531D02*
X2482200Y-13259579D01*
X2482200Y-13259579D02*
X2491723Y-13297674D01*
X2491723Y-13297674D02*
X2491723Y-13345293D01*
X2491723Y-13345293D02*
X2482200Y-13383388D01*
X2482200Y-13383388D02*
X2472676Y-13402436D01*
X2472676Y-13402436D02*
X2463152Y-13411960D01*
X2463152Y-13411960D02*
X2444104Y-13421484D01*
X2444104Y-13421484D02*
X2425057Y-13421484D01*
X2425057Y-13421484D02*
X2406009Y-13411960D01*
X2406009Y-13411960D02*
X2396485Y-13402436D01*
X2396485Y-13402436D02*
X2386961Y-13383388D01*
X2386961Y-13383388D02*
X2377438Y-13345293D01*
X2377438Y-13345293D02*
X2377438Y-13297674D01*
X2377438Y-13297674D02*
X2386961Y-13259579D01*
X2386961Y-13259579D02*
X2396485Y-13240531D01*
X2396485Y-13240531D02*
X2406009Y-13231008D01*
X2406009Y-13231008D02*
X2425057Y-13221484D01*
X2615533Y-13221484D02*
X2634581Y-13221484D01*
X2634581Y-13221484D02*
X2653628Y-13231008D01*
X2653628Y-13231008D02*
X2663152Y-13240531D01*
X2663152Y-13240531D02*
X2672676Y-13259579D01*
X2672676Y-13259579D02*
X2682200Y-13297674D01*
X2682200Y-13297674D02*
X2682200Y-13345293D01*
X2682200Y-13345293D02*
X2672676Y-13383388D01*
X2672676Y-13383388D02*
X2663152Y-13402436D01*
X2663152Y-13402436D02*
X2653628Y-13411960D01*
X2653628Y-13411960D02*
X2634581Y-13421484D01*
X2634581Y-13421484D02*
X2615533Y-13421484D01*
X2615533Y-13421484D02*
X2596485Y-13411960D01*
X2596485Y-13411960D02*
X2586961Y-13402436D01*
X2586961Y-13402436D02*
X2577438Y-13383388D01*
X2577438Y-13383388D02*
X2567914Y-13345293D01*
X2567914Y-13345293D02*
X2567914Y-13297674D01*
X2567914Y-13297674D02*
X2577438Y-13259579D01*
X2577438Y-13259579D02*
X2586961Y-13240531D01*
X2586961Y-13240531D02*
X2596485Y-13231008D01*
X2596485Y-13231008D02*
X2615533Y-13221484D01*
X2806009Y-13221484D02*
X2825057Y-13221484D01*
X2825057Y-13221484D02*
X2844104Y-13231008D01*
X2844104Y-13231008D02*
X2853628Y-13240531D01*
X2853628Y-13240531D02*
X2863152Y-13259579D01*
X2863152Y-13259579D02*
X2872676Y-13297674D01*
X2872676Y-13297674D02*
X2872676Y-13345293D01*
X2872676Y-13345293D02*
X2863152Y-13383388D01*
X2863152Y-13383388D02*
X2853628Y-13402436D01*
X2853628Y-13402436D02*
X2844104Y-13411960D01*
X2844104Y-13411960D02*
X2825057Y-13421484D01*
X2825057Y-13421484D02*
X2806009Y-13421484D01*
X2806009Y-13421484D02*
X2786961Y-13411960D01*
X2786961Y-13411960D02*
X2777438Y-13402436D01*
X2777438Y-13402436D02*
X2767914Y-13383388D01*
X2767914Y-13383388D02*
X2758390Y-13345293D01*
X2758390Y-13345293D02*
X2758390Y-13297674D01*
X2758390Y-13297674D02*
X2767914Y-13259579D01*
X2767914Y-13259579D02*
X2777438Y-13240531D01*
X2777438Y-13240531D02*
X2786961Y-13231008D01*
X2786961Y-13231008D02*
X2806009Y-13221484D01*
X2958390Y-13421484D02*
X2958390Y-13288150D01*
X2958390Y-13307198D02*
X2967914Y-13297674D01*
X2967914Y-13297674D02*
X2986961Y-13288150D01*
X2986961Y-13288150D02*
X3015533Y-13288150D01*
X3015533Y-13288150D02*
X3034580Y-13297674D01*
X3034580Y-13297674D02*
X3044104Y-13316722D01*
X3044104Y-13316722D02*
X3044104Y-13421484D01*
X3044104Y-13316722D02*
X3053628Y-13297674D01*
X3053628Y-13297674D02*
X3072676Y-13288150D01*
X3072676Y-13288150D02*
X3101247Y-13288150D01*
X3101247Y-13288150D02*
X3120295Y-13297674D01*
X3120295Y-13297674D02*
X3129819Y-13316722D01*
X3129819Y-13316722D02*
X3129819Y-13421484D01*
X3225057Y-13421484D02*
X3225057Y-13288150D01*
X3225057Y-13307198D02*
X3234580Y-13297674D01*
X3234580Y-13297674D02*
X3253628Y-13288150D01*
X3253628Y-13288150D02*
X3282200Y-13288150D01*
X3282200Y-13288150D02*
X3301247Y-13297674D01*
X3301247Y-13297674D02*
X3310771Y-13316722D01*
X3310771Y-13316722D02*
X3310771Y-13421484D01*
X3310771Y-13316722D02*
X3320295Y-13297674D01*
X3320295Y-13297674D02*
X3339342Y-13288150D01*
X3339342Y-13288150D02*
X3367914Y-13288150D01*
X3367914Y-13288150D02*
X3386961Y-13297674D01*
X3386961Y-13297674D02*
X3396485Y-13316722D01*
X3396485Y-13316722D02*
X3396485Y-13421484D01*
X3786961Y-13211960D02*
X3615533Y-13469103D01*
X4044104Y-13221484D02*
X4063152Y-13221484D01*
X4063152Y-13221484D02*
X4082200Y-13231008D01*
X4082200Y-13231008D02*
X4091723Y-13240531D01*
X4091723Y-13240531D02*
X4101247Y-13259579D01*
X4101247Y-13259579D02*
X4110771Y-13297674D01*
X4110771Y-13297674D02*
X4110771Y-13345293D01*
X4110771Y-13345293D02*
X4101247Y-13383388D01*
X4101247Y-13383388D02*
X4091723Y-13402436D01*
X4091723Y-13402436D02*
X4082200Y-13411960D01*
X4082200Y-13411960D02*
X4063152Y-13421484D01*
X4063152Y-13421484D02*
X4044104Y-13421484D01*
X4044104Y-13421484D02*
X4025057Y-13411960D01*
X4025057Y-13411960D02*
X4015533Y-13402436D01*
X4015533Y-13402436D02*
X4006009Y-13383388D01*
X4006009Y-13383388D02*
X3996485Y-13345293D01*
X3996485Y-13345293D02*
X3996485Y-13297674D01*
X3996485Y-13297674D02*
X4006009Y-13259579D01*
X4006009Y-13259579D02*
X4015533Y-13240531D01*
X4015533Y-13240531D02*
X4025057Y-13231008D01*
X4025057Y-13231008D02*
X4044104Y-13221484D01*
X4196485Y-13402436D02*
X4206009Y-13411960D01*
X4206009Y-13411960D02*
X4196485Y-13421484D01*
X4196485Y-13421484D02*
X4186962Y-13411960D01*
X4186962Y-13411960D02*
X4196485Y-13402436D01*
X4196485Y-13402436D02*
X4196485Y-13421484D01*
X4396485Y-13421484D02*
X4282200Y-13421484D01*
X4339343Y-13421484D02*
X4339343Y-13221484D01*
X4339343Y-13221484D02*
X4320295Y-13250055D01*
X4320295Y-13250055D02*
X4301247Y-13269103D01*
X4301247Y-13269103D02*
X4282200Y-13278627D01*
X4577438Y-13221484D02*
X4482200Y-13221484D01*
X4482200Y-13221484D02*
X4472676Y-13316722D01*
X4472676Y-13316722D02*
X4482200Y-13307198D01*
X4482200Y-13307198D02*
X4501247Y-13297674D01*
X4501247Y-13297674D02*
X4548866Y-13297674D01*
X4548866Y-13297674D02*
X4567914Y-13307198D01*
X4567914Y-13307198D02*
X4577438Y-13316722D01*
X4577438Y-13316722D02*
X4586962Y-13335769D01*
X4586962Y-13335769D02*
X4586962Y-13383388D01*
X4586962Y-13383388D02*
X4577438Y-13402436D01*
X4577438Y-13402436D02*
X4567914Y-13411960D01*
X4567914Y-13411960D02*
X4548866Y-13421484D01*
X4548866Y-13421484D02*
X4501247Y-13421484D01*
X4501247Y-13421484D02*
X4482200Y-13411960D01*
X4482200Y-13411960D02*
X4472676Y-13402436D01*
X4653628Y-13221484D02*
X4786962Y-13221484D01*
X4786962Y-13221484D02*
X4701247Y-13421484D01*
X4958390Y-13221484D02*
X4863152Y-13221484D01*
X4863152Y-13221484D02*
X4853628Y-13316722D01*
X4853628Y-13316722D02*
X4863152Y-13307198D01*
X4863152Y-13307198D02*
X4882200Y-13297674D01*
X4882200Y-13297674D02*
X4929819Y-13297674D01*
X4929819Y-13297674D02*
X4948866Y-13307198D01*
X4948866Y-13307198D02*
X4958390Y-13316722D01*
X4958390Y-13316722D02*
X4967914Y-13335769D01*
X4967914Y-13335769D02*
X4967914Y-13383388D01*
X4967914Y-13383388D02*
X4958390Y-13402436D01*
X4958390Y-13402436D02*
X4948866Y-13411960D01*
X4948866Y-13411960D02*
X4929819Y-13421484D01*
X4929819Y-13421484D02*
X4882200Y-13421484D01*
X4882200Y-13421484D02*
X4863152Y-13411960D01*
X4863152Y-13411960D02*
X4853628Y-13402436D01*
X5044105Y-13221484D02*
X5044105Y-13259579D01*
X5120295Y-13221484D02*
X5120295Y-13259579D01*
X5415533Y-13497674D02*
X5406009Y-13488150D01*
X5406009Y-13488150D02*
X5386962Y-13459579D01*
X5386962Y-13459579D02*
X5377438Y-13440531D01*
X5377438Y-13440531D02*
X5367914Y-13411960D01*
X5367914Y-13411960D02*
X5358390Y-13364341D01*
X5358390Y-13364341D02*
X5358390Y-13326246D01*
X5358390Y-13326246D02*
X5367914Y-13278627D01*
X5367914Y-13278627D02*
X5377438Y-13250055D01*
X5377438Y-13250055D02*
X5386962Y-13231008D01*
X5386962Y-13231008D02*
X5406009Y-13202436D01*
X5406009Y-13202436D02*
X5415533Y-13192912D01*
X5520295Y-13307198D02*
X5501247Y-13297674D01*
X5501247Y-13297674D02*
X5491724Y-13288150D01*
X5491724Y-13288150D02*
X5482200Y-13269103D01*
X5482200Y-13269103D02*
X5482200Y-13259579D01*
X5482200Y-13259579D02*
X5491724Y-13240531D01*
X5491724Y-13240531D02*
X5501247Y-13231008D01*
X5501247Y-13231008D02*
X5520295Y-13221484D01*
X5520295Y-13221484D02*
X5558390Y-13221484D01*
X5558390Y-13221484D02*
X5577438Y-13231008D01*
X5577438Y-13231008D02*
X5586962Y-13240531D01*
X5586962Y-13240531D02*
X5596485Y-13259579D01*
X5596485Y-13259579D02*
X5596485Y-13269103D01*
X5596485Y-13269103D02*
X5586962Y-13288150D01*
X5586962Y-13288150D02*
X5577438Y-13297674D01*
X5577438Y-13297674D02*
X5558390Y-13307198D01*
X5558390Y-13307198D02*
X5520295Y-13307198D01*
X5520295Y-13307198D02*
X5501247Y-13316722D01*
X5501247Y-13316722D02*
X5491724Y-13326246D01*
X5491724Y-13326246D02*
X5482200Y-13345293D01*
X5482200Y-13345293D02*
X5482200Y-13383388D01*
X5482200Y-13383388D02*
X5491724Y-13402436D01*
X5491724Y-13402436D02*
X5501247Y-13411960D01*
X5501247Y-13411960D02*
X5520295Y-13421484D01*
X5520295Y-13421484D02*
X5558390Y-13421484D01*
X5558390Y-13421484D02*
X5577438Y-13411960D01*
X5577438Y-13411960D02*
X5586962Y-13402436D01*
X5586962Y-13402436D02*
X5596485Y-13383388D01*
X5596485Y-13383388D02*
X5596485Y-13345293D01*
X5596485Y-13345293D02*
X5586962Y-13326246D01*
X5586962Y-13326246D02*
X5577438Y-13316722D01*
X5577438Y-13316722D02*
X5558390Y-13307198D01*
X5767914Y-13221484D02*
X5729819Y-13221484D01*
X5729819Y-13221484D02*
X5710771Y-13231008D01*
X5710771Y-13231008D02*
X5701247Y-13240531D01*
X5701247Y-13240531D02*
X5682200Y-13269103D01*
X5682200Y-13269103D02*
X5672676Y-13307198D01*
X5672676Y-13307198D02*
X5672676Y-13383388D01*
X5672676Y-13383388D02*
X5682200Y-13402436D01*
X5682200Y-13402436D02*
X5691724Y-13411960D01*
X5691724Y-13411960D02*
X5710771Y-13421484D01*
X5710771Y-13421484D02*
X5748866Y-13421484D01*
X5748866Y-13421484D02*
X5767914Y-13411960D01*
X5767914Y-13411960D02*
X5777438Y-13402436D01*
X5777438Y-13402436D02*
X5786962Y-13383388D01*
X5786962Y-13383388D02*
X5786962Y-13335769D01*
X5786962Y-13335769D02*
X5777438Y-13316722D01*
X5777438Y-13316722D02*
X5767914Y-13307198D01*
X5767914Y-13307198D02*
X5748866Y-13297674D01*
X5748866Y-13297674D02*
X5710771Y-13297674D01*
X5710771Y-13297674D02*
X5691724Y-13307198D01*
X5691724Y-13307198D02*
X5682200Y-13316722D01*
X5682200Y-13316722D02*
X5672676Y-13335769D01*
X6025057Y-13421484D02*
X6025057Y-13221484D01*
X6110771Y-13421484D02*
X6110771Y-13316722D01*
X6110771Y-13316722D02*
X6101247Y-13297674D01*
X6101247Y-13297674D02*
X6082200Y-13288150D01*
X6082200Y-13288150D02*
X6053628Y-13288150D01*
X6053628Y-13288150D02*
X6034581Y-13297674D01*
X6034581Y-13297674D02*
X6025057Y-13307198D01*
X6234581Y-13421484D02*
X6215533Y-13411960D01*
X6215533Y-13411960D02*
X6206009Y-13402436D01*
X6206009Y-13402436D02*
X6196486Y-13383388D01*
X6196486Y-13383388D02*
X6196486Y-13326246D01*
X6196486Y-13326246D02*
X6206009Y-13307198D01*
X6206009Y-13307198D02*
X6215533Y-13297674D01*
X6215533Y-13297674D02*
X6234581Y-13288150D01*
X6234581Y-13288150D02*
X6263152Y-13288150D01*
X6263152Y-13288150D02*
X6282200Y-13297674D01*
X6282200Y-13297674D02*
X6291724Y-13307198D01*
X6291724Y-13307198D02*
X6301247Y-13326246D01*
X6301247Y-13326246D02*
X6301247Y-13383388D01*
X6301247Y-13383388D02*
X6291724Y-13402436D01*
X6291724Y-13402436D02*
X6282200Y-13411960D01*
X6282200Y-13411960D02*
X6263152Y-13421484D01*
X6263152Y-13421484D02*
X6234581Y-13421484D01*
X6415533Y-13421484D02*
X6396486Y-13411960D01*
X6396486Y-13411960D02*
X6386962Y-13392912D01*
X6386962Y-13392912D02*
X6386962Y-13221484D01*
X6567914Y-13411960D02*
X6548867Y-13421484D01*
X6548867Y-13421484D02*
X6510771Y-13421484D01*
X6510771Y-13421484D02*
X6491724Y-13411960D01*
X6491724Y-13411960D02*
X6482200Y-13392912D01*
X6482200Y-13392912D02*
X6482200Y-13316722D01*
X6482200Y-13316722D02*
X6491724Y-13297674D01*
X6491724Y-13297674D02*
X6510771Y-13288150D01*
X6510771Y-13288150D02*
X6548867Y-13288150D01*
X6548867Y-13288150D02*
X6567914Y-13297674D01*
X6567914Y-13297674D02*
X6577438Y-13316722D01*
X6577438Y-13316722D02*
X6577438Y-13335769D01*
X6577438Y-13335769D02*
X6482200Y-13354817D01*
X6653628Y-13411960D02*
X6672676Y-13421484D01*
X6672676Y-13421484D02*
X6710771Y-13421484D01*
X6710771Y-13421484D02*
X6729819Y-13411960D01*
X6729819Y-13411960D02*
X6739343Y-13392912D01*
X6739343Y-13392912D02*
X6739343Y-13383388D01*
X6739343Y-13383388D02*
X6729819Y-13364341D01*
X6729819Y-13364341D02*
X6710771Y-13354817D01*
X6710771Y-13354817D02*
X6682200Y-13354817D01*
X6682200Y-13354817D02*
X6663152Y-13345293D01*
X6663152Y-13345293D02*
X6653628Y-13326246D01*
X6653628Y-13326246D02*
X6653628Y-13316722D01*
X6653628Y-13316722D02*
X6663152Y-13297674D01*
X6663152Y-13297674D02*
X6682200Y-13288150D01*
X6682200Y-13288150D02*
X6710771Y-13288150D01*
X6710771Y-13288150D02*
X6729819Y-13297674D01*
X6806009Y-13497674D02*
X6815533Y-13488150D01*
X6815533Y-13488150D02*
X6834581Y-13459579D01*
X6834581Y-13459579D02*
X6844105Y-13440531D01*
X6844105Y-13440531D02*
X6853628Y-13411960D01*
X6853628Y-13411960D02*
X6863152Y-13364341D01*
X6863152Y-13364341D02*
X6863152Y-13326246D01*
X6863152Y-13326246D02*
X6853628Y-13278627D01*
X6853628Y-13278627D02*
X6844105Y-13250055D01*
X6844105Y-13250055D02*
X6834581Y-13231008D01*
X6834581Y-13231008D02*
X6815533Y-13202436D01*
X6815533Y-13202436D02*
X6806009Y-13192912D01*
X7167914Y-13497674D02*
X7158390Y-13488150D01*
X7158390Y-13488150D02*
X7139343Y-13459579D01*
X7139343Y-13459579D02*
X7129819Y-13440531D01*
X7129819Y-13440531D02*
X7120295Y-13411960D01*
X7120295Y-13411960D02*
X7110771Y-13364341D01*
X7110771Y-13364341D02*
X7110771Y-13326246D01*
X7110771Y-13326246D02*
X7120295Y-13278627D01*
X7120295Y-13278627D02*
X7129819Y-13250055D01*
X7129819Y-13250055D02*
X7139343Y-13231008D01*
X7139343Y-13231008D02*
X7158390Y-13202436D01*
X7158390Y-13202436D02*
X7167914Y-13192912D01*
X7244105Y-13288150D02*
X7244105Y-13421484D01*
X7244105Y-13307198D02*
X7253628Y-13297674D01*
X7253628Y-13297674D02*
X7272676Y-13288150D01*
X7272676Y-13288150D02*
X7301248Y-13288150D01*
X7301248Y-13288150D02*
X7320295Y-13297674D01*
X7320295Y-13297674D02*
X7329819Y-13316722D01*
X7329819Y-13316722D02*
X7329819Y-13421484D01*
X7453628Y-13421484D02*
X7434581Y-13411960D01*
X7434581Y-13411960D02*
X7425057Y-13402436D01*
X7425057Y-13402436D02*
X7415533Y-13383388D01*
X7415533Y-13383388D02*
X7415533Y-13326246D01*
X7415533Y-13326246D02*
X7425057Y-13307198D01*
X7425057Y-13307198D02*
X7434581Y-13297674D01*
X7434581Y-13297674D02*
X7453628Y-13288150D01*
X7453628Y-13288150D02*
X7482200Y-13288150D01*
X7482200Y-13288150D02*
X7501248Y-13297674D01*
X7501248Y-13297674D02*
X7510771Y-13307198D01*
X7510771Y-13307198D02*
X7520295Y-13326246D01*
X7520295Y-13326246D02*
X7520295Y-13383388D01*
X7520295Y-13383388D02*
X7510771Y-13402436D01*
X7510771Y-13402436D02*
X7501248Y-13411960D01*
X7501248Y-13411960D02*
X7482200Y-13421484D01*
X7482200Y-13421484D02*
X7453628Y-13421484D01*
X7577438Y-13288150D02*
X7653628Y-13288150D01*
X7606009Y-13221484D02*
X7606009Y-13392912D01*
X7606009Y-13392912D02*
X7615533Y-13411960D01*
X7615533Y-13411960D02*
X7634581Y-13421484D01*
X7634581Y-13421484D02*
X7653628Y-13421484D01*
X7872676Y-13288150D02*
X7872676Y-13488150D01*
X7872676Y-13297674D02*
X7891724Y-13288150D01*
X7891724Y-13288150D02*
X7929819Y-13288150D01*
X7929819Y-13288150D02*
X7948867Y-13297674D01*
X7948867Y-13297674D02*
X7958390Y-13307198D01*
X7958390Y-13307198D02*
X7967914Y-13326246D01*
X7967914Y-13326246D02*
X7967914Y-13383388D01*
X7967914Y-13383388D02*
X7958390Y-13402436D01*
X7958390Y-13402436D02*
X7948867Y-13411960D01*
X7948867Y-13411960D02*
X7929819Y-13421484D01*
X7929819Y-13421484D02*
X7891724Y-13421484D01*
X7891724Y-13421484D02*
X7872676Y-13411960D01*
X8082200Y-13421484D02*
X8063152Y-13411960D01*
X8063152Y-13411960D02*
X8053629Y-13392912D01*
X8053629Y-13392912D02*
X8053629Y-13221484D01*
X8244105Y-13421484D02*
X8244105Y-13316722D01*
X8244105Y-13316722D02*
X8234581Y-13297674D01*
X8234581Y-13297674D02*
X8215533Y-13288150D01*
X8215533Y-13288150D02*
X8177438Y-13288150D01*
X8177438Y-13288150D02*
X8158390Y-13297674D01*
X8244105Y-13411960D02*
X8225057Y-13421484D01*
X8225057Y-13421484D02*
X8177438Y-13421484D01*
X8177438Y-13421484D02*
X8158390Y-13411960D01*
X8158390Y-13411960D02*
X8148867Y-13392912D01*
X8148867Y-13392912D02*
X8148867Y-13373865D01*
X8148867Y-13373865D02*
X8158390Y-13354817D01*
X8158390Y-13354817D02*
X8177438Y-13345293D01*
X8177438Y-13345293D02*
X8225057Y-13345293D01*
X8225057Y-13345293D02*
X8244105Y-13335769D01*
X8310771Y-13288150D02*
X8386962Y-13288150D01*
X8339343Y-13221484D02*
X8339343Y-13392912D01*
X8339343Y-13392912D02*
X8348867Y-13411960D01*
X8348867Y-13411960D02*
X8367914Y-13421484D01*
X8367914Y-13421484D02*
X8386962Y-13421484D01*
X8529819Y-13411960D02*
X8510772Y-13421484D01*
X8510772Y-13421484D02*
X8472676Y-13421484D01*
X8472676Y-13421484D02*
X8453629Y-13411960D01*
X8453629Y-13411960D02*
X8444105Y-13392912D01*
X8444105Y-13392912D02*
X8444105Y-13316722D01*
X8444105Y-13316722D02*
X8453629Y-13297674D01*
X8453629Y-13297674D02*
X8472676Y-13288150D01*
X8472676Y-13288150D02*
X8510772Y-13288150D01*
X8510772Y-13288150D02*
X8529819Y-13297674D01*
X8529819Y-13297674D02*
X8539343Y-13316722D01*
X8539343Y-13316722D02*
X8539343Y-13335769D01*
X8539343Y-13335769D02*
X8444105Y-13354817D01*
X8710772Y-13421484D02*
X8710772Y-13221484D01*
X8710772Y-13411960D02*
X8691724Y-13421484D01*
X8691724Y-13421484D02*
X8653629Y-13421484D01*
X8653629Y-13421484D02*
X8634581Y-13411960D01*
X8634581Y-13411960D02*
X8625057Y-13402436D01*
X8625057Y-13402436D02*
X8615533Y-13383388D01*
X8615533Y-13383388D02*
X8615533Y-13326246D01*
X8615533Y-13326246D02*
X8625057Y-13307198D01*
X8625057Y-13307198D02*
X8634581Y-13297674D01*
X8634581Y-13297674D02*
X8653629Y-13288150D01*
X8653629Y-13288150D02*
X8691724Y-13288150D01*
X8691724Y-13288150D02*
X8710772Y-13297674D01*
X8786962Y-13497674D02*
X8796486Y-13488150D01*
X8796486Y-13488150D02*
X8815533Y-13459579D01*
X8815533Y-13459579D02*
X8825057Y-13440531D01*
X8825057Y-13440531D02*
X8834581Y-13411960D01*
X8834581Y-13411960D02*
X8844105Y-13364341D01*
X8844105Y-13364341D02*
X8844105Y-13326246D01*
X8844105Y-13326246D02*
X8834581Y-13278627D01*
X8834581Y-13278627D02*
X8825057Y-13250055D01*
X8825057Y-13250055D02*
X8815533Y-13231008D01*
X8815533Y-13231008D02*
X8796486Y-13202436D01*
X8796486Y-13202436D02*
X8786962Y-13192912D01*
M02*
