%TF.GenerationSoftware,KiCad,Pcbnew,7.0.9*%
%TF.CreationDate,2023-12-30T16:17:41+00:00*%
%TF.ProjectId,keybird42,6b657962-6972-4643-9432-2e6b69636164,0.1*%
%TF.SameCoordinates,Original*%
%TF.FileFunction,Profile,NP*%
%FSLAX46Y46*%
G04 Gerber Fmt 4.6, Leading zero omitted, Abs format (unit mm)*
G04 Created by KiCad (PCBNEW 7.0.9) date 2023-12-30 16:17:41*
%MOMM*%
%LPD*%
G01*
G04 APERTURE LIST*
%TA.AperFunction,Profile*%
%ADD10C,0.100000*%
%TD*%
G04 APERTURE END LIST*
D10*
X164306250Y-111918750D02*
X166687500Y-114300000D01*
X431006612Y-23812520D02*
X376237500Y-23812500D01*
X431006612Y-104775000D02*
X438745681Y-97036019D01*
X292893750Y-111918750D02*
X369093750Y-111918750D01*
X438745681Y-97036019D02*
X438745681Y-31551589D01*
X26193772Y-23812520D02*
X18454703Y-31551589D01*
X371475000Y-19050000D02*
X85725000Y-19050000D01*
X80962500Y-104775000D02*
X88106250Y-111918750D01*
X290512500Y-114300000D02*
X292893750Y-111918750D01*
X80962500Y-23812500D02*
X26193772Y-23812520D01*
X376237500Y-23812500D02*
X371475000Y-19050000D01*
X376237500Y-104775000D02*
X431006612Y-104775000D01*
X26193772Y-104775088D02*
X80962500Y-104775000D01*
X369093750Y-111918750D02*
X376237500Y-104775000D01*
X431006612Y-23812520D02*
X438745681Y-31551589D01*
X85725000Y-19050000D02*
X80962500Y-23812500D01*
X88106250Y-111918750D02*
X164306250Y-111918750D01*
X26193772Y-104775088D02*
X18454703Y-97036019D01*
X18454703Y-31551589D02*
X18454703Y-97036019D01*
X166687500Y-114300000D02*
X290512500Y-114300000D01*
M02*
