%TF.GenerationSoftware,KiCad,Pcbnew,7.0.9*%
%TF.CreationDate,2023-12-30T16:17:41+00:00*%
%TF.ProjectId,keybird42,6b657962-6972-4643-9432-2e6b69636164,0.1*%
%TF.SameCoordinates,Original*%
%TF.FileFunction,Paste,Bot*%
%TF.FilePolarity,Positive*%
%FSLAX46Y46*%
G04 Gerber Fmt 4.6, Leading zero omitted, Abs format (unit mm)*
G04 Created by KiCad (PCBNEW 7.0.9) date 2023-12-30 16:17:41*
%MOMM*%
%LPD*%
G01*
G04 APERTURE LIST*
G04 Aperture macros list*
%AMRoundRect*
0 Rectangle with rounded corners*
0 $1 Rounding radius*
0 $2 $3 $4 $5 $6 $7 $8 $9 X,Y pos of 4 corners*
0 Add a 4 corners polygon primitive as box body*
4,1,4,$2,$3,$4,$5,$6,$7,$8,$9,$2,$3,0*
0 Add four circle primitives for the rounded corners*
1,1,$1+$1,$2,$3*
1,1,$1+$1,$4,$5*
1,1,$1+$1,$6,$7*
1,1,$1+$1,$8,$9*
0 Add four rect primitives between the rounded corners*
20,1,$1+$1,$2,$3,$4,$5,0*
20,1,$1+$1,$4,$5,$6,$7,0*
20,1,$1+$1,$6,$7,$8,$9,0*
20,1,$1+$1,$8,$9,$2,$3,0*%
G04 Aperture macros list end*
%ADD10RoundRect,0.250000X-1.025000X-1.000000X1.025000X-1.000000X1.025000X1.000000X-1.025000X1.000000X0*%
%ADD11RoundRect,0.350000X0.350000X-0.350000X0.350000X0.350000X-0.350000X0.350000X-0.350000X-0.350000X0*%
%ADD12RoundRect,0.254000X-0.381000X-1.651000X0.381000X-1.651000X0.381000X1.651000X-0.381000X1.651000X0*%
%ADD13RoundRect,0.254000X1.651000X-0.381000X1.651000X0.381000X-1.651000X0.381000X-1.651000X-0.381000X0*%
%ADD14RoundRect,0.254000X0.381000X1.651000X-0.381000X1.651000X-0.381000X-1.651000X0.381000X-1.651000X0*%
%ADD15R,0.300000X1.300000*%
%ADD16R,1.800000X2.200000*%
G04 APERTURE END LIST*
D10*
%TO.C,SW112*%
X88165000Y-26035000D03*
X101092000Y-23495000D03*
%TD*%
%TO.C,SW123*%
X164365000Y-26035000D03*
X177292000Y-23495000D03*
%TD*%
%TO.C,SW312*%
X95308750Y-64135000D03*
X108235750Y-61595000D03*
%TD*%
%TO.C,SW226*%
X326290000Y-45085000D03*
X339217000Y-42545000D03*
%TD*%
%TO.C,SW325*%
X273902500Y-64135000D03*
X286829500Y-61595000D03*
%TD*%
%TO.C,SW336*%
X342959044Y-64135056D03*
X355886044Y-61595056D03*
%TD*%
%TO.C,SW222*%
X116740000Y-45085000D03*
X129667000Y-42545000D03*
%TD*%
%TO.C,SW332*%
X140552500Y-64135000D03*
X153479500Y-61595000D03*
%TD*%
%TO.C,SW132*%
X126265000Y-26035000D03*
X139192000Y-23495000D03*
%TD*%
%TO.C,SW227*%
X397727500Y-49847500D03*
X410654500Y-47307500D03*
%TD*%
%TO.C,SW411*%
X26252500Y-92710000D03*
X39179500Y-90170000D03*
%TD*%
%TO.C,SW327*%
X397727500Y-73660000D03*
X410654500Y-71120000D03*
%TD*%
%TO.C,SW113*%
X145315000Y-26035000D03*
X158242000Y-23495000D03*
%TD*%
%TO.C,SW413*%
X150077500Y-83185000D03*
X163004500Y-80645000D03*
%TD*%
%TO.C,SW136*%
X354865304Y-26035024D03*
X367792304Y-23495024D03*
%TD*%
%TO.C,SW322*%
X121502500Y-64135000D03*
X134429500Y-61595000D03*
%TD*%
%TO.C,SW134*%
X240565208Y-26035024D03*
X253492208Y-23495024D03*
%TD*%
%TO.C,SW321*%
X45302500Y-73660000D03*
X58229500Y-71120000D03*
%TD*%
%TO.C,SW433*%
X188177500Y-83185000D03*
X201104500Y-80645000D03*
%TD*%
%TO.C,SW126*%
X335815000Y-26035000D03*
X348742000Y-23495000D03*
%TD*%
%TO.C,SW503*%
X140552500Y-102235000D03*
X153479500Y-99695000D03*
%TD*%
%TO.C,SW334*%
X235802704Y-64135056D03*
X248729704Y-61595056D03*
%TD*%
%TO.C,SW223*%
X173890000Y-45085000D03*
X186817000Y-42545000D03*
%TD*%
%TO.C,SW316*%
X312002768Y-64135056D03*
X324929768Y-61595056D03*
%TD*%
%TO.C,SW311*%
X26252500Y-73660000D03*
X39179500Y-71120000D03*
%TD*%
%TO.C,SW221*%
X45302500Y-49847500D03*
X58229500Y-47307500D03*
%TD*%
%TO.C,SW114*%
X202465000Y-26035000D03*
X215392000Y-23495000D03*
%TD*%
%TO.C,SW432*%
X131027500Y-83185000D03*
X143954500Y-80645000D03*
%TD*%
%TO.C,SW502*%
X114358750Y-102235000D03*
X127285750Y-99695000D03*
%TD*%
%TO.C,SW412*%
X100071250Y-83185000D03*
X112998250Y-80645000D03*
%TD*%
%TO.C,SW216*%
X307240264Y-45085040D03*
X320167264Y-42545040D03*
%TD*%
%TO.C,SW135*%
X297715256Y-26035024D03*
X310642256Y-23495024D03*
%TD*%
%TO.C,SW314*%
X197702500Y-64135000D03*
X210629500Y-61595000D03*
%TD*%
%TO.C,SW414*%
X207227680Y-83185072D03*
X220154680Y-80645072D03*
%TD*%
%TO.C,SW504*%
X221515000Y-102235000D03*
X234442000Y-99695000D03*
%TD*%
%TO.C,SW232*%
X135790000Y-45085000D03*
X148717000Y-42545000D03*
%TD*%
%TO.C,SW424*%
X226277712Y-83185000D03*
X239204712Y-80645000D03*
%TD*%
%TO.C,SW213*%
X154840000Y-45085000D03*
X167767000Y-42545000D03*
%TD*%
%TO.C,SW337*%
X416777856Y-73660064D03*
X429704856Y-71120064D03*
%TD*%
%TO.C,SW506*%
X328671250Y-102235000D03*
X341598250Y-99695000D03*
%TD*%
%TO.C,SW236*%
X350102800Y-45085040D03*
X363029800Y-42545040D03*
%TD*%
%TO.C,SW225*%
X269140000Y-45085000D03*
X282067000Y-42545000D03*
%TD*%
%TO.C,SW423*%
X169127500Y-83185000D03*
X182054500Y-80645000D03*
%TD*%
%TO.C,SW415*%
X264377728Y-83185000D03*
X277304728Y-80645000D03*
%TD*%
%TO.C,SW133*%
X183415000Y-26035000D03*
X196342000Y-23495000D03*
%TD*%
%TO.C,SW115*%
X259615224Y-26035024D03*
X272542224Y-23495024D03*
%TD*%
%TO.C,SW501*%
X90546250Y-102235000D03*
X103473250Y-99695000D03*
%TD*%
%TO.C,SW317*%
X378677824Y-73660064D03*
X391604824Y-71120064D03*
%TD*%
%TO.C,SW335*%
X292952752Y-64135056D03*
X305879752Y-61595056D03*
%TD*%
%TO.C,SW116*%
X316765272Y-26035024D03*
X329692272Y-23495024D03*
%TD*%
%TO.C,SW507*%
X352483750Y-102235000D03*
X365410750Y-99695000D03*
%TD*%
%TO.C,SW127*%
X397727500Y-30797500D03*
X410654500Y-28257500D03*
%TD*%
%TO.C,SW231*%
X64352500Y-49847500D03*
X77279500Y-47307500D03*
%TD*%
%TO.C,SW421*%
X45302500Y-92710000D03*
X58229500Y-90170000D03*
%TD*%
%TO.C,SW214*%
X211990000Y-45085000D03*
X224917000Y-42545000D03*
%TD*%
%TO.C,SW505*%
X302477500Y-102235000D03*
X315404500Y-99695000D03*
%TD*%
%TO.C,SW417*%
X378677824Y-92710000D03*
X391604824Y-90170000D03*
%TD*%
%TO.C,SW125*%
X278665000Y-26035000D03*
X291592000Y-23495000D03*
%TD*%
%TO.C,SW437*%
X416777856Y-92710080D03*
X429704856Y-90170080D03*
%TD*%
%TO.C,SW111*%
X26252500Y-30797500D03*
X39179500Y-28257500D03*
%TD*%
%TO.C,SW217*%
X378677824Y-49847500D03*
X391604824Y-47307500D03*
%TD*%
%TO.C,SW121*%
X45302500Y-30797500D03*
X58229500Y-28257500D03*
%TD*%
%TO.C,SW416*%
X302477760Y-83185000D03*
X315404760Y-80645000D03*
%TD*%
%TO.C,SW212*%
X92927500Y-45085000D03*
X105854500Y-42545000D03*
%TD*%
%TO.C,SW234*%
X231040000Y-45085000D03*
X243967000Y-42545000D03*
%TD*%
%TO.C,SW117*%
X378677824Y-30797500D03*
X391604824Y-28257500D03*
%TD*%
%TO.C,SW137*%
X416777856Y-30797528D03*
X429704856Y-28257528D03*
%TD*%
%TO.C,SW233*%
X192940000Y-45085000D03*
X205867000Y-42545000D03*
%TD*%
%TO.C,SW211*%
X26252500Y-49847500D03*
X39179500Y-47307500D03*
%TD*%
%TO.C,SW315*%
X254852720Y-64135056D03*
X267779720Y-61595056D03*
%TD*%
%TO.C,SW425*%
X283427500Y-83185000D03*
X296354500Y-80645000D03*
%TD*%
%TO.C,SW333*%
X178652500Y-64135000D03*
X191579500Y-61595000D03*
%TD*%
%TO.C,SW235*%
X288190248Y-45085040D03*
X301117248Y-42545040D03*
%TD*%
%TO.C,SW323*%
X159602500Y-64135000D03*
X172529500Y-61595000D03*
%TD*%
%TO.C,SW122*%
X107215000Y-26035000D03*
X120142000Y-23495000D03*
%TD*%
%TO.C,SW436*%
X352484052Y-83185072D03*
X365411052Y-80645072D03*
%TD*%
%TO.C,SW427*%
X397727500Y-92710000D03*
X410654500Y-90170000D03*
%TD*%
%TO.C,SW331*%
X64352500Y-73660000D03*
X77279500Y-71120000D03*
%TD*%
%TO.C,SW237*%
X416777856Y-49847544D03*
X429704856Y-47307544D03*
%TD*%
%TO.C,SW434*%
X245327712Y-83185000D03*
X258254712Y-80645000D03*
%TD*%
%TO.C,SW426*%
X328671250Y-83185000D03*
X341598250Y-80645000D03*
%TD*%
%TO.C,SW215*%
X250090216Y-45085040D03*
X263017216Y-42545040D03*
%TD*%
%TO.C,SW431*%
X64352500Y-92710000D03*
X77279500Y-90170000D03*
%TD*%
%TO.C,SW124*%
X221515192Y-26035024D03*
X234442192Y-23495024D03*
%TD*%
%TO.C,SW131*%
X64352500Y-30797500D03*
X77279500Y-28257500D03*
%TD*%
%TO.C,SW324*%
X216752688Y-64135056D03*
X229679688Y-61595056D03*
%TD*%
D11*
%TO.C,D324*%
X232172070Y-67284430D03*
X232172070Y-63684430D03*
%TD*%
%TO.C,D504*%
X236934375Y-105384375D03*
X236934375Y-101784375D03*
%TD*%
%TO.C,D134*%
X255984279Y-29184375D03*
X255984279Y-25584375D03*
%TD*%
%TO.C,D215*%
X265509291Y-48234375D03*
X265509291Y-44634375D03*
%TD*%
%TO.C,D427*%
X413146503Y-95859347D03*
X413146503Y-92259347D03*
%TD*%
%TO.C,D335*%
X308372134Y-67284430D03*
X308372134Y-63684430D03*
%TD*%
%TO.C,D424*%
X241696845Y-86334347D03*
X241696845Y-82734347D03*
%TD*%
%TO.C,D412*%
X115490383Y-86334347D03*
X115490383Y-82734347D03*
%TD*%
%TO.C,D507*%
X367903125Y-105384375D03*
X367903125Y-101784375D03*
%TD*%
%TO.C,D414*%
X222647062Y-86334446D03*
X222647062Y-82734446D03*
%TD*%
%TO.C,D317*%
X394096843Y-76809411D03*
X394096843Y-73209411D03*
%TD*%
%TO.C,D237*%
X432196875Y-52996891D03*
X432196875Y-49396891D03*
%TD*%
%TO.C,D436*%
X367903434Y-86334446D03*
X367903434Y-82734446D03*
%TD*%
%TO.C,D421*%
X60721875Y-95859411D03*
X60721875Y-92259411D03*
%TD*%
%TO.C,D503*%
X155971875Y-105384375D03*
X155971875Y-101784375D03*
%TD*%
%TO.C,D124*%
X236934263Y-29184375D03*
X236934263Y-25584375D03*
%TD*%
%TO.C,D115*%
X275034295Y-29184375D03*
X275034295Y-25584375D03*
%TD*%
%TO.C,D336*%
X358378426Y-67284430D03*
X358378426Y-63684430D03*
%TD*%
%TO.C,D123*%
X179784071Y-29184351D03*
X179784071Y-25584351D03*
%TD*%
%TO.C,D226*%
X341709075Y-48234335D03*
X341709075Y-44634335D03*
%TD*%
%TO.C,D235*%
X303609323Y-48234375D03*
X303609323Y-44634375D03*
%TD*%
%TO.C,D505*%
X317896875Y-105384375D03*
X317896875Y-101784375D03*
%TD*%
%TO.C,D325*%
X289321875Y-67284375D03*
X289321875Y-63684375D03*
%TD*%
%TO.C,D425*%
X298846633Y-86334347D03*
X298846633Y-82734347D03*
%TD*%
%TO.C,D323*%
X175021875Y-67284375D03*
X175021875Y-63684375D03*
%TD*%
%TO.C,D314*%
X213121875Y-67284375D03*
X213121875Y-63684375D03*
%TD*%
%TO.C,D331*%
X79771875Y-76809411D03*
X79771875Y-73209411D03*
%TD*%
%TO.C,D334*%
X251222079Y-67284431D03*
X251222079Y-63684431D03*
%TD*%
%TO.C,D337*%
X432197238Y-76809438D03*
X432197238Y-73209438D03*
%TD*%
%TO.C,D126*%
X351234071Y-29184351D03*
X351234071Y-25584351D03*
%TD*%
%TO.C,D333*%
X194071875Y-67284375D03*
X194071875Y-63684375D03*
%TD*%
%TO.C,D411*%
X41671875Y-95859411D03*
X41671875Y-92259411D03*
%TD*%
%TO.C,D214*%
X227409075Y-48234335D03*
X227409075Y-44634335D03*
%TD*%
%TO.C,D221*%
X60721875Y-52996875D03*
X60721875Y-49396875D03*
%TD*%
%TO.C,D432*%
X146446633Y-86334347D03*
X146446633Y-82734347D03*
%TD*%
%TO.C,D415*%
X279796861Y-86334347D03*
X279796861Y-82734347D03*
%TD*%
%TO.C,D212*%
X108346575Y-48234335D03*
X108346575Y-44634335D03*
%TD*%
%TO.C,D135*%
X313134327Y-29184375D03*
X313134327Y-25584375D03*
%TD*%
%TO.C,D416*%
X317896893Y-86334347D03*
X317896893Y-82734347D03*
%TD*%
%TO.C,D233*%
X208359075Y-48234335D03*
X208359075Y-44634335D03*
%TD*%
%TO.C,D321*%
X60721875Y-76809411D03*
X60721875Y-73209411D03*
%TD*%
%TO.C,D332*%
X155971875Y-67284375D03*
X155971875Y-63684375D03*
%TD*%
%TO.C,D216*%
X322659339Y-48234375D03*
X322659339Y-44634375D03*
%TD*%
%TO.C,D133*%
X198834071Y-29184351D03*
X198834071Y-25584351D03*
%TD*%
%TO.C,D136*%
X370284375Y-29184375D03*
X370284375Y-25584375D03*
%TD*%
%TO.C,D312*%
X110728125Y-67284375D03*
X110728125Y-63684375D03*
%TD*%
%TO.C,D431*%
X79771875Y-95859411D03*
X79771875Y-92259411D03*
%TD*%
%TO.C,D213*%
X170259075Y-48234335D03*
X170259075Y-44634335D03*
%TD*%
%TO.C,D234*%
X246459075Y-48234335D03*
X246459075Y-44634335D03*
%TD*%
%TO.C,D231*%
X79771875Y-52996875D03*
X79771875Y-49396875D03*
%TD*%
%TO.C,D227*%
X413146519Y-52996847D03*
X413146519Y-49396847D03*
%TD*%
%TO.C,D423*%
X184546633Y-86334347D03*
X184546633Y-82734347D03*
%TD*%
%TO.C,D127*%
X413146519Y-33946847D03*
X413146519Y-30346847D03*
%TD*%
%TO.C,D225*%
X284559075Y-48234335D03*
X284559075Y-44634335D03*
%TD*%
%TO.C,D502*%
X129778125Y-105384375D03*
X129778125Y-101784375D03*
%TD*%
%TO.C,D311*%
X41671875Y-76809411D03*
X41671875Y-73209411D03*
%TD*%
%TO.C,D121*%
X60721875Y-33946875D03*
X60721875Y-30346875D03*
%TD*%
%TO.C,D117*%
X394096843Y-33946847D03*
X394096843Y-30346847D03*
%TD*%
%TO.C,D232*%
X151209075Y-48234335D03*
X151209075Y-44634335D03*
%TD*%
%TO.C,D217*%
X394096843Y-52996847D03*
X394096843Y-49396847D03*
%TD*%
%TO.C,D211*%
X41671910Y-52996918D03*
X41671910Y-49396918D03*
%TD*%
%TO.C,D113*%
X160734071Y-29184351D03*
X160734071Y-25584351D03*
%TD*%
%TO.C,D223*%
X189309075Y-48234335D03*
X189309075Y-44634335D03*
%TD*%
%TO.C,D426*%
X344090383Y-86334347D03*
X344090383Y-82734347D03*
%TD*%
%TO.C,D434*%
X260746845Y-86334347D03*
X260746845Y-82734347D03*
%TD*%
%TO.C,D437*%
X432197238Y-95859454D03*
X432197238Y-92259454D03*
%TD*%
%TO.C,D506*%
X344090625Y-105384375D03*
X344090625Y-101784375D03*
%TD*%
%TO.C,D236*%
X365521875Y-48234375D03*
X365521875Y-44634375D03*
%TD*%
%TO.C,D111*%
X41671875Y-33946875D03*
X41671875Y-30346875D03*
%TD*%
%TO.C,D112*%
X103584071Y-29184351D03*
X103584071Y-25584351D03*
%TD*%
%TO.C,D132*%
X141684071Y-29184351D03*
X141684071Y-25584351D03*
%TD*%
%TO.C,D316*%
X327422143Y-67284431D03*
X327422143Y-63684431D03*
%TD*%
%TO.C,D131*%
X79771875Y-33946875D03*
X79771875Y-30346875D03*
%TD*%
%TO.C,D433*%
X203596633Y-86334347D03*
X203596633Y-82734347D03*
%TD*%
%TO.C,D501*%
X105965625Y-105384375D03*
X105965625Y-101784375D03*
%TD*%
%TO.C,D137*%
X432196875Y-33946875D03*
X432196875Y-30346875D03*
%TD*%
%TO.C,D322*%
X136921875Y-67284375D03*
X136921875Y-63684375D03*
%TD*%
%TO.C,D116*%
X332184343Y-29184375D03*
X332184343Y-25584375D03*
%TD*%
%TO.C,D125*%
X294084071Y-29184351D03*
X294084071Y-25584351D03*
%TD*%
%TO.C,D222*%
X132159075Y-48234335D03*
X132159075Y-44634335D03*
%TD*%
%TO.C,D417*%
X394096487Y-95859347D03*
X394096487Y-92259347D03*
%TD*%
%TO.C,D327*%
X413146519Y-76809347D03*
X413146519Y-73209347D03*
%TD*%
%TO.C,D315*%
X270272095Y-67284431D03*
X270272095Y-63684431D03*
%TD*%
%TO.C,D122*%
X122634071Y-29184351D03*
X122634071Y-25584351D03*
%TD*%
%TO.C,D413*%
X165496633Y-86334347D03*
X165496633Y-82734347D03*
%TD*%
D12*
%TO.C,U1*%
X251777500Y-95329462D03*
X254317500Y-95329462D03*
X256857500Y-95329462D03*
X259397500Y-95329462D03*
X261937500Y-95329462D03*
X264477500Y-95329462D03*
X267017500Y-95329462D03*
X269557500Y-95329462D03*
X272097500Y-95329462D03*
D13*
X272732500Y-98504462D03*
X272732500Y-101044462D03*
X272732500Y-103584462D03*
X272732500Y-106124462D03*
X272732500Y-108664462D03*
D14*
X272097500Y-111839462D03*
X269557500Y-111839462D03*
X267017500Y-111839462D03*
X264477500Y-111839462D03*
X261937500Y-111839462D03*
X259397500Y-111839462D03*
X256857500Y-111839462D03*
X254317500Y-111839462D03*
X251777500Y-111839462D03*
%TD*%
D11*
%TO.C,D114*%
X217884071Y-29184351D03*
X217884071Y-25584351D03*
%TD*%
D15*
%TO.C,J1*%
X247424784Y-105434462D03*
X247924784Y-105434462D03*
X248424784Y-105434462D03*
X248924784Y-105434462D03*
X249424784Y-105434462D03*
X249924784Y-105434462D03*
X250424784Y-105434462D03*
X250924784Y-105434462D03*
X251424784Y-105434462D03*
X251924784Y-105434462D03*
X252424784Y-105434462D03*
X252924784Y-105434462D03*
X253424784Y-105434462D03*
X253924784Y-105434462D03*
X254424784Y-105434462D03*
X254924784Y-105434462D03*
X255424784Y-105434462D03*
X255924784Y-105434462D03*
X256424784Y-105434462D03*
X256924784Y-105434462D03*
X257424784Y-105434462D03*
X257924784Y-105434462D03*
X258424784Y-105434462D03*
X258924784Y-105434462D03*
X259424784Y-105434462D03*
X259924784Y-105434462D03*
X260424784Y-105434462D03*
X260924784Y-105434462D03*
X261424784Y-105434462D03*
X261924784Y-105434462D03*
X262424784Y-105434462D03*
X262924784Y-105434462D03*
X263424784Y-105434462D03*
X263924784Y-105434462D03*
X264424784Y-105434462D03*
X264924784Y-105434462D03*
X265424784Y-105434462D03*
X265924784Y-105434462D03*
X266424784Y-105434462D03*
X266924784Y-105434462D03*
D16*
X245524784Y-102184462D03*
X268824784Y-102184462D03*
%TD*%
M02*
