%TF.GenerationSoftware,KiCad,Pcbnew,7.0.9*%
%TF.CreationDate,2023-12-30T16:17:37+00:00*%
%TF.ProjectId,keybird42,6b657962-6972-4643-9432-2e6b69636164,0.1*%
%TF.SameCoordinates,Original*%
%TF.FileFunction,Drillmap*%
%TF.FilePolarity,Positive*%
%FSLAX45Y45*%
G04 Gerber Fmt 4.5, Leading zero omitted, Abs format (unit mm)*
G04 Created by KiCad (PCBNEW 7.0.9) date 2023-12-30 16:17:37*
%MOMM*%
%LPD*%
G01*
G04 APERTURE LIST*
%ADD10C,0.100000*%
%ADD11C,0.200000*%
G04 APERTURE END LIST*
D10*
X16430625Y-11191875D02*
X16668750Y-11430000D01*
X43100661Y-2381252D02*
X37623750Y-2381250D01*
X43100661Y-10477500D02*
X43874568Y-9703602D01*
X29289375Y-11191875D02*
X36909375Y-11191875D01*
X43874568Y-9703602D02*
X43874568Y-3155159D01*
X2619377Y-2381252D02*
X1845470Y-3155159D01*
X37147500Y-1905000D02*
X8572500Y-1905000D01*
X8096250Y-10477500D02*
X8810625Y-11191875D01*
X29051250Y-11430000D02*
X29289375Y-11191875D01*
X8096250Y-2381250D02*
X2619377Y-2381252D01*
X37623750Y-2381250D02*
X37147500Y-1905000D01*
X37623750Y-10477500D02*
X43100661Y-10477500D01*
X2619377Y-10477509D02*
X8096250Y-10477500D01*
X36909375Y-11191875D02*
X37623750Y-10477500D01*
X43100661Y-2381252D02*
X43874568Y-3155159D01*
X8572500Y-1905000D02*
X8096250Y-2381250D01*
X8810625Y-11191875D02*
X16430625Y-11191875D01*
X2619377Y-10477509D02*
X1845470Y-9703602D01*
X1845470Y-3155159D02*
X1845470Y-9703602D01*
X16668750Y-11430000D02*
X29051250Y-11430000D01*
D11*
D10*
X2600327Y-3314703D02*
X2638427Y-3352803D01*
X2638427Y-3314703D02*
X2600327Y-3352803D01*
X2600327Y-3552828D02*
X2638427Y-3590928D01*
X2638427Y-3552828D02*
X2600327Y-3590928D01*
X2600327Y-5219704D02*
X2638427Y-5257804D01*
X2638427Y-5219704D02*
X2600327Y-5257804D01*
X2600327Y-7600956D02*
X2638427Y-7639056D01*
X2638427Y-7600956D02*
X2600327Y-7639056D01*
X2600327Y-9505958D02*
X2638427Y-9544058D01*
X2638427Y-9505958D02*
X2600327Y-9544058D01*
X4058837Y-3671884D02*
X4096937Y-3709984D01*
X4096937Y-3671884D02*
X4058837Y-3709984D01*
X4058837Y-5576892D02*
X4096937Y-5614992D01*
X4096937Y-5576892D02*
X4058837Y-5614992D01*
X4058837Y-7958131D02*
X4096937Y-7996231D01*
X4096937Y-7958131D02*
X4058837Y-7996231D01*
X4058837Y-9803598D02*
X4096937Y-9841698D01*
X4096937Y-9803598D02*
X4058837Y-9841698D01*
X4148141Y-3136109D02*
X4186241Y-3174209D01*
X4186241Y-3136109D02*
X4148141Y-3174209D01*
X4148141Y-3671891D02*
X4186241Y-3709991D01*
X4186241Y-3671891D02*
X4148141Y-3709991D01*
X4148141Y-5041111D02*
X4186241Y-5079211D01*
X4186241Y-5041111D02*
X4148141Y-5079211D01*
X4148141Y-5576892D02*
X4186241Y-5614992D01*
X4186241Y-5576892D02*
X4148141Y-5614992D01*
X4148141Y-7422362D02*
X4186241Y-7460462D01*
X4186241Y-7422362D02*
X4148141Y-7460462D01*
X4148141Y-7958144D02*
X4186241Y-7996244D01*
X4186241Y-7958144D02*
X4148141Y-7996244D01*
X4148141Y-9327364D02*
X4186241Y-9365464D01*
X4186241Y-9327364D02*
X4148141Y-9365464D01*
X4148141Y-9803615D02*
X4186241Y-9841715D01*
X4186241Y-9803615D02*
X4148141Y-9841715D01*
X4505329Y-3314703D02*
X4543429Y-3352803D01*
X4543429Y-3314703D02*
X4505329Y-3352803D01*
X4505329Y-3552828D02*
X4543429Y-3590928D01*
X4543429Y-3552828D02*
X4505329Y-3590928D01*
X4505329Y-5219704D02*
X4543429Y-5257804D01*
X4543429Y-5219704D02*
X4505329Y-5257804D01*
X4505329Y-7600956D02*
X4543429Y-7639056D01*
X4543429Y-7600956D02*
X4505329Y-7639056D01*
X4505329Y-9505958D02*
X4543429Y-9544058D01*
X4543429Y-9505958D02*
X4505329Y-9544058D01*
X5963836Y-3731422D02*
X6001936Y-3769522D01*
X6001936Y-3731422D02*
X5963836Y-3769522D01*
X5963836Y-5636423D02*
X6001936Y-5674523D01*
X6001936Y-5636423D02*
X5963836Y-5674523D01*
X5963836Y-8017662D02*
X6001936Y-8055762D01*
X6001936Y-8017662D02*
X5963836Y-8055762D01*
X5963836Y-9863146D02*
X6001936Y-9901246D01*
X6001936Y-9863146D02*
X5963836Y-9901246D01*
X6053143Y-3195640D02*
X6091243Y-3233740D01*
X6091243Y-3195640D02*
X6053143Y-3233740D01*
X6053143Y-3731422D02*
X6091243Y-3769522D01*
X6091243Y-3731422D02*
X6053143Y-3769522D01*
X6053143Y-5100642D02*
X6091243Y-5138742D01*
X6091243Y-5100642D02*
X6053143Y-5138742D01*
X6053143Y-5636423D02*
X6091243Y-5674523D01*
X6091243Y-5636423D02*
X6053143Y-5674523D01*
X6053143Y-7481894D02*
X6091243Y-7519994D01*
X6091243Y-7481894D02*
X6053143Y-7519994D01*
X6053143Y-8017675D02*
X6091243Y-8055775D01*
X6091243Y-8017675D02*
X6053143Y-8055775D01*
X6053143Y-9386895D02*
X6091243Y-9424995D01*
X6091243Y-9386895D02*
X6053143Y-9424995D01*
X6053143Y-9863146D02*
X6091243Y-9901246D01*
X6091243Y-9863146D02*
X6053143Y-9901246D01*
X6410330Y-3314703D02*
X6448430Y-3352803D01*
X6448430Y-3314703D02*
X6410330Y-3352803D01*
X6410330Y-3552828D02*
X6448430Y-3590928D01*
X6448430Y-3552828D02*
X6410330Y-3590928D01*
X6410330Y-5219704D02*
X6448430Y-5257804D01*
X6448430Y-5219704D02*
X6410330Y-5257804D01*
X6410330Y-7600956D02*
X6448430Y-7639056D01*
X6448430Y-7600956D02*
X6410330Y-7639056D01*
X6410330Y-9505958D02*
X6448430Y-9544058D01*
X6448430Y-9505958D02*
X6410330Y-9544058D01*
X7868834Y-3790953D02*
X7906934Y-3829053D01*
X7906934Y-3790953D02*
X7868834Y-3829053D01*
X7868834Y-5695955D02*
X7906934Y-5734055D01*
X7906934Y-5695955D02*
X7868834Y-5734055D01*
X7868834Y-8077207D02*
X7906934Y-8115307D01*
X7906934Y-8077207D02*
X7868834Y-8115307D01*
X7868834Y-9922660D02*
X7906934Y-9960760D01*
X7906934Y-9922660D02*
X7868834Y-9960760D01*
X7958137Y-5160173D02*
X7996237Y-5198273D01*
X7996237Y-5160173D02*
X7958137Y-5198273D01*
X7958144Y-3255171D02*
X7996244Y-3293271D01*
X7996244Y-3255171D02*
X7958144Y-3293271D01*
X7958144Y-3790953D02*
X7996244Y-3829053D01*
X7996244Y-3790953D02*
X7958144Y-3829053D01*
X7958144Y-5695955D02*
X7996244Y-5734055D01*
X7996244Y-5695955D02*
X7958144Y-5734055D01*
X7958144Y-7541425D02*
X7996244Y-7579525D01*
X7996244Y-7541425D02*
X7958144Y-7579525D01*
X7958144Y-8077207D02*
X7996244Y-8115307D01*
X7996244Y-8077207D02*
X7958144Y-8115307D01*
X7958144Y-9446427D02*
X7996244Y-9484527D01*
X7996244Y-9446427D02*
X7958144Y-9484527D01*
X7958144Y-9922677D02*
X7996244Y-9960777D01*
X7996244Y-9922677D02*
X7958144Y-9960777D01*
X8702271Y-4981571D02*
X8740371Y-5019671D01*
X8740371Y-4981571D02*
X8702271Y-5019671D01*
X8791582Y-2838452D02*
X8829682Y-2876552D01*
X8829682Y-2838452D02*
X8791582Y-2876552D01*
X8791582Y-4981579D02*
X8829682Y-5019679D01*
X8829682Y-4981579D02*
X8791582Y-5019679D01*
X9029708Y-3076578D02*
X9067808Y-3114678D01*
X9067808Y-3076578D02*
X9029708Y-3114678D01*
X9029708Y-10458459D02*
X9067808Y-10496559D01*
X9067808Y-10458459D02*
X9029708Y-10496559D01*
X9267833Y-4743454D02*
X9305933Y-4781554D01*
X9305933Y-4743454D02*
X9267833Y-4781554D01*
X9267833Y-4981579D02*
X9305933Y-5019679D01*
X9305933Y-4981579D02*
X9267833Y-5019679D01*
X9505958Y-6648456D02*
X9544058Y-6686556D01*
X9544058Y-6648456D02*
X9505958Y-6686556D01*
X9982208Y-8553457D02*
X10020308Y-8591557D01*
X10020308Y-8553457D02*
X9982208Y-8591557D01*
X10339396Y-2659859D02*
X10377496Y-2697959D01*
X10377496Y-2659859D02*
X10339396Y-2697959D01*
X10339396Y-3195640D02*
X10377496Y-3233740D01*
X10377496Y-3195640D02*
X10339396Y-3233740D01*
X10488207Y-9029692D02*
X10526307Y-9067792D01*
X10526307Y-9029692D02*
X10488207Y-9067792D01*
X10577521Y-9029708D02*
X10615621Y-9067808D01*
X10615621Y-9029708D02*
X10577521Y-9067808D01*
X10577521Y-10339396D02*
X10615621Y-10377496D01*
X10615621Y-10339396D02*
X10577521Y-10377496D01*
X10696584Y-2838452D02*
X10734684Y-2876552D01*
X10734684Y-2838452D02*
X10696584Y-2876552D01*
X10815647Y-4564860D02*
X10853747Y-4602960D01*
X10853747Y-4564860D02*
X10815647Y-4602960D01*
X10815647Y-5100642D02*
X10853747Y-5138742D01*
X10853747Y-5100642D02*
X10815647Y-5138742D01*
X11053772Y-6469862D02*
X11091872Y-6507962D01*
X11091872Y-6469862D02*
X11053772Y-6507962D01*
X11053772Y-7005643D02*
X11091872Y-7043743D01*
X11091872Y-7005643D02*
X11053772Y-7043743D01*
X11410960Y-4981579D02*
X11449060Y-5019679D01*
X11449060Y-4981579D02*
X11410960Y-5019679D01*
X11410960Y-10458459D02*
X11449060Y-10496559D01*
X11449060Y-10458459D02*
X11410960Y-10496559D01*
X11530022Y-8374863D02*
X11568122Y-8412963D01*
X11568122Y-8374863D02*
X11530022Y-8412963D01*
X11530022Y-8851114D02*
X11568122Y-8889214D01*
X11568122Y-8851114D02*
X11530022Y-8889214D01*
X11649085Y-4743454D02*
X11687185Y-4781554D01*
X11687185Y-4743454D02*
X11649085Y-4781554D01*
X11649085Y-4981579D02*
X11687185Y-5019679D01*
X11687185Y-4981579D02*
X11649085Y-5019679D01*
X12125335Y-6648456D02*
X12163435Y-6686556D01*
X12163435Y-6648456D02*
X12125335Y-6686556D01*
X12244398Y-2719390D02*
X12282498Y-2757490D01*
X12282498Y-2719390D02*
X12244398Y-2757490D01*
X12244398Y-3255171D02*
X12282498Y-3293271D01*
X12282498Y-3255171D02*
X12244398Y-3293271D01*
X12601586Y-2838452D02*
X12639686Y-2876552D01*
X12639686Y-2838452D02*
X12601586Y-2876552D01*
X12958773Y-9029708D02*
X12996873Y-9067808D01*
X12996873Y-9029708D02*
X12958773Y-9067808D01*
X12958773Y-10339396D02*
X12996873Y-10377496D01*
X12996873Y-10339396D02*
X12958773Y-10377496D01*
X13077836Y-8553457D02*
X13115936Y-8591557D01*
X13115936Y-8553457D02*
X13077836Y-8591557D01*
X13196899Y-4624391D02*
X13234999Y-4662491D01*
X13234999Y-4624391D02*
X13196899Y-4662491D01*
X13196899Y-5160173D02*
X13234999Y-5198273D01*
X13234999Y-5160173D02*
X13196899Y-5198273D01*
X13554086Y-4743454D02*
X13592186Y-4781554D01*
X13592186Y-4743454D02*
X13554086Y-4781554D01*
X13554086Y-4981579D02*
X13592186Y-5019679D01*
X13592186Y-4981579D02*
X13554086Y-5019679D01*
X13673149Y-6529393D02*
X13711249Y-6567493D01*
X13711249Y-6529393D02*
X13673149Y-6567493D01*
X13673149Y-7065175D02*
X13711249Y-7103275D01*
X13711249Y-7065175D02*
X13673149Y-7103275D01*
X14030337Y-6648456D02*
X14068437Y-6686556D01*
X14068437Y-6648456D02*
X14030337Y-6686556D01*
X14030337Y-10458459D02*
X14068437Y-10496559D01*
X14068437Y-10458459D02*
X14030337Y-10496559D01*
X14149399Y-2778921D02*
X14187499Y-2817021D01*
X14187499Y-2778921D02*
X14149399Y-2817021D01*
X14149399Y-3314703D02*
X14187499Y-3352803D01*
X14187499Y-3314703D02*
X14149399Y-3352803D01*
X14506587Y-2838452D02*
X14544687Y-2876552D01*
X14544687Y-2838452D02*
X14506587Y-2876552D01*
X14625650Y-8434395D02*
X14663750Y-8472495D01*
X14663750Y-8434395D02*
X14625650Y-8472495D01*
X14625650Y-8970176D02*
X14663750Y-9008276D01*
X14663750Y-8970176D02*
X14625650Y-9008276D01*
X14893516Y-6886569D02*
X14931616Y-6924669D01*
X14931616Y-6886569D02*
X14893516Y-6924669D01*
X14982838Y-6886581D02*
X15020938Y-6924681D01*
X15020938Y-6886581D02*
X14982838Y-6924681D01*
X14982838Y-8553457D02*
X15020938Y-8591557D01*
X15020938Y-8553457D02*
X14982838Y-8591557D01*
X15101900Y-4683923D02*
X15140000Y-4722023D01*
X15140000Y-4683923D02*
X15101900Y-4722023D01*
X15101900Y-5219704D02*
X15140000Y-5257804D01*
X15140000Y-5219704D02*
X15101900Y-5257804D01*
X15459088Y-4743454D02*
X15497188Y-4781554D01*
X15497188Y-4743454D02*
X15459088Y-4781554D01*
X15578151Y-6588924D02*
X15616251Y-6627024D01*
X15616251Y-6588924D02*
X15578151Y-6627024D01*
X15578151Y-7124706D02*
X15616251Y-7162806D01*
X15616251Y-7124706D02*
X15578151Y-7162806D01*
X15578151Y-9029708D02*
X15616251Y-9067808D01*
X15616251Y-9029708D02*
X15578151Y-9067808D01*
X15578151Y-10339396D02*
X15616251Y-10377496D01*
X15616251Y-10339396D02*
X15578151Y-10377496D01*
X15935338Y-6648456D02*
X15973438Y-6686556D01*
X15973438Y-6648456D02*
X15935338Y-6686556D01*
X15935338Y-6886581D02*
X15973438Y-6924681D01*
X15973438Y-6886581D02*
X15935338Y-6924681D01*
X16054401Y-2659859D02*
X16092501Y-2697959D01*
X16092501Y-2659859D02*
X16054401Y-2697959D01*
X16054401Y-3195640D02*
X16092501Y-3233740D01*
X16092501Y-3195640D02*
X16054401Y-3233740D01*
X16411589Y-2838452D02*
X16449689Y-2876552D01*
X16449689Y-2838452D02*
X16411589Y-2876552D01*
X16530651Y-8374863D02*
X16568751Y-8412963D01*
X16568751Y-8374863D02*
X16530651Y-8412963D01*
X16530651Y-8851114D02*
X16568751Y-8889214D01*
X16568751Y-8851114D02*
X16530651Y-8889214D01*
X16887839Y-8553457D02*
X16925939Y-8591557D01*
X16925939Y-8553457D02*
X16887839Y-8591557D01*
X17006902Y-4564860D02*
X17045002Y-4602960D01*
X17045002Y-4564860D02*
X17006902Y-4602960D01*
X17006902Y-5100642D02*
X17045002Y-5138742D01*
X17045002Y-5100642D02*
X17006902Y-5138742D01*
X17364090Y-4743454D02*
X17402190Y-4781554D01*
X17402190Y-4743454D02*
X17364090Y-4781554D01*
X17483152Y-6529393D02*
X17521252Y-6567493D01*
X17521252Y-6529393D02*
X17483152Y-6567493D01*
X17483152Y-7065175D02*
X17521252Y-7103275D01*
X17521252Y-7065175D02*
X17483152Y-7103275D01*
X17840340Y-6648456D02*
X17878440Y-6686556D01*
X17878440Y-6648456D02*
X17840340Y-6686556D01*
X17840340Y-6886581D02*
X17878440Y-6924681D01*
X17878440Y-6886581D02*
X17840340Y-6924681D01*
X17959403Y-2719390D02*
X17997503Y-2757490D01*
X17997503Y-2719390D02*
X17959403Y-2757490D01*
X17959403Y-3255171D02*
X17997503Y-3293271D01*
X17997503Y-3255171D02*
X17959403Y-3293271D01*
X18316590Y-2838452D02*
X18354690Y-2876552D01*
X18354690Y-2838452D02*
X18316590Y-2876552D01*
X18435653Y-8434395D02*
X18473753Y-8472495D01*
X18473753Y-8434395D02*
X18435653Y-8472495D01*
X18435653Y-8910645D02*
X18473753Y-8948745D01*
X18473753Y-8910645D02*
X18435653Y-8948745D01*
X18792841Y-8553457D02*
X18830941Y-8591557D01*
X18830941Y-8553457D02*
X18792841Y-8591557D01*
X18911903Y-4624391D02*
X18950003Y-4662491D01*
X18950003Y-4624391D02*
X18911903Y-4662491D01*
X18911903Y-5160173D02*
X18950003Y-5198273D01*
X18950003Y-5160173D02*
X18911903Y-5198273D01*
X19269091Y-4743454D02*
X19307191Y-4781554D01*
X19307191Y-4743454D02*
X19269091Y-4781554D01*
X19269091Y-6886581D02*
X19307191Y-6924681D01*
X19307191Y-6886581D02*
X19269091Y-6924681D01*
X19388154Y-6588924D02*
X19426254Y-6627024D01*
X19426254Y-6588924D02*
X19388154Y-6627024D01*
X19388154Y-7124706D02*
X19426254Y-7162806D01*
X19426254Y-7124706D02*
X19388154Y-7162806D01*
X19745342Y-6648456D02*
X19783442Y-6686556D01*
X19783442Y-6648456D02*
X19745342Y-6686556D01*
X19864404Y-2778921D02*
X19902504Y-2817021D01*
X19902504Y-2778921D02*
X19864404Y-2817021D01*
X19864404Y-3314703D02*
X19902504Y-3352803D01*
X19902504Y-3314703D02*
X19864404Y-3352803D01*
X20221592Y-2838452D02*
X20259692Y-2876552D01*
X20259692Y-2838452D02*
X20221592Y-2876552D01*
X20340655Y-8493926D02*
X20378755Y-8532026D01*
X20378755Y-8493926D02*
X20340655Y-8532026D01*
X20340655Y-8970176D02*
X20378755Y-9008276D01*
X20378755Y-8970176D02*
X20340655Y-9008276D01*
X20608511Y-8791568D02*
X20646611Y-8829668D01*
X20646611Y-8791568D02*
X20608511Y-8829668D01*
X20697842Y-8553457D02*
X20735942Y-8591557D01*
X20735942Y-8553457D02*
X20697842Y-8591557D01*
X20697842Y-8791582D02*
X20735942Y-8829682D01*
X20735942Y-8791582D02*
X20697842Y-8829682D01*
X20816905Y-4683923D02*
X20855005Y-4722023D01*
X20855005Y-4683923D02*
X20816905Y-4722023D01*
X20816905Y-5219704D02*
X20855005Y-5257804D01*
X20855005Y-5219704D02*
X20816905Y-5257804D01*
X21174093Y-4743454D02*
X21212193Y-4781554D01*
X21212193Y-4743454D02*
X21174093Y-4781554D01*
X21293155Y-6469862D02*
X21331255Y-6507962D01*
X21331255Y-6469862D02*
X21293155Y-6507962D01*
X21293155Y-7005643D02*
X21331255Y-7043743D01*
X21331255Y-7005643D02*
X21293155Y-7043743D01*
X21650343Y-3314703D02*
X21688443Y-3352803D01*
X21688443Y-3314703D02*
X21650343Y-3352803D01*
X21650343Y-6648456D02*
X21688443Y-6686556D01*
X21688443Y-6648456D02*
X21650343Y-6686556D01*
X21709838Y-3136104D02*
X21747938Y-3174204D01*
X21747938Y-3136104D02*
X21709838Y-3174204D01*
X21709875Y-3255171D02*
X21747975Y-3293271D01*
X21747975Y-3255171D02*
X21709875Y-3293271D01*
X21769406Y-2659859D02*
X21807506Y-2697959D01*
X21807506Y-2659859D02*
X21769406Y-2697959D01*
X21769406Y-3195640D02*
X21807506Y-3233740D01*
X21807506Y-3195640D02*
X21769406Y-3233740D01*
X21828937Y-3136109D02*
X21867037Y-3174209D01*
X21867037Y-3136109D02*
X21828937Y-3174209D01*
X21888468Y-3076578D02*
X21926568Y-3114678D01*
X21926568Y-3076578D02*
X21888468Y-3114678D01*
X21977728Y-3076572D02*
X22015828Y-3114672D01*
X22015828Y-3076572D02*
X21977728Y-3114672D01*
X22126594Y-2838452D02*
X22164694Y-2876552D01*
X22164694Y-2838452D02*
X22126594Y-2876552D01*
X22126594Y-10458459D02*
X22164694Y-10496559D01*
X22164694Y-10458459D02*
X22126594Y-10496559D01*
X22245656Y-8374863D02*
X22283756Y-8412963D01*
X22283756Y-8374863D02*
X22245656Y-8412963D01*
X22245656Y-8851114D02*
X22283756Y-8889214D01*
X22283756Y-8851114D02*
X22245656Y-8889214D01*
X22602844Y-8553457D02*
X22640944Y-8591557D01*
X22640944Y-8553457D02*
X22602844Y-8591557D01*
X22602844Y-8791582D02*
X22640944Y-8829682D01*
X22640944Y-8791582D02*
X22602844Y-8829682D01*
X22721907Y-4564860D02*
X22760007Y-4602960D01*
X22760007Y-4564860D02*
X22721907Y-4602960D01*
X22721907Y-5100642D02*
X22760007Y-5138742D01*
X22760007Y-5100642D02*
X22721907Y-5138742D01*
X23079094Y-4743454D02*
X23117194Y-4781554D01*
X23117194Y-4743454D02*
X23079094Y-4781554D01*
X23198157Y-6529393D02*
X23236257Y-6567493D01*
X23236257Y-6529393D02*
X23198157Y-6567493D01*
X23198157Y-7065175D02*
X23236257Y-7103275D01*
X23236257Y-7065175D02*
X23198157Y-7103275D01*
X23555345Y-6648456D02*
X23593445Y-6686556D01*
X23593445Y-6648456D02*
X23555345Y-6686556D01*
X23674407Y-2719390D02*
X23712507Y-2757490D01*
X23712507Y-2719390D02*
X23674407Y-2757490D01*
X23674407Y-3255171D02*
X23712507Y-3293271D01*
X23712507Y-3255171D02*
X23674407Y-3293271D01*
X23674407Y-9029708D02*
X23712507Y-9067808D01*
X23712507Y-9029708D02*
X23674407Y-9067808D01*
X23674407Y-10339396D02*
X23712507Y-10377496D01*
X23712507Y-10339396D02*
X23674407Y-10377496D01*
X24031595Y-2838452D02*
X24069695Y-2876552D01*
X24069695Y-2838452D02*
X24031595Y-2876552D01*
X24150658Y-8434395D02*
X24188758Y-8472495D01*
X24188758Y-8434395D02*
X24150658Y-8472495D01*
X24150658Y-8910645D02*
X24188758Y-8948745D01*
X24188758Y-8910645D02*
X24150658Y-8948745D01*
X24507846Y-8553457D02*
X24545946Y-8591557D01*
X24545946Y-8553457D02*
X24507846Y-8591557D01*
X24507846Y-8791582D02*
X24545946Y-8829682D01*
X24545946Y-8791582D02*
X24507846Y-8829682D01*
X24626908Y-4683923D02*
X24665008Y-4722023D01*
X24665008Y-4683923D02*
X24626908Y-4722023D01*
X24626908Y-5219704D02*
X24665008Y-5257804D01*
X24665008Y-5219704D02*
X24626908Y-5257804D01*
X24686398Y-5041102D02*
X24724498Y-5079202D01*
X24724498Y-5041102D02*
X24686398Y-5079202D01*
X24686439Y-5160173D02*
X24724539Y-5198273D01*
X24724539Y-5160173D02*
X24686439Y-5198273D01*
X24745971Y-5100642D02*
X24784071Y-5138742D01*
X24784071Y-5100642D02*
X24745971Y-5138742D01*
X24805502Y-5041111D02*
X24843602Y-5079211D01*
X24843602Y-5041111D02*
X24805502Y-5079211D01*
X24865033Y-4981579D02*
X24903133Y-5019679D01*
X24903133Y-4981579D02*
X24865033Y-5019679D01*
X24924523Y-10279848D02*
X24962623Y-10317948D01*
X24962623Y-10279848D02*
X24924523Y-10317948D01*
X24984054Y-4981571D02*
X25022154Y-5019671D01*
X25022154Y-4981571D02*
X24984054Y-5019671D01*
X24984054Y-10220316D02*
X25022154Y-10258416D01*
X25022154Y-10220316D02*
X24984054Y-10258416D01*
X24984096Y-4743454D02*
X25022196Y-4781554D01*
X25022196Y-4743454D02*
X24984096Y-4781554D01*
X25043628Y-10279848D02*
X25081728Y-10317948D01*
X25081728Y-10279848D02*
X25043628Y-10317948D01*
X25103159Y-6588924D02*
X25141259Y-6627024D01*
X25141259Y-6588924D02*
X25103159Y-6627024D01*
X25103159Y-7124706D02*
X25141259Y-7162806D01*
X25141259Y-7124706D02*
X25103159Y-7162806D01*
X25103160Y-10220316D02*
X25141260Y-10258416D01*
X25141260Y-10220316D02*
X25103160Y-10258416D01*
X25162648Y-10279848D02*
X25200748Y-10317948D01*
X25200748Y-10279848D02*
X25162648Y-10317948D01*
X25222179Y-10220316D02*
X25260279Y-10258416D01*
X25260279Y-10220316D02*
X25222179Y-10258416D01*
X25281710Y-9029708D02*
X25319810Y-9067808D01*
X25319810Y-9029708D02*
X25281710Y-9067808D01*
X25281710Y-11157933D02*
X25319810Y-11196033D01*
X25319810Y-11157933D02*
X25281710Y-11196033D01*
X25281753Y-10279848D02*
X25319853Y-10317948D01*
X25319853Y-10279848D02*
X25281753Y-10317948D01*
X25341241Y-8970176D02*
X25379341Y-9008276D01*
X25379341Y-8970176D02*
X25341241Y-9008276D01*
X25341284Y-10220316D02*
X25379384Y-10258416D01*
X25379384Y-10220316D02*
X25341284Y-10258416D01*
X25400772Y-8910645D02*
X25438872Y-8948745D01*
X25438872Y-8910645D02*
X25400772Y-8948745D01*
X25400816Y-10279848D02*
X25438916Y-10317948D01*
X25438916Y-10279848D02*
X25400816Y-10317948D01*
X25460304Y-6946100D02*
X25498404Y-6984200D01*
X25498404Y-6946100D02*
X25460304Y-6984200D01*
X25460304Y-8851114D02*
X25498404Y-8889214D01*
X25498404Y-8851114D02*
X25460304Y-8889214D01*
X25460304Y-10220316D02*
X25498404Y-10258416D01*
X25498404Y-10220316D02*
X25460304Y-10258416D01*
X25460346Y-6648456D02*
X25498446Y-6686556D01*
X25498446Y-6648456D02*
X25460346Y-6686556D01*
X25519835Y-8791582D02*
X25557935Y-8829682D01*
X25557935Y-8791582D02*
X25519835Y-8829682D01*
X25519878Y-10279848D02*
X25557978Y-10317948D01*
X25557978Y-10279848D02*
X25519878Y-10317948D01*
X25534718Y-11157933D02*
X25572818Y-11196033D01*
X25572818Y-11157933D02*
X25534718Y-11196033D01*
X25549600Y-6948543D02*
X25587700Y-6986643D01*
X25587700Y-6948543D02*
X25549600Y-6986643D01*
X25579409Y-2778921D02*
X25617509Y-2817021D01*
X25617509Y-2778921D02*
X25579409Y-2817021D01*
X25579409Y-3314703D02*
X25617509Y-3352803D01*
X25617509Y-3314703D02*
X25579409Y-3352803D01*
X25579409Y-10220316D02*
X25617509Y-10258416D01*
X25617509Y-10220316D02*
X25579409Y-10258416D01*
X25609132Y-8791568D02*
X25647232Y-8829668D01*
X25647232Y-8791568D02*
X25609132Y-8829668D01*
X25638940Y-10279848D02*
X25677040Y-10317948D01*
X25677040Y-10279848D02*
X25638940Y-10317948D01*
X25698472Y-10220316D02*
X25736572Y-10258416D01*
X25736572Y-10220316D02*
X25698472Y-10258416D01*
X25758003Y-10279848D02*
X25796103Y-10317948D01*
X25796103Y-10279848D02*
X25758003Y-10317948D01*
X25817534Y-10220316D02*
X25855634Y-10258416D01*
X25855634Y-10220316D02*
X25817534Y-10258416D01*
X25877065Y-10279848D02*
X25915165Y-10317948D01*
X25915165Y-10279848D02*
X25877065Y-10317948D01*
X25936553Y-10220316D02*
X25974653Y-10258416D01*
X25974653Y-10220316D02*
X25936553Y-10258416D01*
X25936597Y-2838452D02*
X25974697Y-2876552D01*
X25974697Y-2838452D02*
X25936597Y-2876552D01*
X25996128Y-10279848D02*
X26034228Y-10317948D01*
X26034228Y-10279848D02*
X25996128Y-10317948D01*
X26055659Y-10220316D02*
X26093759Y-10258416D01*
X26093759Y-10220316D02*
X26055659Y-10258416D01*
X26055659Y-8493926D02*
X26093759Y-8532026D01*
X26093759Y-8493926D02*
X26055659Y-8532026D01*
X26055659Y-8970176D02*
X26093759Y-9008276D01*
X26093759Y-8970176D02*
X26055659Y-9008276D01*
X26115190Y-10279848D02*
X26153290Y-10317948D01*
X26153290Y-10279848D02*
X26115190Y-10317948D01*
X26174678Y-10354262D02*
X26212778Y-10392362D01*
X26212778Y-10354262D02*
X26174678Y-10392362D01*
X26412847Y-8553457D02*
X26450947Y-8591557D01*
X26450947Y-8553457D02*
X26412847Y-8591557D01*
X26531910Y-4564860D02*
X26570010Y-4602960D01*
X26570010Y-4564860D02*
X26531910Y-4602960D01*
X26531910Y-5100642D02*
X26570010Y-5138742D01*
X26570010Y-5100642D02*
X26531910Y-5138742D01*
X26740224Y-10517972D02*
X26778324Y-10556072D01*
X26778324Y-10517972D02*
X26740224Y-10556072D01*
X26889098Y-4743454D02*
X26927198Y-4781554D01*
X26927198Y-4743454D02*
X26889098Y-4781554D01*
X27008160Y-6469862D02*
X27046260Y-6507962D01*
X27046260Y-6469862D02*
X27008160Y-6507962D01*
X27008160Y-7005643D02*
X27046260Y-7043743D01*
X27046260Y-7005643D02*
X27008160Y-7043743D01*
X27365348Y-6648456D02*
X27403448Y-6686556D01*
X27403448Y-6648456D02*
X27365348Y-6686556D01*
X27365348Y-6946112D02*
X27403448Y-6984212D01*
X27403448Y-6946112D02*
X27365348Y-6984212D01*
X27484411Y-2659859D02*
X27522511Y-2697959D01*
X27522511Y-2659859D02*
X27484411Y-2697959D01*
X27484411Y-3195640D02*
X27522511Y-3233740D01*
X27522511Y-3195640D02*
X27484411Y-3233740D01*
X27841598Y-2838452D02*
X27879698Y-2876552D01*
X27879698Y-2838452D02*
X27841598Y-2876552D01*
X27960661Y-8374863D02*
X27998761Y-8412963D01*
X27998761Y-8374863D02*
X27960661Y-8412963D01*
X27960661Y-8851114D02*
X27998761Y-8889214D01*
X27998761Y-8851114D02*
X27960661Y-8889214D01*
X28020192Y-7124706D02*
X28058292Y-7162806D01*
X28058292Y-7124706D02*
X28020192Y-7162806D01*
X28079724Y-7065175D02*
X28117824Y-7103275D01*
X28117824Y-7065175D02*
X28079724Y-7103275D01*
X28139255Y-7005643D02*
X28177355Y-7043743D01*
X28177355Y-7005643D02*
X28139255Y-7043743D01*
X28198786Y-6946112D02*
X28236886Y-6984212D01*
X28236886Y-6946112D02*
X28198786Y-6984212D01*
X28258317Y-6886581D02*
X28296417Y-6924681D01*
X28296417Y-6886581D02*
X28258317Y-6924681D01*
X28317849Y-8553457D02*
X28355949Y-8591557D01*
X28355949Y-8553457D02*
X28317849Y-8591557D01*
X28347567Y-6886569D02*
X28385667Y-6924669D01*
X28385667Y-6886569D02*
X28347567Y-6924669D01*
X28436911Y-4624391D02*
X28475011Y-4662491D01*
X28475011Y-4624391D02*
X28436911Y-4662491D01*
X28436911Y-5160173D02*
X28475011Y-5198273D01*
X28475011Y-5160173D02*
X28436911Y-5198273D01*
X28794099Y-4743454D02*
X28832199Y-4781554D01*
X28832199Y-4743454D02*
X28794099Y-4781554D01*
X28913162Y-6529393D02*
X28951262Y-6567493D01*
X28951262Y-6529393D02*
X28913162Y-6567493D01*
X28913162Y-7065175D02*
X28951262Y-7103275D01*
X28951262Y-7065175D02*
X28913162Y-7103275D01*
X29270350Y-6648456D02*
X29308450Y-6686556D01*
X29308450Y-6648456D02*
X29270350Y-6686556D01*
X29270350Y-6946112D02*
X29308450Y-6984212D01*
X29308450Y-6946112D02*
X29270350Y-6984212D01*
X29359597Y-6946100D02*
X29397697Y-6984200D01*
X29397697Y-6946100D02*
X29359597Y-6984200D01*
X29389412Y-2719390D02*
X29427512Y-2757490D01*
X29427512Y-2719390D02*
X29389412Y-2757490D01*
X29389412Y-3255171D02*
X29427512Y-3293271D01*
X29427512Y-3255171D02*
X29389412Y-3293271D01*
X29746600Y-2838452D02*
X29784700Y-2876552D01*
X29784700Y-2838452D02*
X29746600Y-2876552D01*
X29865663Y-8434395D02*
X29903763Y-8472495D01*
X29903763Y-8434395D02*
X29865663Y-8472495D01*
X29865663Y-8910645D02*
X29903763Y-8948745D01*
X29903763Y-8910645D02*
X29865663Y-8948745D01*
X30222850Y-8553457D02*
X30260950Y-8591557D01*
X30260950Y-8553457D02*
X30222850Y-8591557D01*
X30222850Y-10458459D02*
X30260950Y-10496559D01*
X30260950Y-10458459D02*
X30222850Y-10496559D01*
X30341913Y-4683923D02*
X30380013Y-4722023D01*
X30380013Y-4683923D02*
X30341913Y-4722023D01*
X30341913Y-5219704D02*
X30380013Y-5257804D01*
X30380013Y-5219704D02*
X30341913Y-5257804D01*
X30699101Y-4743454D02*
X30737201Y-4781554D01*
X30737201Y-4743454D02*
X30699101Y-4781554D01*
X30699101Y-5041111D02*
X30737201Y-5079211D01*
X30737201Y-5041111D02*
X30699101Y-5079211D01*
X30818163Y-6588924D02*
X30856263Y-6627024D01*
X30856263Y-6588924D02*
X30818163Y-6627024D01*
X30818163Y-7124706D02*
X30856263Y-7162806D01*
X30856263Y-7124706D02*
X30818163Y-7162806D01*
X31175351Y-6648456D02*
X31213451Y-6686556D01*
X31213451Y-6648456D02*
X31175351Y-6686556D01*
X31294414Y-2778921D02*
X31332514Y-2817021D01*
X31332514Y-2778921D02*
X31294414Y-2817021D01*
X31294414Y-3314703D02*
X31332514Y-3352803D01*
X31332514Y-3314703D02*
X31294414Y-3352803D01*
X31651602Y-2838452D02*
X31689702Y-2876552D01*
X31689702Y-2838452D02*
X31651602Y-2876552D01*
X31770664Y-8374863D02*
X31808764Y-8412963D01*
X31808764Y-8374863D02*
X31770664Y-8412963D01*
X31770664Y-8851114D02*
X31808764Y-8889214D01*
X31808764Y-8851114D02*
X31770664Y-8889214D01*
X31770664Y-9029708D02*
X31808764Y-9067808D01*
X31808764Y-9029708D02*
X31770664Y-9067808D01*
X31770664Y-10339396D02*
X31808764Y-10377496D01*
X31808764Y-10339396D02*
X31770664Y-10377496D01*
X32246915Y-4564860D02*
X32285015Y-4602960D01*
X32285015Y-4564860D02*
X32246915Y-4602960D01*
X32246915Y-5100642D02*
X32285015Y-5138742D01*
X32285015Y-5100642D02*
X32246915Y-5138742D01*
X32604102Y-4743454D02*
X32642202Y-4781554D01*
X32642202Y-4743454D02*
X32604102Y-4781554D01*
X32604102Y-5041111D02*
X32642202Y-5079211D01*
X32642202Y-5041111D02*
X32604102Y-5079211D01*
X32723165Y-6469862D02*
X32761265Y-6507962D01*
X32761265Y-6469862D02*
X32723165Y-6507962D01*
X32723165Y-7005643D02*
X32761265Y-7043743D01*
X32761265Y-7005643D02*
X32723165Y-7043743D01*
X32842228Y-8553457D02*
X32880328Y-8591557D01*
X32880328Y-8553457D02*
X32842228Y-8591557D01*
X32842228Y-10458459D02*
X32880328Y-10496559D01*
X32880328Y-10458459D02*
X32842228Y-10496559D01*
X33199415Y-2659859D02*
X33237515Y-2697959D01*
X33237515Y-2659859D02*
X33199415Y-2697959D01*
X33199415Y-3195640D02*
X33237515Y-3233740D01*
X33237515Y-3195640D02*
X33199415Y-3233740D01*
X33556603Y-2838452D02*
X33594703Y-2876552D01*
X33594703Y-2838452D02*
X33556603Y-2876552D01*
X34151916Y-4624391D02*
X34190016Y-4662491D01*
X34190016Y-4624391D02*
X34151916Y-4662491D01*
X34151916Y-5160173D02*
X34190016Y-5198273D01*
X34190016Y-5160173D02*
X34151916Y-5198273D01*
X34270979Y-6648456D02*
X34309079Y-6686556D01*
X34309079Y-6648456D02*
X34270979Y-6686556D01*
X34390041Y-8434395D02*
X34428141Y-8472495D01*
X34428141Y-8434395D02*
X34390041Y-8472495D01*
X34390041Y-8910645D02*
X34428141Y-8948745D01*
X34428141Y-8910645D02*
X34390041Y-8948745D01*
X34390041Y-9029708D02*
X34428141Y-9067808D01*
X34428141Y-9029708D02*
X34390041Y-9067808D01*
X34390041Y-10339396D02*
X34428141Y-10377496D01*
X34428141Y-10339396D02*
X34390041Y-10377496D01*
X34985354Y-4743454D02*
X35023454Y-4781554D01*
X35023454Y-4743454D02*
X34985354Y-4781554D01*
X34985354Y-5041111D02*
X35023454Y-5079211D01*
X35023454Y-5041111D02*
X34985354Y-5079211D01*
X35074592Y-5041102D02*
X35112692Y-5079202D01*
X35112692Y-5041102D02*
X35074592Y-5079202D01*
X35104417Y-2719390D02*
X35142517Y-2757490D01*
X35142517Y-2719390D02*
X35104417Y-2757490D01*
X35104417Y-3255171D02*
X35142517Y-3293271D01*
X35142517Y-3255171D02*
X35104417Y-3293271D01*
X35223480Y-8553457D02*
X35261580Y-8591557D01*
X35261580Y-8553457D02*
X35223480Y-8591557D01*
X35223480Y-10458459D02*
X35261580Y-10496559D01*
X35261580Y-10458459D02*
X35223480Y-10496559D01*
X35461605Y-2838452D02*
X35499705Y-2876552D01*
X35499705Y-2838452D02*
X35461605Y-2876552D01*
X35818793Y-6588924D02*
X35856893Y-6627024D01*
X35856893Y-6588924D02*
X35818793Y-6627024D01*
X35818793Y-7124706D02*
X35856893Y-7162806D01*
X35856893Y-7124706D02*
X35818793Y-7162806D01*
X36414106Y-8970176D02*
X36452206Y-9008276D01*
X36452206Y-8970176D02*
X36414106Y-9008276D01*
X36533168Y-4683923D02*
X36571268Y-4722023D01*
X36571268Y-4683923D02*
X36533168Y-4722023D01*
X36533168Y-5219704D02*
X36571268Y-5257804D01*
X36571268Y-5219704D02*
X36533168Y-5257804D01*
X36771293Y-8434395D02*
X36809393Y-8472495D01*
X36809393Y-8434395D02*
X36771293Y-8472495D01*
X36771293Y-10339396D02*
X36809393Y-10377496D01*
X36809393Y-10339396D02*
X36771293Y-10377496D01*
X37009419Y-2778921D02*
X37047519Y-2817021D01*
X37047519Y-2778921D02*
X37009419Y-2817021D01*
X37009419Y-3314703D02*
X37047519Y-3352803D01*
X37047519Y-3314703D02*
X37009419Y-3352803D01*
X37842857Y-3314703D02*
X37880957Y-3352803D01*
X37880957Y-3314703D02*
X37842857Y-3352803D01*
X37842857Y-3612359D02*
X37880957Y-3650459D01*
X37880957Y-3612359D02*
X37842857Y-3650459D01*
X37842857Y-5219704D02*
X37880957Y-5257804D01*
X37880957Y-5219704D02*
X37842857Y-5257804D01*
X37842857Y-7600956D02*
X37880957Y-7639056D01*
X37880957Y-7600956D02*
X37842857Y-7639056D01*
X37842857Y-9505958D02*
X37880957Y-9544058D01*
X37880957Y-9505958D02*
X37842857Y-9544058D01*
X37842857Y-9982208D02*
X37880957Y-10020308D01*
X37880957Y-9982208D02*
X37842857Y-10020308D01*
X37932090Y-9982208D02*
X37970190Y-10020308D01*
X37970190Y-9982208D02*
X37932090Y-10020308D01*
X39390671Y-3136109D02*
X39428771Y-3174209D01*
X39428771Y-3136109D02*
X39390671Y-3174209D01*
X39390671Y-3671891D02*
X39428771Y-3709991D01*
X39428771Y-3671891D02*
X39390671Y-3709991D01*
X39390671Y-5041111D02*
X39428771Y-5079211D01*
X39428771Y-5041111D02*
X39390671Y-5079211D01*
X39390671Y-5576892D02*
X39428771Y-5614992D01*
X39428771Y-5576892D02*
X39390671Y-5614992D01*
X39390671Y-7422362D02*
X39428771Y-7460462D01*
X39428771Y-7422362D02*
X39390671Y-7460462D01*
X39390671Y-7958144D02*
X39428771Y-7996244D01*
X39428771Y-7958144D02*
X39390671Y-7996244D01*
X39390671Y-9327364D02*
X39428771Y-9365464D01*
X39428771Y-9327364D02*
X39390671Y-9365464D01*
X39390671Y-9803615D02*
X39428771Y-9841715D01*
X39428771Y-9803615D02*
X39390671Y-9841715D01*
X39479901Y-3671884D02*
X39518001Y-3709984D01*
X39518001Y-3671884D02*
X39479901Y-3709984D01*
X39479901Y-5576883D02*
X39518001Y-5614983D01*
X39518001Y-5576883D02*
X39479901Y-5614983D01*
X39479901Y-7958131D02*
X39518001Y-7996231D01*
X39518001Y-7958131D02*
X39479901Y-7996231D01*
X39479901Y-9803615D02*
X39518001Y-9841715D01*
X39518001Y-9803615D02*
X39479901Y-9841715D01*
X39747858Y-3314703D02*
X39785958Y-3352803D01*
X39785958Y-3314703D02*
X39747858Y-3352803D01*
X39747858Y-3612359D02*
X39785958Y-3650459D01*
X39785958Y-3612359D02*
X39747858Y-3650459D01*
X39747858Y-5219704D02*
X39785958Y-5257804D01*
X39785958Y-5219704D02*
X39747858Y-5257804D01*
X39747858Y-7600956D02*
X39785958Y-7639056D01*
X39785958Y-7600956D02*
X39747858Y-7639056D01*
X39747858Y-9505958D02*
X39785958Y-9544058D01*
X39785958Y-9505958D02*
X39747858Y-9544058D01*
X41295672Y-3195640D02*
X41333772Y-3233740D01*
X41333772Y-3195640D02*
X41295672Y-3233740D01*
X41295672Y-3731422D02*
X41333772Y-3769522D01*
X41333772Y-3731422D02*
X41295672Y-3769522D01*
X41295672Y-5100642D02*
X41333772Y-5138742D01*
X41333772Y-5100642D02*
X41295672Y-5138742D01*
X41295672Y-5636423D02*
X41333772Y-5674523D01*
X41333772Y-5636423D02*
X41295672Y-5674523D01*
X41295672Y-7481894D02*
X41333772Y-7519994D01*
X41333772Y-7481894D02*
X41295672Y-7519994D01*
X41295672Y-8017675D02*
X41333772Y-8055775D01*
X41333772Y-8017675D02*
X41295672Y-8055775D01*
X41295672Y-9386895D02*
X41333772Y-9424995D01*
X41333772Y-9386895D02*
X41295672Y-9424995D01*
X41295672Y-9863146D02*
X41333772Y-9901246D01*
X41333772Y-9863146D02*
X41295672Y-9901246D01*
X41384900Y-3731416D02*
X41423000Y-3769516D01*
X41423000Y-3731416D02*
X41384900Y-3769516D01*
X41384900Y-5636414D02*
X41423000Y-5674514D01*
X41423000Y-5636414D02*
X41384900Y-5674514D01*
X41384900Y-8017662D02*
X41423000Y-8055762D01*
X41423000Y-8017662D02*
X41384900Y-8055762D01*
X41384900Y-9865577D02*
X41423000Y-9903677D01*
X41423000Y-9865577D02*
X41384900Y-9903677D01*
X41652860Y-3314703D02*
X41690960Y-3352803D01*
X41690960Y-3314703D02*
X41652860Y-3352803D01*
X41652860Y-3612359D02*
X41690960Y-3650459D01*
X41690960Y-3612359D02*
X41652860Y-3650459D01*
X41652860Y-5219704D02*
X41690960Y-5257804D01*
X41690960Y-5219704D02*
X41652860Y-5257804D01*
X41652860Y-7600956D02*
X41690960Y-7639056D01*
X41690960Y-7600956D02*
X41652860Y-7639056D01*
X41652860Y-9505958D02*
X41690960Y-9544058D01*
X41690960Y-9505958D02*
X41652860Y-9544058D01*
X41742087Y-3612353D02*
X41780187Y-3650453D01*
X41780187Y-3612353D02*
X41742087Y-3650453D01*
X43200674Y-3255171D02*
X43238774Y-3293271D01*
X43238774Y-3255171D02*
X43200674Y-3293271D01*
X43200674Y-3790953D02*
X43238774Y-3829053D01*
X43238774Y-3790953D02*
X43200674Y-3829053D01*
X43200674Y-5160173D02*
X43238774Y-5198273D01*
X43238774Y-5160173D02*
X43200674Y-5198273D01*
X43200674Y-5695955D02*
X43238774Y-5734055D01*
X43238774Y-5695955D02*
X43200674Y-5734055D01*
X43200674Y-7541425D02*
X43238774Y-7579525D01*
X43238774Y-7541425D02*
X43200674Y-7579525D01*
X43200674Y-8077207D02*
X43238774Y-8115307D01*
X43238774Y-8077207D02*
X43200674Y-8115307D01*
X43200674Y-9446427D02*
X43238774Y-9484527D01*
X43238774Y-9446427D02*
X43200674Y-9484527D01*
X43200674Y-9922677D02*
X43238774Y-9960777D01*
X43238774Y-9922677D02*
X43200674Y-9960777D01*
X43289898Y-3790947D02*
X43327998Y-3829047D01*
X43327998Y-3790947D02*
X43289898Y-3829047D01*
X43289898Y-5695945D02*
X43327998Y-5734045D01*
X43327998Y-5695945D02*
X43289898Y-5734045D01*
X43289898Y-8077193D02*
X43327998Y-8115293D01*
X43327998Y-8077193D02*
X43289898Y-8115293D01*
X43289898Y-9922660D02*
X43327998Y-9960760D01*
X43327998Y-9922660D02*
X43289898Y-9960760D01*
D11*
X2101247Y-11746484D02*
X2101247Y-11546484D01*
X2101247Y-11546484D02*
X2148866Y-11546484D01*
X2148866Y-11546484D02*
X2177438Y-11556008D01*
X2177438Y-11556008D02*
X2196485Y-11575055D01*
X2196485Y-11575055D02*
X2206009Y-11594103D01*
X2206009Y-11594103D02*
X2215533Y-11632198D01*
X2215533Y-11632198D02*
X2215533Y-11660769D01*
X2215533Y-11660769D02*
X2206009Y-11698865D01*
X2206009Y-11698865D02*
X2196485Y-11717912D01*
X2196485Y-11717912D02*
X2177438Y-11736960D01*
X2177438Y-11736960D02*
X2148866Y-11746484D01*
X2148866Y-11746484D02*
X2101247Y-11746484D01*
X2301247Y-11746484D02*
X2301247Y-11613150D01*
X2301247Y-11651246D02*
X2310771Y-11632198D01*
X2310771Y-11632198D02*
X2320295Y-11622674D01*
X2320295Y-11622674D02*
X2339342Y-11613150D01*
X2339342Y-11613150D02*
X2358390Y-11613150D01*
X2425057Y-11746484D02*
X2425057Y-11613150D01*
X2425057Y-11546484D02*
X2415533Y-11556008D01*
X2415533Y-11556008D02*
X2425057Y-11565531D01*
X2425057Y-11565531D02*
X2434580Y-11556008D01*
X2434580Y-11556008D02*
X2425057Y-11546484D01*
X2425057Y-11546484D02*
X2425057Y-11565531D01*
X2548866Y-11746484D02*
X2529819Y-11736960D01*
X2529819Y-11736960D02*
X2520295Y-11717912D01*
X2520295Y-11717912D02*
X2520295Y-11546484D01*
X2653628Y-11746484D02*
X2634580Y-11736960D01*
X2634580Y-11736960D02*
X2625057Y-11717912D01*
X2625057Y-11717912D02*
X2625057Y-11546484D01*
X2882199Y-11746484D02*
X2882199Y-11546484D01*
X2882199Y-11546484D02*
X2948866Y-11689341D01*
X2948866Y-11689341D02*
X3015533Y-11546484D01*
X3015533Y-11546484D02*
X3015533Y-11746484D01*
X3196485Y-11746484D02*
X3196485Y-11641722D01*
X3196485Y-11641722D02*
X3186961Y-11622674D01*
X3186961Y-11622674D02*
X3167914Y-11613150D01*
X3167914Y-11613150D02*
X3129818Y-11613150D01*
X3129818Y-11613150D02*
X3110771Y-11622674D01*
X3196485Y-11736960D02*
X3177438Y-11746484D01*
X3177438Y-11746484D02*
X3129818Y-11746484D01*
X3129818Y-11746484D02*
X3110771Y-11736960D01*
X3110771Y-11736960D02*
X3101247Y-11717912D01*
X3101247Y-11717912D02*
X3101247Y-11698865D01*
X3101247Y-11698865D02*
X3110771Y-11679817D01*
X3110771Y-11679817D02*
X3129818Y-11670293D01*
X3129818Y-11670293D02*
X3177438Y-11670293D01*
X3177438Y-11670293D02*
X3196485Y-11660769D01*
X3291723Y-11613150D02*
X3291723Y-11813150D01*
X3291723Y-11622674D02*
X3310771Y-11613150D01*
X3310771Y-11613150D02*
X3348866Y-11613150D01*
X3348866Y-11613150D02*
X3367914Y-11622674D01*
X3367914Y-11622674D02*
X3377438Y-11632198D01*
X3377438Y-11632198D02*
X3386961Y-11651246D01*
X3386961Y-11651246D02*
X3386961Y-11708388D01*
X3386961Y-11708388D02*
X3377438Y-11727436D01*
X3377438Y-11727436D02*
X3367914Y-11736960D01*
X3367914Y-11736960D02*
X3348866Y-11746484D01*
X3348866Y-11746484D02*
X3310771Y-11746484D01*
X3310771Y-11746484D02*
X3291723Y-11736960D01*
X3472676Y-11727436D02*
X3482199Y-11736960D01*
X3482199Y-11736960D02*
X3472676Y-11746484D01*
X3472676Y-11746484D02*
X3463152Y-11736960D01*
X3463152Y-11736960D02*
X3472676Y-11727436D01*
X3472676Y-11727436D02*
X3472676Y-11746484D01*
X3472676Y-11622674D02*
X3482199Y-11632198D01*
X3482199Y-11632198D02*
X3472676Y-11641722D01*
X3472676Y-11641722D02*
X3463152Y-11632198D01*
X3463152Y-11632198D02*
X3472676Y-11622674D01*
X3472676Y-11622674D02*
X3472676Y-11641722D01*
D10*
X1802370Y-12055950D02*
X1840470Y-12094050D01*
X1840470Y-12055950D02*
X1802370Y-12094050D01*
D11*
X2139342Y-11966484D02*
X2158390Y-11966484D01*
X2158390Y-11966484D02*
X2177438Y-11976008D01*
X2177438Y-11976008D02*
X2186961Y-11985531D01*
X2186961Y-11985531D02*
X2196485Y-12004579D01*
X2196485Y-12004579D02*
X2206009Y-12042674D01*
X2206009Y-12042674D02*
X2206009Y-12090293D01*
X2206009Y-12090293D02*
X2196485Y-12128388D01*
X2196485Y-12128388D02*
X2186961Y-12147436D01*
X2186961Y-12147436D02*
X2177438Y-12156960D01*
X2177438Y-12156960D02*
X2158390Y-12166484D01*
X2158390Y-12166484D02*
X2139342Y-12166484D01*
X2139342Y-12166484D02*
X2120295Y-12156960D01*
X2120295Y-12156960D02*
X2110771Y-12147436D01*
X2110771Y-12147436D02*
X2101247Y-12128388D01*
X2101247Y-12128388D02*
X2091723Y-12090293D01*
X2091723Y-12090293D02*
X2091723Y-12042674D01*
X2091723Y-12042674D02*
X2101247Y-12004579D01*
X2101247Y-12004579D02*
X2110771Y-11985531D01*
X2110771Y-11985531D02*
X2120295Y-11976008D01*
X2120295Y-11976008D02*
X2139342Y-11966484D01*
X2291723Y-12147436D02*
X2301247Y-12156960D01*
X2301247Y-12156960D02*
X2291723Y-12166484D01*
X2291723Y-12166484D02*
X2282200Y-12156960D01*
X2282200Y-12156960D02*
X2291723Y-12147436D01*
X2291723Y-12147436D02*
X2291723Y-12166484D01*
X2367914Y-11966484D02*
X2491723Y-11966484D01*
X2491723Y-11966484D02*
X2425057Y-12042674D01*
X2425057Y-12042674D02*
X2453628Y-12042674D01*
X2453628Y-12042674D02*
X2472676Y-12052198D01*
X2472676Y-12052198D02*
X2482200Y-12061722D01*
X2482200Y-12061722D02*
X2491723Y-12080769D01*
X2491723Y-12080769D02*
X2491723Y-12128388D01*
X2491723Y-12128388D02*
X2482200Y-12147436D01*
X2482200Y-12147436D02*
X2472676Y-12156960D01*
X2472676Y-12156960D02*
X2453628Y-12166484D01*
X2453628Y-12166484D02*
X2396485Y-12166484D01*
X2396485Y-12166484D02*
X2377438Y-12156960D01*
X2377438Y-12156960D02*
X2367914Y-12147436D01*
X2606009Y-12052198D02*
X2586961Y-12042674D01*
X2586961Y-12042674D02*
X2577438Y-12033150D01*
X2577438Y-12033150D02*
X2567914Y-12014103D01*
X2567914Y-12014103D02*
X2567914Y-12004579D01*
X2567914Y-12004579D02*
X2577438Y-11985531D01*
X2577438Y-11985531D02*
X2586961Y-11976008D01*
X2586961Y-11976008D02*
X2606009Y-11966484D01*
X2606009Y-11966484D02*
X2644104Y-11966484D01*
X2644104Y-11966484D02*
X2663152Y-11976008D01*
X2663152Y-11976008D02*
X2672676Y-11985531D01*
X2672676Y-11985531D02*
X2682200Y-12004579D01*
X2682200Y-12004579D02*
X2682200Y-12014103D01*
X2682200Y-12014103D02*
X2672676Y-12033150D01*
X2672676Y-12033150D02*
X2663152Y-12042674D01*
X2663152Y-12042674D02*
X2644104Y-12052198D01*
X2644104Y-12052198D02*
X2606009Y-12052198D01*
X2606009Y-12052198D02*
X2586961Y-12061722D01*
X2586961Y-12061722D02*
X2577438Y-12071246D01*
X2577438Y-12071246D02*
X2567914Y-12090293D01*
X2567914Y-12090293D02*
X2567914Y-12128388D01*
X2567914Y-12128388D02*
X2577438Y-12147436D01*
X2577438Y-12147436D02*
X2586961Y-12156960D01*
X2586961Y-12156960D02*
X2606009Y-12166484D01*
X2606009Y-12166484D02*
X2644104Y-12166484D01*
X2644104Y-12166484D02*
X2663152Y-12156960D01*
X2663152Y-12156960D02*
X2672676Y-12147436D01*
X2672676Y-12147436D02*
X2682200Y-12128388D01*
X2682200Y-12128388D02*
X2682200Y-12090293D01*
X2682200Y-12090293D02*
X2672676Y-12071246D01*
X2672676Y-12071246D02*
X2663152Y-12061722D01*
X2663152Y-12061722D02*
X2644104Y-12052198D01*
X2872676Y-12166484D02*
X2758390Y-12166484D01*
X2815533Y-12166484D02*
X2815533Y-11966484D01*
X2815533Y-11966484D02*
X2796485Y-11995055D01*
X2796485Y-11995055D02*
X2777438Y-12014103D01*
X2777438Y-12014103D02*
X2758390Y-12023627D01*
X2958390Y-12166484D02*
X2958390Y-12033150D01*
X2958390Y-12052198D02*
X2967914Y-12042674D01*
X2967914Y-12042674D02*
X2986961Y-12033150D01*
X2986961Y-12033150D02*
X3015533Y-12033150D01*
X3015533Y-12033150D02*
X3034580Y-12042674D01*
X3034580Y-12042674D02*
X3044104Y-12061722D01*
X3044104Y-12061722D02*
X3044104Y-12166484D01*
X3044104Y-12061722D02*
X3053628Y-12042674D01*
X3053628Y-12042674D02*
X3072676Y-12033150D01*
X3072676Y-12033150D02*
X3101247Y-12033150D01*
X3101247Y-12033150D02*
X3120295Y-12042674D01*
X3120295Y-12042674D02*
X3129819Y-12061722D01*
X3129819Y-12061722D02*
X3129819Y-12166484D01*
X3225057Y-12166484D02*
X3225057Y-12033150D01*
X3225057Y-12052198D02*
X3234580Y-12042674D01*
X3234580Y-12042674D02*
X3253628Y-12033150D01*
X3253628Y-12033150D02*
X3282200Y-12033150D01*
X3282200Y-12033150D02*
X3301247Y-12042674D01*
X3301247Y-12042674D02*
X3310771Y-12061722D01*
X3310771Y-12061722D02*
X3310771Y-12166484D01*
X3310771Y-12061722D02*
X3320295Y-12042674D01*
X3320295Y-12042674D02*
X3339342Y-12033150D01*
X3339342Y-12033150D02*
X3367914Y-12033150D01*
X3367914Y-12033150D02*
X3386961Y-12042674D01*
X3386961Y-12042674D02*
X3396485Y-12061722D01*
X3396485Y-12061722D02*
X3396485Y-12166484D01*
X3786961Y-11956960D02*
X3615533Y-12214103D01*
X4044104Y-11966484D02*
X4063152Y-11966484D01*
X4063152Y-11966484D02*
X4082200Y-11976008D01*
X4082200Y-11976008D02*
X4091723Y-11985531D01*
X4091723Y-11985531D02*
X4101247Y-12004579D01*
X4101247Y-12004579D02*
X4110771Y-12042674D01*
X4110771Y-12042674D02*
X4110771Y-12090293D01*
X4110771Y-12090293D02*
X4101247Y-12128388D01*
X4101247Y-12128388D02*
X4091723Y-12147436D01*
X4091723Y-12147436D02*
X4082200Y-12156960D01*
X4082200Y-12156960D02*
X4063152Y-12166484D01*
X4063152Y-12166484D02*
X4044104Y-12166484D01*
X4044104Y-12166484D02*
X4025057Y-12156960D01*
X4025057Y-12156960D02*
X4015533Y-12147436D01*
X4015533Y-12147436D02*
X4006009Y-12128388D01*
X4006009Y-12128388D02*
X3996485Y-12090293D01*
X3996485Y-12090293D02*
X3996485Y-12042674D01*
X3996485Y-12042674D02*
X4006009Y-12004579D01*
X4006009Y-12004579D02*
X4015533Y-11985531D01*
X4015533Y-11985531D02*
X4025057Y-11976008D01*
X4025057Y-11976008D02*
X4044104Y-11966484D01*
X4196485Y-12147436D02*
X4206009Y-12156960D01*
X4206009Y-12156960D02*
X4196485Y-12166484D01*
X4196485Y-12166484D02*
X4186962Y-12156960D01*
X4186962Y-12156960D02*
X4196485Y-12147436D01*
X4196485Y-12147436D02*
X4196485Y-12166484D01*
X4329819Y-11966484D02*
X4348866Y-11966484D01*
X4348866Y-11966484D02*
X4367914Y-11976008D01*
X4367914Y-11976008D02*
X4377438Y-11985531D01*
X4377438Y-11985531D02*
X4386962Y-12004579D01*
X4386962Y-12004579D02*
X4396485Y-12042674D01*
X4396485Y-12042674D02*
X4396485Y-12090293D01*
X4396485Y-12090293D02*
X4386962Y-12128388D01*
X4386962Y-12128388D02*
X4377438Y-12147436D01*
X4377438Y-12147436D02*
X4367914Y-12156960D01*
X4367914Y-12156960D02*
X4348866Y-12166484D01*
X4348866Y-12166484D02*
X4329819Y-12166484D01*
X4329819Y-12166484D02*
X4310771Y-12156960D01*
X4310771Y-12156960D02*
X4301247Y-12147436D01*
X4301247Y-12147436D02*
X4291724Y-12128388D01*
X4291724Y-12128388D02*
X4282200Y-12090293D01*
X4282200Y-12090293D02*
X4282200Y-12042674D01*
X4282200Y-12042674D02*
X4291724Y-12004579D01*
X4291724Y-12004579D02*
X4301247Y-11985531D01*
X4301247Y-11985531D02*
X4310771Y-11976008D01*
X4310771Y-11976008D02*
X4329819Y-11966484D01*
X4586962Y-12166484D02*
X4472676Y-12166484D01*
X4529819Y-12166484D02*
X4529819Y-11966484D01*
X4529819Y-11966484D02*
X4510771Y-11995055D01*
X4510771Y-11995055D02*
X4491724Y-12014103D01*
X4491724Y-12014103D02*
X4472676Y-12023627D01*
X4767914Y-11966484D02*
X4672676Y-11966484D01*
X4672676Y-11966484D02*
X4663152Y-12061722D01*
X4663152Y-12061722D02*
X4672676Y-12052198D01*
X4672676Y-12052198D02*
X4691724Y-12042674D01*
X4691724Y-12042674D02*
X4739343Y-12042674D01*
X4739343Y-12042674D02*
X4758390Y-12052198D01*
X4758390Y-12052198D02*
X4767914Y-12061722D01*
X4767914Y-12061722D02*
X4777438Y-12080769D01*
X4777438Y-12080769D02*
X4777438Y-12128388D01*
X4777438Y-12128388D02*
X4767914Y-12147436D01*
X4767914Y-12147436D02*
X4758390Y-12156960D01*
X4758390Y-12156960D02*
X4739343Y-12166484D01*
X4739343Y-12166484D02*
X4691724Y-12166484D01*
X4691724Y-12166484D02*
X4672676Y-12156960D01*
X4672676Y-12156960D02*
X4663152Y-12147436D01*
X4901247Y-11966484D02*
X4920295Y-11966484D01*
X4920295Y-11966484D02*
X4939343Y-11976008D01*
X4939343Y-11976008D02*
X4948866Y-11985531D01*
X4948866Y-11985531D02*
X4958390Y-12004579D01*
X4958390Y-12004579D02*
X4967914Y-12042674D01*
X4967914Y-12042674D02*
X4967914Y-12090293D01*
X4967914Y-12090293D02*
X4958390Y-12128388D01*
X4958390Y-12128388D02*
X4948866Y-12147436D01*
X4948866Y-12147436D02*
X4939343Y-12156960D01*
X4939343Y-12156960D02*
X4920295Y-12166484D01*
X4920295Y-12166484D02*
X4901247Y-12166484D01*
X4901247Y-12166484D02*
X4882200Y-12156960D01*
X4882200Y-12156960D02*
X4872676Y-12147436D01*
X4872676Y-12147436D02*
X4863152Y-12128388D01*
X4863152Y-12128388D02*
X4853628Y-12090293D01*
X4853628Y-12090293D02*
X4853628Y-12042674D01*
X4853628Y-12042674D02*
X4863152Y-12004579D01*
X4863152Y-12004579D02*
X4872676Y-11985531D01*
X4872676Y-11985531D02*
X4882200Y-11976008D01*
X4882200Y-11976008D02*
X4901247Y-11966484D01*
X5044105Y-11966484D02*
X5044105Y-12004579D01*
X5120295Y-11966484D02*
X5120295Y-12004579D01*
X5415533Y-12242674D02*
X5406009Y-12233150D01*
X5406009Y-12233150D02*
X5386962Y-12204579D01*
X5386962Y-12204579D02*
X5377438Y-12185531D01*
X5377438Y-12185531D02*
X5367914Y-12156960D01*
X5367914Y-12156960D02*
X5358390Y-12109341D01*
X5358390Y-12109341D02*
X5358390Y-12071246D01*
X5358390Y-12071246D02*
X5367914Y-12023627D01*
X5367914Y-12023627D02*
X5377438Y-11995055D01*
X5377438Y-11995055D02*
X5386962Y-11976008D01*
X5386962Y-11976008D02*
X5406009Y-11947436D01*
X5406009Y-11947436D02*
X5415533Y-11937912D01*
X5472676Y-11966484D02*
X5596485Y-11966484D01*
X5596485Y-11966484D02*
X5529819Y-12042674D01*
X5529819Y-12042674D02*
X5558390Y-12042674D01*
X5558390Y-12042674D02*
X5577438Y-12052198D01*
X5577438Y-12052198D02*
X5586962Y-12061722D01*
X5586962Y-12061722D02*
X5596485Y-12080769D01*
X5596485Y-12080769D02*
X5596485Y-12128388D01*
X5596485Y-12128388D02*
X5586962Y-12147436D01*
X5586962Y-12147436D02*
X5577438Y-12156960D01*
X5577438Y-12156960D02*
X5558390Y-12166484D01*
X5558390Y-12166484D02*
X5501247Y-12166484D01*
X5501247Y-12166484D02*
X5482200Y-12156960D01*
X5482200Y-12156960D02*
X5472676Y-12147436D01*
X5767914Y-11966484D02*
X5729819Y-11966484D01*
X5729819Y-11966484D02*
X5710771Y-11976008D01*
X5710771Y-11976008D02*
X5701247Y-11985531D01*
X5701247Y-11985531D02*
X5682200Y-12014103D01*
X5682200Y-12014103D02*
X5672676Y-12052198D01*
X5672676Y-12052198D02*
X5672676Y-12128388D01*
X5672676Y-12128388D02*
X5682200Y-12147436D01*
X5682200Y-12147436D02*
X5691724Y-12156960D01*
X5691724Y-12156960D02*
X5710771Y-12166484D01*
X5710771Y-12166484D02*
X5748866Y-12166484D01*
X5748866Y-12166484D02*
X5767914Y-12156960D01*
X5767914Y-12156960D02*
X5777438Y-12147436D01*
X5777438Y-12147436D02*
X5786962Y-12128388D01*
X5786962Y-12128388D02*
X5786962Y-12080769D01*
X5786962Y-12080769D02*
X5777438Y-12061722D01*
X5777438Y-12061722D02*
X5767914Y-12052198D01*
X5767914Y-12052198D02*
X5748866Y-12042674D01*
X5748866Y-12042674D02*
X5710771Y-12042674D01*
X5710771Y-12042674D02*
X5691724Y-12052198D01*
X5691724Y-12052198D02*
X5682200Y-12061722D01*
X5682200Y-12061722D02*
X5672676Y-12080769D01*
X5967914Y-11966484D02*
X5872676Y-11966484D01*
X5872676Y-11966484D02*
X5863152Y-12061722D01*
X5863152Y-12061722D02*
X5872676Y-12052198D01*
X5872676Y-12052198D02*
X5891724Y-12042674D01*
X5891724Y-12042674D02*
X5939343Y-12042674D01*
X5939343Y-12042674D02*
X5958390Y-12052198D01*
X5958390Y-12052198D02*
X5967914Y-12061722D01*
X5967914Y-12061722D02*
X5977438Y-12080769D01*
X5977438Y-12080769D02*
X5977438Y-12128388D01*
X5977438Y-12128388D02*
X5967914Y-12147436D01*
X5967914Y-12147436D02*
X5958390Y-12156960D01*
X5958390Y-12156960D02*
X5939343Y-12166484D01*
X5939343Y-12166484D02*
X5891724Y-12166484D01*
X5891724Y-12166484D02*
X5872676Y-12156960D01*
X5872676Y-12156960D02*
X5863152Y-12147436D01*
X6215533Y-12166484D02*
X6215533Y-11966484D01*
X6301247Y-12166484D02*
X6301247Y-12061722D01*
X6301247Y-12061722D02*
X6291724Y-12042674D01*
X6291724Y-12042674D02*
X6272676Y-12033150D01*
X6272676Y-12033150D02*
X6244105Y-12033150D01*
X6244105Y-12033150D02*
X6225057Y-12042674D01*
X6225057Y-12042674D02*
X6215533Y-12052198D01*
X6425057Y-12166484D02*
X6406009Y-12156960D01*
X6406009Y-12156960D02*
X6396486Y-12147436D01*
X6396486Y-12147436D02*
X6386962Y-12128388D01*
X6386962Y-12128388D02*
X6386962Y-12071246D01*
X6386962Y-12071246D02*
X6396486Y-12052198D01*
X6396486Y-12052198D02*
X6406009Y-12042674D01*
X6406009Y-12042674D02*
X6425057Y-12033150D01*
X6425057Y-12033150D02*
X6453628Y-12033150D01*
X6453628Y-12033150D02*
X6472676Y-12042674D01*
X6472676Y-12042674D02*
X6482200Y-12052198D01*
X6482200Y-12052198D02*
X6491724Y-12071246D01*
X6491724Y-12071246D02*
X6491724Y-12128388D01*
X6491724Y-12128388D02*
X6482200Y-12147436D01*
X6482200Y-12147436D02*
X6472676Y-12156960D01*
X6472676Y-12156960D02*
X6453628Y-12166484D01*
X6453628Y-12166484D02*
X6425057Y-12166484D01*
X6606009Y-12166484D02*
X6586962Y-12156960D01*
X6586962Y-12156960D02*
X6577438Y-12137912D01*
X6577438Y-12137912D02*
X6577438Y-11966484D01*
X6758390Y-12156960D02*
X6739343Y-12166484D01*
X6739343Y-12166484D02*
X6701247Y-12166484D01*
X6701247Y-12166484D02*
X6682200Y-12156960D01*
X6682200Y-12156960D02*
X6672676Y-12137912D01*
X6672676Y-12137912D02*
X6672676Y-12061722D01*
X6672676Y-12061722D02*
X6682200Y-12042674D01*
X6682200Y-12042674D02*
X6701247Y-12033150D01*
X6701247Y-12033150D02*
X6739343Y-12033150D01*
X6739343Y-12033150D02*
X6758390Y-12042674D01*
X6758390Y-12042674D02*
X6767914Y-12061722D01*
X6767914Y-12061722D02*
X6767914Y-12080769D01*
X6767914Y-12080769D02*
X6672676Y-12099817D01*
X6844105Y-12156960D02*
X6863152Y-12166484D01*
X6863152Y-12166484D02*
X6901247Y-12166484D01*
X6901247Y-12166484D02*
X6920295Y-12156960D01*
X6920295Y-12156960D02*
X6929819Y-12137912D01*
X6929819Y-12137912D02*
X6929819Y-12128388D01*
X6929819Y-12128388D02*
X6920295Y-12109341D01*
X6920295Y-12109341D02*
X6901247Y-12099817D01*
X6901247Y-12099817D02*
X6872676Y-12099817D01*
X6872676Y-12099817D02*
X6853628Y-12090293D01*
X6853628Y-12090293D02*
X6844105Y-12071246D01*
X6844105Y-12071246D02*
X6844105Y-12061722D01*
X6844105Y-12061722D02*
X6853628Y-12042674D01*
X6853628Y-12042674D02*
X6872676Y-12033150D01*
X6872676Y-12033150D02*
X6901247Y-12033150D01*
X6901247Y-12033150D02*
X6920295Y-12042674D01*
X6996486Y-12242674D02*
X7006009Y-12233150D01*
X7006009Y-12233150D02*
X7025057Y-12204579D01*
X7025057Y-12204579D02*
X7034581Y-12185531D01*
X7034581Y-12185531D02*
X7044105Y-12156960D01*
X7044105Y-12156960D02*
X7053628Y-12109341D01*
X7053628Y-12109341D02*
X7053628Y-12071246D01*
X7053628Y-12071246D02*
X7044105Y-12023627D01*
X7044105Y-12023627D02*
X7034581Y-11995055D01*
X7034581Y-11995055D02*
X7025057Y-11976008D01*
X7025057Y-11976008D02*
X7006009Y-11947436D01*
X7006009Y-11947436D02*
X6996486Y-11937912D01*
M02*
