<svg height="6.5in" viewBox="-1.375 -1.5625 14 6.5" width="14in" xmlns="http://www.w3.org/2000/svg">
<g>
<path d="M-1,-1.3125 a0.125,0.125,0,0,0,-0.125,0.125 l0,5.75 a0.125,0.125,0,0,0,0.125,0.125 l13.25,0 a0.125,0.125,0,0,0,0.125,-0.125 l0,-5.75 a0.125,0.125,0,0,0,-0.125,-0.125 l-10.78125,0 a0.0625,0.0625,0,0,0,-0.0625,0.0625 l0,1.1875 a0.0625,0.0625,0,0,1,-0.0625,0.0625 l-1.1875,0 a0.0625,0.0625,0,0,1,-0.0625,-0.0625 l0,-1.1875 a0.0625,0.0625,0,0,0,-0.0625,-0.0625 z" fill="none" stroke="goldenrod" stroke-width="0.01"/>
<circle cx="-0.21751968503937008" cy="-0.21751968503937008" fill="none" r="0.0984251968503937" stroke="goldenrod" stroke-width="0.01"/>
<circle cx="11.46751968503937" cy="-0.21751968503937008" fill="none" r="0.0984251968503937" stroke="goldenrod" stroke-width="0.01"/>
<circle cx="-0.21751968503937008" cy="3.96751968503937" fill="none" r="0.0984251968503937" stroke="goldenrod" stroke-width="0.01"/>
<circle cx="11.46751968503937" cy="3.96751968503937" fill="none" r="0.0984251968503937" stroke="goldenrod" stroke-width="0.01"/>
<circle cx="3.75" cy="-0.21751968503937008" fill="none" r="0.0984251968503937" stroke="goldenrod" stroke-width="0.01"/>
<circle cx="7.5" cy="-0.21751968503937008" fill="none" r="0.0984251968503937" stroke="goldenrod" stroke-width="0.01"/>
<circle cx="3.75" cy="3.96751968503937" fill="none" r="0.0984251968503937" stroke="goldenrod" stroke-width="0.01"/>
<circle cx="7.5" cy="3.96751968503937" fill="none" r="0.0984251968503937" stroke="goldenrod" stroke-width="0.01"/>
<path d="M-1,-1.3125 a0.125,0.125,0,0,0,-0.125,0.125 l0,5.75 a0.125,0.125,0,0,0,0.125,0.125 l13.25,0 a0.125,0.125,0,0,0,0.125,-0.125 l0,-5.75 a0.125,0.125,0,0,0,-0.125,-0.125 l-10.78125,0 a0.0625,0.0625,0,0,0,-0.0625,0.0625 l0,1.125 a0.0625,0.0625,0,0,0,0.0625,0.0625 l9.78125,0 a0.0625,0.0625,0,0,1,0.0625,0.0625 l0,3.75 a0.0625,0.0625,0,0,1,-0.0625,0.0625 l-11.25,0 a0.0625,0.0625,0,0,1,-0.0625,-0.0625 l0,-3.75 a0.0625,0.0625,0,0,1,0.0625,-0.0625 l0.03125,0 a0.0625,0.0625,0,0,0,0.0625,-0.0625 l0,-1.125 a0.0625,0.0625,0,0,0,-0.0625,-0.0625 z" fill="none" stroke="goldenrod" stroke-width="0.01"/>
<circle cx="-0.21751968503937008" cy="-0.21751968503937008" fill="none" r="0.0984251968503937" stroke="goldenrod" stroke-width="0.01"/>
<circle cx="11.46751968503937" cy="-0.21751968503937008" fill="none" r="0.0984251968503937" stroke="goldenrod" stroke-width="0.01"/>
<circle cx="-0.21751968503937008" cy="3.96751968503937" fill="none" r="0.0984251968503937" stroke="goldenrod" stroke-width="0.01"/>
<circle cx="11.46751968503937" cy="3.96751968503937" fill="none" r="0.0984251968503937" stroke="goldenrod" stroke-width="0.01"/>
<circle cx="3.75" cy="-0.21751968503937008" fill="none" r="0.0984251968503937" stroke="goldenrod" stroke-width="0.01"/>
<circle cx="7.5" cy="-0.21751968503937008" fill="none" r="0.0984251968503937" stroke="goldenrod" stroke-width="0.01"/>
<circle cx="3.75" cy="3.96751968503937" fill="none" r="0.0984251968503937" stroke="goldenrod" stroke-width="0.01"/>
<circle cx="7.5" cy="3.96751968503937" fill="none" r="0.0984251968503937" stroke="goldenrod" stroke-width="0.01"/>
<path d="M-1,-1.3125 a0.125,0.125,0,0,0,-0.125,0.125 l0,5.75 a0.125,0.125,0,0,0,0.125,0.125 l13.25,0 a0.125,0.125,0,0,0,0.125,-0.125 l0,-5.75 a0.125,0.125,0,0,0,-0.125,-0.125 z" fill="none" stroke="goldenrod" stroke-width="0.01"/>
<path d="M0,-0.0625 a0.0625,0.0625,0,0,0,-0.0625,0.0625 l0,3.75 a0.0625,0.0625,0,0,0,0.0625,0.0625 l11.25,0 a0.0625,0.0625,0,0,0,0.0625,-0.0625 l0,-3.75 a0.0625,0.0625,0,0,0,-0.0625,-0.0625 z" fill="none" stroke="goldenrod" stroke-width="0.01"/>
<circle cx="-0.21751968503937008" cy="-0.21751968503937008" fill="none" r="0.05905511811023623" stroke="goldenrod" stroke-width="0.01"/>
<circle cx="11.46751968503937" cy="-0.21751968503937008" fill="none" r="0.05905511811023623" stroke="goldenrod" stroke-width="0.01"/>
<circle cx="-0.21751968503937008" cy="3.96751968503937" fill="none" r="0.0984251968503937" stroke="goldenrod" stroke-width="0.01"/>
<circle cx="11.46751968503937" cy="3.96751968503937" fill="none" r="0.0984251968503937" stroke="goldenrod" stroke-width="0.01"/>
<circle cx="3.75" cy="-0.21751968503937008" fill="none" r="0.05905511811023623" stroke="goldenrod" stroke-width="0.01"/>
<circle cx="7.5" cy="-0.21751968503937008" fill="none" r="0.05905511811023623" stroke="goldenrod" stroke-width="0.01"/>
<circle cx="3.75" cy="3.96751968503937" fill="none" r="0.0984251968503937" stroke="goldenrod" stroke-width="0.01"/>
<circle cx="7.5" cy="3.96751968503937" fill="none" r="0.0984251968503937" stroke="goldenrod" stroke-width="0.01"/>
<path d="M-1,-1.3125 a0.125,0.125,0,0,0,-0.125,0.125 l0,5.75 a0.125,0.125,0,0,0,0.125,0.125 l13.25,0 a0.125,0.125,0,0,0,0.125,-0.125 l0,-5.75 a0.125,0.125,0,0,0,-0.125,-0.125 z" fill="none" stroke="goldenrod" stroke-width="0.01"/>
<circle cx="-0.21751968503937008" cy="-0.21751968503937008" fill="none" r="0.05905511811023623" stroke="goldenrod" stroke-width="0.01"/>
<circle cx="11.46751968503937" cy="-0.21751968503937008" fill="none" r="0.05905511811023623" stroke="goldenrod" stroke-width="0.01"/>
<circle cx="-0.21751968503937008" cy="3.96751968503937" fill="none" r="0.05905511811023623" stroke="goldenrod" stroke-width="0.01"/>
<circle cx="11.46751968503937" cy="3.96751968503937" fill="none" r="0.05905511811023623" stroke="goldenrod" stroke-width="0.01"/>
<circle cx="3.75" cy="-0.21751968503937008" fill="none" r="0.05905511811023623" stroke="goldenrod" stroke-width="0.01"/>
<circle cx="7.5" cy="-0.21751968503937008" fill="none" r="0.05905511811023623" stroke="goldenrod" stroke-width="0.01"/>
<circle cx="3.75" cy="3.96751968503937" fill="none" r="0.05905511811023623" stroke="goldenrod" stroke-width="0.01"/>
<circle cx="7.5" cy="3.96751968503937" fill="none" r="0.05905511811023623" stroke="goldenrod" stroke-width="0.01"/>
<path d="M0.11440945,0.10440945 a0.01,0.01,0,0,0,-0.01,0.01 l0,0.5211811 a0.01,0.01,0,0,0,0.01,0.01 l0.5211811,0 a0.01,0.01,0,0,0,0.01,-0.01 l0,-0.5211811 a0.01,0.01,0,0,0,-0.01,-0.01 z" fill="none" stroke="goldenrod" stroke-width="0.01"/>
<path d="M1.2394094,0.85440946 a0.01,0.01,0,0,0,-0.01,0.01 l0,0.5211811 a0.01,0.01,0,0,0,0.01,0.01 l0.5211811,0 a0.01,0.01,0,0,0,0.01,-0.01 l0,-0.5211811 a0.01,0.01,0,0,0,-0.01,-0.01 z" fill="none" stroke="goldenrod" stroke-width="0.01"/>
<path d="M1.4269094,1.6044095 a0.01,0.01,0,0,0,-0.01,0.01 l0,0.5211811 a0.01,0.01,0,0,0,0.01,0.01 l0.5211811,0 a0.01,0.01,0,0,0,0.01,-0.01 l0,-0.5211811 a0.01,0.01,0,0,0,-0.01,-0.01 z" fill="none" stroke="goldenrod" stroke-width="0.01"/>
<path d="M1.8019094,2.3544095 a0.01,0.01,0,0,0,-0.01,0.01 l0,0.5211811 a0.01,0.01,0,0,0,0.01,0.01 l0.5211811,0 a0.01,0.01,0,0,0,0.01,-0.01 l0,-0.5211811 a0.01,0.01,0,0,0,-0.01,-0.01 z" fill="none" stroke="goldenrod" stroke-width="0.01"/>
<path d="M0.86440945,0.10440945 a0.01,0.01,0,0,0,-0.01,0.01 l0,0.5211811 a0.01,0.01,0,0,0,0.01,0.01 l0.5211811,0 a0.01,0.01,0,0,0,0.01,-0.01 l0,-0.5211811 a0.01,0.01,0,0,0,-0.01,-0.01 z" fill="none" stroke="goldenrod" stroke-width="0.01"/>
<path d="M1.9894094,0.85440946 a0.01,0.01,0,0,0,-0.01,0.01 l0,0.5211811 a0.01,0.01,0,0,0,0.01,0.01 l0.5211811,0 a0.01,0.01,0,0,0,0.01,-0.01 l0,-0.5211811 a0.01,0.01,0,0,0,-0.01,-0.01 z" fill="none" stroke="goldenrod" stroke-width="0.01"/>
<path d="M2.1769094,1.6044095 a0.01,0.01,0,0,0,-0.01,0.01 l0,0.5211811 a0.01,0.01,0,0,0,0.01,0.01 l0.5211811,0 a0.01,0.01,0,0,0,0.01,-0.01 l0,-0.5211811 a0.01,0.01,0,0,0,-0.01,-0.01 z" fill="none" stroke="goldenrod" stroke-width="0.01"/>
<path d="M2.5519094,2.3544095 a0.01,0.01,0,0,0,-0.01,0.01 l0,0.5211811 a0.01,0.01,0,0,0,0.01,0.01 l0.5211811,0 a0.01,0.01,0,0,0,0.01,-0.01 l0,-0.5211811 a0.01,0.01,0,0,0,-0.01,-0.01 z" fill="none" stroke="goldenrod" stroke-width="0.01"/>
<path d="M1.6144094,0.10440945 a0.01,0.01,0,0,0,-0.01,0.01 l0,0.5211811 a0.01,0.01,0,0,0,0.01,0.01 l0.5211811,0 a0.01,0.01,0,0,0,0.01,-0.01 l0,-0.5211811 a0.01,0.01,0,0,0,-0.01,-0.01 z" fill="none" stroke="goldenrod" stroke-width="0.01"/>
<path d="M2.7394094,0.85440946 a0.01,0.01,0,0,0,-0.01,0.01 l0,0.5211811 a0.01,0.01,0,0,0,0.01,0.01 l0.5211811,0 a0.01,0.01,0,0,0,0.01,-0.01 l0,-0.5211811 a0.01,0.01,0,0,0,-0.01,-0.01 z" fill="none" stroke="goldenrod" stroke-width="0.01"/>
<path d="M2.9269094,1.6044095 a0.01,0.01,0,0,0,-0.01,0.01 l0,0.5211811 a0.01,0.01,0,0,0,0.01,0.01 l0.5211811,0 a0.01,0.01,0,0,0,0.01,-0.01 l0,-0.5211811 a0.01,0.01,0,0,0,-0.01,-0.01 z" fill="none" stroke="goldenrod" stroke-width="0.01"/>
<path d="M3.3019094,2.3544095 a0.01,0.01,0,0,0,-0.01,0.01 l0,0.5211811 a0.01,0.01,0,0,0,0.01,0.01 l0.5211811,0 a0.01,0.01,0,0,0,0.01,-0.01 l0,-0.5211811 a0.01,0.01,0,0,0,-0.01,-0.01 z" fill="none" stroke="goldenrod" stroke-width="0.01"/>
<path d="M2.3644094,0.10440945 a0.01,0.01,0,0,0,-0.01,0.01 l0,0.5211811 a0.01,0.01,0,0,0,0.01,0.01 l0.5211811,0 a0.01,0.01,0,0,0,0.01,-0.01 l0,-0.5211811 a0.01,0.01,0,0,0,-0.01,-0.01 z" fill="none" stroke="goldenrod" stroke-width="0.01"/>
<path d="M3.4894094,0.85440946 a0.01,0.01,0,0,0,-0.01,0.01 l0,0.5211811 a0.01,0.01,0,0,0,0.01,0.01 l0.5211811,0 a0.01,0.01,0,0,0,0.01,-0.01 l0,-0.5211811 a0.01,0.01,0,0,0,-0.01,-0.01 z" fill="none" stroke="goldenrod" stroke-width="0.01"/>
<path d="M3.6769094,1.6044095 a0.01,0.01,0,0,0,-0.01,0.01 l0,0.5211811 a0.01,0.01,0,0,0,0.01,0.01 l0.5211811,0 a0.01,0.01,0,0,0,0.01,-0.01 l0,-0.5211811 a0.01,0.01,0,0,0,-0.01,-0.01 z" fill="none" stroke="goldenrod" stroke-width="0.01"/>
<path d="M4.0519094,2.3544095 a0.01,0.01,0,0,0,-0.01,0.01 l0,0.5211811 a0.01,0.01,0,0,0,0.01,0.01 l0.5211811,0 a0.01,0.01,0,0,0,0.01,-0.01 l0,-0.5211811 a0.01,0.01,0,0,0,-0.01,-0.01 z" fill="none" stroke="goldenrod" stroke-width="0.01"/>
<path d="M3.1144094,0.10440945 a0.01,0.01,0,0,0,-0.01,0.01 l0,0.5211811 a0.01,0.01,0,0,0,0.01,0.01 l0.5211811,0 a0.01,0.01,0,0,0,0.01,-0.01 l0,-0.5211811 a0.01,0.01,0,0,0,-0.01,-0.01 z" fill="none" stroke="goldenrod" stroke-width="0.01"/>
<path d="M4.2394094,0.85440946 a0.01,0.01,0,0,0,-0.01,0.01 l0,0.5211811 a0.01,0.01,0,0,0,0.01,0.01 l0.5211811,0 a0.01,0.01,0,0,0,0.01,-0.01 l0,-0.5211811 a0.01,0.01,0,0,0,-0.01,-0.01 z" fill="none" stroke="goldenrod" stroke-width="0.01"/>
<path d="M4.4269094,1.6044095 a0.01,0.01,0,0,0,-0.01,0.01 l0,0.5211811 a0.01,0.01,0,0,0,0.01,0.01 l0.5211811,0 a0.01,0.01,0,0,0,0.01,-0.01 l0,-0.5211811 a0.01,0.01,0,0,0,-0.01,-0.01 z" fill="none" stroke="goldenrod" stroke-width="0.01"/>
<path d="M4.8019094,2.3544095 a0.01,0.01,0,0,0,-0.01,0.01 l0,0.5211811 a0.01,0.01,0,0,0,0.01,0.01 l0.5211811,0 a0.01,0.01,0,0,0,0.01,-0.01 l0,-0.5211811 a0.01,0.01,0,0,0,-0.01,-0.01 z" fill="none" stroke="goldenrod" stroke-width="0.01"/>
<path d="M3.8644094,0.10440945 a0.01,0.01,0,0,0,-0.01,0.01 l0,0.5211811 a0.01,0.01,0,0,0,0.01,0.01 l0.5211811,0 a0.01,0.01,0,0,0,0.01,-0.01 l0,-0.5211811 a0.01,0.01,0,0,0,-0.01,-0.01 z" fill="none" stroke="goldenrod" stroke-width="0.01"/>
<path d="M4.9894094,0.85440946 a0.01,0.01,0,0,0,-0.01,0.01 l0,0.5211811 a0.01,0.01,0,0,0,0.01,0.01 l0.5211811,0 a0.01,0.01,0,0,0,0.01,-0.01 l0,-0.5211811 a0.01,0.01,0,0,0,-0.01,-0.01 z" fill="none" stroke="goldenrod" stroke-width="0.01"/>
<path d="M5.1769094,1.6044095 a0.01,0.01,0,0,0,-0.01,0.01 l0,0.5211811 a0.01,0.01,0,0,0,0.01,0.01 l0.5211811,0 a0.01,0.01,0,0,0,0.01,-0.01 l0,-0.5211811 a0.01,0.01,0,0,0,-0.01,-0.01 z" fill="none" stroke="goldenrod" stroke-width="0.01"/>
<path d="M5.5519094,2.3544095 a0.01,0.01,0,0,0,-0.01,0.01 l0,0.5211811 a0.01,0.01,0,0,0,0.01,0.01 l0.5211811,0 a0.01,0.01,0,0,0,0.01,-0.01 l0,-0.5211811 a0.01,0.01,0,0,0,-0.01,-0.01 z" fill="none" stroke="goldenrod" stroke-width="0.01"/>
<path d="M4.6144094,0.10440945 a0.01,0.01,0,0,0,-0.01,0.01 l0,0.5211811 a0.01,0.01,0,0,0,0.01,0.01 l0.5211811,0 a0.01,0.01,0,0,0,0.01,-0.01 l0,-0.5211811 a0.01,0.01,0,0,0,-0.01,-0.01 z" fill="none" stroke="goldenrod" stroke-width="0.01"/>
<path d="M5.7394094,0.85440946 a0.01,0.01,0,0,0,-0.01,0.01 l0,0.5211811 a0.01,0.01,0,0,0,0.01,0.01 l0.5211811,0 a0.01,0.01,0,0,0,0.01,-0.01 l0,-0.5211811 a0.01,0.01,0,0,0,-0.01,-0.01 z" fill="none" stroke="goldenrod" stroke-width="0.01"/>
<path d="M5.9269094,1.6044095 a0.01,0.01,0,0,0,-0.01,0.01 l0,0.5211811 a0.01,0.01,0,0,0,0.01,0.01 l0.5211811,0 a0.01,0.01,0,0,0,0.01,-0.01 l0,-0.5211811 a0.01,0.01,0,0,0,-0.01,-0.01 z" fill="none" stroke="goldenrod" stroke-width="0.01"/>
<path d="M6.3019094,2.3544095 a0.01,0.01,0,0,0,-0.01,0.01 l0,0.5211811 a0.01,0.01,0,0,0,0.01,0.01 l0.5211811,0 a0.01,0.01,0,0,0,0.01,-0.01 l0,-0.5211811 a0.01,0.01,0,0,0,-0.01,-0.01 z" fill="none" stroke="goldenrod" stroke-width="0.01"/>
<path d="M5.3644094,0.10440945 a0.01,0.01,0,0,0,-0.01,0.01 l0,0.5211811 a0.01,0.01,0,0,0,0.01,0.01 l0.5211811,0 a0.01,0.01,0,0,0,0.01,-0.01 l0,-0.5211811 a0.01,0.01,0,0,0,-0.01,-0.01 z" fill="none" stroke="goldenrod" stroke-width="0.01"/>
<path d="M6.4894094,0.85440946 a0.01,0.01,0,0,0,-0.01,0.01 l0,0.5211811 a0.01,0.01,0,0,0,0.01,0.01 l0.5211811,0 a0.01,0.01,0,0,0,0.01,-0.01 l0,-0.5211811 a0.01,0.01,0,0,0,-0.01,-0.01 z" fill="none" stroke="goldenrod" stroke-width="0.01"/>
<path d="M6.6769094,1.6044095 a0.01,0.01,0,0,0,-0.01,0.01 l0,0.5211811 a0.01,0.01,0,0,0,0.01,0.01 l0.5211811,0 a0.01,0.01,0,0,0,0.01,-0.01 l0,-0.5211811 a0.01,0.01,0,0,0,-0.01,-0.01 z" fill="none" stroke="goldenrod" stroke-width="0.01"/>
<path d="M7.0519094,2.3544095 a0.01,0.01,0,0,0,-0.01,0.01 l0,0.5211811 a0.01,0.01,0,0,0,0.01,0.01 l0.5211811,0 a0.01,0.01,0,0,0,0.01,-0.01 l0,-0.5211811 a0.01,0.01,0,0,0,-0.01,-0.01 z" fill="none" stroke="goldenrod" stroke-width="0.01"/>
<path d="M6.1144094,0.10440945 a0.01,0.01,0,0,0,-0.01,0.01 l0,0.5211811 a0.01,0.01,0,0,0,0.01,0.01 l0.5211811,0 a0.01,0.01,0,0,0,0.01,-0.01 l0,-0.5211811 a0.01,0.01,0,0,0,-0.01,-0.01 z" fill="none" stroke="goldenrod" stroke-width="0.01"/>
<path d="M7.2394094,0.85440946 a0.01,0.01,0,0,0,-0.01,0.01 l0,0.5211811 a0.01,0.01,0,0,0,0.01,0.01 l0.5211811,0 a0.01,0.01,0,0,0,0.01,-0.01 l0,-0.5211811 a0.01,0.01,0,0,0,-0.01,-0.01 z" fill="none" stroke="goldenrod" stroke-width="0.01"/>
<path d="M7.4269094,1.6044095 a0.01,0.01,0,0,0,-0.01,0.01 l0,0.5211811 a0.01,0.01,0,0,0,0.01,0.01 l0.5211811,0 a0.01,0.01,0,0,0,0.01,-0.01 l0,-0.5211811 a0.01,0.01,0,0,0,-0.01,-0.01 z" fill="none" stroke="goldenrod" stroke-width="0.01"/>
<path d="M7.8019094,2.3544095 a0.01,0.01,0,0,0,-0.01,0.01 l0,0.5211811 a0.01,0.01,0,0,0,0.01,0.01 l0.5211811,0 a0.01,0.01,0,0,0,0.01,-0.01 l0,-0.5211811 a0.01,0.01,0,0,0,-0.01,-0.01 z" fill="none" stroke="goldenrod" stroke-width="0.01"/>
<path d="M6.8644094,0.10440945 a0.01,0.01,0,0,0,-0.01,0.01 l0,0.5211811 a0.01,0.01,0,0,0,0.01,0.01 l0.5211811,0 a0.01,0.01,0,0,0,0.01,-0.01 l0,-0.5211811 a0.01,0.01,0,0,0,-0.01,-0.01 z" fill="none" stroke="goldenrod" stroke-width="0.01"/>
<path d="M7.9894094,0.85440946 a0.01,0.01,0,0,0,-0.01,0.01 l0,0.5211811 a0.01,0.01,0,0,0,0.01,0.01 l0.5211811,0 a0.01,0.01,0,0,0,0.01,-0.01 l0,-0.5211811 a0.01,0.01,0,0,0,-0.01,-0.01 z" fill="none" stroke="goldenrod" stroke-width="0.01"/>
<path d="M8.176909,1.6044095 a0.01,0.01,0,0,0,-0.01,0.01 l0,0.5211811 a0.01,0.01,0,0,0,0.01,0.01 l0.5211811,0 a0.01,0.01,0,0,0,0.01,-0.01 l0,-0.5211811 a0.01,0.01,0,0,0,-0.01,-0.01 z" fill="none" stroke="goldenrod" stroke-width="0.01"/>
<path d="M8.551909,2.3544095 a0.01,0.01,0,0,0,-0.01,0.01 l0,0.5211811 a0.01,0.01,0,0,0,0.01,0.01 l0.5211811,0 a0.01,0.01,0,0,0,0.01,-0.01 l0,-0.5211811 a0.01,0.01,0,0,0,-0.01,-0.01 z" fill="none" stroke="goldenrod" stroke-width="0.01"/>
<path d="M7.6144094,0.10440945 a0.01,0.01,0,0,0,-0.01,0.01 l0,0.5211811 a0.01,0.01,0,0,0,0.01,0.01 l0.5211811,0 a0.01,0.01,0,0,0,0.01,-0.01 l0,-0.5211811 a0.01,0.01,0,0,0,-0.01,-0.01 z" fill="none" stroke="goldenrod" stroke-width="0.01"/>
<path d="M8.739409,0.85440946 a0.01,0.01,0,0,0,-0.01,0.01 l0,0.5211811 a0.01,0.01,0,0,0,0.01,0.01 l0.5211811,0 a0.01,0.01,0,0,0,0.01,-0.01 l0,-0.5211811 a0.01,0.01,0,0,0,-0.01,-0.01 z" fill="none" stroke="goldenrod" stroke-width="0.01"/>
<path d="M8.926909,1.6044095 a0.01,0.01,0,0,0,-0.01,0.01 l0,0.5211811 a0.01,0.01,0,0,0,0.01,0.01 l0.5211811,0 a0.01,0.01,0,0,0,0.01,-0.01 l0,-0.5211811 a0.01,0.01,0,0,0,-0.01,-0.01 z" fill="none" stroke="goldenrod" stroke-width="0.01"/>
<path d="M8.364409,0.10440945 a0.01,0.01,0,0,0,-0.01,0.01 l0,0.5211811 a0.01,0.01,0,0,0,0.01,0.01 l0.5211811,0 a0.01,0.01,0,0,0,0.01,-0.01 l0,-0.5211811 a0.01,0.01,0,0,0,-0.01,-0.01 z" fill="none" stroke="goldenrod" stroke-width="0.01"/>
<path d="M9.489409,0.85440946 a0.01,0.01,0,0,0,-0.01,0.01 l0,0.5211811 a0.01,0.01,0,0,0,0.01,0.01 l0.5211811,0 a0.01,0.01,0,0,0,0.01,-0.01 l0,-0.5211811 a0.01,0.01,0,0,0,-0.01,-0.01 z" fill="none" stroke="goldenrod" stroke-width="0.01"/>
<path d="M9.114409,0.10440945 a0.01,0.01,0,0,0,-0.01,0.01 l0,0.5211811 a0.01,0.01,0,0,0,0.01,0.01 l0.5211811,0 a0.01,0.01,0,0,0,0.01,-0.01 l0,-0.5211811 a0.01,0.01,0,0,0,-0.01,-0.01 z" fill="none" stroke="goldenrod" stroke-width="0.01"/>
<path d="M9.864409,0.10440945 a0.01,0.01,0,0,0,-0.01,0.01 l0,0.5211811 a0.01,0.01,0,0,0,0.01,0.01 l0.5211811,0 a0.01,0.01,0,0,0,0.01,-0.01 l0,-0.5211811 a0.01,0.01,0,0,0,-0.01,-0.01 z" fill="none" stroke="goldenrod" stroke-width="0.01"/>
<path d="M10.614409,0.10440945 a0.01,0.01,0,0,0,-0.01,0.01 l0,0.5211811 a0.01,0.01,0,0,0,0.01,0.01 l0.5211811,0 a0.01,0.01,0,0,0,0.01,-0.01 l0,-0.5211811 a0.01,0.01,0,0,0,-0.01,-0.01 z" fill="none" stroke="goldenrod" stroke-width="0.01"/>
<path d="M0.30190945,0.85440946 a0.01,0.01,0,0,0,-0.01,0.01 l0,0.5211811 a0.01,0.01,0,0,0,0.01,0.01 l0.5211811,0 a0.01,0.01,0,0,0,0.01,-0.01 l0,-0.5211811 a0.01,0.01,0,0,0,-0.01,-0.01 z" fill="none" stroke="goldenrod" stroke-width="0.01"/>
<path d="M10.426909,0.85440946 a0.01,0.01,0,0,0,-0.01,0.01 l0,0.5211811 a0.01,0.01,0,0,0,0.01,0.01 l0.5211811,0 a0.01,0.01,0,0,0,0.01,-0.01 l0,-0.5211811 a0.01,0.01,0,0,0,-0.01,-0.01 z" fill="none" stroke="goldenrod" stroke-width="0.01"/>
<path d="M0.39565945,1.6044095 a0.01,0.01,0,0,0,-0.01,0.01 l0,0.5211811 a0.01,0.01,0,0,0,0.01,0.01 l0.5211811,0 a0.01,0.01,0,0,0,0.01,-0.01 l0,-0.5211811 a0.01,0.01,0,0,0,-0.01,-0.01 z" fill="none" stroke="goldenrod" stroke-width="0.01"/>
<path d="M10.145659,1.6044095 a0.01,0.01,0,0,0,-0.01,0.01 l0,0.047647636 a0.01,0.01,0,0,1,-0.01,0.01 l-0.04274278,0 a0.01,0.01,0,0,1,-0.01,-0.01 l0,-0.08305708 a0.01,0.01,0,0,0,-0.01,-0.01 l-0.31333333,0 a0.01,0.01,0,0,0,-0.01,0.01 l0,0.592 a0.01,0.01,0,0,0,0.01,0.01 l0.31333333,0 a0.01,0.01,0,0,0,0.01,-0.01 l0,-0.08305708 a0.01,0.01,0,0,1,0.01,-0.01 l0.04274278,0 a0.01,0.01,0,0,1,0.01,0.01 l0,0.047647636 a0.01,0.01,0,0,0,0.01,0.01 l0.5211811,0 a0.01,0.01,0,0,0,0.01,-0.01 l0,-0.047647636 a0.01,0.01,0,0,1,0.01,-0.01 l0.04274278,0 a0.01,0.01,0,0,1,0.01,0.01 l0,0.08305708 a0.01,0.01,0,0,0,0.01,0.01 l0.31333333,0 a0.01,0.01,0,0,0,0.01,-0.01 l0,-0.592 a0.01,0.01,0,0,0,-0.01,-0.01 l-0.31333333,0 a0.01,0.01,0,0,0,-0.01,0.01 l0,0.08305708 a0.01,0.01,0,0,1,-0.01,0.01 l-0.04274278,0 a0.01,0.01,0,0,1,-0.01,-0.01 l0,-0.047647636 a0.01,0.01,0,0,0,-0.01,-0.01 z" fill="none" stroke="goldenrod" stroke-width="0.01"/>
<path d="M0.58315945,2.3544095 a0.01,0.01,0,0,0,-0.01,0.01 l0,0.047647636 a0.01,0.01,0,0,1,-0.01,0.01 l-0.04274278,0 a0.01,0.01,0,0,1,-0.01,-0.01 l0,-0.08305708 a0.01,0.01,0,0,0,-0.01,-0.01 l-0.31333333,0 a0.01,0.01,0,0,0,-0.01,0.01 l0,0.592 a0.01,0.01,0,0,0,0.01,0.01 l0.31333333,0 a0.01,0.01,0,0,0,0.01,-0.01 l0,-0.08305708 a0.01,0.01,0,0,1,0.01,-0.01 l0.04274278,0 a0.01,0.01,0,0,1,0.01,0.01 l0,0.047647636 a0.01,0.01,0,0,0,0.01,0.01 l0.5211811,0 a0.01,0.01,0,0,0,0.01,-0.01 l0,-0.047647636 a0.01,0.01,0,0,1,0.01,-0.01 l0.04274278,0 a0.01,0.01,0,0,1,0.01,0.01 l0,0.08305708 a0.01,0.01,0,0,0,0.01,0.01 l0.31333333,0 a0.01,0.01,0,0,0,0.01,-0.01 l0,-0.592 a0.01,0.01,0,0,0,-0.01,-0.01 l-0.31333333,0 a0.01,0.01,0,0,0,-0.01,0.01 l0,0.08305708 a0.01,0.01,0,0,1,-0.01,0.01 l-0.04274278,0 a0.01,0.01,0,0,1,-0.01,-0.01 l0,-0.047647636 a0.01,0.01,0,0,0,-0.01,-0.01 z" fill="none" stroke="goldenrod" stroke-width="0.01"/>
<path d="M9.583159,2.3544095 a0.01,0.01,0,0,0,-0.01,0.01 l0,0.5211811 a0.01,0.01,0,0,0,0.01,0.01 l0.5211811,0 a0.01,0.01,0,0,0,0.01,-0.01 l0,-0.5211811 a0.01,0.01,0,0,0,-0.01,-0.01 z" fill="none" stroke="goldenrod" stroke-width="0.01"/>
<path d="M10.614409,2.3544095 a0.01,0.01,0,0,0,-0.01,0.01 l0,0.5211811 a0.01,0.01,0,0,0,0.01,0.01 l0.5211811,0 a0.01,0.01,0,0,0,0.01,-0.01 l0,-0.5211811 a0.01,0.01,0,0,0,-0.01,-0.01 z" fill="none" stroke="goldenrod" stroke-width="0.01"/>
<path d="M0.30190945,3.1044095 a0.01,0.01,0,0,0,-0.01,0.01 l0,0.5211811 a0.01,0.01,0,0,0,0.01,0.01 l0.5211811,0 a0.01,0.01,0,0,0,0.01,-0.01 l0,-0.5211811 a0.01,0.01,0,0,0,-0.01,-0.01 z" fill="none" stroke="goldenrod" stroke-width="0.01"/>
<path d="M1.2394094,3.1044095 a0.01,0.01,0,0,0,-0.01,0.01 l0,0.5211811 a0.01,0.01,0,0,0,0.01,0.01 l0.5211811,0 a0.01,0.01,0,0,0,0.01,-0.01 l0,-0.5211811 a0.01,0.01,0,0,0,-0.01,-0.01 z" fill="none" stroke="goldenrod" stroke-width="0.01"/>
<path d="M2.1769094,3.1044095 a0.01,0.01,0,0,0,-0.01,0.01 l0,0.5211811 a0.01,0.01,0,0,0,0.01,0.01 l0.5211811,0 a0.01,0.01,0,0,0,0.01,-0.01 l0,-0.5211811 a0.01,0.01,0,0,0,-0.01,-0.01 z" fill="none" stroke="goldenrod" stroke-width="0.01"/>
<path d="M3.2183332,3.069 a0.01,0.01,0,0,0,-0.01,0.01 l0,0.592 a0.01,0.01,0,0,0,0.01,0.01 l0.31333333,0 a0.01,0.01,0,0,0,0.01,-0.01 l0,-0.592 a0.01,0.01,0,0,0,-0.01,-0.01 z" fill="none" stroke="goldenrod" stroke-width="0.01"/>
<path d="M7.7183332,3.069 a0.01,0.01,0,0,0,-0.01,0.01 l0,0.592 a0.01,0.01,0,0,0,0.01,0.01 l0.31333333,0 a0.01,0.01,0,0,0,0.01,-0.01 l0,-0.592 a0.01,0.01,0,0,0,-0.01,-0.01 z" fill="none" stroke="goldenrod" stroke-width="0.01"/>
<path d="M5.3644094,3.1044095 a0.01,0.01,0,0,0,-0.01,0.01 l0,0.5211811 a0.01,0.01,0,0,0,0.01,0.01 l0.5211811,0 a0.01,0.01,0,0,0,0.01,-0.01 l0,-0.5211811 a0.01,0.01,0,0,0,-0.01,-0.01 z" fill="none" stroke="goldenrod" stroke-width="0.01"/>
<path d="M8.551909,3.1044095 a0.01,0.01,0,0,0,-0.01,0.01 l0,0.5211811 a0.01,0.01,0,0,0,0.01,0.01 l0.5211811,0 a0.01,0.01,0,0,0,0.01,-0.01 l0,-0.5211811 a0.01,0.01,0,0,0,-0.01,-0.01 z" fill="none" stroke="goldenrod" stroke-width="0.01"/>
<path d="M9.489409,3.1044095 a0.01,0.01,0,0,0,-0.01,0.01 l0,0.5211811 a0.01,0.01,0,0,0,0.01,0.01 l0.5211811,0 a0.01,0.01,0,0,0,0.01,-0.01 l0,-0.5211811 a0.01,0.01,0,0,0,-0.01,-0.01 z" fill="none" stroke="goldenrod" stroke-width="0.01"/>
<path d="M10.426909,3.1044095 a0.01,0.01,0,0,0,-0.01,0.01 l0,0.5211811 a0.01,0.01,0,0,0,0.01,0.01 l0.5211811,0 a0.01,0.01,0,0,0,0.01,-0.01 l0,-0.5211811 a0.01,0.01,0,0,0,-0.01,-0.01 z" fill="none" stroke="goldenrod" stroke-width="0.01"/>
<path d="M-1,-1.3125 a0.125,0.125,0,0,0,-0.125,0.125 l0,5.75 a0.125,0.125,0,0,0,0.125,0.125 l13.25,0 a0.125,0.125,0,0,0,0.125,-0.125 l0,-5.75 a0.125,0.125,0,0,0,-0.125,-0.125 z" fill="none" stroke="goldenrod" stroke-width="0.01"/>
<path d="M0.03125,0 a0.03125,0.03125,0,0,0,-0.03125,0.03125 l0,3.6875 a0.03125,0.03125,0,0,0,0.03125,0.03125 l11.1875,0 a0.03125,0.03125,0,0,0,0.03125,-0.03125 l0,-3.6875 a0.03125,0.03125,0,0,0,-0.03125,-0.03125 z" fill="none" stroke="goldenrod" stroke-width="0.01"/>
<circle cx="-0.21751968503937008" cy="-0.21751968503937008" fill="none" r="0.05905511811023623" stroke="goldenrod" stroke-width="0.01"/>
<circle cx="11.46751968503937" cy="-0.21751968503937008" fill="none" r="0.05905511811023623" stroke="goldenrod" stroke-width="0.01"/>
<circle cx="-0.21751968503937008" cy="3.96751968503937" fill="none" r="0.05905511811023623" stroke="goldenrod" stroke-width="0.01"/>
<circle cx="11.46751968503937" cy="3.96751968503937" fill="none" r="0.05905511811023623" stroke="goldenrod" stroke-width="0.01"/>
<circle cx="3.75" cy="-0.21751968503937008" fill="none" r="0.05905511811023623" stroke="goldenrod" stroke-width="0.01"/>
<circle cx="7.5" cy="-0.21751968503937008" fill="none" r="0.05905511811023623" stroke="goldenrod" stroke-width="0.01"/>
<circle cx="3.75" cy="3.96751968503937" fill="none" r="0.05905511811023623" stroke="goldenrod" stroke-width="0.01"/>
<circle cx="7.5" cy="3.96751968503937" fill="none" r="0.05905511811023623" stroke="goldenrod" stroke-width="0.01"/>
<circle cx="1.016240157480315" cy="0.75" fill="none" r="0.0984251968503937" stroke="goldenrod" stroke-width="0.01"/>
<circle cx="4.983759842519685" cy="0.75" fill="none" r="0.0984251968503937" stroke="goldenrod" stroke-width="0.01"/>
<path d="M0.97687006,0.5531496 a0.15748031,0.15748031,0,0,0,-0.15748031,0.15748031 l0,0.07874016 a0.15748031,0.15748031,0,0,0,0.15748031,0.15748031 l4.04626,0 a0.15748031,0.15748031,0,0,0,0.15748031,-0.15748031 l0,-0.07874016 a0.15748031,0.15748031,0,0,0,-0.15748031,-0.15748031 z" fill="none" stroke="goldenrod" stroke-width="0.01"/>
<circle cx="6.266240157480315" cy="0.75" fill="none" r="0.0984251968503937" stroke="goldenrod" stroke-width="0.01"/>
<circle cx="10.233759842519685" cy="0.75" fill="none" r="0.0984251968503937" stroke="goldenrod" stroke-width="0.01"/>
<path d="M6.22687,0.5531496 a0.15748031,0.15748031,0,0,0,-0.15748031,0.15748031 l0,0.07874016 a0.15748031,0.15748031,0,0,0,0.15748031,0.15748031 l4.04626,0 a0.15748031,0.15748031,0,0,0,0.15748031,-0.15748031 l0,-0.07874016 a0.15748031,0.15748031,0,0,0,-0.15748031,-0.15748031 z" fill="none" stroke="goldenrod" stroke-width="0.01"/>
<circle cx="1.016240157480315" cy="1.5" fill="none" r="0.0984251968503937" stroke="goldenrod" stroke-width="0.01"/>
<circle cx="4.983759842519685" cy="1.5" fill="none" r="0.0984251968503937" stroke="goldenrod" stroke-width="0.01"/>
<path d="M0.9375,1.2637795 a0.15748031,0.15748031,0,0,0,-0.15748031,0.15748031 l0,0.15748031 a0.15748031,0.15748031,0,0,0,0.15748031,0.15748031 l4.125,0 a0.15748031,0.15748031,0,0,0,0.15748031,-0.15748031 l0,-0.15748031 a0.15748031,0.15748031,0,0,0,-0.15748031,-0.15748031 z" fill="none" stroke="goldenrod" stroke-width="0.01"/>
<circle cx="6.266240157480315" cy="1.5" fill="none" r="0.0984251968503937" stroke="goldenrod" stroke-width="0.01"/>
<circle cx="10.233759842519685" cy="1.5" fill="none" r="0.0984251968503937" stroke="goldenrod" stroke-width="0.01"/>
<path d="M6.1875,1.2637795 a0.15748031,0.15748031,0,0,0,-0.15748031,0.15748031 l0,0.15748031 a0.15748031,0.15748031,0,0,0,0.15748031,0.15748031 l4.125,0 a0.15748031,0.15748031,0,0,0,0.15748031,-0.15748031 l0,-0.15748031 a0.15748031,0.15748031,0,0,0,-0.15748031,-0.15748031 z" fill="none" stroke="goldenrod" stroke-width="0.01"/>
<circle cx="1.016240157480315" cy="2.25" fill="none" r="0.0984251968503937" stroke="goldenrod" stroke-width="0.01"/>
<circle cx="4.983759842519685" cy="2.25" fill="none" r="0.0984251968503937" stroke="goldenrod" stroke-width="0.01"/>
<path d="M0.89812994,1.9744095 a0.15748031,0.15748031,0,0,0,-0.15748031,0.15748031 l0,0.23622048 a0.15748031,0.15748031,0,0,0,0.15748031,0.15748031 l4.20374,0 a0.15748031,0.15748031,0,0,0,0.15748031,-0.15748031 l0,-0.23622048 a0.15748031,0.15748031,0,0,0,-0.15748031,-0.15748031 z" fill="none" stroke="goldenrod" stroke-width="0.01"/>
<circle cx="6.266240157480315" cy="2.25" fill="none" r="0.0984251968503937" stroke="goldenrod" stroke-width="0.01"/>
<circle cx="10.233759842519685" cy="2.25" fill="none" r="0.0984251968503937" stroke="goldenrod" stroke-width="0.01"/>
<path d="M6.14813,1.9744095 a0.15748031,0.15748031,0,0,0,-0.15748031,0.15748031 l0,0.23622048 a0.15748031,0.15748031,0,0,0,0.15748031,0.15748031 l4.20374,0 a0.15748031,0.15748031,0,0,0,0.15748031,-0.15748031 l0,-0.23622048 a0.15748031,0.15748031,0,0,0,-0.15748031,-0.15748031 z" fill="none" stroke="goldenrod" stroke-width="0.01"/>
<circle cx="1.016240157480315" cy="3" fill="none" r="0.0984251968503937" stroke="goldenrod" stroke-width="0.01"/>
<circle cx="4.983759842519685" cy="3" fill="none" r="0.0984251968503937" stroke="goldenrod" stroke-width="0.01"/>
<path d="M0.8587598,2.6850393 a0.15748031,0.15748031,0,0,0,-0.15748031,0.15748031 l0,0.31496063 a0.15748031,0.15748031,0,0,0,0.15748031,0.15748031 l4.2824802,0 a0.15748031,0.15748031,0,0,0,0.15748031,-0.15748031 l0,-0.31496063 a0.15748031,0.15748031,0,0,0,-0.15748031,-0.15748031 z" fill="none" stroke="goldenrod" stroke-width="0.01"/>
<circle cx="6.266240157480315" cy="3" fill="none" r="0.0984251968503937" stroke="goldenrod" stroke-width="0.01"/>
<circle cx="10.233759842519685" cy="3" fill="none" r="0.0984251968503937" stroke="goldenrod" stroke-width="0.01"/>
<path d="M6.10876,2.6850393 a0.15748031,0.15748031,0,0,0,-0.15748031,0.15748031 l0,0.31496063 a0.15748031,0.15748031,0,0,0,0.15748031,0.15748031 l4.2824802,0 a0.15748031,0.15748031,0,0,0,0.15748031,-0.15748031 l0,-0.31496063 a0.15748031,0.15748031,0,0,0,-0.15748031,-0.15748031 z" fill="none" stroke="goldenrod" stroke-width="0.01"/>
<path d="M-1,-1.3125 a0.125,0.125,0,0,0,-0.125,0.125 l0,5.75 a0.125,0.125,0,0,0,0.125,0.125 l13.25,0 a0.125,0.125,0,0,0,0.125,-0.125 l0,-5.75 a0.125,0.125,0,0,0,-0.125,-0.125 z" fill="none" stroke="goldenrod" stroke-width="0.01"/>
<path d="M-0.34375,-0.375 a0.03125,0.03125,0,0,0,-0.03125,0.03125 l0,4.4375 a0.03125,0.03125,0,0,0,0.03125,0.03125 l11.9375,0 a0.03125,0.03125,0,0,0,0.03125,-0.03125 l0,-4.4375 a0.03125,0.03125,0,0,0,-0.03125,-0.03125 z" fill="none" stroke="goldenrod" stroke-width="0.01"/>
<path d="M-0.3125,-0.375 a0.0625,0.0625,0,0,0,-0.0625,0.0625 l0,4.375 a0.0625,0.0625,0,0,0,0.0625,0.0625 l11.875,0 a0.0625,0.0625,0,0,0,0.0625,-0.0625 l0,-4.375 a0.0625,0.0625,0,0,0,-0.0625,-0.0625 z" fill="none" stroke="goldenrod" stroke-width="0.01"/>
<path d="M0.03125,0 a0.03125,0.03125,0,0,0,-0.03125,0.03125 l0,3.6875 a0.03125,0.03125,0,0,0,0.03125,0.03125 l11.1875,0 a0.03125,0.03125,0,0,0,0.03125,-0.03125 l0,-3.6875 a0.03125,0.03125,0,0,0,-0.03125,-0.03125 z" fill="none" stroke="goldenrod" stroke-width="0.01"/>
<circle cx="-0.21751968503937008" cy="-0.21751968503937008" fill="none" r="0.05905511811023623" stroke="goldenrod" stroke-width="0.01"/>
<circle cx="11.46751968503937" cy="-0.21751968503937008" fill="none" r="0.05905511811023623" stroke="goldenrod" stroke-width="0.01"/>
<circle cx="-0.21751968503937008" cy="3.96751968503937" fill="none" r="0.05905511811023623" stroke="goldenrod" stroke-width="0.01"/>
<circle cx="11.46751968503937" cy="3.96751968503937" fill="none" r="0.05905511811023623" stroke="goldenrod" stroke-width="0.01"/>
<circle cx="3.75" cy="-0.21751968503937008" fill="none" r="0.05905511811023623" stroke="goldenrod" stroke-width="0.01"/>
<circle cx="7.5" cy="-0.21751968503937008" fill="none" r="0.05905511811023623" stroke="goldenrod" stroke-width="0.01"/>
<circle cx="3.75" cy="3.96751968503937" fill="none" r="0.05905511811023623" stroke="goldenrod" stroke-width="0.01"/>
<circle cx="7.5" cy="3.96751968503937" fill="none" r="0.05905511811023623" stroke="goldenrod" stroke-width="0.01"/>
</g>
</svg>