<svg height="6.5in" viewBox="-1.75 -1.5625 14.75 6.5" width="14.75in" xmlns="http://www.w3.org/2000/svg">
<g>
<path d="M-1.375,-1.3125 a0.125,0.125,0,0,0,-0.125,0.125 l0,5.75 a0.125,0.125,0,0,0,0.125,0.125 l14,0 a0.125,0.125,0,0,0,0.125,-0.125 l0,-5.75 a0.125,0.125,0,0,0,-0.125,-0.125 l-11.15625,0 a0.0625,0.0625,0,0,0,-0.0625,0.0625 l0,1.1875 a0.0625,0.0625,0,0,1,-0.0625,0.0625 l-1.1875,0 a0.0625,0.0625,0,0,1,-0.0625,-0.0625 l0,-1.1875 a0.0625,0.0625,0,0,0,-0.0625,-0.0625 z" fill="none" stroke="goldenrod" stroke-width="0.01"/>
<circle cx="-0.5925196850393701" cy="-0.21751968503937008" fill="none" r="0.0984251968503937" stroke="goldenrod" stroke-width="0.01"/>
<circle cx="11.84251968503937" cy="-0.21751968503937008" fill="none" r="0.0984251968503937" stroke="goldenrod" stroke-width="0.01"/>
<circle cx="-0.5925196850393701" cy="3.96751968503937" fill="none" r="0.0984251968503937" stroke="goldenrod" stroke-width="0.01"/>
<circle cx="11.84251968503937" cy="3.96751968503937" fill="none" r="0.0984251968503937" stroke="goldenrod" stroke-width="0.01"/>
<circle cx="3.75" cy="-0.21751968503937008" fill="none" r="0.0984251968503937" stroke="goldenrod" stroke-width="0.01"/>
<circle cx="7.5" cy="-0.21751968503937008" fill="none" r="0.0984251968503937" stroke="goldenrod" stroke-width="0.01"/>
<circle cx="3.75" cy="3.96751968503937" fill="none" r="0.0984251968503937" stroke="goldenrod" stroke-width="0.01"/>
<circle cx="7.5" cy="3.96751968503937" fill="none" r="0.0984251968503937" stroke="goldenrod" stroke-width="0.01"/>
</g>
</svg>