<svg height="6.5in" viewBox="-1.375 -1.5625 14 6.5" width="14in" xmlns="http://www.w3.org/2000/svg">
<g>
<path d="M-1,-1.3125 a0.125,0.125,0,0,0,-0.125,0.125 l0,5.75 a0.125,0.125,0,0,0,0.125,0.125 l13.25,0 a0.125,0.125,0,0,0,0.125,-0.125 l0,-5.75 a0.125,0.125,0,0,0,-0.125,-0.125 z" fill="none" stroke="goldenrod" stroke-width="0.01"/>
<path d="M0.03125,0 a0.03125,0.03125,0,0,0,-0.03125,0.03125 l0,3.6875 a0.03125,0.03125,0,0,0,0.03125,0.03125 l11.1875,0 a0.03125,0.03125,0,0,0,0.03125,-0.03125 l0,-3.6875 a0.03125,0.03125,0,0,0,-0.03125,-0.03125 z" fill="none" stroke="goldenrod" stroke-width="0.01"/>
<circle cx="-0.21751968503937008" cy="-0.21751968503937008" fill="none" r="0.05905511811023623" stroke="goldenrod" stroke-width="0.01"/>
<circle cx="11.46751968503937" cy="-0.21751968503937008" fill="none" r="0.05905511811023623" stroke="goldenrod" stroke-width="0.01"/>
<circle cx="-0.21751968503937008" cy="3.96751968503937" fill="none" r="0.05905511811023623" stroke="goldenrod" stroke-width="0.01"/>
<circle cx="11.46751968503937" cy="3.96751968503937" fill="none" r="0.05905511811023623" stroke="goldenrod" stroke-width="0.01"/>
<circle cx="3.75" cy="-0.21751968503937008" fill="none" r="0.05905511811023623" stroke="goldenrod" stroke-width="0.01"/>
<circle cx="7.5" cy="-0.21751968503937008" fill="none" r="0.05905511811023623" stroke="goldenrod" stroke-width="0.01"/>
<circle cx="3.75" cy="3.96751968503937" fill="none" r="0.05905511811023623" stroke="goldenrod" stroke-width="0.01"/>
<circle cx="7.5" cy="3.96751968503937" fill="none" r="0.05905511811023623" stroke="goldenrod" stroke-width="0.01"/>
<circle cx="1.016240157480315" cy="0.75" fill="none" r="0.0984251968503937" stroke="goldenrod" stroke-width="0.01"/>
<circle cx="4.983759842519685" cy="0.75" fill="none" r="0.0984251968503937" stroke="goldenrod" stroke-width="0.01"/>
<path d="M0.97687006,0.5531496 a0.15748031,0.15748031,0,0,0,-0.15748031,0.15748031 l0,0.07874016 a0.15748031,0.15748031,0,0,0,0.15748031,0.15748031 l4.04626,0 a0.15748031,0.15748031,0,0,0,0.15748031,-0.15748031 l0,-0.07874016 a0.15748031,0.15748031,0,0,0,-0.15748031,-0.15748031 z" fill="none" stroke="goldenrod" stroke-width="0.01"/>
<circle cx="6.266240157480315" cy="0.75" fill="none" r="0.0984251968503937" stroke="goldenrod" stroke-width="0.01"/>
<circle cx="10.233759842519685" cy="0.75" fill="none" r="0.0984251968503937" stroke="goldenrod" stroke-width="0.01"/>
<path d="M6.22687,0.5531496 a0.15748031,0.15748031,0,0,0,-0.15748031,0.15748031 l0,0.07874016 a0.15748031,0.15748031,0,0,0,0.15748031,0.15748031 l4.04626,0 a0.15748031,0.15748031,0,0,0,0.15748031,-0.15748031 l0,-0.07874016 a0.15748031,0.15748031,0,0,0,-0.15748031,-0.15748031 z" fill="none" stroke="goldenrod" stroke-width="0.01"/>
<circle cx="1.016240157480315" cy="1.5" fill="none" r="0.0984251968503937" stroke="goldenrod" stroke-width="0.01"/>
<circle cx="4.983759842519685" cy="1.5" fill="none" r="0.0984251968503937" stroke="goldenrod" stroke-width="0.01"/>
<path d="M0.9375,1.2637795 a0.15748031,0.15748031,0,0,0,-0.15748031,0.15748031 l0,0.15748031 a0.15748031,0.15748031,0,0,0,0.15748031,0.15748031 l4.125,0 a0.15748031,0.15748031,0,0,0,0.15748031,-0.15748031 l0,-0.15748031 a0.15748031,0.15748031,0,0,0,-0.15748031,-0.15748031 z" fill="none" stroke="goldenrod" stroke-width="0.01"/>
<circle cx="6.266240157480315" cy="1.5" fill="none" r="0.0984251968503937" stroke="goldenrod" stroke-width="0.01"/>
<circle cx="10.233759842519685" cy="1.5" fill="none" r="0.0984251968503937" stroke="goldenrod" stroke-width="0.01"/>
<path d="M6.1875,1.2637795 a0.15748031,0.15748031,0,0,0,-0.15748031,0.15748031 l0,0.15748031 a0.15748031,0.15748031,0,0,0,0.15748031,0.15748031 l4.125,0 a0.15748031,0.15748031,0,0,0,0.15748031,-0.15748031 l0,-0.15748031 a0.15748031,0.15748031,0,0,0,-0.15748031,-0.15748031 z" fill="none" stroke="goldenrod" stroke-width="0.01"/>
<circle cx="1.016240157480315" cy="2.25" fill="none" r="0.0984251968503937" stroke="goldenrod" stroke-width="0.01"/>
<circle cx="4.983759842519685" cy="2.25" fill="none" r="0.0984251968503937" stroke="goldenrod" stroke-width="0.01"/>
<path d="M0.89812994,1.9744095 a0.15748031,0.15748031,0,0,0,-0.15748031,0.15748031 l0,0.23622048 a0.15748031,0.15748031,0,0,0,0.15748031,0.15748031 l4.20374,0 a0.15748031,0.15748031,0,0,0,0.15748031,-0.15748031 l0,-0.23622048 a0.15748031,0.15748031,0,0,0,-0.15748031,-0.15748031 z" fill="none" stroke="goldenrod" stroke-width="0.01"/>
<circle cx="6.266240157480315" cy="2.25" fill="none" r="0.0984251968503937" stroke="goldenrod" stroke-width="0.01"/>
<circle cx="10.233759842519685" cy="2.25" fill="none" r="0.0984251968503937" stroke="goldenrod" stroke-width="0.01"/>
<path d="M6.14813,1.9744095 a0.15748031,0.15748031,0,0,0,-0.15748031,0.15748031 l0,0.23622048 a0.15748031,0.15748031,0,0,0,0.15748031,0.15748031 l4.20374,0 a0.15748031,0.15748031,0,0,0,0.15748031,-0.15748031 l0,-0.23622048 a0.15748031,0.15748031,0,0,0,-0.15748031,-0.15748031 z" fill="none" stroke="goldenrod" stroke-width="0.01"/>
<circle cx="1.016240157480315" cy="3" fill="none" r="0.0984251968503937" stroke="goldenrod" stroke-width="0.01"/>
<circle cx="4.983759842519685" cy="3" fill="none" r="0.0984251968503937" stroke="goldenrod" stroke-width="0.01"/>
<path d="M0.8587598,2.6850393 a0.15748031,0.15748031,0,0,0,-0.15748031,0.15748031 l0,0.31496063 a0.15748031,0.15748031,0,0,0,0.15748031,0.15748031 l4.2824802,0 a0.15748031,0.15748031,0,0,0,0.15748031,-0.15748031 l0,-0.31496063 a0.15748031,0.15748031,0,0,0,-0.15748031,-0.15748031 z" fill="none" stroke="goldenrod" stroke-width="0.01"/>
<circle cx="6.266240157480315" cy="3" fill="none" r="0.0984251968503937" stroke="goldenrod" stroke-width="0.01"/>
<circle cx="10.233759842519685" cy="3" fill="none" r="0.0984251968503937" stroke="goldenrod" stroke-width="0.01"/>
<path d="M6.10876,2.6850393 a0.15748031,0.15748031,0,0,0,-0.15748031,0.15748031 l0,0.31496063 a0.15748031,0.15748031,0,0,0,0.15748031,0.15748031 l4.2824802,0 a0.15748031,0.15748031,0,0,0,0.15748031,-0.15748031 l0,-0.31496063 a0.15748031,0.15748031,0,0,0,-0.15748031,-0.15748031 z" fill="none" stroke="goldenrod" stroke-width="0.01"/>
</g>
</svg>