<svg height="6.5in" viewBox="-1.75 -1.5625 14.75 6.5" width="14.75in" xmlns="http://www.w3.org/2000/svg">
<g>
<path d="M-1.375,-1.3125 a0.125,0.125,0,0,0,-0.125,0.125 l0,5.75 a0.125,0.125,0,0,0,0.125,0.125 l14,0 a0.125,0.125,0,0,0,0.125,-0.125 l0,-5.75 a0.125,0.125,0,0,0,-0.125,-0.125 z" fill="none" stroke="goldenrod" stroke-width="0.01"/>
<path d="M0.03125,0 a0.03125,0.03125,0,0,0,-0.03125,0.03125 l0,3.6875 a0.03125,0.03125,0,0,0,0.03125,0.03125 l11.1875,0 a0.03125,0.03125,0,0,0,0.03125,-0.03125 l0,-3.6875 a0.03125,0.03125,0,0,0,-0.03125,-0.03125 z" fill="none" stroke="goldenrod" stroke-width="0.01"/>
<circle cx="-0.5925196850393701" cy="-0.21751968503937008" fill="none" r="0.05905511811023623" stroke="goldenrod" stroke-width="0.01"/>
<circle cx="11.84251968503937" cy="-0.21751968503937008" fill="none" r="0.05905511811023623" stroke="goldenrod" stroke-width="0.01"/>
<circle cx="-0.5925196850393701" cy="3.96751968503937" fill="none" r="0.05905511811023623" stroke="goldenrod" stroke-width="0.01"/>
<circle cx="11.84251968503937" cy="3.96751968503937" fill="none" r="0.05905511811023623" stroke="goldenrod" stroke-width="0.01"/>
<circle cx="3.75" cy="-0.21751968503937008" fill="none" r="0.05905511811023623" stroke="goldenrod" stroke-width="0.01"/>
<circle cx="7.5" cy="-0.21751968503937008" fill="none" r="0.05905511811023623" stroke="goldenrod" stroke-width="0.01"/>
<circle cx="3.75" cy="3.96751968503937" fill="none" r="0.05905511811023623" stroke="goldenrod" stroke-width="0.01"/>
<circle cx="7.5" cy="3.96751968503937" fill="none" r="0.05905511811023623" stroke="goldenrod" stroke-width="0.01"/>
<circle cx="0.8287401574803148" cy="0.75" fill="none" r="0.0984251968503937" stroke="goldenrod" stroke-width="0.01"/>
<circle cx="5.171259842519685" cy="0.75" fill="none" r="0.0984251968503937" stroke="goldenrod" stroke-width="0.01"/>
<path d="M0.78937006,0.5531496 a0.15748031,0.15748031,0,0,0,-0.15748031,0.15748031 l0,0.07874016 a0.15748031,0.15748031,0,0,0,0.15748031,0.15748031 l4.42126,0 a0.15748031,0.15748031,0,0,0,0.15748031,-0.15748031 l0,-0.07874016 a0.15748031,0.15748031,0,0,0,-0.15748031,-0.15748031 z" fill="none" stroke="goldenrod" stroke-width="0.01"/>
<circle cx="6.078740157480315" cy="0.75" fill="none" r="0.0984251968503937" stroke="goldenrod" stroke-width="0.01"/>
<circle cx="10.421259842519685" cy="0.75" fill="none" r="0.0984251968503937" stroke="goldenrod" stroke-width="0.01"/>
<path d="M6.03937,0.5531496 a0.15748031,0.15748031,0,0,0,-0.15748031,0.15748031 l0,0.07874016 a0.15748031,0.15748031,0,0,0,0.15748031,0.15748031 l4.42126,0 a0.15748031,0.15748031,0,0,0,0.15748031,-0.15748031 l0,-0.07874016 a0.15748031,0.15748031,0,0,0,-0.15748031,-0.15748031 z" fill="none" stroke="goldenrod" stroke-width="0.01"/>
<circle cx="0.8287401574803148" cy="1.5" fill="none" r="0.0984251968503937" stroke="goldenrod" stroke-width="0.01"/>
<circle cx="5.171259842519685" cy="1.5" fill="none" r="0.0984251968503937" stroke="goldenrod" stroke-width="0.01"/>
<path d="M0.75,1.2637795 a0.15748031,0.15748031,0,0,0,-0.15748031,0.15748031 l0,0.15748031 a0.15748031,0.15748031,0,0,0,0.15748031,0.15748031 l4.5,0 a0.15748031,0.15748031,0,0,0,0.15748031,-0.15748031 l0,-0.15748031 a0.15748031,0.15748031,0,0,0,-0.15748031,-0.15748031 z" fill="none" stroke="goldenrod" stroke-width="0.01"/>
<circle cx="6.078740157480315" cy="1.5" fill="none" r="0.0984251968503937" stroke="goldenrod" stroke-width="0.01"/>
<circle cx="10.421259842519685" cy="1.5" fill="none" r="0.0984251968503937" stroke="goldenrod" stroke-width="0.01"/>
<path d="M6,1.2637795 a0.15748031,0.15748031,0,0,0,-0.15748031,0.15748031 l0,0.15748031 a0.15748031,0.15748031,0,0,0,0.15748031,0.15748031 l4.5,0 a0.15748031,0.15748031,0,0,0,0.15748031,-0.15748031 l0,-0.15748031 a0.15748031,0.15748031,0,0,0,-0.15748031,-0.15748031 z" fill="none" stroke="goldenrod" stroke-width="0.01"/>
<circle cx="0.8287401574803148" cy="2.25" fill="none" r="0.0984251968503937" stroke="goldenrod" stroke-width="0.01"/>
<circle cx="5.171259842519685" cy="2.25" fill="none" r="0.0984251968503937" stroke="goldenrod" stroke-width="0.01"/>
<path d="M0.71062994,1.9744095 a0.15748031,0.15748031,0,0,0,-0.15748031,0.15748031 l0,0.23622048 a0.15748031,0.15748031,0,0,0,0.15748031,0.15748031 l4.57874,0 a0.15748031,0.15748031,0,0,0,0.15748031,-0.15748031 l0,-0.23622048 a0.15748031,0.15748031,0,0,0,-0.15748031,-0.15748031 z" fill="none" stroke="goldenrod" stroke-width="0.01"/>
<circle cx="6.078740157480315" cy="2.25" fill="none" r="0.0984251968503937" stroke="goldenrod" stroke-width="0.01"/>
<circle cx="10.421259842519685" cy="2.25" fill="none" r="0.0984251968503937" stroke="goldenrod" stroke-width="0.01"/>
<path d="M5.96063,1.9744095 a0.15748031,0.15748031,0,0,0,-0.15748031,0.15748031 l0,0.23622048 a0.15748031,0.15748031,0,0,0,0.15748031,0.15748031 l4.57874,0 a0.15748031,0.15748031,0,0,0,0.15748031,-0.15748031 l0,-0.23622048 a0.15748031,0.15748031,0,0,0,-0.15748031,-0.15748031 z" fill="none" stroke="goldenrod" stroke-width="0.01"/>
<circle cx="0.8287401574803148" cy="3" fill="none" r="0.0984251968503937" stroke="goldenrod" stroke-width="0.01"/>
<circle cx="5.171259842519685" cy="3" fill="none" r="0.0984251968503937" stroke="goldenrod" stroke-width="0.01"/>
<path d="M0.6712598,2.6850393 a0.15748031,0.15748031,0,0,0,-0.15748031,0.15748031 l0,0.31496063 a0.15748031,0.15748031,0,0,0,0.15748031,0.15748031 l4.6574802,0 a0.15748031,0.15748031,0,0,0,0.15748031,-0.15748031 l0,-0.31496063 a0.15748031,0.15748031,0,0,0,-0.15748031,-0.15748031 z" fill="none" stroke="goldenrod" stroke-width="0.01"/>
<circle cx="6.078740157480315" cy="3" fill="none" r="0.0984251968503937" stroke="goldenrod" stroke-width="0.01"/>
<circle cx="10.421259842519685" cy="3" fill="none" r="0.0984251968503937" stroke="goldenrod" stroke-width="0.01"/>
<path d="M5.92126,2.6850393 a0.15748031,0.15748031,0,0,0,-0.15748031,0.15748031 l0,0.31496063 a0.15748031,0.15748031,0,0,0,0.15748031,0.15748031 l4.6574802,0 a0.15748031,0.15748031,0,0,0,0.15748031,-0.15748031 l0,-0.31496063 a0.15748031,0.15748031,0,0,0,-0.15748031,-0.15748031 z" fill="none" stroke="goldenrod" stroke-width="0.01"/>
</g>
</svg>