<svg height="6.5in" viewBox="-1.75 -1.5625 14.75 6.5" width="14.75in" xmlns="http://www.w3.org/2000/svg">
<g>
<path d="M-1.375,-1.3125 a0.125,0.125,0,0,0,-0.125,0.125 l0,5.75 a0.125,0.125,0,0,0,0.125,0.125 l14,0 a0.125,0.125,0,0,0,0.125,-0.125 l0,-5.75 a0.125,0.125,0,0,0,-0.125,-0.125 z" fill="none" stroke="goldenrod" stroke-width="0.01"/>
<path d="M-0.71875,-0.375 a0.03125,0.03125,0,0,0,-0.03125,0.03125 l0,4.4375 a0.03125,0.03125,0,0,0,0.03125,0.03125 l12.6875,0 a0.03125,0.03125,0,0,0,0.03125,-0.03125 l0,-4.4375 a0.03125,0.03125,0,0,0,-0.03125,-0.03125 z" fill="none" stroke="goldenrod" stroke-width="0.01"/>
</g>
</svg>