<?xml version='1.0' encoding='utf-8'?>
<svg width="349.24mm" height="44.39mm" viewBox="-174.62 -20.545 349.24 44.39" version="1.1" xmlns="http://www.w3.org/2000/svg">
  <g transform="scale(1,-1)" stroke-linecap="round">
    <g fill="none" stroke="rgb(0,0,0)" stroke-width="0.09">
      <path d="M -163.875,0.0 C -164.341667,0.0 -164.575,0.233333 -164.575,0.7 L -164.575,3.1 C -164.575,3.566667 -164.341667,3.8 -163.875,3.8 L -162.275,3.8 C -161.808333,3.8 -161.575,4.033333 -161.575,4.5 L -161.575,9.8 C -161.575,10.266667 -161.341667,10.5 -160.875,10.5 L 160.875,10.5 C 161.341667,10.5 161.575,10.266667 161.575,9.8 L 161.575,4.5 C 161.575,4.033333 161.808333,3.8 162.275,3.8 L 163.875,3.8 C 164.341667,3.8 164.575,3.566667 164.575,3.1 L 164.575,0.7 C 164.575,0.233333 164.341667,0.0 163.875,0.0 L -163.875,0.0" />
      <path d="M 81.856485,-13.1 L 81.856485,-1.7 A 0.7000000000000001,0.7000000000000001 0.0 0,0 82.556485,-1.0 L 161.51297,-1.0 A 0.7000000000000001,0.7000000000000001 0.0 0,0 162.21297,-1.7 L 162.21297,-13.1 A 0.7000000000000001,0.7000000000000001 0.0 0,0 161.51297,-13.8 L 82.556485,-13.8 A 0.7000000000000001,0.7000000000000001 0.0 0,0 81.856485,-13.1" />
      <path d="M 0.5,-13.1 L 0.5,-1.7 A 0.7000000000000001,0.7000000000000001 0.0 0,0 1.2,-1.0 L 80.156485,-1.0 A 0.7000000000000001,0.7000000000000001 0.0 0,0 80.856485,-1.7 L 80.856485,-13.1 A 0.7000000000000001,0.7000000000000001 0.0 0,0 80.156485,-13.8 L 1.2,-13.8 A 0.7000000000000001,0.7000000000000001 0.0 0,0 0.5,-13.1" />
      <path d="M -80.856485,-13.1 L -80.856485,-1.7 A 0.7000000000000001,0.7000000000000001 0.0 0,0 -80.156485,-1.0 L -1.2,-1.0 A 0.7000000000000001,0.7000000000000001 0.0 0,0 -0.5,-1.7 L -0.5,-13.1 A 0.7000000000000001,0.7000000000000001 0.0 0,0 -1.2,-13.8 L -80.156485,-13.8 A 0.7000000000000001,0.7000000000000001 0.0 0,0 -80.856485,-13.1" />
      <path d="M -162.21297,-13.1 L -162.21297,-1.7 A 0.7000000000000001,0.7000000000000001 0.0 0,0 -161.51297,-1.0 L -82.556485,-1.0 A 0.7000000000000001,0.7000000000000001 0.0 0,0 -81.856485,-1.7 L -81.856485,-13.1 A 0.7000000000000001,0.7000000000000001 0.0 0,0 -82.556485,-13.8 L -161.51297,-13.8 A 0.7000000000000001,0.7000000000000001 0.0 0,0 -162.21297,-13.1" />
    </g>
  </g>
</svg>