<?xml version='1.0' encoding='utf-8'?>
<svg width="353.81594mm" height="44.54mm" viewBox="-176.90797 -29.245 353.81594 44.54" version="1.1" xmlns="http://www.w3.org/2000/svg">
  <g transform="scale(1,-1)" stroke-linecap="round">
    <g fill="none" stroke="rgb(0,0,0)" stroke-width="0.09">
      <path d="M -166.36297,-5.25 C -166.696303,-5.25 -166.86297,-5.083333 -166.86297,-4.75 L -166.86297,-1.95 C -166.86297,-1.616667 -166.696303,-1.45 -166.36297,-1.45 L -164.36297,-1.45 C -164.029637,-1.45 -163.86297,-1.283333 -163.86297,-0.95 L -163.86297,4.75 C -163.86297,5.083333 -163.696303,5.25 -163.36297,5.25 L 163.36297,5.25 C 163.696303,5.25 163.86297,5.083333 163.86297,4.75 L 163.86297,-0.95 C 163.86297,-1.283333 164.029637,-1.45 164.36297,-1.45 L 166.36297,-1.45 C 166.696303,-1.45 166.86297,-1.616667 166.86297,-1.95 L 166.86297,-4.75 C 166.86297,-5.083333 166.696303,-5.25 166.36297,-5.25 L -166.36297,-5.25" />
      <path d="M -165.21297,6.9 L -165.21297,18.7 A 0.5,0.5 0.0 0,0 -164.71297,19.2 L -83.856485,19.2 A 0.5,0.5 0.0 0,0 -83.356485,18.7 L -83.356485,6.9 A 0.5,0.5 0.0 0,0 -83.856485,6.4 L -164.71297,6.4 A 0.5,0.5 0.0 0,0 -165.21297,6.9" />
      <path d="M 83.356485,6.9 L 83.356485,18.7 A 0.5,0.5 0.0 0,0 83.856485,19.2 L 164.71297,19.2 A 0.5,0.5 0.0 0,0 165.21297,18.7 L 165.21297,6.9 A 0.5,0.5 0.0 0,0 164.71297,6.4 L 83.856485,6.4 A 0.5,0.5 0.0 0,0 83.356485,6.9" />
      <path d="M 0.5,6.9 L 0.5,18.7 A 0.5,0.5 0.0 0,0 1.0,19.2 L 81.856485,19.2 A 0.5,0.5 0.0 0,0 82.356485,18.7 L 82.356485,6.9 A 0.5,0.5 0.0 0,0 81.856485,6.4 L 1.0,6.4 A 0.5,0.5 0.0 0,0 0.5,6.9" />
      <path d="M -82.356485,6.9 L -82.356485,18.7 A 0.5,0.5 0.0 0,0 -81.856485,19.2 L -1.0,19.2 A 0.5,0.5 0.0 0,0 -0.5,18.7 L -0.5,6.9 A 0.5,0.5 0.0 0,0 -1.0,6.4 L -81.856485,6.4 A 0.5,0.5 0.0 0,0 -82.356485,6.9" />
    </g>
  </g>
</svg>