<?xml version='1.0' encoding='utf-8'?>
<svg width="356.51594mm" height="47.54mm" viewBox="-178.25797 -29.245 356.51594 47.54" version="1.1" xmlns="http://www.w3.org/2000/svg">
  <g transform="scale(1,-1)" stroke-linecap="round">
    <g fill="none" stroke="rgb(0,0,0)" stroke-width="0.09">
      <path d="M -165.86297,-8.25 C -166.529637,-8.25 -166.86297,-7.916667 -166.86297,-7.25 L -166.86297,-5.45 C -166.86297,-4.783333 -166.529637,-4.45 -165.86297,-4.45 L -164.86297,-4.45 C -164.196303,-4.45 -163.86297,-4.116667 -163.86297,-3.45 L -163.86297,1.25 C -163.86297,1.916667 -163.529637,2.25 -162.86297,2.25 L 162.86297,2.25 C 163.529637,2.25 163.86297,1.916667 163.86297,1.25 L 163.86297,-3.45 C 163.86297,-4.116667 164.196303,-4.45 164.86297,-4.45 L 165.86297,-4.45 C 166.529637,-4.45 166.86297,-4.783333 166.86297,-5.45 L 166.86297,-7.25 C 166.86297,-7.916667 166.529637,-8.25 165.86297,-8.25 L -165.86297,-8.25" />
      <path d="M -168.21297,7.4 L -168.21297,18.2 A 1.0,1.0 0.0 0,0 -167.21297,19.2 L -87.356485,19.2 A 1.0,1.0 0.0 0,0 -86.356485,18.2 L -86.356485,7.4 A 1.0,1.0 0.0 0,0 -87.356485,6.4 L -167.21297,6.4 A 1.0,1.0 0.0 0,0 -168.21297,7.4" />
      <path d="M 86.356485,7.4 L 86.356485,18.2 A 1.0,1.0 0.0 0,0 87.356485,19.2 L 167.21297,19.2 A 1.0,1.0 0.0 0,0 168.21297,18.2 L 168.21297,7.4 A 1.0,1.0 0.0 0,0 167.21297,6.4 L 87.356485,6.4 A 1.0,1.0 0.0 0,0 86.356485,7.4" />
      <path d="M 1.5,7.4 L 1.5,18.2 A 1.0,1.0 0.0 0,0 2.5,19.2 L 82.356485,19.2 A 1.0,1.0 0.0 0,0 83.356485,18.2 L 83.356485,7.4 A 1.0,1.0 0.0 0,0 82.356485,6.4 L 2.5,6.4 A 1.0,1.0 0.0 0,0 1.5,7.4" />
      <path d="M -83.356485,7.4 L -83.356485,18.2 A 1.0,1.0 0.0 0,0 -82.356485,19.2 L -2.5,19.2 A 1.0,1.0 0.0 0,0 -1.5,18.2 L -1.5,7.4 A 1.0,1.0 0.0 0,0 -2.5,6.4 L -82.356485,6.4 A 1.0,1.0 0.0 0,0 -83.356485,7.4" />
    </g>
  </g>
</svg>