<?xml version='1.0' encoding='utf-8'?>
<svg width="350.51594mm" height="44.54mm" viewBox="-175.25797 -29.245 350.51594 44.54" version="1.1" xmlns="http://www.w3.org/2000/svg">
  <g transform="scale(1,-1)" stroke-linecap="round">
    <g fill="none" stroke="rgb(0,0,0)" stroke-width="0.09">
      <path d="M -164.51297,-5.25 C -164.979637,-5.25 -165.21297,-5.016667 -165.21297,-4.55 L -165.21297,-2.15 C -165.21297,-1.683333 -164.979637,-1.45 -164.51297,-1.45 L -162.91297,-1.45 C -162.446303,-1.45 -162.21297,-1.216667 -162.21297,-0.75 L -162.21297,4.55 C -162.21297,5.016667 -161.979637,5.25 -161.51297,5.25 L 161.51297,5.25 C 161.979637,5.25 162.21297,5.016667 162.21297,4.55 L 162.21297,-0.75 C 162.21297,-1.216667 162.446303,-1.45 162.91297,-1.45 L 164.51297,-1.45 C 164.979637,-1.45 165.21297,-1.683333 165.21297,-2.15 L 165.21297,-4.55 C 165.21297,-5.016667 164.979637,-5.25 164.51297,-5.25 L -164.51297,-5.25" />
      <path d="M -163.01297,7.1 L -163.01297,18.5 A 0.7000000000000001,0.7000000000000001 0.0 0,0 -162.31297,19.2 L -82.956485,19.2 A 0.7000000000000001,0.7000000000000001 0.0 0,0 -82.256485,18.5 L -82.256485,7.1 A 0.7000000000000001,0.7000000000000001 0.0 0,0 -82.956485,6.4 L -162.31297,6.4 A 0.7000000000000001,0.7000000000000001 0.0 0,0 -163.01297,7.1" />
      <path d="M 82.256485,7.1 L 82.256485,18.5 A 0.7000000000000001,0.7000000000000001 0.0 0,0 82.956485,19.2 L 162.31297,19.2 A 0.7000000000000001,0.7000000000000001 0.0 0,0 163.01297,18.5 L 163.01297,7.1 A 0.7000000000000001,0.7000000000000001 0.0 0,0 162.31297,6.4 L 82.956485,6.4 A 0.7000000000000001,0.7000000000000001 0.0 0,0 82.256485,7.1" />
      <path d="M 0.5,7.1 L 0.5,18.5 A 0.7000000000000001,0.7000000000000001 0.0 0,0 1.2,19.2 L 80.556485,19.2 A 0.7000000000000001,0.7000000000000001 0.0 0,0 81.256485,18.5 L 81.256485,7.1 A 0.7000000000000001,0.7000000000000001 0.0 0,0 80.556485,6.4 L 1.2,6.4 A 0.7000000000000001,0.7000000000000001 0.0 0,0 0.5,7.1" />
      <path d="M -81.256485,7.1 L -81.256485,18.5 A 0.7000000000000001,0.7000000000000001 0.0 0,0 -80.556485,19.2 L -1.2,19.2 A 0.7000000000000001,0.7000000000000001 0.0 0,0 -0.5,18.5 L -0.5,7.1 A 0.7000000000000001,0.7000000000000001 0.0 0,0 -1.2,6.4 L -80.556485,6.4 A 0.7000000000000001,0.7000000000000001 0.0 0,0 -81.256485,7.1" />
    </g>
  </g>
</svg>