<?xml version='1.0' encoding='utf-8'?>
<svg width="354.11594mm" height="44.54mm" viewBox="-177.05797 -29.245 354.11594 44.54" version="1.1" xmlns="http://www.w3.org/2000/svg">
  <g transform="scale(1,-1)" stroke-linecap="round">
    <g fill="none" stroke="rgb(0,0,0)" stroke-width="0.09">
      <path d="M -166.31297,-5.25 C -166.779637,-5.25 -167.01297,-5.016667 -167.01297,-4.55 L -167.01297,-2.15 C -167.01297,-1.683333 -166.779637,-1.45 -166.31297,-1.45 L -164.71297,-1.45 C -164.246303,-1.45 -164.01297,-1.216667 -164.01297,-0.75 L -164.01297,4.55 C -164.01297,5.016667 -163.779637,5.25 -163.31297,5.25 L 163.31297,5.25 C 163.779637,5.25 164.01297,5.016667 164.01297,4.55 L 164.01297,-0.75 C 164.01297,-1.216667 164.246303,-1.45 164.71297,-1.45 L 166.31297,-1.45 C 166.779637,-1.45 167.01297,-1.683333 167.01297,-2.15 L 167.01297,-4.55 C 167.01297,-5.016667 166.779637,-5.25 166.31297,-5.25 L -166.31297,-5.25" />
      <path d="M -164.81297,7.1 L -164.81297,18.5 A 0.7000000000000001,0.7000000000000001 0.0 0,0 -164.11297,19.2 L -83.856485,19.2 A 0.7000000000000001,0.7000000000000001 0.0 0,0 -83.156485,18.5 L -83.156485,7.1 A 0.7000000000000001,0.7000000000000001 0.0 0,0 -83.856485,6.4 L -164.11297,6.4 A 0.7000000000000001,0.7000000000000001 0.0 0,0 -164.81297,7.1" />
      <path d="M 83.156485,7.1 L 83.156485,18.5 A 0.7000000000000001,0.7000000000000001 0.0 0,0 83.856485,19.2 L 164.11297,19.2 A 0.7000000000000001,0.7000000000000001 0.0 0,0 164.81297,18.5 L 164.81297,7.1 A 0.7000000000000001,0.7000000000000001 0.0 0,0 164.11297,6.4 L 83.856485,6.4 A 0.7000000000000001,0.7000000000000001 0.0 0,0 83.156485,7.1" />
      <path d="M 0.5,7.1 L 0.5,18.5 A 0.7000000000000001,0.7000000000000001 0.0 0,0 1.2,19.2 L 81.456485,19.2 A 0.7000000000000001,0.7000000000000001 0.0 0,0 82.156485,18.5 L 82.156485,7.1 A 0.7000000000000001,0.7000000000000001 0.0 0,0 81.456485,6.4 L 1.2,6.4 A 0.7000000000000001,0.7000000000000001 0.0 0,0 0.5,7.1" />
      <path d="M -82.156485,7.1 L -82.156485,18.5 A 0.7000000000000001,0.7000000000000001 0.0 0,0 -81.456485,19.2 L -1.2,19.2 A 0.7000000000000001,0.7000000000000001 0.0 0,0 -0.5,18.5 L -0.5,7.1 A 0.7000000000000001,0.7000000000000001 0.0 0,0 -1.2,6.4 L -81.456485,6.4 A 0.7000000000000001,0.7000000000000001 0.0 0,0 -82.156485,7.1" />
    </g>
  </g>
</svg>