<?xml version='1.0' encoding='utf-8'?>
<svg width="437.702637mm" height="66.050196mm" viewBox="-218.851318 -50.755196 437.702637 66.050196" version="1.1" xmlns="http://www.w3.org/2000/svg">
  <g transform="scale(1,-1)" stroke-linecap="round">
    <g fill="none" stroke="rgb(0,0,0)" stroke-width="0.09">
      <path d="M 203.993985,25.980098 L 94.456485,25.980098 A 7.365049,7.365049 0.0 0,0 94.456485,40.710196 L 151.606485,40.710196 A 133.35,63.5 0.0 0,0 203.993985,35.604765 A 133.35,63.5 0.0 0,0 205.911743,35.206133 A 4.812333537401727,4.812333537401727 -90.0 0,0 203.993985,25.980098 M 205.593985,30.742598 A 1.6000000000000083,1.6000000000000083 0.0 0,1 202.393985,30.742598 A 1.6000000000000083,1.6000000000000083 0.0 0,1 205.593985,30.742598 M 96.056485,35.947696 A 1.6,1.6 0.0 0,1 92.856485,35.947696 A 1.6,1.6 0.0 0,1 96.056485,35.947696" />
      <path d="M 203.993985,8.25 L 94.456485,8.25 A 7.365049,7.365049 0.0 0,0 94.456485,22.980098 L 151.606485,22.980098 A 133.35,63.5 0.0 0,0 203.993985,17.874667 A 133.35,63.5 0.0 0,0 205.911743,17.476035 A 4.812333537401727,4.812333537401727 -90.0 0,0 203.993985,8.25 M 206.593985,13.0125 A 2.600000000000008,2.600000000000008 0.0 0,1 201.393985,13.0125 A 2.600000000000008,2.600000000000008 0.0 0,1 206.593985,13.0125 M 97.056485,18.217598 A 2.6,2.6 0.0 0,1 91.856485,18.217598 A 2.6,2.6 0.0 0,1 97.056485,18.217598" />
      <path d="M -94.456485,25.980098 L -203.993985,25.980098 A 4.812333537401727,4.812333537401727 -90.0 0,0 -205.911743,35.206133 A 133.35,63.5 0.0 0,0 -203.993985,35.604765 A 133.35,63.5 0.0 0,0 -151.606485,40.710196 L -94.456485,40.710196 A 7.365049,7.365049 180.0 0,0 -94.456485,25.980098 M -202.393985,30.742598 A 1.6000000000000083,1.6000000000000083 0.0 0,1 -205.593985,30.742598 A 1.6000000000000083,1.6000000000000083 0.0 0,1 -202.393985,30.742598 M -92.856485,35.947696 A 1.6,1.6 0.0 0,1 -96.056485,35.947696 A 1.6,1.6 0.0 0,1 -92.856485,35.947696" />
      <path d="M -94.456485,8.25 L -203.993985,8.25 A 4.812333537401727,4.812333537401727 -90.0 0,0 -205.911743,17.476035 A 133.35,63.5 0.0 0,0 -203.993985,17.874667 A 133.35,63.5 0.0 0,0 -151.606485,22.980098 L -94.456485,22.980098 A 7.365049,7.365049 180.0 0,0 -94.456485,8.25 M -201.393985,13.0125 A 2.600000000000008,2.600000000000008 0.0 0,1 -206.593985,13.0125 A 2.600000000000008,2.600000000000008 0.0 0,1 -201.393985,13.0125 M -91.856485,18.217598 A 2.6,2.6 0.0 0,1 -97.056485,18.217598 A 2.6,2.6 0.0 0,1 -91.856485,18.217598" />
      <path d="M -83.356485,26.2 L -83.356485,37.0 A 1.0,1.0 0.0 0,0 -82.356485,38.0 L -2.5,38.0 A 1.0,1.0 0.0 0,0 -1.5,37.0 L -1.5,26.2 A 1.0,1.0 0.0 0,0 -2.5,25.2 L -82.356485,25.2 A 1.0,1.0 0.0 0,0 -83.356485,26.2" />
      <path d="M 1.5,10.4 L 1.5,21.2 A 1.0,1.0 0.0 0,0 2.5,22.2 L 82.356485,22.2 A 1.0,1.0 0.0 0,0 83.356485,21.2 L 83.356485,10.4 A 1.0,1.0 0.0 0,0 82.356485,9.4 L 2.5,9.4 A 1.0,1.0 0.0 0,0 1.5,10.4" />
      <path d="M 1.5,26.2 L 1.5,37.0 A 1.0,1.0 0.0 0,0 2.5,38.0 L 82.356485,38.0 A 1.0,1.0 0.0 0,0 83.356485,37.0 L 83.356485,26.2 A 1.0,1.0 0.0 0,0 82.356485,25.2 L 2.5,25.2 A 1.0,1.0 0.0 0,0 1.5,26.2" />
      <path d="M -83.356485,10.4 L -83.356485,21.2 A 1.0,1.0 0.0 0,0 -82.356485,22.2 L -2.5,22.2 A 1.0,1.0 0.0 0,0 -1.5,21.2 L -1.5,10.4 A 1.0,1.0 0.0 0,0 -2.5,9.4 L -82.356485,9.4 A 1.0,1.0 0.0 0,0 -83.356485,10.4" />
      <path d="M -165.86297,-5.25 C -166.529637,-5.25 -166.86297,-4.916667 -166.86297,-4.25 L -166.86297,-2.45 C -166.86297,-1.783333 -166.529637,-1.45 -165.86297,-1.45 L -164.86297,-1.45 C -164.196303,-1.45 -163.86297,-1.116667 -163.86297,-0.45 L -163.86297,4.25 C -163.86297,4.916667 -163.529637,5.25 -162.86297,5.25 L 162.86297,5.25 C 163.529637,5.25 163.86297,4.916667 163.86297,4.25 L 163.86297,-0.45 C 163.86297,-1.116667 164.196303,-1.45 164.86297,-1.45 L 165.86297,-1.45 C 166.529637,-1.45 166.86297,-1.783333 166.86297,-2.45 L 166.86297,-4.25 C 166.86297,-4.916667 166.529637,-5.25 165.86297,-5.25 L -165.86297,-5.25" />
    </g>
  </g>
</svg>