<?xml version='1.0' encoding='utf-8'?>
<svg width="353.81594mm" height="44.54mm" viewBox="-176.90797 -29.245 353.81594 44.54" version="1.1" xmlns="http://www.w3.org/2000/svg">
  <g transform="scale(1,-1)" stroke-linecap="round">
    <g fill="none" stroke="rgb(0,0,0)" stroke-width="0.09">
      <path d="M -165.86297,-5.25 C -166.529637,-5.25 -166.86297,-4.916667 -166.86297,-4.25 L -166.86297,-2.45 C -166.86297,-1.783333 -166.529637,-1.45 -165.86297,-1.45 L -164.86297,-1.45 C -164.196303,-1.45 -163.86297,-1.116667 -163.86297,-0.45 L -163.86297,4.25 C -163.86297,4.916667 -163.529637,5.25 -162.86297,5.25 L 162.86297,5.25 C 163.529637,5.25 163.86297,4.916667 163.86297,4.25 L 163.86297,-0.45 C 163.86297,-1.116667 164.196303,-1.45 164.86297,-1.45 L 165.86297,-1.45 C 166.529637,-1.45 166.86297,-1.783333 166.86297,-2.45 L 166.86297,-4.25 C 166.86297,-4.916667 166.529637,-5.25 165.86297,-5.25 L -165.86297,-5.25" />
      <path d="M -165.21297,7.4 L -165.21297,18.2 A 1.0,1.0 0.0 0,0 -164.21297,19.2 L -84.356485,19.2 A 1.0,1.0 0.0 0,0 -83.356485,18.2 L -83.356485,7.4 A 1.0,1.0 0.0 0,0 -84.356485,6.4 L -164.21297,6.4 A 1.0,1.0 0.0 0,0 -165.21297,7.4" />
      <path d="M 83.356485,7.4 L 83.356485,18.2 A 1.0,1.0 0.0 0,0 84.356485,19.2 L 164.21297,19.2 A 1.0,1.0 0.0 0,0 165.21297,18.2 L 165.21297,7.4 A 1.0,1.0 0.0 0,0 164.21297,6.4 L 84.356485,6.4 A 1.0,1.0 0.0 0,0 83.356485,7.4" />
      <path d="M 0.5,7.4 L 0.5,18.2 A 1.0,1.0 0.0 0,0 1.5,19.2 L 81.356485,19.2 A 1.0,1.0 0.0 0,0 82.356485,18.2 L 82.356485,7.4 A 1.0,1.0 0.0 0,0 81.356485,6.4 L 1.5,6.4 A 1.0,1.0 0.0 0,0 0.5,7.4" />
      <path d="M -82.356485,7.4 L -82.356485,18.2 A 1.0,1.0 0.0 0,0 -81.356485,19.2 L -1.5,19.2 A 1.0,1.0 0.0 0,0 -0.5,18.2 L -0.5,7.4 A 1.0,1.0 0.0 0,0 -1.5,6.4 L -81.356485,6.4 A 1.0,1.0 0.0 0,0 -82.356485,7.4" />
    </g>
  </g>
</svg>