<?xml version='1.0' encoding='utf-8'?>
<svg width="348.91594mm" height="44.54mm" viewBox="-174.45797 -29.245 348.91594 44.54" version="1.1" xmlns="http://www.w3.org/2000/svg">
  <g transform="scale(1,-1)" stroke-linecap="round">
    <g fill="none" stroke="rgb(0,0,0)" stroke-width="0.09">
      <path d="M -163.71297,-5.25 C -164.179637,-5.25 -164.41297,-5.016667 -164.41297,-4.55 L -164.41297,-2.15 C -164.41297,-1.683333 -164.179637,-1.45 -163.71297,-1.45 L -162.11297,-1.45 C -161.646303,-1.45 -161.41297,-1.216667 -161.41297,-0.75 L -161.41297,4.55 C -161.41297,5.016667 -161.179637,5.25 -160.71297,5.25 L 160.71297,5.25 C 161.179637,5.25 161.41297,5.016667 161.41297,4.55 L 161.41297,-0.75 C 161.41297,-1.216667 161.646303,-1.45 162.11297,-1.45 L 163.71297,-1.45 C 164.179637,-1.45 164.41297,-1.683333 164.41297,-2.15 L 164.41297,-4.55 C 164.41297,-5.016667 164.179637,-5.25 163.71297,-5.25 L -163.71297,-5.25" />
      <path d="M -162.21297,7.1 L -162.21297,18.5 A 0.7000000000000001,0.7000000000000001 0.0 0,0 -161.51297,19.2 L -82.556485,19.2 A 0.7000000000000001,0.7000000000000001 0.0 0,0 -81.856485,18.5 L -81.856485,7.1 A 0.7000000000000001,0.7000000000000001 0.0 0,0 -82.556485,6.4 L -161.51297,6.4 A 0.7000000000000001,0.7000000000000001 0.0 0,0 -162.21297,7.1" />
      <path d="M 81.856485,7.1 L 81.856485,18.5 A 0.7000000000000001,0.7000000000000001 0.0 0,0 82.556485,19.2 L 161.51297,19.2 A 0.7000000000000001,0.7000000000000001 0.0 0,0 162.21297,18.5 L 162.21297,7.1 A 0.7000000000000001,0.7000000000000001 0.0 0,0 161.51297,6.4 L 82.556485,6.4 A 0.7000000000000001,0.7000000000000001 0.0 0,0 81.856485,7.1" />
      <path d="M 0.5,7.1 L 0.5,18.5 A 0.7000000000000001,0.7000000000000001 0.0 0,0 1.2,19.2 L 80.156485,19.2 A 0.7000000000000001,0.7000000000000001 0.0 0,0 80.856485,18.5 L 80.856485,7.1 A 0.7000000000000001,0.7000000000000001 0.0 0,0 80.156485,6.4 L 1.2,6.4 A 0.7000000000000001,0.7000000000000001 0.0 0,0 0.5,7.1" />
      <path d="M -80.856485,7.1 L -80.856485,18.5 A 0.7000000000000001,0.7000000000000001 0.0 0,0 -80.156485,19.2 L -1.2,19.2 A 0.7000000000000001,0.7000000000000001 0.0 0,0 -0.5,18.5 L -0.5,7.1 A 0.7000000000000001,0.7000000000000001 0.0 0,0 -1.2,6.4 L -80.156485,6.4 A 0.7000000000000001,0.7000000000000001 0.0 0,0 -80.856485,7.1" />
    </g>
  </g>
</svg>