<?xml version='1.0' encoding='utf-8'?>
<svg width="458.24mm" height="221.74mm" viewBox="-229.12 -116.62 458.24 221.74" version="1.1" xmlns="http://www.w3.org/2000/svg">
  <g transform="scale(1,-1)" stroke-linecap="round">
    <g fill="none" stroke="rgb(0,0,0)" stroke-width="0.09">
      <path d="M -123.825,63.5 L 123.825,63.5 A 133.35,63.5 0.0 0,0 218.173956,44.874471 C 218.77573,44.587569 219.075,44.107409 219.075,43.440742 L 219.075,-43.440742 C 219.075,-44.107409 218.77573,-44.587569 218.173956,-44.874471 A 133.35,63.5 0.0 0,0 123.825,-63.5 L -123.825,-63.5 A 133.35,63.5 0.0 0,0 -218.173956,-44.874471 C -218.77573,-44.587569 -219.075,-44.107409 -219.075,-43.440742 L -219.075,43.440742 C -219.075,44.107409 -218.77573,44.587569 -218.173956,44.874471 A 133.35,63.5 0.0 0,0 -123.825,63.5 M -174.6125,-53.532402 A 1.6,1.6 0.0 0,1 -177.8125,-53.532402 A 1.6,1.6 0.0 0,1 -174.6125,-53.532402 M -65.075,-58.7375 A 1.6000000000000012,1.6000000000000012 0.0 0,1 -68.275,-58.7375 A 1.6000000000000012,1.6000000000000012 0.0 0,1 -65.075,-58.7375 M -205.2875,-43.45 A 1.0,1.0 -90.0 0,1 -204.2875,-44.45 L -148.1375,-44.45 A 1.0,1.0 -90.0 0,1 -147.1375,-43.45 L -147.1375,-6.35 A 1.0,1.0 -90.0 0,1 -148.1375,-5.35 L -204.2875,-5.35 A 1.0,1.0 -90.0 0,1 -205.2875,-6.35 L -205.2875,-43.45 M 68.275,-58.7375 A 1.6000000000000012,1.6000000000000012 0.0 0,1 65.075,-58.7375 A 1.6000000000000012,1.6000000000000012 0.0 0,1 68.275,-58.7375 M 177.8125,-53.532402 A 1.6,1.6 0.0 0,1 174.6125,-53.532402 A 1.6,1.6 0.0 0,1 177.8125,-53.532402 M -143.375,-52.975 A 1.0,1.0 -90.0 0,1 -142.375,-53.975 L 142.375,-53.975 A 1.0,1.0 -90.0 0,1 143.375,-52.975 L 143.375,41.275 A 1.0,1.0 -90.0 0,1 142.375,42.275 L -142.375,42.275 A 1.0,1.0 -90.0 0,1 -143.375,41.275 L -143.375,-52.975 M 147.1375,-43.45 A 1.0,1.0 -90.0 0,1 148.1375,-44.45 L 204.2875,-44.45 A 1.0,1.0 -90.0 0,1 205.2875,-43.45 L 205.2875,-25.4 A 1.0,1.0 -90.0 0,1 204.2875,-24.4 L 187.2375,-24.4 A 1.0,1.0 -90.0 0,0 186.2375,-23.4 L 186.2375,-6.35 A 1.0,1.0 -90.0 0,1 185.2375,-5.35 L 167.1875,-5.35 A 1.0,1.0 -90.0 0,1 166.1875,-6.35 L 166.1875,-23.4 A 1.0,1.0 -90.0 0,0 165.1875,-24.4 L 148.1375,-24.4 A 1.0,1.0 -90.0 0,1 147.1375,-25.4 L 147.1375,-43.45 M -205.2875,-0.5875 A 1.0,1.0 -90.0 0,1 -204.2875,-1.5875 L -148.1375,-1.5875 A 1.0,1.0 -90.0 0,1 -147.1375,-0.5875 L -147.1375,36.5125 A 1.0,1.0 -90.0 0,1 -148.1375,37.5125 L -204.2875,37.5125 A 1.0,1.0 -90.0 0,1 -205.2875,36.5125 L -205.2875,-0.5875 M -174.6125,53.532402 A 1.6,1.6 0.0 0,1 -177.8125,53.532402 A 1.6,1.6 0.0 0,1 -174.6125,53.532402 M -65.075,58.7375 A 1.6000000000000012,1.6000000000000012 0.0 0,1 -68.275,58.7375 A 1.6000000000000012,1.6000000000000012 0.0 0,1 -65.075,58.7375 M 147.1375,-0.5875 A 1.0,1.0 -90.0 0,1 148.1375,-1.5875 L 204.2875,-1.5875 A 1.0,1.0 -90.0 0,1 205.2875,-0.5875 L 205.2875,36.5125 A 1.0,1.0 -90.0 0,1 204.2875,37.5125 L 148.1375,37.5125 A 1.0,1.0 -90.0 0,1 147.1375,36.5125 L 147.1375,-0.5875 M -164.11297,46.8875 A 0.35000000000000003,0.35000000000000003 0.0 0,1 -163.76297,46.5375 L 163.76297,46.5375 A 0.35000000000000003,0.35000000000000003 0.0 0,1 164.11297,46.8875 L 164.11297,49.8875 A 0.35000000000000003,0.35000000000000003 0.0 0,1 163.76297,50.2375 L -163.76297,50.2375 A 0.35000000000000003,0.35000000000000003 0.0 0,1 -164.11297,49.8875 L -164.11297,46.8875 M 68.275,58.7375 A 1.6000000000000012,1.6000000000000012 0.0 0,1 65.075,58.7375 A 1.6000000000000012,1.6000000000000012 0.0 0,1 68.275,58.7375 M 177.8125,53.532402 A 1.6,1.6 0.0 0,1 174.6125,53.532402 A 1.6,1.6 0.0 0,1 177.8125,53.532402" />
      <path d="M 177.181918,68.720195 A 133.35,63.5 0.0 0,0 218.173956,55.399471 C 218.77573,55.112569 219.075,54.632409 219.075,53.965742 L 219.075,51.203242 C 219.075,50.536576 218.741667,50.203242 218.075,50.203242 L 216.425,50.203242 L 216.425,51.003242 A 0.7000000000000001,0.7000000000000001 0.0 0,1 215.725,51.703242 L 213.425,51.703242 A 0.7000000000000001,0.7000000000000001 0.0 0,1 212.725,51.003242 L 212.725,50.203242 L 211.075,50.203242 C 210.408333,50.203242 210.075,50.536576 210.075,51.203242 L 210.075,51.423341 C 210.075,53.010841 209.345202,54.117115 207.871435,54.707173 C 200.337296,57.72452 192.030998,60.34661 183.181997,62.49017 C 181.639149,62.864038 180.837653,62.105603 179.789598,60.913237 A 4.7625,4.7625 0.0 0,0 171.678221,62.600788 C 171.192683,64.112214 170.760184,65.127321 169.196676,65.402275 C 154.737125,67.948564 139.28321,69.265767 123.825,69.2625 L 73.81875,69.2625 C 72.23125,69.2625 71.610733,68.345927 70.842187,66.956865 A 4.7625,4.7625 0.0 0,0 62.507812,66.956865 C 61.739267,68.345927 61.11875,69.2625 59.53125,69.2625 L -59.53125,69.2625 C -61.11875,69.2625 -61.739267,68.345927 -62.507813,66.956865 A 4.7625,4.7625 0.0 0,0 -70.842188,66.956865 C -71.610733,68.345927 -72.23125,69.2625 -73.81875,69.2625 L -123.825,69.2625 C -139.28321,69.265767 -154.737125,67.948564 -169.196676,65.402275 C -170.760184,65.127321 -171.192683,64.112214 -171.678221,62.600788 A 4.7625,4.7625 -167.64049874902997 0,0 -179.789598,60.913237 C -180.837653,62.105603 -181.639149,62.864038 -183.181997,62.49017 C -192.030998,60.34661 -200.337296,57.72452 -207.871435,54.707173 C -209.345202,54.117115 -210.075,53.010841 -210.075,51.423341 L -210.075,51.203242 C -210.075,50.536576 -210.408333,50.203242 -211.075,50.203242 L -212.725,50.203242 L -212.725,51.003242 A 0.7000000000000001,0.7000000000000001 0.0 0,1 -213.425,51.703242 L -215.725,51.703242 A 0.7000000000000001,0.7000000000000001 0.0 0,1 -216.425,51.003242 L -216.425,50.203242 L -218.075,50.203242 C -218.741667,50.203242 -219.075,50.536576 -219.075,51.203242 L -219.075,53.965742 C -219.075,54.632409 -218.77573,55.112569 -218.173956,55.399471 A 133.35,63.5 0.0 0,0 -177.181918,68.720195 A 133.35,63.5 0.0 0,0 -123.825,74.025 L 123.825,74.025 A 133.35,63.5 0.0 0,0 177.181918,68.720195 M -174.6125,64.057402 A 1.6,1.6 0.0 0,1 -177.8125,64.057402 A 1.6,1.6 0.0 0,1 -174.6125,64.057402 M 177.8125,64.057402 A 1.6,1.6 0.0 0,1 174.6125,64.057402 A 1.6,1.6 0.0 0,1 177.8125,64.057402 M -65.075,69.2625 A 1.6000000000000012,1.6000000000000012 0.0 0,1 -68.275,69.2625 A 1.6000000000000012,1.6000000000000012 0.0 0,1 -65.075,69.2625 M 68.275,69.2625 A 1.6000000000000012,1.6000000000000012 0.0 0,1 65.075,69.2625 A 1.6000000000000012,1.6000000000000012 0.0 0,1 68.275,69.2625" />
      <path d="M -218.075,-50.203242 L -216.425,-50.203242 L -216.425,-51.003242 A 0.7000000000000001,0.7000000000000001 0.0 0,1 -215.725,-51.703242 L -213.425,-51.703242 A 0.7000000000000001,0.7000000000000001 0.0 0,1 -212.725,-51.003242 L -212.725,-50.203242 L -211.075,-50.203242 C -210.408333,-50.203242 -210.075,-50.536576 -210.075,-51.203242 L -210.075,-51.423341 C -210.075,-53.010841 -209.345202,-54.117115 -207.871435,-54.707173 C -200.337296,-57.72452 -192.030998,-60.34661 -183.181997,-62.49017 C -181.639149,-62.864038 -180.837653,-62.105603 -179.789598,-60.913237 A 4.7625,4.7625 -11.145674118505378 0,0 -171.678221,-62.600788 C -171.192683,-64.112214 -170.760184,-65.127321 -169.196676,-65.402275 C -154.737125,-67.948564 -139.28321,-69.265767 -123.825,-69.2625 L -73.81875,-69.2625 C -72.23125,-69.2625 -71.610733,-68.345927 -70.842187,-66.956865 A 4.7625,4.7625 0.0 0,0 -62.507813,-66.956865 C -61.739267,-68.345927 -61.11875,-69.2625 -59.53125,-69.2625 L 59.53125,-69.2625 C 61.11875,-69.2625 61.739267,-68.345927 62.507813,-66.956865 A 4.7625,4.7625 0.0 0,0 70.842187,-66.956865 C 71.610733,-68.345927 72.23125,-69.2625 73.81875,-69.2625 L 123.825,-69.2625 C 139.28321,-69.265767 154.737125,-67.948564 169.196676,-65.402275 C 170.760184,-65.127321 171.192683,-64.112214 171.678221,-62.600788 A 4.7625,4.7625 0.0 0,0 179.789598,-60.913237 C 180.837653,-62.105603 181.639149,-62.864038 183.181997,-62.49017 C 192.030998,-60.34661 200.337296,-57.72452 207.871435,-54.707173 C 209.345202,-54.117115 210.075,-53.010841 210.075,-51.423341 L 210.075,-51.203242 C 210.075,-50.536576 210.408333,-50.203242 211.075,-50.203242 L 212.725,-50.203242 L 212.725,-51.003242 A 0.7000000000000001,0.7000000000000001 0.0 0,1 213.425,-51.703242 L 215.725,-51.703242 A 0.7000000000000001,0.7000000000000001 0.0 0,1 216.425,-51.003242 L 216.425,-50.203242 L 218.075,-50.203242 C 218.741667,-50.203242 219.075,-50.536576 219.075,-51.203242 L 219.075,-53.965742 C 219.075,-54.632409 218.77573,-55.112569 218.173956,-55.399471 A 133.35,63.5 0.0 0,0 177.181918,-68.720195 A 133.35,63.5 0.0 0,0 123.825,-74.025 L -123.825,-74.025 A 133.35,63.5 0.0 0,0 -177.181918,-68.720195 A 133.35,63.5 0.0 0,0 -218.173956,-55.399471 C -218.77573,-55.112569 -219.075,-54.632409 -219.075,-53.965742 L -219.075,-51.203242 C -219.075,-50.536576 -218.741667,-50.203242 -218.075,-50.203242 M -65.075,-69.2625 A 1.6000000000000012,1.6000000000000012 0.0 0,1 -68.275,-69.2625 A 1.6000000000000012,1.6000000000000012 0.0 0,1 -65.075,-69.2625 M 68.275,-69.2625 A 1.6000000000000012,1.6000000000000012 0.0 0,1 65.075,-69.2625 A 1.6000000000000012,1.6000000000000012 0.0 0,1 68.275,-69.2625 M -174.6125,-64.057402 A 1.6,1.6 0.0 0,1 -177.8125,-64.057402 A 1.6,1.6 0.0 0,1 -174.6125,-64.057402 M 177.8125,-64.057402 A 1.6,1.6 0.0 0,1 174.6125,-64.057402 A 1.6,1.6 0.0 0,1 177.8125,-64.057402" />
      <path d="M 177.181918,79.245195 A 133.35,63.5 0.0 0,0 218.173956,65.924471 C 218.77573,65.637569 219.075,65.157409 219.075,64.490742 L 219.075,61.728242 C 219.075,61.061576 218.741667,60.728242 218.075,60.728242 L 216.425,60.728242 L 216.425,61.528242 A 0.7000000000000001,0.7000000000000001 0.0 0,1 215.725,62.228242 L 213.425,62.228242 A 0.7000000000000001,0.7000000000000001 0.0 0,1 212.725,61.528242 L 212.725,60.728242 L 211.075,60.728242 C 210.408333,60.728242 210.075,61.061576 210.075,61.728242 L 210.075,61.948341 C 210.075,63.535841 209.345202,64.642115 207.871435,65.232173 C 200.337296,68.24952 192.030998,70.87161 183.181997,73.01517 C 181.639149,73.389038 180.837653,72.630603 179.789598,71.438237 A 4.7625,4.7625 0.0 0,0 171.678221,73.125788 C 171.192683,74.637214 170.760184,75.652321 169.196676,75.927275 C 154.737125,78.473564 139.28321,79.790767 123.825,79.7875 L 73.81875,79.7875 C 72.23125,79.7875 71.610733,78.870927 70.842187,77.481865 A 4.7625,4.7625 0.0 0,0 62.507812,77.481865 C 61.739267,78.870927 61.11875,79.7875 59.53125,79.7875 L -59.53125,79.7875 C -61.11875,79.7875 -61.739267,78.870927 -62.507813,77.481865 A 4.7625,4.7625 0.0 0,0 -70.842188,77.481865 C -71.610733,78.870927 -72.23125,79.7875 -73.81875,79.7875 L -123.825,79.7875 C -139.28321,79.790767 -154.737125,78.473564 -169.196676,75.927275 C -170.760184,75.652321 -171.192683,74.637214 -171.678221,73.125788 A 4.7625,4.7625 -167.64049874902997 0,0 -179.789598,71.438237 C -180.837653,72.630603 -181.639149,73.389038 -183.181997,73.01517 C -192.030998,70.87161 -200.337296,68.24952 -207.871435,65.232173 C -209.345202,64.642115 -210.075,63.535841 -210.075,61.948341 L -210.075,61.728242 C -210.075,61.061576 -210.408333,60.728242 -211.075,60.728242 L -212.725,60.728242 L -212.725,61.528242 A 0.7000000000000001,0.7000000000000001 0.0 0,1 -213.425,62.228242 L -215.725,62.228242 A 0.7000000000000001,0.7000000000000001 0.0 0,1 -216.425,61.528242 L -216.425,60.728242 L -218.075,60.728242 C -218.741667,60.728242 -219.075,61.061576 -219.075,61.728242 L -219.075,64.490742 C -219.075,65.157409 -218.77573,65.637569 -218.173956,65.924471 A 133.35,63.5 0.0 0,0 -177.181918,79.245195 A 133.35,63.5 0.0 0,0 -123.825,84.55 L 123.825,84.55 A 133.35,63.5 0.0 0,0 177.181918,79.245195 M -174.6125,74.582402 A 1.6,1.6 0.0 0,1 -177.8125,74.582402 A 1.6,1.6 0.0 0,1 -174.6125,74.582402 M 177.8125,74.582402 A 1.6,1.6 0.0 0,1 174.6125,74.582402 A 1.6,1.6 0.0 0,1 177.8125,74.582402 M -65.075,79.7875 A 1.6000000000000012,1.6000000000000012 0.0 0,1 -68.275,79.7875 A 1.6000000000000012,1.6000000000000012 0.0 0,1 -65.075,79.7875 M 68.275,79.7875 A 1.6000000000000012,1.6000000000000012 0.0 0,1 65.075,79.7875 A 1.6000000000000012,1.6000000000000012 0.0 0,1 68.275,79.7875" />
      <path d="M -218.075,-60.728242 L -216.425,-60.728242 L -216.425,-61.528242 A 0.7000000000000001,0.7000000000000001 0.0 0,1 -215.725,-62.228242 L -213.425,-62.228242 A 0.7000000000000001,0.7000000000000001 0.0 0,1 -212.725,-61.528242 L -212.725,-60.728242 L -211.075,-60.728242 C -210.408333,-60.728242 -210.075,-61.061576 -210.075,-61.728242 L -210.075,-61.948341 C -210.075,-63.535841 -209.345202,-64.642115 -207.871435,-65.232173 C -200.337296,-68.24952 -192.030998,-70.87161 -183.181997,-73.01517 C -181.639149,-73.389038 -180.837653,-72.630603 -179.789598,-71.438237 A 4.7625,4.7625 -11.145674118505378 0,0 -171.678221,-73.125788 C -171.192683,-74.637214 -170.760184,-75.652321 -169.196676,-75.927275 C -154.737125,-78.473564 -139.28321,-79.790767 -123.825,-79.7875 L -73.81875,-79.7875 C -72.23125,-79.7875 -71.610733,-78.870927 -70.842187,-77.481865 A 4.7625,4.7625 0.0 0,0 -62.507813,-77.481865 C -61.739267,-78.870927 -61.11875,-79.7875 -59.53125,-79.7875 L 59.53125,-79.7875 C 61.11875,-79.7875 61.739267,-78.870927 62.507813,-77.481865 A 4.7625,4.7625 0.0 0,0 70.842187,-77.481865 C 71.610733,-78.870927 72.23125,-79.7875 73.81875,-79.7875 L 123.825,-79.7875 C 139.28321,-79.790767 154.737125,-78.473564 169.196676,-75.927275 C 170.760184,-75.652321 171.192683,-74.637214 171.678221,-73.125788 A 4.7625,4.7625 0.0 0,0 179.789598,-71.438237 C 180.837653,-72.630603 181.639149,-73.389038 183.181997,-73.01517 C 192.030998,-70.87161 200.337296,-68.24952 207.871435,-65.232173 C 209.345202,-64.642115 210.075,-63.535841 210.075,-61.948341 L 210.075,-61.728242 C 210.075,-61.061576 210.408333,-60.728242 211.075,-60.728242 L 212.725,-60.728242 L 212.725,-61.528242 A 0.7000000000000001,0.7000000000000001 0.0 0,1 213.425,-62.228242 L 215.725,-62.228242 A 0.7000000000000001,0.7000000000000001 0.0 0,1 216.425,-61.528242 L 216.425,-60.728242 L 218.075,-60.728242 C 218.741667,-60.728242 219.075,-61.061576 219.075,-61.728242 L 219.075,-64.490742 C 219.075,-65.157409 218.77573,-65.637569 218.173956,-65.924471 A 133.35,63.5 0.0 0,0 177.181918,-79.245195 A 133.35,63.5 0.0 0,0 123.825,-84.55 L -123.825,-84.55 A 133.35,63.5 0.0 0,0 -177.181918,-79.245195 A 133.35,63.5 0.0 0,0 -218.173956,-65.924471 C -218.77573,-65.637569 -219.075,-65.157409 -219.075,-64.490742 L -219.075,-61.728242 C -219.075,-61.061576 -218.741667,-60.728242 -218.075,-60.728242 M -64.075,-79.7875 A 2.6000000000000014,2.6000000000000014 0.0 0,1 -69.275,-79.7875 A 2.6000000000000014,2.6000000000000014 0.0 0,1 -64.075,-79.7875 M 69.275,-79.7875 A 2.6000000000000014,2.6000000000000014 0.0 0,1 64.075,-79.7875 A 2.6000000000000014,2.6000000000000014 0.0 0,1 69.275,-79.7875 M -173.6125,-74.582402 A 2.6,2.6 0.0 0,1 -178.8125,-74.582402 A 2.6,2.6 0.0 0,1 -173.6125,-74.582402 M 178.8125,-74.582402 A 2.6,2.6 0.0 0,1 173.6125,-74.582402 A 2.6,2.6 0.0 0,1 178.8125,-74.582402" />
      <path d="M -4.5,95.075 L -4.5,94.075 L -8.0,94.075 A 1.5,1.5 0.0 0,1 -9.5,92.575 L -9.5,90.3125 L -59.53125,90.3125 C -61.11875,90.3125 -61.739267,89.395927 -62.507813,88.006865 A 4.7625,4.7625 0.0 0,0 -70.842188,88.006865 C -71.610733,89.395927 -72.23125,90.3125 -73.81875,90.3125 L -123.825,90.3125 C -139.28321,90.315767 -154.737125,88.998564 -169.196676,86.452275 C -170.760184,86.177321 -171.192683,85.162214 -171.678221,83.650788 A 4.7625,4.7625 -167.64049874902997 0,0 -179.789598,81.963237 C -180.837653,83.155603 -181.639149,83.914038 -183.181997,83.54017 C -192.030998,81.39661 -200.337296,78.77452 -207.871435,75.757173 C -209.345202,75.167115 -210.075,74.060841 -210.075,72.473341 L -210.075,72.253242 C -210.075,71.586576 -210.408333,71.253242 -211.075,71.253242 L -212.725,71.253242 L -212.725,72.053242 A 0.7000000000000001,0.7000000000000001 0.0 0,1 -213.425,72.753242 L -215.725,72.753242 A 0.7000000000000001,0.7000000000000001 0.0 0,1 -216.425,72.053242 L -216.425,71.253242 L -218.075,71.253242 C -218.741667,71.253242 -219.075,71.586576 -219.075,72.253242 L -219.075,75.015742 C -219.075,75.682409 -218.77573,76.162569 -218.173956,76.449471 A 133.35,63.5 0.0 0,0 -177.181918,89.770195 A 133.35,63.5 0.0 0,0 -123.825,95.075 L -4.5,95.075 M -174.6125,85.107402 A 1.6,1.6 0.0 0,1 -177.8125,85.107402 A 1.6,1.6 0.0 0,1 -174.6125,85.107402 M -65.075,90.3125 A 1.6000000000000012,1.6000000000000012 0.0 0,1 -68.275,90.3125 A 1.6000000000000012,1.6000000000000012 0.0 0,1 -65.075,90.3125" />
      <path d="M 218.173956,76.449471 C 218.77573,76.162569 219.075,75.682409 219.075,75.015742 L 219.075,72.253242 C 219.075,71.586576 218.741667,71.253242 218.075,71.253242 L 216.425,71.253242 L 216.425,72.053242 A 0.7000000000000001,0.7000000000000001 0.0 0,1 215.725,72.753242 L 213.425,72.753242 A 0.7000000000000001,0.7000000000000001 0.0 0,1 212.725,72.053242 L 212.725,71.253242 L 211.075,71.253242 C 210.408333,71.253242 210.075,71.586576 210.075,72.253242 L 210.075,72.473341 C 210.075,74.060841 209.345202,75.167115 207.871435,75.757173 C 200.337296,78.77452 192.030998,81.39661 183.181997,83.54017 C 181.639149,83.914038 180.837653,83.155603 179.789598,81.963237 A 4.7625,4.7625 0.0 0,0 171.678221,83.650788 C 171.192683,85.162214 170.760184,86.177321 169.196676,86.452275 C 154.737125,88.998564 139.28321,90.315767 123.825,90.3125 L 73.81875,90.3125 C 72.23125,90.3125 71.610733,89.395927 70.842187,88.006865 A 4.7625,4.7625 0.0 0,0 62.507812,88.006865 C 61.739267,89.395927 61.11875,90.3125 59.53125,90.3125 L 9.5,90.3125 L 9.5,92.575 A 1.5,1.5 0.0 0,1 8.0,94.075 L 4.5,94.075 L 4.5,95.075 L 123.825,95.075 A 133.35,63.5 0.0 0,0 177.181918,89.770195 A 133.35,63.5 0.0 0,0 218.173956,76.449471 M 177.8125,85.107402 A 1.6,1.6 0.0 0,1 174.6125,85.107402 A 1.6,1.6 0.0 0,1 177.8125,85.107402 M 68.275,90.3125 A 1.6000000000000012,1.6000000000000012 0.0 0,1 65.075,90.3125 A 1.6000000000000012,1.6000000000000012 0.0 0,1 68.275,90.3125" />
      <path d="M -218.075,-71.253242 L -216.425,-71.253242 L -216.425,-72.053242 A 0.7000000000000001,0.7000000000000001 0.0 0,1 -215.725,-72.753242 L -213.425,-72.753242 A 0.7000000000000001,0.7000000000000001 0.0 0,1 -212.725,-72.053242 L -212.725,-71.253242 L -211.075,-71.253242 C -210.408333,-71.253242 -210.075,-71.586576 -210.075,-72.253242 L -210.075,-72.473341 C -210.075,-74.060841 -209.345202,-75.167115 -207.871435,-75.757173 C -200.337296,-78.77452 -192.030998,-81.39661 -183.181997,-83.54017 C -181.639149,-83.914038 -180.837653,-83.155603 -179.789598,-81.963237 A 4.7625,4.7625 -11.145674118505378 0,0 -171.678221,-83.650788 C -171.192683,-85.162214 -170.760184,-86.177321 -169.196676,-86.452275 C -154.737125,-88.998564 -139.28321,-90.315767 -123.825,-90.3125 L -73.81875,-90.3125 C -72.23125,-90.3125 -71.610733,-89.395927 -70.842187,-88.006865 A 4.7625,4.7625 0.0 0,0 -62.507813,-88.006865 C -61.739267,-89.395927 -61.11875,-90.3125 -59.53125,-90.3125 L 59.53125,-90.3125 C 61.11875,-90.3125 61.739267,-89.395927 62.507813,-88.006865 A 4.7625,4.7625 0.0 0,0 70.842187,-88.006865 C 71.610733,-89.395927 72.23125,-90.3125 73.81875,-90.3125 L 123.825,-90.3125 C 139.28321,-90.315767 154.737125,-88.998564 169.196676,-86.452275 C 170.760184,-86.177321 171.192683,-85.162214 171.678221,-83.650788 A 4.7625,4.7625 0.0 0,0 179.789598,-81.963237 C 180.837653,-83.155603 181.639149,-83.914038 183.181997,-83.54017 C 192.030998,-81.39661 200.337296,-78.77452 207.871435,-75.757173 C 209.345202,-75.167115 210.075,-74.060841 210.075,-72.473341 L 210.075,-72.253242 C 210.075,-71.586576 210.408333,-71.253242 211.075,-71.253242 L 212.725,-71.253242 L 212.725,-72.053242 A 0.7000000000000001,0.7000000000000001 0.0 0,1 213.425,-72.753242 L 215.725,-72.753242 A 0.7000000000000001,0.7000000000000001 0.0 0,1 216.425,-72.053242 L 216.425,-71.253242 L 218.075,-71.253242 C 218.741667,-71.253242 219.075,-71.586576 219.075,-72.253242 L 219.075,-75.015742 C 219.075,-75.682409 218.77573,-76.162569 218.173956,-76.449471 A 133.35,63.5 0.0 0,0 177.181918,-89.770195 A 133.35,63.5 0.0 0,0 123.825,-95.075 L -123.825,-95.075 A 133.35,63.5 0.0 0,0 -177.181918,-89.770195 A 133.35,63.5 0.0 0,0 -218.173956,-76.449471 C -218.77573,-76.162569 -219.075,-75.682409 -219.075,-75.015742 L -219.075,-72.253242 C -219.075,-71.586576 -218.741667,-71.253242 -218.075,-71.253242 M -64.075,-90.3125 A 2.6000000000000014,2.6000000000000014 0.0 0,1 -69.275,-90.3125 A 2.6000000000000014,2.6000000000000014 0.0 0,1 -64.075,-90.3125 M 69.275,-90.3125 A 2.6000000000000014,2.6000000000000014 0.0 0,1 64.075,-90.3125 A 2.6000000000000014,2.6000000000000014 0.0 0,1 69.275,-90.3125 M -173.6125,-85.107402 A 2.6,2.6 0.0 0,1 -178.8125,-85.107402 A 2.6,2.6 0.0 0,1 -173.6125,-85.107402 M 178.8125,-85.107402 A 2.6,2.6 0.0 0,1 173.6125,-85.107402 A 2.6,2.6 0.0 0,1 178.8125,-85.107402" />
      <path d="M -8.365049,26.044902 L -117.902549,26.044902 A 4.812333537401727,4.812333537401727 -90.0 0,0 -119.820307,35.270937 A 133.35,63.5 0.0 0,0 -117.902549,35.669569 A 133.35,63.5 0.0 0,0 -65.515049,40.775 L -8.365049,40.775 A 7.365048999999998,7.365048999999998 180.0 0,0 -8.365049,26.044902 M -116.302549,30.807402 A 1.6000000000000012,1.6000000000000012 0.0 0,1 -119.502549,30.807402 A 1.6000000000000012,1.6000000000000012 0.0 0,1 -116.302549,30.807402 M -6.765049,36.0125 A 1.6,1.6 0.0 0,1 -9.965049,36.0125 A 1.6,1.6 0.0 0,1 -6.765049,36.0125" />
      <path d="M 117.902549,26.044902 L 8.365049,26.044902 A 7.365048999999998,7.365048999999998 0.0 0,0 8.365049,40.775 L 65.515049,40.775 A 133.35,63.5 0.0 0,0 117.902549,35.669569 A 133.35,63.5 0.0 0,0 119.820307,35.270937 A 4.812333537401727,4.812333537401727 -90.0 0,0 117.902549,26.044902 M 119.502549,30.807402 A 1.6000000000000012,1.6000000000000012 0.0 0,1 116.302549,30.807402 A 1.6000000000000012,1.6000000000000012 0.0 0,1 119.502549,30.807402 M 9.965049,36.0125 A 1.6,1.6 0.0 0,1 6.765049,36.0125 A 1.6,1.6 0.0 0,1 9.965049,36.0125" />
      <path d="M -8.365049,10.314804 L -117.902549,10.314804 A 4.812333537401727,4.812333537401727 -90.0 0,0 -119.820307,19.540839 A 133.35,63.5 0.0 0,0 -117.902549,19.939471 A 133.35,63.5 0.0 0,0 -65.515049,25.044902 L -8.365049,25.044902 A 7.365049,7.365049 180.0 0,0 -8.365049,10.314804 M -116.302549,15.077304 A 1.6000000000000012,1.6000000000000012 0.0 0,1 -119.502549,15.077304 A 1.6000000000000012,1.6000000000000012 0.0 0,1 -116.302549,15.077304 M -6.765049,20.282402 A 1.6,1.6 0.0 0,1 -9.965049,20.282402 A 1.6,1.6 0.0 0,1 -6.765049,20.282402" />
      <path d="M 117.902549,10.314804 L 8.365049,10.314804 A 7.365049,7.365049 0.0 0,0 8.365049,25.044902 L 65.515049,25.044902 A 133.35,63.5 0.0 0,0 117.902549,19.939471 A 133.35,63.5 0.0 0,0 119.820307,19.540839 A 4.812333537401727,4.812333537401727 -90.0 0,0 117.902549,10.314804 M 119.502549,15.077304 A 1.6000000000000012,1.6000000000000012 0.0 0,1 116.302549,15.077304 A 1.6000000000000012,1.6000000000000012 0.0 0,1 119.502549,15.077304 M 9.965049,20.282402 A 1.6,1.6 0.0 0,1 6.765049,20.282402 A 1.6,1.6 0.0 0,1 9.965049,20.282402" />
      <path d="M -8.365049,-5.415294 L -117.902549,-5.415294 A 4.812333537401727,4.812333537401727 -90.0 0,0 -119.820307,3.810741 A 133.35,63.5 0.0 0,0 -117.902549,4.209373 A 133.35,63.5 0.0 0,0 -65.515049,9.314804 L -8.365049,9.314804 A 7.365049,7.365049 180.0 0,0 -8.365049,-5.415294 M -116.302549,-0.652794 A 1.6000000000000012,1.6000000000000012 0.0 0,1 -119.502549,-0.652794 A 1.6000000000000012,1.6000000000000012 0.0 0,1 -116.302549,-0.652794 M -6.765049,4.552304 A 1.6,1.6 0.0 0,1 -9.965049,4.552304 A 1.6,1.6 0.0 0,1 -6.765049,4.552304" />
      <path d="M 117.902549,-5.415294 L 8.365049,-5.415294 A 7.365049,7.365049 0.0 0,0 8.365049,9.314804 L 65.515049,9.314804 A 133.35,63.5 0.0 0,0 117.902549,4.209373 A 133.35,63.5 0.0 0,0 119.820307,3.810741 A 4.812333537401727,4.812333537401727 -90.0 0,0 117.902549,-5.415294 M 119.502549,-0.652794 A 1.6000000000000012,1.6000000000000012 0.0 0,1 116.302549,-0.652794 A 1.6000000000000012,1.6000000000000012 0.0 0,1 119.502549,-0.652794 M 9.965049,4.552304 A 1.6,1.6 0.0 0,1 6.765049,4.552304 A 1.6,1.6 0.0 0,1 9.965049,4.552304" />
      <path d="M -8.365049,-21.145392 L -117.902549,-21.145392 A 4.812333537401727,4.812333537401727 -90.0 0,0 -119.820307,-11.919357 A 133.35,63.5 0.0 0,0 -117.902549,-11.520725 A 133.35,63.5 0.0 0,0 -65.515049,-6.415294 L -8.365049,-6.415294 A 7.365049,7.365049 180.0 0,0 -8.365049,-21.145392 M -115.302549,-16.382892 A 2.6000000000000014,2.6000000000000014 0.0 0,1 -120.502549,-16.382892 A 2.6000000000000014,2.6000000000000014 0.0 0,1 -115.302549,-16.382892 M -5.765049,-11.177794 A 2.6,2.6 0.0 0,1 -10.965049,-11.177794 A 2.6,2.6 0.0 0,1 -5.765049,-11.177794" />
      <path d="M 117.902549,-21.145392 L 8.365049,-21.145392 A 7.365049,7.365049 0.0 0,0 8.365049,-6.415294 L 65.515049,-6.415294 A 133.35,63.5 0.0 0,0 117.902549,-11.520725 A 133.35,63.5 0.0 0,0 119.820307,-11.919357 A 4.812333537401727,4.812333537401727 -90.0 0,0 117.902549,-21.145392 M 120.502549,-16.382892 A 2.6000000000000014,2.6000000000000014 0.0 0,1 115.302549,-16.382892 A 2.6000000000000014,2.6000000000000014 0.0 0,1 120.502549,-16.382892 M 10.965049,-11.177794 A 2.6,2.6 0.0 0,1 5.765049,-11.177794 A 2.6,2.6 0.0 0,1 10.965049,-11.177794" />
      <path d="M -8.365049,-36.87549 L -117.902549,-36.87549 A 4.812333537401727,4.812333537401727 -90.0 0,0 -119.820307,-27.649455 A 133.35,63.5 0.0 0,0 -117.902549,-27.250823 A 133.35,63.5 0.0 0,0 -65.515049,-22.145392 L -8.365049,-22.145392 A 7.365048999999998,7.365048999999998 180.0 0,0 -8.365049,-36.87549 M -115.302549,-32.11299 A 2.6000000000000014,2.6000000000000014 0.0 0,1 -120.502549,-32.11299 A 2.6000000000000014,2.6000000000000014 0.0 0,1 -115.302549,-32.11299 M -5.765049,-26.907892 A 2.6,2.6 0.0 0,1 -10.965049,-26.907892 A 2.6,2.6 0.0 0,1 -5.765049,-26.907892" />
      <path d="M 117.902549,-36.87549 L 8.365049,-36.87549 A 7.365048999999998,7.365048999999998 0.0 0,0 8.365049,-22.145392 L 65.515049,-22.145392 A 133.35,63.5 0.0 0,0 117.902549,-27.250823 A 133.35,63.5 0.0 0,0 119.820307,-27.649455 A 4.812333537401727,4.812333537401727 -90.0 0,0 117.902549,-36.87549 M 120.502549,-32.11299 A 2.6000000000000014,2.6000000000000014 0.0 0,1 115.302549,-32.11299 A 2.6000000000000014,2.6000000000000014 0.0 0,1 120.502549,-32.11299 M 10.965049,-26.907892 A 2.6,2.6 0.0 0,1 5.765049,-26.907892 A 2.6,2.6 0.0 0,1 10.965049,-26.907892" />
      <path d="M -8.365049,-52.605588 L -117.902549,-52.605588 A 4.812333537401727,4.812333537401727 -90.0 0,0 -119.820307,-43.379553 A 133.35,63.5 0.0 0,0 -117.902549,-42.980921 A 133.35,63.5 0.0 0,0 -65.515049,-37.87549 L -8.365049,-37.87549 A 7.365048999999998,7.365048999999998 180.0 0,0 -8.365049,-52.605588 M -115.302549,-47.843088 A 2.6000000000000014,2.6000000000000014 0.0 0,1 -120.502549,-47.843088 A 2.6000000000000014,2.6000000000000014 0.0 0,1 -115.302549,-47.843088 M -5.765049,-42.63799 A 2.6,2.6 0.0 0,1 -10.965049,-42.63799 A 2.6,2.6 0.0 0,1 -5.765049,-42.63799" />
      <path d="M 117.902549,-52.605588 L 8.365049,-52.605588 A 7.365048999999998,7.365048999999998 0.0 0,0 8.365049,-37.87549 L 65.515049,-37.87549 A 133.35,63.5 0.0 0,0 117.902549,-42.980921 A 133.35,63.5 0.0 0,0 119.820307,-43.379553 A 4.812333537401727,4.812333537401727 -90.0 0,0 117.902549,-52.605588 M 120.502549,-47.843088 A 2.6000000000000014,2.6000000000000014 0.0 0,1 115.302549,-47.843088 A 2.6000000000000014,2.6000000000000014 0.0 0,1 120.502549,-47.843088 M 10.965049,-42.63799 A 2.6,2.6 0.0 0,1 5.765049,-42.63799 A 2.6,2.6 0.0 0,1 10.965049,-42.63799" />
      <path d="M -165.86297,96.075 C -166.529637,96.075 -166.86297,96.408333 -166.86297,97.075 L -166.86297,98.875 C -166.86297,99.541667 -166.529637,99.875 -165.86297,99.875 L -164.86297,99.875 C -164.196303,99.875 -163.86297,100.208333 -163.86297,100.875 L -163.86297,105.575 C -163.86297,106.241667 -163.529637,106.575 -162.86297,106.575 L 162.86297,106.575 C 163.529637,106.575 163.86297,106.241667 163.86297,105.575 L 163.86297,100.875 C 163.86297,100.208333 164.196303,99.875 164.86297,99.875 L 165.86297,99.875 C 166.529637,99.875 166.86297,99.541667 166.86297,98.875 L 166.86297,97.075 C 166.86297,96.408333 166.529637,96.075 165.86297,96.075 L -165.86297,96.075" />
      <path d="M 137.1125,-46.778242 L 126.3125,-46.778242 A 1.0,1.0 90.0 0,0 125.3125,-45.778242 L 125.3125,34.078242 A 1.0,1.0 90.0 0,0 126.3125,35.078242 L 137.1125,35.078242 A 1.0,1.0 90.0 0,0 138.1125,34.078242 L 138.1125,-45.778242 A 1.0,1.0 90.0 0,0 137.1125,-46.778242" />
      <path d="M -126.3125,-46.778242 L -137.1125,-46.778242 A 1.0,1.0 90.0 0,0 -138.1125,-45.778242 L -138.1125,34.078242 A 1.0,1.0 90.0 0,0 -137.1125,35.078242 L -126.3125,35.078242 A 1.0,1.0 90.0 0,0 -125.3125,34.078242 L -125.3125,-45.778242 A 1.0,1.0 90.0 0,0 -126.3125,-46.778242" />
    </g>
  </g>
</svg>