<?xml version='1.0' encoding='utf-8'?>
<svg width="439.74mm" height="193.415mm" viewBox="-219.87 -96.7075 439.74 193.415" version="1.1" xmlns="http://www.w3.org/2000/svg">
  <g transform="scale(1,-1)" stroke-linecap="round">
    <g fill="none" stroke="rgb(0,0,0)" stroke-width="0.09">
      <path d="M -123.825,65.0875 L 123.825,65.0875 A 133.35,65.0875 0.0 0,0 218.178224,45.994247 C 218.777187,45.70152 219.075,45.218428 219.075,44.551761 L 219.075,-44.551761 C 219.075,-45.218428 218.777187,-45.70152 218.178224,-45.994247 A 133.35,65.0875 0.0 0,0 123.825,-65.0875 L -123.825,-65.0875 A 133.35,65.0875 0.0 0,0 -218.178224,-45.994247 C -218.777187,-45.70152 -219.075,-45.218428 -219.075,-44.551761 L -219.075,44.551761 C -219.075,45.218428 -218.777187,45.70152 -218.178224,45.994247 A 133.35,65.0875 0.0 0,0 -123.825,65.0875 M -174.6125,-54.98722 A 1.6,1.6 0.0 0,1 -177.8125,-54.98722 A 1.6,1.6 0.0 0,1 -174.6125,-54.98722 M -65.075,-60.325 A 1.6000000000000012,1.6000000000000012 0.0 0,1 -68.275,-60.325 A 1.6000000000000012,1.6000000000000012 0.0 0,1 -65.075,-60.325 M -204.7875,-45.5375 C -204.7875,-45.870833 -204.620833,-46.0375 -204.2875,-46.0375 L -148.1375,-46.0375 C -147.804167,-46.0375 -147.6375,-45.870833 -147.6375,-45.5375 L -147.6375,-8.4375 C -147.6375,-8.104167 -147.804167,-7.9375 -148.1375,-7.9375 L -204.2875,-7.9375 C -204.620833,-7.9375 -204.7875,-8.104167 -204.7875,-8.4375 L -204.7875,-45.5375 M 68.275,-60.325 A 1.6000000000000012,1.6000000000000012 0.0 0,1 65.075,-60.325 A 1.6000000000000012,1.6000000000000012 0.0 0,1 68.275,-60.325 M 177.8125,-54.98722 A 1.6,1.6 0.0 0,1 174.6125,-54.98722 A 1.6,1.6 0.0 0,1 177.8125,-54.98722 M -142.875,-55.0625 C -142.875,-55.395833 -142.708333,-55.5625 -142.375,-55.5625 L 142.375,-55.5625 C 142.708333,-55.5625 142.875,-55.395833 142.875,-55.0625 L 142.875,39.1875 C 142.875,39.520833 142.708333,39.6875 142.375,39.6875 L -142.375,39.6875 C -142.708333,39.6875 -142.875,39.520833 -142.875,39.1875 L -142.875,-55.0625 M 147.6375,-45.5375 C 147.6375,-45.870833 147.804167,-46.0375 148.1375,-46.0375 L 204.2875,-46.0375 C 204.620833,-46.0375 204.7875,-45.870833 204.7875,-45.5375 L 204.7875,-27.4875 C 204.7875,-27.154167 204.620833,-26.9875 204.2875,-26.9875 L 186.2375,-26.9875 C 185.904167,-26.9875 185.7375,-26.820833 185.7375,-26.4875 L 185.7375,-8.4375 C 185.7375,-8.104167 185.570833,-7.9375 185.2375,-7.9375 L 167.1875,-7.9375 C 166.854167,-7.9375 166.6875,-8.104167 166.6875,-8.4375 L 166.6875,-26.4875 C 166.6875,-26.820833 166.520833,-26.9875 166.1875,-26.9875 L 148.1375,-26.9875 C 147.804167,-26.9875 147.6375,-27.154167 147.6375,-27.4875 L 147.6375,-45.5375 M -204.7875,-2.675 C -204.7875,-3.008333 -204.620833,-3.175 -204.2875,-3.175 L -148.1375,-3.175 C -147.804167,-3.175 -147.6375,-3.008333 -147.6375,-2.675 L -147.6375,34.425 C -147.6375,34.758333 -147.804167,34.925 -148.1375,34.925 L -204.2875,34.925 C -204.620833,34.925 -204.7875,34.758333 -204.7875,34.425 L -204.7875,-2.675 M -174.6125,54.98722 A 1.6,1.6 0.0 0,1 -177.8125,54.98722 A 1.6,1.6 0.0 0,1 -174.6125,54.98722 M -65.075,60.325 A 1.6000000000000012,1.6000000000000012 0.0 0,1 -68.275,60.325 A 1.6000000000000012,1.6000000000000012 0.0 0,1 -65.075,60.325 M 147.6375,-2.675 C 147.6375,-3.008333 147.804167,-3.175 148.1375,-3.175 L 204.2875,-3.175 C 204.620833,-3.175 204.7875,-3.008333 204.7875,-2.675 L 204.7875,34.425 C 204.7875,34.758333 204.620833,34.925 204.2875,34.925 L 148.1375,34.925 C 147.804167,34.925 147.6375,34.758333 147.6375,34.425 L 147.6375,-2.675 M -142.875,44.8 A 0.35000000000000003,0.35000000000000003 0.0 0,1 -142.525,44.45 L 142.525,44.45 A 0.35000000000000003,0.35000000000000003 0.0 0,1 142.875,44.8 L 142.875,47.8 A 0.35000000000000003,0.35000000000000003 0.0 0,1 142.525,48.15 L -142.525,48.15 A 0.35000000000000003,0.35000000000000003 0.0 0,1 -142.875,47.8 L -142.875,44.8 M 68.275,60.325 A 1.6000000000000012,1.6000000000000012 0.0 0,1 65.075,60.325 A 1.6000000000000012,1.6000000000000012 0.0 0,1 68.275,60.325 M 177.8125,54.98722 A 1.6,1.6 0.0 0,1 174.6125,54.98722 A 1.6,1.6 0.0 0,1 177.8125,54.98722" />
      <path d="M 177.205615,69.920023 A 133.35,65.0875 0.0 0,0 218.178224,56.269247 C 218.777187,55.97652 219.075,55.493428 219.075,54.826761 L 219.075,52.064261 C 219.075,51.397594 218.741667,51.064261 218.075,51.064261 L 216.425,51.064261 L 216.425,51.564261 A 0.5,0.5 0.0 0,1 215.925,52.064261 L 213.225,52.064261 A 0.5,0.5 0.0 0,1 212.725,51.564261 L 212.725,51.064261 L 211.075,51.064261 C 210.408333,51.064261 210.075,51.397594 210.075,52.064261 L 210.075,52.364932 C 210.075,53.952432 209.348134,55.065477 207.879695,55.668671 C 200.341744,58.765952 192.029674,61.45728 183.173354,63.657079 C 181.632702,64.039893 180.827198,63.285828 179.772811,62.099058 A 4.7625,4.7625 0.0 0,0 171.671213,63.827605 C 171.193008,65.341368 170.765413,66.358467 169.203124,66.640262 C 154.742562,69.252131 139.28595,70.603358 123.825,70.6 L 73.81875,70.6 C 72.23125,70.6 71.610733,69.683427 70.842187,68.294365 A 4.7625,4.7625 0.0 0,0 62.507812,68.294365 C 61.739267,69.683427 61.11875,70.6 59.53125,70.6 L -59.53125,70.6 C -61.11875,70.6 -61.739267,69.683427 -62.507813,68.294365 A 4.7625,4.7625 0.0 0,0 -70.842188,68.294365 C -71.610733,69.683427 -72.23125,70.6 -73.81875,70.6 L -123.825,70.6 C -139.28595,70.603358 -154.742562,69.252131 -169.203124,66.640262 C -170.765413,66.358467 -171.193008,65.341368 -171.671213,63.827605 A 4.7625,4.7625 -167.33549633636125 0,0 -179.772811,62.099058 C -180.827198,63.285828 -181.632702,64.039893 -183.173354,63.657079 C -192.029674,61.45728 -200.341744,58.765952 -207.879695,55.668671 C -209.348134,55.065477 -210.075,53.952432 -210.075,52.364932 L -210.075,52.064261 C -210.075,51.397594 -210.408333,51.064261 -211.075,51.064261 L -212.725,51.064261 L -212.725,51.564261 A 0.5,0.5 0.0 0,1 -213.225,52.064261 L -215.925,52.064261 A 0.5,0.5 0.0 0,1 -216.425,51.564261 L -216.425,51.064261 L -218.075,51.064261 C -218.741667,51.064261 -219.075,51.397594 -219.075,52.064261 L -219.075,54.826761 C -219.075,55.493428 -218.777187,55.97652 -218.178224,56.269247 A 133.35,65.0875 0.0 0,0 -177.205615,69.920023 A 133.35,65.0875 0.0 0,0 -123.825,75.3625 L 123.825,75.3625 A 133.35,65.0875 0.0 0,0 177.205615,69.920023 M -174.6125,65.26222 A 1.6,1.6 0.0 0,1 -177.8125,65.26222 A 1.6,1.6 0.0 0,1 -174.6125,65.26222 M 177.8125,65.26222 A 1.6,1.6 0.0 0,1 174.6125,65.26222 A 1.6,1.6 0.0 0,1 177.8125,65.26222 M -65.075,70.6 A 1.6000000000000012,1.6000000000000012 0.0 0,1 -68.275,70.6 A 1.6000000000000012,1.6000000000000012 0.0 0,1 -65.075,70.6 M 68.275,70.6 A 1.6000000000000012,1.6000000000000012 0.0 0,1 65.075,70.6 A 1.6000000000000012,1.6000000000000012 0.0 0,1 68.275,70.6" />
      <path d="M -218.075,-51.064261 L -216.425,-51.064261 L -216.425,-51.564261 A 0.5,0.5 0.0 0,1 -215.925,-52.064261 L -213.225,-52.064261 A 0.5,0.5 0.0 0,1 -212.725,-51.564261 L -212.725,-51.064261 L -211.075,-51.064261 C -210.408333,-51.064261 -210.075,-51.397594 -210.075,-52.064261 L -210.075,-52.364932 C -210.075,-53.952432 -209.348134,-55.065477 -207.879695,-55.668671 C -200.341744,-58.765952 -192.029674,-61.45728 -183.173354,-63.657079 C -181.632702,-64.039893 -180.827198,-63.285828 -179.772811,-62.099058 A 4.7625,4.7625 -11.423442418499047 0,0 -171.671213,-63.827605 C -171.193008,-65.341368 -170.765413,-66.358467 -169.203124,-66.640262 C -154.742562,-69.252131 -139.28595,-70.603358 -123.825,-70.6 L -73.81875,-70.6 C -72.23125,-70.6 -71.610733,-69.683427 -70.842187,-68.294365 A 4.7625,4.7625 0.0 0,0 -62.507813,-68.294365 C -61.739267,-69.683427 -61.11875,-70.6 -59.53125,-70.6 L 59.53125,-70.6 C 61.11875,-70.6 61.739267,-69.683427 62.507813,-68.294365 A 4.7625,4.7625 0.0 0,0 70.842187,-68.294365 C 71.610733,-69.683427 72.23125,-70.6 73.81875,-70.6 L 123.825,-70.6 C 139.28595,-70.603358 154.742562,-69.252131 169.203124,-66.640262 C 170.765413,-66.358467 171.193008,-65.341368 171.671213,-63.827605 A 4.7625,4.7625 0.0 0,0 179.772811,-62.099058 C 180.827198,-63.285828 181.632702,-64.039893 183.173354,-63.657079 C 192.029674,-61.45728 200.341744,-58.765952 207.879695,-55.668671 C 209.348134,-55.065477 210.075,-53.952432 210.075,-52.364932 L 210.075,-52.064261 C 210.075,-51.397594 210.408333,-51.064261 211.075,-51.064261 L 212.725,-51.064261 L 212.725,-51.564261 A 0.5,0.5 0.0 0,1 213.225,-52.064261 L 215.925,-52.064261 A 0.5,0.5 0.0 0,1 216.425,-51.564261 L 216.425,-51.064261 L 218.075,-51.064261 C 218.741667,-51.064261 219.075,-51.397594 219.075,-52.064261 L 219.075,-54.826761 C 219.075,-55.493428 218.777187,-55.97652 218.178224,-56.269247 A 133.35,65.0875 0.0 0,0 177.205615,-69.920023 A 133.35,65.0875 0.0 0,0 123.825,-75.3625 L -123.825,-75.3625 A 133.35,65.0875 0.0 0,0 -177.205615,-69.920023 A 133.35,65.0875 0.0 0,0 -218.178224,-56.269247 C -218.777187,-55.97652 -219.075,-55.493428 -219.075,-54.826761 L -219.075,-52.064261 C -219.075,-51.397594 -218.741667,-51.064261 -218.075,-51.064261 M -65.075,-70.6 A 1.6000000000000012,1.6000000000000012 0.0 0,1 -68.275,-70.6 A 1.6000000000000012,1.6000000000000012 0.0 0,1 -65.075,-70.6 M 68.275,-70.6 A 1.6000000000000012,1.6000000000000012 0.0 0,1 65.075,-70.6 A 1.6000000000000012,1.6000000000000012 0.0 0,1 68.275,-70.6 M -174.6125,-65.26222 A 1.6,1.6 0.0 0,1 -177.8125,-65.26222 A 1.6,1.6 0.0 0,1 -174.6125,-65.26222 M 177.8125,-65.26222 A 1.6,1.6 0.0 0,1 174.6125,-65.26222 A 1.6,1.6 0.0 0,1 177.8125,-65.26222" />
      <path d="M 177.205615,80.195023 A 133.35,65.0875 0.0 0,0 218.178224,66.544247 C 218.777187,66.25152 219.075,65.768428 219.075,65.101761 L 219.075,62.339261 C 219.075,61.672594 218.741667,61.339261 218.075,61.339261 L 216.425,61.339261 L 216.425,61.839261 A 0.5,0.5 0.0 0,1 215.925,62.339261 L 213.225,62.339261 A 0.5,0.5 0.0 0,1 212.725,61.839261 L 212.725,61.339261 L 211.075,61.339261 C 210.408333,61.339261 210.075,61.672594 210.075,62.339261 L 210.075,62.639932 C 210.075,64.227432 209.348134,65.340477 207.879695,65.943671 C 200.341744,69.040952 192.029674,71.73228 183.173354,73.932079 C 181.632702,74.314893 180.827198,73.560828 179.772811,72.374058 A 4.7625,4.7625 0.0 0,0 171.671213,74.102605 C 171.193008,75.616368 170.765413,76.633467 169.203124,76.915262 C 154.742562,79.527131 139.28595,80.878358 123.825,80.875 L 73.81875,80.875 C 72.23125,80.875 71.610733,79.958427 70.842187,78.569365 A 4.7625,4.7625 0.0 0,0 62.507812,78.569365 C 61.739267,79.958427 61.11875,80.875 59.53125,80.875 L -59.53125,80.875 C -61.11875,80.875 -61.739267,79.958427 -62.507813,78.569365 A 4.7625,4.7625 0.0 0,0 -70.842188,78.569365 C -71.610733,79.958427 -72.23125,80.875 -73.81875,80.875 L -123.825,80.875 C -139.28595,80.878358 -154.742562,79.527131 -169.203124,76.915262 C -170.765413,76.633467 -171.193008,75.616368 -171.671213,74.102605 A 4.7625,4.7625 -167.33549633636125 0,0 -179.772811,72.374058 C -180.827198,73.560828 -181.632702,74.314893 -183.173354,73.932079 C -192.029674,71.73228 -200.341744,69.040952 -207.879695,65.943671 C -209.348134,65.340477 -210.075,64.227432 -210.075,62.639932 L -210.075,62.339261 C -210.075,61.672594 -210.408333,61.339261 -211.075,61.339261 L -212.725,61.339261 L -212.725,61.839261 A 0.5,0.5 0.0 0,1 -213.225,62.339261 L -215.925,62.339261 A 0.5,0.5 0.0 0,1 -216.425,61.839261 L -216.425,61.339261 L -218.075,61.339261 C -218.741667,61.339261 -219.075,61.672594 -219.075,62.339261 L -219.075,65.101761 C -219.075,65.768428 -218.777187,66.25152 -218.178224,66.544247 A 133.35,65.0875 0.0 0,0 -177.205615,80.195023 A 133.35,65.0875 0.0 0,0 -123.825,85.6375 L 123.825,85.6375 A 133.35,65.0875 0.0 0,0 177.205615,80.195023 M -174.6125,75.53722 A 1.6,1.6 0.0 0,1 -177.8125,75.53722 A 1.6,1.6 0.0 0,1 -174.6125,75.53722 M 177.8125,75.53722 A 1.6,1.6 0.0 0,1 174.6125,75.53722 A 1.6,1.6 0.0 0,1 177.8125,75.53722 M -65.075,80.875 A 1.6000000000000012,1.6000000000000012 0.0 0,1 -68.275,80.875 A 1.6000000000000012,1.6000000000000012 0.0 0,1 -65.075,80.875 M 68.275,80.875 A 1.6000000000000012,1.6000000000000012 0.0 0,1 65.075,80.875 A 1.6000000000000012,1.6000000000000012 0.0 0,1 68.275,80.875" />
      <path d="M -218.075,-61.339261 L -216.425,-61.339261 L -216.425,-61.839261 A 0.5,0.5 0.0 0,1 -215.925,-62.339261 L -213.225,-62.339261 A 0.5,0.5 0.0 0,1 -212.725,-61.839261 L -212.725,-61.339261 L -211.075,-61.339261 C -210.408333,-61.339261 -210.075,-61.672594 -210.075,-62.339261 L -210.075,-62.639932 C -210.075,-64.227432 -209.348134,-65.340477 -207.879695,-65.943671 C -200.341744,-69.040952 -192.029674,-71.73228 -183.173354,-73.932079 C -181.632702,-74.314893 -180.827198,-73.560828 -179.772811,-72.374058 A 4.7625,4.7625 -11.423442418499047 0,0 -171.671213,-74.102605 C -171.193008,-75.616368 -170.765413,-76.633467 -169.203124,-76.915262 C -154.742562,-79.527131 -139.28595,-80.878358 -123.825,-80.875 L -73.81875,-80.875 C -72.23125,-80.875 -71.610733,-79.958427 -70.842187,-78.569365 A 4.7625,4.7625 0.0 0,0 -62.507813,-78.569365 C -61.739267,-79.958427 -61.11875,-80.875 -59.53125,-80.875 L 59.53125,-80.875 C 61.11875,-80.875 61.739267,-79.958427 62.507813,-78.569365 A 4.7625,4.7625 0.0 0,0 70.842187,-78.569365 C 71.610733,-79.958427 72.23125,-80.875 73.81875,-80.875 L 123.825,-80.875 C 139.28595,-80.878358 154.742562,-79.527131 169.203124,-76.915262 C 170.765413,-76.633467 171.193008,-75.616368 171.671213,-74.102605 A 4.7625,4.7625 0.0 0,0 179.772811,-72.374058 C 180.827198,-73.560828 181.632702,-74.314893 183.173354,-73.932079 C 192.029674,-71.73228 200.341744,-69.040952 207.879695,-65.943671 C 209.348134,-65.340477 210.075,-64.227432 210.075,-62.639932 L 210.075,-62.339261 C 210.075,-61.672594 210.408333,-61.339261 211.075,-61.339261 L 212.725,-61.339261 L 212.725,-61.839261 A 0.5,0.5 0.0 0,1 213.225,-62.339261 L 215.925,-62.339261 A 0.5,0.5 0.0 0,1 216.425,-61.839261 L 216.425,-61.339261 L 218.075,-61.339261 C 218.741667,-61.339261 219.075,-61.672594 219.075,-62.339261 L 219.075,-65.101761 C 219.075,-65.768428 218.777187,-66.25152 218.178224,-66.544247 A 133.35,65.0875 0.0 0,0 177.205615,-80.195023 A 133.35,65.0875 0.0 0,0 123.825,-85.6375 L -123.825,-85.6375 A 133.35,65.0875 0.0 0,0 -177.205615,-80.195023 A 133.35,65.0875 0.0 0,0 -218.178224,-66.544247 C -218.777187,-66.25152 -219.075,-65.768428 -219.075,-65.101761 L -219.075,-62.339261 C -219.075,-61.672594 -218.741667,-61.339261 -218.075,-61.339261 M -64.075,-80.875 A 2.6000000000000014,2.6000000000000014 0.0 0,1 -69.275,-80.875 A 2.6000000000000014,2.6000000000000014 0.0 0,1 -64.075,-80.875 M 69.275,-80.875 A 2.6000000000000014,2.6000000000000014 0.0 0,1 64.075,-80.875 A 2.6000000000000014,2.6000000000000014 0.0 0,1 69.275,-80.875 M -173.6125,-75.53722 A 2.6,2.6 0.0 0,1 -178.8125,-75.53722 A 2.6,2.6 0.0 0,1 -173.6125,-75.53722 M 178.8125,-75.53722 A 2.6,2.6 0.0 0,1 173.6125,-75.53722 A 2.6,2.6 0.0 0,1 178.8125,-75.53722" />
      <path d="M -4.5,95.9125 L -4.5,94.9125 L -8.0,94.9125 A 1.5,1.5 0.0 0,1 -9.5,93.4125 L -9.5,91.15 L -59.53125,91.15 C -61.11875,91.15 -61.739267,90.233427 -62.507813,88.844365 A 4.7625,4.7625 0.0 0,0 -70.842188,88.844365 C -71.610733,90.233427 -72.23125,91.15 -73.81875,91.15 L -123.825,91.15 C -139.28595,91.153358 -154.742562,89.802131 -169.203124,87.190262 C -170.765413,86.908467 -171.193008,85.891368 -171.671213,84.377605 A 4.7625,4.7625 -167.33549633636125 0,0 -179.772811,82.649058 C -180.827198,83.835828 -181.632702,84.589893 -183.173354,84.207079 C -192.029674,82.00728 -200.341744,79.315952 -207.879695,76.218671 C -209.348134,75.615477 -210.075,74.502432 -210.075,72.914932 L -210.075,72.614261 C -210.075,71.947594 -210.408333,71.614261 -211.075,71.614261 L -212.725,71.614261 L -212.725,72.114261 A 0.5,0.5 0.0 0,1 -213.225,72.614261 L -215.925,72.614261 A 0.5,0.5 0.0 0,1 -216.425,72.114261 L -216.425,71.614261 L -218.075,71.614261 C -218.741667,71.614261 -219.075,71.947594 -219.075,72.614261 L -219.075,75.376761 C -219.075,76.043428 -218.777187,76.52652 -218.178224,76.819247 A 133.35,65.0875 0.0 0,0 -177.205615,90.470023 A 133.35,65.0875 0.0 0,0 -123.825,95.9125 L -4.5,95.9125 M -174.6125,85.81222 A 1.6,1.6 0.0 0,1 -177.8125,85.81222 A 1.6,1.6 0.0 0,1 -174.6125,85.81222 M -65.075,91.15 A 1.6000000000000012,1.6000000000000012 0.0 0,1 -68.275,91.15 A 1.6000000000000012,1.6000000000000012 0.0 0,1 -65.075,91.15" />
      <path d="M 218.178224,76.819247 C 218.777187,76.52652 219.075,76.043428 219.075,75.376761 L 219.075,72.614261 C 219.075,71.947594 218.741667,71.614261 218.075,71.614261 L 216.425,71.614261 L 216.425,72.114261 A 0.5,0.5 0.0 0,1 215.925,72.614261 L 213.225,72.614261 A 0.5,0.5 0.0 0,1 212.725,72.114261 L 212.725,71.614261 L 211.075,71.614261 C 210.408333,71.614261 210.075,71.947594 210.075,72.614261 L 210.075,72.914932 C 210.075,74.502432 209.348134,75.615477 207.879695,76.218671 C 200.341744,79.315952 192.029674,82.00728 183.173354,84.207079 C 181.632702,84.589893 180.827198,83.835828 179.772811,82.649058 A 4.7625,4.7625 0.0 0,0 171.671213,84.377605 C 171.193008,85.891368 170.765413,86.908467 169.203124,87.190262 C 154.742562,89.802131 139.28595,91.153358 123.825,91.15 L 73.81875,91.15 C 72.23125,91.15 71.610733,90.233427 70.842187,88.844365 A 4.7625,4.7625 0.0 0,0 62.507812,88.844365 C 61.739267,90.233427 61.11875,91.15 59.53125,91.15 L 9.5,91.15 L 9.5,93.4125 A 1.5,1.5 0.0 0,1 8.0,94.9125 L 4.5,94.9125 L 4.5,95.9125 L 123.825,95.9125 A 133.35,65.0875 0.0 0,0 177.205615,90.470023 A 133.35,65.0875 0.0 0,0 218.178224,76.819247 M 177.8125,85.81222 A 1.6,1.6 0.0 0,1 174.6125,85.81222 A 1.6,1.6 0.0 0,1 177.8125,85.81222 M 68.275,91.15 A 1.6000000000000012,1.6000000000000012 0.0 0,1 65.075,91.15 A 1.6000000000000012,1.6000000000000012 0.0 0,1 68.275,91.15" />
      <path d="M -218.075,-71.614261 L -216.425,-71.614261 L -216.425,-72.114261 A 0.5,0.5 0.0 0,1 -215.925,-72.614261 L -213.225,-72.614261 A 0.5,0.5 0.0 0,1 -212.725,-72.114261 L -212.725,-71.614261 L -211.075,-71.614261 C -210.408333,-71.614261 -210.075,-71.947594 -210.075,-72.614261 L -210.075,-72.914932 C -210.075,-74.502432 -209.348134,-75.615477 -207.879695,-76.218671 C -200.341744,-79.315952 -192.029674,-82.00728 -183.173354,-84.207079 C -181.632702,-84.589893 -180.827198,-83.835828 -179.772811,-82.649058 A 4.7625,4.7625 -11.423442418499047 0,0 -171.671213,-84.377605 C -171.193008,-85.891368 -170.765413,-86.908467 -169.203124,-87.190262 C -154.742562,-89.802131 -139.28595,-91.153358 -123.825,-91.15 L -73.81875,-91.15 C -72.23125,-91.15 -71.610733,-90.233427 -70.842187,-88.844365 A 4.7625,4.7625 0.0 0,0 -62.507813,-88.844365 C -61.739267,-90.233427 -61.11875,-91.15 -59.53125,-91.15 L 59.53125,-91.15 C 61.11875,-91.15 61.739267,-90.233427 62.507813,-88.844365 A 4.7625,4.7625 0.0 0,0 70.842187,-88.844365 C 71.610733,-90.233427 72.23125,-91.15 73.81875,-91.15 L 123.825,-91.15 C 139.28595,-91.153358 154.742562,-89.802131 169.203124,-87.190262 C 170.765413,-86.908467 171.193008,-85.891368 171.671213,-84.377605 A 4.7625,4.7625 0.0 0,0 179.772811,-82.649058 C 180.827198,-83.835828 181.632702,-84.589893 183.173354,-84.207079 C 192.029674,-82.00728 200.341744,-79.315952 207.879695,-76.218671 C 209.348134,-75.615477 210.075,-74.502432 210.075,-72.914932 L 210.075,-72.614261 C 210.075,-71.947594 210.408333,-71.614261 211.075,-71.614261 L 212.725,-71.614261 L 212.725,-72.114261 A 0.5,0.5 0.0 0,1 213.225,-72.614261 L 215.925,-72.614261 A 0.5,0.5 0.0 0,1 216.425,-72.114261 L 216.425,-71.614261 L 218.075,-71.614261 C 218.741667,-71.614261 219.075,-71.947594 219.075,-72.614261 L 219.075,-75.376761 C 219.075,-76.043428 218.777187,-76.52652 218.178224,-76.819247 A 133.35,65.0875 0.0 0,0 177.205615,-90.470023 A 133.35,65.0875 0.0 0,0 123.825,-95.9125 L -123.825,-95.9125 A 133.35,65.0875 0.0 0,0 -177.205615,-90.470023 A 133.35,65.0875 0.0 0,0 -218.178224,-76.819247 C -218.777187,-76.52652 -219.075,-76.043428 -219.075,-75.376761 L -219.075,-72.614261 C -219.075,-71.947594 -218.741667,-71.614261 -218.075,-71.614261 M -64.075,-91.15 A 2.6000000000000014,2.6000000000000014 0.0 0,1 -69.275,-91.15 A 2.6000000000000014,2.6000000000000014 0.0 0,1 -64.075,-91.15 M 69.275,-91.15 A 2.6000000000000014,2.6000000000000014 0.0 0,1 64.075,-91.15 A 2.6000000000000014,2.6000000000000014 0.0 0,1 69.275,-91.15 M -173.6125,-85.81222 A 2.6,2.6 0.0 0,1 -178.8125,-85.81222 A 2.6,2.6 0.0 0,1 -173.6125,-85.81222 M 178.8125,-85.81222 A 2.6,2.6 0.0 0,1 173.6125,-85.81222 A 2.6,2.6 0.0 0,1 178.8125,-85.81222" />
      <path d="M -8.43139,23.82472 L -117.96889,23.82472 A 4.8148565273139425,4.8148565273139425 -90.0 0,0 -119.932426,33.035867 A 133.35,65.0875 0.0 0,0 -117.96889,33.454433 A 133.35,65.0875 0.0 0,0 -65.58139,38.6875 L -8.43139,38.6875 A 7.43139,7.43139 180.0 0,0 -8.43139,23.82472 M -116.36889,28.58722 A 1.6000000000000012,1.6000000000000012 0.0 0,1 -119.56889,28.58722 A 1.6000000000000012,1.6000000000000012 0.0 0,1 -116.36889,28.58722 M -6.83139,33.925 A 1.6,1.6 0.0 0,1 -10.03139,33.925 A 1.6,1.6 0.0 0,1 -6.83139,33.925" />
      <path d="M 117.96889,23.82472 L 8.43139,23.82472 A 7.43139,7.43139 0.0 0,0 8.43139,38.6875 L 65.58139,38.6875 A 133.35,65.0875 0.0 0,0 117.96889,33.454433 A 133.35,65.0875 0.0 0,0 119.932426,33.035867 A 4.8148565273139425,4.8148565273139425 -90.0 0,0 117.96889,23.82472 M 119.56889,28.58722 A 1.6000000000000012,1.6000000000000012 0.0 0,1 116.36889,28.58722 A 1.6000000000000012,1.6000000000000012 0.0 0,1 119.56889,28.58722 M 10.03139,33.925 A 1.6,1.6 0.0 0,1 6.83139,33.925 A 1.6,1.6 0.0 0,1 10.03139,33.925" />
      <path d="M -8.43139,8.211941 L -117.96889,8.211941 A 4.8148565273139425,4.8148565273139425 -90.0 0,0 -119.932426,17.423087 A 133.35,65.0875 0.0 0,0 -117.96889,17.841654 A 133.35,65.0875 0.0 0,0 -65.58139,23.07472 L -8.43139,23.07472 A 7.4313898584917375,7.4313898584917375 180.0 0,0 -8.43139,8.211941 M -116.36889,12.974441 A 1.6000000000000012,1.6000000000000012 0.0 0,1 -119.56889,12.974441 A 1.6000000000000012,1.6000000000000012 0.0 0,1 -116.36889,12.974441 M -6.83139,18.31222 A 1.6,1.6 0.0 0,1 -10.03139,18.31222 A 1.6,1.6 0.0 0,1 -6.83139,18.31222" />
      <path d="M 117.96889,8.211941 L 8.43139,8.211941 A 7.4313898584917375,7.4313898584917375 0.0 0,0 8.43139,23.07472 L 65.58139,23.07472 A 133.35,65.0875 0.0 0,0 117.96889,17.841654 A 133.35,65.0875 0.0 0,0 119.932426,17.423087 A 4.8148565273139425,4.8148565273139425 -90.0 0,0 117.96889,8.211941 M 119.56889,12.974441 A 1.6000000000000012,1.6000000000000012 0.0 0,1 116.36889,12.974441 A 1.6000000000000012,1.6000000000000012 0.0 0,1 119.56889,12.974441 M 10.03139,18.31222 A 1.6,1.6 0.0 0,1 6.83139,18.31222 A 1.6,1.6 0.0 0,1 10.03139,18.31222" />
      <path d="M -8.43139,-7.400839 L -117.96889,-7.400839 A 4.8148565273139425,4.8148565273139425 -90.0 0,0 -119.932426,1.810308 A 133.35,65.0875 0.0 0,0 -117.96889,2.228874 A 133.35,65.0875 0.0 0,0 -65.58139,7.461941 L -8.43139,7.461941 A 7.43139,7.43139 180.0 0,0 -8.43139,-7.400839 M -116.36889,-2.638339 A 1.6000000000000012,1.6000000000000012 0.0 0,1 -119.56889,-2.638339 A 1.6000000000000012,1.6000000000000012 0.0 0,1 -116.36889,-2.638339 M -6.83139,2.699441 A 1.6,1.6 0.0 0,1 -10.03139,2.699441 A 1.6,1.6 0.0 0,1 -6.83139,2.699441" />
      <path d="M 117.96889,-7.400839 L 8.43139,-7.400839 A 7.43139,7.43139 0.0 0,0 8.43139,7.461941 L 65.58139,7.461941 A 133.35,65.0875 0.0 0,0 117.96889,2.228874 A 133.35,65.0875 0.0 0,0 119.932426,1.810308 A 4.8148565273139425,4.8148565273139425 -90.0 0,0 117.96889,-7.400839 M 119.56889,-2.638339 A 1.6000000000000012,1.6000000000000012 0.0 0,1 116.36889,-2.638339 A 1.6000000000000012,1.6000000000000012 0.0 0,1 119.56889,-2.638339 M 10.03139,2.699441 A 1.6,1.6 0.0 0,1 6.83139,2.699441 A 1.6,1.6 0.0 0,1 10.03139,2.699441" />
      <path d="M -8.43139,-23.013619 L -117.96889,-23.013619 A 4.8148565273139425,4.8148565273139425 -90.0 0,0 -119.932426,-13.802472 A 133.35,65.0875 0.0 0,0 -117.96889,-13.383906 A 133.35,65.0875 0.0 0,0 -65.58139,-8.150839 L -8.43139,-8.150839 A 7.43139,7.43139 180.0 0,0 -8.43139,-23.013619 M -115.36889,-18.251119 A 2.6000000000000014,2.6000000000000014 0.0 0,1 -120.56889,-18.251119 A 2.6000000000000014,2.6000000000000014 0.0 0,1 -115.36889,-18.251119 M -5.83139,-12.913339 A 2.6,2.6 0.0 0,1 -11.03139,-12.913339 A 2.6,2.6 0.0 0,1 -5.83139,-12.913339" />
      <path d="M 117.96889,-23.013619 L 8.43139,-23.013619 A 7.43139,7.43139 0.0 0,0 8.43139,-8.150839 L 65.58139,-8.150839 A 133.35,65.0875 0.0 0,0 117.96889,-13.383906 A 133.35,65.0875 0.0 0,0 119.932426,-13.802472 A 4.8148565273139425,4.8148565273139425 -90.0 0,0 117.96889,-23.013619 M 120.56889,-18.251119 A 2.6000000000000014,2.6000000000000014 0.0 0,1 115.36889,-18.251119 A 2.6000000000000014,2.6000000000000014 0.0 0,1 120.56889,-18.251119 M 11.03139,-12.913339 A 2.6,2.6 0.0 0,1 5.83139,-12.913339 A 2.6,2.6 0.0 0,1 11.03139,-12.913339" />
      <path d="M -8.43139,-38.626399 L -117.96889,-38.626399 A 4.8148565273139425,4.8148565273139425 -90.0 0,0 -119.932426,-29.415252 A 133.35,65.0875 0.0 0,0 -117.96889,-28.996686 A 133.35,65.0875 0.0 0,0 -65.58139,-23.763619 L -8.43139,-23.763619 A 7.43139,7.43139 180.0 0,0 -8.43139,-38.626399 M -115.36889,-33.863899 A 2.6000000000000014,2.6000000000000014 0.0 0,1 -120.56889,-33.863899 A 2.6000000000000014,2.6000000000000014 0.0 0,1 -115.36889,-33.863899 M -5.83139,-28.526119 A 2.6,2.6 0.0 0,1 -11.03139,-28.526119 A 2.6,2.6 0.0 0,1 -5.83139,-28.526119" />
      <path d="M 117.96889,-38.626399 L 8.43139,-38.626399 A 7.43139,7.43139 0.0 0,0 8.43139,-23.763619 L 65.58139,-23.763619 A 133.35,65.0875 0.0 0,0 117.96889,-28.996686 A 133.35,65.0875 0.0 0,0 119.932426,-29.415252 A 4.8148565273139425,4.8148565273139425 -90.0 0,0 117.96889,-38.626399 M 120.56889,-33.863899 A 2.6000000000000014,2.6000000000000014 0.0 0,1 115.36889,-33.863899 A 2.6000000000000014,2.6000000000000014 0.0 0,1 120.56889,-33.863899 M 11.03139,-28.526119 A 2.6,2.6 0.0 0,1 5.83139,-28.526119 A 2.6,2.6 0.0 0,1 11.03139,-28.526119" />
      <path d="M -8.43139,-54.239178 L -117.96889,-54.239178 A 4.8148565273139425,4.8148565273139425 -90.0 0,0 -119.932426,-45.028031 A 133.35,65.0875 0.0 0,0 -117.96889,-44.609465 A 133.35,65.0875 0.0 0,0 -65.58139,-39.376399 L -8.43139,-39.376399 A 7.4313898584917375,7.4313898584917375 180.0 0,0 -8.43139,-54.239178 M -115.36889,-49.476678 A 2.6000000000000014,2.6000000000000014 0.0 0,1 -120.56889,-49.476678 A 2.6000000000000014,2.6000000000000014 0.0 0,1 -115.36889,-49.476678 M -5.83139,-44.138899 A 2.6,2.6 0.0 0,1 -11.03139,-44.138899 A 2.6,2.6 0.0 0,1 -5.83139,-44.138899" />
      <path d="M 117.96889,-54.239178 L 8.43139,-54.239178 A 7.4313898584917375,7.4313898584917375 0.0 0,0 8.43139,-39.376399 L 65.58139,-39.376399 A 133.35,65.0875 0.0 0,0 117.96889,-44.609465 A 133.35,65.0875 0.0 0,0 119.932426,-45.028031 A 4.8148565273139425,4.8148565273139425 -90.0 0,0 117.96889,-54.239178 M 120.56889,-49.476678 A 2.6000000000000014,2.6000000000000014 0.0 0,1 115.36889,-49.476678 A 2.6000000000000014,2.6000000000000014 0.0 0,1 120.56889,-49.476678 M 11.03139,-44.138899 A 2.6,2.6 0.0 0,1 5.83139,-44.138899 A 2.6,2.6 0.0 0,1 11.03139,-44.138899" />
    </g>
  </g>
</svg>