<?xml version='1.0' encoding='utf-8'?>
<svg width="458.24mm" height="221.74mm" viewBox="-229.12 -116.62 458.24 221.74" version="1.1" xmlns="http://www.w3.org/2000/svg">
  <g transform="scale(1,-1)" stroke-linecap="round">
    <g fill="none" stroke="rgb(0,0,0)" stroke-width="0.09">
      <path d="M -123.825,63.5 L 123.825,63.5 A 133.35,63.5 0.0 0,0 218.173956,44.874471 C 218.77573,44.587569 219.075,44.107409 219.075,43.440742 L 219.075,-43.440742 C 219.075,-44.107409 218.77573,-44.587569 218.173956,-44.874471 A 133.35,63.5 0.0 0,0 123.825,-63.5 L -123.825,-63.5 A 133.35,63.5 0.0 0,0 -218.173956,-44.874471 C -218.77573,-44.587569 -219.075,-44.107409 -219.075,-43.440742 L -219.075,43.440742 C -219.075,44.107409 -218.77573,44.587569 -218.173956,44.874471 A 133.35,63.5 0.0 0,0 -123.825,63.5 M -174.6125,-53.532402 A 1.6,1.6 0.0 0,1 -177.8125,-53.532402 A 1.6,1.6 0.0 0,1 -174.6125,-53.532402 M -65.075,-58.7375 A 1.6000000000000012,1.6000000000000012 0.0 0,1 -68.275,-58.7375 A 1.6000000000000012,1.6000000000000012 0.0 0,1 -65.075,-58.7375 M -204.7875,-43.95 C -204.7875,-44.283333 -204.620833,-44.45 -204.2875,-44.45 L -148.1375,-44.45 C -147.804167,-44.45 -147.6375,-44.283333 -147.6375,-43.95 L -147.6375,-6.85 C -147.6375,-6.516667 -147.804167,-6.35 -148.1375,-6.35 L -204.2875,-6.35 C -204.620833,-6.35 -204.7875,-6.516667 -204.7875,-6.85 L -204.7875,-43.95 M 68.275,-58.7375 A 1.6000000000000012,1.6000000000000012 0.0 0,1 65.075,-58.7375 A 1.6000000000000012,1.6000000000000012 0.0 0,1 68.275,-58.7375 M 177.8125,-53.532402 A 1.6,1.6 0.0 0,1 174.6125,-53.532402 A 1.6,1.6 0.0 0,1 177.8125,-53.532402 M -142.875,-53.475 C -142.875,-53.808333 -142.708333,-53.975 -142.375,-53.975 L 142.375,-53.975 C 142.708333,-53.975 142.875,-53.808333 142.875,-53.475 L 142.875,40.775 C 142.875,41.108333 142.708333,41.275 142.375,41.275 L -142.375,41.275 C -142.708333,41.275 -142.875,41.108333 -142.875,40.775 L -142.875,-53.475 M 147.6375,-43.95 C 147.6375,-44.283333 147.804167,-44.45 148.1375,-44.45 L 204.2875,-44.45 C 204.620833,-44.45 204.7875,-44.283333 204.7875,-43.95 L 204.7875,-25.9 C 204.7875,-25.566667 204.620833,-25.4 204.2875,-25.4 L 186.2375,-25.4 C 185.904167,-25.4 185.7375,-25.233333 185.7375,-24.9 L 185.7375,-6.85 C 185.7375,-6.516667 185.570833,-6.35 185.2375,-6.35 L 167.1875,-6.35 C 166.854167,-6.35 166.6875,-6.516667 166.6875,-6.85 L 166.6875,-24.9 C 166.6875,-25.233333 166.520833,-25.4 166.1875,-25.4 L 148.1375,-25.4 C 147.804167,-25.4 147.6375,-25.566667 147.6375,-25.9 L 147.6375,-43.95 M -204.7875,-1.0875 C -204.7875,-1.420833 -204.620833,-1.5875 -204.2875,-1.5875 L -148.1375,-1.5875 C -147.804167,-1.5875 -147.6375,-1.420833 -147.6375,-1.0875 L -147.6375,36.0125 C -147.6375,36.345833 -147.804167,36.5125 -148.1375,36.5125 L -204.2875,36.5125 C -204.620833,36.5125 -204.7875,36.345833 -204.7875,36.0125 L -204.7875,-1.0875 M -174.6125,53.532402 A 1.6,1.6 0.0 0,1 -177.8125,53.532402 A 1.6,1.6 0.0 0,1 -174.6125,53.532402 M -65.075,58.7375 A 1.6000000000000012,1.6000000000000012 0.0 0,1 -68.275,58.7375 A 1.6000000000000012,1.6000000000000012 0.0 0,1 -65.075,58.7375 M 147.6375,-1.0875 C 147.6375,-1.420833 147.804167,-1.5875 148.1375,-1.5875 L 204.2875,-1.5875 C 204.620833,-1.5875 204.7875,-1.420833 204.7875,-1.0875 L 204.7875,36.0125 C 204.7875,36.345833 204.620833,36.5125 204.2875,36.5125 L 148.1375,36.5125 C 147.804167,36.5125 147.6375,36.345833 147.6375,36.0125 L 147.6375,-1.0875 M -161.76297,46.3875 A 0.35000000000000003,0.35000000000000003 0.0 0,1 -161.41297,46.0375 L 161.41297,46.0375 A 0.35000000000000003,0.35000000000000003 0.0 0,1 161.76297,46.3875 L 161.76297,49.3875 A 0.35000000000000003,0.35000000000000003 0.0 0,1 161.41297,49.7375 L -161.41297,49.7375 A 0.35000000000000003,0.35000000000000003 0.0 0,1 -161.76297,49.3875 L -161.76297,46.3875 M 68.275,58.7375 A 1.6000000000000012,1.6000000000000012 0.0 0,1 65.075,58.7375 A 1.6000000000000012,1.6000000000000012 0.0 0,1 68.275,58.7375 M 177.8125,53.532402 A 1.6,1.6 0.0 0,1 174.6125,53.532402 A 1.6,1.6 0.0 0,1 177.8125,53.532402" />
      <path d="M 177.181918,68.720195 A 133.35,63.5 0.0 0,0 218.173956,55.399471 C 218.77573,55.112569 219.075,54.632409 219.075,53.965742 L 219.075,51.203242 C 219.075,50.536576 218.741667,50.203242 218.075,50.203242 L 216.425,50.203242 L 216.425,50.703242 A 0.5,0.5 0.0 0,1 215.925,51.203242 L 213.225,51.203242 A 0.5,0.5 0.0 0,1 212.725,50.703242 L 212.725,50.203242 L 211.075,50.203242 C 210.408333,50.203242 210.075,50.536576 210.075,51.203242 L 210.075,51.423341 C 210.075,53.010841 209.345202,54.117115 207.871435,54.707173 C 200.337296,57.72452 192.030998,60.34661 183.181997,62.49017 C 181.639149,62.864038 180.837653,62.105603 179.789598,60.913237 A 4.7625,4.7625 0.0 0,0 171.678221,62.600788 C 171.192683,64.112214 170.760184,65.127321 169.196676,65.402275 C 154.737125,67.948564 139.28321,69.265767 123.825,69.2625 L 73.81875,69.2625 C 72.23125,69.2625 71.610733,68.345927 70.842187,66.956865 A 4.7625,4.7625 0.0 0,0 62.507812,66.956865 C 61.739267,68.345927 61.11875,69.2625 59.53125,69.2625 L -59.53125,69.2625 C -61.11875,69.2625 -61.739267,68.345927 -62.507813,66.956865 A 4.7625,4.7625 0.0 0,0 -70.842188,66.956865 C -71.610733,68.345927 -72.23125,69.2625 -73.81875,69.2625 L -123.825,69.2625 C -139.28321,69.265767 -154.737125,67.948564 -169.196676,65.402275 C -170.760184,65.127321 -171.192683,64.112214 -171.678221,62.600788 A 4.7625,4.7625 -167.64049874902997 0,0 -179.789598,60.913237 C -180.837653,62.105603 -181.639149,62.864038 -183.181997,62.49017 C -192.030998,60.34661 -200.337296,57.72452 -207.871435,54.707173 C -209.345202,54.117115 -210.075,53.010841 -210.075,51.423341 L -210.075,51.203242 C -210.075,50.536576 -210.408333,50.203242 -211.075,50.203242 L -212.725,50.203242 L -212.725,50.703242 A 0.5,0.5 0.0 0,1 -213.225,51.203242 L -215.925,51.203242 A 0.5,0.5 0.0 0,1 -216.425,50.703242 L -216.425,50.203242 L -218.075,50.203242 C -218.741667,50.203242 -219.075,50.536576 -219.075,51.203242 L -219.075,53.965742 C -219.075,54.632409 -218.77573,55.112569 -218.173956,55.399471 A 133.35,63.5 0.0 0,0 -177.181918,68.720195 A 133.35,63.5 0.0 0,0 -123.825,74.025 L 123.825,74.025 A 133.35,63.5 0.0 0,0 177.181918,68.720195 M -174.6125,64.057402 A 1.6,1.6 0.0 0,1 -177.8125,64.057402 A 1.6,1.6 0.0 0,1 -174.6125,64.057402 M 177.8125,64.057402 A 1.6,1.6 0.0 0,1 174.6125,64.057402 A 1.6,1.6 0.0 0,1 177.8125,64.057402 M -65.075,69.2625 A 1.6000000000000012,1.6000000000000012 0.0 0,1 -68.275,69.2625 A 1.6000000000000012,1.6000000000000012 0.0 0,1 -65.075,69.2625 M 68.275,69.2625 A 1.6000000000000012,1.6000000000000012 0.0 0,1 65.075,69.2625 A 1.6000000000000012,1.6000000000000012 0.0 0,1 68.275,69.2625" />
      <path d="M -218.075,-50.203242 L -216.425,-50.203242 L -216.425,-50.703242 A 0.5,0.5 0.0 0,1 -215.925,-51.203242 L -213.225,-51.203242 A 0.5,0.5 0.0 0,1 -212.725,-50.703242 L -212.725,-50.203242 L -211.075,-50.203242 C -210.408333,-50.203242 -210.075,-50.536576 -210.075,-51.203242 L -210.075,-51.423341 C -210.075,-53.010841 -209.345202,-54.117115 -207.871435,-54.707173 C -200.337296,-57.72452 -192.030998,-60.34661 -183.181997,-62.49017 C -181.639149,-62.864038 -180.837653,-62.105603 -179.789598,-60.913237 A 4.7625,4.7625 -11.145674118505378 0,0 -171.678221,-62.600788 C -171.192683,-64.112214 -170.760184,-65.127321 -169.196676,-65.402275 C -154.737125,-67.948564 -139.28321,-69.265767 -123.825,-69.2625 L -73.81875,-69.2625 C -72.23125,-69.2625 -71.610733,-68.345927 -70.842187,-66.956865 A 4.7625,4.7625 0.0 0,0 -62.507813,-66.956865 C -61.739267,-68.345927 -61.11875,-69.2625 -59.53125,-69.2625 L 59.53125,-69.2625 C 61.11875,-69.2625 61.739267,-68.345927 62.507813,-66.956865 A 4.7625,4.7625 0.0 0,0 70.842187,-66.956865 C 71.610733,-68.345927 72.23125,-69.2625 73.81875,-69.2625 L 123.825,-69.2625 C 139.28321,-69.265767 154.737125,-67.948564 169.196676,-65.402275 C 170.760184,-65.127321 171.192683,-64.112214 171.678221,-62.600788 A 4.7625,4.7625 0.0 0,0 179.789598,-60.913237 C 180.837653,-62.105603 181.639149,-62.864038 183.181997,-62.49017 C 192.030998,-60.34661 200.337296,-57.72452 207.871435,-54.707173 C 209.345202,-54.117115 210.075,-53.010841 210.075,-51.423341 L 210.075,-51.203242 C 210.075,-50.536576 210.408333,-50.203242 211.075,-50.203242 L 212.725,-50.203242 L 212.725,-50.703242 A 0.5,0.5 0.0 0,1 213.225,-51.203242 L 215.925,-51.203242 A 0.5,0.5 0.0 0,1 216.425,-50.703242 L 216.425,-50.203242 L 218.075,-50.203242 C 218.741667,-50.203242 219.075,-50.536576 219.075,-51.203242 L 219.075,-53.965742 C 219.075,-54.632409 218.77573,-55.112569 218.173956,-55.399471 A 133.35,63.5 0.0 0,0 177.181918,-68.720195 A 133.35,63.5 0.0 0,0 123.825,-74.025 L -123.825,-74.025 A 133.35,63.5 0.0 0,0 -177.181918,-68.720195 A 133.35,63.5 0.0 0,0 -218.173956,-55.399471 C -218.77573,-55.112569 -219.075,-54.632409 -219.075,-53.965742 L -219.075,-51.203242 C -219.075,-50.536576 -218.741667,-50.203242 -218.075,-50.203242 M -65.075,-69.2625 A 1.6000000000000012,1.6000000000000012 0.0 0,1 -68.275,-69.2625 A 1.6000000000000012,1.6000000000000012 0.0 0,1 -65.075,-69.2625 M 68.275,-69.2625 A 1.6000000000000012,1.6000000000000012 0.0 0,1 65.075,-69.2625 A 1.6000000000000012,1.6000000000000012 0.0 0,1 68.275,-69.2625 M -174.6125,-64.057402 A 1.6,1.6 0.0 0,1 -177.8125,-64.057402 A 1.6,1.6 0.0 0,1 -174.6125,-64.057402 M 177.8125,-64.057402 A 1.6,1.6 0.0 0,1 174.6125,-64.057402 A 1.6,1.6 0.0 0,1 177.8125,-64.057402" />
      <path d="M 177.181918,79.245195 A 133.35,63.5 0.0 0,0 218.173956,65.924471 C 218.77573,65.637569 219.075,65.157409 219.075,64.490742 L 219.075,61.728242 C 219.075,61.061576 218.741667,60.728242 218.075,60.728242 L 216.425,60.728242 L 216.425,61.228242 A 0.5,0.5 0.0 0,1 215.925,61.728242 L 213.225,61.728242 A 0.5,0.5 0.0 0,1 212.725,61.228242 L 212.725,60.728242 L 211.075,60.728242 C 210.408333,60.728242 210.075,61.061576 210.075,61.728242 L 210.075,61.948341 C 210.075,63.535841 209.345202,64.642115 207.871435,65.232173 C 200.337296,68.24952 192.030998,70.87161 183.181997,73.01517 C 181.639149,73.389038 180.837653,72.630603 179.789598,71.438237 A 4.7625,4.7625 0.0 0,0 171.678221,73.125788 C 171.192683,74.637214 170.760184,75.652321 169.196676,75.927275 C 154.737125,78.473564 139.28321,79.790767 123.825,79.7875 L 73.81875,79.7875 C 72.23125,79.7875 71.610733,78.870927 70.842187,77.481865 A 4.7625,4.7625 0.0 0,0 62.507812,77.481865 C 61.739267,78.870927 61.11875,79.7875 59.53125,79.7875 L -59.53125,79.7875 C -61.11875,79.7875 -61.739267,78.870927 -62.507813,77.481865 A 4.7625,4.7625 0.0 0,0 -70.842188,77.481865 C -71.610733,78.870927 -72.23125,79.7875 -73.81875,79.7875 L -123.825,79.7875 C -139.28321,79.790767 -154.737125,78.473564 -169.196676,75.927275 C -170.760184,75.652321 -171.192683,74.637214 -171.678221,73.125788 A 4.7625,4.7625 -167.64049874902997 0,0 -179.789598,71.438237 C -180.837653,72.630603 -181.639149,73.389038 -183.181997,73.01517 C -192.030998,70.87161 -200.337296,68.24952 -207.871435,65.232173 C -209.345202,64.642115 -210.075,63.535841 -210.075,61.948341 L -210.075,61.728242 C -210.075,61.061576 -210.408333,60.728242 -211.075,60.728242 L -212.725,60.728242 L -212.725,61.228242 A 0.5,0.5 0.0 0,1 -213.225,61.728242 L -215.925,61.728242 A 0.5,0.5 0.0 0,1 -216.425,61.228242 L -216.425,60.728242 L -218.075,60.728242 C -218.741667,60.728242 -219.075,61.061576 -219.075,61.728242 L -219.075,64.490742 C -219.075,65.157409 -218.77573,65.637569 -218.173956,65.924471 A 133.35,63.5 0.0 0,0 -177.181918,79.245195 A 133.35,63.5 0.0 0,0 -123.825,84.55 L 123.825,84.55 A 133.35,63.5 0.0 0,0 177.181918,79.245195 M -173.6125,74.582402 A 2.6,2.6 0.0 0,1 -178.8125,74.582402 A 2.6,2.6 0.0 0,1 -173.6125,74.582402 M 178.8125,74.582402 A 2.6,2.6 0.0 0,1 173.6125,74.582402 A 2.6,2.6 0.0 0,1 178.8125,74.582402 M -64.075,79.7875 A 2.6000000000000014,2.6000000000000014 0.0 0,1 -69.275,79.7875 A 2.6000000000000014,2.6000000000000014 0.0 0,1 -64.075,79.7875 M 69.275,79.7875 A 2.6000000000000014,2.6000000000000014 0.0 0,1 64.075,79.7875 A 2.6000000000000014,2.6000000000000014 0.0 0,1 69.275,79.7875" />
      <path d="M -218.075,-60.728242 L -216.425,-60.728242 L -216.425,-61.228242 A 0.5,0.5 0.0 0,1 -215.925,-61.728242 L -213.225,-61.728242 A 0.5,0.5 0.0 0,1 -212.725,-61.228242 L -212.725,-60.728242 L -211.075,-60.728242 C -210.408333,-60.728242 -210.075,-61.061576 -210.075,-61.728242 L -210.075,-61.948341 C -210.075,-63.535841 -209.345202,-64.642115 -207.871435,-65.232173 C -200.337296,-68.24952 -192.030998,-70.87161 -183.181997,-73.01517 C -181.639149,-73.389038 -180.837653,-72.630603 -179.789598,-71.438237 A 4.7625,4.7625 -11.145674118505378 0,0 -171.678221,-73.125788 C -171.192683,-74.637214 -170.760184,-75.652321 -169.196676,-75.927275 C -154.737125,-78.473564 -139.28321,-79.790767 -123.825,-79.7875 L -73.81875,-79.7875 C -72.23125,-79.7875 -71.610733,-78.870927 -70.842187,-77.481865 A 4.7625,4.7625 0.0 0,0 -62.507813,-77.481865 C -61.739267,-78.870927 -61.11875,-79.7875 -59.53125,-79.7875 L 59.53125,-79.7875 C 61.11875,-79.7875 61.739267,-78.870927 62.507813,-77.481865 A 4.7625,4.7625 0.0 0,0 70.842187,-77.481865 C 71.610733,-78.870927 72.23125,-79.7875 73.81875,-79.7875 L 123.825,-79.7875 C 139.28321,-79.790767 154.737125,-78.473564 169.196676,-75.927275 C 170.760184,-75.652321 171.192683,-74.637214 171.678221,-73.125788 A 4.7625,4.7625 0.0 0,0 179.789598,-71.438237 C 180.837653,-72.630603 181.639149,-73.389038 183.181997,-73.01517 C 192.030998,-70.87161 200.337296,-68.24952 207.871435,-65.232173 C 209.345202,-64.642115 210.075,-63.535841 210.075,-61.948341 L 210.075,-61.728242 C 210.075,-61.061576 210.408333,-60.728242 211.075,-60.728242 L 212.725,-60.728242 L 212.725,-61.228242 A 0.5,0.5 0.0 0,1 213.225,-61.728242 L 215.925,-61.728242 A 0.5,0.5 0.0 0,1 216.425,-61.228242 L 216.425,-60.728242 L 218.075,-60.728242 C 218.741667,-60.728242 219.075,-61.061576 219.075,-61.728242 L 219.075,-64.490742 C 219.075,-65.157409 218.77573,-65.637569 218.173956,-65.924471 A 133.35,63.5 0.0 0,0 177.181918,-79.245195 A 133.35,63.5 0.0 0,0 123.825,-84.55 L -123.825,-84.55 A 133.35,63.5 0.0 0,0 -177.181918,-79.245195 A 133.35,63.5 0.0 0,0 -218.173956,-65.924471 C -218.77573,-65.637569 -219.075,-65.157409 -219.075,-64.490742 L -219.075,-61.728242 C -219.075,-61.061576 -218.741667,-60.728242 -218.075,-60.728242 M -64.075,-79.7875 A 2.6000000000000014,2.6000000000000014 0.0 0,1 -69.275,-79.7875 A 2.6000000000000014,2.6000000000000014 0.0 0,1 -64.075,-79.7875 M 69.275,-79.7875 A 2.6000000000000014,2.6000000000000014 0.0 0,1 64.075,-79.7875 A 2.6000000000000014,2.6000000000000014 0.0 0,1 69.275,-79.7875 M -173.6125,-74.582402 A 2.6,2.6 0.0 0,1 -178.8125,-74.582402 A 2.6,2.6 0.0 0,1 -173.6125,-74.582402 M 178.8125,-74.582402 A 2.6,2.6 0.0 0,1 173.6125,-74.582402 A 2.6,2.6 0.0 0,1 178.8125,-74.582402" />
      <path d="M -4.5,95.075 L -4.5,94.075 L -8.0,94.075 A 1.5,1.5 0.0 0,1 -9.5,92.575 L -9.5,90.3125 L -59.53125,90.3125 C -61.11875,90.3125 -61.739267,89.395927 -62.507813,88.006865 A 4.7625,4.7625 0.0 0,0 -70.842188,88.006865 C -71.610733,89.395927 -72.23125,90.3125 -73.81875,90.3125 L -123.825,90.3125 C -139.28321,90.315767 -154.737125,88.998564 -169.196676,86.452275 C -170.760184,86.177321 -171.192683,85.162214 -171.678221,83.650788 A 4.7625,4.7625 -167.64049874902997 0,0 -179.789598,81.963237 C -180.837653,83.155603 -181.639149,83.914038 -183.181997,83.54017 C -192.030998,81.39661 -200.337296,78.77452 -207.871435,75.757173 C -209.345202,75.167115 -210.075,74.060841 -210.075,72.473341 L -210.075,72.253242 C -210.075,71.586576 -210.408333,71.253242 -211.075,71.253242 L -212.725,71.253242 L -212.725,71.753242 A 0.5,0.5 0.0 0,1 -213.225,72.253242 L -215.925,72.253242 A 0.5,0.5 0.0 0,1 -216.425,71.753242 L -216.425,71.253242 L -218.075,71.253242 C -218.741667,71.253242 -219.075,71.586576 -219.075,72.253242 L -219.075,75.015742 C -219.075,75.682409 -218.77573,76.162569 -218.173956,76.449471 A 133.35,63.5 0.0 0,0 -177.181918,89.770195 A 133.35,63.5 0.0 0,0 -123.825,95.075 L -4.5,95.075 M -173.6125,85.107402 A 2.6,2.6 0.0 0,1 -178.8125,85.107402 A 2.6,2.6 0.0 0,1 -173.6125,85.107402 M -64.075,90.3125 A 2.6000000000000014,2.6000000000000014 0.0 0,1 -69.275,90.3125 A 2.6000000000000014,2.6000000000000014 0.0 0,1 -64.075,90.3125" />
      <path d="M 218.173956,76.449471 C 218.77573,76.162569 219.075,75.682409 219.075,75.015742 L 219.075,72.253242 C 219.075,71.586576 218.741667,71.253242 218.075,71.253242 L 216.425,71.253242 L 216.425,71.753242 A 0.5,0.5 0.0 0,1 215.925,72.253242 L 213.225,72.253242 A 0.5,0.5 0.0 0,1 212.725,71.753242 L 212.725,71.253242 L 211.075,71.253242 C 210.408333,71.253242 210.075,71.586576 210.075,72.253242 L 210.075,72.473341 C 210.075,74.060841 209.345202,75.167115 207.871435,75.757173 C 200.337296,78.77452 192.030998,81.39661 183.181997,83.54017 C 181.639149,83.914038 180.837653,83.155603 179.789598,81.963237 A 4.7625,4.7625 0.0 0,0 171.678221,83.650788 C 171.192683,85.162214 170.760184,86.177321 169.196676,86.452275 C 154.737125,88.998564 139.28321,90.315767 123.825,90.3125 L 73.81875,90.3125 C 72.23125,90.3125 71.610733,89.395927 70.842187,88.006865 A 4.7625,4.7625 0.0 0,0 62.507812,88.006865 C 61.739267,89.395927 61.11875,90.3125 59.53125,90.3125 L 9.5,90.3125 L 9.5,92.575 A 1.5,1.5 0.0 0,1 8.0,94.075 L 4.5,94.075 L 4.5,95.075 L 123.825,95.075 A 133.35,63.5 0.0 0,0 177.181918,89.770195 A 133.35,63.5 0.0 0,0 218.173956,76.449471 M 178.8125,85.107402 A 2.6,2.6 0.0 0,1 173.6125,85.107402 A 2.6,2.6 0.0 0,1 178.8125,85.107402 M 69.275,90.3125 A 2.6000000000000014,2.6000000000000014 0.0 0,1 64.075,90.3125 A 2.6000000000000014,2.6000000000000014 0.0 0,1 69.275,90.3125" />
      <path d="M -218.075,-71.253242 L -216.425,-71.253242 L -216.425,-71.753242 A 0.5,0.5 0.0 0,1 -215.925,-72.253242 L -213.225,-72.253242 A 0.5,0.5 0.0 0,1 -212.725,-71.753242 L -212.725,-71.253242 L -211.075,-71.253242 C -210.408333,-71.253242 -210.075,-71.586576 -210.075,-72.253242 L -210.075,-72.473341 C -210.075,-74.060841 -209.345202,-75.167115 -207.871435,-75.757173 C -200.337296,-78.77452 -192.030998,-81.39661 -183.181997,-83.54017 C -181.639149,-83.914038 -180.837653,-83.155603 -179.789598,-81.963237 A 4.7625,4.7625 -11.145674118505378 0,0 -171.678221,-83.650788 C -171.192683,-85.162214 -170.760184,-86.177321 -169.196676,-86.452275 C -154.737125,-88.998564 -139.28321,-90.315767 -123.825,-90.3125 L -73.81875,-90.3125 C -72.23125,-90.3125 -71.610733,-89.395927 -70.842187,-88.006865 A 4.7625,4.7625 0.0 0,0 -62.507813,-88.006865 C -61.739267,-89.395927 -61.11875,-90.3125 -59.53125,-90.3125 L 59.53125,-90.3125 C 61.11875,-90.3125 61.739267,-89.395927 62.507813,-88.006865 A 4.7625,4.7625 0.0 0,0 70.842187,-88.006865 C 71.610733,-89.395927 72.23125,-90.3125 73.81875,-90.3125 L 123.825,-90.3125 C 139.28321,-90.315767 154.737125,-88.998564 169.196676,-86.452275 C 170.760184,-86.177321 171.192683,-85.162214 171.678221,-83.650788 A 4.7625,4.7625 0.0 0,0 179.789598,-81.963237 C 180.837653,-83.155603 181.639149,-83.914038 183.181997,-83.54017 C 192.030998,-81.39661 200.337296,-78.77452 207.871435,-75.757173 C 209.345202,-75.167115 210.075,-74.060841 210.075,-72.473341 L 210.075,-72.253242 C 210.075,-71.586576 210.408333,-71.253242 211.075,-71.253242 L 212.725,-71.253242 L 212.725,-71.753242 A 0.5,0.5 0.0 0,1 213.225,-72.253242 L 215.925,-72.253242 A 0.5,0.5 0.0 0,1 216.425,-71.753242 L 216.425,-71.253242 L 218.075,-71.253242 C 218.741667,-71.253242 219.075,-71.586576 219.075,-72.253242 L 219.075,-75.015742 C 219.075,-75.682409 218.77573,-76.162569 218.173956,-76.449471 A 133.35,63.5 0.0 0,0 177.181918,-89.770195 A 133.35,63.5 0.0 0,0 123.825,-95.075 L -123.825,-95.075 A 133.35,63.5 0.0 0,0 -177.181918,-89.770195 A 133.35,63.5 0.0 0,0 -218.173956,-76.449471 C -218.77573,-76.162569 -219.075,-75.682409 -219.075,-75.015742 L -219.075,-72.253242 C -219.075,-71.586576 -218.741667,-71.253242 -218.075,-71.253242 M -64.075,-90.3125 A 2.6000000000000014,2.6000000000000014 0.0 0,1 -69.275,-90.3125 A 2.6000000000000014,2.6000000000000014 0.0 0,1 -64.075,-90.3125 M 69.275,-90.3125 A 2.6000000000000014,2.6000000000000014 0.0 0,1 64.075,-90.3125 A 2.6000000000000014,2.6000000000000014 0.0 0,1 69.275,-90.3125 M -173.6125,-85.107402 A 2.6,2.6 0.0 0,1 -178.8125,-85.107402 A 2.6,2.6 0.0 0,1 -173.6125,-85.107402 M 178.8125,-85.107402 A 2.6,2.6 0.0 0,1 173.6125,-85.107402 A 2.6,2.6 0.0 0,1 178.8125,-85.107402" />
      <path d="M -8.365049,25.544902 L -117.902549,25.544902 A 4.812333537401727,4.812333537401727 -90.0 0,0 -119.820307,34.770937 A 133.35,63.5 0.0 0,0 -117.902549,35.169569 A 133.35,63.5 0.0 0,0 -65.515049,40.275 L -8.365049,40.275 A 7.365048999999998,7.365048999999998 180.0 0,0 -8.365049,25.544902 M -115.302549,30.307402 A 2.6000000000000014,2.6000000000000014 0.0 0,1 -120.502549,30.307402 A 2.6000000000000014,2.6000000000000014 0.0 0,1 -115.302549,30.307402 M -5.765049,35.5125 A 2.6,2.6 0.0 0,1 -10.965049,35.5125 A 2.6,2.6 0.0 0,1 -5.765049,35.5125" />
      <circle cx="-8.365049" cy="35.5125" r="1.6" />
      <circle cx="-117.902549" cy="30.307402" r="1.6" />
      <path d="M 117.902549,25.544902 L 8.365049,25.544902 A 7.365048999999998,7.365048999999998 0.0 0,0 8.365049,40.275 L 65.515049,40.275 A 133.35,63.5 0.0 0,0 117.902549,35.169569 A 133.35,63.5 0.0 0,0 119.820307,34.770937 A 4.812333537401727,4.812333537401727 -90.0 0,0 117.902549,25.544902 M 120.502549,30.307402 A 2.6000000000000014,2.6000000000000014 0.0 0,1 115.302549,30.307402 A 2.6000000000000014,2.6000000000000014 0.0 0,1 120.502549,30.307402 M 10.965049,35.5125 A 2.6,2.6 0.0 0,1 5.765049,35.5125 A 2.6,2.6 0.0 0,1 10.965049,35.5125" />
      <circle cx="8.365049" cy="35.5125" r="1.6" />
      <circle cx="117.902549" cy="30.307402" r="1.6" />
      <path d="M -8.365049,9.814804 L -117.902549,9.814804 A 4.812333537401727,4.812333537401727 -90.0 0,0 -119.820307,19.040839 A 133.35,63.5 0.0 0,0 -117.902549,19.439471 A 133.35,63.5 0.0 0,0 -65.515049,24.544902 L -8.365049,24.544902 A 7.365049,7.365049 180.0 0,0 -8.365049,9.814804 M -115.302549,14.577304 A 2.6000000000000014,2.6000000000000014 0.0 0,1 -120.502549,14.577304 A 2.6000000000000014,2.6000000000000014 0.0 0,1 -115.302549,14.577304 M -5.765049,19.782402 A 2.6,2.6 0.0 0,1 -10.965049,19.782402 A 2.6,2.6 0.0 0,1 -5.765049,19.782402" />
      <circle cx="-8.365049" cy="19.782402" r="1.6" />
      <circle cx="-117.902549" cy="14.577304" r="1.6" />
      <path d="M 117.902549,9.814804 L 8.365049,9.814804 A 7.365049,7.365049 0.0 0,0 8.365049,24.544902 L 65.515049,24.544902 A 133.35,63.5 0.0 0,0 117.902549,19.439471 A 133.35,63.5 0.0 0,0 119.820307,19.040839 A 4.812333537401727,4.812333537401727 -90.0 0,0 117.902549,9.814804 M 120.502549,14.577304 A 2.6000000000000014,2.6000000000000014 0.0 0,1 115.302549,14.577304 A 2.6000000000000014,2.6000000000000014 0.0 0,1 120.502549,14.577304 M 10.965049,19.782402 A 2.6,2.6 0.0 0,1 5.765049,19.782402 A 2.6,2.6 0.0 0,1 10.965049,19.782402" />
      <circle cx="8.365049" cy="19.782402" r="1.6" />
      <circle cx="117.902549" cy="14.577304" r="1.6" />
      <path d="M -8.365049,-5.915294 L -117.902549,-5.915294 A 4.812333537401727,4.812333537401727 -90.0 0,0 -119.820307,3.310741 A 133.35,63.5 0.0 0,0 -117.902549,3.709373 A 133.35,63.5 0.0 0,0 -65.515049,8.814804 L -8.365049,8.814804 A 7.365049,7.365049 180.0 0,0 -8.365049,-5.915294 M -115.302549,-1.152794 A 2.6000000000000014,2.6000000000000014 0.0 0,1 -120.502549,-1.152794 A 2.6000000000000014,2.6000000000000014 0.0 0,1 -115.302549,-1.152794 M -5.765049,4.052304 A 2.6,2.6 0.0 0,1 -10.965049,4.052304 A 2.6,2.6 0.0 0,1 -5.765049,4.052304" />
      <circle cx="-8.365049" cy="4.052304" r="1.6" />
      <circle cx="-117.902549" cy="-1.152794" r="1.6" />
      <path d="M 117.902549,-5.915294 L 8.365049,-5.915294 A 7.365049,7.365049 0.0 0,0 8.365049,8.814804 L 65.515049,8.814804 A 133.35,63.5 0.0 0,0 117.902549,3.709373 A 133.35,63.5 0.0 0,0 119.820307,3.310741 A 4.812333537401727,4.812333537401727 -90.0 0,0 117.902549,-5.915294 M 120.502549,-1.152794 A 2.6000000000000014,2.6000000000000014 0.0 0,1 115.302549,-1.152794 A 2.6000000000000014,2.6000000000000014 0.0 0,1 120.502549,-1.152794 M 10.965049,4.052304 A 2.6,2.6 0.0 0,1 5.765049,4.052304 A 2.6,2.6 0.0 0,1 10.965049,4.052304" />
      <circle cx="8.365049" cy="4.052304" r="1.6" />
      <circle cx="117.902549" cy="-1.152794" r="1.6" />
      <path d="M -8.365049,-21.645392 L -117.902549,-21.645392 A 4.812333537401727,4.812333537401727 -90.0 0,0 -119.820307,-12.419357 A 133.35,63.5 0.0 0,0 -117.902549,-12.020725 A 133.35,63.5 0.0 0,0 -65.515049,-6.915294 L -8.365049,-6.915294 A 7.365049,7.365049 180.0 0,0 -8.365049,-21.645392 M -115.302549,-16.882892 A 2.6000000000000014,2.6000000000000014 0.0 0,1 -120.502549,-16.882892 A 2.6000000000000014,2.6000000000000014 0.0 0,1 -115.302549,-16.882892 M -5.765049,-11.677794 A 2.6,2.6 0.0 0,1 -10.965049,-11.677794 A 2.6,2.6 0.0 0,1 -5.765049,-11.677794" />
      <circle cx="-8.365049" cy="-11.677794" r="1.6" />
      <circle cx="-117.902549" cy="-16.882892" r="1.6" />
      <path d="M 117.902549,-21.645392 L 8.365049,-21.645392 A 7.365049,7.365049 0.0 0,0 8.365049,-6.915294 L 65.515049,-6.915294 A 133.35,63.5 0.0 0,0 117.902549,-12.020725 A 133.35,63.5 0.0 0,0 119.820307,-12.419357 A 4.812333537401727,4.812333537401727 -90.0 0,0 117.902549,-21.645392 M 120.502549,-16.882892 A 2.6000000000000014,2.6000000000000014 0.0 0,1 115.302549,-16.882892 A 2.6000000000000014,2.6000000000000014 0.0 0,1 120.502549,-16.882892 M 10.965049,-11.677794 A 2.6,2.6 0.0 0,1 5.765049,-11.677794 A 2.6,2.6 0.0 0,1 10.965049,-11.677794" />
      <circle cx="8.365049" cy="-11.677794" r="1.6" />
      <circle cx="117.902549" cy="-16.882892" r="1.6" />
      <path d="M -8.365049,-37.37549 L -117.902549,-37.37549 A 4.812333537401727,4.812333537401727 -90.0 0,0 -119.820307,-28.149455 A 133.35,63.5 0.0 0,0 -117.902549,-27.750823 A 133.35,63.5 0.0 0,0 -65.515049,-22.645392 L -8.365049,-22.645392 A 7.365048999999998,7.365048999999998 180.0 0,0 -8.365049,-37.37549 M -115.302549,-32.61299 A 2.6000000000000014,2.6000000000000014 0.0 0,1 -120.502549,-32.61299 A 2.6000000000000014,2.6000000000000014 0.0 0,1 -115.302549,-32.61299 M -5.765049,-27.407892 A 2.6,2.6 0.0 0,1 -10.965049,-27.407892 A 2.6,2.6 0.0 0,1 -5.765049,-27.407892" />
      <circle cx="-8.365049" cy="-27.407892" r="1.6" />
      <circle cx="-117.902549" cy="-32.61299" r="1.6" />
      <path d="M 117.902549,-37.37549 L 8.365049,-37.37549 A 7.365048999999998,7.365048999999998 0.0 0,0 8.365049,-22.645392 L 65.515049,-22.645392 A 133.35,63.5 0.0 0,0 117.902549,-27.750823 A 133.35,63.5 0.0 0,0 119.820307,-28.149455 A 4.812333537401727,4.812333537401727 -90.0 0,0 117.902549,-37.37549 M 120.502549,-32.61299 A 2.6000000000000014,2.6000000000000014 0.0 0,1 115.302549,-32.61299 A 2.6000000000000014,2.6000000000000014 0.0 0,1 120.502549,-32.61299 M 10.965049,-27.407892 A 2.6,2.6 0.0 0,1 5.765049,-27.407892 A 2.6,2.6 0.0 0,1 10.965049,-27.407892" />
      <circle cx="8.365049" cy="-27.407892" r="1.6" />
      <circle cx="117.902549" cy="-32.61299" r="1.6" />
      <path d="M -8.365049,-53.105588 L -117.902549,-53.105588 A 4.812333537401727,4.812333537401727 -90.0 0,0 -119.820307,-43.879553 A 133.35,63.5 0.0 0,0 -117.902549,-43.480921 A 133.35,63.5 0.0 0,0 -65.515049,-38.37549 L -8.365049,-38.37549 A 7.365048999999998,7.365048999999998 180.0 0,0 -8.365049,-53.105588 M -115.302549,-48.343088 A 2.6000000000000014,2.6000000000000014 0.0 0,1 -120.502549,-48.343088 A 2.6000000000000014,2.6000000000000014 0.0 0,1 -115.302549,-48.343088 M -5.765049,-43.13799 A 2.6,2.6 0.0 0,1 -10.965049,-43.13799 A 2.6,2.6 0.0 0,1 -5.765049,-43.13799" />
      <circle cx="-8.365049" cy="-43.13799" r="1.6" />
      <circle cx="-117.902549" cy="-48.343088" r="1.6" />
      <path d="M 117.902549,-53.105588 L 8.365049,-53.105588 A 7.365048999999998,7.365048999999998 0.0 0,0 8.365049,-38.37549 L 65.515049,-38.37549 A 133.35,63.5 0.0 0,0 117.902549,-43.480921 A 133.35,63.5 0.0 0,0 119.820307,-43.879553 A 4.812333537401727,4.812333537401727 -90.0 0,0 117.902549,-53.105588 M 120.502549,-48.343088 A 2.6000000000000014,2.6000000000000014 0.0 0,1 115.302549,-48.343088 A 2.6000000000000014,2.6000000000000014 0.0 0,1 120.502549,-48.343088 M 10.965049,-43.13799 A 2.6,2.6 0.0 0,1 5.765049,-43.13799 A 2.6,2.6 0.0 0,1 10.965049,-43.13799" />
      <circle cx="8.365049" cy="-43.13799" r="1.6" />
      <circle cx="117.902549" cy="-48.343088" r="1.6" />
      <path d="M 137.4125,-44.146992 L 126.0125,-44.146992 A 0.7000000000000001,0.7000000000000001 90.0 0,0 125.3125,-43.446992 L 125.3125,35.509492 A 0.7000000000000001,0.7000000000000001 90.0 0,0 126.0125,36.209492 L 137.4125,36.209492 A 0.7000000000000001,0.7000000000000001 90.0 0,0 138.1125,35.509492 L 138.1125,-43.446992 A 0.7000000000000001,0.7000000000000001 90.0 0,0 137.4125,-44.146992" />
      <path d="M -126.0125,-44.146992 L -137.4125,-44.146992 A 0.7000000000000001,0.7000000000000001 90.0 0,0 -138.1125,-43.446992 L -138.1125,35.509492 A 0.7000000000000001,0.7000000000000001 90.0 0,0 -137.4125,36.209492 L -126.0125,36.209492 A 0.7000000000000001,0.7000000000000001 90.0 0,0 -125.3125,35.509492 L -125.3125,-43.446992 A 0.7000000000000001,0.7000000000000001 90.0 0,0 -126.0125,-44.146992" />
      <path d="M -163.71297,96.075 C -164.179637,96.075 -164.41297,96.308333 -164.41297,96.775 L -164.41297,99.175 C -164.41297,99.641667 -164.179637,99.875 -163.71297,99.875 L -162.11297,99.875 C -161.646303,99.875 -161.41297,100.108333 -161.41297,100.575 L -161.41297,105.875 C -161.41297,106.341667 -161.179637,106.575 -160.71297,106.575 L 160.71297,106.575 C 161.179637,106.575 161.41297,106.341667 161.41297,105.875 L 161.41297,100.575 C 161.41297,100.108333 161.646303,99.875 162.11297,99.875 L 163.71297,99.875 C 164.179637,99.875 164.41297,99.641667 164.41297,99.175 L 164.41297,96.775 C 164.41297,96.308333 164.179637,96.075 163.71297,96.075 L -163.71297,96.075" />
    </g>
  </g>
</svg>