<?xml version='1.0' encoding='utf-8'?>
<svg width="458.24mm" height="235.74mm" viewBox="-229.12 -124.62 458.24 235.74" version="1.1" xmlns="http://www.w3.org/2000/svg">
  <g transform="scale(1,-1)" stroke-linecap="round">
    <g fill="none" stroke="rgb(0,0,0)" stroke-width="0.09">
      <path d="M -123.825,63.5 L 123.825,63.5 A 133.35,63.5 0.0 0,0 218.173956,44.874471 C 218.77573,44.587569 219.075,44.107409 219.075,43.440742 L 219.075,-43.440742 C 219.075,-44.107409 218.77573,-44.587569 218.173956,-44.874471 A 133.35,63.5 0.0 0,0 123.825,-63.5 L -123.825,-63.5 A 133.35,63.5 0.0 0,0 -218.173956,-44.874471 C -218.77573,-44.587569 -219.075,-44.107409 -219.075,-43.440742 L -219.075,43.440742 C -219.075,44.107409 -218.77573,44.587569 -218.173956,44.874471 A 133.35,63.5 0.0 0,0 -123.825,63.5 M -174.6125,-53.532402 A 1.6,1.6 0.0 0,1 -177.8125,-53.532402 A 1.6,1.6 0.0 0,1 -174.6125,-53.532402 M -65.075,-58.7375 A 1.6000000000000012,1.6000000000000012 0.0 0,1 -68.275,-58.7375 A 1.6000000000000012,1.6000000000000012 0.0 0,1 -65.075,-58.7375 M -205.2875,-43.45 A 1.0,1.0 -90.0 0,1 -204.2875,-44.45 L -148.1375,-44.45 A 1.0,1.0 -90.0 0,1 -147.1375,-43.45 L -147.1375,-6.35 A 1.0,1.0 -90.0 0,1 -148.1375,-5.35 L -204.2875,-5.35 A 1.0,1.0 -90.0 0,1 -205.2875,-6.35 L -205.2875,-43.45 M 68.275,-58.7375 A 1.6000000000000012,1.6000000000000012 0.0 0,1 65.075,-58.7375 A 1.6000000000000012,1.6000000000000012 0.0 0,1 68.275,-58.7375 M 177.8125,-53.532402 A 1.6,1.6 0.0 0,1 174.6125,-53.532402 A 1.6,1.6 0.0 0,1 177.8125,-53.532402 M -143.375,-52.975 A 1.0,1.0 -90.0 0,1 -142.375,-53.975 L 142.375,-53.975 A 1.0,1.0 -90.0 0,1 143.375,-52.975 L 143.375,41.275 A 1.0,1.0 -90.0 0,1 142.375,42.275 L -142.375,42.275 A 1.0,1.0 -90.0 0,1 -143.375,41.275 L -143.375,-52.975 M 147.1375,-43.45 A 1.0,1.0 -90.0 0,1 148.1375,-44.45 L 204.2875,-44.45 A 1.0,1.0 -90.0 0,1 205.2875,-43.45 L 205.2875,-25.4 A 1.0,1.0 -90.0 0,1 204.2875,-24.4 L 187.2375,-24.4 A 1.0,1.0 -90.0 0,0 186.2375,-23.4 L 186.2375,-6.35 A 1.0,1.0 -90.0 0,1 185.2375,-5.35 L 167.1875,-5.35 A 1.0,1.0 -90.0 0,1 166.1875,-6.35 L 166.1875,-23.4 A 1.0,1.0 -90.0 0,0 165.1875,-24.4 L 148.1375,-24.4 A 1.0,1.0 -90.0 0,1 147.1375,-25.4 L 147.1375,-43.45 M -205.2875,-0.5875 A 1.0,1.0 -90.0 0,1 -204.2875,-1.5875 L -148.1375,-1.5875 A 1.0,1.0 -90.0 0,1 -147.1375,-0.5875 L -147.1375,36.5125 A 1.0,1.0 -90.0 0,1 -148.1375,37.5125 L -204.2875,37.5125 A 1.0,1.0 -90.0 0,1 -205.2875,36.5125 L -205.2875,-0.5875 M -174.6125,53.532402 A 1.6,1.6 0.0 0,1 -177.8125,53.532402 A 1.6,1.6 0.0 0,1 -174.6125,53.532402 M -65.075,58.7375 A 1.6000000000000012,1.6000000000000012 0.0 0,1 -68.275,58.7375 A 1.6000000000000012,1.6000000000000012 0.0 0,1 -65.075,58.7375 M 147.1375,-0.5875 A 1.0,1.0 -90.0 0,1 148.1375,-1.5875 L 204.2875,-1.5875 A 1.0,1.0 -90.0 0,1 205.2875,-0.5875 L 205.2875,36.5125 A 1.0,1.0 -90.0 0,1 204.2875,37.5125 L 148.1375,37.5125 A 1.0,1.0 -90.0 0,1 147.1375,36.5125 L 147.1375,-0.5875 M -164.11297,46.8875 A 0.35000000000000003,0.35000000000000003 0.0 0,1 -163.76297,46.5375 L 163.76297,46.5375 A 0.35000000000000003,0.35000000000000003 0.0 0,1 164.11297,46.8875 L 164.11297,49.8875 A 0.35000000000000003,0.35000000000000003 0.0 0,1 163.76297,50.2375 L -163.76297,50.2375 A 0.35000000000000003,0.35000000000000003 0.0 0,1 -164.11297,49.8875 L -164.11297,46.8875 M 68.275,58.7375 A 1.6000000000000012,1.6000000000000012 0.0 0,1 65.075,58.7375 A 1.6000000000000012,1.6000000000000012 0.0 0,1 68.275,58.7375 M 177.8125,53.532402 A 1.6,1.6 0.0 0,1 174.6125,53.532402 A 1.6,1.6 0.0 0,1 177.8125,53.532402" />
      <path d="M 177.181918,70.720195 A 133.35,63.5 0.0 0,0 218.173956,57.399471 C 218.77573,57.112569 219.075,56.632409 219.075,55.965742 L 219.075,53.203242 C 219.075,52.536576 218.741667,52.203242 218.075,52.203242 L 216.425,52.203242 L 216.425,53.003242 A 0.7000000000000001,0.7000000000000001 0.0 0,1 215.725,53.703242 L 213.425,53.703242 A 0.7000000000000001,0.7000000000000001 0.0 0,1 212.725,53.003242 L 212.725,52.203242 L 211.075,52.203242 C 210.408333,52.203242 210.075,52.536576 210.075,53.203242 L 210.075,53.423341 C 210.075,55.010841 209.345202,56.117115 207.871435,56.707173 C 200.337296,59.72452 192.030998,62.34661 183.181997,64.49017 C 181.639149,64.864038 180.837653,64.105603 179.789598,62.913237 A 4.7625,4.7625 0.0 0,0 171.678221,64.600788 C 171.192683,66.112214 170.760184,67.127321 169.196676,67.402275 C 154.737125,69.948564 139.28321,71.265767 123.825,71.2625 L 73.81875,71.2625 C 72.23125,71.2625 71.610733,70.345927 70.842187,68.956865 A 4.7625,4.7625 0.0 0,0 62.507812,68.956865 C 61.739267,70.345927 61.11875,71.2625 59.53125,71.2625 L -59.53125,71.2625 C -61.11875,71.2625 -61.739267,70.345927 -62.507813,68.956865 A 4.7625,4.7625 0.0 0,0 -70.842188,68.956865 C -71.610733,70.345927 -72.23125,71.2625 -73.81875,71.2625 L -123.825,71.2625 C -139.28321,71.265767 -154.737125,69.948564 -169.196676,67.402275 C -170.760184,67.127321 -171.192683,66.112214 -171.678221,64.600788 A 4.7625,4.7625 -167.64049874902997 0,0 -179.789598,62.913237 C -180.837653,64.105603 -181.639149,64.864038 -183.181997,64.49017 C -192.030998,62.34661 -200.337296,59.72452 -207.871435,56.707173 C -209.345202,56.117115 -210.075,55.010841 -210.075,53.423341 L -210.075,53.203242 C -210.075,52.536576 -210.408333,52.203242 -211.075,52.203242 L -212.725,52.203242 L -212.725,53.003242 A 0.7000000000000001,0.7000000000000001 0.0 0,1 -213.425,53.703242 L -215.725,53.703242 A 0.7000000000000001,0.7000000000000001 0.0 0,1 -216.425,53.003242 L -216.425,52.203242 L -218.075,52.203242 C -218.741667,52.203242 -219.075,52.536576 -219.075,53.203242 L -219.075,55.965742 C -219.075,56.632409 -218.77573,57.112569 -218.173956,57.399471 A 133.35,63.5 0.0 0,0 -177.181918,70.720195 A 133.35,63.5 0.0 0,0 -123.825,76.025 L 123.825,76.025 A 133.35,63.5 0.0 0,0 177.181918,70.720195 M -174.6125,66.057402 A 1.6,1.6 0.0 0,1 -177.8125,66.057402 A 1.6,1.6 0.0 0,1 -174.6125,66.057402 M 177.8125,66.057402 A 1.6,1.6 0.0 0,1 174.6125,66.057402 A 1.6,1.6 0.0 0,1 177.8125,66.057402 M -65.075,71.2625 A 1.6000000000000012,1.6000000000000012 0.0 0,1 -68.275,71.2625 A 1.6000000000000012,1.6000000000000012 0.0 0,1 -65.075,71.2625 M 68.275,71.2625 A 1.6000000000000012,1.6000000000000012 0.0 0,1 65.075,71.2625 A 1.6000000000000012,1.6000000000000012 0.0 0,1 68.275,71.2625" />
      <path d="M -218.075,-52.203242 L -216.425,-52.203242 L -216.425,-53.003242 A 0.7000000000000001,0.7000000000000001 0.0 0,1 -215.725,-53.703242 L -213.425,-53.703242 A 0.7000000000000001,0.7000000000000001 0.0 0,1 -212.725,-53.003242 L -212.725,-52.203242 L -211.075,-52.203242 C -210.408333,-52.203242 -210.075,-52.536576 -210.075,-53.203242 L -210.075,-53.423341 C -210.075,-55.010841 -209.345202,-56.117115 -207.871435,-56.707173 C -200.337296,-59.72452 -192.030998,-62.34661 -183.181997,-64.49017 C -181.639149,-64.864038 -180.837653,-64.105603 -179.789598,-62.913237 A 4.7625,4.7625 -11.145674118505378 0,0 -171.678221,-64.600788 C -171.192683,-66.112214 -170.760184,-67.127321 -169.196676,-67.402275 C -154.737125,-69.948564 -139.28321,-71.265767 -123.825,-71.2625 L -73.81875,-71.2625 C -72.23125,-71.2625 -71.610733,-70.345927 -70.842187,-68.956865 A 4.7625,4.7625 0.0 0,0 -62.507813,-68.956865 C -61.739267,-70.345927 -61.11875,-71.2625 -59.53125,-71.2625 L 59.53125,-71.2625 C 61.11875,-71.2625 61.739267,-70.345927 62.507813,-68.956865 A 4.7625,4.7625 0.0 0,0 70.842187,-68.956865 C 71.610733,-70.345927 72.23125,-71.2625 73.81875,-71.2625 L 123.825,-71.2625 C 139.28321,-71.265767 154.737125,-69.948564 169.196676,-67.402275 C 170.760184,-67.127321 171.192683,-66.112214 171.678221,-64.600788 A 4.7625,4.7625 0.0 0,0 179.789598,-62.913237 C 180.837653,-64.105603 181.639149,-64.864038 183.181997,-64.49017 C 192.030998,-62.34661 200.337296,-59.72452 207.871435,-56.707173 C 209.345202,-56.117115 210.075,-55.010841 210.075,-53.423341 L 210.075,-53.203242 C 210.075,-52.536576 210.408333,-52.203242 211.075,-52.203242 L 212.725,-52.203242 L 212.725,-53.003242 A 0.7000000000000001,0.7000000000000001 0.0 0,1 213.425,-53.703242 L 215.725,-53.703242 A 0.7000000000000001,0.7000000000000001 0.0 0,1 216.425,-53.003242 L 216.425,-52.203242 L 218.075,-52.203242 C 218.741667,-52.203242 219.075,-52.536576 219.075,-53.203242 L 219.075,-55.965742 C 219.075,-56.632409 218.77573,-57.112569 218.173956,-57.399471 A 133.35,63.5 0.0 0,0 177.181918,-70.720195 A 133.35,63.5 0.0 0,0 123.825,-76.025 L -123.825,-76.025 A 133.35,63.5 0.0 0,0 -177.181918,-70.720195 A 133.35,63.5 0.0 0,0 -218.173956,-57.399471 C -218.77573,-57.112569 -219.075,-56.632409 -219.075,-55.965742 L -219.075,-53.203242 C -219.075,-52.536576 -218.741667,-52.203242 -218.075,-52.203242 M -65.075,-71.2625 A 1.6000000000000012,1.6000000000000012 0.0 0,1 -68.275,-71.2625 A 1.6000000000000012,1.6000000000000012 0.0 0,1 -65.075,-71.2625 M 68.275,-71.2625 A 1.6000000000000012,1.6000000000000012 0.0 0,1 65.075,-71.2625 A 1.6000000000000012,1.6000000000000012 0.0 0,1 68.275,-71.2625 M -174.6125,-66.057402 A 1.6,1.6 0.0 0,1 -177.8125,-66.057402 A 1.6,1.6 0.0 0,1 -174.6125,-66.057402 M 177.8125,-66.057402 A 1.6,1.6 0.0 0,1 174.6125,-66.057402 A 1.6,1.6 0.0 0,1 177.8125,-66.057402" />
      <path d="M 177.181918,83.245195 A 133.35,63.5 0.0 0,0 218.173956,69.924471 C 218.77573,69.637569 219.075,69.157409 219.075,68.490742 L 219.075,65.728242 C 219.075,65.061576 218.741667,64.728242 218.075,64.728242 L 216.425,64.728242 L 216.425,65.528242 A 0.7000000000000001,0.7000000000000001 0.0 0,1 215.725,66.228242 L 213.425,66.228242 A 0.7000000000000001,0.7000000000000001 0.0 0,1 212.725,65.528242 L 212.725,64.728242 L 211.075,64.728242 C 210.408333,64.728242 210.075,65.061576 210.075,65.728242 L 210.075,65.948341 C 210.075,67.535841 209.345202,68.642115 207.871435,69.232173 C 200.337296,72.24952 192.030998,74.87161 183.181997,77.01517 C 181.639149,77.389038 180.837653,76.630603 179.789598,75.438237 A 4.7625,4.7625 0.0 0,0 171.678221,77.125788 C 171.192683,78.637214 170.760184,79.652321 169.196676,79.927275 C 154.737125,82.473564 139.28321,83.790767 123.825,83.7875 L 73.81875,83.7875 C 72.23125,83.7875 71.610733,82.870927 70.842187,81.481865 A 4.7625,4.7625 0.0 0,0 62.507812,81.481865 C 61.739267,82.870927 61.11875,83.7875 59.53125,83.7875 L -59.53125,83.7875 C -61.11875,83.7875 -61.739267,82.870927 -62.507813,81.481865 A 4.7625,4.7625 0.0 0,0 -70.842188,81.481865 C -71.610733,82.870927 -72.23125,83.7875 -73.81875,83.7875 L -123.825,83.7875 C -139.28321,83.790767 -154.737125,82.473564 -169.196676,79.927275 C -170.760184,79.652321 -171.192683,78.637214 -171.678221,77.125788 A 4.7625,4.7625 -167.64049874902997 0,0 -179.789598,75.438237 C -180.837653,76.630603 -181.639149,77.389038 -183.181997,77.01517 C -192.030998,74.87161 -200.337296,72.24952 -207.871435,69.232173 C -209.345202,68.642115 -210.075,67.535841 -210.075,65.948341 L -210.075,65.728242 C -210.075,65.061576 -210.408333,64.728242 -211.075,64.728242 L -212.725,64.728242 L -212.725,65.528242 A 0.7000000000000001,0.7000000000000001 0.0 0,1 -213.425,66.228242 L -215.725,66.228242 A 0.7000000000000001,0.7000000000000001 0.0 0,1 -216.425,65.528242 L -216.425,64.728242 L -218.075,64.728242 C -218.741667,64.728242 -219.075,65.061576 -219.075,65.728242 L -219.075,68.490742 C -219.075,69.157409 -218.77573,69.637569 -218.173956,69.924471 A 133.35,63.5 0.0 0,0 -177.181918,83.245195 A 133.35,63.5 0.0 0,0 -123.825,88.55 L 123.825,88.55 A 133.35,63.5 0.0 0,0 177.181918,83.245195 M -174.6125,78.582402 A 1.6,1.6 0.0 0,1 -177.8125,78.582402 A 1.6,1.6 0.0 0,1 -174.6125,78.582402 M 177.8125,78.582402 A 1.6,1.6 0.0 0,1 174.6125,78.582402 A 1.6,1.6 0.0 0,1 177.8125,78.582402 M -65.075,83.7875 A 1.6000000000000012,1.6000000000000012 0.0 0,1 -68.275,83.7875 A 1.6000000000000012,1.6000000000000012 0.0 0,1 -65.075,83.7875 M 68.275,83.7875 A 1.6000000000000012,1.6000000000000012 0.0 0,1 65.075,83.7875 A 1.6000000000000012,1.6000000000000012 0.0 0,1 68.275,83.7875" />
      <path d="M -218.075,-64.728242 L -216.425,-64.728242 L -216.425,-65.528242 A 0.7000000000000001,0.7000000000000001 0.0 0,1 -215.725,-66.228242 L -213.425,-66.228242 A 0.7000000000000001,0.7000000000000001 0.0 0,1 -212.725,-65.528242 L -212.725,-64.728242 L -211.075,-64.728242 C -210.408333,-64.728242 -210.075,-65.061576 -210.075,-65.728242 L -210.075,-65.948341 C -210.075,-67.535841 -209.345202,-68.642115 -207.871435,-69.232173 C -200.337296,-72.24952 -192.030998,-74.87161 -183.181997,-77.01517 C -181.639149,-77.389038 -180.837653,-76.630603 -179.789598,-75.438237 A 4.7625,4.7625 -11.145674118505378 0,0 -171.678221,-77.125788 C -171.192683,-78.637214 -170.760184,-79.652321 -169.196676,-79.927275 C -154.737125,-82.473564 -139.28321,-83.790767 -123.825,-83.7875 L -73.81875,-83.7875 C -72.23125,-83.7875 -71.610733,-82.870927 -70.842187,-81.481865 A 4.7625,4.7625 0.0 0,0 -62.507813,-81.481865 C -61.739267,-82.870927 -61.11875,-83.7875 -59.53125,-83.7875 L 59.53125,-83.7875 C 61.11875,-83.7875 61.739267,-82.870927 62.507813,-81.481865 A 4.7625,4.7625 0.0 0,0 70.842187,-81.481865 C 71.610733,-82.870927 72.23125,-83.7875 73.81875,-83.7875 L 123.825,-83.7875 C 139.28321,-83.790767 154.737125,-82.473564 169.196676,-79.927275 C 170.760184,-79.652321 171.192683,-78.637214 171.678221,-77.125788 A 4.7625,4.7625 0.0 0,0 179.789598,-75.438237 C 180.837653,-76.630603 181.639149,-77.389038 183.181997,-77.01517 C 192.030998,-74.87161 200.337296,-72.24952 207.871435,-69.232173 C 209.345202,-68.642115 210.075,-67.535841 210.075,-65.948341 L 210.075,-65.728242 C 210.075,-65.061576 210.408333,-64.728242 211.075,-64.728242 L 212.725,-64.728242 L 212.725,-65.528242 A 0.7000000000000001,0.7000000000000001 0.0 0,1 213.425,-66.228242 L 215.725,-66.228242 A 0.7000000000000001,0.7000000000000001 0.0 0,1 216.425,-65.528242 L 216.425,-64.728242 L 218.075,-64.728242 C 218.741667,-64.728242 219.075,-65.061576 219.075,-65.728242 L 219.075,-68.490742 C 219.075,-69.157409 218.77573,-69.637569 218.173956,-69.924471 A 133.35,63.5 0.0 0,0 177.181918,-83.245195 A 133.35,63.5 0.0 0,0 123.825,-88.55 L -123.825,-88.55 A 133.35,63.5 0.0 0,0 -177.181918,-83.245195 A 133.35,63.5 0.0 0,0 -218.173956,-69.924471 C -218.77573,-69.637569 -219.075,-69.157409 -219.075,-68.490742 L -219.075,-65.728242 C -219.075,-65.061576 -218.741667,-64.728242 -218.075,-64.728242 M -64.075,-83.7875 A 2.6000000000000014,2.6000000000000014 0.0 0,1 -69.275,-83.7875 A 2.6000000000000014,2.6000000000000014 0.0 0,1 -64.075,-83.7875 M 69.275,-83.7875 A 2.6000000000000014,2.6000000000000014 0.0 0,1 64.075,-83.7875 A 2.6000000000000014,2.6000000000000014 0.0 0,1 69.275,-83.7875 M -173.6125,-78.582402 A 2.6,2.6 0.0 0,1 -178.8125,-78.582402 A 2.6,2.6 0.0 0,1 -173.6125,-78.582402 M 178.8125,-78.582402 A 2.6,2.6 0.0 0,1 173.6125,-78.582402 A 2.6,2.6 0.0 0,1 178.8125,-78.582402" />
      <path d="M -4.5,101.075 L -4.5,100.075 L -8.0,100.075 A 1.5,1.5 0.0 0,1 -9.5,98.575 L -9.5,96.3125 L -59.53125,96.3125 C -61.11875,96.3125 -61.739267,95.395927 -62.507813,94.006865 A 4.7625,4.7625 0.0 0,0 -70.842188,94.006865 C -71.610733,95.395927 -72.23125,96.3125 -73.81875,96.3125 L -123.825,96.3125 C -139.28321,96.315767 -154.737125,94.998564 -169.196676,92.452275 C -170.760184,92.177321 -171.192683,91.162214 -171.678221,89.650788 A 4.7625,4.7625 -167.64049874902997 0,0 -179.789598,87.963237 C -180.837653,89.155603 -181.639149,89.914038 -183.181997,89.54017 C -192.030998,87.39661 -200.337296,84.77452 -207.871435,81.757173 C -209.345202,81.167115 -210.075,80.060841 -210.075,78.473341 L -210.075,78.253242 C -210.075,77.586576 -210.408333,77.253242 -211.075,77.253242 L -212.725,77.253242 L -212.725,78.053242 A 0.7000000000000001,0.7000000000000001 0.0 0,1 -213.425,78.753242 L -215.725,78.753242 A 0.7000000000000001,0.7000000000000001 0.0 0,1 -216.425,78.053242 L -216.425,77.253242 L -218.075,77.253242 C -218.741667,77.253242 -219.075,77.586576 -219.075,78.253242 L -219.075,81.015742 C -219.075,81.682409 -218.77573,82.162569 -218.173956,82.449471 A 133.35,63.5 0.0 0,0 -177.181918,95.770195 A 133.35,63.5 0.0 0,0 -123.825,101.075 L -4.5,101.075 M -174.6125,91.107402 A 1.6,1.6 0.0 0,1 -177.8125,91.107402 A 1.6,1.6 0.0 0,1 -174.6125,91.107402 M -65.075,96.3125 A 1.6000000000000012,1.6000000000000012 0.0 0,1 -68.275,96.3125 A 1.6000000000000012,1.6000000000000012 0.0 0,1 -65.075,96.3125" />
      <path d="M 218.173956,82.449471 C 218.77573,82.162569 219.075,81.682409 219.075,81.015742 L 219.075,78.253242 C 219.075,77.586576 218.741667,77.253242 218.075,77.253242 L 216.425,77.253242 L 216.425,78.053242 A 0.7000000000000001,0.7000000000000001 0.0 0,1 215.725,78.753242 L 213.425,78.753242 A 0.7000000000000001,0.7000000000000001 0.0 0,1 212.725,78.053242 L 212.725,77.253242 L 211.075,77.253242 C 210.408333,77.253242 210.075,77.586576 210.075,78.253242 L 210.075,78.473341 C 210.075,80.060841 209.345202,81.167115 207.871435,81.757173 C 200.337296,84.77452 192.030998,87.39661 183.181997,89.54017 C 181.639149,89.914038 180.837653,89.155603 179.789598,87.963237 A 4.7625,4.7625 0.0 0,0 171.678221,89.650788 C 171.192683,91.162214 170.760184,92.177321 169.196676,92.452275 C 154.737125,94.998564 139.28321,96.315767 123.825,96.3125 L 73.81875,96.3125 C 72.23125,96.3125 71.610733,95.395927 70.842187,94.006865 A 4.7625,4.7625 0.0 0,0 62.507812,94.006865 C 61.739267,95.395927 61.11875,96.3125 59.53125,96.3125 L 9.5,96.3125 L 9.5,98.575 A 1.5,1.5 0.0 0,1 8.0,100.075 L 4.5,100.075 L 4.5,101.075 L 123.825,101.075 A 133.35,63.5 0.0 0,0 177.181918,95.770195 A 133.35,63.5 0.0 0,0 218.173956,82.449471 M 177.8125,91.107402 A 1.6,1.6 0.0 0,1 174.6125,91.107402 A 1.6,1.6 0.0 0,1 177.8125,91.107402 M 68.275,96.3125 A 1.6000000000000012,1.6000000000000012 0.0 0,1 65.075,96.3125 A 1.6000000000000012,1.6000000000000012 0.0 0,1 68.275,96.3125" />
      <path d="M -218.075,-77.253242 L -216.425,-77.253242 L -216.425,-78.053242 A 0.7000000000000001,0.7000000000000001 0.0 0,1 -215.725,-78.753242 L -213.425,-78.753242 A 0.7000000000000001,0.7000000000000001 0.0 0,1 -212.725,-78.053242 L -212.725,-77.253242 L -211.075,-77.253242 C -210.408333,-77.253242 -210.075,-77.586576 -210.075,-78.253242 L -210.075,-78.473341 C -210.075,-80.060841 -209.345202,-81.167115 -207.871435,-81.757173 C -200.337296,-84.77452 -192.030998,-87.39661 -183.181997,-89.54017 C -181.639149,-89.914038 -180.837653,-89.155603 -179.789598,-87.963237 A 4.7625,4.7625 -11.145674118505378 0,0 -171.678221,-89.650788 C -171.192683,-91.162214 -170.760184,-92.177321 -169.196676,-92.452275 C -154.737125,-94.998564 -139.28321,-96.315767 -123.825,-96.3125 L -73.81875,-96.3125 C -72.23125,-96.3125 -71.610733,-95.395927 -70.842187,-94.006865 A 4.7625,4.7625 0.0 0,0 -62.507813,-94.006865 C -61.739267,-95.395927 -61.11875,-96.3125 -59.53125,-96.3125 L 59.53125,-96.3125 C 61.11875,-96.3125 61.739267,-95.395927 62.507813,-94.006865 A 4.7625,4.7625 0.0 0,0 70.842187,-94.006865 C 71.610733,-95.395927 72.23125,-96.3125 73.81875,-96.3125 L 123.825,-96.3125 C 139.28321,-96.315767 154.737125,-94.998564 169.196676,-92.452275 C 170.760184,-92.177321 171.192683,-91.162214 171.678221,-89.650788 A 4.7625,4.7625 0.0 0,0 179.789598,-87.963237 C 180.837653,-89.155603 181.639149,-89.914038 183.181997,-89.54017 C 192.030998,-87.39661 200.337296,-84.77452 207.871435,-81.757173 C 209.345202,-81.167115 210.075,-80.060841 210.075,-78.473341 L 210.075,-78.253242 C 210.075,-77.586576 210.408333,-77.253242 211.075,-77.253242 L 212.725,-77.253242 L 212.725,-78.053242 A 0.7000000000000001,0.7000000000000001 0.0 0,1 213.425,-78.753242 L 215.725,-78.753242 A 0.7000000000000001,0.7000000000000001 0.0 0,1 216.425,-78.053242 L 216.425,-77.253242 L 218.075,-77.253242 C 218.741667,-77.253242 219.075,-77.586576 219.075,-78.253242 L 219.075,-81.015742 C 219.075,-81.682409 218.77573,-82.162569 218.173956,-82.449471 A 133.35,63.5 0.0 0,0 177.181918,-95.770195 A 133.35,63.5 0.0 0,0 123.825,-101.075 L -123.825,-101.075 A 133.35,63.5 0.0 0,0 -177.181918,-95.770195 A 133.35,63.5 0.0 0,0 -218.173956,-82.449471 C -218.77573,-82.162569 -219.075,-81.682409 -219.075,-81.015742 L -219.075,-78.253242 C -219.075,-77.586576 -218.741667,-77.253242 -218.075,-77.253242 M -64.075,-96.3125 A 2.6000000000000014,2.6000000000000014 0.0 0,1 -69.275,-96.3125 A 2.6000000000000014,2.6000000000000014 0.0 0,1 -64.075,-96.3125 M 69.275,-96.3125 A 2.6000000000000014,2.6000000000000014 0.0 0,1 64.075,-96.3125 A 2.6000000000000014,2.6000000000000014 0.0 0,1 69.275,-96.3125 M -173.6125,-91.107402 A 2.6,2.6 0.0 0,1 -178.8125,-91.107402 A 2.6,2.6 0.0 0,1 -173.6125,-91.107402 M 178.8125,-91.107402 A 2.6,2.6 0.0 0,1 173.6125,-91.107402 A 2.6,2.6 0.0 0,1 178.8125,-91.107402" />
      <path d="M -8.865049,23.544902 L -118.402549,23.544902 A 4.812333537401727,4.812333537401727 -90.0 0,0 -120.320307,32.770937 A 133.35,63.5 0.0 0,0 -118.402549,33.169569 A 133.35,63.5 0.0 0,0 -66.015049,38.275 L -8.865049,38.275 A 7.365048999999998,7.365048999999998 180.0 0,0 -8.865049,23.544902 M -116.802549,28.307402 A 1.6000000000000012,1.6000000000000012 0.0 0,1 -120.002549,28.307402 A 1.6000000000000012,1.6000000000000012 0.0 0,1 -116.802549,28.307402 M -7.265049,33.5125 A 1.6,1.6 0.0 0,1 -10.465049,33.5125 A 1.6,1.6 0.0 0,1 -7.265049,33.5125" />
      <path d="M 118.402549,23.544902 L 8.865049,23.544902 A 7.365048999999998,7.365048999999998 0.0 0,0 8.865049,38.275 L 66.015049,38.275 A 133.35,63.5 0.0 0,0 118.402549,33.169569 A 133.35,63.5 0.0 0,0 120.320307,32.770937 A 4.812333537401727,4.812333537401727 -90.0 0,0 118.402549,23.544902 M 120.002549,28.307402 A 1.6000000000000012,1.6000000000000012 0.0 0,1 116.802549,28.307402 A 1.6000000000000012,1.6000000000000012 0.0 0,1 120.002549,28.307402 M 10.465049,33.5125 A 1.6,1.6 0.0 0,1 7.265049,33.5125 A 1.6,1.6 0.0 0,1 10.465049,33.5125" />
      <path d="M -8.865049,5.814804 L -118.402549,5.814804 A 4.812333537401727,4.812333537401727 -90.0 0,0 -120.320307,15.040839 A 133.35,63.5 0.0 0,0 -118.402549,15.439471 A 133.35,63.5 0.0 0,0 -66.015049,20.544902 L -8.865049,20.544902 A 7.365049,7.365049 180.0 0,0 -8.865049,5.814804 M -116.802549,10.577304 A 1.6000000000000012,1.6000000000000012 0.0 0,1 -120.002549,10.577304 A 1.6000000000000012,1.6000000000000012 0.0 0,1 -116.802549,10.577304 M -7.265049,15.782402 A 1.6,1.6 0.0 0,1 -10.465049,15.782402 A 1.6,1.6 0.0 0,1 -7.265049,15.782402" />
      <path d="M 118.402549,5.814804 L 8.865049,5.814804 A 7.365049,7.365049 0.0 0,0 8.865049,20.544902 L 66.015049,20.544902 A 133.35,63.5 0.0 0,0 118.402549,15.439471 A 133.35,63.5 0.0 0,0 120.320307,15.040839 A 4.812333537401727,4.812333537401727 -90.0 0,0 118.402549,5.814804 M 120.002549,10.577304 A 1.6000000000000012,1.6000000000000012 0.0 0,1 116.802549,10.577304 A 1.6000000000000012,1.6000000000000012 0.0 0,1 120.002549,10.577304 M 10.465049,15.782402 A 1.6,1.6 0.0 0,1 7.265049,15.782402 A 1.6,1.6 0.0 0,1 10.465049,15.782402" />
      <path d="M -8.865049,-11.915294 L -118.402549,-11.915294 A 4.812333537401727,4.812333537401727 -90.0 0,0 -120.320307,-2.689259 A 133.35,63.5 0.0 0,0 -118.402549,-2.290627 A 133.35,63.5 0.0 0,0 -66.015049,2.814804 L -8.865049,2.814804 A 7.365049,7.365049 180.0 0,0 -8.865049,-11.915294 M -115.802549,-7.152794 A 2.6000000000000014,2.6000000000000014 0.0 0,1 -121.002549,-7.152794 A 2.6000000000000014,2.6000000000000014 0.0 0,1 -115.802549,-7.152794 M -6.265049,-1.947696 A 2.6,2.6 0.0 0,1 -11.465049,-1.947696 A 2.6,2.6 0.0 0,1 -6.265049,-1.947696" />
      <path d="M 118.402549,-11.915294 L 8.865049,-11.915294 A 7.365049,7.365049 0.0 0,0 8.865049,2.814804 L 66.015049,2.814804 A 133.35,63.5 0.0 0,0 118.402549,-2.290627 A 133.35,63.5 0.0 0,0 120.320307,-2.689259 A 4.812333537401727,4.812333537401727 -90.0 0,0 118.402549,-11.915294 M 121.002549,-7.152794 A 2.6000000000000014,2.6000000000000014 0.0 0,1 115.802549,-7.152794 A 2.6000000000000014,2.6000000000000014 0.0 0,1 121.002549,-7.152794 M 11.465049,-1.947696 A 2.6,2.6 0.0 0,1 6.265049,-1.947696 A 2.6,2.6 0.0 0,1 11.465049,-1.947696" />
      <path d="M -8.865049,-29.645392 L -118.402549,-29.645392 A 4.812333537401727,4.812333537401727 -90.0 0,0 -120.320307,-20.419357 A 133.35,63.5 0.0 0,0 -118.402549,-20.020725 A 133.35,63.5 0.0 0,0 -66.015049,-14.915294 L -8.865049,-14.915294 A 7.365049,7.365049 180.0 0,0 -8.865049,-29.645392 M -115.802549,-24.882892 A 2.6000000000000014,2.6000000000000014 0.0 0,1 -121.002549,-24.882892 A 2.6000000000000014,2.6000000000000014 0.0 0,1 -115.802549,-24.882892 M -6.265049,-19.677794 A 2.6,2.6 0.0 0,1 -11.465049,-19.677794 A 2.6,2.6 0.0 0,1 -6.265049,-19.677794" />
      <path d="M 118.402549,-29.645392 L 8.865049,-29.645392 A 7.365049,7.365049 0.0 0,0 8.865049,-14.915294 L 66.015049,-14.915294 A 133.35,63.5 0.0 0,0 118.402549,-20.020725 A 133.35,63.5 0.0 0,0 120.320307,-20.419357 A 4.812333537401727,4.812333537401727 -90.0 0,0 118.402549,-29.645392 M 121.002549,-24.882892 A 2.6000000000000014,2.6000000000000014 0.0 0,1 115.802549,-24.882892 A 2.6000000000000014,2.6000000000000014 0.0 0,1 121.002549,-24.882892 M 11.465049,-19.677794 A 2.6,2.6 0.0 0,1 6.265049,-19.677794 A 2.6,2.6 0.0 0,1 11.465049,-19.677794" />
      <path d="M -8.865049,-47.37549 L -118.402549,-47.37549 A 4.812333537401727,4.812333537401727 -90.0 0,0 -120.320307,-38.149455 A 133.35,63.5 0.0 0,0 -118.402549,-37.750823 A 133.35,63.5 0.0 0,0 -66.015049,-32.645392 L -8.865049,-32.645392 A 7.365048999999998,7.365048999999998 180.0 0,0 -8.865049,-47.37549 M -115.802549,-42.61299 A 2.6000000000000014,2.6000000000000014 0.0 0,1 -121.002549,-42.61299 A 2.6000000000000014,2.6000000000000014 0.0 0,1 -115.802549,-42.61299 M -6.265049,-37.407892 A 2.6,2.6 0.0 0,1 -11.465049,-37.407892 A 2.6,2.6 0.0 0,1 -6.265049,-37.407892" />
      <path d="M 118.402549,-47.37549 L 8.865049,-47.37549 A 7.365048999999998,7.365048999999998 0.0 0,0 8.865049,-32.645392 L 66.015049,-32.645392 A 133.35,63.5 0.0 0,0 118.402549,-37.750823 A 133.35,63.5 0.0 0,0 120.320307,-38.149455 A 4.812333537401727,4.812333537401727 -90.0 0,0 118.402549,-47.37549 M 121.002549,-42.61299 A 2.6000000000000014,2.6000000000000014 0.0 0,1 115.802549,-42.61299 A 2.6000000000000014,2.6000000000000014 0.0 0,1 121.002549,-42.61299 M 11.465049,-37.407892 A 2.6,2.6 0.0 0,1 6.265049,-37.407892 A 2.6,2.6 0.0 0,1 11.465049,-37.407892" />
      <path d="M -165.86297,104.075 C -166.529637,104.075 -166.86297,104.408333 -166.86297,105.075 L -166.86297,106.875 C -166.86297,107.541667 -166.529637,107.875 -165.86297,107.875 L -164.86297,107.875 C -164.196303,107.875 -163.86297,108.208333 -163.86297,108.875 L -163.86297,113.575 C -163.86297,114.241667 -163.529637,114.575 -162.86297,114.575 L 162.86297,114.575 C 163.529637,114.575 163.86297,114.241667 163.86297,113.575 L 163.86297,108.875 C 163.86297,108.208333 164.196303,107.875 164.86297,107.875 L 165.86297,107.875 C 166.529637,107.875 166.86297,107.541667 166.86297,106.875 L 166.86297,105.075 C 166.86297,104.408333 166.529637,104.075 165.86297,104.075 L -165.86297,104.075" />
      <path d="M 138.875,-46.778242 L 128.075,-46.778242 A 1.0,1.0 90.0 0,0 127.075,-45.778242 L 127.075,34.078242 A 1.0,1.0 90.0 0,0 128.075,35.078242 L 138.875,35.078242 A 1.0,1.0 90.0 0,0 139.875,34.078242 L 139.875,-45.778242 A 1.0,1.0 90.0 0,0 138.875,-46.778242" />
      <path d="M -128.075,-46.778242 L -138.875,-46.778242 A 1.0,1.0 90.0 0,0 -139.875,-45.778242 L -139.875,34.078242 A 1.0,1.0 90.0 0,0 -138.875,35.078242 L -128.075,35.078242 A 1.0,1.0 90.0 0,0 -127.075,34.078242 L -127.075,-45.778242 A 1.0,1.0 90.0 0,0 -128.075,-46.778242" />
    </g>
  </g>
</svg>