<?xml version='1.0' encoding='utf-8'?>
<svg width="458.24mm" height="317.19mm" viewBox="-229.12 -158.595 458.24 317.19" version="1.1" xmlns="http://www.w3.org/2000/svg">
  <g transform="scale(1,-1)" stroke-linecap="round">
    <g fill="none" stroke="rgb(0,0,0)" stroke-width="0.09">
      <path d="M 177.181918,132.720195 A 133.35,63.5 0.0 0,0 218.173956,119.399471 C 218.77573,119.112569 219.075,118.632409 219.075,117.965742 L 219.075,115.203242 C 219.075,114.536576 218.741667,114.203242 218.075,114.203242 L 216.425,114.203242 L 216.425,115.003242 A 0.7000000000000001,0.7000000000000001 0.0 0,1 215.725,115.703242 L 213.425,115.703242 A 0.7000000000000001,0.7000000000000001 0.0 0,1 212.725,115.003242 L 212.725,114.203242 L 211.075,114.203242 C 210.408333,114.203242 210.075,114.536576 210.075,115.203242 L 210.075,115.423341 C 210.075,117.010841 209.345202,118.117115 207.871435,118.707173 C 200.337296,121.72452 192.030998,124.34661 183.181997,126.49017 C 181.639149,126.864038 180.837653,126.105603 179.789598,124.913237 A 4.7625,4.7625 0.0 0,0 171.678221,126.600788 C 171.192683,128.112214 170.760184,129.127321 169.196676,129.402275 C 154.737125,131.948564 139.28321,133.265767 123.825,133.2625 L 73.81875,133.2625 C 72.23125,133.2625 71.610733,132.345927 70.842187,130.956865 A 4.7625,4.7625 0.0 0,0 62.507812,130.956865 C 61.739267,132.345927 61.11875,133.2625 59.53125,133.2625 L -59.53125,133.2625 C -61.11875,133.2625 -61.739267,132.345927 -62.507813,130.956865 A 4.7625,4.7625 0.0 0,0 -70.842188,130.956865 C -71.610733,132.345927 -72.23125,133.2625 -73.81875,133.2625 L -123.825,133.2625 C -139.28321,133.265767 -154.737125,131.948564 -169.196676,129.402275 C -170.760184,129.127321 -171.192683,128.112214 -171.678221,126.600788 A 4.7625,4.7625 -167.64049874902997 0,0 -179.789598,124.913237 C -180.837653,126.105603 -181.639149,126.864038 -183.181997,126.49017 C -192.030998,124.34661 -200.337296,121.72452 -207.871435,118.707173 C -209.345202,118.117115 -210.075,117.010841 -210.075,115.423341 L -210.075,115.203242 C -210.075,114.536576 -210.408333,114.203242 -211.075,114.203242 L -212.725,114.203242 L -212.725,115.003242 A 0.7000000000000001,0.7000000000000001 0.0 0,1 -213.425,115.703242 L -215.725,115.703242 A 0.7000000000000001,0.7000000000000001 0.0 0,1 -216.425,115.003242 L -216.425,114.203242 L -218.075,114.203242 C -218.741667,114.203242 -219.075,114.536576 -219.075,115.203242 L -219.075,117.965742 C -219.075,118.632409 -218.77573,119.112569 -218.173956,119.399471 A 133.35,63.5 0.0 0,0 -177.181918,132.720195 A 133.35,63.5 0.0 0,0 -123.825,138.025 L 123.825,138.025 A 133.35,63.5 0.0 0,0 177.181918,132.720195 M -174.6125,128.057402 A 1.6,1.6 0.0 0,1 -177.8125,128.057402 A 1.6,1.6 0.0 0,1 -174.6125,128.057402 M 177.8125,128.057402 A 1.6,1.6 0.0 0,1 174.6125,128.057402 A 1.6,1.6 0.0 0,1 177.8125,128.057402 M -65.075,133.2625 A 1.6000000000000012,1.6000000000000012 0.0 0,1 -68.275,133.2625 A 1.6000000000000012,1.6000000000000012 0.0 0,1 -65.075,133.2625 M 68.275,133.2625 A 1.6000000000000012,1.6000000000000012 0.0 0,1 65.075,133.2625 A 1.6000000000000012,1.6000000000000012 0.0 0,1 68.275,133.2625" />
      <path d="M -218.075,-114.203242 L -216.425,-114.203242 L -216.425,-115.003242 A 0.7000000000000001,0.7000000000000001 0.0 0,1 -215.725,-115.703242 L -213.425,-115.703242 A 0.7000000000000001,0.7000000000000001 0.0 0,1 -212.725,-115.003242 L -212.725,-114.203242 L -211.075,-114.203242 C -210.408333,-114.203242 -210.075,-114.536576 -210.075,-115.203242 L -210.075,-115.423341 C -210.075,-117.010841 -209.345202,-118.117115 -207.871435,-118.707173 C -200.337296,-121.72452 -192.030998,-124.34661 -183.181997,-126.49017 C -181.639149,-126.864038 -180.837653,-126.105603 -179.789598,-124.913237 A 4.7625,4.7625 -11.145674118505378 0,0 -171.678221,-126.600788 C -171.192683,-128.112214 -170.760184,-129.127321 -169.196676,-129.402275 C -154.737125,-131.948564 -139.28321,-133.265767 -123.825,-133.2625 L -73.81875,-133.2625 C -72.23125,-133.2625 -71.610733,-132.345927 -70.842187,-130.956865 A 4.7625,4.7625 0.0 0,0 -62.507813,-130.956865 C -61.739267,-132.345927 -61.11875,-133.2625 -59.53125,-133.2625 L 59.53125,-133.2625 C 61.11875,-133.2625 61.739267,-132.345927 62.507813,-130.956865 A 4.7625,4.7625 0.0 0,0 70.842187,-130.956865 C 71.610733,-132.345927 72.23125,-133.2625 73.81875,-133.2625 L 123.825,-133.2625 C 139.28321,-133.265767 154.737125,-131.948564 169.196676,-129.402275 C 170.760184,-129.127321 171.192683,-128.112214 171.678221,-126.600788 A 4.7625,4.7625 0.0 0,0 179.789598,-124.913237 C 180.837653,-126.105603 181.639149,-126.864038 183.181997,-126.49017 C 192.030998,-124.34661 200.337296,-121.72452 207.871435,-118.707173 C 209.345202,-118.117115 210.075,-117.010841 210.075,-115.423341 L 210.075,-115.203242 C 210.075,-114.536576 210.408333,-114.203242 211.075,-114.203242 L 212.725,-114.203242 L 212.725,-115.003242 A 0.7000000000000001,0.7000000000000001 0.0 0,1 213.425,-115.703242 L 215.725,-115.703242 A 0.7000000000000001,0.7000000000000001 0.0 0,1 216.425,-115.003242 L 216.425,-114.203242 L 218.075,-114.203242 C 218.741667,-114.203242 219.075,-114.536576 219.075,-115.203242 L 219.075,-117.965742 C 219.075,-118.632409 218.77573,-119.112569 218.173956,-119.399471 A 133.35,63.5 0.0 0,0 177.181918,-132.720195 A 133.35,63.5 0.0 0,0 123.825,-138.025 L -123.825,-138.025 A 133.35,63.5 0.0 0,0 -177.181918,-132.720195 A 133.35,63.5 0.0 0,0 -218.173956,-119.399471 C -218.77573,-119.112569 -219.075,-118.632409 -219.075,-117.965742 L -219.075,-115.203242 C -219.075,-114.536576 -218.741667,-114.203242 -218.075,-114.203242 M -65.075,-133.2625 A 1.6000000000000012,1.6000000000000012 0.0 0,1 -68.275,-133.2625 A 1.6000000000000012,1.6000000000000012 0.0 0,1 -65.075,-133.2625 M 68.275,-133.2625 A 1.6000000000000012,1.6000000000000012 0.0 0,1 65.075,-133.2625 A 1.6000000000000012,1.6000000000000012 0.0 0,1 68.275,-133.2625 M -174.6125,-128.057402 A 1.6,1.6 0.0 0,1 -177.8125,-128.057402 A 1.6,1.6 0.0 0,1 -174.6125,-128.057402 M 177.8125,-128.057402 A 1.6,1.6 0.0 0,1 174.6125,-128.057402 A 1.6,1.6 0.0 0,1 177.8125,-128.057402" />
      <path d="M -123.825,127.5 L 123.825,127.5 A 133.35,63.5 0.0 0,0 218.173956,108.874471 C 218.77573,108.587569 219.075,108.107409 219.075,107.440742 L 219.075,104.678242 C 219.075,104.011576 218.741667,103.678242 218.075,103.678242 L 216.425,103.678242 L 216.425,104.478242 A 0.7000000000000001,0.7000000000000001 0.0 0,1 215.725,105.178242 L 213.425,105.178242 A 0.7000000000000001,0.7000000000000001 0.0 0,1 212.725,104.478242 L 212.725,103.678242 L 208.3125,103.678242 C 207.645833,103.678242 207.3125,103.344909 207.3125,102.678242 L 207.3125,25.321758 C 207.3125,24.655091 207.645833,24.321758 208.3125,24.321758 L 212.725,24.321758 L 212.725,23.521758 A 0.7000000000000001,0.7000000000000001 0.0 0,1 213.425,22.821758 L 215.725,22.821758 A 0.7000000000000001,0.7000000000000001 0.0 0,1 216.425,23.521758 L 216.425,24.321758 L 218.075,24.321758 C 218.741667,24.321758 219.075,23.988424 219.075,23.321758 L 219.075,20.559258 C 219.075,19.892591 218.77573,19.412431 218.173956,19.125529 A 133.35,63.5 0.0 0,0 123.825,0.5 L -123.825,0.5 A 133.35,63.5 0.0 0,0 -218.173956,19.125529 C -218.77573,19.412431 -219.075,19.892591 -219.075,20.559258 L -219.075,23.321758 C -219.075,23.988424 -218.741667,24.321758 -218.075,24.321758 L -216.425,24.321758 L -216.425,23.521758 A 0.7000000000000001,0.7000000000000001 0.0 0,1 -215.725,22.821758 L -213.425,22.821758 A 0.7000000000000001,0.7000000000000001 0.0 0,1 -212.725,23.521758 L -212.725,24.321758 L -208.3125,24.321758 C -207.645833,24.321758 -207.3125,24.655091 -207.3125,25.321758 L -207.3125,102.678242 C -207.3125,103.344909 -207.645833,103.678242 -208.3125,103.678242 L -212.725,103.678242 L -212.725,104.478242 A 0.7000000000000001,0.7000000000000001 0.0 0,1 -213.425,105.178242 L -215.725,105.178242 A 0.7000000000000001,0.7000000000000001 0.0 0,1 -216.425,104.478242 L -216.425,103.678242 L -218.075,103.678242 C -218.741667,103.678242 -219.075,104.011576 -219.075,104.678242 L -219.075,107.440742 C -219.075,108.107409 -218.77573,108.587569 -218.173956,108.874471 A 133.35,63.5 0.0 0,0 -123.825,127.5 M -174.6125,10.467598 A 1.6,1.6 0.0 0,1 -177.8125,10.467598 A 1.6,1.6 0.0 0,1 -174.6125,10.467598 M -202.2625,22.325 A 0.25,0.25 0.0 0,1 -202.0125,22.075 L -188.5125,22.075 A 0.25,0.25 0.0 0,1 -188.2625,22.325 L -188.2625,35.825 A 0.25,0.25 0.0 0,1 -188.5125,36.075 L -202.0125,36.075 A 0.25,0.25 0.0 0,1 -202.2625,35.825 L -202.2625,22.325 M -183.2125,22.325 A 0.25,0.25 0.0 0,1 -182.9625,22.075 L -169.4625,22.075 A 0.25,0.25 0.0 0,1 -169.2125,22.325 L -169.2125,35.825 A 0.25,0.25 0.0 0,1 -169.4625,36.075 L -182.9625,36.075 A 0.25,0.25 0.0 0,1 -183.2125,35.825 L -183.2125,22.325 M -164.1625,22.325 A 0.25,0.25 0.0 0,1 -163.9125,22.075 L -150.4125,22.075 A 0.25,0.25 0.0 0,1 -150.1625,22.325 L -150.1625,35.825 A 0.25,0.25 0.0 0,1 -150.4125,36.075 L -163.9125,36.075 A 0.25,0.25 0.0 0,1 -164.1625,35.825 L -164.1625,22.325 M -137.96875,12.8 A 0.25,0.25 0.0 0,1 -137.71875,12.55 L -124.21875,12.55 A 0.25,0.25 0.0 0,1 -123.96875,12.8 L -123.96875,26.3 A 0.25,0.25 0.0 0,1 -124.21875,26.55 L -137.71875,26.55 A 0.25,0.25 0.0 0,1 -137.96875,26.3 L -137.96875,12.8 M -114.15625,12.8 A 0.25,0.25 0.0 0,1 -113.90625,12.55 L -100.40625,12.55 A 0.25,0.25 0.0 0,1 -100.15625,12.8 L -100.15625,26.3 A 0.25,0.25 0.0 0,1 -100.40625,26.55 L -113.90625,26.55 A 0.25,0.25 0.0 0,1 -114.15625,26.3 L -114.15625,12.8 M -65.075,5.2625 A 1.6000000000000012,1.6000000000000012 0.0 0,1 -68.275,5.2625 A 1.6000000000000012,1.6000000000000012 0.0 0,1 -65.075,5.2625 M -87.9625,12.8 A 0.25,0.25 0.0 0,1 -87.7125,12.55 L -74.2125,12.55 A 0.25,0.25 0.0 0,1 -73.9625,12.8 L -73.9625,26.3 A 0.25,0.25 0.0 0,1 -74.2125,26.55 L -87.7125,26.55 A 0.25,0.25 0.0 0,1 -87.9625,26.3 L -87.9625,12.8 M -60.65,13.55 A 2.0,2.0 0.0 0,1 -58.65,11.55 L -55.65,11.55 A 2.0,2.0 0.0 0,1 -53.65,13.55 L -53.65,25.55 A 2.0,2.0 0.0 0,1 -55.65,27.55 L -58.65,27.55 A 2.0,2.0 0.0 0,1 -60.65,25.55 L -60.65,13.55 M -202.2625,41.375 A 0.25,0.25 0.0 0,1 -202.0125,41.125 L -188.5125,41.125 A 0.25,0.25 0.0 0,1 -188.2625,41.375 L -188.2625,54.875 A 0.25,0.25 0.0 0,1 -188.5125,55.125 L -202.0125,55.125 A 0.25,0.25 0.0 0,1 -202.2625,54.875 L -202.2625,41.375 M -183.2125,41.375 A 0.25,0.25 0.0 0,1 -182.9625,41.125 L -169.4625,41.125 A 0.25,0.25 0.0 0,1 -169.2125,41.375 L -169.2125,54.875 A 0.25,0.25 0.0 0,1 -169.4625,55.125 L -182.9625,55.125 A 0.25,0.25 0.0 0,1 -183.2125,54.875 L -183.2125,41.375 M -164.1625,41.375 A 0.25,0.25 0.0 0,1 -163.9125,41.125 L -150.4125,41.125 A 0.25,0.25 0.0 0,1 -150.1625,41.375 L -150.1625,54.875 A 0.25,0.25 0.0 0,1 -150.4125,55.125 L -163.9125,55.125 A 0.25,0.25 0.0 0,1 -164.1625,54.875 L -164.1625,41.375 M -136.85,32.6 A 2.0,2.0 0.0 0,1 -134.85,30.6 L -131.85,30.6 A 2.0,2.0 0.0 0,1 -129.85,32.6 L -129.85,44.6 A 2.0,2.0 0.0 0,1 -131.85,46.6 L -134.85,46.6 A 2.0,2.0 0.0 0,1 -136.85,44.6 L -136.85,32.6 M -128.44375,31.85 A 0.25,0.25 0.0 0,1 -128.19375,31.6 L -114.69375,31.6 A 0.25,0.25 0.0 0,1 -114.44375,31.85 L -114.44375,45.35 A 0.25,0.25 0.0 0,1 -114.69375,45.6 L -128.19375,45.6 A 0.25,0.25 0.0 0,1 -128.44375,45.35 L -128.44375,31.85 M -113.0375,32.6 A 2.0,2.0 0.0 0,1 -111.0375,30.6 L -108.0375,30.6 A 2.0,2.0 0.0 0,1 -106.0375,32.6 L -106.0375,44.6 A 2.0,2.0 0.0 0,1 -108.0375,46.6 L -111.0375,46.6 A 2.0,2.0 0.0 0,1 -113.0375,44.6 L -113.0375,32.6 M -133.20625,50.9 A 0.25,0.25 0.0 0,1 -132.95625,50.65 L -119.45625,50.65 A 0.25,0.25 0.0 0,1 -119.20625,50.9 L -119.20625,64.4 A 0.25,0.25 0.0 0,1 -119.45625,64.65 L -132.95625,64.65 A 0.25,0.25 0.0 0,1 -133.20625,64.4 L -133.20625,50.9 M -97.4875,31.85 A 0.25,0.25 0.0 0,1 -97.2375,31.6 L -83.7375,31.6 A 0.25,0.25 0.0 0,1 -83.4875,31.85 L -83.4875,45.35 A 0.25,0.25 0.0 0,1 -83.7375,45.6 L -97.2375,45.6 A 0.25,0.25 0.0 0,1 -97.4875,45.35 L -97.4875,31.85 M -78.4375,31.85 A 0.25,0.25 0.0 0,1 -78.1875,31.6 L -64.6875,31.6 A 0.25,0.25 0.0 0,1 -64.4375,31.85 L -64.4375,45.35 A 0.25,0.25 0.0 0,1 -64.6875,45.6 L -78.1875,45.6 A 0.25,0.25 0.0 0,1 -78.4375,45.35 L -78.4375,31.85 M -59.3875,31.85 A 0.25,0.25 0.0 0,1 -59.1375,31.6 L -45.6375,31.6 A 0.25,0.25 0.0 0,1 -45.3875,31.85 L -45.3875,45.35 A 0.25,0.25 0.0 0,1 -45.6375,45.6 L -59.1375,45.6 A 0.25,0.25 0.0 0,1 -59.3875,45.35 L -59.3875,31.85 M -40.3375,31.85 A 0.25,0.25 0.0 0,1 -40.0875,31.6 L -26.5875,31.6 A 0.25,0.25 0.0 0,1 -26.3375,31.85 L -26.3375,45.35 A 0.25,0.25 0.0 0,1 -26.5875,45.6 L -40.0875,45.6 A 0.25,0.25 0.0 0,1 -40.3375,45.35 L -40.3375,31.85 M -21.2875,31.85 A 0.25,0.25 0.0 0,1 -21.0375,31.6 L -7.5375,31.6 A 0.25,0.25 0.0 0,1 -7.2875,31.85 L -7.2875,45.35 A 0.25,0.25 0.0 0,1 -7.5375,45.6 L -21.0375,45.6 A 0.25,0.25 0.0 0,1 -21.2875,45.35 L -21.2875,31.85 M -107.0125,50.9 A 0.25,0.25 0.0 0,1 -106.7625,50.65 L -93.2625,50.65 A 0.25,0.25 0.0 0,1 -93.0125,50.9 L -93.0125,64.4 A 0.25,0.25 0.0 0,1 -93.2625,64.65 L -106.7625,64.65 A 0.25,0.25 0.0 0,1 -107.0125,64.4 L -107.0125,50.9 M -87.9625,50.9 A 0.25,0.25 0.0 0,1 -87.7125,50.65 L -74.2125,50.65 A 0.25,0.25 0.0 0,1 -73.9625,50.9 L -73.9625,64.4 A 0.25,0.25 0.0 0,1 -74.2125,64.65 L -87.7125,64.65 A 0.25,0.25 0.0 0,1 -87.9625,64.4 L -87.9625,50.9 M -68.9125,50.9 A 0.25,0.25 0.0 0,1 -68.6625,50.65 L -55.1625,50.65 A 0.25,0.25 0.0 0,1 -54.9125,50.9 L -54.9125,64.4 A 0.25,0.25 0.0 0,1 -55.1625,64.65 L -68.6625,64.65 A 0.25,0.25 0.0 0,1 -68.9125,64.4 L -68.9125,50.9 M -49.8625,50.9 A 0.25,0.25 0.0 0,1 -49.6125,50.65 L -36.1125,50.65 A 0.25,0.25 0.0 0,1 -35.8625,50.9 L -35.8625,64.4 A 0.25,0.25 0.0 0,1 -36.1125,64.65 L -49.6125,64.65 A 0.25,0.25 0.0 0,1 -49.8625,64.4 L -49.8625,50.9 M -30.8125,50.9 A 0.25,0.25 0.0 0,1 -30.5625,50.65 L -17.0625,50.65 A 0.25,0.25 0.0 0,1 -16.8125,50.9 L -16.8125,64.4 A 0.25,0.25 0.0 0,1 -17.0625,64.65 L -30.5625,64.65 A 0.25,0.25 0.0 0,1 -30.8125,64.4 L -30.8125,50.9 M -11.7625,50.9 A 0.25,0.25 0.0 0,1 -11.5125,50.65 L 1.9875,50.65 A 0.25,0.25 0.0 0,1 2.2375,50.9 L 2.2375,64.4 A 0.25,0.25 0.0 0,1 1.9875,64.65 L -11.5125,64.65 A 0.25,0.25 0.0 0,1 -11.7625,64.4 L -11.7625,50.9 M 68.275,5.2625 A 1.6000000000000012,1.6000000000000012 0.0 0,1 65.075,5.2625 A 1.6000000000000012,1.6000000000000012 0.0 0,1 68.275,5.2625 M -7.0,12.8 A 0.25,0.25 0.0 0,1 -6.75,12.55 L 6.75,12.55 A 0.25,0.25 0.0 0,1 7.0,12.8 L 7.0,26.3 A 0.25,0.25 0.0 0,1 6.75,26.55 L -6.75,26.55 A 0.25,0.25 0.0 0,1 -7.0,26.3 L -7.0,12.8 M 53.65,13.55 A 2.0,2.0 0.0 0,1 55.65,11.55 L 58.65,11.55 A 2.0,2.0 0.0 0,1 60.65,13.55 L 60.65,25.55 A 2.0,2.0 0.0 0,1 58.65,27.55 L 55.65,27.55 A 2.0,2.0 0.0 0,1 53.65,25.55 L 53.65,13.55 M 73.9625,12.8 A 0.25,0.25 0.0 0,1 74.2125,12.55 L 87.7125,12.55 A 0.25,0.25 0.0 0,1 87.9625,12.8 L 87.9625,26.3 A 0.25,0.25 0.0 0,1 87.7125,26.55 L 74.2125,26.55 A 0.25,0.25 0.0 0,1 73.9625,26.3 L 73.9625,12.8 M 177.8125,10.467598 A 1.6,1.6 0.0 0,1 174.6125,10.467598 A 1.6,1.6 0.0 0,1 177.8125,10.467598 M 100.15625,12.8 A 0.25,0.25 0.0 0,1 100.40625,12.55 L 113.90625,12.55 A 0.25,0.25 0.0 0,1 114.15625,12.8 L 114.15625,26.3 A 0.25,0.25 0.0 0,1 113.90625,26.55 L 100.40625,26.55 A 0.25,0.25 0.0 0,1 100.15625,26.3 L 100.15625,12.8 M 123.96875,12.8 A 0.25,0.25 0.0 0,1 124.21875,12.55 L 137.71875,12.55 A 0.25,0.25 0.0 0,1 137.96875,12.8 L 137.96875,26.3 A 0.25,0.25 0.0 0,1 137.71875,26.55 L 124.21875,26.55 A 0.25,0.25 0.0 0,1 123.96875,26.3 L 123.96875,12.8 M 150.1625,22.325 A 0.25,0.25 0.0 0,1 150.4125,22.075 L 163.9125,22.075 A 0.25,0.25 0.0 0,1 164.1625,22.325 L 164.1625,35.825 A 0.25,0.25 0.0 0,1 163.9125,36.075 L 150.4125,36.075 A 0.25,0.25 0.0 0,1 150.1625,35.825 L 150.1625,22.325 M 169.2125,22.325 A 0.25,0.25 0.0 0,1 169.4625,22.075 L 182.9625,22.075 A 0.25,0.25 0.0 0,1 183.2125,22.325 L 183.2125,35.825 A 0.25,0.25 0.0 0,1 182.9625,36.075 L 169.4625,36.075 A 0.25,0.25 0.0 0,1 169.2125,35.825 L 169.2125,22.325 M 188.2625,22.325 A 0.25,0.25 0.0 0,1 188.5125,22.075 L 202.0125,22.075 A 0.25,0.25 0.0 0,1 202.2625,22.325 L 202.2625,35.825 A 0.25,0.25 0.0 0,1 202.0125,36.075 L 188.5125,36.075 A 0.25,0.25 0.0 0,1 188.2625,35.825 L 188.2625,22.325 M -2.2375,31.85 A 0.25,0.25 0.0 0,1 -1.9875,31.6 L 11.5125,31.6 A 0.25,0.25 0.0 0,1 11.7625,31.85 L 11.7625,45.35 A 0.25,0.25 0.0 0,1 11.5125,45.6 L -1.9875,45.6 A 0.25,0.25 0.0 0,1 -2.2375,45.35 L -2.2375,31.85 M 16.8125,31.85 A 0.25,0.25 0.0 0,1 17.0625,31.6 L 30.5625,31.6 A 0.25,0.25 0.0 0,1 30.8125,31.85 L 30.8125,45.35 A 0.25,0.25 0.0 0,1 30.5625,45.6 L 17.0625,45.6 A 0.25,0.25 0.0 0,1 16.8125,45.35 L 16.8125,31.85 M 35.8625,31.85 A 0.25,0.25 0.0 0,1 36.1125,31.6 L 49.6125,31.6 A 0.25,0.25 0.0 0,1 49.8625,31.85 L 49.8625,45.35 A 0.25,0.25 0.0 0,1 49.6125,45.6 L 36.1125,45.6 A 0.25,0.25 0.0 0,1 35.8625,45.35 L 35.8625,31.85 M 54.9125,31.85 A 0.25,0.25 0.0 0,1 55.1625,31.6 L 68.6625,31.6 A 0.25,0.25 0.0 0,1 68.9125,31.85 L 68.9125,45.35 A 0.25,0.25 0.0 0,1 68.6625,45.6 L 55.1625,45.6 A 0.25,0.25 0.0 0,1 54.9125,45.35 L 54.9125,31.85 M 73.9625,31.85 A 0.25,0.25 0.0 0,1 74.2125,31.6 L 87.7125,31.6 A 0.25,0.25 0.0 0,1 87.9625,31.85 L 87.9625,45.35 A 0.25,0.25 0.0 0,1 87.7125,45.6 L 74.2125,45.6 A 0.25,0.25 0.0 0,1 73.9625,45.35 L 73.9625,31.85 M 7.2875,50.9 A 0.25,0.25 0.0 0,1 7.5375,50.65 L 21.0375,50.65 A 0.25,0.25 0.0 0,1 21.2875,50.9 L 21.2875,64.4 A 0.25,0.25 0.0 0,1 21.0375,64.65 L 7.5375,64.65 A 0.25,0.25 0.0 0,1 7.2875,64.4 L 7.2875,50.9 M 26.3375,50.9 A 0.25,0.25 0.0 0,1 26.5875,50.65 L 40.0875,50.65 A 0.25,0.25 0.0 0,1 40.3375,50.9 L 40.3375,64.4 A 0.25,0.25 0.0 0,1 40.0875,64.65 L 26.5875,64.65 A 0.25,0.25 0.0 0,1 26.3375,64.4 L 26.3375,50.9 M 45.3875,50.9 A 0.25,0.25 0.0 0,1 45.6375,50.65 L 59.1375,50.65 A 0.25,0.25 0.0 0,1 59.3875,50.9 L 59.3875,64.4 A 0.25,0.25 0.0 0,1 59.1375,64.65 L 45.6375,64.65 A 0.25,0.25 0.0 0,1 45.3875,64.4 L 45.3875,50.9 M 64.4375,50.9 A 0.25,0.25 0.0 0,1 64.6875,50.65 L 78.1875,50.65 A 0.25,0.25 0.0 0,1 78.4375,50.9 L 78.4375,64.4 A 0.25,0.25 0.0 0,1 78.1875,64.65 L 64.6875,64.65 A 0.25,0.25 0.0 0,1 64.4375,64.4 L 64.4375,50.9 M 83.4875,50.9 A 0.25,0.25 0.0 0,1 83.7375,50.65 L 97.2375,50.65 A 0.25,0.25 0.0 0,1 97.4875,50.9 L 97.4875,64.4 A 0.25,0.25 0.0 0,1 97.2375,64.65 L 83.7375,64.65 A 0.25,0.25 0.0 0,1 83.4875,64.4 L 83.4875,50.9 M 100.15625,31.85 A 0.25,0.25 0.0 0,1 100.40625,31.6 L 113.90625,31.6 A 0.25,0.25 0.0 0,1 114.15625,31.85 L 114.15625,45.35 A 0.25,0.25 0.0 0,1 113.90625,45.6 L 100.40625,45.6 A 0.25,0.25 0.0 0,1 100.15625,45.35 L 100.15625,31.85 M 126.35,31.85 A 0.25,0.25 0.0 0,1 126.6,31.6 L 140.1,31.6 A 0.25,0.25 0.0 0,1 140.35,31.85 L 140.35,45.35 A 0.25,0.25 0.0 0,1 140.1,45.6 L 126.6,45.6 A 0.25,0.25 0.0 0,1 126.35,45.35 L 126.35,31.85 M 150.1625,41.375 A 0.25,0.25 0.0 0,1 150.4125,41.125 L 163.9125,41.125 A 0.25,0.25 0.0 0,1 164.1625,41.375 L 164.1625,54.875 A 0.25,0.25 0.0 0,1 163.9125,55.125 L 150.4125,55.125 A 0.25,0.25 0.0 0,1 150.1625,54.875 L 150.1625,41.375 M 169.2125,41.375 A 0.25,0.25 0.0 0,1 169.4625,41.125 L 182.9625,41.125 A 0.25,0.25 0.0 0,1 183.2125,41.375 L 183.2125,54.875 A 0.25,0.25 0.0 0,1 182.9625,55.125 L 169.4625,55.125 A 0.25,0.25 0.0 0,1 169.2125,54.875 L 169.2125,41.375 M 188.2625,41.375 A 0.25,0.25 0.0 0,1 188.5125,41.125 L 202.0125,41.125 A 0.25,0.25 0.0 0,1 202.2625,41.375 L 202.2625,54.875 A 0.25,0.25 0.0 0,1 202.0125,55.125 L 188.5125,55.125 A 0.25,0.25 0.0 0,1 188.2625,54.875 L 188.2625,41.375 M 106.0375,51.65 A 2.0,2.0 0.0 0,1 108.0375,49.65 L 111.0375,49.65 A 2.0,2.0 0.0 0,1 113.0375,51.65 L 113.0375,63.65 A 2.0,2.0 0.0 0,1 111.0375,65.65 L 108.0375,65.65 A 2.0,2.0 0.0 0,1 106.0375,63.65 L 106.0375,51.65 M 114.44375,50.9 A 0.25,0.25 0.0 0,1 114.69375,50.65 L 128.19375,50.65 A 0.25,0.25 0.0 0,1 128.44375,50.9 L 128.44375,64.4 A 0.25,0.25 0.0 0,1 128.19375,64.65 L 114.69375,64.65 A 0.25,0.25 0.0 0,1 114.44375,64.4 L 114.44375,50.9 M 129.85,51.65 A 2.0,2.0 0.0 0,1 131.85,49.65 L 134.85,49.65 A 2.0,2.0 0.0 0,1 136.85,51.65 L 136.85,63.65 A 2.0,2.0 0.0 0,1 134.85,65.65 L 131.85,65.65 A 2.0,2.0 0.0 0,1 129.85,63.65 L 129.85,51.65 M -202.2625,65.1875 A 0.25,0.25 0.0 0,1 -202.0125,64.9375 L -188.5125,64.9375 A 0.25,0.25 0.0 0,1 -188.2625,65.1875 L -188.2625,78.6875 A 0.25,0.25 0.0 0,1 -188.5125,78.9375 L -202.0125,78.9375 A 0.25,0.25 0.0 0,1 -202.2625,78.6875 L -202.2625,65.1875 M -183.2125,65.1875 A 0.25,0.25 0.0 0,1 -182.9625,64.9375 L -169.4625,64.9375 A 0.25,0.25 0.0 0,1 -169.2125,65.1875 L -169.2125,78.6875 A 0.25,0.25 0.0 0,1 -169.4625,78.9375 L -182.9625,78.9375 A 0.25,0.25 0.0 0,1 -183.2125,78.6875 L -183.2125,65.1875 M -164.1625,65.1875 A 0.25,0.25 0.0 0,1 -163.9125,64.9375 L -150.4125,64.9375 A 0.25,0.25 0.0 0,1 -150.1625,65.1875 L -150.1625,78.6875 A 0.25,0.25 0.0 0,1 -150.4125,78.9375 L -163.9125,78.9375 A 0.25,0.25 0.0 0,1 -164.1625,78.6875 L -164.1625,65.1875 M -135.5875,69.95 A 0.25,0.25 0.0 0,1 -135.3375,69.7 L -121.8375,69.7 A 0.25,0.25 0.0 0,1 -121.5875,69.95 L -121.5875,83.45 A 0.25,0.25 0.0 0,1 -121.8375,83.7 L -135.3375,83.7 A 0.25,0.25 0.0 0,1 -135.5875,83.45 L -135.5875,69.95 M -111.775,69.95 A 0.25,0.25 0.0 0,1 -111.525,69.7 L -98.025,69.7 A 0.25,0.25 0.0 0,1 -97.775,69.95 L -97.775,83.45 A 0.25,0.25 0.0 0,1 -98.025,83.7 L -111.525,83.7 A 0.25,0.25 0.0 0,1 -111.775,83.45 L -111.775,69.95 M -202.2625,84.2375 A 0.25,0.25 0.0 0,1 -202.0125,83.9875 L -188.5125,83.9875 A 0.25,0.25 0.0 0,1 -188.2625,84.2375 L -188.2625,97.7375 A 0.25,0.25 0.0 0,1 -188.5125,97.9875 L -202.0125,97.9875 A 0.25,0.25 0.0 0,1 -202.2625,97.7375 L -202.2625,84.2375 M -183.2125,84.2375 A 0.25,0.25 0.0 0,1 -182.9625,83.9875 L -169.4625,83.9875 A 0.25,0.25 0.0 0,1 -169.2125,84.2375 L -169.2125,97.7375 A 0.25,0.25 0.0 0,1 -169.4625,97.9875 L -182.9625,97.9875 A 0.25,0.25 0.0 0,1 -183.2125,97.7375 L -183.2125,84.2375 M -164.1625,84.2375 A 0.25,0.25 0.0 0,1 -163.9125,83.9875 L -150.4125,83.9875 A 0.25,0.25 0.0 0,1 -150.1625,84.2375 L -150.1625,97.7375 A 0.25,0.25 0.0 0,1 -150.4125,97.9875 L -163.9125,97.9875 A 0.25,0.25 0.0 0,1 -164.1625,97.7375 L -164.1625,84.2375 M -92.725,69.95 A 0.25,0.25 0.0 0,1 -92.475,69.7 L -78.975,69.7 A 0.25,0.25 0.0 0,1 -78.725,69.95 L -78.725,83.45 A 0.25,0.25 0.0 0,1 -78.975,83.7 L -92.475,83.7 A 0.25,0.25 0.0 0,1 -92.725,83.45 L -92.725,69.95 M -73.675,69.95 A 0.25,0.25 0.0 0,1 -73.425,69.7 L -59.925,69.7 A 0.25,0.25 0.0 0,1 -59.675,69.95 L -59.675,83.45 A 0.25,0.25 0.0 0,1 -59.925,83.7 L -73.425,83.7 A 0.25,0.25 0.0 0,1 -73.675,83.45 L -73.675,69.95 M -54.625,69.95 A 0.25,0.25 0.0 0,1 -54.375,69.7 L -40.875,69.7 A 0.25,0.25 0.0 0,1 -40.625,69.95 L -40.625,83.45 A 0.25,0.25 0.0 0,1 -40.875,83.7 L -54.375,83.7 A 0.25,0.25 0.0 0,1 -54.625,83.45 L -54.625,69.95 M -35.575,69.95 A 0.25,0.25 0.0 0,1 -35.325,69.7 L -21.825,69.7 A 0.25,0.25 0.0 0,1 -21.575,69.95 L -21.575,83.45 A 0.25,0.25 0.0 0,1 -21.825,83.7 L -35.325,83.7 A 0.25,0.25 0.0 0,1 -35.575,83.45 L -35.575,69.95 M -16.525,69.95 A 0.25,0.25 0.0 0,1 -16.275,69.7 L -2.775,69.7 A 0.25,0.25 0.0 0,1 -2.525,69.95 L -2.525,83.45 A 0.25,0.25 0.0 0,1 -2.775,83.7 L -16.275,83.7 A 0.25,0.25 0.0 0,1 -16.525,83.45 L -16.525,69.95 M -140.35,89.0 A 0.25,0.25 0.0 0,1 -140.1,88.75 L -126.6,88.75 A 0.25,0.25 0.0 0,1 -126.35,89.0 L -126.35,102.5 A 0.25,0.25 0.0 0,1 -126.6,102.75 L -140.1,102.75 A 0.25,0.25 0.0 0,1 -140.35,102.5 L -140.35,89.0 M -121.3,89.0 A 0.25,0.25 0.0 0,1 -121.05,88.75 L -107.55,88.75 A 0.25,0.25 0.0 0,1 -107.3,89.0 L -107.3,102.5 A 0.25,0.25 0.0 0,1 -107.55,102.75 L -121.05,102.75 A 0.25,0.25 0.0 0,1 -121.3,102.5 L -121.3,89.0 M -174.6125,117.532402 A 1.6,1.6 0.0 0,1 -177.8125,117.532402 A 1.6,1.6 0.0 0,1 -174.6125,117.532402 M -102.25,89.0 A 0.25,0.25 0.0 0,1 -102.0,88.75 L -88.5,88.75 A 0.25,0.25 0.0 0,1 -88.25,89.0 L -88.25,102.5 A 0.25,0.25 0.0 0,1 -88.5,102.75 L -102.0,102.75 A 0.25,0.25 0.0 0,1 -102.25,102.5 L -102.25,89.0 M -83.2,89.0 A 0.25,0.25 0.0 0,1 -82.95,88.75 L -69.45,88.75 A 0.25,0.25 0.0 0,1 -69.2,89.0 L -69.2,102.5 A 0.25,0.25 0.0 0,1 -69.45,102.75 L -82.95,102.75 A 0.25,0.25 0.0 0,1 -83.2,102.5 L -83.2,89.0 M -64.15,89.0 A 0.25,0.25 0.0 0,1 -63.9,88.75 L -50.4,88.75 A 0.25,0.25 0.0 0,1 -50.15,89.0 L -50.15,102.5 A 0.25,0.25 0.0 0,1 -50.4,102.75 L -63.9,102.75 A 0.25,0.25 0.0 0,1 -64.15,102.5 L -64.15,89.0 M -45.1,89.0 A 0.25,0.25 0.0 0,1 -44.85,88.75 L -31.35,88.75 A 0.25,0.25 0.0 0,1 -31.1,89.0 L -31.1,102.5 A 0.25,0.25 0.0 0,1 -31.35,102.75 L -44.85,102.75 A 0.25,0.25 0.0 0,1 -45.1,102.5 L -45.1,89.0 M -26.05,89.0 A 0.25,0.25 0.0 0,1 -25.8,88.75 L -12.3,88.75 A 0.25,0.25 0.0 0,1 -12.05,89.0 L -12.05,102.5 A 0.25,0.25 0.0 0,1 -12.3,102.75 L -25.8,102.75 A 0.25,0.25 0.0 0,1 -26.05,102.5 L -26.05,89.0 M -65.075,122.7375 A 1.6000000000000012,1.6000000000000012 0.0 0,1 -68.275,122.7375 A 1.6000000000000012,1.6000000000000012 0.0 0,1 -65.075,122.7375 M 2.525,69.95 A 0.25,0.25 0.0 0,1 2.775,69.7 L 16.275,69.7 A 0.25,0.25 0.0 0,1 16.525,69.95 L 16.525,83.45 A 0.25,0.25 0.0 0,1 16.275,83.7 L 2.775,83.7 A 0.25,0.25 0.0 0,1 2.525,83.45 L 2.525,69.95 M 21.575,69.95 A 0.25,0.25 0.0 0,1 21.825,69.7 L 35.325,69.7 A 0.25,0.25 0.0 0,1 35.575,69.95 L 35.575,83.45 A 0.25,0.25 0.0 0,1 35.325,83.7 L 21.825,83.7 A 0.25,0.25 0.0 0,1 21.575,83.45 L 21.575,69.95 M 40.625,69.95 A 0.25,0.25 0.0 0,1 40.875,69.7 L 54.375,69.7 A 0.25,0.25 0.0 0,1 54.625,69.95 L 54.625,83.45 A 0.25,0.25 0.0 0,1 54.375,83.7 L 40.875,83.7 A 0.25,0.25 0.0 0,1 40.625,83.45 L 40.625,69.95 M 59.675,69.95 A 0.25,0.25 0.0 0,1 59.925,69.7 L 73.425,69.7 A 0.25,0.25 0.0 0,1 73.675,69.95 L 73.675,83.45 A 0.25,0.25 0.0 0,1 73.425,83.7 L 59.925,83.7 A 0.25,0.25 0.0 0,1 59.675,83.45 L 59.675,69.95 M 78.725,69.95 A 0.25,0.25 0.0 0,1 78.975,69.7 L 92.475,69.7 A 0.25,0.25 0.0 0,1 92.725,69.95 L 92.725,83.45 A 0.25,0.25 0.0 0,1 92.475,83.7 L 78.975,83.7 A 0.25,0.25 0.0 0,1 78.725,83.45 L 78.725,69.95 M 97.775,69.95 A 0.25,0.25 0.0 0,1 98.025,69.7 L 111.525,69.7 A 0.25,0.25 0.0 0,1 111.775,69.95 L 111.775,83.45 A 0.25,0.25 0.0 0,1 111.525,83.7 L 98.025,83.7 A 0.25,0.25 0.0 0,1 97.775,83.45 L 97.775,69.95 M 121.5875,69.95 A 0.25,0.25 0.0 0,1 121.8375,69.7 L 135.3375,69.7 A 0.25,0.25 0.0 0,1 135.5875,69.95 L 135.5875,83.45 A 0.25,0.25 0.0 0,1 135.3375,83.7 L 121.8375,83.7 A 0.25,0.25 0.0 0,1 121.5875,83.45 L 121.5875,69.95 M 150.1625,65.1875 A 0.25,0.25 0.0 0,1 150.4125,64.9375 L 163.9125,64.9375 A 0.25,0.25 0.0 0,1 164.1625,65.1875 L 164.1625,78.6875 A 0.25,0.25 0.0 0,1 163.9125,78.9375 L 150.4125,78.9375 A 0.25,0.25 0.0 0,1 150.1625,78.6875 L 150.1625,65.1875 M 169.2125,65.1875 A 0.25,0.25 0.0 0,1 169.4625,64.9375 L 182.9625,64.9375 A 0.25,0.25 0.0 0,1 183.2125,65.1875 L 183.2125,78.6875 A 0.25,0.25 0.0 0,1 182.9625,78.9375 L 169.4625,78.9375 A 0.25,0.25 0.0 0,1 169.2125,78.6875 L 169.2125,65.1875 M 188.2625,65.1875 A 0.25,0.25 0.0 0,1 188.5125,64.9375 L 202.0125,64.9375 A 0.25,0.25 0.0 0,1 202.2625,65.1875 L 202.2625,78.6875 A 0.25,0.25 0.0 0,1 202.0125,78.9375 L 188.5125,78.9375 A 0.25,0.25 0.0 0,1 188.2625,78.6875 L 188.2625,65.1875 M 150.1625,84.2375 A 0.25,0.25 0.0 0,1 150.4125,83.9875 L 163.9125,83.9875 A 0.25,0.25 0.0 0,1 164.1625,84.2375 L 164.1625,97.7375 A 0.25,0.25 0.0 0,1 163.9125,97.9875 L 150.4125,97.9875 A 0.25,0.25 0.0 0,1 150.1625,97.7375 L 150.1625,84.2375 M 169.2125,84.2375 A 0.25,0.25 0.0 0,1 169.4625,83.9875 L 182.9625,83.9875 A 0.25,0.25 0.0 0,1 183.2125,84.2375 L 183.2125,97.7375 A 0.25,0.25 0.0 0,1 182.9625,97.9875 L 169.4625,97.9875 A 0.25,0.25 0.0 0,1 169.2125,97.7375 L 169.2125,84.2375 M 188.2625,84.2375 A 0.25,0.25 0.0 0,1 188.5125,83.9875 L 202.0125,83.9875 A 0.25,0.25 0.0 0,1 202.2625,84.2375 L 202.2625,97.7375 A 0.25,0.25 0.0 0,1 202.0125,97.9875 L 188.5125,97.9875 A 0.25,0.25 0.0 0,1 188.2625,97.7375 L 188.2625,84.2375 M -7.0,89.0 A 0.25,0.25 0.0 0,1 -6.75,88.75 L 6.75,88.75 A 0.25,0.25 0.0 0,1 7.0,89.0 L 7.0,102.5 A 0.25,0.25 0.0 0,1 6.75,102.75 L -6.75,102.75 A 0.25,0.25 0.0 0,1 -7.0,102.5 L -7.0,89.0 M 12.05,89.0 A 0.25,0.25 0.0 0,1 12.3,88.75 L 25.8,88.75 A 0.25,0.25 0.0 0,1 26.05,89.0 L 26.05,102.5 A 0.25,0.25 0.0 0,1 25.8,102.75 L 12.3,102.75 A 0.25,0.25 0.0 0,1 12.05,102.5 L 12.05,89.0 M 31.1,89.0 A 0.25,0.25 0.0 0,1 31.35,88.75 L 44.85,88.75 A 0.25,0.25 0.0 0,1 45.1,89.0 L 45.1,102.5 A 0.25,0.25 0.0 0,1 44.85,102.75 L 31.35,102.75 A 0.25,0.25 0.0 0,1 31.1,102.5 L 31.1,89.0 M 50.15,89.0 A 0.25,0.25 0.0 0,1 50.4,88.75 L 63.9,88.75 A 0.25,0.25 0.0 0,1 64.15,89.0 L 64.15,102.5 A 0.25,0.25 0.0 0,1 63.9,102.75 L 50.4,102.75 A 0.25,0.25 0.0 0,1 50.15,102.5 L 50.15,89.0 M 69.2,89.0 A 0.25,0.25 0.0 0,1 69.45,88.75 L 82.95,88.75 A 0.25,0.25 0.0 0,1 83.2,89.0 L 83.2,102.5 A 0.25,0.25 0.0 0,1 82.95,102.75 L 69.45,102.75 A 0.25,0.25 0.0 0,1 69.2,102.5 L 69.2,89.0 M 88.25,89.0 A 0.25,0.25 0.0 0,1 88.5,88.75 L 102.0,88.75 A 0.25,0.25 0.0 0,1 102.25,89.0 L 102.25,102.5 A 0.25,0.25 0.0 0,1 102.0,102.75 L 88.5,102.75 A 0.25,0.25 0.0 0,1 88.25,102.5 L 88.25,89.0 M 68.275,122.7375 A 1.6000000000000012,1.6000000000000012 0.0 0,1 65.075,122.7375 A 1.6000000000000012,1.6000000000000012 0.0 0,1 68.275,122.7375 M 107.3,89.0 A 0.25,0.25 0.0 0,1 107.55,88.75 L 121.05,88.75 A 0.25,0.25 0.0 0,1 121.3,89.0 L 121.3,102.5 A 0.25,0.25 0.0 0,1 121.05,102.75 L 107.55,102.75 A 0.25,0.25 0.0 0,1 107.3,102.5 L 107.3,89.0 M 126.35,89.0 A 0.25,0.25 0.0 0,1 126.6,88.75 L 140.1,88.75 A 0.25,0.25 0.0 0,1 140.35,89.0 L 140.35,102.5 A 0.25,0.25 0.0 0,1 140.1,102.75 L 126.6,102.75 A 0.25,0.25 0.0 0,1 126.35,102.5 L 126.35,89.0 M 177.8125,117.532402 A 1.6,1.6 0.0 0,1 174.6125,117.532402 A 1.6,1.6 0.0 0,1 177.8125,117.532402" />
      <path d="M -4.5,148.55 L -4.5,147.55 L -8.0,147.55 A 1.5,1.5 0.0 0,1 -9.5,146.05 L -9.5,143.7875 L -59.53125,143.7875 C -61.11875,143.7875 -61.739267,142.870927 -62.507813,141.481865 A 4.7625,4.7625 0.0 0,0 -70.842188,141.481865 C -71.610733,142.870927 -72.23125,143.7875 -73.81875,143.7875 L -123.825,143.7875 C -139.28321,143.790767 -154.737125,142.473564 -169.196676,139.927275 C -170.760184,139.652321 -171.192683,138.637214 -171.678221,137.125788 A 4.7625,4.7625 -167.64049874902997 0,0 -179.789598,135.438237 C -180.837653,136.630603 -181.639149,137.389038 -183.181997,137.01517 C -192.030998,134.87161 -200.337296,132.24952 -207.871435,129.232173 C -209.345202,128.642115 -210.075,127.535841 -210.075,125.948341 L -210.075,125.728242 C -210.075,125.061576 -210.408333,124.728242 -211.075,124.728242 L -212.725,124.728242 L -212.725,125.528242 A 0.7000000000000001,0.7000000000000001 0.0 0,1 -213.425,126.228242 L -215.725,126.228242 A 0.7000000000000001,0.7000000000000001 0.0 0,1 -216.425,125.528242 L -216.425,124.728242 L -218.075,124.728242 C -218.741667,124.728242 -219.075,125.061576 -219.075,125.728242 L -219.075,128.490742 C -219.075,129.157409 -218.77573,129.637569 -218.173956,129.924471 A 133.35,63.5 0.0 0,0 -177.181918,143.245195 A 133.35,63.5 0.0 0,0 -123.825,148.55 L -4.5,148.55 M -173.6125,138.582402 A 2.6,2.6 0.0 0,1 -178.8125,138.582402 A 2.6,2.6 0.0 0,1 -173.6125,138.582402 M -64.075,143.7875 A 2.6000000000000014,2.6000000000000014 0.0 0,1 -69.275,143.7875 A 2.6000000000000014,2.6000000000000014 0.0 0,1 -64.075,143.7875" />
      <path d="M 218.173956,129.924471 C 218.77573,129.637569 219.075,129.157409 219.075,128.490742 L 219.075,125.728242 C 219.075,125.061576 218.741667,124.728242 218.075,124.728242 L 216.425,124.728242 L 216.425,125.528242 A 0.7000000000000001,0.7000000000000001 0.0 0,1 215.725,126.228242 L 213.425,126.228242 A 0.7000000000000001,0.7000000000000001 0.0 0,1 212.725,125.528242 L 212.725,124.728242 L 211.075,124.728242 C 210.408333,124.728242 210.075,125.061576 210.075,125.728242 L 210.075,125.948341 C 210.075,127.535841 209.345202,128.642115 207.871435,129.232173 C 200.337296,132.24952 192.030998,134.87161 183.181997,137.01517 C 181.639149,137.389038 180.837653,136.630603 179.789598,135.438237 A 4.7625,4.7625 0.0 0,0 171.678221,137.125788 C 171.192683,138.637214 170.760184,139.652321 169.196676,139.927275 C 154.737125,142.473564 139.28321,143.790767 123.825,143.7875 L 73.81875,143.7875 C 72.23125,143.7875 71.610733,142.870927 70.842187,141.481865 A 4.7625,4.7625 0.0 0,0 62.507812,141.481865 C 61.739267,142.870927 61.11875,143.7875 59.53125,143.7875 L 9.5,143.7875 L 9.5,146.05 A 1.5,1.5 0.0 0,1 8.0,147.55 L 4.5,147.55 L 4.5,148.55 L 123.825,148.55 A 133.35,63.5 0.0 0,0 177.181918,143.245195 A 133.35,63.5 0.0 0,0 218.173956,129.924471 M 178.8125,138.582402 A 2.6,2.6 0.0 0,1 173.6125,138.582402 A 2.6,2.6 0.0 0,1 178.8125,138.582402 M 69.275,143.7875 A 2.6000000000000014,2.6000000000000014 0.0 0,1 64.075,143.7875 A 2.6000000000000014,2.6000000000000014 0.0 0,1 69.275,143.7875" />
      <path d="M -218.075,-124.728242 L -216.425,-124.728242 L -216.425,-125.528242 A 0.7000000000000001,0.7000000000000001 0.0 0,1 -215.725,-126.228242 L -213.425,-126.228242 A 0.7000000000000001,0.7000000000000001 0.0 0,1 -212.725,-125.528242 L -212.725,-124.728242 L -211.075,-124.728242 C -210.408333,-124.728242 -210.075,-125.061576 -210.075,-125.728242 L -210.075,-125.948341 C -210.075,-127.535841 -209.345202,-128.642115 -207.871435,-129.232173 C -200.337296,-132.24952 -192.030998,-134.87161 -183.181997,-137.01517 C -181.639149,-137.389038 -180.837653,-136.630603 -179.789598,-135.438237 A 4.7625,4.7625 -11.145674118505378 0,0 -171.678221,-137.125788 C -171.192683,-138.637214 -170.760184,-139.652321 -169.196676,-139.927275 C -154.737125,-142.473564 -139.28321,-143.790767 -123.825,-143.7875 L -73.81875,-143.7875 C -72.23125,-143.7875 -71.610733,-142.870927 -70.842187,-141.481865 A 4.7625,4.7625 0.0 0,0 -62.507813,-141.481865 C -61.739267,-142.870927 -61.11875,-143.7875 -59.53125,-143.7875 L 59.53125,-143.7875 C 61.11875,-143.7875 61.739267,-142.870927 62.507813,-141.481865 A 4.7625,4.7625 0.0 0,0 70.842187,-141.481865 C 71.610733,-142.870927 72.23125,-143.7875 73.81875,-143.7875 L 123.825,-143.7875 C 139.28321,-143.790767 154.737125,-142.473564 169.196676,-139.927275 C 170.760184,-139.652321 171.192683,-138.637214 171.678221,-137.125788 A 4.7625,4.7625 0.0 0,0 179.789598,-135.438237 C 180.837653,-136.630603 181.639149,-137.389038 183.181997,-137.01517 C 192.030998,-134.87161 200.337296,-132.24952 207.871435,-129.232173 C 209.345202,-128.642115 210.075,-127.535841 210.075,-125.948341 L 210.075,-125.728242 C 210.075,-125.061576 210.408333,-124.728242 211.075,-124.728242 L 212.725,-124.728242 L 212.725,-125.528242 A 0.7000000000000001,0.7000000000000001 0.0 0,1 213.425,-126.228242 L 215.725,-126.228242 A 0.7000000000000001,0.7000000000000001 0.0 0,1 216.425,-125.528242 L 216.425,-124.728242 L 218.075,-124.728242 C 218.741667,-124.728242 219.075,-125.061576 219.075,-125.728242 L 219.075,-128.490742 C 219.075,-129.157409 218.77573,-129.637569 218.173956,-129.924471 A 133.35,63.5 0.0 0,0 177.181918,-143.245195 A 133.35,63.5 0.0 0,0 123.825,-148.55 L -123.825,-148.55 A 133.35,63.5 0.0 0,0 -177.181918,-143.245195 A 133.35,63.5 0.0 0,0 -218.173956,-129.924471 C -218.77573,-129.637569 -219.075,-129.157409 -219.075,-128.490742 L -219.075,-125.728242 C -219.075,-125.061576 -218.741667,-124.728242 -218.075,-124.728242 M -64.075,-143.7875 A 2.6000000000000014,2.6000000000000014 0.0 0,1 -69.275,-143.7875 A 2.6000000000000014,2.6000000000000014 0.0 0,1 -64.075,-143.7875 M 69.275,-143.7875 A 2.6000000000000014,2.6000000000000014 0.0 0,1 64.075,-143.7875 A 2.6000000000000014,2.6000000000000014 0.0 0,1 69.275,-143.7875 M -173.6125,-138.582402 A 2.6,2.6 0.0 0,1 -178.8125,-138.582402 A 2.6,2.6 0.0 0,1 -173.6125,-138.582402 M 178.8125,-138.582402 A 2.6,2.6 0.0 0,1 173.6125,-138.582402 A 2.6,2.6 0.0 0,1 178.8125,-138.582402" />
      <path d="M -123.825,-0.5 L 123.825,-0.5 A 133.35,63.5 0.0 0,0 218.173956,-19.125529 C 218.77573,-19.412431 219.075,-19.892591 219.075,-20.559258 L 219.075,-107.440742 C 219.075,-108.107409 218.77573,-108.587569 218.173956,-108.874471 A 133.35,63.5 0.0 0,0 123.825,-127.5 L -123.825,-127.5 A 133.35,63.5 0.0 0,0 -218.173956,-108.874471 C -218.77573,-108.587569 -219.075,-108.107409 -219.075,-107.440742 L -219.075,-20.559258 C -219.075,-19.892591 -218.77573,-19.412431 -218.173956,-19.125529 A 133.35,63.5 0.0 0,0 -123.825,-0.5 M -173.6125,-117.532402 A 2.6,2.6 0.0 0,1 -178.8125,-117.532402 A 2.6,2.6 0.0 0,1 -173.6125,-117.532402 M -64.075,-122.7375 A 2.6000000000000014,2.6000000000000014 0.0 0,1 -69.275,-122.7375 A 2.6000000000000014,2.6000000000000014 0.0 0,1 -64.075,-122.7375 M 69.275,-122.7375 A 2.6000000000000014,2.6000000000000014 0.0 0,1 64.075,-122.7375 A 2.6000000000000014,2.6000000000000014 0.0 0,1 69.275,-122.7375 M 178.8125,-117.532402 A 2.6,2.6 0.0 0,1 173.6125,-117.532402 A 2.6,2.6 0.0 0,1 178.8125,-117.532402 M -173.6125,-10.467598 A 2.6,2.6 0.0 0,1 -178.8125,-10.467598 A 2.6,2.6 0.0 0,1 -173.6125,-10.467598 M -5.9,-18.0 A 1.1,1.1 0.0 0,1 -8.1,-18.0 A 1.1,1.1 0.0 0,1 -5.9,-18.0 M -64.075,-5.2625 A 2.6000000000000014,2.6000000000000014 0.0 0,1 -69.275,-5.2625 A 2.6000000000000014,2.6000000000000014 0.0 0,1 -64.075,-5.2625 M -5.9,-4.0 A 1.1,1.1 0.0 0,1 -8.1,-4.0 A 1.1,1.1 0.0 0,1 -5.9,-4.0 M 8.1,-18.0 A 1.1,1.1 0.0 0,1 5.9,-18.0 A 1.1,1.1 0.0 0,1 8.1,-18.0 M 8.1,-4.0 A 1.1,1.1 0.0 0,1 5.9,-4.0 A 1.1,1.1 0.0 0,1 8.1,-4.0 M 69.275,-5.2625 A 2.6000000000000014,2.6000000000000014 0.0 0,1 64.075,-5.2625 A 2.6000000000000014,2.6000000000000014 0.0 0,1 69.275,-5.2625 M 178.8125,-10.467598 A 2.6,2.6 0.0 0,1 173.6125,-10.467598 A 2.6,2.6 0.0 0,1 178.8125,-10.467598" />
    </g>
  </g>
</svg>