<?xml version='1.0' encoding='utf-8'?>
<svg width="458.24mm" height="327.19mm" viewBox="-229.12 -163.595 458.24 327.19" version="1.1" xmlns="http://www.w3.org/2000/svg">
  <g transform="scale(1,-1)" stroke-linecap="round">
    <g fill="none" stroke="rgb(0,0,0)" stroke-width="0.09">
      <path d="M 177.181918,135.720195 A 133.35,63.5 0.0 0,0 218.173956,122.399471 C 218.77573,122.112569 219.075,121.632409 219.075,120.965742 L 219.075,118.203242 C 219.075,117.536576 218.741667,117.203242 218.075,117.203242 L 216.425,117.203242 L 216.425,118.003242 A 0.7000000000000001,0.7000000000000001 0.0 0,1 215.725,118.703242 L 213.425,118.703242 A 0.7000000000000001,0.7000000000000001 0.0 0,1 212.725,118.003242 L 212.725,117.203242 L 211.075,117.203242 C 210.408333,117.203242 210.075,117.536576 210.075,118.203242 L 210.075,118.423341 C 210.075,120.010841 209.345202,121.117115 207.871435,121.707173 C 200.337296,124.72452 192.030998,127.34661 183.181997,129.49017 C 181.639149,129.864038 180.837653,129.105603 179.789598,127.913237 A 4.7625,4.7625 0.0 0,0 171.678221,129.600788 C 171.192683,131.112214 170.760184,132.127321 169.196676,132.402275 C 154.737125,134.948564 139.28321,136.265767 123.825,136.2625 L 73.81875,136.2625 C 72.23125,136.2625 71.610733,135.345927 70.842187,133.956865 A 4.7625,4.7625 0.0 0,0 62.507812,133.956865 C 61.739267,135.345927 61.11875,136.2625 59.53125,136.2625 L -59.53125,136.2625 C -61.11875,136.2625 -61.739267,135.345927 -62.507813,133.956865 A 4.7625,4.7625 0.0 0,0 -70.842188,133.956865 C -71.610733,135.345927 -72.23125,136.2625 -73.81875,136.2625 L -123.825,136.2625 C -139.28321,136.265767 -154.737125,134.948564 -169.196676,132.402275 C -170.760184,132.127321 -171.192683,131.112214 -171.678221,129.600788 A 4.7625,4.7625 -167.64049874902997 0,0 -179.789598,127.913237 C -180.837653,129.105603 -181.639149,129.864038 -183.181997,129.49017 C -192.030998,127.34661 -200.337296,124.72452 -207.871435,121.707173 C -209.345202,121.117115 -210.075,120.010841 -210.075,118.423341 L -210.075,118.203242 C -210.075,117.536576 -210.408333,117.203242 -211.075,117.203242 L -212.725,117.203242 L -212.725,118.003242 A 0.7000000000000001,0.7000000000000001 0.0 0,1 -213.425,118.703242 L -215.725,118.703242 A 0.7000000000000001,0.7000000000000001 0.0 0,1 -216.425,118.003242 L -216.425,117.203242 L -218.075,117.203242 C -218.741667,117.203242 -219.075,117.536576 -219.075,118.203242 L -219.075,120.965742 C -219.075,121.632409 -218.77573,122.112569 -218.173956,122.399471 A 133.35,63.5 0.0 0,0 -177.181918,135.720195 A 133.35,63.5 0.0 0,0 -123.825,141.025 L 123.825,141.025 A 133.35,63.5 0.0 0,0 177.181918,135.720195 M -174.6125,131.057402 A 1.6,1.6 0.0 0,1 -177.8125,131.057402 A 1.6,1.6 0.0 0,1 -174.6125,131.057402 M 177.8125,131.057402 A 1.6,1.6 0.0 0,1 174.6125,131.057402 A 1.6,1.6 0.0 0,1 177.8125,131.057402 M -65.075,136.2625 A 1.6000000000000012,1.6000000000000012 0.0 0,1 -68.275,136.2625 A 1.6000000000000012,1.6000000000000012 0.0 0,1 -65.075,136.2625 M 68.275,136.2625 A 1.6000000000000012,1.6000000000000012 0.0 0,1 65.075,136.2625 A 1.6000000000000012,1.6000000000000012 0.0 0,1 68.275,136.2625" />
      <path d="M -218.075,-117.203242 L -216.425,-117.203242 L -216.425,-118.003242 A 0.7000000000000001,0.7000000000000001 0.0 0,1 -215.725,-118.703242 L -213.425,-118.703242 A 0.7000000000000001,0.7000000000000001 0.0 0,1 -212.725,-118.003242 L -212.725,-117.203242 L -211.075,-117.203242 C -210.408333,-117.203242 -210.075,-117.536576 -210.075,-118.203242 L -210.075,-118.423341 C -210.075,-120.010841 -209.345202,-121.117115 -207.871435,-121.707173 C -200.337296,-124.72452 -192.030998,-127.34661 -183.181997,-129.49017 C -181.639149,-129.864038 -180.837653,-129.105603 -179.789598,-127.913237 A 4.7625,4.7625 -11.145674118505378 0,0 -171.678221,-129.600788 C -171.192683,-131.112214 -170.760184,-132.127321 -169.196676,-132.402275 C -154.737125,-134.948564 -139.28321,-136.265767 -123.825,-136.2625 L -73.81875,-136.2625 C -72.23125,-136.2625 -71.610733,-135.345927 -70.842187,-133.956865 A 4.7625,4.7625 0.0 0,0 -62.507813,-133.956865 C -61.739267,-135.345927 -61.11875,-136.2625 -59.53125,-136.2625 L 59.53125,-136.2625 C 61.11875,-136.2625 61.739267,-135.345927 62.507813,-133.956865 A 4.7625,4.7625 0.0 0,0 70.842187,-133.956865 C 71.610733,-135.345927 72.23125,-136.2625 73.81875,-136.2625 L 123.825,-136.2625 C 139.28321,-136.265767 154.737125,-134.948564 169.196676,-132.402275 C 170.760184,-132.127321 171.192683,-131.112214 171.678221,-129.600788 A 4.7625,4.7625 0.0 0,0 179.789598,-127.913237 C 180.837653,-129.105603 181.639149,-129.864038 183.181997,-129.49017 C 192.030998,-127.34661 200.337296,-124.72452 207.871435,-121.707173 C 209.345202,-121.117115 210.075,-120.010841 210.075,-118.423341 L 210.075,-118.203242 C 210.075,-117.536576 210.408333,-117.203242 211.075,-117.203242 L 212.725,-117.203242 L 212.725,-118.003242 A 0.7000000000000001,0.7000000000000001 0.0 0,1 213.425,-118.703242 L 215.725,-118.703242 A 0.7000000000000001,0.7000000000000001 0.0 0,1 216.425,-118.003242 L 216.425,-117.203242 L 218.075,-117.203242 C 218.741667,-117.203242 219.075,-117.536576 219.075,-118.203242 L 219.075,-120.965742 C 219.075,-121.632409 218.77573,-122.112569 218.173956,-122.399471 A 133.35,63.5 0.0 0,0 177.181918,-135.720195 A 133.35,63.5 0.0 0,0 123.825,-141.025 L -123.825,-141.025 A 133.35,63.5 0.0 0,0 -177.181918,-135.720195 A 133.35,63.5 0.0 0,0 -218.173956,-122.399471 C -218.77573,-122.112569 -219.075,-121.632409 -219.075,-120.965742 L -219.075,-118.203242 C -219.075,-117.536576 -218.741667,-117.203242 -218.075,-117.203242 M -65.075,-136.2625 A 1.6000000000000012,1.6000000000000012 0.0 0,1 -68.275,-136.2625 A 1.6000000000000012,1.6000000000000012 0.0 0,1 -65.075,-136.2625 M 68.275,-136.2625 A 1.6000000000000012,1.6000000000000012 0.0 0,1 65.075,-136.2625 A 1.6000000000000012,1.6000000000000012 0.0 0,1 68.275,-136.2625 M -174.6125,-131.057402 A 1.6,1.6 0.0 0,1 -177.8125,-131.057402 A 1.6,1.6 0.0 0,1 -174.6125,-131.057402 M 177.8125,-131.057402 A 1.6,1.6 0.0 0,1 174.6125,-131.057402 A 1.6,1.6 0.0 0,1 177.8125,-131.057402" />
      <path d="M -123.825,128.5 L 123.825,128.5 A 133.35,63.5 0.0 0,0 218.173956,109.874471 C 218.77573,109.587569 219.075,109.107409 219.075,108.440742 L 219.075,105.678242 C 219.075,105.011576 218.741667,104.678242 218.075,104.678242 L 216.425,104.678242 L 216.425,105.478242 A 0.7000000000000001,0.7000000000000001 0.0 0,1 215.725,106.178242 L 213.425,106.178242 A 0.7000000000000001,0.7000000000000001 0.0 0,1 212.725,105.478242 L 212.725,104.678242 L 208.3125,104.678242 C 207.645833,104.678242 207.3125,104.344909 207.3125,103.678242 L 207.3125,26.321758 C 207.3125,25.655091 207.645833,25.321758 208.3125,25.321758 L 212.725,25.321758 L 212.725,24.521758 A 0.7000000000000001,0.7000000000000001 0.0 0,1 213.425,23.821758 L 215.725,23.821758 A 0.7000000000000001,0.7000000000000001 0.0 0,1 216.425,24.521758 L 216.425,25.321758 L 218.075,25.321758 C 218.741667,25.321758 219.075,24.988424 219.075,24.321758 L 219.075,21.559258 C 219.075,20.892591 218.77573,20.412431 218.173956,20.125529 A 133.35,63.5 0.0 0,0 123.825,1.5 L -123.825,1.5 A 133.35,63.5 0.0 0,0 -218.173956,20.125529 C -218.77573,20.412431 -219.075,20.892591 -219.075,21.559258 L -219.075,24.321758 C -219.075,24.988424 -218.741667,25.321758 -218.075,25.321758 L -216.425,25.321758 L -216.425,24.521758 A 0.7000000000000001,0.7000000000000001 0.0 0,1 -215.725,23.821758 L -213.425,23.821758 A 0.7000000000000001,0.7000000000000001 0.0 0,1 -212.725,24.521758 L -212.725,25.321758 L -208.3125,25.321758 C -207.645833,25.321758 -207.3125,25.655091 -207.3125,26.321758 L -207.3125,103.678242 C -207.3125,104.344909 -207.645833,104.678242 -208.3125,104.678242 L -212.725,104.678242 L -212.725,105.478242 A 0.7000000000000001,0.7000000000000001 0.0 0,1 -213.425,106.178242 L -215.725,106.178242 A 0.7000000000000001,0.7000000000000001 0.0 0,1 -216.425,105.478242 L -216.425,104.678242 L -218.075,104.678242 C -218.741667,104.678242 -219.075,105.011576 -219.075,105.678242 L -219.075,108.440742 C -219.075,109.107409 -218.77573,109.587569 -218.173956,109.874471 A 133.35,63.5 0.0 0,0 -123.825,128.5 M -174.6125,11.467598 A 1.6,1.6 0.0 0,1 -177.8125,11.467598 A 1.6,1.6 0.0 0,1 -174.6125,11.467598 M -202.2625,23.825 A 0.25,0.25 0.0 0,1 -202.0125,23.575 L -188.5125,23.575 A 0.25,0.25 0.0 0,1 -188.2625,23.825 L -188.2625,37.325 A 0.25,0.25 0.0 0,1 -188.5125,37.575 L -202.0125,37.575 A 0.25,0.25 0.0 0,1 -202.2625,37.325 L -202.2625,23.825 M -183.2125,23.825 A 0.25,0.25 0.0 0,1 -182.9625,23.575 L -169.4625,23.575 A 0.25,0.25 0.0 0,1 -169.2125,23.825 L -169.2125,37.325 A 0.25,0.25 0.0 0,1 -169.4625,37.575 L -182.9625,37.575 A 0.25,0.25 0.0 0,1 -183.2125,37.325 L -183.2125,23.825 M -164.1625,23.825 A 0.25,0.25 0.0 0,1 -163.9125,23.575 L -150.4125,23.575 A 0.25,0.25 0.0 0,1 -150.1625,23.825 L -150.1625,37.325 A 0.25,0.25 0.0 0,1 -150.4125,37.575 L -163.9125,37.575 A 0.25,0.25 0.0 0,1 -164.1625,37.325 L -164.1625,23.825 M -137.96875,14.3 A 0.25,0.25 0.0 0,1 -137.71875,14.05 L -124.21875,14.05 A 0.25,0.25 0.0 0,1 -123.96875,14.3 L -123.96875,27.8 A 0.25,0.25 0.0 0,1 -124.21875,28.05 L -137.71875,28.05 A 0.25,0.25 0.0 0,1 -137.96875,27.8 L -137.96875,14.3 M -114.15625,14.3 A 0.25,0.25 0.0 0,1 -113.90625,14.05 L -100.40625,14.05 A 0.25,0.25 0.0 0,1 -100.15625,14.3 L -100.15625,27.8 A 0.25,0.25 0.0 0,1 -100.40625,28.05 L -113.90625,28.05 A 0.25,0.25 0.0 0,1 -114.15625,27.8 L -114.15625,14.3 M -65.075,6.2625 A 1.6000000000000012,1.6000000000000012 0.0 0,1 -68.275,6.2625 A 1.6000000000000012,1.6000000000000012 0.0 0,1 -65.075,6.2625 M -87.9625,14.3 A 0.25,0.25 0.0 0,1 -87.7125,14.05 L -74.2125,14.05 A 0.25,0.25 0.0 0,1 -73.9625,14.3 L -73.9625,27.8 A 0.25,0.25 0.0 0,1 -74.2125,28.05 L -87.7125,28.05 A 0.25,0.25 0.0 0,1 -87.9625,27.8 L -87.9625,14.3 M -60.65,15.05 A 2.0,2.0 0.0 0,1 -58.65,13.05 L -55.65,13.05 A 2.0,2.0 0.0 0,1 -53.65,15.05 L -53.65,27.05 A 2.0,2.0 0.0 0,1 -55.65,29.05 L -58.65,29.05 A 2.0,2.0 0.0 0,1 -60.65,27.05 L -60.65,15.05 M -202.2625,42.875 A 0.25,0.25 0.0 0,1 -202.0125,42.625 L -188.5125,42.625 A 0.25,0.25 0.0 0,1 -188.2625,42.875 L -188.2625,56.375 A 0.25,0.25 0.0 0,1 -188.5125,56.625 L -202.0125,56.625 A 0.25,0.25 0.0 0,1 -202.2625,56.375 L -202.2625,42.875 M -183.2125,42.875 A 0.25,0.25 0.0 0,1 -182.9625,42.625 L -169.4625,42.625 A 0.25,0.25 0.0 0,1 -169.2125,42.875 L -169.2125,56.375 A 0.25,0.25 0.0 0,1 -169.4625,56.625 L -182.9625,56.625 A 0.25,0.25 0.0 0,1 -183.2125,56.375 L -183.2125,42.875 M -164.1625,42.875 A 0.25,0.25 0.0 0,1 -163.9125,42.625 L -150.4125,42.625 A 0.25,0.25 0.0 0,1 -150.1625,42.875 L -150.1625,56.375 A 0.25,0.25 0.0 0,1 -150.4125,56.625 L -163.9125,56.625 A 0.25,0.25 0.0 0,1 -164.1625,56.375 L -164.1625,42.875 M -136.85,34.1 A 2.0,2.0 0.0 0,1 -134.85,32.1 L -131.85,32.1 A 2.0,2.0 0.0 0,1 -129.85,34.1 L -129.85,46.1 A 2.0,2.0 0.0 0,1 -131.85,48.1 L -134.85,48.1 A 2.0,2.0 0.0 0,1 -136.85,46.1 L -136.85,34.1 M -128.44375,33.35 A 0.25,0.25 0.0 0,1 -128.19375,33.1 L -114.69375,33.1 A 0.25,0.25 0.0 0,1 -114.44375,33.35 L -114.44375,46.85 A 0.25,0.25 0.0 0,1 -114.69375,47.1 L -128.19375,47.1 A 0.25,0.25 0.0 0,1 -128.44375,46.85 L -128.44375,33.35 M -113.0375,34.1 A 2.0,2.0 0.0 0,1 -111.0375,32.1 L -108.0375,32.1 A 2.0,2.0 0.0 0,1 -106.0375,34.1 L -106.0375,46.1 A 2.0,2.0 0.0 0,1 -108.0375,48.1 L -111.0375,48.1 A 2.0,2.0 0.0 0,1 -113.0375,46.1 L -113.0375,34.1 M -133.20625,52.4 A 0.25,0.25 0.0 0,1 -132.95625,52.15 L -119.45625,52.15 A 0.25,0.25 0.0 0,1 -119.20625,52.4 L -119.20625,65.9 A 0.25,0.25 0.0 0,1 -119.45625,66.15 L -132.95625,66.15 A 0.25,0.25 0.0 0,1 -133.20625,65.9 L -133.20625,52.4 M -97.4875,33.35 A 0.25,0.25 0.0 0,1 -97.2375,33.1 L -83.7375,33.1 A 0.25,0.25 0.0 0,1 -83.4875,33.35 L -83.4875,46.85 A 0.25,0.25 0.0 0,1 -83.7375,47.1 L -97.2375,47.1 A 0.25,0.25 0.0 0,1 -97.4875,46.85 L -97.4875,33.35 M -78.4375,33.35 A 0.25,0.25 0.0 0,1 -78.1875,33.1 L -64.6875,33.1 A 0.25,0.25 0.0 0,1 -64.4375,33.35 L -64.4375,46.85 A 0.25,0.25 0.0 0,1 -64.6875,47.1 L -78.1875,47.1 A 0.25,0.25 0.0 0,1 -78.4375,46.85 L -78.4375,33.35 M -59.3875,33.35 A 0.25,0.25 0.0 0,1 -59.1375,33.1 L -45.6375,33.1 A 0.25,0.25 0.0 0,1 -45.3875,33.35 L -45.3875,46.85 A 0.25,0.25 0.0 0,1 -45.6375,47.1 L -59.1375,47.1 A 0.25,0.25 0.0 0,1 -59.3875,46.85 L -59.3875,33.35 M -40.3375,33.35 A 0.25,0.25 0.0 0,1 -40.0875,33.1 L -26.5875,33.1 A 0.25,0.25 0.0 0,1 -26.3375,33.35 L -26.3375,46.85 A 0.25,0.25 0.0 0,1 -26.5875,47.1 L -40.0875,47.1 A 0.25,0.25 0.0 0,1 -40.3375,46.85 L -40.3375,33.35 M -21.2875,33.35 A 0.25,0.25 0.0 0,1 -21.0375,33.1 L -7.5375,33.1 A 0.25,0.25 0.0 0,1 -7.2875,33.35 L -7.2875,46.85 A 0.25,0.25 0.0 0,1 -7.5375,47.1 L -21.0375,47.1 A 0.25,0.25 0.0 0,1 -21.2875,46.85 L -21.2875,33.35 M -107.0125,52.4 A 0.25,0.25 0.0 0,1 -106.7625,52.15 L -93.2625,52.15 A 0.25,0.25 0.0 0,1 -93.0125,52.4 L -93.0125,65.9 A 0.25,0.25 0.0 0,1 -93.2625,66.15 L -106.7625,66.15 A 0.25,0.25 0.0 0,1 -107.0125,65.9 L -107.0125,52.4 M -87.9625,52.4 A 0.25,0.25 0.0 0,1 -87.7125,52.15 L -74.2125,52.15 A 0.25,0.25 0.0 0,1 -73.9625,52.4 L -73.9625,65.9 A 0.25,0.25 0.0 0,1 -74.2125,66.15 L -87.7125,66.15 A 0.25,0.25 0.0 0,1 -87.9625,65.9 L -87.9625,52.4 M -68.9125,52.4 A 0.25,0.25 0.0 0,1 -68.6625,52.15 L -55.1625,52.15 A 0.25,0.25 0.0 0,1 -54.9125,52.4 L -54.9125,65.9 A 0.25,0.25 0.0 0,1 -55.1625,66.15 L -68.6625,66.15 A 0.25,0.25 0.0 0,1 -68.9125,65.9 L -68.9125,52.4 M -49.8625,52.4 A 0.25,0.25 0.0 0,1 -49.6125,52.15 L -36.1125,52.15 A 0.25,0.25 0.0 0,1 -35.8625,52.4 L -35.8625,65.9 A 0.25,0.25 0.0 0,1 -36.1125,66.15 L -49.6125,66.15 A 0.25,0.25 0.0 0,1 -49.8625,65.9 L -49.8625,52.4 M -30.8125,52.4 A 0.25,0.25 0.0 0,1 -30.5625,52.15 L -17.0625,52.15 A 0.25,0.25 0.0 0,1 -16.8125,52.4 L -16.8125,65.9 A 0.25,0.25 0.0 0,1 -17.0625,66.15 L -30.5625,66.15 A 0.25,0.25 0.0 0,1 -30.8125,65.9 L -30.8125,52.4 M -11.7625,52.4 A 0.25,0.25 0.0 0,1 -11.5125,52.15 L 1.9875,52.15 A 0.25,0.25 0.0 0,1 2.2375,52.4 L 2.2375,65.9 A 0.25,0.25 0.0 0,1 1.9875,66.15 L -11.5125,66.15 A 0.25,0.25 0.0 0,1 -11.7625,65.9 L -11.7625,52.4 M 68.275,6.2625 A 1.6000000000000012,1.6000000000000012 0.0 0,1 65.075,6.2625 A 1.6000000000000012,1.6000000000000012 0.0 0,1 68.275,6.2625 M -7.0,14.3 A 0.25,0.25 0.0 0,1 -6.75,14.05 L 6.75,14.05 A 0.25,0.25 0.0 0,1 7.0,14.3 L 7.0,27.8 A 0.25,0.25 0.0 0,1 6.75,28.05 L -6.75,28.05 A 0.25,0.25 0.0 0,1 -7.0,27.8 L -7.0,14.3 M 53.65,15.05 A 2.0,2.0 0.0 0,1 55.65,13.05 L 58.65,13.05 A 2.0,2.0 0.0 0,1 60.65,15.05 L 60.65,27.05 A 2.0,2.0 0.0 0,1 58.65,29.05 L 55.65,29.05 A 2.0,2.0 0.0 0,1 53.65,27.05 L 53.65,15.05 M 73.9625,14.3 A 0.25,0.25 0.0 0,1 74.2125,14.05 L 87.7125,14.05 A 0.25,0.25 0.0 0,1 87.9625,14.3 L 87.9625,27.8 A 0.25,0.25 0.0 0,1 87.7125,28.05 L 74.2125,28.05 A 0.25,0.25 0.0 0,1 73.9625,27.8 L 73.9625,14.3 M 177.8125,11.467598 A 1.6,1.6 0.0 0,1 174.6125,11.467598 A 1.6,1.6 0.0 0,1 177.8125,11.467598 M 100.15625,14.3 A 0.25,0.25 0.0 0,1 100.40625,14.05 L 113.90625,14.05 A 0.25,0.25 0.0 0,1 114.15625,14.3 L 114.15625,27.8 A 0.25,0.25 0.0 0,1 113.90625,28.05 L 100.40625,28.05 A 0.25,0.25 0.0 0,1 100.15625,27.8 L 100.15625,14.3 M 123.96875,14.3 A 0.25,0.25 0.0 0,1 124.21875,14.05 L 137.71875,14.05 A 0.25,0.25 0.0 0,1 137.96875,14.3 L 137.96875,27.8 A 0.25,0.25 0.0 0,1 137.71875,28.05 L 124.21875,28.05 A 0.25,0.25 0.0 0,1 123.96875,27.8 L 123.96875,14.3 M 150.1625,23.825 A 0.25,0.25 0.0 0,1 150.4125,23.575 L 163.9125,23.575 A 0.25,0.25 0.0 0,1 164.1625,23.825 L 164.1625,37.325 A 0.25,0.25 0.0 0,1 163.9125,37.575 L 150.4125,37.575 A 0.25,0.25 0.0 0,1 150.1625,37.325 L 150.1625,23.825 M 169.2125,23.825 A 0.25,0.25 0.0 0,1 169.4625,23.575 L 182.9625,23.575 A 0.25,0.25 0.0 0,1 183.2125,23.825 L 183.2125,37.325 A 0.25,0.25 0.0 0,1 182.9625,37.575 L 169.4625,37.575 A 0.25,0.25 0.0 0,1 169.2125,37.325 L 169.2125,23.825 M 188.2625,23.825 A 0.25,0.25 0.0 0,1 188.5125,23.575 L 202.0125,23.575 A 0.25,0.25 0.0 0,1 202.2625,23.825 L 202.2625,37.325 A 0.25,0.25 0.0 0,1 202.0125,37.575 L 188.5125,37.575 A 0.25,0.25 0.0 0,1 188.2625,37.325 L 188.2625,23.825 M -2.2375,33.35 A 0.25,0.25 0.0 0,1 -1.9875,33.1 L 11.5125,33.1 A 0.25,0.25 0.0 0,1 11.7625,33.35 L 11.7625,46.85 A 0.25,0.25 0.0 0,1 11.5125,47.1 L -1.9875,47.1 A 0.25,0.25 0.0 0,1 -2.2375,46.85 L -2.2375,33.35 M 16.8125,33.35 A 0.25,0.25 0.0 0,1 17.0625,33.1 L 30.5625,33.1 A 0.25,0.25 0.0 0,1 30.8125,33.35 L 30.8125,46.85 A 0.25,0.25 0.0 0,1 30.5625,47.1 L 17.0625,47.1 A 0.25,0.25 0.0 0,1 16.8125,46.85 L 16.8125,33.35 M 35.8625,33.35 A 0.25,0.25 0.0 0,1 36.1125,33.1 L 49.6125,33.1 A 0.25,0.25 0.0 0,1 49.8625,33.35 L 49.8625,46.85 A 0.25,0.25 0.0 0,1 49.6125,47.1 L 36.1125,47.1 A 0.25,0.25 0.0 0,1 35.8625,46.85 L 35.8625,33.35 M 54.9125,33.35 A 0.25,0.25 0.0 0,1 55.1625,33.1 L 68.6625,33.1 A 0.25,0.25 0.0 0,1 68.9125,33.35 L 68.9125,46.85 A 0.25,0.25 0.0 0,1 68.6625,47.1 L 55.1625,47.1 A 0.25,0.25 0.0 0,1 54.9125,46.85 L 54.9125,33.35 M 73.9625,33.35 A 0.25,0.25 0.0 0,1 74.2125,33.1 L 87.7125,33.1 A 0.25,0.25 0.0 0,1 87.9625,33.35 L 87.9625,46.85 A 0.25,0.25 0.0 0,1 87.7125,47.1 L 74.2125,47.1 A 0.25,0.25 0.0 0,1 73.9625,46.85 L 73.9625,33.35 M 7.2875,52.4 A 0.25,0.25 0.0 0,1 7.5375,52.15 L 21.0375,52.15 A 0.25,0.25 0.0 0,1 21.2875,52.4 L 21.2875,65.9 A 0.25,0.25 0.0 0,1 21.0375,66.15 L 7.5375,66.15 A 0.25,0.25 0.0 0,1 7.2875,65.9 L 7.2875,52.4 M 26.3375,52.4 A 0.25,0.25 0.0 0,1 26.5875,52.15 L 40.0875,52.15 A 0.25,0.25 0.0 0,1 40.3375,52.4 L 40.3375,65.9 A 0.25,0.25 0.0 0,1 40.0875,66.15 L 26.5875,66.15 A 0.25,0.25 0.0 0,1 26.3375,65.9 L 26.3375,52.4 M 45.3875,52.4 A 0.25,0.25 0.0 0,1 45.6375,52.15 L 59.1375,52.15 A 0.25,0.25 0.0 0,1 59.3875,52.4 L 59.3875,65.9 A 0.25,0.25 0.0 0,1 59.1375,66.15 L 45.6375,66.15 A 0.25,0.25 0.0 0,1 45.3875,65.9 L 45.3875,52.4 M 64.4375,52.4 A 0.25,0.25 0.0 0,1 64.6875,52.15 L 78.1875,52.15 A 0.25,0.25 0.0 0,1 78.4375,52.4 L 78.4375,65.9 A 0.25,0.25 0.0 0,1 78.1875,66.15 L 64.6875,66.15 A 0.25,0.25 0.0 0,1 64.4375,65.9 L 64.4375,52.4 M 83.4875,52.4 A 0.25,0.25 0.0 0,1 83.7375,52.15 L 97.2375,52.15 A 0.25,0.25 0.0 0,1 97.4875,52.4 L 97.4875,65.9 A 0.25,0.25 0.0 0,1 97.2375,66.15 L 83.7375,66.15 A 0.25,0.25 0.0 0,1 83.4875,65.9 L 83.4875,52.4 M 100.15625,33.35 A 0.25,0.25 0.0 0,1 100.40625,33.1 L 113.90625,33.1 A 0.25,0.25 0.0 0,1 114.15625,33.35 L 114.15625,46.85 A 0.25,0.25 0.0 0,1 113.90625,47.1 L 100.40625,47.1 A 0.25,0.25 0.0 0,1 100.15625,46.85 L 100.15625,33.35 M 126.35,33.35 A 0.25,0.25 0.0 0,1 126.6,33.1 L 140.1,33.1 A 0.25,0.25 0.0 0,1 140.35,33.35 L 140.35,46.85 A 0.25,0.25 0.0 0,1 140.1,47.1 L 126.6,47.1 A 0.25,0.25 0.0 0,1 126.35,46.85 L 126.35,33.35 M 150.1625,42.875 A 0.25,0.25 0.0 0,1 150.4125,42.625 L 163.9125,42.625 A 0.25,0.25 0.0 0,1 164.1625,42.875 L 164.1625,56.375 A 0.25,0.25 0.0 0,1 163.9125,56.625 L 150.4125,56.625 A 0.25,0.25 0.0 0,1 150.1625,56.375 L 150.1625,42.875 M 169.2125,42.875 A 0.25,0.25 0.0 0,1 169.4625,42.625 L 182.9625,42.625 A 0.25,0.25 0.0 0,1 183.2125,42.875 L 183.2125,56.375 A 0.25,0.25 0.0 0,1 182.9625,56.625 L 169.4625,56.625 A 0.25,0.25 0.0 0,1 169.2125,56.375 L 169.2125,42.875 M 188.2625,42.875 A 0.25,0.25 0.0 0,1 188.5125,42.625 L 202.0125,42.625 A 0.25,0.25 0.0 0,1 202.2625,42.875 L 202.2625,56.375 A 0.25,0.25 0.0 0,1 202.0125,56.625 L 188.5125,56.625 A 0.25,0.25 0.0 0,1 188.2625,56.375 L 188.2625,42.875 M 106.0375,53.15 A 2.0,2.0 0.0 0,1 108.0375,51.15 L 111.0375,51.15 A 2.0,2.0 0.0 0,1 113.0375,53.15 L 113.0375,65.15 A 2.0,2.0 0.0 0,1 111.0375,67.15 L 108.0375,67.15 A 2.0,2.0 0.0 0,1 106.0375,65.15 L 106.0375,53.15 M 114.44375,52.4 A 0.25,0.25 0.0 0,1 114.69375,52.15 L 128.19375,52.15 A 0.25,0.25 0.0 0,1 128.44375,52.4 L 128.44375,65.9 A 0.25,0.25 0.0 0,1 128.19375,66.15 L 114.69375,66.15 A 0.25,0.25 0.0 0,1 114.44375,65.9 L 114.44375,52.4 M 129.85,53.15 A 2.0,2.0 0.0 0,1 131.85,51.15 L 134.85,51.15 A 2.0,2.0 0.0 0,1 136.85,53.15 L 136.85,65.15 A 2.0,2.0 0.0 0,1 134.85,67.15 L 131.85,67.15 A 2.0,2.0 0.0 0,1 129.85,65.15 L 129.85,53.15 M -202.2625,66.6875 A 0.25,0.25 0.0 0,1 -202.0125,66.4375 L -188.5125,66.4375 A 0.25,0.25 0.0 0,1 -188.2625,66.6875 L -188.2625,80.1875 A 0.25,0.25 0.0 0,1 -188.5125,80.4375 L -202.0125,80.4375 A 0.25,0.25 0.0 0,1 -202.2625,80.1875 L -202.2625,66.6875 M -183.2125,66.6875 A 0.25,0.25 0.0 0,1 -182.9625,66.4375 L -169.4625,66.4375 A 0.25,0.25 0.0 0,1 -169.2125,66.6875 L -169.2125,80.1875 A 0.25,0.25 0.0 0,1 -169.4625,80.4375 L -182.9625,80.4375 A 0.25,0.25 0.0 0,1 -183.2125,80.1875 L -183.2125,66.6875 M -164.1625,66.6875 A 0.25,0.25 0.0 0,1 -163.9125,66.4375 L -150.4125,66.4375 A 0.25,0.25 0.0 0,1 -150.1625,66.6875 L -150.1625,80.1875 A 0.25,0.25 0.0 0,1 -150.4125,80.4375 L -163.9125,80.4375 A 0.25,0.25 0.0 0,1 -164.1625,80.1875 L -164.1625,66.6875 M -135.5875,71.45 A 0.25,0.25 0.0 0,1 -135.3375,71.2 L -121.8375,71.2 A 0.25,0.25 0.0 0,1 -121.5875,71.45 L -121.5875,84.95 A 0.25,0.25 0.0 0,1 -121.8375,85.2 L -135.3375,85.2 A 0.25,0.25 0.0 0,1 -135.5875,84.95 L -135.5875,71.45 M -111.775,71.45 A 0.25,0.25 0.0 0,1 -111.525,71.2 L -98.025,71.2 A 0.25,0.25 0.0 0,1 -97.775,71.45 L -97.775,84.95 A 0.25,0.25 0.0 0,1 -98.025,85.2 L -111.525,85.2 A 0.25,0.25 0.0 0,1 -111.775,84.95 L -111.775,71.45 M -202.2625,85.7375 A 0.25,0.25 0.0 0,1 -202.0125,85.4875 L -188.5125,85.4875 A 0.25,0.25 0.0 0,1 -188.2625,85.7375 L -188.2625,99.2375 A 0.25,0.25 0.0 0,1 -188.5125,99.4875 L -202.0125,99.4875 A 0.25,0.25 0.0 0,1 -202.2625,99.2375 L -202.2625,85.7375 M -183.2125,85.7375 A 0.25,0.25 0.0 0,1 -182.9625,85.4875 L -169.4625,85.4875 A 0.25,0.25 0.0 0,1 -169.2125,85.7375 L -169.2125,99.2375 A 0.25,0.25 0.0 0,1 -169.4625,99.4875 L -182.9625,99.4875 A 0.25,0.25 0.0 0,1 -183.2125,99.2375 L -183.2125,85.7375 M -164.1625,85.7375 A 0.25,0.25 0.0 0,1 -163.9125,85.4875 L -150.4125,85.4875 A 0.25,0.25 0.0 0,1 -150.1625,85.7375 L -150.1625,99.2375 A 0.25,0.25 0.0 0,1 -150.4125,99.4875 L -163.9125,99.4875 A 0.25,0.25 0.0 0,1 -164.1625,99.2375 L -164.1625,85.7375 M -92.725,71.45 A 0.25,0.25 0.0 0,1 -92.475,71.2 L -78.975,71.2 A 0.25,0.25 0.0 0,1 -78.725,71.45 L -78.725,84.95 A 0.25,0.25 0.0 0,1 -78.975,85.2 L -92.475,85.2 A 0.25,0.25 0.0 0,1 -92.725,84.95 L -92.725,71.45 M -73.675,71.45 A 0.25,0.25 0.0 0,1 -73.425,71.2 L -59.925,71.2 A 0.25,0.25 0.0 0,1 -59.675,71.45 L -59.675,84.95 A 0.25,0.25 0.0 0,1 -59.925,85.2 L -73.425,85.2 A 0.25,0.25 0.0 0,1 -73.675,84.95 L -73.675,71.45 M -54.625,71.45 A 0.25,0.25 0.0 0,1 -54.375,71.2 L -40.875,71.2 A 0.25,0.25 0.0 0,1 -40.625,71.45 L -40.625,84.95 A 0.25,0.25 0.0 0,1 -40.875,85.2 L -54.375,85.2 A 0.25,0.25 0.0 0,1 -54.625,84.95 L -54.625,71.45 M -35.575,71.45 A 0.25,0.25 0.0 0,1 -35.325,71.2 L -21.825,71.2 A 0.25,0.25 0.0 0,1 -21.575,71.45 L -21.575,84.95 A 0.25,0.25 0.0 0,1 -21.825,85.2 L -35.325,85.2 A 0.25,0.25 0.0 0,1 -35.575,84.95 L -35.575,71.45 M -16.525,71.45 A 0.25,0.25 0.0 0,1 -16.275,71.2 L -2.775,71.2 A 0.25,0.25 0.0 0,1 -2.525,71.45 L -2.525,84.95 A 0.25,0.25 0.0 0,1 -2.775,85.2 L -16.275,85.2 A 0.25,0.25 0.0 0,1 -16.525,84.95 L -16.525,71.45 M -140.35,90.5 A 0.25,0.25 0.0 0,1 -140.1,90.25 L -126.6,90.25 A 0.25,0.25 0.0 0,1 -126.35,90.5 L -126.35,104.0 A 0.25,0.25 0.0 0,1 -126.6,104.25 L -140.1,104.25 A 0.25,0.25 0.0 0,1 -140.35,104.0 L -140.35,90.5 M -121.3,90.5 A 0.25,0.25 0.0 0,1 -121.05,90.25 L -107.55,90.25 A 0.25,0.25 0.0 0,1 -107.3,90.5 L -107.3,104.0 A 0.25,0.25 0.0 0,1 -107.55,104.25 L -121.05,104.25 A 0.25,0.25 0.0 0,1 -121.3,104.0 L -121.3,90.5 M -174.6125,118.532402 A 1.6,1.6 0.0 0,1 -177.8125,118.532402 A 1.6,1.6 0.0 0,1 -174.6125,118.532402 M -102.25,90.5 A 0.25,0.25 0.0 0,1 -102.0,90.25 L -88.5,90.25 A 0.25,0.25 0.0 0,1 -88.25,90.5 L -88.25,104.0 A 0.25,0.25 0.0 0,1 -88.5,104.25 L -102.0,104.25 A 0.25,0.25 0.0 0,1 -102.25,104.0 L -102.25,90.5 M -83.2,90.5 A 0.25,0.25 0.0 0,1 -82.95,90.25 L -69.45,90.25 A 0.25,0.25 0.0 0,1 -69.2,90.5 L -69.2,104.0 A 0.25,0.25 0.0 0,1 -69.45,104.25 L -82.95,104.25 A 0.25,0.25 0.0 0,1 -83.2,104.0 L -83.2,90.5 M -64.15,90.5 A 0.25,0.25 0.0 0,1 -63.9,90.25 L -50.4,90.25 A 0.25,0.25 0.0 0,1 -50.15,90.5 L -50.15,104.0 A 0.25,0.25 0.0 0,1 -50.4,104.25 L -63.9,104.25 A 0.25,0.25 0.0 0,1 -64.15,104.0 L -64.15,90.5 M -45.1,90.5 A 0.25,0.25 0.0 0,1 -44.85,90.25 L -31.35,90.25 A 0.25,0.25 0.0 0,1 -31.1,90.5 L -31.1,104.0 A 0.25,0.25 0.0 0,1 -31.35,104.25 L -44.85,104.25 A 0.25,0.25 0.0 0,1 -45.1,104.0 L -45.1,90.5 M -26.05,90.5 A 0.25,0.25 0.0 0,1 -25.8,90.25 L -12.3,90.25 A 0.25,0.25 0.0 0,1 -12.05,90.5 L -12.05,104.0 A 0.25,0.25 0.0 0,1 -12.3,104.25 L -25.8,104.25 A 0.25,0.25 0.0 0,1 -26.05,104.0 L -26.05,90.5 M -65.075,123.7375 A 1.6000000000000012,1.6000000000000012 0.0 0,1 -68.275,123.7375 A 1.6000000000000012,1.6000000000000012 0.0 0,1 -65.075,123.7375 M 2.525,71.45 A 0.25,0.25 0.0 0,1 2.775,71.2 L 16.275,71.2 A 0.25,0.25 0.0 0,1 16.525,71.45 L 16.525,84.95 A 0.25,0.25 0.0 0,1 16.275,85.2 L 2.775,85.2 A 0.25,0.25 0.0 0,1 2.525,84.95 L 2.525,71.45 M 21.575,71.45 A 0.25,0.25 0.0 0,1 21.825,71.2 L 35.325,71.2 A 0.25,0.25 0.0 0,1 35.575,71.45 L 35.575,84.95 A 0.25,0.25 0.0 0,1 35.325,85.2 L 21.825,85.2 A 0.25,0.25 0.0 0,1 21.575,84.95 L 21.575,71.45 M 40.625,71.45 A 0.25,0.25 0.0 0,1 40.875,71.2 L 54.375,71.2 A 0.25,0.25 0.0 0,1 54.625,71.45 L 54.625,84.95 A 0.25,0.25 0.0 0,1 54.375,85.2 L 40.875,85.2 A 0.25,0.25 0.0 0,1 40.625,84.95 L 40.625,71.45 M 59.675,71.45 A 0.25,0.25 0.0 0,1 59.925,71.2 L 73.425,71.2 A 0.25,0.25 0.0 0,1 73.675,71.45 L 73.675,84.95 A 0.25,0.25 0.0 0,1 73.425,85.2 L 59.925,85.2 A 0.25,0.25 0.0 0,1 59.675,84.95 L 59.675,71.45 M 78.725,71.45 A 0.25,0.25 0.0 0,1 78.975,71.2 L 92.475,71.2 A 0.25,0.25 0.0 0,1 92.725,71.45 L 92.725,84.95 A 0.25,0.25 0.0 0,1 92.475,85.2 L 78.975,85.2 A 0.25,0.25 0.0 0,1 78.725,84.95 L 78.725,71.45 M 97.775,71.45 A 0.25,0.25 0.0 0,1 98.025,71.2 L 111.525,71.2 A 0.25,0.25 0.0 0,1 111.775,71.45 L 111.775,84.95 A 0.25,0.25 0.0 0,1 111.525,85.2 L 98.025,85.2 A 0.25,0.25 0.0 0,1 97.775,84.95 L 97.775,71.45 M 121.5875,71.45 A 0.25,0.25 0.0 0,1 121.8375,71.2 L 135.3375,71.2 A 0.25,0.25 0.0 0,1 135.5875,71.45 L 135.5875,84.95 A 0.25,0.25 0.0 0,1 135.3375,85.2 L 121.8375,85.2 A 0.25,0.25 0.0 0,1 121.5875,84.95 L 121.5875,71.45 M 150.1625,66.6875 A 0.25,0.25 0.0 0,1 150.4125,66.4375 L 163.9125,66.4375 A 0.25,0.25 0.0 0,1 164.1625,66.6875 L 164.1625,80.1875 A 0.25,0.25 0.0 0,1 163.9125,80.4375 L 150.4125,80.4375 A 0.25,0.25 0.0 0,1 150.1625,80.1875 L 150.1625,66.6875 M 169.2125,66.6875 A 0.25,0.25 0.0 0,1 169.4625,66.4375 L 182.9625,66.4375 A 0.25,0.25 0.0 0,1 183.2125,66.6875 L 183.2125,80.1875 A 0.25,0.25 0.0 0,1 182.9625,80.4375 L 169.4625,80.4375 A 0.25,0.25 0.0 0,1 169.2125,80.1875 L 169.2125,66.6875 M 188.2625,66.6875 A 0.25,0.25 0.0 0,1 188.5125,66.4375 L 202.0125,66.4375 A 0.25,0.25 0.0 0,1 202.2625,66.6875 L 202.2625,80.1875 A 0.25,0.25 0.0 0,1 202.0125,80.4375 L 188.5125,80.4375 A 0.25,0.25 0.0 0,1 188.2625,80.1875 L 188.2625,66.6875 M 150.1625,85.7375 A 0.25,0.25 0.0 0,1 150.4125,85.4875 L 163.9125,85.4875 A 0.25,0.25 0.0 0,1 164.1625,85.7375 L 164.1625,99.2375 A 0.25,0.25 0.0 0,1 163.9125,99.4875 L 150.4125,99.4875 A 0.25,0.25 0.0 0,1 150.1625,99.2375 L 150.1625,85.7375 M 169.2125,85.7375 A 0.25,0.25 0.0 0,1 169.4625,85.4875 L 182.9625,85.4875 A 0.25,0.25 0.0 0,1 183.2125,85.7375 L 183.2125,99.2375 A 0.25,0.25 0.0 0,1 182.9625,99.4875 L 169.4625,99.4875 A 0.25,0.25 0.0 0,1 169.2125,99.2375 L 169.2125,85.7375 M 188.2625,85.7375 A 0.25,0.25 0.0 0,1 188.5125,85.4875 L 202.0125,85.4875 A 0.25,0.25 0.0 0,1 202.2625,85.7375 L 202.2625,99.2375 A 0.25,0.25 0.0 0,1 202.0125,99.4875 L 188.5125,99.4875 A 0.25,0.25 0.0 0,1 188.2625,99.2375 L 188.2625,85.7375 M -7.0,90.5 A 0.25,0.25 0.0 0,1 -6.75,90.25 L 6.75,90.25 A 0.25,0.25 0.0 0,1 7.0,90.5 L 7.0,104.0 A 0.25,0.25 0.0 0,1 6.75,104.25 L -6.75,104.25 A 0.25,0.25 0.0 0,1 -7.0,104.0 L -7.0,90.5 M 12.05,90.5 A 0.25,0.25 0.0 0,1 12.3,90.25 L 25.8,90.25 A 0.25,0.25 0.0 0,1 26.05,90.5 L 26.05,104.0 A 0.25,0.25 0.0 0,1 25.8,104.25 L 12.3,104.25 A 0.25,0.25 0.0 0,1 12.05,104.0 L 12.05,90.5 M 31.1,90.5 A 0.25,0.25 0.0 0,1 31.35,90.25 L 44.85,90.25 A 0.25,0.25 0.0 0,1 45.1,90.5 L 45.1,104.0 A 0.25,0.25 0.0 0,1 44.85,104.25 L 31.35,104.25 A 0.25,0.25 0.0 0,1 31.1,104.0 L 31.1,90.5 M 50.15,90.5 A 0.25,0.25 0.0 0,1 50.4,90.25 L 63.9,90.25 A 0.25,0.25 0.0 0,1 64.15,90.5 L 64.15,104.0 A 0.25,0.25 0.0 0,1 63.9,104.25 L 50.4,104.25 A 0.25,0.25 0.0 0,1 50.15,104.0 L 50.15,90.5 M 69.2,90.5 A 0.25,0.25 0.0 0,1 69.45,90.25 L 82.95,90.25 A 0.25,0.25 0.0 0,1 83.2,90.5 L 83.2,104.0 A 0.25,0.25 0.0 0,1 82.95,104.25 L 69.45,104.25 A 0.25,0.25 0.0 0,1 69.2,104.0 L 69.2,90.5 M 88.25,90.5 A 0.25,0.25 0.0 0,1 88.5,90.25 L 102.0,90.25 A 0.25,0.25 0.0 0,1 102.25,90.5 L 102.25,104.0 A 0.25,0.25 0.0 0,1 102.0,104.25 L 88.5,104.25 A 0.25,0.25 0.0 0,1 88.25,104.0 L 88.25,90.5 M 68.275,123.7375 A 1.6000000000000012,1.6000000000000012 0.0 0,1 65.075,123.7375 A 1.6000000000000012,1.6000000000000012 0.0 0,1 68.275,123.7375 M 107.3,90.5 A 0.25,0.25 0.0 0,1 107.55,90.25 L 121.05,90.25 A 0.25,0.25 0.0 0,1 121.3,90.5 L 121.3,104.0 A 0.25,0.25 0.0 0,1 121.05,104.25 L 107.55,104.25 A 0.25,0.25 0.0 0,1 107.3,104.0 L 107.3,90.5 M 126.35,90.5 A 0.25,0.25 0.0 0,1 126.6,90.25 L 140.1,90.25 A 0.25,0.25 0.0 0,1 140.35,90.5 L 140.35,104.0 A 0.25,0.25 0.0 0,1 140.1,104.25 L 126.6,104.25 A 0.25,0.25 0.0 0,1 126.35,104.0 L 126.35,90.5 M 177.8125,118.532402 A 1.6,1.6 0.0 0,1 174.6125,118.532402 A 1.6,1.6 0.0 0,1 177.8125,118.532402" />
      <path d="M -4.5,153.55 L -4.5,152.55 L -8.0,152.55 A 1.5,1.5 0.0 0,1 -9.5,151.05 L -9.5,148.7875 L -59.53125,148.7875 C -61.11875,148.7875 -61.739267,147.870927 -62.507813,146.481865 A 4.7625,4.7625 0.0 0,0 -70.842188,146.481865 C -71.610733,147.870927 -72.23125,148.7875 -73.81875,148.7875 L -123.825,148.7875 C -139.28321,148.790767 -154.737125,147.473564 -169.196676,144.927275 C -170.760184,144.652321 -171.192683,143.637214 -171.678221,142.125788 A 4.7625,4.7625 -167.64049874902997 0,0 -179.789598,140.438237 C -180.837653,141.630603 -181.639149,142.389038 -183.181997,142.01517 C -192.030998,139.87161 -200.337296,137.24952 -207.871435,134.232173 C -209.345202,133.642115 -210.075,132.535841 -210.075,130.948341 L -210.075,130.728242 C -210.075,130.061576 -210.408333,129.728242 -211.075,129.728242 L -212.725,129.728242 L -212.725,130.528242 A 0.7000000000000001,0.7000000000000001 0.0 0,1 -213.425,131.228242 L -215.725,131.228242 A 0.7000000000000001,0.7000000000000001 0.0 0,1 -216.425,130.528242 L -216.425,129.728242 L -218.075,129.728242 C -218.741667,129.728242 -219.075,130.061576 -219.075,130.728242 L -219.075,133.490742 C -219.075,134.157409 -218.77573,134.637569 -218.173956,134.924471 A 133.35,63.5 0.0 0,0 -177.181918,148.245195 A 133.35,63.5 0.0 0,0 -123.825,153.55 L -4.5,153.55 M -174.6125,143.582402 A 1.6,1.6 0.0 0,1 -177.8125,143.582402 A 1.6,1.6 0.0 0,1 -174.6125,143.582402 M -65.075,148.7875 A 1.6000000000000012,1.6000000000000012 0.0 0,1 -68.275,148.7875 A 1.6000000000000012,1.6000000000000012 0.0 0,1 -65.075,148.7875" />
      <path d="M 218.173956,134.924471 C 218.77573,134.637569 219.075,134.157409 219.075,133.490742 L 219.075,130.728242 C 219.075,130.061576 218.741667,129.728242 218.075,129.728242 L 216.425,129.728242 L 216.425,130.528242 A 0.7000000000000001,0.7000000000000001 0.0 0,1 215.725,131.228242 L 213.425,131.228242 A 0.7000000000000001,0.7000000000000001 0.0 0,1 212.725,130.528242 L 212.725,129.728242 L 211.075,129.728242 C 210.408333,129.728242 210.075,130.061576 210.075,130.728242 L 210.075,130.948341 C 210.075,132.535841 209.345202,133.642115 207.871435,134.232173 C 200.337296,137.24952 192.030998,139.87161 183.181997,142.01517 C 181.639149,142.389038 180.837653,141.630603 179.789598,140.438237 A 4.7625,4.7625 0.0 0,0 171.678221,142.125788 C 171.192683,143.637214 170.760184,144.652321 169.196676,144.927275 C 154.737125,147.473564 139.28321,148.790767 123.825,148.7875 L 73.81875,148.7875 C 72.23125,148.7875 71.610733,147.870927 70.842187,146.481865 A 4.7625,4.7625 0.0 0,0 62.507812,146.481865 C 61.739267,147.870927 61.11875,148.7875 59.53125,148.7875 L 9.5,148.7875 L 9.5,151.05 A 1.5,1.5 0.0 0,1 8.0,152.55 L 4.5,152.55 L 4.5,153.55 L 123.825,153.55 A 133.35,63.5 0.0 0,0 177.181918,148.245195 A 133.35,63.5 0.0 0,0 218.173956,134.924471 M 177.8125,143.582402 A 1.6,1.6 0.0 0,1 174.6125,143.582402 A 1.6,1.6 0.0 0,1 177.8125,143.582402 M 68.275,148.7875 A 1.6000000000000012,1.6000000000000012 0.0 0,1 65.075,148.7875 A 1.6000000000000012,1.6000000000000012 0.0 0,1 68.275,148.7875" />
      <path d="M -218.075,-129.728242 L -216.425,-129.728242 L -216.425,-130.528242 A 0.7000000000000001,0.7000000000000001 0.0 0,1 -215.725,-131.228242 L -213.425,-131.228242 A 0.7000000000000001,0.7000000000000001 0.0 0,1 -212.725,-130.528242 L -212.725,-129.728242 L -211.075,-129.728242 C -210.408333,-129.728242 -210.075,-130.061576 -210.075,-130.728242 L -210.075,-130.948341 C -210.075,-132.535841 -209.345202,-133.642115 -207.871435,-134.232173 C -200.337296,-137.24952 -192.030998,-139.87161 -183.181997,-142.01517 C -181.639149,-142.389038 -180.837653,-141.630603 -179.789598,-140.438237 A 4.7625,4.7625 -11.145674118505378 0,0 -171.678221,-142.125788 C -171.192683,-143.637214 -170.760184,-144.652321 -169.196676,-144.927275 C -154.737125,-147.473564 -139.28321,-148.790767 -123.825,-148.7875 L -73.81875,-148.7875 C -72.23125,-148.7875 -71.610733,-147.870927 -70.842187,-146.481865 A 4.7625,4.7625 0.0 0,0 -62.507813,-146.481865 C -61.739267,-147.870927 -61.11875,-148.7875 -59.53125,-148.7875 L 59.53125,-148.7875 C 61.11875,-148.7875 61.739267,-147.870927 62.507813,-146.481865 A 4.7625,4.7625 0.0 0,0 70.842187,-146.481865 C 71.610733,-147.870927 72.23125,-148.7875 73.81875,-148.7875 L 123.825,-148.7875 C 139.28321,-148.790767 154.737125,-147.473564 169.196676,-144.927275 C 170.760184,-144.652321 171.192683,-143.637214 171.678221,-142.125788 A 4.7625,4.7625 0.0 0,0 179.789598,-140.438237 C 180.837653,-141.630603 181.639149,-142.389038 183.181997,-142.01517 C 192.030998,-139.87161 200.337296,-137.24952 207.871435,-134.232173 C 209.345202,-133.642115 210.075,-132.535841 210.075,-130.948341 L 210.075,-130.728242 C 210.075,-130.061576 210.408333,-129.728242 211.075,-129.728242 L 212.725,-129.728242 L 212.725,-130.528242 A 0.7000000000000001,0.7000000000000001 0.0 0,1 213.425,-131.228242 L 215.725,-131.228242 A 0.7000000000000001,0.7000000000000001 0.0 0,1 216.425,-130.528242 L 216.425,-129.728242 L 218.075,-129.728242 C 218.741667,-129.728242 219.075,-130.061576 219.075,-130.728242 L 219.075,-133.490742 C 219.075,-134.157409 218.77573,-134.637569 218.173956,-134.924471 A 133.35,63.5 0.0 0,0 177.181918,-148.245195 A 133.35,63.5 0.0 0,0 123.825,-153.55 L -123.825,-153.55 A 133.35,63.5 0.0 0,0 -177.181918,-148.245195 A 133.35,63.5 0.0 0,0 -218.173956,-134.924471 C -218.77573,-134.637569 -219.075,-134.157409 -219.075,-133.490742 L -219.075,-130.728242 C -219.075,-130.061576 -218.741667,-129.728242 -218.075,-129.728242 M -64.075,-148.7875 A 2.6000000000000014,2.6000000000000014 0.0 0,1 -69.275,-148.7875 A 2.6000000000000014,2.6000000000000014 0.0 0,1 -64.075,-148.7875 M 69.275,-148.7875 A 2.6000000000000014,2.6000000000000014 0.0 0,1 64.075,-148.7875 A 2.6000000000000014,2.6000000000000014 0.0 0,1 69.275,-148.7875 M -173.6125,-143.582402 A 2.6,2.6 0.0 0,1 -178.8125,-143.582402 A 2.6,2.6 0.0 0,1 -173.6125,-143.582402 M 178.8125,-143.582402 A 2.6,2.6 0.0 0,1 173.6125,-143.582402 A 2.6,2.6 0.0 0,1 178.8125,-143.582402" />
      <path d="M -123.825,-1.5 L 123.825,-1.5 A 133.35,63.5 0.0 0,0 218.173956,-20.125529 C 218.77573,-20.412431 219.075,-20.892591 219.075,-21.559258 L 219.075,-108.440742 C 219.075,-109.107409 218.77573,-109.587569 218.173956,-109.874471 A 133.35,63.5 0.0 0,0 123.825,-128.5 L -123.825,-128.5 A 133.35,63.5 0.0 0,0 -218.173956,-109.874471 C -218.77573,-109.587569 -219.075,-109.107409 -219.075,-108.440742 L -219.075,-21.559258 C -219.075,-20.892591 -218.77573,-20.412431 -218.173956,-20.125529 A 133.35,63.5 0.0 0,0 -123.825,-1.5 M -173.6125,-118.532402 A 2.6,2.6 0.0 0,1 -178.8125,-118.532402 A 2.6,2.6 0.0 0,1 -173.6125,-118.532402 M -64.075,-123.7375 A 2.6000000000000014,2.6000000000000014 0.0 0,1 -69.275,-123.7375 A 2.6000000000000014,2.6000000000000014 0.0 0,1 -64.075,-123.7375 M 69.275,-123.7375 A 2.6000000000000014,2.6000000000000014 0.0 0,1 64.075,-123.7375 A 2.6000000000000014,2.6000000000000014 0.0 0,1 69.275,-123.7375 M 178.8125,-118.532402 A 2.6,2.6 0.0 0,1 173.6125,-118.532402 A 2.6,2.6 0.0 0,1 178.8125,-118.532402 M -174.6125,-11.467598 A 1.6,1.6 0.0 0,1 -177.8125,-11.467598 A 1.6,1.6 0.0 0,1 -174.6125,-11.467598 M -65.075,-6.2625 A 1.6000000000000012,1.6000000000000012 0.0 0,1 -68.275,-6.2625 A 1.6000000000000012,1.6000000000000012 0.0 0,1 -65.075,-6.2625 M -5.9,-19.0 A 1.1,1.1 0.0 0,1 -8.1,-19.0 A 1.1,1.1 0.0 0,1 -5.9,-19.0 M -5.9,-5.0 A 1.1,1.1 0.0 0,1 -8.1,-5.0 A 1.1,1.1 0.0 0,1 -5.9,-5.0 M 8.1,-19.0 A 1.1,1.1 0.0 0,1 5.9,-19.0 A 1.1,1.1 0.0 0,1 8.1,-19.0 M 8.1,-5.0 A 1.1,1.1 0.0 0,1 5.9,-5.0 A 1.1,1.1 0.0 0,1 8.1,-5.0 M 68.275,-6.2625 A 1.6000000000000012,1.6000000000000012 0.0 0,1 65.075,-6.2625 A 1.6000000000000012,1.6000000000000012 0.0 0,1 68.275,-6.2625 M 177.8125,-11.467598 A 1.6,1.6 0.0 0,1 174.6125,-11.467598 A 1.6,1.6 0.0 0,1 177.8125,-11.467598" />
    </g>
  </g>
</svg>