<?xml version='1.0' encoding='utf-8'?>
<svg width="439.74mm" height="304.04mm" viewBox="-219.87 -152.02 439.74 304.04" version="1.1" xmlns="http://www.w3.org/2000/svg">
  <g transform="scale(1,-1)" stroke-linecap="round">
    <g fill="none" stroke="rgb(0,0,0)" stroke-width="0.09">
      <path d="M 177.205615,135.507523 A 133.35,65.0875 0.0 0,0 218.178224,121.856747 C 218.777187,121.56402 219.075,121.080928 219.075,120.414261 L 219.075,117.651761 C 219.075,116.985094 218.741667,116.651761 218.075,116.651761 L 216.425,116.651761 L 216.425,117.151761 A 0.5,0.5 0.0 0,1 215.925,117.651761 L 213.225,117.651761 A 0.5,0.5 0.0 0,1 212.725,117.151761 L 212.725,116.651761 L 211.075,116.651761 C 210.408333,116.651761 210.075,116.985094 210.075,117.651761 L 210.075,117.952432 C 210.075,119.539932 209.348134,120.652977 207.879695,121.256171 C 200.341744,124.353452 192.029674,127.04478 183.173354,129.244579 C 181.632702,129.627393 180.827198,128.873328 179.772811,127.686558 A 4.7625,4.7625 0.0 0,0 171.671213,129.415105 C 171.193008,130.928868 170.765413,131.945967 169.203124,132.227762 C 154.742562,134.839631 139.28595,136.190858 123.825,136.1875 L 73.81875,136.1875 C 72.23125,136.1875 71.610733,135.270927 70.842187,133.881865 A 4.7625,4.7625 0.0 0,0 62.507812,133.881865 C 61.739267,135.270927 61.11875,136.1875 59.53125,136.1875 L -59.53125,136.1875 C -61.11875,136.1875 -61.739267,135.270927 -62.507813,133.881865 A 4.7625,4.7625 0.0 0,0 -70.842188,133.881865 C -71.610733,135.270927 -72.23125,136.1875 -73.81875,136.1875 L -123.825,136.1875 C -139.28595,136.190858 -154.742562,134.839631 -169.203124,132.227762 C -170.765413,131.945967 -171.193008,130.928868 -171.671213,129.415105 A 4.7625,4.7625 -167.33549633636125 0,0 -179.772811,127.686558 C -180.827198,128.873328 -181.632702,129.627393 -183.173354,129.244579 C -192.029674,127.04478 -200.341744,124.353452 -207.879695,121.256171 C -209.348134,120.652977 -210.075,119.539932 -210.075,117.952432 L -210.075,117.651761 C -210.075,116.985094 -210.408333,116.651761 -211.075,116.651761 L -212.725,116.651761 L -212.725,117.151761 A 0.5,0.5 0.0 0,1 -213.225,117.651761 L -215.925,117.651761 A 0.5,0.5 0.0 0,1 -216.425,117.151761 L -216.425,116.651761 L -218.075,116.651761 C -218.741667,116.651761 -219.075,116.985094 -219.075,117.651761 L -219.075,120.414261 C -219.075,121.080928 -218.777187,121.56402 -218.178224,121.856747 A 133.35,65.0875 0.0 0,0 -177.205615,135.507523 A 133.35,65.0875 0.0 0,0 -123.825,140.95 L 123.825,140.95 A 133.35,65.0875 0.0 0,0 177.205615,135.507523 M -174.6125,130.84972 A 1.6,1.6 0.0 0,1 -177.8125,130.84972 A 1.6,1.6 0.0 0,1 -174.6125,130.84972 M 177.8125,130.84972 A 1.6,1.6 0.0 0,1 174.6125,130.84972 A 1.6,1.6 0.0 0,1 177.8125,130.84972 M -65.075,136.1875 A 1.6000000000000012,1.6000000000000012 0.0 0,1 -68.275,136.1875 A 1.6000000000000012,1.6000000000000012 0.0 0,1 -65.075,136.1875 M 68.275,136.1875 A 1.6000000000000012,1.6000000000000012 0.0 0,1 65.075,136.1875 A 1.6000000000000012,1.6000000000000012 0.0 0,1 68.275,136.1875" />
      <path d="M -218.075,-116.651761 L -216.425,-116.651761 L -216.425,-117.151761 A 0.5,0.5 0.0 0,1 -215.925,-117.651761 L -213.225,-117.651761 A 0.5,0.5 0.0 0,1 -212.725,-117.151761 L -212.725,-116.651761 L -211.075,-116.651761 C -210.408333,-116.651761 -210.075,-116.985094 -210.075,-117.651761 L -210.075,-117.952432 C -210.075,-119.539932 -209.348134,-120.652977 -207.879695,-121.256171 C -200.341744,-124.353452 -192.029674,-127.04478 -183.173354,-129.244579 C -181.632702,-129.627393 -180.827198,-128.873328 -179.772811,-127.686558 A 4.7625,4.7625 -11.423442418499047 0,0 -171.671213,-129.415105 C -171.193008,-130.928868 -170.765413,-131.945967 -169.203124,-132.227762 C -154.742562,-134.839631 -139.28595,-136.190858 -123.825,-136.1875 L -73.81875,-136.1875 C -72.23125,-136.1875 -71.610733,-135.270927 -70.842187,-133.881865 A 4.7625,4.7625 0.0 0,0 -62.507813,-133.881865 C -61.739267,-135.270927 -61.11875,-136.1875 -59.53125,-136.1875 L 59.53125,-136.1875 C 61.11875,-136.1875 61.739267,-135.270927 62.507813,-133.881865 A 4.7625,4.7625 0.0 0,0 70.842187,-133.881865 C 71.610733,-135.270927 72.23125,-136.1875 73.81875,-136.1875 L 123.825,-136.1875 C 139.28595,-136.190858 154.742562,-134.839631 169.203124,-132.227762 C 170.765413,-131.945967 171.193008,-130.928868 171.671213,-129.415105 A 4.7625,4.7625 0.0 0,0 179.772811,-127.686558 C 180.827198,-128.873328 181.632702,-129.627393 183.173354,-129.244579 C 192.029674,-127.04478 200.341744,-124.353452 207.879695,-121.256171 C 209.348134,-120.652977 210.075,-119.539932 210.075,-117.952432 L 210.075,-117.651761 C 210.075,-116.985094 210.408333,-116.651761 211.075,-116.651761 L 212.725,-116.651761 L 212.725,-117.151761 A 0.5,0.5 0.0 0,1 213.225,-117.651761 L 215.925,-117.651761 A 0.5,0.5 0.0 0,1 216.425,-117.151761 L 216.425,-116.651761 L 218.075,-116.651761 C 218.741667,-116.651761 219.075,-116.985094 219.075,-117.651761 L 219.075,-120.414261 C 219.075,-121.080928 218.777187,-121.56402 218.178224,-121.856747 A 133.35,65.0875 0.0 0,0 177.205615,-135.507523 A 133.35,65.0875 0.0 0,0 123.825,-140.95 L -123.825,-140.95 A 133.35,65.0875 0.0 0,0 -177.205615,-135.507523 A 133.35,65.0875 0.0 0,0 -218.178224,-121.856747 C -218.777187,-121.56402 -219.075,-121.080928 -219.075,-120.414261 L -219.075,-117.651761 C -219.075,-116.985094 -218.741667,-116.651761 -218.075,-116.651761 M -65.075,-136.1875 A 1.6000000000000012,1.6000000000000012 0.0 0,1 -68.275,-136.1875 A 1.6000000000000012,1.6000000000000012 0.0 0,1 -65.075,-136.1875 M 68.275,-136.1875 A 1.6000000000000012,1.6000000000000012 0.0 0,1 65.075,-136.1875 A 1.6000000000000012,1.6000000000000012 0.0 0,1 68.275,-136.1875 M -174.6125,-130.84972 A 1.6,1.6 0.0 0,1 -177.8125,-130.84972 A 1.6,1.6 0.0 0,1 -174.6125,-130.84972 M 177.8125,-130.84972 A 1.6,1.6 0.0 0,1 174.6125,-130.84972 A 1.6,1.6 0.0 0,1 177.8125,-130.84972" />
      <path d="M -123.825,-0.5 L 123.825,-0.5 A 133.35,65.0875 0.0 0,0 218.178224,-19.593253 C 218.777187,-19.88598 219.075,-20.369072 219.075,-21.035739 L 219.075,-23.798239 C 219.075,-24.464906 218.741667,-24.798239 218.075,-24.798239 L 216.425,-24.798239 L 216.425,-24.298239 A 0.5,0.5 0.0 0,1 215.925,-23.798239 L 213.225,-23.798239 A 0.5,0.5 0.0 0,1 212.725,-24.298239 L 212.725,-24.798239 L 208.3125,-24.798239 C 207.645833,-24.798239 207.3125,-25.131572 207.3125,-25.798239 L 207.3125,-105.376761 C 207.3125,-106.043428 207.645833,-106.376761 208.3125,-106.376761 L 212.725,-106.376761 L 212.725,-106.876761 A 0.5,0.5 0.0 0,1 213.225,-107.376761 L 215.925,-107.376761 A 0.5,0.5 0.0 0,1 216.425,-106.876761 L 216.425,-106.376761 L 218.075,-106.376761 C 218.741667,-106.376761 219.075,-106.710094 219.075,-107.376761 L 219.075,-110.139261 C 219.075,-110.805928 218.777187,-111.28902 218.178224,-111.581747 A 133.35,65.0875 0.0 0,0 123.825,-130.675 L -123.825,-130.675 A 133.35,65.0875 0.0 0,0 -218.178224,-111.581747 C -218.777187,-111.28902 -219.075,-110.805928 -219.075,-110.139261 L -219.075,-107.376761 C -219.075,-106.710094 -218.741667,-106.376761 -218.075,-106.376761 L -216.425,-106.376761 L -216.425,-106.876761 A 0.5,0.5 0.0 0,1 -215.925,-107.376761 L -213.225,-107.376761 A 0.5,0.5 0.0 0,1 -212.725,-106.876761 L -212.725,-106.376761 L -208.3125,-106.376761 C -207.645833,-106.376761 -207.3125,-106.043428 -207.3125,-105.376761 L -207.3125,-25.798239 C -207.3125,-25.131572 -207.645833,-24.798239 -208.3125,-24.798239 L -212.725,-24.798239 L -212.725,-24.298239 A 0.5,0.5 0.0 0,1 -213.225,-23.798239 L -215.925,-23.798239 A 0.5,0.5 0.0 0,1 -216.425,-24.298239 L -216.425,-24.798239 L -218.075,-24.798239 C -218.741667,-24.798239 -219.075,-24.464906 -219.075,-23.798239 L -219.075,-21.035739 C -219.075,-20.369072 -218.777187,-19.88598 -218.178224,-19.593253 A 133.35,65.0875 0.0 0,0 -123.825,-0.5 M -174.6125,-120.57472 A 1.6,1.6 0.0 0,1 -177.8125,-120.57472 A 1.6,1.6 0.0 0,1 -174.6125,-120.57472 M -202.2625,-107.1 C -202.2625,-107.571405 -202.498202,-108.14044 -202.469607,-108.6 A 0.7071067811865476,0.7071067811865476 -89.99999999970163 0,1 -201.7625,-109.307107 C -201.30294,-109.335702 -200.733905,-109.1 -200.2625,-109.1 L -190.2625,-109.1 C -189.791095,-109.1 -189.22206,-109.335702 -188.7625,-109.307107 A 0.7071067811865476,0.7071067811865476 2.733334653626473e-10 0,1 -188.055393,-108.6 C -188.026798,-108.14044 -188.2625,-107.571405 -188.2625,-107.1 L -188.2625,-97.1 C -188.2625,-96.628595 -188.026798,-96.05956 -188.055393,-95.6 A 0.7071067811865476,0.7071067811865476 90.00000000026822 0,1 -188.7625,-94.892893 C -189.22206,-94.864298 -189.791095,-95.1 -190.2625,-95.1 L -200.2625,-95.1 C -200.733905,-95.1 -201.30294,-94.864298 -201.7625,-94.892893 A 0.7071067811865476,0.7071067811865476 -179.99999999972437 0,1 -202.469607,-95.6 C -202.498202,-96.05956 -202.2625,-96.628595 -202.2625,-97.1 L -202.2625,-107.1 M -183.2125,-107.1 C -183.2125,-107.571405 -183.448202,-108.14044 -183.419607,-108.6 A 0.7071067811865476,0.7071067811865476 -89.99999999970163 0,1 -182.7125,-109.307107 C -182.25294,-109.335702 -181.683905,-109.1 -181.2125,-109.1 L -171.2125,-109.1 C -170.741095,-109.1 -170.17206,-109.335702 -169.7125,-109.307107 A 0.7071067811865476,0.7071067811865476 2.733334653626473e-10 0,1 -169.005393,-108.6 C -168.976798,-108.14044 -169.2125,-107.571405 -169.2125,-107.1 L -169.2125,-97.1 C -169.2125,-96.628595 -168.976798,-96.05956 -169.005393,-95.6 A 0.7071067811865476,0.7071067811865476 90.00000000026822 0,1 -169.7125,-94.892893 C -170.17206,-94.864298 -170.741095,-95.1 -171.2125,-95.1 L -181.2125,-95.1 C -181.683905,-95.1 -182.25294,-94.864298 -182.7125,-94.892893 A 0.7071067811865476,0.7071067811865476 -179.99999999972437 0,1 -183.419607,-95.6 C -183.448202,-96.05956 -183.2125,-96.628595 -183.2125,-97.1 L -183.2125,-107.1 M -164.1625,-107.1 C -164.1625,-107.571405 -164.398202,-108.14044 -164.369607,-108.6 A 0.7071067811865476,0.7071067811865476 -89.99999999970163 0,1 -163.6625,-109.307107 C -163.20294,-109.335702 -162.633905,-109.1 -162.1625,-109.1 L -152.1625,-109.1 C -151.691095,-109.1 -151.12206,-109.335702 -150.6625,-109.307107 A 0.7071067811865476,0.7071067811865476 2.733334653626473e-10 0,1 -149.955393,-108.6 C -149.926798,-108.14044 -150.1625,-107.571405 -150.1625,-107.1 L -150.1625,-97.1 C -150.1625,-96.628595 -149.926798,-96.05956 -149.955393,-95.6 A 0.7071067811865476,0.7071067811865476 90.00000000026822 0,1 -150.6625,-94.892893 C -151.12206,-94.864298 -151.691095,-95.1 -152.1625,-95.1 L -162.1625,-95.1 C -162.633905,-95.1 -163.20294,-94.864298 -163.6625,-94.892893 A 0.7071067811865476,0.7071067811865476 -179.99999999972437 0,1 -164.369607,-95.6 C -164.398202,-96.05956 -164.1625,-96.628595 -164.1625,-97.1 L -164.1625,-107.1 M -137.96875,-116.625 C -137.96875,-117.096405 -138.204452,-117.66544 -138.175857,-118.125 A 0.7071067811865476,0.7071067811865476 -89.99999999970163 0,1 -137.46875,-118.832107 C -137.00919,-118.860702 -136.440155,-118.625 -135.96875,-118.625 L -125.96875,-118.625 C -125.497345,-118.625 -124.92831,-118.860702 -124.46875,-118.832107 A 0.7071067811865476,0.7071067811865476 2.733334653626473e-10 0,1 -123.761643,-118.125 C -123.733048,-117.66544 -123.96875,-117.096405 -123.96875,-116.625 L -123.96875,-106.625 C -123.96875,-106.153595 -123.733048,-105.58456 -123.761643,-105.125 A 0.7071067811865476,0.7071067811865476 90.00000000026822 0,1 -124.46875,-104.417893 C -124.92831,-104.389298 -125.497345,-104.625 -125.96875,-104.625 L -135.96875,-104.625 C -136.440155,-104.625 -137.00919,-104.389298 -137.46875,-104.417893 A 0.7071067811865476,0.7071067811865476 -179.99999999972437 0,1 -138.175857,-105.125 C -138.204452,-105.58456 -137.96875,-106.153595 -137.96875,-106.625 L -137.96875,-116.625 M -114.15625,-116.625 C -114.15625,-117.096405 -114.391952,-117.66544 -114.363357,-118.125 A 0.7071067811865476,0.7071067811865476 -89.99999999970163 0,1 -113.65625,-118.832107 C -113.19669,-118.860702 -112.627655,-118.625 -112.15625,-118.625 L -102.15625,-118.625 C -101.684845,-118.625 -101.11581,-118.860702 -100.65625,-118.832107 A 0.7071067811865476,0.7071067811865476 2.733334653626473e-10 0,1 -99.949143,-118.125 C -99.920548,-117.66544 -100.15625,-117.096405 -100.15625,-116.625 L -100.15625,-106.625 C -100.15625,-106.153595 -99.920548,-105.58456 -99.949143,-105.125 A 0.7071067811865476,0.7071067811865476 90.00000000026822 0,1 -100.65625,-104.417893 C -101.11581,-104.389298 -101.684845,-104.625 -102.15625,-104.625 L -112.15625,-104.625 C -112.627655,-104.625 -113.19669,-104.389298 -113.65625,-104.417893 A 0.7071067811865476,0.7071067811865476 -179.99999999972437 0,1 -114.363357,-105.125 C -114.391952,-105.58456 -114.15625,-106.153595 -114.15625,-106.625 L -114.15625,-116.625 M -65.075,-125.9125 A 1.6000000000000012,1.6000000000000012 0.0 0,1 -68.275,-125.9125 A 1.6000000000000012,1.6000000000000012 0.0 0,1 -65.075,-125.9125 M -87.9625,-116.625 C -87.9625,-117.096405 -88.198202,-117.66544 -88.169607,-118.125 A 0.7071067811865476,0.7071067811865476 -89.99999999970163 0,1 -87.4625,-118.832107 C -87.00294,-118.860702 -86.433905,-118.625 -85.9625,-118.625 L -75.9625,-118.625 C -75.491095,-118.625 -74.92206,-118.860702 -74.4625,-118.832107 A 0.7071067811865476,0.7071067811865476 2.733334653626473e-10 0,1 -73.755393,-118.125 C -73.726798,-117.66544 -73.9625,-117.096405 -73.9625,-116.625 L -73.9625,-106.625 C -73.9625,-106.153595 -73.726798,-105.58456 -73.755393,-105.125 A 0.7071067811865476,0.7071067811865476 90.00000000026822 0,1 -74.4625,-104.417893 C -74.92206,-104.389298 -75.491095,-104.625 -75.9625,-104.625 L -85.9625,-104.625 C -86.433905,-104.625 -87.00294,-104.389298 -87.4625,-104.417893 A 0.7071067811865476,0.7071067811865476 -179.99999999972437 0,1 -88.169607,-105.125 C -88.198202,-105.58456 -87.9625,-106.153595 -87.9625,-106.625 L -87.9625,-116.625 M -60.65,-117.625 A 2.0,2.0 0.0 0,1 -58.65,-119.625 L -55.65,-119.625 A 2.0,2.0 0.0 0,1 -53.65,-117.625 L -53.65,-105.625 A 2.0,2.0 0.0 0,1 -55.65,-103.625 L -58.65,-103.625 A 2.0,2.0 0.0 0,1 -60.65,-105.625 L -60.65,-117.625 M -202.2625,-88.05 C -202.2625,-88.521405 -202.498202,-89.09044 -202.469607,-89.55 A 0.7071067811865476,0.7071067811865476 -89.99999999970163 0,1 -201.7625,-90.257107 C -201.30294,-90.285702 -200.733905,-90.05 -200.2625,-90.05 L -190.2625,-90.05 C -189.791095,-90.05 -189.22206,-90.285702 -188.7625,-90.257107 A 0.7071067811865476,0.7071067811865476 2.733334653626473e-10 0,1 -188.055393,-89.55 C -188.026798,-89.09044 -188.2625,-88.521405 -188.2625,-88.05 L -188.2625,-78.05 C -188.2625,-77.578595 -188.026798,-77.00956 -188.055393,-76.55 A 0.7071067811865476,0.7071067811865476 90.00000000026822 0,1 -188.7625,-75.842893 C -189.22206,-75.814298 -189.791095,-76.05 -190.2625,-76.05 L -200.2625,-76.05 C -200.733905,-76.05 -201.30294,-75.814298 -201.7625,-75.842893 A 0.7071067811865476,0.7071067811865476 -179.99999999972437 0,1 -202.469607,-76.55 C -202.498202,-77.00956 -202.2625,-77.578595 -202.2625,-78.05 L -202.2625,-88.05 M -183.2125,-88.05 C -183.2125,-88.521405 -183.448202,-89.09044 -183.419607,-89.55 A 0.7071067811865476,0.7071067811865476 -89.99999999970163 0,1 -182.7125,-90.257107 C -182.25294,-90.285702 -181.683905,-90.05 -181.2125,-90.05 L -171.2125,-90.05 C -170.741095,-90.05 -170.17206,-90.285702 -169.7125,-90.257107 A 0.7071067811865476,0.7071067811865476 2.733334653626473e-10 0,1 -169.005393,-89.55 C -168.976798,-89.09044 -169.2125,-88.521405 -169.2125,-88.05 L -169.2125,-78.05 C -169.2125,-77.578595 -168.976798,-77.00956 -169.005393,-76.55 A 0.7071067811865476,0.7071067811865476 90.00000000026822 0,1 -169.7125,-75.842893 C -170.17206,-75.814298 -170.741095,-76.05 -171.2125,-76.05 L -181.2125,-76.05 C -181.683905,-76.05 -182.25294,-75.814298 -182.7125,-75.842893 A 0.7071067811865476,0.7071067811865476 -179.99999999972437 0,1 -183.419607,-76.55 C -183.448202,-77.00956 -183.2125,-77.578595 -183.2125,-78.05 L -183.2125,-88.05 M -164.1625,-88.05 C -164.1625,-88.521405 -164.398202,-89.09044 -164.369607,-89.55 A 0.7071067811865476,0.7071067811865476 -89.99999999970163 0,1 -163.6625,-90.257107 C -163.20294,-90.285702 -162.633905,-90.05 -162.1625,-90.05 L -152.1625,-90.05 C -151.691095,-90.05 -151.12206,-90.285702 -150.6625,-90.257107 A 0.7071067811865476,0.7071067811865476 2.733334653626473e-10 0,1 -149.955393,-89.55 C -149.926798,-89.09044 -150.1625,-88.521405 -150.1625,-88.05 L -150.1625,-78.05 C -150.1625,-77.578595 -149.926798,-77.00956 -149.955393,-76.55 A 0.7071067811865476,0.7071067811865476 90.00000000026822 0,1 -150.6625,-75.842893 C -151.12206,-75.814298 -151.691095,-76.05 -152.1625,-76.05 L -162.1625,-76.05 C -162.633905,-76.05 -163.20294,-75.814298 -163.6625,-75.842893 A 0.7071067811865476,0.7071067811865476 -179.99999999972437 0,1 -164.369607,-76.55 C -164.398202,-77.00956 -164.1625,-77.578595 -164.1625,-78.05 L -164.1625,-88.05 M -136.85,-98.575 A 2.0,2.0 0.0 0,1 -134.85,-100.575 L -131.85,-100.575 A 2.0,2.0 0.0 0,1 -129.85,-98.575 L -129.85,-86.575 A 2.0,2.0 0.0 0,1 -131.85,-84.575 L -134.85,-84.575 A 2.0,2.0 0.0 0,1 -136.85,-86.575 L -136.85,-98.575 M -128.44375,-97.575 C -128.44375,-98.046405 -128.679452,-98.61544 -128.650857,-99.075 A 0.7071067811865476,0.7071067811865476 -89.99999999970163 0,1 -127.94375,-99.782107 C -127.48419,-99.810702 -126.915155,-99.575 -126.44375,-99.575 L -116.44375,-99.575 C -115.972345,-99.575 -115.40331,-99.810702 -114.94375,-99.782107 A 0.7071067811865476,0.7071067811865476 2.733334653626473e-10 0,1 -114.236643,-99.075 C -114.208048,-98.61544 -114.44375,-98.046405 -114.44375,-97.575 L -114.44375,-87.575 C -114.44375,-87.103595 -114.208048,-86.53456 -114.236643,-86.075 A 0.7071067811865476,0.7071067811865476 90.00000000026822 0,1 -114.94375,-85.367893 C -115.40331,-85.339298 -115.972345,-85.575 -116.44375,-85.575 L -126.44375,-85.575 C -126.915155,-85.575 -127.48419,-85.339298 -127.94375,-85.367893 A 0.7071067811865476,0.7071067811865476 -179.99999999972437 0,1 -128.650857,-86.075 C -128.679452,-86.53456 -128.44375,-87.103595 -128.44375,-87.575 L -128.44375,-97.575 M -113.0375,-98.575 A 2.0,2.0 0.0 0,1 -111.0375,-100.575 L -108.0375,-100.575 A 2.0,2.0 0.0 0,1 -106.0375,-98.575 L -106.0375,-86.575 A 2.0,2.0 0.0 0,1 -108.0375,-84.575 L -111.0375,-84.575 A 2.0,2.0 0.0 0,1 -113.0375,-86.575 L -113.0375,-98.575 M -133.20625,-78.525 C -133.20625,-78.996405 -133.441952,-79.56544 -133.413357,-80.025 A 0.7071067811865476,0.7071067811865476 -89.99999999970163 0,1 -132.70625,-80.732107 C -132.24669,-80.760702 -131.677655,-80.525 -131.20625,-80.525 L -121.20625,-80.525 C -120.734845,-80.525 -120.16581,-80.760702 -119.70625,-80.732107 A 0.7071067811865476,0.7071067811865476 2.733334653626473e-10 0,1 -118.999143,-80.025 C -118.970548,-79.56544 -119.20625,-78.996405 -119.20625,-78.525 L -119.20625,-68.525 C -119.20625,-68.053595 -118.970548,-67.48456 -118.999143,-67.025 A 0.7071067811865476,0.7071067811865476 90.00000000026822 0,1 -119.70625,-66.317893 C -120.16581,-66.289298 -120.734845,-66.525 -121.20625,-66.525 L -131.20625,-66.525 C -131.677655,-66.525 -132.24669,-66.289298 -132.70625,-66.317893 A 0.7071067811865476,0.7071067811865476 -179.99999999972437 0,1 -133.413357,-67.025 C -133.441952,-67.48456 -133.20625,-68.053595 -133.20625,-68.525 L -133.20625,-78.525 M -97.4875,-97.575 C -97.4875,-98.046405 -97.723202,-98.61544 -97.694607,-99.075 A 0.7071067811865476,0.7071067811865476 -89.99999999970163 0,1 -96.9875,-99.782107 C -96.52794,-99.810702 -95.958905,-99.575 -95.4875,-99.575 L -85.4875,-99.575 C -85.016095,-99.575 -84.44706,-99.810702 -83.9875,-99.782107 A 0.7071067811865476,0.7071067811865476 2.733334653626473e-10 0,1 -83.280393,-99.075 C -83.251798,-98.61544 -83.4875,-98.046405 -83.4875,-97.575 L -83.4875,-87.575 C -83.4875,-87.103595 -83.251798,-86.53456 -83.280393,-86.075 A 0.7071067811865476,0.7071067811865476 90.00000000026822 0,1 -83.9875,-85.367893 C -84.44706,-85.339298 -85.016095,-85.575 -85.4875,-85.575 L -95.4875,-85.575 C -95.958905,-85.575 -96.52794,-85.339298 -96.9875,-85.367893 A 0.7071067811865476,0.7071067811865476 -179.99999999972437 0,1 -97.694607,-86.075 C -97.723202,-86.53456 -97.4875,-87.103595 -97.4875,-87.575 L -97.4875,-97.575 M -78.4375,-97.575 C -78.4375,-98.046405 -78.673202,-98.61544 -78.644607,-99.075 A 0.7071067811865476,0.7071067811865476 -89.99999999970163 0,1 -77.9375,-99.782107 C -77.47794,-99.810702 -76.908905,-99.575 -76.4375,-99.575 L -66.4375,-99.575 C -65.966095,-99.575 -65.39706,-99.810702 -64.9375,-99.782107 A 0.7071067811865476,0.7071067811865476 2.733334653626473e-10 0,1 -64.230393,-99.075 C -64.201798,-98.61544 -64.4375,-98.046405 -64.4375,-97.575 L -64.4375,-87.575 C -64.4375,-87.103595 -64.201798,-86.53456 -64.230393,-86.075 A 0.7071067811865476,0.7071067811865476 90.00000000026822 0,1 -64.9375,-85.367893 C -65.39706,-85.339298 -65.966095,-85.575 -66.4375,-85.575 L -76.4375,-85.575 C -76.908905,-85.575 -77.47794,-85.339298 -77.9375,-85.367893 A 0.7071067811865476,0.7071067811865476 -179.99999999972437 0,1 -78.644607,-86.075 C -78.673202,-86.53456 -78.4375,-87.103595 -78.4375,-87.575 L -78.4375,-97.575 M -59.3875,-97.575 C -59.3875,-98.046405 -59.623202,-98.61544 -59.594607,-99.075 A 0.7071067811865476,0.7071067811865476 -89.99999999970163 0,1 -58.8875,-99.782107 C -58.42794,-99.810702 -57.858905,-99.575 -57.3875,-99.575 L -47.3875,-99.575 C -46.916095,-99.575 -46.34706,-99.810702 -45.8875,-99.782107 A 0.7071067811865476,0.7071067811865476 2.733334653626473e-10 0,1 -45.180393,-99.075 C -45.151798,-98.61544 -45.3875,-98.046405 -45.3875,-97.575 L -45.3875,-87.575 C -45.3875,-87.103595 -45.151798,-86.53456 -45.180393,-86.075 A 0.7071067811865476,0.7071067811865476 90.00000000026822 0,1 -45.8875,-85.367893 C -46.34706,-85.339298 -46.916095,-85.575 -47.3875,-85.575 L -57.3875,-85.575 C -57.858905,-85.575 -58.42794,-85.339298 -58.8875,-85.367893 A 0.7071067811865476,0.7071067811865476 -179.99999999972437 0,1 -59.594607,-86.075 C -59.623202,-86.53456 -59.3875,-87.103595 -59.3875,-87.575 L -59.3875,-97.575 M -40.3375,-97.575 C -40.3375,-98.046405 -40.573202,-98.61544 -40.544607,-99.075 A 0.7071067811865476,0.7071067811865476 -89.99999999970163 0,1 -39.8375,-99.782107 C -39.37794,-99.810702 -38.808905,-99.575 -38.3375,-99.575 L -28.3375,-99.575 C -27.866095,-99.575 -27.29706,-99.810702 -26.8375,-99.782107 A 0.7071067811865476,0.7071067811865476 2.733334653626473e-10 0,1 -26.130393,-99.075 C -26.101798,-98.61544 -26.3375,-98.046405 -26.3375,-97.575 L -26.3375,-87.575 C -26.3375,-87.103595 -26.101798,-86.53456 -26.130393,-86.075 A 0.7071067811865476,0.7071067811865476 90.00000000026822 0,1 -26.8375,-85.367893 C -27.29706,-85.339298 -27.866095,-85.575 -28.3375,-85.575 L -38.3375,-85.575 C -38.808905,-85.575 -39.37794,-85.339298 -39.8375,-85.367893 A 0.7071067811865476,0.7071067811865476 -179.99999999972437 0,1 -40.544607,-86.075 C -40.573202,-86.53456 -40.3375,-87.103595 -40.3375,-87.575 L -40.3375,-97.575 M -21.2875,-97.575 C -21.2875,-98.046405 -21.523202,-98.61544 -21.494607,-99.075 A 0.7071067811865476,0.7071067811865476 -89.99999999970163 0,1 -20.7875,-99.782107 C -20.32794,-99.810702 -19.758905,-99.575 -19.2875,-99.575 L -9.2875,-99.575 C -8.816095,-99.575 -8.24706,-99.810702 -7.7875,-99.782107 A 0.7071067811865476,0.7071067811865476 2.733334653626473e-10 0,1 -7.080393,-99.075 C -7.051798,-98.61544 -7.2875,-98.046405 -7.2875,-97.575 L -7.2875,-87.575 C -7.2875,-87.103595 -7.051798,-86.53456 -7.080393,-86.075 A 0.7071067811865476,0.7071067811865476 90.00000000026822 0,1 -7.7875,-85.367893 C -8.24706,-85.339298 -8.816095,-85.575 -9.2875,-85.575 L -19.2875,-85.575 C -19.758905,-85.575 -20.32794,-85.339298 -20.7875,-85.367893 A 0.7071067811865476,0.7071067811865476 -179.99999999972437 0,1 -21.494607,-86.075 C -21.523202,-86.53456 -21.2875,-87.103595 -21.2875,-87.575 L -21.2875,-97.575 M -107.0125,-78.525 C -107.0125,-78.996405 -107.248202,-79.56544 -107.219607,-80.025 A 0.7071067811865476,0.7071067811865476 -89.99999999970163 0,1 -106.5125,-80.732107 C -106.05294,-80.760702 -105.483905,-80.525 -105.0125,-80.525 L -95.0125,-80.525 C -94.541095,-80.525 -93.97206,-80.760702 -93.5125,-80.732107 A 0.7071067811865476,0.7071067811865476 2.733334653626473e-10 0,1 -92.805393,-80.025 C -92.776798,-79.56544 -93.0125,-78.996405 -93.0125,-78.525 L -93.0125,-68.525 C -93.0125,-68.053595 -92.776798,-67.48456 -92.805393,-67.025 A 0.7071067811865476,0.7071067811865476 90.00000000026822 0,1 -93.5125,-66.317893 C -93.97206,-66.289298 -94.541095,-66.525 -95.0125,-66.525 L -105.0125,-66.525 C -105.483905,-66.525 -106.05294,-66.289298 -106.5125,-66.317893 A 0.7071067811865476,0.7071067811865476 -179.99999999972437 0,1 -107.219607,-67.025 C -107.248202,-67.48456 -107.0125,-68.053595 -107.0125,-68.525 L -107.0125,-78.525 M -87.9625,-78.525 C -87.9625,-78.996405 -88.198202,-79.56544 -88.169607,-80.025 A 0.7071067811865476,0.7071067811865476 -89.99999999970163 0,1 -87.4625,-80.732107 C -87.00294,-80.760702 -86.433905,-80.525 -85.9625,-80.525 L -75.9625,-80.525 C -75.491095,-80.525 -74.92206,-80.760702 -74.4625,-80.732107 A 0.7071067811865476,0.7071067811865476 2.733334653626473e-10 0,1 -73.755393,-80.025 C -73.726798,-79.56544 -73.9625,-78.996405 -73.9625,-78.525 L -73.9625,-68.525 C -73.9625,-68.053595 -73.726798,-67.48456 -73.755393,-67.025 A 0.7071067811865476,0.7071067811865476 90.00000000026822 0,1 -74.4625,-66.317893 C -74.92206,-66.289298 -75.491095,-66.525 -75.9625,-66.525 L -85.9625,-66.525 C -86.433905,-66.525 -87.00294,-66.289298 -87.4625,-66.317893 A 0.7071067811865476,0.7071067811865476 -179.99999999972437 0,1 -88.169607,-67.025 C -88.198202,-67.48456 -87.9625,-68.053595 -87.9625,-68.525 L -87.9625,-78.525 M -68.9125,-78.525 C -68.9125,-78.996405 -69.148202,-79.56544 -69.119607,-80.025 A 0.7071067811865476,0.7071067811865476 -89.99999999970163 0,1 -68.4125,-80.732107 C -67.95294,-80.760702 -67.383905,-80.525 -66.9125,-80.525 L -56.9125,-80.525 C -56.441095,-80.525 -55.87206,-80.760702 -55.4125,-80.732107 A 0.7071067811865476,0.7071067811865476 2.733334653626473e-10 0,1 -54.705393,-80.025 C -54.676798,-79.56544 -54.9125,-78.996405 -54.9125,-78.525 L -54.9125,-68.525 C -54.9125,-68.053595 -54.676798,-67.48456 -54.705393,-67.025 A 0.7071067811865476,0.7071067811865476 90.00000000026822 0,1 -55.4125,-66.317893 C -55.87206,-66.289298 -56.441095,-66.525 -56.9125,-66.525 L -66.9125,-66.525 C -67.383905,-66.525 -67.95294,-66.289298 -68.4125,-66.317893 A 0.7071067811865476,0.7071067811865476 -179.99999999972437 0,1 -69.119607,-67.025 C -69.148202,-67.48456 -68.9125,-68.053595 -68.9125,-68.525 L -68.9125,-78.525 M -49.8625,-78.525 C -49.8625,-78.996405 -50.098202,-79.56544 -50.069607,-80.025 A 0.7071067811865476,0.7071067811865476 -89.99999999970163 0,1 -49.3625,-80.732107 C -48.90294,-80.760702 -48.333905,-80.525 -47.8625,-80.525 L -37.8625,-80.525 C -37.391095,-80.525 -36.82206,-80.760702 -36.3625,-80.732107 A 0.7071067811865476,0.7071067811865476 2.733334653626473e-10 0,1 -35.655393,-80.025 C -35.626798,-79.56544 -35.8625,-78.996405 -35.8625,-78.525 L -35.8625,-68.525 C -35.8625,-68.053595 -35.626798,-67.48456 -35.655393,-67.025 A 0.7071067811865476,0.7071067811865476 90.00000000026822 0,1 -36.3625,-66.317893 C -36.82206,-66.289298 -37.391095,-66.525 -37.8625,-66.525 L -47.8625,-66.525 C -48.333905,-66.525 -48.90294,-66.289298 -49.3625,-66.317893 A 0.7071067811865476,0.7071067811865476 -179.99999999972437 0,1 -50.069607,-67.025 C -50.098202,-67.48456 -49.8625,-68.053595 -49.8625,-68.525 L -49.8625,-78.525 M -30.8125,-78.525 C -30.8125,-78.996405 -31.048202,-79.56544 -31.019607,-80.025 A 0.7071067811865476,0.7071067811865476 -89.99999999970163 0,1 -30.3125,-80.732107 C -29.85294,-80.760702 -29.283905,-80.525 -28.8125,-80.525 L -18.8125,-80.525 C -18.341095,-80.525 -17.77206,-80.760702 -17.3125,-80.732107 A 0.7071067811865476,0.7071067811865476 2.733334653626473e-10 0,1 -16.605393,-80.025 C -16.576798,-79.56544 -16.8125,-78.996405 -16.8125,-78.525 L -16.8125,-68.525 C -16.8125,-68.053595 -16.576798,-67.48456 -16.605393,-67.025 A 0.7071067811865476,0.7071067811865476 90.00000000026822 0,1 -17.3125,-66.317893 C -17.77206,-66.289298 -18.341095,-66.525 -18.8125,-66.525 L -28.8125,-66.525 C -29.283905,-66.525 -29.85294,-66.289298 -30.3125,-66.317893 A 0.7071067811865476,0.7071067811865476 -179.99999999972437 0,1 -31.019607,-67.025 C -31.048202,-67.48456 -30.8125,-68.053595 -30.8125,-68.525 L -30.8125,-78.525 M -11.7625,-78.525 C -11.7625,-78.996405 -11.998202,-79.56544 -11.969607,-80.025 A 0.7071067811865476,0.7071067811865476 -89.99999999970163 0,1 -11.2625,-80.732107 C -10.80294,-80.760702 -10.233905,-80.525 -9.7625,-80.525 L 0.2375,-80.525 C 0.708905,-80.525 1.27794,-80.760702 1.7375,-80.732107 A 0.7071067811865476,0.7071067811865476 2.733334653626473e-10 0,1 2.444607,-80.025 C 2.473202,-79.56544 2.2375,-78.996405 2.2375,-78.525 L 2.2375,-68.525 C 2.2375,-68.053595 2.473202,-67.48456 2.444607,-67.025 A 0.7071067811865476,0.7071067811865476 90.00000000026822 0,1 1.7375,-66.317893 C 1.27794,-66.289298 0.708905,-66.525 0.2375,-66.525 L -9.7625,-66.525 C -10.233905,-66.525 -10.80294,-66.289298 -11.2625,-66.317893 A 0.7071067811865476,0.7071067811865476 -179.99999999972437 0,1 -11.969607,-67.025 C -11.998202,-67.48456 -11.7625,-68.053595 -11.7625,-68.525 L -11.7625,-78.525 M 68.275,-125.9125 A 1.6000000000000012,1.6000000000000012 0.0 0,1 65.075,-125.9125 A 1.6000000000000012,1.6000000000000012 0.0 0,1 68.275,-125.9125 M -7.0,-116.625 C -7.0,-117.096405 -7.235702,-117.66544 -7.207107,-118.125 A 0.7071067811865476,0.7071067811865476 -89.99999999970163 0,1 -6.5,-118.832107 C -6.04044,-118.860702 -5.471405,-118.625 -5.0,-118.625 L 5.0,-118.625 C 5.471405,-118.625 6.04044,-118.860702 6.5,-118.832107 A 0.7071067811865476,0.7071067811865476 2.733334653626473e-10 0,1 7.207107,-118.125 C 7.235702,-117.66544 7.0,-117.096405 7.0,-116.625 L 7.0,-106.625 C 7.0,-106.153595 7.235702,-105.58456 7.207107,-105.125 A 0.7071067811865476,0.7071067811865476 90.00000000026822 0,1 6.5,-104.417893 C 6.04044,-104.389298 5.471405,-104.625 5.0,-104.625 L -5.0,-104.625 C -5.471405,-104.625 -6.04044,-104.389298 -6.5,-104.417893 A 0.7071067811865476,0.7071067811865476 -179.99999999972437 0,1 -7.207107,-105.125 C -7.235702,-105.58456 -7.0,-106.153595 -7.0,-106.625 L -7.0,-116.625 M 53.65,-117.625 A 2.0,2.0 0.0 0,1 55.65,-119.625 L 58.65,-119.625 A 2.0,2.0 0.0 0,1 60.65,-117.625 L 60.65,-105.625 A 2.0,2.0 0.0 0,1 58.65,-103.625 L 55.65,-103.625 A 2.0,2.0 0.0 0,1 53.65,-105.625 L 53.65,-117.625 M 73.9625,-116.625 C 73.9625,-117.096405 73.726798,-117.66544 73.755393,-118.125 A 0.7071067811865476,0.7071067811865476 -89.99999999970163 0,1 74.4625,-118.832107 C 74.92206,-118.860702 75.491095,-118.625 75.9625,-118.625 L 85.9625,-118.625 C 86.433905,-118.625 87.00294,-118.860702 87.4625,-118.832107 A 0.7071067811865476,0.7071067811865476 2.733334653626473e-10 0,1 88.169607,-118.125 C 88.198202,-117.66544 87.9625,-117.096405 87.9625,-116.625 L 87.9625,-106.625 C 87.9625,-106.153595 88.198202,-105.58456 88.169607,-105.125 A 0.7071067811865476,0.7071067811865476 90.00000000026822 0,1 87.4625,-104.417893 C 87.00294,-104.389298 86.433905,-104.625 85.9625,-104.625 L 75.9625,-104.625 C 75.491095,-104.625 74.92206,-104.389298 74.4625,-104.417893 A 0.7071067811865476,0.7071067811865476 -179.99999999972437 0,1 73.755393,-105.125 C 73.726798,-105.58456 73.9625,-106.153595 73.9625,-106.625 L 73.9625,-116.625 M 177.8125,-120.57472 A 1.6,1.6 0.0 0,1 174.6125,-120.57472 A 1.6,1.6 0.0 0,1 177.8125,-120.57472 M 100.15625,-116.625 C 100.15625,-117.096405 99.920548,-117.66544 99.949143,-118.125 A 0.7071067811865476,0.7071067811865476 -89.99999999970163 0,1 100.65625,-118.832107 C 101.11581,-118.860702 101.684845,-118.625 102.15625,-118.625 L 112.15625,-118.625 C 112.627655,-118.625 113.19669,-118.860702 113.65625,-118.832107 A 0.7071067811865476,0.7071067811865476 2.733334653626473e-10 0,1 114.363357,-118.125 C 114.391952,-117.66544 114.15625,-117.096405 114.15625,-116.625 L 114.15625,-106.625 C 114.15625,-106.153595 114.391952,-105.58456 114.363357,-105.125 A 0.7071067811865476,0.7071067811865476 90.00000000026822 0,1 113.65625,-104.417893 C 113.19669,-104.389298 112.627655,-104.625 112.15625,-104.625 L 102.15625,-104.625 C 101.684845,-104.625 101.11581,-104.389298 100.65625,-104.417893 A 0.7071067811865476,0.7071067811865476 -179.99999999972437 0,1 99.949143,-105.125 C 99.920548,-105.58456 100.15625,-106.153595 100.15625,-106.625 L 100.15625,-116.625 M 123.96875,-116.625 C 123.96875,-117.096405 123.733048,-117.66544 123.761643,-118.125 A 0.7071067811865476,0.7071067811865476 -89.99999999970163 0,1 124.46875,-118.832107 C 124.92831,-118.860702 125.497345,-118.625 125.96875,-118.625 L 135.96875,-118.625 C 136.440155,-118.625 137.00919,-118.860702 137.46875,-118.832107 A 0.7071067811865476,0.7071067811865476 2.733334653626473e-10 0,1 138.175857,-118.125 C 138.204452,-117.66544 137.96875,-117.096405 137.96875,-116.625 L 137.96875,-106.625 C 137.96875,-106.153595 138.204452,-105.58456 138.175857,-105.125 A 0.7071067811865476,0.7071067811865476 90.00000000026822 0,1 137.46875,-104.417893 C 137.00919,-104.389298 136.440155,-104.625 135.96875,-104.625 L 125.96875,-104.625 C 125.497345,-104.625 124.92831,-104.389298 124.46875,-104.417893 A 0.7071067811865476,0.7071067811865476 -179.99999999972437 0,1 123.761643,-105.125 C 123.733048,-105.58456 123.96875,-106.153595 123.96875,-106.625 L 123.96875,-116.625 M 150.1625,-107.1 C 150.1625,-107.571405 149.926798,-108.14044 149.955393,-108.6 A 0.7071067811865476,0.7071067811865476 -89.99999999970163 0,1 150.6625,-109.307107 C 151.12206,-109.335702 151.691095,-109.1 152.1625,-109.1 L 162.1625,-109.1 C 162.633905,-109.1 163.20294,-109.335702 163.6625,-109.307107 A 0.7071067811865476,0.7071067811865476 2.733334653626473e-10 0,1 164.369607,-108.6 C 164.398202,-108.14044 164.1625,-107.571405 164.1625,-107.1 L 164.1625,-97.1 C 164.1625,-96.628595 164.398202,-96.05956 164.369607,-95.6 A 0.7071067811865476,0.7071067811865476 90.00000000026822 0,1 163.6625,-94.892893 C 163.20294,-94.864298 162.633905,-95.1 162.1625,-95.1 L 152.1625,-95.1 C 151.691095,-95.1 151.12206,-94.864298 150.6625,-94.892893 A 0.7071067811865476,0.7071067811865476 -179.99999999972437 0,1 149.955393,-95.6 C 149.926798,-96.05956 150.1625,-96.628595 150.1625,-97.1 L 150.1625,-107.1 M 169.2125,-107.1 C 169.2125,-107.571405 168.976798,-108.14044 169.005393,-108.6 A 0.7071067811865476,0.7071067811865476 -89.99999999970163 0,1 169.7125,-109.307107 C 170.17206,-109.335702 170.741095,-109.1 171.2125,-109.1 L 181.2125,-109.1 C 181.683905,-109.1 182.25294,-109.335702 182.7125,-109.307107 A 0.7071067811865476,0.7071067811865476 2.733334653626473e-10 0,1 183.419607,-108.6 C 183.448202,-108.14044 183.2125,-107.571405 183.2125,-107.1 L 183.2125,-97.1 C 183.2125,-96.628595 183.448202,-96.05956 183.419607,-95.6 A 0.7071067811865476,0.7071067811865476 90.00000000026822 0,1 182.7125,-94.892893 C 182.25294,-94.864298 181.683905,-95.1 181.2125,-95.1 L 171.2125,-95.1 C 170.741095,-95.1 170.17206,-94.864298 169.7125,-94.892893 A 0.7071067811865476,0.7071067811865476 -179.99999999972437 0,1 169.005393,-95.6 C 168.976798,-96.05956 169.2125,-96.628595 169.2125,-97.1 L 169.2125,-107.1 M 188.2625,-107.1 C 188.2625,-107.571405 188.026798,-108.14044 188.055393,-108.6 A 0.7071067811865476,0.7071067811865476 -89.99999999970163 0,1 188.7625,-109.307107 C 189.22206,-109.335702 189.791095,-109.1 190.2625,-109.1 L 200.2625,-109.1 C 200.733905,-109.1 201.30294,-109.335702 201.7625,-109.307107 A 0.7071067811865476,0.7071067811865476 2.733334653626473e-10 0,1 202.469607,-108.6 C 202.498202,-108.14044 202.2625,-107.571405 202.2625,-107.1 L 202.2625,-97.1 C 202.2625,-96.628595 202.498202,-96.05956 202.469607,-95.6 A 0.7071067811865476,0.7071067811865476 90.00000000026822 0,1 201.7625,-94.892893 C 201.30294,-94.864298 200.733905,-95.1 200.2625,-95.1 L 190.2625,-95.1 C 189.791095,-95.1 189.22206,-94.864298 188.7625,-94.892893 A 0.7071067811865476,0.7071067811865476 -179.99999999972437 0,1 188.055393,-95.6 C 188.026798,-96.05956 188.2625,-96.628595 188.2625,-97.1 L 188.2625,-107.1 M -2.2375,-97.575 C -2.2375,-98.046405 -2.473202,-98.61544 -2.444607,-99.075 A 0.7071067811865476,0.7071067811865476 -89.99999999970163 0,1 -1.7375,-99.782107 C -1.27794,-99.810702 -0.708905,-99.575 -0.2375,-99.575 L 9.7625,-99.575 C 10.233905,-99.575 10.80294,-99.810702 11.2625,-99.782107 A 0.7071067811865476,0.7071067811865476 2.733334653626473e-10 0,1 11.969607,-99.075 C 11.998202,-98.61544 11.7625,-98.046405 11.7625,-97.575 L 11.7625,-87.575 C 11.7625,-87.103595 11.998202,-86.53456 11.969607,-86.075 A 0.7071067811865476,0.7071067811865476 90.00000000026822 0,1 11.2625,-85.367893 C 10.80294,-85.339298 10.233905,-85.575 9.7625,-85.575 L -0.2375,-85.575 C -0.708905,-85.575 -1.27794,-85.339298 -1.7375,-85.367893 A 0.7071067811865476,0.7071067811865476 -179.99999999972437 0,1 -2.444607,-86.075 C -2.473202,-86.53456 -2.2375,-87.103595 -2.2375,-87.575 L -2.2375,-97.575 M 16.8125,-97.575 C 16.8125,-98.046405 16.576798,-98.61544 16.605393,-99.075 A 0.7071067811865476,0.7071067811865476 -89.99999999970163 0,1 17.3125,-99.782107 C 17.77206,-99.810702 18.341095,-99.575 18.8125,-99.575 L 28.8125,-99.575 C 29.283905,-99.575 29.85294,-99.810702 30.3125,-99.782107 A 0.7071067811865476,0.7071067811865476 2.733334653626473e-10 0,1 31.019607,-99.075 C 31.048202,-98.61544 30.8125,-98.046405 30.8125,-97.575 L 30.8125,-87.575 C 30.8125,-87.103595 31.048202,-86.53456 31.019607,-86.075 A 0.7071067811865476,0.7071067811865476 90.00000000026822 0,1 30.3125,-85.367893 C 29.85294,-85.339298 29.283905,-85.575 28.8125,-85.575 L 18.8125,-85.575 C 18.341095,-85.575 17.77206,-85.339298 17.3125,-85.367893 A 0.7071067811865476,0.7071067811865476 -179.99999999972437 0,1 16.605393,-86.075 C 16.576798,-86.53456 16.8125,-87.103595 16.8125,-87.575 L 16.8125,-97.575 M 35.8625,-97.575 C 35.8625,-98.046405 35.626798,-98.61544 35.655393,-99.075 A 0.7071067811865476,0.7071067811865476 -89.99999999970163 0,1 36.3625,-99.782107 C 36.82206,-99.810702 37.391095,-99.575 37.8625,-99.575 L 47.8625,-99.575 C 48.333905,-99.575 48.90294,-99.810702 49.3625,-99.782107 A 0.7071067811865476,0.7071067811865476 2.733334653626473e-10 0,1 50.069607,-99.075 C 50.098202,-98.61544 49.8625,-98.046405 49.8625,-97.575 L 49.8625,-87.575 C 49.8625,-87.103595 50.098202,-86.53456 50.069607,-86.075 A 0.7071067811865476,0.7071067811865476 90.00000000026822 0,1 49.3625,-85.367893 C 48.90294,-85.339298 48.333905,-85.575 47.8625,-85.575 L 37.8625,-85.575 C 37.391095,-85.575 36.82206,-85.339298 36.3625,-85.367893 A 0.7071067811865476,0.7071067811865476 -179.99999999972437 0,1 35.655393,-86.075 C 35.626798,-86.53456 35.8625,-87.103595 35.8625,-87.575 L 35.8625,-97.575 M 54.9125,-97.575 C 54.9125,-98.046405 54.676798,-98.61544 54.705393,-99.075 A 0.7071067811865476,0.7071067811865476 -89.99999999970163 0,1 55.4125,-99.782107 C 55.87206,-99.810702 56.441095,-99.575 56.9125,-99.575 L 66.9125,-99.575 C 67.383905,-99.575 67.95294,-99.810702 68.4125,-99.782107 A 0.7071067811865476,0.7071067811865476 2.733334653626473e-10 0,1 69.119607,-99.075 C 69.148202,-98.61544 68.9125,-98.046405 68.9125,-97.575 L 68.9125,-87.575 C 68.9125,-87.103595 69.148202,-86.53456 69.119607,-86.075 A 0.7071067811865476,0.7071067811865476 90.00000000026822 0,1 68.4125,-85.367893 C 67.95294,-85.339298 67.383905,-85.575 66.9125,-85.575 L 56.9125,-85.575 C 56.441095,-85.575 55.87206,-85.339298 55.4125,-85.367893 A 0.7071067811865476,0.7071067811865476 -179.99999999972437 0,1 54.705393,-86.075 C 54.676798,-86.53456 54.9125,-87.103595 54.9125,-87.575 L 54.9125,-97.575 M 73.9625,-97.575 C 73.9625,-98.046405 73.726798,-98.61544 73.755393,-99.075 A 0.7071067811865476,0.7071067811865476 -89.99999999970163 0,1 74.4625,-99.782107 C 74.92206,-99.810702 75.491095,-99.575 75.9625,-99.575 L 85.9625,-99.575 C 86.433905,-99.575 87.00294,-99.810702 87.4625,-99.782107 A 0.7071067811865476,0.7071067811865476 2.733334653626473e-10 0,1 88.169607,-99.075 C 88.198202,-98.61544 87.9625,-98.046405 87.9625,-97.575 L 87.9625,-87.575 C 87.9625,-87.103595 88.198202,-86.53456 88.169607,-86.075 A 0.7071067811865476,0.7071067811865476 90.00000000026822 0,1 87.4625,-85.367893 C 87.00294,-85.339298 86.433905,-85.575 85.9625,-85.575 L 75.9625,-85.575 C 75.491095,-85.575 74.92206,-85.339298 74.4625,-85.367893 A 0.7071067811865476,0.7071067811865476 -179.99999999972437 0,1 73.755393,-86.075 C 73.726798,-86.53456 73.9625,-87.103595 73.9625,-87.575 L 73.9625,-97.575 M 7.2875,-78.525 C 7.2875,-78.996405 7.051798,-79.56544 7.080393,-80.025 A 0.7071067811865476,0.7071067811865476 -89.99999999970163 0,1 7.7875,-80.732107 C 8.24706,-80.760702 8.816095,-80.525 9.2875,-80.525 L 19.2875,-80.525 C 19.758905,-80.525 20.32794,-80.760702 20.7875,-80.732107 A 0.7071067811865476,0.7071067811865476 2.733334653626473e-10 0,1 21.494607,-80.025 C 21.523202,-79.56544 21.2875,-78.996405 21.2875,-78.525 L 21.2875,-68.525 C 21.2875,-68.053595 21.523202,-67.48456 21.494607,-67.025 A 0.7071067811865476,0.7071067811865476 90.00000000026822 0,1 20.7875,-66.317893 C 20.32794,-66.289298 19.758905,-66.525 19.2875,-66.525 L 9.2875,-66.525 C 8.816095,-66.525 8.24706,-66.289298 7.7875,-66.317893 A 0.7071067811865476,0.7071067811865476 -179.99999999972437 0,1 7.080393,-67.025 C 7.051798,-67.48456 7.2875,-68.053595 7.2875,-68.525 L 7.2875,-78.525 M 26.3375,-78.525 C 26.3375,-78.996405 26.101798,-79.56544 26.130393,-80.025 A 0.7071067811865476,0.7071067811865476 -89.99999999970163 0,1 26.8375,-80.732107 C 27.29706,-80.760702 27.866095,-80.525 28.3375,-80.525 L 38.3375,-80.525 C 38.808905,-80.525 39.37794,-80.760702 39.8375,-80.732107 A 0.7071067811865476,0.7071067811865476 2.733334653626473e-10 0,1 40.544607,-80.025 C 40.573202,-79.56544 40.3375,-78.996405 40.3375,-78.525 L 40.3375,-68.525 C 40.3375,-68.053595 40.573202,-67.48456 40.544607,-67.025 A 0.7071067811865476,0.7071067811865476 90.00000000026822 0,1 39.8375,-66.317893 C 39.37794,-66.289298 38.808905,-66.525 38.3375,-66.525 L 28.3375,-66.525 C 27.866095,-66.525 27.29706,-66.289298 26.8375,-66.317893 A 0.7071067811865476,0.7071067811865476 -179.99999999972437 0,1 26.130393,-67.025 C 26.101798,-67.48456 26.3375,-68.053595 26.3375,-68.525 L 26.3375,-78.525 M 45.3875,-78.525 C 45.3875,-78.996405 45.151798,-79.56544 45.180393,-80.025 A 0.7071067811865476,0.7071067811865476 -89.99999999970163 0,1 45.8875,-80.732107 C 46.34706,-80.760702 46.916095,-80.525 47.3875,-80.525 L 57.3875,-80.525 C 57.858905,-80.525 58.42794,-80.760702 58.8875,-80.732107 A 0.7071067811865476,0.7071067811865476 2.733334653626473e-10 0,1 59.594607,-80.025 C 59.623202,-79.56544 59.3875,-78.996405 59.3875,-78.525 L 59.3875,-68.525 C 59.3875,-68.053595 59.623202,-67.48456 59.594607,-67.025 A 0.7071067811865476,0.7071067811865476 90.00000000026822 0,1 58.8875,-66.317893 C 58.42794,-66.289298 57.858905,-66.525 57.3875,-66.525 L 47.3875,-66.525 C 46.916095,-66.525 46.34706,-66.289298 45.8875,-66.317893 A 0.7071067811865476,0.7071067811865476 -179.99999999972437 0,1 45.180393,-67.025 C 45.151798,-67.48456 45.3875,-68.053595 45.3875,-68.525 L 45.3875,-78.525 M 64.4375,-78.525 C 64.4375,-78.996405 64.201798,-79.56544 64.230393,-80.025 A 0.7071067811865476,0.7071067811865476 -89.99999999970163 0,1 64.9375,-80.732107 C 65.39706,-80.760702 65.966095,-80.525 66.4375,-80.525 L 76.4375,-80.525 C 76.908905,-80.525 77.47794,-80.760702 77.9375,-80.732107 A 0.7071067811865476,0.7071067811865476 2.733334653626473e-10 0,1 78.644607,-80.025 C 78.673202,-79.56544 78.4375,-78.996405 78.4375,-78.525 L 78.4375,-68.525 C 78.4375,-68.053595 78.673202,-67.48456 78.644607,-67.025 A 0.7071067811865476,0.7071067811865476 90.00000000026822 0,1 77.9375,-66.317893 C 77.47794,-66.289298 76.908905,-66.525 76.4375,-66.525 L 66.4375,-66.525 C 65.966095,-66.525 65.39706,-66.289298 64.9375,-66.317893 A 0.7071067811865476,0.7071067811865476 -179.99999999972437 0,1 64.230393,-67.025 C 64.201798,-67.48456 64.4375,-68.053595 64.4375,-68.525 L 64.4375,-78.525 M 83.4875,-78.525 C 83.4875,-78.996405 83.251798,-79.56544 83.280393,-80.025 A 0.7071067811865476,0.7071067811865476 -89.99999999970163 0,1 83.9875,-80.732107 C 84.44706,-80.760702 85.016095,-80.525 85.4875,-80.525 L 95.4875,-80.525 C 95.958905,-80.525 96.52794,-80.760702 96.9875,-80.732107 A 0.7071067811865476,0.7071067811865476 2.733334653626473e-10 0,1 97.694607,-80.025 C 97.723202,-79.56544 97.4875,-78.996405 97.4875,-78.525 L 97.4875,-68.525 C 97.4875,-68.053595 97.723202,-67.48456 97.694607,-67.025 A 0.7071067811865476,0.7071067811865476 90.00000000026822 0,1 96.9875,-66.317893 C 96.52794,-66.289298 95.958905,-66.525 95.4875,-66.525 L 85.4875,-66.525 C 85.016095,-66.525 84.44706,-66.289298 83.9875,-66.317893 A 0.7071067811865476,0.7071067811865476 -179.99999999972437 0,1 83.280393,-67.025 C 83.251798,-67.48456 83.4875,-68.053595 83.4875,-68.525 L 83.4875,-78.525 M 100.15625,-97.575 C 100.15625,-98.046405 99.920548,-98.61544 99.949143,-99.075 A 0.7071067811865476,0.7071067811865476 -89.99999999970163 0,1 100.65625,-99.782107 C 101.11581,-99.810702 101.684845,-99.575 102.15625,-99.575 L 112.15625,-99.575 C 112.627655,-99.575 113.19669,-99.810702 113.65625,-99.782107 A 0.7071067811865476,0.7071067811865476 2.733334653626473e-10 0,1 114.363357,-99.075 C 114.391952,-98.61544 114.15625,-98.046405 114.15625,-97.575 L 114.15625,-87.575 C 114.15625,-87.103595 114.391952,-86.53456 114.363357,-86.075 A 0.7071067811865476,0.7071067811865476 90.00000000026822 0,1 113.65625,-85.367893 C 113.19669,-85.339298 112.627655,-85.575 112.15625,-85.575 L 102.15625,-85.575 C 101.684845,-85.575 101.11581,-85.339298 100.65625,-85.367893 A 0.7071067811865476,0.7071067811865476 -179.99999999972437 0,1 99.949143,-86.075 C 99.920548,-86.53456 100.15625,-87.103595 100.15625,-87.575 L 100.15625,-97.575 M 126.35,-97.575 C 126.35,-98.046405 126.114298,-98.61544 126.142893,-99.075 A 0.7071067811865476,0.7071067811865476 -89.99999999970163 0,1 126.85,-99.782107 C 127.30956,-99.810702 127.878595,-99.575 128.35,-99.575 L 138.35,-99.575 C 138.821405,-99.575 139.39044,-99.810702 139.85,-99.782107 A 0.7071067811865476,0.7071067811865476 2.733334653626473e-10 0,1 140.557107,-99.075 C 140.585702,-98.61544 140.35,-98.046405 140.35,-97.575 L 140.35,-87.575 C 140.35,-87.103595 140.585702,-86.53456 140.557107,-86.075 A 0.7071067811865476,0.7071067811865476 90.00000000026822 0,1 139.85,-85.367893 C 139.39044,-85.339298 138.821405,-85.575 138.35,-85.575 L 128.35,-85.575 C 127.878595,-85.575 127.30956,-85.339298 126.85,-85.367893 A 0.7071067811865476,0.7071067811865476 -179.99999999972437 0,1 126.142893,-86.075 C 126.114298,-86.53456 126.35,-87.103595 126.35,-87.575 L 126.35,-97.575 M 150.1625,-88.05 C 150.1625,-88.521405 149.926798,-89.09044 149.955393,-89.55 A 0.7071067811865476,0.7071067811865476 -89.99999999970163 0,1 150.6625,-90.257107 C 151.12206,-90.285702 151.691095,-90.05 152.1625,-90.05 L 162.1625,-90.05 C 162.633905,-90.05 163.20294,-90.285702 163.6625,-90.257107 A 0.7071067811865476,0.7071067811865476 2.733334653626473e-10 0,1 164.369607,-89.55 C 164.398202,-89.09044 164.1625,-88.521405 164.1625,-88.05 L 164.1625,-78.05 C 164.1625,-77.578595 164.398202,-77.00956 164.369607,-76.55 A 0.7071067811865476,0.7071067811865476 90.00000000026822 0,1 163.6625,-75.842893 C 163.20294,-75.814298 162.633905,-76.05 162.1625,-76.05 L 152.1625,-76.05 C 151.691095,-76.05 151.12206,-75.814298 150.6625,-75.842893 A 0.7071067811865476,0.7071067811865476 -179.99999999972437 0,1 149.955393,-76.55 C 149.926798,-77.00956 150.1625,-77.578595 150.1625,-78.05 L 150.1625,-88.05 M 169.2125,-88.05 C 169.2125,-88.521405 168.976798,-89.09044 169.005393,-89.55 A 0.7071067811865476,0.7071067811865476 -89.99999999970163 0,1 169.7125,-90.257107 C 170.17206,-90.285702 170.741095,-90.05 171.2125,-90.05 L 181.2125,-90.05 C 181.683905,-90.05 182.25294,-90.285702 182.7125,-90.257107 A 0.7071067811865476,0.7071067811865476 2.733334653626473e-10 0,1 183.419607,-89.55 C 183.448202,-89.09044 183.2125,-88.521405 183.2125,-88.05 L 183.2125,-78.05 C 183.2125,-77.578595 183.448202,-77.00956 183.419607,-76.55 A 0.7071067811865476,0.7071067811865476 90.00000000026822 0,1 182.7125,-75.842893 C 182.25294,-75.814298 181.683905,-76.05 181.2125,-76.05 L 171.2125,-76.05 C 170.741095,-76.05 170.17206,-75.814298 169.7125,-75.842893 A 0.7071067811865476,0.7071067811865476 -179.99999999972437 0,1 169.005393,-76.55 C 168.976798,-77.00956 169.2125,-77.578595 169.2125,-78.05 L 169.2125,-88.05 M 188.2625,-88.05 C 188.2625,-88.521405 188.026798,-89.09044 188.055393,-89.55 A 0.7071067811865476,0.7071067811865476 -89.99999999970163 0,1 188.7625,-90.257107 C 189.22206,-90.285702 189.791095,-90.05 190.2625,-90.05 L 200.2625,-90.05 C 200.733905,-90.05 201.30294,-90.285702 201.7625,-90.257107 A 0.7071067811865476,0.7071067811865476 2.733334653626473e-10 0,1 202.469607,-89.55 C 202.498202,-89.09044 202.2625,-88.521405 202.2625,-88.05 L 202.2625,-78.05 C 202.2625,-77.578595 202.498202,-77.00956 202.469607,-76.55 A 0.7071067811865476,0.7071067811865476 90.00000000026822 0,1 201.7625,-75.842893 C 201.30294,-75.814298 200.733905,-76.05 200.2625,-76.05 L 190.2625,-76.05 C 189.791095,-76.05 189.22206,-75.814298 188.7625,-75.842893 A 0.7071067811865476,0.7071067811865476 -179.99999999972437 0,1 188.055393,-76.55 C 188.026798,-77.00956 188.2625,-77.578595 188.2625,-78.05 L 188.2625,-88.05 M 106.0375,-79.525 A 2.0,2.0 0.0 0,1 108.0375,-81.525 L 111.0375,-81.525 A 2.0,2.0 0.0 0,1 113.0375,-79.525 L 113.0375,-67.525 A 2.0,2.0 0.0 0,1 111.0375,-65.525 L 108.0375,-65.525 A 2.0,2.0 0.0 0,1 106.0375,-67.525 L 106.0375,-79.525 M 114.44375,-78.525 C 114.44375,-78.996405 114.208048,-79.56544 114.236643,-80.025 A 0.7071067811865476,0.7071067811865476 -89.99999999970163 0,1 114.94375,-80.732107 C 115.40331,-80.760702 115.972345,-80.525 116.44375,-80.525 L 126.44375,-80.525 C 126.915155,-80.525 127.48419,-80.760702 127.94375,-80.732107 A 0.7071067811865476,0.7071067811865476 2.733334653626473e-10 0,1 128.650857,-80.025 C 128.679452,-79.56544 128.44375,-78.996405 128.44375,-78.525 L 128.44375,-68.525 C 128.44375,-68.053595 128.679452,-67.48456 128.650857,-67.025 A 0.7071067811865476,0.7071067811865476 90.00000000026822 0,1 127.94375,-66.317893 C 127.48419,-66.289298 126.915155,-66.525 126.44375,-66.525 L 116.44375,-66.525 C 115.972345,-66.525 115.40331,-66.289298 114.94375,-66.317893 A 0.7071067811865476,0.7071067811865476 -179.99999999972437 0,1 114.236643,-67.025 C 114.208048,-67.48456 114.44375,-68.053595 114.44375,-68.525 L 114.44375,-78.525 M 129.85,-79.525 A 2.0,2.0 0.0 0,1 131.85,-81.525 L 134.85,-81.525 A 2.0,2.0 0.0 0,1 136.85,-79.525 L 136.85,-67.525 A 2.0,2.0 0.0 0,1 134.85,-65.525 L 131.85,-65.525 A 2.0,2.0 0.0 0,1 129.85,-67.525 L 129.85,-79.525 M -202.2625,-64.2375 C -202.2625,-64.708905 -202.498202,-65.27794 -202.469607,-65.7375 A 0.7071067811865476,0.7071067811865476 -89.99999999970163 0,1 -201.7625,-66.444607 C -201.30294,-66.473202 -200.733905,-66.2375 -200.2625,-66.2375 L -190.2625,-66.2375 C -189.791095,-66.2375 -189.22206,-66.473202 -188.7625,-66.444607 A 0.7071067811865476,0.7071067811865476 2.733334653626473e-10 0,1 -188.055393,-65.7375 C -188.026798,-65.27794 -188.2625,-64.708905 -188.2625,-64.2375 L -188.2625,-54.2375 C -188.2625,-53.766095 -188.026798,-53.19706 -188.055393,-52.7375 A 0.7071067811865476,0.7071067811865476 90.00000000026822 0,1 -188.7625,-52.030393 C -189.22206,-52.001798 -189.791095,-52.2375 -190.2625,-52.2375 L -200.2625,-52.2375 C -200.733905,-52.2375 -201.30294,-52.001798 -201.7625,-52.030393 A 0.7071067811865476,0.7071067811865476 -179.99999999972437 0,1 -202.469607,-52.7375 C -202.498202,-53.19706 -202.2625,-53.766095 -202.2625,-54.2375 L -202.2625,-64.2375 M -183.2125,-64.2375 C -183.2125,-64.708905 -183.448202,-65.27794 -183.419607,-65.7375 A 0.7071067811865476,0.7071067811865476 -89.99999999970163 0,1 -182.7125,-66.444607 C -182.25294,-66.473202 -181.683905,-66.2375 -181.2125,-66.2375 L -171.2125,-66.2375 C -170.741095,-66.2375 -170.17206,-66.473202 -169.7125,-66.444607 A 0.7071067811865476,0.7071067811865476 2.733334653626473e-10 0,1 -169.005393,-65.7375 C -168.976798,-65.27794 -169.2125,-64.708905 -169.2125,-64.2375 L -169.2125,-54.2375 C -169.2125,-53.766095 -168.976798,-53.19706 -169.005393,-52.7375 A 0.7071067811865476,0.7071067811865476 90.00000000026822 0,1 -169.7125,-52.030393 C -170.17206,-52.001798 -170.741095,-52.2375 -171.2125,-52.2375 L -181.2125,-52.2375 C -181.683905,-52.2375 -182.25294,-52.001798 -182.7125,-52.030393 A 0.7071067811865476,0.7071067811865476 -179.99999999972437 0,1 -183.419607,-52.7375 C -183.448202,-53.19706 -183.2125,-53.766095 -183.2125,-54.2375 L -183.2125,-64.2375 M -164.1625,-64.2375 C -164.1625,-64.708905 -164.398202,-65.27794 -164.369607,-65.7375 A 0.7071067811865476,0.7071067811865476 -89.99999999970163 0,1 -163.6625,-66.444607 C -163.20294,-66.473202 -162.633905,-66.2375 -162.1625,-66.2375 L -152.1625,-66.2375 C -151.691095,-66.2375 -151.12206,-66.473202 -150.6625,-66.444607 A 0.7071067811865476,0.7071067811865476 2.733334653626473e-10 0,1 -149.955393,-65.7375 C -149.926798,-65.27794 -150.1625,-64.708905 -150.1625,-64.2375 L -150.1625,-54.2375 C -150.1625,-53.766095 -149.926798,-53.19706 -149.955393,-52.7375 A 0.7071067811865476,0.7071067811865476 90.00000000026822 0,1 -150.6625,-52.030393 C -151.12206,-52.001798 -151.691095,-52.2375 -152.1625,-52.2375 L -162.1625,-52.2375 C -162.633905,-52.2375 -163.20294,-52.001798 -163.6625,-52.030393 A 0.7071067811865476,0.7071067811865476 -179.99999999972437 0,1 -164.369607,-52.7375 C -164.398202,-53.19706 -164.1625,-53.766095 -164.1625,-54.2375 L -164.1625,-64.2375 M -135.5875,-59.475 C -135.5875,-59.946405 -135.823202,-60.51544 -135.794607,-60.975 A 0.7071067811865476,0.7071067811865476 -89.99999999970163 0,1 -135.0875,-61.682107 C -134.62794,-61.710702 -134.058905,-61.475 -133.5875,-61.475 L -123.5875,-61.475 C -123.116095,-61.475 -122.54706,-61.710702 -122.0875,-61.682107 A 0.7071067811865476,0.7071067811865476 2.733334653626473e-10 0,1 -121.380393,-60.975 C -121.351798,-60.51544 -121.5875,-59.946405 -121.5875,-59.475 L -121.5875,-49.475 C -121.5875,-49.003595 -121.351798,-48.43456 -121.380393,-47.975 A 0.7071067811865476,0.7071067811865476 90.00000000026822 0,1 -122.0875,-47.267893 C -122.54706,-47.239298 -123.116095,-47.475 -123.5875,-47.475 L -133.5875,-47.475 C -134.058905,-47.475 -134.62794,-47.239298 -135.0875,-47.267893 A 0.7071067811865476,0.7071067811865476 -179.99999999972437 0,1 -135.794607,-47.975 C -135.823202,-48.43456 -135.5875,-49.003595 -135.5875,-49.475 L -135.5875,-59.475 M -111.775,-59.475 C -111.775,-59.946405 -112.010702,-60.51544 -111.982107,-60.975 A 0.7071067811865476,0.7071067811865476 -89.99999999970163 0,1 -111.275,-61.682107 C -110.81544,-61.710702 -110.246405,-61.475 -109.775,-61.475 L -99.775,-61.475 C -99.303595,-61.475 -98.73456,-61.710702 -98.275,-61.682107 A 0.7071067811865476,0.7071067811865476 2.733334653626473e-10 0,1 -97.567893,-60.975 C -97.539298,-60.51544 -97.775,-59.946405 -97.775,-59.475 L -97.775,-49.475 C -97.775,-49.003595 -97.539298,-48.43456 -97.567893,-47.975 A 0.7071067811865476,0.7071067811865476 90.00000000026822 0,1 -98.275,-47.267893 C -98.73456,-47.239298 -99.303595,-47.475 -99.775,-47.475 L -109.775,-47.475 C -110.246405,-47.475 -110.81544,-47.239298 -111.275,-47.267893 A 0.7071067811865476,0.7071067811865476 -179.99999999972437 0,1 -111.982107,-47.975 C -112.010702,-48.43456 -111.775,-49.003595 -111.775,-49.475 L -111.775,-59.475 M -202.2625,-45.1875 C -202.2625,-45.658905 -202.498202,-46.22794 -202.469607,-46.6875 A 0.7071067811865476,0.7071067811865476 -89.99999999970163 0,1 -201.7625,-47.394607 C -201.30294,-47.423202 -200.733905,-47.1875 -200.2625,-47.1875 L -190.2625,-47.1875 C -189.791095,-47.1875 -189.22206,-47.423202 -188.7625,-47.394607 A 0.7071067811865476,0.7071067811865476 2.733334653626473e-10 0,1 -188.055393,-46.6875 C -188.026798,-46.22794 -188.2625,-45.658905 -188.2625,-45.1875 L -188.2625,-35.1875 C -188.2625,-34.716095 -188.026798,-34.14706 -188.055393,-33.6875 A 0.7071067811865476,0.7071067811865476 90.00000000026822 0,1 -188.7625,-32.980393 C -189.22206,-32.951798 -189.791095,-33.1875 -190.2625,-33.1875 L -200.2625,-33.1875 C -200.733905,-33.1875 -201.30294,-32.951798 -201.7625,-32.980393 A 0.7071067811865476,0.7071067811865476 -179.99999999972437 0,1 -202.469607,-33.6875 C -202.498202,-34.14706 -202.2625,-34.716095 -202.2625,-35.1875 L -202.2625,-45.1875 M -183.2125,-45.1875 C -183.2125,-45.658905 -183.448202,-46.22794 -183.419607,-46.6875 A 0.7071067811865476,0.7071067811865476 -89.99999999970163 0,1 -182.7125,-47.394607 C -182.25294,-47.423202 -181.683905,-47.1875 -181.2125,-47.1875 L -171.2125,-47.1875 C -170.741095,-47.1875 -170.17206,-47.423202 -169.7125,-47.394607 A 0.7071067811865476,0.7071067811865476 2.733334653626473e-10 0,1 -169.005393,-46.6875 C -168.976798,-46.22794 -169.2125,-45.658905 -169.2125,-45.1875 L -169.2125,-35.1875 C -169.2125,-34.716095 -168.976798,-34.14706 -169.005393,-33.6875 A 0.7071067811865476,0.7071067811865476 90.00000000026822 0,1 -169.7125,-32.980393 C -170.17206,-32.951798 -170.741095,-33.1875 -171.2125,-33.1875 L -181.2125,-33.1875 C -181.683905,-33.1875 -182.25294,-32.951798 -182.7125,-32.980393 A 0.7071067811865476,0.7071067811865476 -179.99999999972437 0,1 -183.419607,-33.6875 C -183.448202,-34.14706 -183.2125,-34.716095 -183.2125,-35.1875 L -183.2125,-45.1875 M -164.1625,-45.1875 C -164.1625,-45.658905 -164.398202,-46.22794 -164.369607,-46.6875 A 0.7071067811865476,0.7071067811865476 -89.99999999970163 0,1 -163.6625,-47.394607 C -163.20294,-47.423202 -162.633905,-47.1875 -162.1625,-47.1875 L -152.1625,-47.1875 C -151.691095,-47.1875 -151.12206,-47.423202 -150.6625,-47.394607 A 0.7071067811865476,0.7071067811865476 2.733334653626473e-10 0,1 -149.955393,-46.6875 C -149.926798,-46.22794 -150.1625,-45.658905 -150.1625,-45.1875 L -150.1625,-35.1875 C -150.1625,-34.716095 -149.926798,-34.14706 -149.955393,-33.6875 A 0.7071067811865476,0.7071067811865476 90.00000000026822 0,1 -150.6625,-32.980393 C -151.12206,-32.951798 -151.691095,-33.1875 -152.1625,-33.1875 L -162.1625,-33.1875 C -162.633905,-33.1875 -163.20294,-32.951798 -163.6625,-32.980393 A 0.7071067811865476,0.7071067811865476 -179.99999999972437 0,1 -164.369607,-33.6875 C -164.398202,-34.14706 -164.1625,-34.716095 -164.1625,-35.1875 L -164.1625,-45.1875 M -140.35,-40.425 C -140.35,-40.896405 -140.585702,-41.46544 -140.557107,-41.925 A 0.7071067811865476,0.7071067811865476 -89.99999999970163 0,1 -139.85,-42.632107 C -139.39044,-42.660702 -138.821405,-42.425 -138.35,-42.425 L -128.35,-42.425 C -127.878595,-42.425 -127.30956,-42.660702 -126.85,-42.632107 A 0.7071067811865476,0.7071067811865476 2.733334653626473e-10 0,1 -126.142893,-41.925 C -126.114298,-41.46544 -126.35,-40.896405 -126.35,-40.425 L -126.35,-30.425 C -126.35,-29.953595 -126.114298,-29.38456 -126.142893,-28.925 A 0.7071067811865476,0.7071067811865476 90.00000000026822 0,1 -126.85,-28.217893 C -127.30956,-28.189298 -127.878595,-28.425 -128.35,-28.425 L -138.35,-28.425 C -138.821405,-28.425 -139.39044,-28.189298 -139.85,-28.217893 A 0.7071067811865476,0.7071067811865476 -179.99999999972437 0,1 -140.557107,-28.925 C -140.585702,-29.38456 -140.35,-29.953595 -140.35,-30.425 L -140.35,-40.425 M -121.3,-40.425 C -121.3,-40.896405 -121.535702,-41.46544 -121.507107,-41.925 A 0.7071067811865476,0.7071067811865476 -89.99999999970163 0,1 -120.8,-42.632107 C -120.34044,-42.660702 -119.771405,-42.425 -119.3,-42.425 L -109.3,-42.425 C -108.828595,-42.425 -108.25956,-42.660702 -107.8,-42.632107 A 0.7071067811865476,0.7071067811865476 2.733334653626473e-10 0,1 -107.092893,-41.925 C -107.064298,-41.46544 -107.3,-40.896405 -107.3,-40.425 L -107.3,-30.425 C -107.3,-29.953595 -107.064298,-29.38456 -107.092893,-28.925 A 0.7071067811865476,0.7071067811865476 90.00000000026822 0,1 -107.8,-28.217893 C -108.25956,-28.189298 -108.828595,-28.425 -109.3,-28.425 L -119.3,-28.425 C -119.771405,-28.425 -120.34044,-28.189298 -120.8,-28.217893 A 0.7071067811865476,0.7071067811865476 -179.99999999972437 0,1 -121.507107,-28.925 C -121.535702,-29.38456 -121.3,-29.953595 -121.3,-30.425 L -121.3,-40.425 M -92.725,-59.475 C -92.725,-59.946405 -92.960702,-60.51544 -92.932107,-60.975 A 0.7071067811865476,0.7071067811865476 -89.99999999970163 0,1 -92.225,-61.682107 C -91.76544,-61.710702 -91.196405,-61.475 -90.725,-61.475 L -80.725,-61.475 C -80.253595,-61.475 -79.68456,-61.710702 -79.225,-61.682107 A 0.7071067811865476,0.7071067811865476 2.733334653626473e-10 0,1 -78.517893,-60.975 C -78.489298,-60.51544 -78.725,-59.946405 -78.725,-59.475 L -78.725,-49.475 C -78.725,-49.003595 -78.489298,-48.43456 -78.517893,-47.975 A 0.7071067811865476,0.7071067811865476 90.00000000026822 0,1 -79.225,-47.267893 C -79.68456,-47.239298 -80.253595,-47.475 -80.725,-47.475 L -90.725,-47.475 C -91.196405,-47.475 -91.76544,-47.239298 -92.225,-47.267893 A 0.7071067811865476,0.7071067811865476 -179.99999999972437 0,1 -92.932107,-47.975 C -92.960702,-48.43456 -92.725,-49.003595 -92.725,-49.475 L -92.725,-59.475 M -73.675,-59.475 C -73.675,-59.946405 -73.910702,-60.51544 -73.882107,-60.975 A 0.7071067811865476,0.7071067811865476 -89.99999999970163 0,1 -73.175,-61.682107 C -72.71544,-61.710702 -72.146405,-61.475 -71.675,-61.475 L -61.675,-61.475 C -61.203595,-61.475 -60.63456,-61.710702 -60.175,-61.682107 A 0.7071067811865476,0.7071067811865476 2.733334653626473e-10 0,1 -59.467893,-60.975 C -59.439298,-60.51544 -59.675,-59.946405 -59.675,-59.475 L -59.675,-49.475 C -59.675,-49.003595 -59.439298,-48.43456 -59.467893,-47.975 A 0.7071067811865476,0.7071067811865476 90.00000000026822 0,1 -60.175,-47.267893 C -60.63456,-47.239298 -61.203595,-47.475 -61.675,-47.475 L -71.675,-47.475 C -72.146405,-47.475 -72.71544,-47.239298 -73.175,-47.267893 A 0.7071067811865476,0.7071067811865476 -179.99999999972437 0,1 -73.882107,-47.975 C -73.910702,-48.43456 -73.675,-49.003595 -73.675,-49.475 L -73.675,-59.475 M -54.625,-59.475 C -54.625,-59.946405 -54.860702,-60.51544 -54.832107,-60.975 A 0.7071067811865476,0.7071067811865476 -89.99999999970163 0,1 -54.125,-61.682107 C -53.66544,-61.710702 -53.096405,-61.475 -52.625,-61.475 L -42.625,-61.475 C -42.153595,-61.475 -41.58456,-61.710702 -41.125,-61.682107 A 0.7071067811865476,0.7071067811865476 2.733334653626473e-10 0,1 -40.417893,-60.975 C -40.389298,-60.51544 -40.625,-59.946405 -40.625,-59.475 L -40.625,-49.475 C -40.625,-49.003595 -40.389298,-48.43456 -40.417893,-47.975 A 0.7071067811865476,0.7071067811865476 90.00000000026822 0,1 -41.125,-47.267893 C -41.58456,-47.239298 -42.153595,-47.475 -42.625,-47.475 L -52.625,-47.475 C -53.096405,-47.475 -53.66544,-47.239298 -54.125,-47.267893 A 0.7071067811865476,0.7071067811865476 -179.99999999972437 0,1 -54.832107,-47.975 C -54.860702,-48.43456 -54.625,-49.003595 -54.625,-49.475 L -54.625,-59.475 M -35.575,-59.475 C -35.575,-59.946405 -35.810702,-60.51544 -35.782107,-60.975 A 0.7071067811865476,0.7071067811865476 -89.99999999970163 0,1 -35.075,-61.682107 C -34.61544,-61.710702 -34.046405,-61.475 -33.575,-61.475 L -23.575,-61.475 C -23.103595,-61.475 -22.53456,-61.710702 -22.075,-61.682107 A 0.7071067811865476,0.7071067811865476 2.733334653626473e-10 0,1 -21.367893,-60.975 C -21.339298,-60.51544 -21.575,-59.946405 -21.575,-59.475 L -21.575,-49.475 C -21.575,-49.003595 -21.339298,-48.43456 -21.367893,-47.975 A 0.7071067811865476,0.7071067811865476 90.00000000026822 0,1 -22.075,-47.267893 C -22.53456,-47.239298 -23.103595,-47.475 -23.575,-47.475 L -33.575,-47.475 C -34.046405,-47.475 -34.61544,-47.239298 -35.075,-47.267893 A 0.7071067811865476,0.7071067811865476 -179.99999999972437 0,1 -35.782107,-47.975 C -35.810702,-48.43456 -35.575,-49.003595 -35.575,-49.475 L -35.575,-59.475 M -16.525,-59.475 C -16.525,-59.946405 -16.760702,-60.51544 -16.732107,-60.975 A 0.7071067811865476,0.7071067811865476 -89.99999999970163 0,1 -16.025,-61.682107 C -15.56544,-61.710702 -14.996405,-61.475 -14.525,-61.475 L -4.525,-61.475 C -4.053595,-61.475 -3.48456,-61.710702 -3.025,-61.682107 A 0.7071067811865476,0.7071067811865476 2.733334653626473e-10 0,1 -2.317893,-60.975 C -2.289298,-60.51544 -2.525,-59.946405 -2.525,-59.475 L -2.525,-49.475 C -2.525,-49.003595 -2.289298,-48.43456 -2.317893,-47.975 A 0.7071067811865476,0.7071067811865476 90.00000000026822 0,1 -3.025,-47.267893 C -3.48456,-47.239298 -4.053595,-47.475 -4.525,-47.475 L -14.525,-47.475 C -14.996405,-47.475 -15.56544,-47.239298 -16.025,-47.267893 A 0.7071067811865476,0.7071067811865476 -179.99999999972437 0,1 -16.732107,-47.975 C -16.760702,-48.43456 -16.525,-49.003595 -16.525,-49.475 L -16.525,-59.475 M -102.25,-40.425 C -102.25,-40.896405 -102.485702,-41.46544 -102.457107,-41.925 A 0.7071067811865476,0.7071067811865476 -89.99999999970163 0,1 -101.75,-42.632107 C -101.29044,-42.660702 -100.721405,-42.425 -100.25,-42.425 L -90.25,-42.425 C -89.778595,-42.425 -89.20956,-42.660702 -88.75,-42.632107 A 0.7071067811865476,0.7071067811865476 2.733334653626473e-10 0,1 -88.042893,-41.925 C -88.014298,-41.46544 -88.25,-40.896405 -88.25,-40.425 L -88.25,-30.425 C -88.25,-29.953595 -88.014298,-29.38456 -88.042893,-28.925 A 0.7071067811865476,0.7071067811865476 90.00000000026822 0,1 -88.75,-28.217893 C -89.20956,-28.189298 -89.778595,-28.425 -90.25,-28.425 L -100.25,-28.425 C -100.721405,-28.425 -101.29044,-28.189298 -101.75,-28.217893 A 0.7071067811865476,0.7071067811865476 -179.99999999972437 0,1 -102.457107,-28.925 C -102.485702,-29.38456 -102.25,-29.953595 -102.25,-30.425 L -102.25,-40.425 M -83.2,-40.425 C -83.2,-40.896405 -83.435702,-41.46544 -83.407107,-41.925 A 0.7071067811865476,0.7071067811865476 -89.99999999970163 0,1 -82.7,-42.632107 C -82.24044,-42.660702 -81.671405,-42.425 -81.2,-42.425 L -71.2,-42.425 C -70.728595,-42.425 -70.15956,-42.660702 -69.7,-42.632107 A 0.7071067811865476,0.7071067811865476 2.733334653626473e-10 0,1 -68.992893,-41.925 C -68.964298,-41.46544 -69.2,-40.896405 -69.2,-40.425 L -69.2,-30.425 C -69.2,-29.953595 -68.964298,-29.38456 -68.992893,-28.925 A 0.7071067811865476,0.7071067811865476 90.00000000026822 0,1 -69.7,-28.217893 C -70.15956,-28.189298 -70.728595,-28.425 -71.2,-28.425 L -81.2,-28.425 C -81.671405,-28.425 -82.24044,-28.189298 -82.7,-28.217893 A 0.7071067811865476,0.7071067811865476 -179.99999999972437 0,1 -83.407107,-28.925 C -83.435702,-29.38456 -83.2,-29.953595 -83.2,-30.425 L -83.2,-40.425 M -64.15,-40.425 C -64.15,-40.896405 -64.385702,-41.46544 -64.357107,-41.925 A 0.7071067811865476,0.7071067811865476 -89.99999999970163 0,1 -63.65,-42.632107 C -63.19044,-42.660702 -62.621405,-42.425 -62.15,-42.425 L -52.15,-42.425 C -51.678595,-42.425 -51.10956,-42.660702 -50.65,-42.632107 A 0.7071067811865476,0.7071067811865476 2.733334653626473e-10 0,1 -49.942893,-41.925 C -49.914298,-41.46544 -50.15,-40.896405 -50.15,-40.425 L -50.15,-30.425 C -50.15,-29.953595 -49.914298,-29.38456 -49.942893,-28.925 A 0.7071067811865476,0.7071067811865476 90.00000000026822 0,1 -50.65,-28.217893 C -51.10956,-28.189298 -51.678595,-28.425 -52.15,-28.425 L -62.15,-28.425 C -62.621405,-28.425 -63.19044,-28.189298 -63.65,-28.217893 A 0.7071067811865476,0.7071067811865476 -179.99999999972437 0,1 -64.357107,-28.925 C -64.385702,-29.38456 -64.15,-29.953595 -64.15,-30.425 L -64.15,-40.425 M -45.1,-40.425 C -45.1,-40.896405 -45.335702,-41.46544 -45.307107,-41.925 A 0.7071067811865476,0.7071067811865476 -89.99999999970163 0,1 -44.6,-42.632107 C -44.14044,-42.660702 -43.571405,-42.425 -43.1,-42.425 L -33.1,-42.425 C -32.628595,-42.425 -32.05956,-42.660702 -31.6,-42.632107 A 0.7071067811865476,0.7071067811865476 2.733334653626473e-10 0,1 -30.892893,-41.925 C -30.864298,-41.46544 -31.1,-40.896405 -31.1,-40.425 L -31.1,-30.425 C -31.1,-29.953595 -30.864298,-29.38456 -30.892893,-28.925 A 0.7071067811865476,0.7071067811865476 90.00000000026822 0,1 -31.6,-28.217893 C -32.05956,-28.189298 -32.628595,-28.425 -33.1,-28.425 L -43.1,-28.425 C -43.571405,-28.425 -44.14044,-28.189298 -44.6,-28.217893 A 0.7071067811865476,0.7071067811865476 -179.99999999972437 0,1 -45.307107,-28.925 C -45.335702,-29.38456 -45.1,-29.953595 -45.1,-30.425 L -45.1,-40.425 M -26.05,-40.425 C -26.05,-40.896405 -26.285702,-41.46544 -26.257107,-41.925 A 0.7071067811865476,0.7071067811865476 -89.99999999970163 0,1 -25.55,-42.632107 C -25.09044,-42.660702 -24.521405,-42.425 -24.05,-42.425 L -14.05,-42.425 C -13.578595,-42.425 -13.00956,-42.660702 -12.55,-42.632107 A 0.7071067811865476,0.7071067811865476 2.733334653626473e-10 0,1 -11.842893,-41.925 C -11.814298,-41.46544 -12.05,-40.896405 -12.05,-40.425 L -12.05,-30.425 C -12.05,-29.953595 -11.814298,-29.38456 -11.842893,-28.925 A 0.7071067811865476,0.7071067811865476 90.00000000026822 0,1 -12.55,-28.217893 C -13.00956,-28.189298 -13.578595,-28.425 -14.05,-28.425 L -24.05,-28.425 C -24.521405,-28.425 -25.09044,-28.189298 -25.55,-28.217893 A 0.7071067811865476,0.7071067811865476 -179.99999999972437 0,1 -26.257107,-28.925 C -26.285702,-29.38456 -26.05,-29.953595 -26.05,-30.425 L -26.05,-40.425 M -174.6125,-10.60028 A 1.6,1.6 0.0 0,1 -177.8125,-10.60028 A 1.6,1.6 0.0 0,1 -174.6125,-10.60028 M -65.075,-5.2625 A 1.6000000000000012,1.6000000000000012 0.0 0,1 -68.275,-5.2625 A 1.6000000000000012,1.6000000000000012 0.0 0,1 -65.075,-5.2625 M 2.525,-59.475 C 2.525,-59.946405 2.289298,-60.51544 2.317893,-60.975 A 0.7071067811865476,0.7071067811865476 -89.99999999970163 0,1 3.025,-61.682107 C 3.48456,-61.710702 4.053595,-61.475 4.525,-61.475 L 14.525,-61.475 C 14.996405,-61.475 15.56544,-61.710702 16.025,-61.682107 A 0.7071067811865476,0.7071067811865476 2.733334653626473e-10 0,1 16.732107,-60.975 C 16.760702,-60.51544 16.525,-59.946405 16.525,-59.475 L 16.525,-49.475 C 16.525,-49.003595 16.760702,-48.43456 16.732107,-47.975 A 0.7071067811865476,0.7071067811865476 90.00000000026822 0,1 16.025,-47.267893 C 15.56544,-47.239298 14.996405,-47.475 14.525,-47.475 L 4.525,-47.475 C 4.053595,-47.475 3.48456,-47.239298 3.025,-47.267893 A 0.7071067811865476,0.7071067811865476 -179.99999999972437 0,1 2.317893,-47.975 C 2.289298,-48.43456 2.525,-49.003595 2.525,-49.475 L 2.525,-59.475 M 21.575,-59.475 C 21.575,-59.946405 21.339298,-60.51544 21.367893,-60.975 A 0.7071067811865476,0.7071067811865476 -89.99999999970163 0,1 22.075,-61.682107 C 22.53456,-61.710702 23.103595,-61.475 23.575,-61.475 L 33.575,-61.475 C 34.046405,-61.475 34.61544,-61.710702 35.075,-61.682107 A 0.7071067811865476,0.7071067811865476 2.733334653626473e-10 0,1 35.782107,-60.975 C 35.810702,-60.51544 35.575,-59.946405 35.575,-59.475 L 35.575,-49.475 C 35.575,-49.003595 35.810702,-48.43456 35.782107,-47.975 A 0.7071067811865476,0.7071067811865476 90.00000000026822 0,1 35.075,-47.267893 C 34.61544,-47.239298 34.046405,-47.475 33.575,-47.475 L 23.575,-47.475 C 23.103595,-47.475 22.53456,-47.239298 22.075,-47.267893 A 0.7071067811865476,0.7071067811865476 -179.99999999972437 0,1 21.367893,-47.975 C 21.339298,-48.43456 21.575,-49.003595 21.575,-49.475 L 21.575,-59.475 M 40.625,-59.475 C 40.625,-59.946405 40.389298,-60.51544 40.417893,-60.975 A 0.7071067811865476,0.7071067811865476 -89.99999999970163 0,1 41.125,-61.682107 C 41.58456,-61.710702 42.153595,-61.475 42.625,-61.475 L 52.625,-61.475 C 53.096405,-61.475 53.66544,-61.710702 54.125,-61.682107 A 0.7071067811865476,0.7071067811865476 2.733334653626473e-10 0,1 54.832107,-60.975 C 54.860702,-60.51544 54.625,-59.946405 54.625,-59.475 L 54.625,-49.475 C 54.625,-49.003595 54.860702,-48.43456 54.832107,-47.975 A 0.7071067811865476,0.7071067811865476 90.00000000026822 0,1 54.125,-47.267893 C 53.66544,-47.239298 53.096405,-47.475 52.625,-47.475 L 42.625,-47.475 C 42.153595,-47.475 41.58456,-47.239298 41.125,-47.267893 A 0.7071067811865476,0.7071067811865476 -179.99999999972437 0,1 40.417893,-47.975 C 40.389298,-48.43456 40.625,-49.003595 40.625,-49.475 L 40.625,-59.475 M 59.675,-59.475 C 59.675,-59.946405 59.439298,-60.51544 59.467893,-60.975 A 0.7071067811865476,0.7071067811865476 -89.99999999970163 0,1 60.175,-61.682107 C 60.63456,-61.710702 61.203595,-61.475 61.675,-61.475 L 71.675,-61.475 C 72.146405,-61.475 72.71544,-61.710702 73.175,-61.682107 A 0.7071067811865476,0.7071067811865476 2.733334653626473e-10 0,1 73.882107,-60.975 C 73.910702,-60.51544 73.675,-59.946405 73.675,-59.475 L 73.675,-49.475 C 73.675,-49.003595 73.910702,-48.43456 73.882107,-47.975 A 0.7071067811865476,0.7071067811865476 90.00000000026822 0,1 73.175,-47.267893 C 72.71544,-47.239298 72.146405,-47.475 71.675,-47.475 L 61.675,-47.475 C 61.203595,-47.475 60.63456,-47.239298 60.175,-47.267893 A 0.7071067811865476,0.7071067811865476 -179.99999999972437 0,1 59.467893,-47.975 C 59.439298,-48.43456 59.675,-49.003595 59.675,-49.475 L 59.675,-59.475 M 78.725,-59.475 C 78.725,-59.946405 78.489298,-60.51544 78.517893,-60.975 A 0.7071067811865476,0.7071067811865476 -89.99999999970163 0,1 79.225,-61.682107 C 79.68456,-61.710702 80.253595,-61.475 80.725,-61.475 L 90.725,-61.475 C 91.196405,-61.475 91.76544,-61.710702 92.225,-61.682107 A 0.7071067811865476,0.7071067811865476 2.733334653626473e-10 0,1 92.932107,-60.975 C 92.960702,-60.51544 92.725,-59.946405 92.725,-59.475 L 92.725,-49.475 C 92.725,-49.003595 92.960702,-48.43456 92.932107,-47.975 A 0.7071067811865476,0.7071067811865476 90.00000000026822 0,1 92.225,-47.267893 C 91.76544,-47.239298 91.196405,-47.475 90.725,-47.475 L 80.725,-47.475 C 80.253595,-47.475 79.68456,-47.239298 79.225,-47.267893 A 0.7071067811865476,0.7071067811865476 -179.99999999972437 0,1 78.517893,-47.975 C 78.489298,-48.43456 78.725,-49.003595 78.725,-49.475 L 78.725,-59.475 M -7.0,-40.425 C -7.0,-40.896405 -7.235702,-41.46544 -7.207107,-41.925 A 0.7071067811865476,0.7071067811865476 -89.99999999970163 0,1 -6.5,-42.632107 C -6.04044,-42.660702 -5.471405,-42.425 -5.0,-42.425 L 5.0,-42.425 C 5.471405,-42.425 6.04044,-42.660702 6.5,-42.632107 A 0.7071067811865476,0.7071067811865476 2.733334653626473e-10 0,1 7.207107,-41.925 C 7.235702,-41.46544 7.0,-40.896405 7.0,-40.425 L 7.0,-30.425 C 7.0,-29.953595 7.235702,-29.38456 7.207107,-28.925 A 0.7071067811865476,0.7071067811865476 90.00000000026822 0,1 6.5,-28.217893 C 6.04044,-28.189298 5.471405,-28.425 5.0,-28.425 L -5.0,-28.425 C -5.471405,-28.425 -6.04044,-28.189298 -6.5,-28.217893 A 0.7071067811865476,0.7071067811865476 -179.99999999972437 0,1 -7.207107,-28.925 C -7.235702,-29.38456 -7.0,-29.953595 -7.0,-30.425 L -7.0,-40.425 M 12.05,-40.425 C 12.05,-40.896405 11.814298,-41.46544 11.842893,-41.925 A 0.7071067811865476,0.7071067811865476 -89.99999999970163 0,1 12.55,-42.632107 C 13.00956,-42.660702 13.578595,-42.425 14.05,-42.425 L 24.05,-42.425 C 24.521405,-42.425 25.09044,-42.660702 25.55,-42.632107 A 0.7071067811865476,0.7071067811865476 2.733334653626473e-10 0,1 26.257107,-41.925 C 26.285702,-41.46544 26.05,-40.896405 26.05,-40.425 L 26.05,-30.425 C 26.05,-29.953595 26.285702,-29.38456 26.257107,-28.925 A 0.7071067811865476,0.7071067811865476 90.00000000026822 0,1 25.55,-28.217893 C 25.09044,-28.189298 24.521405,-28.425 24.05,-28.425 L 14.05,-28.425 C 13.578595,-28.425 13.00956,-28.189298 12.55,-28.217893 A 0.7071067811865476,0.7071067811865476 -179.99999999972437 0,1 11.842893,-28.925 C 11.814298,-29.38456 12.05,-29.953595 12.05,-30.425 L 12.05,-40.425 M 31.1,-40.425 C 31.1,-40.896405 30.864298,-41.46544 30.892893,-41.925 A 0.7071067811865476,0.7071067811865476 -89.99999999970163 0,1 31.6,-42.632107 C 32.05956,-42.660702 32.628595,-42.425 33.1,-42.425 L 43.1,-42.425 C 43.571405,-42.425 44.14044,-42.660702 44.6,-42.632107 A 0.7071067811865476,0.7071067811865476 2.733334653626473e-10 0,1 45.307107,-41.925 C 45.335702,-41.46544 45.1,-40.896405 45.1,-40.425 L 45.1,-30.425 C 45.1,-29.953595 45.335702,-29.38456 45.307107,-28.925 A 0.7071067811865476,0.7071067811865476 90.00000000026822 0,1 44.6,-28.217893 C 44.14044,-28.189298 43.571405,-28.425 43.1,-28.425 L 33.1,-28.425 C 32.628595,-28.425 32.05956,-28.189298 31.6,-28.217893 A 0.7071067811865476,0.7071067811865476 -179.99999999972437 0,1 30.892893,-28.925 C 30.864298,-29.38456 31.1,-29.953595 31.1,-30.425 L 31.1,-40.425 M 50.15,-40.425 C 50.15,-40.896405 49.914298,-41.46544 49.942893,-41.925 A 0.7071067811865476,0.7071067811865476 -89.99999999970163 0,1 50.65,-42.632107 C 51.10956,-42.660702 51.678595,-42.425 52.15,-42.425 L 62.15,-42.425 C 62.621405,-42.425 63.19044,-42.660702 63.65,-42.632107 A 0.7071067811865476,0.7071067811865476 2.733334653626473e-10 0,1 64.357107,-41.925 C 64.385702,-41.46544 64.15,-40.896405 64.15,-40.425 L 64.15,-30.425 C 64.15,-29.953595 64.385702,-29.38456 64.357107,-28.925 A 0.7071067811865476,0.7071067811865476 90.00000000026822 0,1 63.65,-28.217893 C 63.19044,-28.189298 62.621405,-28.425 62.15,-28.425 L 52.15,-28.425 C 51.678595,-28.425 51.10956,-28.189298 50.65,-28.217893 A 0.7071067811865476,0.7071067811865476 -179.99999999972437 0,1 49.942893,-28.925 C 49.914298,-29.38456 50.15,-29.953595 50.15,-30.425 L 50.15,-40.425 M 69.2,-40.425 C 69.2,-40.896405 68.964298,-41.46544 68.992893,-41.925 A 0.7071067811865476,0.7071067811865476 -89.99999999970163 0,1 69.7,-42.632107 C 70.15956,-42.660702 70.728595,-42.425 71.2,-42.425 L 81.2,-42.425 C 81.671405,-42.425 82.24044,-42.660702 82.7,-42.632107 A 0.7071067811865476,0.7071067811865476 2.733334653626473e-10 0,1 83.407107,-41.925 C 83.435702,-41.46544 83.2,-40.896405 83.2,-40.425 L 83.2,-30.425 C 83.2,-29.953595 83.435702,-29.38456 83.407107,-28.925 A 0.7071067811865476,0.7071067811865476 90.00000000026822 0,1 82.7,-28.217893 C 82.24044,-28.189298 81.671405,-28.425 81.2,-28.425 L 71.2,-28.425 C 70.728595,-28.425 70.15956,-28.189298 69.7,-28.217893 A 0.7071067811865476,0.7071067811865476 -179.99999999972437 0,1 68.992893,-28.925 C 68.964298,-29.38456 69.2,-29.953595 69.2,-30.425 L 69.2,-40.425 M 88.25,-40.425 C 88.25,-40.896405 88.014298,-41.46544 88.042893,-41.925 A 0.7071067811865476,0.7071067811865476 -89.99999999970163 0,1 88.75,-42.632107 C 89.20956,-42.660702 89.778595,-42.425 90.25,-42.425 L 100.25,-42.425 C 100.721405,-42.425 101.29044,-42.660702 101.75,-42.632107 A 0.7071067811865476,0.7071067811865476 2.733334653626473e-10 0,1 102.457107,-41.925 C 102.485702,-41.46544 102.25,-40.896405 102.25,-40.425 L 102.25,-30.425 C 102.25,-29.953595 102.485702,-29.38456 102.457107,-28.925 A 0.7071067811865476,0.7071067811865476 90.00000000026822 0,1 101.75,-28.217893 C 101.29044,-28.189298 100.721405,-28.425 100.25,-28.425 L 90.25,-28.425 C 89.778595,-28.425 89.20956,-28.189298 88.75,-28.217893 A 0.7071067811865476,0.7071067811865476 -179.99999999972437 0,1 88.042893,-28.925 C 88.014298,-29.38456 88.25,-29.953595 88.25,-30.425 L 88.25,-40.425 M 97.775,-59.475 C 97.775,-59.946405 97.539298,-60.51544 97.567893,-60.975 A 0.7071067811865476,0.7071067811865476 -89.99999999970163 0,1 98.275,-61.682107 C 98.73456,-61.710702 99.303595,-61.475 99.775,-61.475 L 109.775,-61.475 C 110.246405,-61.475 110.81544,-61.710702 111.275,-61.682107 A 0.7071067811865476,0.7071067811865476 2.733334653626473e-10 0,1 111.982107,-60.975 C 112.010702,-60.51544 111.775,-59.946405 111.775,-59.475 L 111.775,-49.475 C 111.775,-49.003595 112.010702,-48.43456 111.982107,-47.975 A 0.7071067811865476,0.7071067811865476 90.00000000026822 0,1 111.275,-47.267893 C 110.81544,-47.239298 110.246405,-47.475 109.775,-47.475 L 99.775,-47.475 C 99.303595,-47.475 98.73456,-47.239298 98.275,-47.267893 A 0.7071067811865476,0.7071067811865476 -179.99999999972437 0,1 97.567893,-47.975 C 97.539298,-48.43456 97.775,-49.003595 97.775,-49.475 L 97.775,-59.475 M 121.5875,-59.475 C 121.5875,-59.946405 121.351798,-60.51544 121.380393,-60.975 A 0.7071067811865476,0.7071067811865476 -89.99999999970163 0,1 122.0875,-61.682107 C 122.54706,-61.710702 123.116095,-61.475 123.5875,-61.475 L 133.5875,-61.475 C 134.058905,-61.475 134.62794,-61.710702 135.0875,-61.682107 A 0.7071067811865476,0.7071067811865476 2.733334653626473e-10 0,1 135.794607,-60.975 C 135.823202,-60.51544 135.5875,-59.946405 135.5875,-59.475 L 135.5875,-49.475 C 135.5875,-49.003595 135.823202,-48.43456 135.794607,-47.975 A 0.7071067811865476,0.7071067811865476 90.00000000026822 0,1 135.0875,-47.267893 C 134.62794,-47.239298 134.058905,-47.475 133.5875,-47.475 L 123.5875,-47.475 C 123.116095,-47.475 122.54706,-47.239298 122.0875,-47.267893 A 0.7071067811865476,0.7071067811865476 -179.99999999972437 0,1 121.380393,-47.975 C 121.351798,-48.43456 121.5875,-49.003595 121.5875,-49.475 L 121.5875,-59.475 M 150.1625,-64.2375 C 150.1625,-64.708905 149.926798,-65.27794 149.955393,-65.7375 A 0.7071067811865476,0.7071067811865476 -89.99999999970163 0,1 150.6625,-66.444607 C 151.12206,-66.473202 151.691095,-66.2375 152.1625,-66.2375 L 162.1625,-66.2375 C 162.633905,-66.2375 163.20294,-66.473202 163.6625,-66.444607 A 0.7071067811865476,0.7071067811865476 2.733334653626473e-10 0,1 164.369607,-65.7375 C 164.398202,-65.27794 164.1625,-64.708905 164.1625,-64.2375 L 164.1625,-54.2375 C 164.1625,-53.766095 164.398202,-53.19706 164.369607,-52.7375 A 0.7071067811865476,0.7071067811865476 90.00000000026822 0,1 163.6625,-52.030393 C 163.20294,-52.001798 162.633905,-52.2375 162.1625,-52.2375 L 152.1625,-52.2375 C 151.691095,-52.2375 151.12206,-52.001798 150.6625,-52.030393 A 0.7071067811865476,0.7071067811865476 -179.99999999972437 0,1 149.955393,-52.7375 C 149.926798,-53.19706 150.1625,-53.766095 150.1625,-54.2375 L 150.1625,-64.2375 M 169.2125,-64.2375 C 169.2125,-64.708905 168.976798,-65.27794 169.005393,-65.7375 A 0.7071067811865476,0.7071067811865476 -89.99999999970163 0,1 169.7125,-66.444607 C 170.17206,-66.473202 170.741095,-66.2375 171.2125,-66.2375 L 181.2125,-66.2375 C 181.683905,-66.2375 182.25294,-66.473202 182.7125,-66.444607 A 0.7071067811865476,0.7071067811865476 2.733334653626473e-10 0,1 183.419607,-65.7375 C 183.448202,-65.27794 183.2125,-64.708905 183.2125,-64.2375 L 183.2125,-54.2375 C 183.2125,-53.766095 183.448202,-53.19706 183.419607,-52.7375 A 0.7071067811865476,0.7071067811865476 90.00000000026822 0,1 182.7125,-52.030393 C 182.25294,-52.001798 181.683905,-52.2375 181.2125,-52.2375 L 171.2125,-52.2375 C 170.741095,-52.2375 170.17206,-52.001798 169.7125,-52.030393 A 0.7071067811865476,0.7071067811865476 -179.99999999972437 0,1 169.005393,-52.7375 C 168.976798,-53.19706 169.2125,-53.766095 169.2125,-54.2375 L 169.2125,-64.2375 M 188.2625,-64.2375 C 188.2625,-64.708905 188.026798,-65.27794 188.055393,-65.7375 A 0.7071067811865476,0.7071067811865476 -89.99999999970163 0,1 188.7625,-66.444607 C 189.22206,-66.473202 189.791095,-66.2375 190.2625,-66.2375 L 200.2625,-66.2375 C 200.733905,-66.2375 201.30294,-66.473202 201.7625,-66.444607 A 0.7071067811865476,0.7071067811865476 2.733334653626473e-10 0,1 202.469607,-65.7375 C 202.498202,-65.27794 202.2625,-64.708905 202.2625,-64.2375 L 202.2625,-54.2375 C 202.2625,-53.766095 202.498202,-53.19706 202.469607,-52.7375 A 0.7071067811865476,0.7071067811865476 90.00000000026822 0,1 201.7625,-52.030393 C 201.30294,-52.001798 200.733905,-52.2375 200.2625,-52.2375 L 190.2625,-52.2375 C 189.791095,-52.2375 189.22206,-52.001798 188.7625,-52.030393 A 0.7071067811865476,0.7071067811865476 -179.99999999972437 0,1 188.055393,-52.7375 C 188.026798,-53.19706 188.2625,-53.766095 188.2625,-54.2375 L 188.2625,-64.2375 M 107.3,-40.425 C 107.3,-40.896405 107.064298,-41.46544 107.092893,-41.925 A 0.7071067811865476,0.7071067811865476 -89.99999999970163 0,1 107.8,-42.632107 C 108.25956,-42.660702 108.828595,-42.425 109.3,-42.425 L 119.3,-42.425 C 119.771405,-42.425 120.34044,-42.660702 120.8,-42.632107 A 0.7071067811865476,0.7071067811865476 2.733334653626473e-10 0,1 121.507107,-41.925 C 121.535702,-41.46544 121.3,-40.896405 121.3,-40.425 L 121.3,-30.425 C 121.3,-29.953595 121.535702,-29.38456 121.507107,-28.925 A 0.7071067811865476,0.7071067811865476 90.00000000026822 0,1 120.8,-28.217893 C 120.34044,-28.189298 119.771405,-28.425 119.3,-28.425 L 109.3,-28.425 C 108.828595,-28.425 108.25956,-28.189298 107.8,-28.217893 A 0.7071067811865476,0.7071067811865476 -179.99999999972437 0,1 107.092893,-28.925 C 107.064298,-29.38456 107.3,-29.953595 107.3,-30.425 L 107.3,-40.425 M 126.35,-40.425 C 126.35,-40.896405 126.114298,-41.46544 126.142893,-41.925 A 0.7071067811865476,0.7071067811865476 -89.99999999970163 0,1 126.85,-42.632107 C 127.30956,-42.660702 127.878595,-42.425 128.35,-42.425 L 138.35,-42.425 C 138.821405,-42.425 139.39044,-42.660702 139.85,-42.632107 A 0.7071067811865476,0.7071067811865476 2.733334653626473e-10 0,1 140.557107,-41.925 C 140.585702,-41.46544 140.35,-40.896405 140.35,-40.425 L 140.35,-30.425 C 140.35,-29.953595 140.585702,-29.38456 140.557107,-28.925 A 0.7071067811865476,0.7071067811865476 90.00000000026822 0,1 139.85,-28.217893 C 139.39044,-28.189298 138.821405,-28.425 138.35,-28.425 L 128.35,-28.425 C 127.878595,-28.425 127.30956,-28.189298 126.85,-28.217893 A 0.7071067811865476,0.7071067811865476 -179.99999999972437 0,1 126.142893,-28.925 C 126.114298,-29.38456 126.35,-29.953595 126.35,-30.425 L 126.35,-40.425 M 150.1625,-45.1875 C 150.1625,-45.658905 149.926798,-46.22794 149.955393,-46.6875 A 0.7071067811865476,0.7071067811865476 -89.99999999970163 0,1 150.6625,-47.394607 C 151.12206,-47.423202 151.691095,-47.1875 152.1625,-47.1875 L 162.1625,-47.1875 C 162.633905,-47.1875 163.20294,-47.423202 163.6625,-47.394607 A 0.7071067811865476,0.7071067811865476 2.733334653626473e-10 0,1 164.369607,-46.6875 C 164.398202,-46.22794 164.1625,-45.658905 164.1625,-45.1875 L 164.1625,-35.1875 C 164.1625,-34.716095 164.398202,-34.14706 164.369607,-33.6875 A 0.7071067811865476,0.7071067811865476 90.00000000026822 0,1 163.6625,-32.980393 C 163.20294,-32.951798 162.633905,-33.1875 162.1625,-33.1875 L 152.1625,-33.1875 C 151.691095,-33.1875 151.12206,-32.951798 150.6625,-32.980393 A 0.7071067811865476,0.7071067811865476 -179.99999999972437 0,1 149.955393,-33.6875 C 149.926798,-34.14706 150.1625,-34.716095 150.1625,-35.1875 L 150.1625,-45.1875 M 169.2125,-45.1875 C 169.2125,-45.658905 168.976798,-46.22794 169.005393,-46.6875 A 0.7071067811865476,0.7071067811865476 -89.99999999970163 0,1 169.7125,-47.394607 C 170.17206,-47.423202 170.741095,-47.1875 171.2125,-47.1875 L 181.2125,-47.1875 C 181.683905,-47.1875 182.25294,-47.423202 182.7125,-47.394607 A 0.7071067811865476,0.7071067811865476 2.733334653626473e-10 0,1 183.419607,-46.6875 C 183.448202,-46.22794 183.2125,-45.658905 183.2125,-45.1875 L 183.2125,-35.1875 C 183.2125,-34.716095 183.448202,-34.14706 183.419607,-33.6875 A 0.7071067811865476,0.7071067811865476 90.00000000026822 0,1 182.7125,-32.980393 C 182.25294,-32.951798 181.683905,-33.1875 181.2125,-33.1875 L 171.2125,-33.1875 C 170.741095,-33.1875 170.17206,-32.951798 169.7125,-32.980393 A 0.7071067811865476,0.7071067811865476 -179.99999999972437 0,1 169.005393,-33.6875 C 168.976798,-34.14706 169.2125,-34.716095 169.2125,-35.1875 L 169.2125,-45.1875 M 188.2625,-45.1875 C 188.2625,-45.658905 188.026798,-46.22794 188.055393,-46.6875 A 0.7071067811865476,0.7071067811865476 -89.99999999970163 0,1 188.7625,-47.394607 C 189.22206,-47.423202 189.791095,-47.1875 190.2625,-47.1875 L 200.2625,-47.1875 C 200.733905,-47.1875 201.30294,-47.423202 201.7625,-47.394607 A 0.7071067811865476,0.7071067811865476 2.733334653626473e-10 0,1 202.469607,-46.6875 C 202.498202,-46.22794 202.2625,-45.658905 202.2625,-45.1875 L 202.2625,-35.1875 C 202.2625,-34.716095 202.498202,-34.14706 202.469607,-33.6875 A 0.7071067811865476,0.7071067811865476 90.00000000026822 0,1 201.7625,-32.980393 C 201.30294,-32.951798 200.733905,-33.1875 200.2625,-33.1875 L 190.2625,-33.1875 C 189.791095,-33.1875 189.22206,-32.951798 188.7625,-32.980393 A 0.7071067811865476,0.7071067811865476 -179.99999999972437 0,1 188.055393,-33.6875 C 188.026798,-34.14706 188.2625,-34.716095 188.2625,-35.1875 L 188.2625,-45.1875 M 68.275,-5.2625 A 1.6000000000000012,1.6000000000000012 0.0 0,1 65.075,-5.2625 A 1.6000000000000012,1.6000000000000012 0.0 0,1 68.275,-5.2625 M 177.8125,-10.60028 A 1.6,1.6 0.0 0,1 174.6125,-10.60028 A 1.6,1.6 0.0 0,1 177.8125,-10.60028" />
      <path d="M -4.5,151.225 L -4.5,150.225 L -8.0,150.225 A 1.5,1.5 0.0 0,1 -9.5,148.725 L -9.5,146.4625 L -59.53125,146.4625 C -61.11875,146.4625 -61.739267,145.545927 -62.507813,144.156865 A 4.7625,4.7625 0.0 0,0 -70.842188,144.156865 C -71.610733,145.545927 -72.23125,146.4625 -73.81875,146.4625 L -123.825,146.4625 C -139.28595,146.465858 -154.742562,145.114631 -169.203124,142.502762 C -170.765413,142.220967 -171.193008,141.203868 -171.671213,139.690105 A 4.7625,4.7625 -167.33549633636125 0,0 -179.772811,137.961558 C -180.827198,139.148328 -181.632702,139.902393 -183.173354,139.519579 C -192.029674,137.31978 -200.341744,134.628452 -207.879695,131.531171 C -209.348134,130.927977 -210.075,129.814932 -210.075,128.227432 L -210.075,127.926761 C -210.075,127.260094 -210.408333,126.926761 -211.075,126.926761 L -212.725,126.926761 L -212.725,127.426761 A 0.5,0.5 0.0 0,1 -213.225,127.926761 L -215.925,127.926761 A 0.5,0.5 0.0 0,1 -216.425,127.426761 L -216.425,126.926761 L -218.075,126.926761 C -218.741667,126.926761 -219.075,127.260094 -219.075,127.926761 L -219.075,130.689261 C -219.075,131.355928 -218.777187,131.83902 -218.178224,132.131747 A 133.35,65.0875 0.0 0,0 -177.205615,145.782523 A 133.35,65.0875 0.0 0,0 -123.825,151.225 L -4.5,151.225 M -174.6125,141.12472 A 1.6,1.6 0.0 0,1 -177.8125,141.12472 A 1.6,1.6 0.0 0,1 -174.6125,141.12472 M -65.075,146.4625 A 1.6000000000000012,1.6000000000000012 0.0 0,1 -68.275,146.4625 A 1.6000000000000012,1.6000000000000012 0.0 0,1 -65.075,146.4625" />
      <path d="M 218.178224,132.131747 C 218.777187,131.83902 219.075,131.355928 219.075,130.689261 L 219.075,127.926761 C 219.075,127.260094 218.741667,126.926761 218.075,126.926761 L 216.425,126.926761 L 216.425,127.426761 A 0.5,0.5 0.0 0,1 215.925,127.926761 L 213.225,127.926761 A 0.5,0.5 0.0 0,1 212.725,127.426761 L 212.725,126.926761 L 211.075,126.926761 C 210.408333,126.926761 210.075,127.260094 210.075,127.926761 L 210.075,128.227432 C 210.075,129.814932 209.348134,130.927977 207.879695,131.531171 C 200.341744,134.628452 192.029674,137.31978 183.173354,139.519579 C 181.632702,139.902393 180.827198,139.148328 179.772811,137.961558 A 4.7625,4.7625 0.0 0,0 171.671213,139.690105 C 171.193008,141.203868 170.765413,142.220967 169.203124,142.502762 C 154.742562,145.114631 139.28595,146.465858 123.825,146.4625 L 73.81875,146.4625 C 72.23125,146.4625 71.610733,145.545927 70.842187,144.156865 A 4.7625,4.7625 0.0 0,0 62.507812,144.156865 C 61.739267,145.545927 61.11875,146.4625 59.53125,146.4625 L 9.5,146.4625 L 9.5,148.725 A 1.5,1.5 0.0 0,1 8.0,150.225 L 4.5,150.225 L 4.5,151.225 L 123.825,151.225 A 133.35,65.0875 0.0 0,0 177.205615,145.782523 A 133.35,65.0875 0.0 0,0 218.178224,132.131747 M 177.8125,141.12472 A 1.6,1.6 0.0 0,1 174.6125,141.12472 A 1.6,1.6 0.0 0,1 177.8125,141.12472 M 68.275,146.4625 A 1.6000000000000012,1.6000000000000012 0.0 0,1 65.075,146.4625 A 1.6000000000000012,1.6000000000000012 0.0 0,1 68.275,146.4625" />
      <path d="M -218.075,-126.926761 L -216.425,-126.926761 L -216.425,-127.426761 A 0.5,0.5 0.0 0,1 -215.925,-127.926761 L -213.225,-127.926761 A 0.5,0.5 0.0 0,1 -212.725,-127.426761 L -212.725,-126.926761 L -211.075,-126.926761 C -210.408333,-126.926761 -210.075,-127.260094 -210.075,-127.926761 L -210.075,-128.227432 C -210.075,-129.814932 -209.348134,-130.927977 -207.879695,-131.531171 C -200.341744,-134.628452 -192.029674,-137.31978 -183.173354,-139.519579 C -181.632702,-139.902393 -180.827198,-139.148328 -179.772811,-137.961558 A 4.7625,4.7625 -11.423442418499047 0,0 -171.671213,-139.690105 C -171.193008,-141.203868 -170.765413,-142.220967 -169.203124,-142.502762 C -154.742562,-145.114631 -139.28595,-146.465858 -123.825,-146.4625 L -73.81875,-146.4625 C -72.23125,-146.4625 -71.610733,-145.545927 -70.842187,-144.156865 A 4.7625,4.7625 0.0 0,0 -62.507813,-144.156865 C -61.739267,-145.545927 -61.11875,-146.4625 -59.53125,-146.4625 L 59.53125,-146.4625 C 61.11875,-146.4625 61.739267,-145.545927 62.507813,-144.156865 A 4.7625,4.7625 0.0 0,0 70.842187,-144.156865 C 71.610733,-145.545927 72.23125,-146.4625 73.81875,-146.4625 L 123.825,-146.4625 C 139.28595,-146.465858 154.742562,-145.114631 169.203124,-142.502762 C 170.765413,-142.220967 171.193008,-141.203868 171.671213,-139.690105 A 4.7625,4.7625 0.0 0,0 179.772811,-137.961558 C 180.827198,-139.148328 181.632702,-139.902393 183.173354,-139.519579 C 192.029674,-137.31978 200.341744,-134.628452 207.879695,-131.531171 C 209.348134,-130.927977 210.075,-129.814932 210.075,-128.227432 L 210.075,-127.926761 C 210.075,-127.260094 210.408333,-126.926761 211.075,-126.926761 L 212.725,-126.926761 L 212.725,-127.426761 A 0.5,0.5 0.0 0,1 213.225,-127.926761 L 215.925,-127.926761 A 0.5,0.5 0.0 0,1 216.425,-127.426761 L 216.425,-126.926761 L 218.075,-126.926761 C 218.741667,-126.926761 219.075,-127.260094 219.075,-127.926761 L 219.075,-130.689261 C 219.075,-131.355928 218.777187,-131.83902 218.178224,-132.131747 A 133.35,65.0875 0.0 0,0 177.205615,-145.782523 A 133.35,65.0875 0.0 0,0 123.825,-151.225 L -123.825,-151.225 A 133.35,65.0875 0.0 0,0 -177.205615,-145.782523 A 133.35,65.0875 0.0 0,0 -218.178224,-132.131747 C -218.777187,-131.83902 -219.075,-131.355928 -219.075,-130.689261 L -219.075,-127.926761 C -219.075,-127.260094 -218.741667,-126.926761 -218.075,-126.926761 M -64.075,-146.4625 A 2.6000000000000014,2.6000000000000014 0.0 0,1 -69.275,-146.4625 A 2.6000000000000014,2.6000000000000014 0.0 0,1 -64.075,-146.4625 M 69.275,-146.4625 A 2.6000000000000014,2.6000000000000014 0.0 0,1 64.075,-146.4625 A 2.6000000000000014,2.6000000000000014 0.0 0,1 69.275,-146.4625 M -173.6125,-141.12472 A 2.6,2.6 0.0 0,1 -178.8125,-141.12472 A 2.6,2.6 0.0 0,1 -173.6125,-141.12472 M 178.8125,-141.12472 A 2.6,2.6 0.0 0,1 173.6125,-141.12472 A 2.6,2.6 0.0 0,1 178.8125,-141.12472" />
      <path d="M -123.825,130.675 L 123.825,130.675 A 133.35,65.0875 0.0 0,0 218.178224,111.581747 C 218.777187,111.28902 219.075,110.805928 219.075,110.139261 L 219.075,21.035739 C 219.075,20.369072 218.777187,19.88598 218.178224,19.593253 A 133.35,65.0875 0.0 0,0 123.825,0.5 L -123.825,0.5 A 133.35,65.0875 0.0 0,0 -218.178224,19.593253 C -218.777187,19.88598 -219.075,20.369072 -219.075,21.035739 L -219.075,110.139261 C -219.075,110.805928 -218.777187,111.28902 -218.178224,111.581747 A 133.35,65.0875 0.0 0,0 -123.825,130.675 M -173.6125,10.60028 A 2.6,2.6 0.0 0,1 -178.8125,10.60028 A 2.6,2.6 0.0 0,1 -173.6125,10.60028 M -64.075,5.2625 A 2.6000000000000014,2.6000000000000014 0.0 0,1 -69.275,5.2625 A 2.6000000000000014,2.6000000000000014 0.0 0,1 -64.075,5.2625 M 69.275,5.2625 A 2.6000000000000014,2.6000000000000014 0.0 0,1 64.075,5.2625 A 2.6000000000000014,2.6000000000000014 0.0 0,1 69.275,5.2625 M 178.8125,10.60028 A 2.6,2.6 0.0 0,1 173.6125,10.60028 A 2.6,2.6 0.0 0,1 178.8125,10.60028 M -174.6125,120.57472 A 1.6,1.6 0.0 0,1 -177.8125,120.57472 A 1.6,1.6 0.0 0,1 -174.6125,120.57472 M -65.075,125.9125 A 1.6000000000000012,1.6000000000000012 0.0 0,1 -68.275,125.9125 A 1.6000000000000012,1.6000000000000012 0.0 0,1 -65.075,125.9125 M -5.9,113.175 A 1.1,1.1 0.0 0,1 -8.1,113.175 A 1.1,1.1 0.0 0,1 -5.9,113.175 M -5.9,127.175 A 1.1,1.1 0.0 0,1 -8.1,127.175 A 1.1,1.1 0.0 0,1 -5.9,127.175 M 8.1,113.175 A 1.1,1.1 0.0 0,1 5.9,113.175 A 1.1,1.1 0.0 0,1 8.1,113.175 M 8.1,127.175 A 1.1,1.1 0.0 0,1 5.9,127.175 A 1.1,1.1 0.0 0,1 8.1,127.175 M 68.275,125.9125 A 1.6000000000000012,1.6000000000000012 0.0 0,1 65.075,125.9125 A 1.6000000000000012,1.6000000000000012 0.0 0,1 68.275,125.9125 M 177.8125,120.57472 A 1.6,1.6 0.0 0,1 174.6125,120.57472 A 1.6,1.6 0.0 0,1 177.8125,120.57472" />
    </g>
  </g>
</svg>