<?xml version='1.0' encoding='utf-8'?>
<svg width="458.24mm" height="317.19mm" viewBox="-229.12 -158.595 458.24 317.19" version="1.1" xmlns="http://www.w3.org/2000/svg">
  <g transform="scale(1,-1)" stroke-linecap="round">
    <g fill="none" stroke="rgb(0,0,0)" stroke-width="0.09">
      <path d="M 177.181918,132.720195 A 133.35,63.5 0.0 0,0 218.173956,119.399471 C 218.77573,119.112569 219.075,118.632409 219.075,117.965742 L 219.075,115.203242 C 219.075,114.536576 218.741667,114.203242 218.075,114.203242 L 216.425,114.203242 L 216.425,114.703242 A 0.5,0.5 0.0 0,1 215.925,115.203242 L 213.225,115.203242 A 0.5,0.5 0.0 0,1 212.725,114.703242 L 212.725,114.203242 L 211.075,114.203242 C 210.408333,114.203242 210.075,114.536576 210.075,115.203242 L 210.075,115.423341 C 210.075,117.010841 209.345202,118.117115 207.871435,118.707173 C 200.337296,121.72452 192.030998,124.34661 183.181997,126.49017 C 181.639149,126.864038 180.837653,126.105603 179.789598,124.913237 A 4.7625,4.7625 0.0 0,0 171.678221,126.600788 C 171.192683,128.112214 170.760184,129.127321 169.196676,129.402275 C 154.737125,131.948564 139.28321,133.265767 123.825,133.2625 L 73.81875,133.2625 C 72.23125,133.2625 71.610733,132.345927 70.842187,130.956865 A 4.7625,4.7625 0.0 0,0 62.507812,130.956865 C 61.739267,132.345927 61.11875,133.2625 59.53125,133.2625 L -59.53125,133.2625 C -61.11875,133.2625 -61.739267,132.345927 -62.507813,130.956865 A 4.7625,4.7625 0.0 0,0 -70.842188,130.956865 C -71.610733,132.345927 -72.23125,133.2625 -73.81875,133.2625 L -123.825,133.2625 C -139.28321,133.265767 -154.737125,131.948564 -169.196676,129.402275 C -170.760184,129.127321 -171.192683,128.112214 -171.678221,126.600788 A 4.7625,4.7625 -167.64049874902997 0,0 -179.789598,124.913237 C -180.837653,126.105603 -181.639149,126.864038 -183.181997,126.49017 C -192.030998,124.34661 -200.337296,121.72452 -207.871435,118.707173 C -209.345202,118.117115 -210.075,117.010841 -210.075,115.423341 L -210.075,115.203242 C -210.075,114.536576 -210.408333,114.203242 -211.075,114.203242 L -212.725,114.203242 L -212.725,114.703242 A 0.5,0.5 0.0 0,1 -213.225,115.203242 L -215.925,115.203242 A 0.5,0.5 0.0 0,1 -216.425,114.703242 L -216.425,114.203242 L -218.075,114.203242 C -218.741667,114.203242 -219.075,114.536576 -219.075,115.203242 L -219.075,117.965742 C -219.075,118.632409 -218.77573,119.112569 -218.173956,119.399471 A 133.35,63.5 0.0 0,0 -177.181918,132.720195 A 133.35,63.5 0.0 0,0 -123.825,138.025 L 123.825,138.025 A 133.35,63.5 0.0 0,0 177.181918,132.720195 M -174.6125,128.057402 A 1.6,1.6 0.0 0,1 -177.8125,128.057402 A 1.6,1.6 0.0 0,1 -174.6125,128.057402 M 177.8125,128.057402 A 1.6,1.6 0.0 0,1 174.6125,128.057402 A 1.6,1.6 0.0 0,1 177.8125,128.057402 M -65.075,133.2625 A 1.6000000000000012,1.6000000000000012 0.0 0,1 -68.275,133.2625 A 1.6000000000000012,1.6000000000000012 0.0 0,1 -65.075,133.2625 M 68.275,133.2625 A 1.6000000000000012,1.6000000000000012 0.0 0,1 65.075,133.2625 A 1.6000000000000012,1.6000000000000012 0.0 0,1 68.275,133.2625" />
      <path d="M -218.075,-114.203242 L -216.425,-114.203242 L -216.425,-114.703242 A 0.5,0.5 0.0 0,1 -215.925,-115.203242 L -213.225,-115.203242 A 0.5,0.5 0.0 0,1 -212.725,-114.703242 L -212.725,-114.203242 L -211.075,-114.203242 C -210.408333,-114.203242 -210.075,-114.536576 -210.075,-115.203242 L -210.075,-115.423341 C -210.075,-117.010841 -209.345202,-118.117115 -207.871435,-118.707173 C -200.337296,-121.72452 -192.030998,-124.34661 -183.181997,-126.49017 C -181.639149,-126.864038 -180.837653,-126.105603 -179.789598,-124.913237 A 4.7625,4.7625 -11.145674118505378 0,0 -171.678221,-126.600788 C -171.192683,-128.112214 -170.760184,-129.127321 -169.196676,-129.402275 C -154.737125,-131.948564 -139.28321,-133.265767 -123.825,-133.2625 L -73.81875,-133.2625 C -72.23125,-133.2625 -71.610733,-132.345927 -70.842187,-130.956865 A 4.7625,4.7625 0.0 0,0 -62.507813,-130.956865 C -61.739267,-132.345927 -61.11875,-133.2625 -59.53125,-133.2625 L 59.53125,-133.2625 C 61.11875,-133.2625 61.739267,-132.345927 62.507813,-130.956865 A 4.7625,4.7625 0.0 0,0 70.842187,-130.956865 C 71.610733,-132.345927 72.23125,-133.2625 73.81875,-133.2625 L 123.825,-133.2625 C 139.28321,-133.265767 154.737125,-131.948564 169.196676,-129.402275 C 170.760184,-129.127321 171.192683,-128.112214 171.678221,-126.600788 A 4.7625,4.7625 0.0 0,0 179.789598,-124.913237 C 180.837653,-126.105603 181.639149,-126.864038 183.181997,-126.49017 C 192.030998,-124.34661 200.337296,-121.72452 207.871435,-118.707173 C 209.345202,-118.117115 210.075,-117.010841 210.075,-115.423341 L 210.075,-115.203242 C 210.075,-114.536576 210.408333,-114.203242 211.075,-114.203242 L 212.725,-114.203242 L 212.725,-114.703242 A 0.5,0.5 0.0 0,1 213.225,-115.203242 L 215.925,-115.203242 A 0.5,0.5 0.0 0,1 216.425,-114.703242 L 216.425,-114.203242 L 218.075,-114.203242 C 218.741667,-114.203242 219.075,-114.536576 219.075,-115.203242 L 219.075,-117.965742 C 219.075,-118.632409 218.77573,-119.112569 218.173956,-119.399471 A 133.35,63.5 0.0 0,0 177.181918,-132.720195 A 133.35,63.5 0.0 0,0 123.825,-138.025 L -123.825,-138.025 A 133.35,63.5 0.0 0,0 -177.181918,-132.720195 A 133.35,63.5 0.0 0,0 -218.173956,-119.399471 C -218.77573,-119.112569 -219.075,-118.632409 -219.075,-117.965742 L -219.075,-115.203242 C -219.075,-114.536576 -218.741667,-114.203242 -218.075,-114.203242 M -65.075,-133.2625 A 1.6000000000000012,1.6000000000000012 0.0 0,1 -68.275,-133.2625 A 1.6000000000000012,1.6000000000000012 0.0 0,1 -65.075,-133.2625 M 68.275,-133.2625 A 1.6000000000000012,1.6000000000000012 0.0 0,1 65.075,-133.2625 A 1.6000000000000012,1.6000000000000012 0.0 0,1 68.275,-133.2625 M -174.6125,-128.057402 A 1.6,1.6 0.0 0,1 -177.8125,-128.057402 A 1.6,1.6 0.0 0,1 -174.6125,-128.057402 M 177.8125,-128.057402 A 1.6,1.6 0.0 0,1 174.6125,-128.057402 A 1.6,1.6 0.0 0,1 177.8125,-128.057402" />
      <path d="M -123.825,127.5 L 123.825,127.5 A 133.35,63.5 0.0 0,0 218.173956,108.874471 C 218.77573,108.587569 219.075,108.107409 219.075,107.440742 L 219.075,104.678242 C 219.075,104.011576 218.741667,103.678242 218.075,103.678242 L 216.425,103.678242 L 216.425,104.178242 A 0.5,0.5 0.0 0,1 215.925,104.678242 L 213.225,104.678242 A 0.5,0.5 0.0 0,1 212.725,104.178242 L 212.725,103.678242 L 208.3125,103.678242 C 207.645833,103.678242 207.3125,103.344909 207.3125,102.678242 L 207.3125,25.321758 C 207.3125,24.655091 207.645833,24.321758 208.3125,24.321758 L 212.725,24.321758 L 212.725,23.821758 A 0.5,0.5 0.0 0,1 213.225,23.321758 L 215.925,23.321758 A 0.5,0.5 0.0 0,1 216.425,23.821758 L 216.425,24.321758 L 218.075,24.321758 C 218.741667,24.321758 219.075,23.988424 219.075,23.321758 L 219.075,20.559258 C 219.075,19.892591 218.77573,19.412431 218.173956,19.125529 A 133.35,63.5 0.0 0,0 123.825,0.5 L -123.825,0.5 A 133.35,63.5 0.0 0,0 -218.173956,19.125529 C -218.77573,19.412431 -219.075,19.892591 -219.075,20.559258 L -219.075,23.321758 C -219.075,23.988424 -218.741667,24.321758 -218.075,24.321758 L -216.425,24.321758 L -216.425,23.821758 A 0.5,0.5 0.0 0,1 -215.925,23.321758 L -213.225,23.321758 A 0.5,0.5 0.0 0,1 -212.725,23.821758 L -212.725,24.321758 L -208.3125,24.321758 C -207.645833,24.321758 -207.3125,24.655091 -207.3125,25.321758 L -207.3125,102.678242 C -207.3125,103.344909 -207.645833,103.678242 -208.3125,103.678242 L -212.725,103.678242 L -212.725,104.178242 A 0.5,0.5 0.0 0,1 -213.225,104.678242 L -215.925,104.678242 A 0.5,0.5 0.0 0,1 -216.425,104.178242 L -216.425,103.678242 L -218.075,103.678242 C -218.741667,103.678242 -219.075,104.011576 -219.075,104.678242 L -219.075,107.440742 C -219.075,108.107409 -218.77573,108.587569 -218.173956,108.874471 A 133.35,63.5 0.0 0,0 -123.825,127.5 M -174.6125,10.467598 A 1.6,1.6 0.0 0,1 -177.8125,10.467598 A 1.6,1.6 0.0 0,1 -174.6125,10.467598 M -202.2625,24.075 C -202.2625,23.603595 -202.498202,23.03456 -202.469607,22.575 A 0.7071067811865476,0.7071067811865476 -89.99999999970163 0,1 -201.7625,21.867893 C -201.30294,21.839298 -200.733905,22.075 -200.2625,22.075 L -190.2625,22.075 C -189.791095,22.075 -189.22206,21.839298 -188.7625,21.867893 A 0.7071067811865476,0.7071067811865476 2.733334653626473e-10 0,1 -188.055393,22.575 C -188.026798,23.03456 -188.2625,23.603595 -188.2625,24.075 L -188.2625,34.075 C -188.2625,34.546405 -188.026798,35.11544 -188.055393,35.575 A 0.7071067811865476,0.7071067811865476 90.00000000026822 0,1 -188.7625,36.282107 C -189.22206,36.310702 -189.791095,36.075 -190.2625,36.075 L -200.2625,36.075 C -200.733905,36.075 -201.30294,36.310702 -201.7625,36.282107 A 0.7071067811865476,0.7071067811865476 -179.99999999972437 0,1 -202.469607,35.575 C -202.498202,35.11544 -202.2625,34.546405 -202.2625,34.075 L -202.2625,24.075 M -183.2125,24.075 C -183.2125,23.603595 -183.448202,23.03456 -183.419607,22.575 A 0.7071067811865476,0.7071067811865476 -89.99999999970163 0,1 -182.7125,21.867893 C -182.25294,21.839298 -181.683905,22.075 -181.2125,22.075 L -171.2125,22.075 C -170.741095,22.075 -170.17206,21.839298 -169.7125,21.867893 A 0.7071067811865476,0.7071067811865476 2.733334653626473e-10 0,1 -169.005393,22.575 C -168.976798,23.03456 -169.2125,23.603595 -169.2125,24.075 L -169.2125,34.075 C -169.2125,34.546405 -168.976798,35.11544 -169.005393,35.575 A 0.7071067811865476,0.7071067811865476 90.00000000026822 0,1 -169.7125,36.282107 C -170.17206,36.310702 -170.741095,36.075 -171.2125,36.075 L -181.2125,36.075 C -181.683905,36.075 -182.25294,36.310702 -182.7125,36.282107 A 0.7071067811865476,0.7071067811865476 -179.99999999972437 0,1 -183.419607,35.575 C -183.448202,35.11544 -183.2125,34.546405 -183.2125,34.075 L -183.2125,24.075 M -164.1625,24.075 C -164.1625,23.603595 -164.398202,23.03456 -164.369607,22.575 A 0.7071067811865476,0.7071067811865476 -89.99999999970163 0,1 -163.6625,21.867893 C -163.20294,21.839298 -162.633905,22.075 -162.1625,22.075 L -152.1625,22.075 C -151.691095,22.075 -151.12206,21.839298 -150.6625,21.867893 A 0.7071067811865476,0.7071067811865476 2.733334653626473e-10 0,1 -149.955393,22.575 C -149.926798,23.03456 -150.1625,23.603595 -150.1625,24.075 L -150.1625,34.075 C -150.1625,34.546405 -149.926798,35.11544 -149.955393,35.575 A 0.7071067811865476,0.7071067811865476 90.00000000026822 0,1 -150.6625,36.282107 C -151.12206,36.310702 -151.691095,36.075 -152.1625,36.075 L -162.1625,36.075 C -162.633905,36.075 -163.20294,36.310702 -163.6625,36.282107 A 0.7071067811865476,0.7071067811865476 -179.99999999972437 0,1 -164.369607,35.575 C -164.398202,35.11544 -164.1625,34.546405 -164.1625,34.075 L -164.1625,24.075 M -137.96875,14.55 C -137.96875,14.078595 -138.204452,13.50956 -138.175857,13.05 A 0.7071067811865476,0.7071067811865476 -89.99999999970163 0,1 -137.46875,12.342893 C -137.00919,12.314298 -136.440155,12.55 -135.96875,12.55 L -125.96875,12.55 C -125.497345,12.55 -124.92831,12.314298 -124.46875,12.342893 A 0.7071067811865476,0.7071067811865476 2.733334653626473e-10 0,1 -123.761643,13.05 C -123.733048,13.50956 -123.96875,14.078595 -123.96875,14.55 L -123.96875,24.55 C -123.96875,25.021405 -123.733048,25.59044 -123.761643,26.05 A 0.7071067811865476,0.7071067811865476 90.00000000026822 0,1 -124.46875,26.757107 C -124.92831,26.785702 -125.497345,26.55 -125.96875,26.55 L -135.96875,26.55 C -136.440155,26.55 -137.00919,26.785702 -137.46875,26.757107 A 0.7071067811865476,0.7071067811865476 -179.99999999972437 0,1 -138.175857,26.05 C -138.204452,25.59044 -137.96875,25.021405 -137.96875,24.55 L -137.96875,14.55 M -114.15625,14.55 C -114.15625,14.078595 -114.391952,13.50956 -114.363357,13.05 A 0.7071067811865476,0.7071067811865476 -89.99999999970163 0,1 -113.65625,12.342893 C -113.19669,12.314298 -112.627655,12.55 -112.15625,12.55 L -102.15625,12.55 C -101.684845,12.55 -101.11581,12.314298 -100.65625,12.342893 A 0.7071067811865476,0.7071067811865476 2.733334653626473e-10 0,1 -99.949143,13.05 C -99.920548,13.50956 -100.15625,14.078595 -100.15625,14.55 L -100.15625,24.55 C -100.15625,25.021405 -99.920548,25.59044 -99.949143,26.05 A 0.7071067811865476,0.7071067811865476 90.00000000026822 0,1 -100.65625,26.757107 C -101.11581,26.785702 -101.684845,26.55 -102.15625,26.55 L -112.15625,26.55 C -112.627655,26.55 -113.19669,26.785702 -113.65625,26.757107 A 0.7071067811865476,0.7071067811865476 -179.99999999972437 0,1 -114.363357,26.05 C -114.391952,25.59044 -114.15625,25.021405 -114.15625,24.55 L -114.15625,14.55 M -65.075,5.2625 A 1.6000000000000012,1.6000000000000012 0.0 0,1 -68.275,5.2625 A 1.6000000000000012,1.6000000000000012 0.0 0,1 -65.075,5.2625 M -87.9625,14.55 C -87.9625,14.078595 -88.198202,13.50956 -88.169607,13.05 A 0.7071067811865476,0.7071067811865476 -89.99999999970163 0,1 -87.4625,12.342893 C -87.00294,12.314298 -86.433905,12.55 -85.9625,12.55 L -75.9625,12.55 C -75.491095,12.55 -74.92206,12.314298 -74.4625,12.342893 A 0.7071067811865476,0.7071067811865476 2.733334653626473e-10 0,1 -73.755393,13.05 C -73.726798,13.50956 -73.9625,14.078595 -73.9625,14.55 L -73.9625,24.55 C -73.9625,25.021405 -73.726798,25.59044 -73.755393,26.05 A 0.7071067811865476,0.7071067811865476 90.00000000026822 0,1 -74.4625,26.757107 C -74.92206,26.785702 -75.491095,26.55 -75.9625,26.55 L -85.9625,26.55 C -86.433905,26.55 -87.00294,26.785702 -87.4625,26.757107 A 0.7071067811865476,0.7071067811865476 -179.99999999972437 0,1 -88.169607,26.05 C -88.198202,25.59044 -87.9625,25.021405 -87.9625,24.55 L -87.9625,14.55 M -60.65,13.55 A 2.0,2.0 0.0 0,1 -58.65,11.55 L -55.65,11.55 A 2.0,2.0 0.0 0,1 -53.65,13.55 L -53.65,25.55 A 2.0,2.0 0.0 0,1 -55.65,27.55 L -58.65,27.55 A 2.0,2.0 0.0 0,1 -60.65,25.55 L -60.65,13.55 M -202.2625,43.125 C -202.2625,42.653595 -202.498202,42.08456 -202.469607,41.625 A 0.7071067811865476,0.7071067811865476 -89.99999999970163 0,1 -201.7625,40.917893 C -201.30294,40.889298 -200.733905,41.125 -200.2625,41.125 L -190.2625,41.125 C -189.791095,41.125 -189.22206,40.889298 -188.7625,40.917893 A 0.7071067811865476,0.7071067811865476 2.733334653626473e-10 0,1 -188.055393,41.625 C -188.026798,42.08456 -188.2625,42.653595 -188.2625,43.125 L -188.2625,53.125 C -188.2625,53.596405 -188.026798,54.16544 -188.055393,54.625 A 0.7071067811865476,0.7071067811865476 90.00000000026822 0,1 -188.7625,55.332107 C -189.22206,55.360702 -189.791095,55.125 -190.2625,55.125 L -200.2625,55.125 C -200.733905,55.125 -201.30294,55.360702 -201.7625,55.332107 A 0.7071067811865476,0.7071067811865476 -179.99999999972437 0,1 -202.469607,54.625 C -202.498202,54.16544 -202.2625,53.596405 -202.2625,53.125 L -202.2625,43.125 M -183.2125,43.125 C -183.2125,42.653595 -183.448202,42.08456 -183.419607,41.625 A 0.7071067811865476,0.7071067811865476 -89.99999999970163 0,1 -182.7125,40.917893 C -182.25294,40.889298 -181.683905,41.125 -181.2125,41.125 L -171.2125,41.125 C -170.741095,41.125 -170.17206,40.889298 -169.7125,40.917893 A 0.7071067811865476,0.7071067811865476 2.733334653626473e-10 0,1 -169.005393,41.625 C -168.976798,42.08456 -169.2125,42.653595 -169.2125,43.125 L -169.2125,53.125 C -169.2125,53.596405 -168.976798,54.16544 -169.005393,54.625 A 0.7071067811865476,0.7071067811865476 90.00000000026822 0,1 -169.7125,55.332107 C -170.17206,55.360702 -170.741095,55.125 -171.2125,55.125 L -181.2125,55.125 C -181.683905,55.125 -182.25294,55.360702 -182.7125,55.332107 A 0.7071067811865476,0.7071067811865476 -179.99999999972437 0,1 -183.419607,54.625 C -183.448202,54.16544 -183.2125,53.596405 -183.2125,53.125 L -183.2125,43.125 M -164.1625,43.125 C -164.1625,42.653595 -164.398202,42.08456 -164.369607,41.625 A 0.7071067811865476,0.7071067811865476 -89.99999999970163 0,1 -163.6625,40.917893 C -163.20294,40.889298 -162.633905,41.125 -162.1625,41.125 L -152.1625,41.125 C -151.691095,41.125 -151.12206,40.889298 -150.6625,40.917893 A 0.7071067811865476,0.7071067811865476 2.733334653626473e-10 0,1 -149.955393,41.625 C -149.926798,42.08456 -150.1625,42.653595 -150.1625,43.125 L -150.1625,53.125 C -150.1625,53.596405 -149.926798,54.16544 -149.955393,54.625 A 0.7071067811865476,0.7071067811865476 90.00000000026822 0,1 -150.6625,55.332107 C -151.12206,55.360702 -151.691095,55.125 -152.1625,55.125 L -162.1625,55.125 C -162.633905,55.125 -163.20294,55.360702 -163.6625,55.332107 A 0.7071067811865476,0.7071067811865476 -179.99999999972437 0,1 -164.369607,54.625 C -164.398202,54.16544 -164.1625,53.596405 -164.1625,53.125 L -164.1625,43.125 M -136.85,32.6 A 2.0,2.0 0.0 0,1 -134.85,30.6 L -131.85,30.6 A 2.0,2.0 0.0 0,1 -129.85,32.6 L -129.85,44.6 A 2.0,2.0 0.0 0,1 -131.85,46.6 L -134.85,46.6 A 2.0,2.0 0.0 0,1 -136.85,44.6 L -136.85,32.6 M -128.44375,33.6 C -128.44375,33.128595 -128.679452,32.55956 -128.650857,32.1 A 0.7071067811865476,0.7071067811865476 -89.99999999970163 0,1 -127.94375,31.392893 C -127.48419,31.364298 -126.915155,31.6 -126.44375,31.6 L -116.44375,31.6 C -115.972345,31.6 -115.40331,31.364298 -114.94375,31.392893 A 0.7071067811865476,0.7071067811865476 2.733334653626473e-10 0,1 -114.236643,32.1 C -114.208048,32.55956 -114.44375,33.128595 -114.44375,33.6 L -114.44375,43.6 C -114.44375,44.071405 -114.208048,44.64044 -114.236643,45.1 A 0.7071067811865476,0.7071067811865476 90.00000000026822 0,1 -114.94375,45.807107 C -115.40331,45.835702 -115.972345,45.6 -116.44375,45.6 L -126.44375,45.6 C -126.915155,45.6 -127.48419,45.835702 -127.94375,45.807107 A 0.7071067811865476,0.7071067811865476 -179.99999999972437 0,1 -128.650857,45.1 C -128.679452,44.64044 -128.44375,44.071405 -128.44375,43.6 L -128.44375,33.6 M -113.0375,32.6 A 2.0,2.0 0.0 0,1 -111.0375,30.6 L -108.0375,30.6 A 2.0,2.0 0.0 0,1 -106.0375,32.6 L -106.0375,44.6 A 2.0,2.0 0.0 0,1 -108.0375,46.6 L -111.0375,46.6 A 2.0,2.0 0.0 0,1 -113.0375,44.6 L -113.0375,32.6 M -133.20625,52.65 C -133.20625,52.178595 -133.441952,51.60956 -133.413357,51.15 A 0.7071067811865476,0.7071067811865476 -89.99999999970163 0,1 -132.70625,50.442893 C -132.24669,50.414298 -131.677655,50.65 -131.20625,50.65 L -121.20625,50.65 C -120.734845,50.65 -120.16581,50.414298 -119.70625,50.442893 A 0.7071067811865476,0.7071067811865476 2.733334653626473e-10 0,1 -118.999143,51.15 C -118.970548,51.60956 -119.20625,52.178595 -119.20625,52.65 L -119.20625,62.65 C -119.20625,63.121405 -118.970548,63.69044 -118.999143,64.15 A 0.7071067811865476,0.7071067811865476 90.00000000026822 0,1 -119.70625,64.857107 C -120.16581,64.885702 -120.734845,64.65 -121.20625,64.65 L -131.20625,64.65 C -131.677655,64.65 -132.24669,64.885702 -132.70625,64.857107 A 0.7071067811865476,0.7071067811865476 -179.99999999972437 0,1 -133.413357,64.15 C -133.441952,63.69044 -133.20625,63.121405 -133.20625,62.65 L -133.20625,52.65 M -97.4875,33.6 C -97.4875,33.128595 -97.723202,32.55956 -97.694607,32.1 A 0.7071067811865476,0.7071067811865476 -89.99999999970163 0,1 -96.9875,31.392893 C -96.52794,31.364298 -95.958905,31.6 -95.4875,31.6 L -85.4875,31.6 C -85.016095,31.6 -84.44706,31.364298 -83.9875,31.392893 A 0.7071067811865476,0.7071067811865476 2.733334653626473e-10 0,1 -83.280393,32.1 C -83.251798,32.55956 -83.4875,33.128595 -83.4875,33.6 L -83.4875,43.6 C -83.4875,44.071405 -83.251798,44.64044 -83.280393,45.1 A 0.7071067811865476,0.7071067811865476 90.00000000026822 0,1 -83.9875,45.807107 C -84.44706,45.835702 -85.016095,45.6 -85.4875,45.6 L -95.4875,45.6 C -95.958905,45.6 -96.52794,45.835702 -96.9875,45.807107 A 0.7071067811865476,0.7071067811865476 -179.99999999972437 0,1 -97.694607,45.1 C -97.723202,44.64044 -97.4875,44.071405 -97.4875,43.6 L -97.4875,33.6 M -78.4375,33.6 C -78.4375,33.128595 -78.673202,32.55956 -78.644607,32.1 A 0.7071067811865476,0.7071067811865476 -89.99999999970163 0,1 -77.9375,31.392893 C -77.47794,31.364298 -76.908905,31.6 -76.4375,31.6 L -66.4375,31.6 C -65.966095,31.6 -65.39706,31.364298 -64.9375,31.392893 A 0.7071067811865476,0.7071067811865476 2.733334653626473e-10 0,1 -64.230393,32.1 C -64.201798,32.55956 -64.4375,33.128595 -64.4375,33.6 L -64.4375,43.6 C -64.4375,44.071405 -64.201798,44.64044 -64.230393,45.1 A 0.7071067811865476,0.7071067811865476 90.00000000026822 0,1 -64.9375,45.807107 C -65.39706,45.835702 -65.966095,45.6 -66.4375,45.6 L -76.4375,45.6 C -76.908905,45.6 -77.47794,45.835702 -77.9375,45.807107 A 0.7071067811865476,0.7071067811865476 -179.99999999972437 0,1 -78.644607,45.1 C -78.673202,44.64044 -78.4375,44.071405 -78.4375,43.6 L -78.4375,33.6 M -59.3875,33.6 C -59.3875,33.128595 -59.623202,32.55956 -59.594607,32.1 A 0.7071067811865476,0.7071067811865476 -89.99999999970163 0,1 -58.8875,31.392893 C -58.42794,31.364298 -57.858905,31.6 -57.3875,31.6 L -47.3875,31.6 C -46.916095,31.6 -46.34706,31.364298 -45.8875,31.392893 A 0.7071067811865476,0.7071067811865476 2.733334653626473e-10 0,1 -45.180393,32.1 C -45.151798,32.55956 -45.3875,33.128595 -45.3875,33.6 L -45.3875,43.6 C -45.3875,44.071405 -45.151798,44.64044 -45.180393,45.1 A 0.7071067811865476,0.7071067811865476 90.00000000026822 0,1 -45.8875,45.807107 C -46.34706,45.835702 -46.916095,45.6 -47.3875,45.6 L -57.3875,45.6 C -57.858905,45.6 -58.42794,45.835702 -58.8875,45.807107 A 0.7071067811865476,0.7071067811865476 -179.99999999972437 0,1 -59.594607,45.1 C -59.623202,44.64044 -59.3875,44.071405 -59.3875,43.6 L -59.3875,33.6 M -40.3375,33.6 C -40.3375,33.128595 -40.573202,32.55956 -40.544607,32.1 A 0.7071067811865476,0.7071067811865476 -89.99999999970163 0,1 -39.8375,31.392893 C -39.37794,31.364298 -38.808905,31.6 -38.3375,31.6 L -28.3375,31.6 C -27.866095,31.6 -27.29706,31.364298 -26.8375,31.392893 A 0.7071067811865476,0.7071067811865476 2.733334653626473e-10 0,1 -26.130393,32.1 C -26.101798,32.55956 -26.3375,33.128595 -26.3375,33.6 L -26.3375,43.6 C -26.3375,44.071405 -26.101798,44.64044 -26.130393,45.1 A 0.7071067811865476,0.7071067811865476 90.00000000026822 0,1 -26.8375,45.807107 C -27.29706,45.835702 -27.866095,45.6 -28.3375,45.6 L -38.3375,45.6 C -38.808905,45.6 -39.37794,45.835702 -39.8375,45.807107 A 0.7071067811865476,0.7071067811865476 -179.99999999972437 0,1 -40.544607,45.1 C -40.573202,44.64044 -40.3375,44.071405 -40.3375,43.6 L -40.3375,33.6 M -21.2875,33.6 C -21.2875,33.128595 -21.523202,32.55956 -21.494607,32.1 A 0.7071067811865476,0.7071067811865476 -89.99999999970163 0,1 -20.7875,31.392893 C -20.32794,31.364298 -19.758905,31.6 -19.2875,31.6 L -9.2875,31.6 C -8.816095,31.6 -8.24706,31.364298 -7.7875,31.392893 A 0.7071067811865476,0.7071067811865476 2.733334653626473e-10 0,1 -7.080393,32.1 C -7.051798,32.55956 -7.2875,33.128595 -7.2875,33.6 L -7.2875,43.6 C -7.2875,44.071405 -7.051798,44.64044 -7.080393,45.1 A 0.7071067811865476,0.7071067811865476 90.00000000026822 0,1 -7.7875,45.807107 C -8.24706,45.835702 -8.816095,45.6 -9.2875,45.6 L -19.2875,45.6 C -19.758905,45.6 -20.32794,45.835702 -20.7875,45.807107 A 0.7071067811865476,0.7071067811865476 -179.99999999972437 0,1 -21.494607,45.1 C -21.523202,44.64044 -21.2875,44.071405 -21.2875,43.6 L -21.2875,33.6 M -107.0125,52.65 C -107.0125,52.178595 -107.248202,51.60956 -107.219607,51.15 A 0.7071067811865476,0.7071067811865476 -89.99999999970163 0,1 -106.5125,50.442893 C -106.05294,50.414298 -105.483905,50.65 -105.0125,50.65 L -95.0125,50.65 C -94.541095,50.65 -93.97206,50.414298 -93.5125,50.442893 A 0.7071067811865476,0.7071067811865476 2.733334653626473e-10 0,1 -92.805393,51.15 C -92.776798,51.60956 -93.0125,52.178595 -93.0125,52.65 L -93.0125,62.65 C -93.0125,63.121405 -92.776798,63.69044 -92.805393,64.15 A 0.7071067811865476,0.7071067811865476 90.00000000026822 0,1 -93.5125,64.857107 C -93.97206,64.885702 -94.541095,64.65 -95.0125,64.65 L -105.0125,64.65 C -105.483905,64.65 -106.05294,64.885702 -106.5125,64.857107 A 0.7071067811865476,0.7071067811865476 -179.99999999972437 0,1 -107.219607,64.15 C -107.248202,63.69044 -107.0125,63.121405 -107.0125,62.65 L -107.0125,52.65 M -87.9625,52.65 C -87.9625,52.178595 -88.198202,51.60956 -88.169607,51.15 A 0.7071067811865476,0.7071067811865476 -89.99999999970163 0,1 -87.4625,50.442893 C -87.00294,50.414298 -86.433905,50.65 -85.9625,50.65 L -75.9625,50.65 C -75.491095,50.65 -74.92206,50.414298 -74.4625,50.442893 A 0.7071067811865476,0.7071067811865476 2.733334653626473e-10 0,1 -73.755393,51.15 C -73.726798,51.60956 -73.9625,52.178595 -73.9625,52.65 L -73.9625,62.65 C -73.9625,63.121405 -73.726798,63.69044 -73.755393,64.15 A 0.7071067811865476,0.7071067811865476 90.00000000026822 0,1 -74.4625,64.857107 C -74.92206,64.885702 -75.491095,64.65 -75.9625,64.65 L -85.9625,64.65 C -86.433905,64.65 -87.00294,64.885702 -87.4625,64.857107 A 0.7071067811865476,0.7071067811865476 -179.99999999972437 0,1 -88.169607,64.15 C -88.198202,63.69044 -87.9625,63.121405 -87.9625,62.65 L -87.9625,52.65 M -68.9125,52.65 C -68.9125,52.178595 -69.148202,51.60956 -69.119607,51.15 A 0.7071067811865476,0.7071067811865476 -89.99999999970163 0,1 -68.4125,50.442893 C -67.95294,50.414298 -67.383905,50.65 -66.9125,50.65 L -56.9125,50.65 C -56.441095,50.65 -55.87206,50.414298 -55.4125,50.442893 A 0.7071067811865476,0.7071067811865476 2.733334653626473e-10 0,1 -54.705393,51.15 C -54.676798,51.60956 -54.9125,52.178595 -54.9125,52.65 L -54.9125,62.65 C -54.9125,63.121405 -54.676798,63.69044 -54.705393,64.15 A 0.7071067811865476,0.7071067811865476 90.00000000026822 0,1 -55.4125,64.857107 C -55.87206,64.885702 -56.441095,64.65 -56.9125,64.65 L -66.9125,64.65 C -67.383905,64.65 -67.95294,64.885702 -68.4125,64.857107 A 0.7071067811865476,0.7071067811865476 -179.99999999972437 0,1 -69.119607,64.15 C -69.148202,63.69044 -68.9125,63.121405 -68.9125,62.65 L -68.9125,52.65 M -49.8625,52.65 C -49.8625,52.178595 -50.098202,51.60956 -50.069607,51.15 A 0.7071067811865476,0.7071067811865476 -89.99999999970163 0,1 -49.3625,50.442893 C -48.90294,50.414298 -48.333905,50.65 -47.8625,50.65 L -37.8625,50.65 C -37.391095,50.65 -36.82206,50.414298 -36.3625,50.442893 A 0.7071067811865476,0.7071067811865476 2.733334653626473e-10 0,1 -35.655393,51.15 C -35.626798,51.60956 -35.8625,52.178595 -35.8625,52.65 L -35.8625,62.65 C -35.8625,63.121405 -35.626798,63.69044 -35.655393,64.15 A 0.7071067811865476,0.7071067811865476 90.00000000026822 0,1 -36.3625,64.857107 C -36.82206,64.885702 -37.391095,64.65 -37.8625,64.65 L -47.8625,64.65 C -48.333905,64.65 -48.90294,64.885702 -49.3625,64.857107 A 0.7071067811865476,0.7071067811865476 -179.99999999972437 0,1 -50.069607,64.15 C -50.098202,63.69044 -49.8625,63.121405 -49.8625,62.65 L -49.8625,52.65 M -30.8125,52.65 C -30.8125,52.178595 -31.048202,51.60956 -31.019607,51.15 A 0.7071067811865476,0.7071067811865476 -89.99999999970163 0,1 -30.3125,50.442893 C -29.85294,50.414298 -29.283905,50.65 -28.8125,50.65 L -18.8125,50.65 C -18.341095,50.65 -17.77206,50.414298 -17.3125,50.442893 A 0.7071067811865476,0.7071067811865476 2.733334653626473e-10 0,1 -16.605393,51.15 C -16.576798,51.60956 -16.8125,52.178595 -16.8125,52.65 L -16.8125,62.65 C -16.8125,63.121405 -16.576798,63.69044 -16.605393,64.15 A 0.7071067811865476,0.7071067811865476 90.00000000026822 0,1 -17.3125,64.857107 C -17.77206,64.885702 -18.341095,64.65 -18.8125,64.65 L -28.8125,64.65 C -29.283905,64.65 -29.85294,64.885702 -30.3125,64.857107 A 0.7071067811865476,0.7071067811865476 -179.99999999972437 0,1 -31.019607,64.15 C -31.048202,63.69044 -30.8125,63.121405 -30.8125,62.65 L -30.8125,52.65 M -11.7625,52.65 C -11.7625,52.178595 -11.998202,51.60956 -11.969607,51.15 A 0.7071067811865476,0.7071067811865476 -89.99999999970163 0,1 -11.2625,50.442893 C -10.80294,50.414298 -10.233905,50.65 -9.7625,50.65 L 0.2375,50.65 C 0.708905,50.65 1.27794,50.414298 1.7375,50.442893 A 0.7071067811865476,0.7071067811865476 2.733334653626473e-10 0,1 2.444607,51.15 C 2.473202,51.60956 2.2375,52.178595 2.2375,52.65 L 2.2375,62.65 C 2.2375,63.121405 2.473202,63.69044 2.444607,64.15 A 0.7071067811865476,0.7071067811865476 90.00000000026822 0,1 1.7375,64.857107 C 1.27794,64.885702 0.708905,64.65 0.2375,64.65 L -9.7625,64.65 C -10.233905,64.65 -10.80294,64.885702 -11.2625,64.857107 A 0.7071067811865476,0.7071067811865476 -179.99999999972437 0,1 -11.969607,64.15 C -11.998202,63.69044 -11.7625,63.121405 -11.7625,62.65 L -11.7625,52.65 M 68.275,5.2625 A 1.6000000000000012,1.6000000000000012 0.0 0,1 65.075,5.2625 A 1.6000000000000012,1.6000000000000012 0.0 0,1 68.275,5.2625 M -7.0,14.55 C -7.0,14.078595 -7.235702,13.50956 -7.207107,13.05 A 0.7071067811865476,0.7071067811865476 -89.99999999970163 0,1 -6.5,12.342893 C -6.04044,12.314298 -5.471405,12.55 -5.0,12.55 L 5.0,12.55 C 5.471405,12.55 6.04044,12.314298 6.5,12.342893 A 0.7071067811865476,0.7071067811865476 2.733334653626473e-10 0,1 7.207107,13.05 C 7.235702,13.50956 7.0,14.078595 7.0,14.55 L 7.0,24.55 C 7.0,25.021405 7.235702,25.59044 7.207107,26.05 A 0.7071067811865476,0.7071067811865476 90.00000000026822 0,1 6.5,26.757107 C 6.04044,26.785702 5.471405,26.55 5.0,26.55 L -5.0,26.55 C -5.471405,26.55 -6.04044,26.785702 -6.5,26.757107 A 0.7071067811865476,0.7071067811865476 -179.99999999972437 0,1 -7.207107,26.05 C -7.235702,25.59044 -7.0,25.021405 -7.0,24.55 L -7.0,14.55 M 53.65,13.55 A 2.0,2.0 0.0 0,1 55.65,11.55 L 58.65,11.55 A 2.0,2.0 0.0 0,1 60.65,13.55 L 60.65,25.55 A 2.0,2.0 0.0 0,1 58.65,27.55 L 55.65,27.55 A 2.0,2.0 0.0 0,1 53.65,25.55 L 53.65,13.55 M 73.9625,14.55 C 73.9625,14.078595 73.726798,13.50956 73.755393,13.05 A 0.7071067811865476,0.7071067811865476 -89.99999999970163 0,1 74.4625,12.342893 C 74.92206,12.314298 75.491095,12.55 75.9625,12.55 L 85.9625,12.55 C 86.433905,12.55 87.00294,12.314298 87.4625,12.342893 A 0.7071067811865476,0.7071067811865476 2.733334653626473e-10 0,1 88.169607,13.05 C 88.198202,13.50956 87.9625,14.078595 87.9625,14.55 L 87.9625,24.55 C 87.9625,25.021405 88.198202,25.59044 88.169607,26.05 A 0.7071067811865476,0.7071067811865476 90.00000000026822 0,1 87.4625,26.757107 C 87.00294,26.785702 86.433905,26.55 85.9625,26.55 L 75.9625,26.55 C 75.491095,26.55 74.92206,26.785702 74.4625,26.757107 A 0.7071067811865476,0.7071067811865476 -179.99999999972437 0,1 73.755393,26.05 C 73.726798,25.59044 73.9625,25.021405 73.9625,24.55 L 73.9625,14.55 M 177.8125,10.467598 A 1.6,1.6 0.0 0,1 174.6125,10.467598 A 1.6,1.6 0.0 0,1 177.8125,10.467598 M 100.15625,14.55 C 100.15625,14.078595 99.920548,13.50956 99.949143,13.05 A 0.7071067811865476,0.7071067811865476 -89.99999999970163 0,1 100.65625,12.342893 C 101.11581,12.314298 101.684845,12.55 102.15625,12.55 L 112.15625,12.55 C 112.627655,12.55 113.19669,12.314298 113.65625,12.342893 A 0.7071067811865476,0.7071067811865476 2.733334653626473e-10 0,1 114.363357,13.05 C 114.391952,13.50956 114.15625,14.078595 114.15625,14.55 L 114.15625,24.55 C 114.15625,25.021405 114.391952,25.59044 114.363357,26.05 A 0.7071067811865476,0.7071067811865476 90.00000000026822 0,1 113.65625,26.757107 C 113.19669,26.785702 112.627655,26.55 112.15625,26.55 L 102.15625,26.55 C 101.684845,26.55 101.11581,26.785702 100.65625,26.757107 A 0.7071067811865476,0.7071067811865476 -179.99999999972437 0,1 99.949143,26.05 C 99.920548,25.59044 100.15625,25.021405 100.15625,24.55 L 100.15625,14.55 M 123.96875,14.55 C 123.96875,14.078595 123.733048,13.50956 123.761643,13.05 A 0.7071067811865476,0.7071067811865476 -89.99999999970163 0,1 124.46875,12.342893 C 124.92831,12.314298 125.497345,12.55 125.96875,12.55 L 135.96875,12.55 C 136.440155,12.55 137.00919,12.314298 137.46875,12.342893 A 0.7071067811865476,0.7071067811865476 2.733334653626473e-10 0,1 138.175857,13.05 C 138.204452,13.50956 137.96875,14.078595 137.96875,14.55 L 137.96875,24.55 C 137.96875,25.021405 138.204452,25.59044 138.175857,26.05 A 0.7071067811865476,0.7071067811865476 90.00000000026822 0,1 137.46875,26.757107 C 137.00919,26.785702 136.440155,26.55 135.96875,26.55 L 125.96875,26.55 C 125.497345,26.55 124.92831,26.785702 124.46875,26.757107 A 0.7071067811865476,0.7071067811865476 -179.99999999972437 0,1 123.761643,26.05 C 123.733048,25.59044 123.96875,25.021405 123.96875,24.55 L 123.96875,14.55 M 150.1625,24.075 C 150.1625,23.603595 149.926798,23.03456 149.955393,22.575 A 0.7071067811865476,0.7071067811865476 -89.99999999970163 0,1 150.6625,21.867893 C 151.12206,21.839298 151.691095,22.075 152.1625,22.075 L 162.1625,22.075 C 162.633905,22.075 163.20294,21.839298 163.6625,21.867893 A 0.7071067811865476,0.7071067811865476 2.733334653626473e-10 0,1 164.369607,22.575 C 164.398202,23.03456 164.1625,23.603595 164.1625,24.075 L 164.1625,34.075 C 164.1625,34.546405 164.398202,35.11544 164.369607,35.575 A 0.7071067811865476,0.7071067811865476 90.00000000026822 0,1 163.6625,36.282107 C 163.20294,36.310702 162.633905,36.075 162.1625,36.075 L 152.1625,36.075 C 151.691095,36.075 151.12206,36.310702 150.6625,36.282107 A 0.7071067811865476,0.7071067811865476 -179.99999999972437 0,1 149.955393,35.575 C 149.926798,35.11544 150.1625,34.546405 150.1625,34.075 L 150.1625,24.075 M 169.2125,24.075 C 169.2125,23.603595 168.976798,23.03456 169.005393,22.575 A 0.7071067811865476,0.7071067811865476 -89.99999999970163 0,1 169.7125,21.867893 C 170.17206,21.839298 170.741095,22.075 171.2125,22.075 L 181.2125,22.075 C 181.683905,22.075 182.25294,21.839298 182.7125,21.867893 A 0.7071067811865476,0.7071067811865476 2.733334653626473e-10 0,1 183.419607,22.575 C 183.448202,23.03456 183.2125,23.603595 183.2125,24.075 L 183.2125,34.075 C 183.2125,34.546405 183.448202,35.11544 183.419607,35.575 A 0.7071067811865476,0.7071067811865476 90.00000000026822 0,1 182.7125,36.282107 C 182.25294,36.310702 181.683905,36.075 181.2125,36.075 L 171.2125,36.075 C 170.741095,36.075 170.17206,36.310702 169.7125,36.282107 A 0.7071067811865476,0.7071067811865476 -179.99999999972437 0,1 169.005393,35.575 C 168.976798,35.11544 169.2125,34.546405 169.2125,34.075 L 169.2125,24.075 M 188.2625,24.075 C 188.2625,23.603595 188.026798,23.03456 188.055393,22.575 A 0.7071067811865476,0.7071067811865476 -89.99999999970163 0,1 188.7625,21.867893 C 189.22206,21.839298 189.791095,22.075 190.2625,22.075 L 200.2625,22.075 C 200.733905,22.075 201.30294,21.839298 201.7625,21.867893 A 0.7071067811865476,0.7071067811865476 2.733334653626473e-10 0,1 202.469607,22.575 C 202.498202,23.03456 202.2625,23.603595 202.2625,24.075 L 202.2625,34.075 C 202.2625,34.546405 202.498202,35.11544 202.469607,35.575 A 0.7071067811865476,0.7071067811865476 90.00000000026822 0,1 201.7625,36.282107 C 201.30294,36.310702 200.733905,36.075 200.2625,36.075 L 190.2625,36.075 C 189.791095,36.075 189.22206,36.310702 188.7625,36.282107 A 0.7071067811865476,0.7071067811865476 -179.99999999972437 0,1 188.055393,35.575 C 188.026798,35.11544 188.2625,34.546405 188.2625,34.075 L 188.2625,24.075 M -2.2375,33.6 C -2.2375,33.128595 -2.473202,32.55956 -2.444607,32.1 A 0.7071067811865476,0.7071067811865476 -89.99999999970163 0,1 -1.7375,31.392893 C -1.27794,31.364298 -0.708905,31.6 -0.2375,31.6 L 9.7625,31.6 C 10.233905,31.6 10.80294,31.364298 11.2625,31.392893 A 0.7071067811865476,0.7071067811865476 2.733334653626473e-10 0,1 11.969607,32.1 C 11.998202,32.55956 11.7625,33.128595 11.7625,33.6 L 11.7625,43.6 C 11.7625,44.071405 11.998202,44.64044 11.969607,45.1 A 0.7071067811865476,0.7071067811865476 90.00000000026822 0,1 11.2625,45.807107 C 10.80294,45.835702 10.233905,45.6 9.7625,45.6 L -0.2375,45.6 C -0.708905,45.6 -1.27794,45.835702 -1.7375,45.807107 A 0.7071067811865476,0.7071067811865476 -179.99999999972437 0,1 -2.444607,45.1 C -2.473202,44.64044 -2.2375,44.071405 -2.2375,43.6 L -2.2375,33.6 M 16.8125,33.6 C 16.8125,33.128595 16.576798,32.55956 16.605393,32.1 A 0.7071067811865476,0.7071067811865476 -89.99999999970163 0,1 17.3125,31.392893 C 17.77206,31.364298 18.341095,31.6 18.8125,31.6 L 28.8125,31.6 C 29.283905,31.6 29.85294,31.364298 30.3125,31.392893 A 0.7071067811865476,0.7071067811865476 2.733334653626473e-10 0,1 31.019607,32.1 C 31.048202,32.55956 30.8125,33.128595 30.8125,33.6 L 30.8125,43.6 C 30.8125,44.071405 31.048202,44.64044 31.019607,45.1 A 0.7071067811865476,0.7071067811865476 90.00000000026822 0,1 30.3125,45.807107 C 29.85294,45.835702 29.283905,45.6 28.8125,45.6 L 18.8125,45.6 C 18.341095,45.6 17.77206,45.835702 17.3125,45.807107 A 0.7071067811865476,0.7071067811865476 -179.99999999972437 0,1 16.605393,45.1 C 16.576798,44.64044 16.8125,44.071405 16.8125,43.6 L 16.8125,33.6 M 35.8625,33.6 C 35.8625,33.128595 35.626798,32.55956 35.655393,32.1 A 0.7071067811865476,0.7071067811865476 -89.99999999970163 0,1 36.3625,31.392893 C 36.82206,31.364298 37.391095,31.6 37.8625,31.6 L 47.8625,31.6 C 48.333905,31.6 48.90294,31.364298 49.3625,31.392893 A 0.7071067811865476,0.7071067811865476 2.733334653626473e-10 0,1 50.069607,32.1 C 50.098202,32.55956 49.8625,33.128595 49.8625,33.6 L 49.8625,43.6 C 49.8625,44.071405 50.098202,44.64044 50.069607,45.1 A 0.7071067811865476,0.7071067811865476 90.00000000026822 0,1 49.3625,45.807107 C 48.90294,45.835702 48.333905,45.6 47.8625,45.6 L 37.8625,45.6 C 37.391095,45.6 36.82206,45.835702 36.3625,45.807107 A 0.7071067811865476,0.7071067811865476 -179.99999999972437 0,1 35.655393,45.1 C 35.626798,44.64044 35.8625,44.071405 35.8625,43.6 L 35.8625,33.6 M 54.9125,33.6 C 54.9125,33.128595 54.676798,32.55956 54.705393,32.1 A 0.7071067811865476,0.7071067811865476 -89.99999999970163 0,1 55.4125,31.392893 C 55.87206,31.364298 56.441095,31.6 56.9125,31.6 L 66.9125,31.6 C 67.383905,31.6 67.95294,31.364298 68.4125,31.392893 A 0.7071067811865476,0.7071067811865476 2.733334653626473e-10 0,1 69.119607,32.1 C 69.148202,32.55956 68.9125,33.128595 68.9125,33.6 L 68.9125,43.6 C 68.9125,44.071405 69.148202,44.64044 69.119607,45.1 A 0.7071067811865476,0.7071067811865476 90.00000000026822 0,1 68.4125,45.807107 C 67.95294,45.835702 67.383905,45.6 66.9125,45.6 L 56.9125,45.6 C 56.441095,45.6 55.87206,45.835702 55.4125,45.807107 A 0.7071067811865476,0.7071067811865476 -179.99999999972437 0,1 54.705393,45.1 C 54.676798,44.64044 54.9125,44.071405 54.9125,43.6 L 54.9125,33.6 M 73.9625,33.6 C 73.9625,33.128595 73.726798,32.55956 73.755393,32.1 A 0.7071067811865476,0.7071067811865476 -89.99999999970163 0,1 74.4625,31.392893 C 74.92206,31.364298 75.491095,31.6 75.9625,31.6 L 85.9625,31.6 C 86.433905,31.6 87.00294,31.364298 87.4625,31.392893 A 0.7071067811865476,0.7071067811865476 2.733334653626473e-10 0,1 88.169607,32.1 C 88.198202,32.55956 87.9625,33.128595 87.9625,33.6 L 87.9625,43.6 C 87.9625,44.071405 88.198202,44.64044 88.169607,45.1 A 0.7071067811865476,0.7071067811865476 90.00000000026822 0,1 87.4625,45.807107 C 87.00294,45.835702 86.433905,45.6 85.9625,45.6 L 75.9625,45.6 C 75.491095,45.6 74.92206,45.835702 74.4625,45.807107 A 0.7071067811865476,0.7071067811865476 -179.99999999972437 0,1 73.755393,45.1 C 73.726798,44.64044 73.9625,44.071405 73.9625,43.6 L 73.9625,33.6 M 7.2875,52.65 C 7.2875,52.178595 7.051798,51.60956 7.080393,51.15 A 0.7071067811865476,0.7071067811865476 -89.99999999970163 0,1 7.7875,50.442893 C 8.24706,50.414298 8.816095,50.65 9.2875,50.65 L 19.2875,50.65 C 19.758905,50.65 20.32794,50.414298 20.7875,50.442893 A 0.7071067811865476,0.7071067811865476 2.733334653626473e-10 0,1 21.494607,51.15 C 21.523202,51.60956 21.2875,52.178595 21.2875,52.65 L 21.2875,62.65 C 21.2875,63.121405 21.523202,63.69044 21.494607,64.15 A 0.7071067811865476,0.7071067811865476 90.00000000026822 0,1 20.7875,64.857107 C 20.32794,64.885702 19.758905,64.65 19.2875,64.65 L 9.2875,64.65 C 8.816095,64.65 8.24706,64.885702 7.7875,64.857107 A 0.7071067811865476,0.7071067811865476 -179.99999999972437 0,1 7.080393,64.15 C 7.051798,63.69044 7.2875,63.121405 7.2875,62.65 L 7.2875,52.65 M 26.3375,52.65 C 26.3375,52.178595 26.101798,51.60956 26.130393,51.15 A 0.7071067811865476,0.7071067811865476 -89.99999999970163 0,1 26.8375,50.442893 C 27.29706,50.414298 27.866095,50.65 28.3375,50.65 L 38.3375,50.65 C 38.808905,50.65 39.37794,50.414298 39.8375,50.442893 A 0.7071067811865476,0.7071067811865476 2.733334653626473e-10 0,1 40.544607,51.15 C 40.573202,51.60956 40.3375,52.178595 40.3375,52.65 L 40.3375,62.65 C 40.3375,63.121405 40.573202,63.69044 40.544607,64.15 A 0.7071067811865476,0.7071067811865476 90.00000000026822 0,1 39.8375,64.857107 C 39.37794,64.885702 38.808905,64.65 38.3375,64.65 L 28.3375,64.65 C 27.866095,64.65 27.29706,64.885702 26.8375,64.857107 A 0.7071067811865476,0.7071067811865476 -179.99999999972437 0,1 26.130393,64.15 C 26.101798,63.69044 26.3375,63.121405 26.3375,62.65 L 26.3375,52.65 M 45.3875,52.65 C 45.3875,52.178595 45.151798,51.60956 45.180393,51.15 A 0.7071067811865476,0.7071067811865476 -89.99999999970163 0,1 45.8875,50.442893 C 46.34706,50.414298 46.916095,50.65 47.3875,50.65 L 57.3875,50.65 C 57.858905,50.65 58.42794,50.414298 58.8875,50.442893 A 0.7071067811865476,0.7071067811865476 2.733334653626473e-10 0,1 59.594607,51.15 C 59.623202,51.60956 59.3875,52.178595 59.3875,52.65 L 59.3875,62.65 C 59.3875,63.121405 59.623202,63.69044 59.594607,64.15 A 0.7071067811865476,0.7071067811865476 90.00000000026822 0,1 58.8875,64.857107 C 58.42794,64.885702 57.858905,64.65 57.3875,64.65 L 47.3875,64.65 C 46.916095,64.65 46.34706,64.885702 45.8875,64.857107 A 0.7071067811865476,0.7071067811865476 -179.99999999972437 0,1 45.180393,64.15 C 45.151798,63.69044 45.3875,63.121405 45.3875,62.65 L 45.3875,52.65 M 64.4375,52.65 C 64.4375,52.178595 64.201798,51.60956 64.230393,51.15 A 0.7071067811865476,0.7071067811865476 -89.99999999970163 0,1 64.9375,50.442893 C 65.39706,50.414298 65.966095,50.65 66.4375,50.65 L 76.4375,50.65 C 76.908905,50.65 77.47794,50.414298 77.9375,50.442893 A 0.7071067811865476,0.7071067811865476 2.733334653626473e-10 0,1 78.644607,51.15 C 78.673202,51.60956 78.4375,52.178595 78.4375,52.65 L 78.4375,62.65 C 78.4375,63.121405 78.673202,63.69044 78.644607,64.15 A 0.7071067811865476,0.7071067811865476 90.00000000026822 0,1 77.9375,64.857107 C 77.47794,64.885702 76.908905,64.65 76.4375,64.65 L 66.4375,64.65 C 65.966095,64.65 65.39706,64.885702 64.9375,64.857107 A 0.7071067811865476,0.7071067811865476 -179.99999999972437 0,1 64.230393,64.15 C 64.201798,63.69044 64.4375,63.121405 64.4375,62.65 L 64.4375,52.65 M 83.4875,52.65 C 83.4875,52.178595 83.251798,51.60956 83.280393,51.15 A 0.7071067811865476,0.7071067811865476 -89.99999999970163 0,1 83.9875,50.442893 C 84.44706,50.414298 85.016095,50.65 85.4875,50.65 L 95.4875,50.65 C 95.958905,50.65 96.52794,50.414298 96.9875,50.442893 A 0.7071067811865476,0.7071067811865476 2.733334653626473e-10 0,1 97.694607,51.15 C 97.723202,51.60956 97.4875,52.178595 97.4875,52.65 L 97.4875,62.65 C 97.4875,63.121405 97.723202,63.69044 97.694607,64.15 A 0.7071067811865476,0.7071067811865476 90.00000000026822 0,1 96.9875,64.857107 C 96.52794,64.885702 95.958905,64.65 95.4875,64.65 L 85.4875,64.65 C 85.016095,64.65 84.44706,64.885702 83.9875,64.857107 A 0.7071067811865476,0.7071067811865476 -179.99999999972437 0,1 83.280393,64.15 C 83.251798,63.69044 83.4875,63.121405 83.4875,62.65 L 83.4875,52.65 M 100.15625,33.6 C 100.15625,33.128595 99.920548,32.55956 99.949143,32.1 A 0.7071067811865476,0.7071067811865476 -89.99999999970163 0,1 100.65625,31.392893 C 101.11581,31.364298 101.684845,31.6 102.15625,31.6 L 112.15625,31.6 C 112.627655,31.6 113.19669,31.364298 113.65625,31.392893 A 0.7071067811865476,0.7071067811865476 2.733334653626473e-10 0,1 114.363357,32.1 C 114.391952,32.55956 114.15625,33.128595 114.15625,33.6 L 114.15625,43.6 C 114.15625,44.071405 114.391952,44.64044 114.363357,45.1 A 0.7071067811865476,0.7071067811865476 90.00000000026822 0,1 113.65625,45.807107 C 113.19669,45.835702 112.627655,45.6 112.15625,45.6 L 102.15625,45.6 C 101.684845,45.6 101.11581,45.835702 100.65625,45.807107 A 0.7071067811865476,0.7071067811865476 -179.99999999972437 0,1 99.949143,45.1 C 99.920548,44.64044 100.15625,44.071405 100.15625,43.6 L 100.15625,33.6 M 126.35,33.6 C 126.35,33.128595 126.114298,32.55956 126.142893,32.1 A 0.7071067811865476,0.7071067811865476 -89.99999999970163 0,1 126.85,31.392893 C 127.30956,31.364298 127.878595,31.6 128.35,31.6 L 138.35,31.6 C 138.821405,31.6 139.39044,31.364298 139.85,31.392893 A 0.7071067811865476,0.7071067811865476 2.733334653626473e-10 0,1 140.557107,32.1 C 140.585702,32.55956 140.35,33.128595 140.35,33.6 L 140.35,43.6 C 140.35,44.071405 140.585702,44.64044 140.557107,45.1 A 0.7071067811865476,0.7071067811865476 90.00000000026822 0,1 139.85,45.807107 C 139.39044,45.835702 138.821405,45.6 138.35,45.6 L 128.35,45.6 C 127.878595,45.6 127.30956,45.835702 126.85,45.807107 A 0.7071067811865476,0.7071067811865476 -179.99999999972437 0,1 126.142893,45.1 C 126.114298,44.64044 126.35,44.071405 126.35,43.6 L 126.35,33.6 M 150.1625,43.125 C 150.1625,42.653595 149.926798,42.08456 149.955393,41.625 A 0.7071067811865476,0.7071067811865476 -89.99999999970163 0,1 150.6625,40.917893 C 151.12206,40.889298 151.691095,41.125 152.1625,41.125 L 162.1625,41.125 C 162.633905,41.125 163.20294,40.889298 163.6625,40.917893 A 0.7071067811865476,0.7071067811865476 2.733334653626473e-10 0,1 164.369607,41.625 C 164.398202,42.08456 164.1625,42.653595 164.1625,43.125 L 164.1625,53.125 C 164.1625,53.596405 164.398202,54.16544 164.369607,54.625 A 0.7071067811865476,0.7071067811865476 90.00000000026822 0,1 163.6625,55.332107 C 163.20294,55.360702 162.633905,55.125 162.1625,55.125 L 152.1625,55.125 C 151.691095,55.125 151.12206,55.360702 150.6625,55.332107 A 0.7071067811865476,0.7071067811865476 -179.99999999972437 0,1 149.955393,54.625 C 149.926798,54.16544 150.1625,53.596405 150.1625,53.125 L 150.1625,43.125 M 169.2125,43.125 C 169.2125,42.653595 168.976798,42.08456 169.005393,41.625 A 0.7071067811865476,0.7071067811865476 -89.99999999970163 0,1 169.7125,40.917893 C 170.17206,40.889298 170.741095,41.125 171.2125,41.125 L 181.2125,41.125 C 181.683905,41.125 182.25294,40.889298 182.7125,40.917893 A 0.7071067811865476,0.7071067811865476 2.733334653626473e-10 0,1 183.419607,41.625 C 183.448202,42.08456 183.2125,42.653595 183.2125,43.125 L 183.2125,53.125 C 183.2125,53.596405 183.448202,54.16544 183.419607,54.625 A 0.7071067811865476,0.7071067811865476 90.00000000026822 0,1 182.7125,55.332107 C 182.25294,55.360702 181.683905,55.125 181.2125,55.125 L 171.2125,55.125 C 170.741095,55.125 170.17206,55.360702 169.7125,55.332107 A 0.7071067811865476,0.7071067811865476 -179.99999999972437 0,1 169.005393,54.625 C 168.976798,54.16544 169.2125,53.596405 169.2125,53.125 L 169.2125,43.125 M 188.2625,43.125 C 188.2625,42.653595 188.026798,42.08456 188.055393,41.625 A 0.7071067811865476,0.7071067811865476 -89.99999999970163 0,1 188.7625,40.917893 C 189.22206,40.889298 189.791095,41.125 190.2625,41.125 L 200.2625,41.125 C 200.733905,41.125 201.30294,40.889298 201.7625,40.917893 A 0.7071067811865476,0.7071067811865476 2.733334653626473e-10 0,1 202.469607,41.625 C 202.498202,42.08456 202.2625,42.653595 202.2625,43.125 L 202.2625,53.125 C 202.2625,53.596405 202.498202,54.16544 202.469607,54.625 A 0.7071067811865476,0.7071067811865476 90.00000000026822 0,1 201.7625,55.332107 C 201.30294,55.360702 200.733905,55.125 200.2625,55.125 L 190.2625,55.125 C 189.791095,55.125 189.22206,55.360702 188.7625,55.332107 A 0.7071067811865476,0.7071067811865476 -179.99999999972437 0,1 188.055393,54.625 C 188.026798,54.16544 188.2625,53.596405 188.2625,53.125 L 188.2625,43.125 M 106.0375,51.65 A 2.0,2.0 0.0 0,1 108.0375,49.65 L 111.0375,49.65 A 2.0,2.0 0.0 0,1 113.0375,51.65 L 113.0375,63.65 A 2.0,2.0 0.0 0,1 111.0375,65.65 L 108.0375,65.65 A 2.0,2.0 0.0 0,1 106.0375,63.65 L 106.0375,51.65 M 114.44375,52.65 C 114.44375,52.178595 114.208048,51.60956 114.236643,51.15 A 0.7071067811865476,0.7071067811865476 -89.99999999970163 0,1 114.94375,50.442893 C 115.40331,50.414298 115.972345,50.65 116.44375,50.65 L 126.44375,50.65 C 126.915155,50.65 127.48419,50.414298 127.94375,50.442893 A 0.7071067811865476,0.7071067811865476 2.733334653626473e-10 0,1 128.650857,51.15 C 128.679452,51.60956 128.44375,52.178595 128.44375,52.65 L 128.44375,62.65 C 128.44375,63.121405 128.679452,63.69044 128.650857,64.15 A 0.7071067811865476,0.7071067811865476 90.00000000026822 0,1 127.94375,64.857107 C 127.48419,64.885702 126.915155,64.65 126.44375,64.65 L 116.44375,64.65 C 115.972345,64.65 115.40331,64.885702 114.94375,64.857107 A 0.7071067811865476,0.7071067811865476 -179.99999999972437 0,1 114.236643,64.15 C 114.208048,63.69044 114.44375,63.121405 114.44375,62.65 L 114.44375,52.65 M 129.85,51.65 A 2.0,2.0 0.0 0,1 131.85,49.65 L 134.85,49.65 A 2.0,2.0 0.0 0,1 136.85,51.65 L 136.85,63.65 A 2.0,2.0 0.0 0,1 134.85,65.65 L 131.85,65.65 A 2.0,2.0 0.0 0,1 129.85,63.65 L 129.85,51.65 M -202.2625,66.9375 C -202.2625,66.466095 -202.498202,65.89706 -202.469607,65.4375 A 0.7071067811865476,0.7071067811865476 -89.99999999970163 0,1 -201.7625,64.730393 C -201.30294,64.701798 -200.733905,64.9375 -200.2625,64.9375 L -190.2625,64.9375 C -189.791095,64.9375 -189.22206,64.701798 -188.7625,64.730393 A 0.7071067811865476,0.7071067811865476 2.733334653626473e-10 0,1 -188.055393,65.4375 C -188.026798,65.89706 -188.2625,66.466095 -188.2625,66.9375 L -188.2625,76.9375 C -188.2625,77.408905 -188.026798,77.97794 -188.055393,78.4375 A 0.7071067811865476,0.7071067811865476 90.00000000026822 0,1 -188.7625,79.144607 C -189.22206,79.173202 -189.791095,78.9375 -190.2625,78.9375 L -200.2625,78.9375 C -200.733905,78.9375 -201.30294,79.173202 -201.7625,79.144607 A 0.7071067811865476,0.7071067811865476 -179.99999999972437 0,1 -202.469607,78.4375 C -202.498202,77.97794 -202.2625,77.408905 -202.2625,76.9375 L -202.2625,66.9375 M -183.2125,66.9375 C -183.2125,66.466095 -183.448202,65.89706 -183.419607,65.4375 A 0.7071067811865476,0.7071067811865476 -89.99999999970163 0,1 -182.7125,64.730393 C -182.25294,64.701798 -181.683905,64.9375 -181.2125,64.9375 L -171.2125,64.9375 C -170.741095,64.9375 -170.17206,64.701798 -169.7125,64.730393 A 0.7071067811865476,0.7071067811865476 2.733334653626473e-10 0,1 -169.005393,65.4375 C -168.976798,65.89706 -169.2125,66.466095 -169.2125,66.9375 L -169.2125,76.9375 C -169.2125,77.408905 -168.976798,77.97794 -169.005393,78.4375 A 0.7071067811865476,0.7071067811865476 90.00000000026822 0,1 -169.7125,79.144607 C -170.17206,79.173202 -170.741095,78.9375 -171.2125,78.9375 L -181.2125,78.9375 C -181.683905,78.9375 -182.25294,79.173202 -182.7125,79.144607 A 0.7071067811865476,0.7071067811865476 -179.99999999972437 0,1 -183.419607,78.4375 C -183.448202,77.97794 -183.2125,77.408905 -183.2125,76.9375 L -183.2125,66.9375 M -164.1625,66.9375 C -164.1625,66.466095 -164.398202,65.89706 -164.369607,65.4375 A 0.7071067811865476,0.7071067811865476 -89.99999999970163 0,1 -163.6625,64.730393 C -163.20294,64.701798 -162.633905,64.9375 -162.1625,64.9375 L -152.1625,64.9375 C -151.691095,64.9375 -151.12206,64.701798 -150.6625,64.730393 A 0.7071067811865476,0.7071067811865476 2.733334653626473e-10 0,1 -149.955393,65.4375 C -149.926798,65.89706 -150.1625,66.466095 -150.1625,66.9375 L -150.1625,76.9375 C -150.1625,77.408905 -149.926798,77.97794 -149.955393,78.4375 A 0.7071067811865476,0.7071067811865476 90.00000000026822 0,1 -150.6625,79.144607 C -151.12206,79.173202 -151.691095,78.9375 -152.1625,78.9375 L -162.1625,78.9375 C -162.633905,78.9375 -163.20294,79.173202 -163.6625,79.144607 A 0.7071067811865476,0.7071067811865476 -179.99999999972437 0,1 -164.369607,78.4375 C -164.398202,77.97794 -164.1625,77.408905 -164.1625,76.9375 L -164.1625,66.9375 M -135.5875,71.7 C -135.5875,71.228595 -135.823202,70.65956 -135.794607,70.2 A 0.7071067811865476,0.7071067811865476 -89.99999999970163 0,1 -135.0875,69.492893 C -134.62794,69.464298 -134.058905,69.7 -133.5875,69.7 L -123.5875,69.7 C -123.116095,69.7 -122.54706,69.464298 -122.0875,69.492893 A 0.7071067811865476,0.7071067811865476 2.733334653626473e-10 0,1 -121.380393,70.2 C -121.351798,70.65956 -121.5875,71.228595 -121.5875,71.7 L -121.5875,81.7 C -121.5875,82.171405 -121.351798,82.74044 -121.380393,83.2 A 0.7071067811865476,0.7071067811865476 90.00000000026822 0,1 -122.0875,83.907107 C -122.54706,83.935702 -123.116095,83.7 -123.5875,83.7 L -133.5875,83.7 C -134.058905,83.7 -134.62794,83.935702 -135.0875,83.907107 A 0.7071067811865476,0.7071067811865476 -179.99999999972437 0,1 -135.794607,83.2 C -135.823202,82.74044 -135.5875,82.171405 -135.5875,81.7 L -135.5875,71.7 M -111.775,71.7 C -111.775,71.228595 -112.010702,70.65956 -111.982107,70.2 A 0.7071067811865476,0.7071067811865476 -89.99999999970163 0,1 -111.275,69.492893 C -110.81544,69.464298 -110.246405,69.7 -109.775,69.7 L -99.775,69.7 C -99.303595,69.7 -98.73456,69.464298 -98.275,69.492893 A 0.7071067811865476,0.7071067811865476 2.733334653626473e-10 0,1 -97.567893,70.2 C -97.539298,70.65956 -97.775,71.228595 -97.775,71.7 L -97.775,81.7 C -97.775,82.171405 -97.539298,82.74044 -97.567893,83.2 A 0.7071067811865476,0.7071067811865476 90.00000000026822 0,1 -98.275,83.907107 C -98.73456,83.935702 -99.303595,83.7 -99.775,83.7 L -109.775,83.7 C -110.246405,83.7 -110.81544,83.935702 -111.275,83.907107 A 0.7071067811865476,0.7071067811865476 -179.99999999972437 0,1 -111.982107,83.2 C -112.010702,82.74044 -111.775,82.171405 -111.775,81.7 L -111.775,71.7 M -202.2625,85.9875 C -202.2625,85.516095 -202.498202,84.94706 -202.469607,84.4875 A 0.7071067811865476,0.7071067811865476 -89.99999999970163 0,1 -201.7625,83.780393 C -201.30294,83.751798 -200.733905,83.9875 -200.2625,83.9875 L -190.2625,83.9875 C -189.791095,83.9875 -189.22206,83.751798 -188.7625,83.780393 A 0.7071067811865476,0.7071067811865476 2.733334653626473e-10 0,1 -188.055393,84.4875 C -188.026798,84.94706 -188.2625,85.516095 -188.2625,85.9875 L -188.2625,95.9875 C -188.2625,96.458905 -188.026798,97.02794 -188.055393,97.4875 A 0.7071067811865476,0.7071067811865476 90.00000000026822 0,1 -188.7625,98.194607 C -189.22206,98.223202 -189.791095,97.9875 -190.2625,97.9875 L -200.2625,97.9875 C -200.733905,97.9875 -201.30294,98.223202 -201.7625,98.194607 A 0.7071067811865476,0.7071067811865476 -179.99999999972437 0,1 -202.469607,97.4875 C -202.498202,97.02794 -202.2625,96.458905 -202.2625,95.9875 L -202.2625,85.9875 M -183.2125,85.9875 C -183.2125,85.516095 -183.448202,84.94706 -183.419607,84.4875 A 0.7071067811865476,0.7071067811865476 -89.99999999970163 0,1 -182.7125,83.780393 C -182.25294,83.751798 -181.683905,83.9875 -181.2125,83.9875 L -171.2125,83.9875 C -170.741095,83.9875 -170.17206,83.751798 -169.7125,83.780393 A 0.7071067811865476,0.7071067811865476 2.733334653626473e-10 0,1 -169.005393,84.4875 C -168.976798,84.94706 -169.2125,85.516095 -169.2125,85.9875 L -169.2125,95.9875 C -169.2125,96.458905 -168.976798,97.02794 -169.005393,97.4875 A 0.7071067811865476,0.7071067811865476 90.00000000026822 0,1 -169.7125,98.194607 C -170.17206,98.223202 -170.741095,97.9875 -171.2125,97.9875 L -181.2125,97.9875 C -181.683905,97.9875 -182.25294,98.223202 -182.7125,98.194607 A 0.7071067811865476,0.7071067811865476 -179.99999999972437 0,1 -183.419607,97.4875 C -183.448202,97.02794 -183.2125,96.458905 -183.2125,95.9875 L -183.2125,85.9875 M -164.1625,85.9875 C -164.1625,85.516095 -164.398202,84.94706 -164.369607,84.4875 A 0.7071067811865476,0.7071067811865476 -89.99999999970163 0,1 -163.6625,83.780393 C -163.20294,83.751798 -162.633905,83.9875 -162.1625,83.9875 L -152.1625,83.9875 C -151.691095,83.9875 -151.12206,83.751798 -150.6625,83.780393 A 0.7071067811865476,0.7071067811865476 2.733334653626473e-10 0,1 -149.955393,84.4875 C -149.926798,84.94706 -150.1625,85.516095 -150.1625,85.9875 L -150.1625,95.9875 C -150.1625,96.458905 -149.926798,97.02794 -149.955393,97.4875 A 0.7071067811865476,0.7071067811865476 90.00000000026822 0,1 -150.6625,98.194607 C -151.12206,98.223202 -151.691095,97.9875 -152.1625,97.9875 L -162.1625,97.9875 C -162.633905,97.9875 -163.20294,98.223202 -163.6625,98.194607 A 0.7071067811865476,0.7071067811865476 -179.99999999972437 0,1 -164.369607,97.4875 C -164.398202,97.02794 -164.1625,96.458905 -164.1625,95.9875 L -164.1625,85.9875 M -92.725,71.7 C -92.725,71.228595 -92.960702,70.65956 -92.932107,70.2 A 0.7071067811865476,0.7071067811865476 -89.99999999970163 0,1 -92.225,69.492893 C -91.76544,69.464298 -91.196405,69.7 -90.725,69.7 L -80.725,69.7 C -80.253595,69.7 -79.68456,69.464298 -79.225,69.492893 A 0.7071067811865476,0.7071067811865476 2.733334653626473e-10 0,1 -78.517893,70.2 C -78.489298,70.65956 -78.725,71.228595 -78.725,71.7 L -78.725,81.7 C -78.725,82.171405 -78.489298,82.74044 -78.517893,83.2 A 0.7071067811865476,0.7071067811865476 90.00000000026822 0,1 -79.225,83.907107 C -79.68456,83.935702 -80.253595,83.7 -80.725,83.7 L -90.725,83.7 C -91.196405,83.7 -91.76544,83.935702 -92.225,83.907107 A 0.7071067811865476,0.7071067811865476 -179.99999999972437 0,1 -92.932107,83.2 C -92.960702,82.74044 -92.725,82.171405 -92.725,81.7 L -92.725,71.7 M -73.675,71.7 C -73.675,71.228595 -73.910702,70.65956 -73.882107,70.2 A 0.7071067811865476,0.7071067811865476 -89.99999999970163 0,1 -73.175,69.492893 C -72.71544,69.464298 -72.146405,69.7 -71.675,69.7 L -61.675,69.7 C -61.203595,69.7 -60.63456,69.464298 -60.175,69.492893 A 0.7071067811865476,0.7071067811865476 2.733334653626473e-10 0,1 -59.467893,70.2 C -59.439298,70.65956 -59.675,71.228595 -59.675,71.7 L -59.675,81.7 C -59.675,82.171405 -59.439298,82.74044 -59.467893,83.2 A 0.7071067811865476,0.7071067811865476 90.00000000026822 0,1 -60.175,83.907107 C -60.63456,83.935702 -61.203595,83.7 -61.675,83.7 L -71.675,83.7 C -72.146405,83.7 -72.71544,83.935702 -73.175,83.907107 A 0.7071067811865476,0.7071067811865476 -179.99999999972437 0,1 -73.882107,83.2 C -73.910702,82.74044 -73.675,82.171405 -73.675,81.7 L -73.675,71.7 M -54.625,71.7 C -54.625,71.228595 -54.860702,70.65956 -54.832107,70.2 A 0.7071067811865476,0.7071067811865476 -89.99999999970163 0,1 -54.125,69.492893 C -53.66544,69.464298 -53.096405,69.7 -52.625,69.7 L -42.625,69.7 C -42.153595,69.7 -41.58456,69.464298 -41.125,69.492893 A 0.7071067811865476,0.7071067811865476 2.733334653626473e-10 0,1 -40.417893,70.2 C -40.389298,70.65956 -40.625,71.228595 -40.625,71.7 L -40.625,81.7 C -40.625,82.171405 -40.389298,82.74044 -40.417893,83.2 A 0.7071067811865476,0.7071067811865476 90.00000000026822 0,1 -41.125,83.907107 C -41.58456,83.935702 -42.153595,83.7 -42.625,83.7 L -52.625,83.7 C -53.096405,83.7 -53.66544,83.935702 -54.125,83.907107 A 0.7071067811865476,0.7071067811865476 -179.99999999972437 0,1 -54.832107,83.2 C -54.860702,82.74044 -54.625,82.171405 -54.625,81.7 L -54.625,71.7 M -35.575,71.7 C -35.575,71.228595 -35.810702,70.65956 -35.782107,70.2 A 0.7071067811865476,0.7071067811865476 -89.99999999970163 0,1 -35.075,69.492893 C -34.61544,69.464298 -34.046405,69.7 -33.575,69.7 L -23.575,69.7 C -23.103595,69.7 -22.53456,69.464298 -22.075,69.492893 A 0.7071067811865476,0.7071067811865476 2.733334653626473e-10 0,1 -21.367893,70.2 C -21.339298,70.65956 -21.575,71.228595 -21.575,71.7 L -21.575,81.7 C -21.575,82.171405 -21.339298,82.74044 -21.367893,83.2 A 0.7071067811865476,0.7071067811865476 90.00000000026822 0,1 -22.075,83.907107 C -22.53456,83.935702 -23.103595,83.7 -23.575,83.7 L -33.575,83.7 C -34.046405,83.7 -34.61544,83.935702 -35.075,83.907107 A 0.7071067811865476,0.7071067811865476 -179.99999999972437 0,1 -35.782107,83.2 C -35.810702,82.74044 -35.575,82.171405 -35.575,81.7 L -35.575,71.7 M -16.525,71.7 C -16.525,71.228595 -16.760702,70.65956 -16.732107,70.2 A 0.7071067811865476,0.7071067811865476 -89.99999999970163 0,1 -16.025,69.492893 C -15.56544,69.464298 -14.996405,69.7 -14.525,69.7 L -4.525,69.7 C -4.053595,69.7 -3.48456,69.464298 -3.025,69.492893 A 0.7071067811865476,0.7071067811865476 2.733334653626473e-10 0,1 -2.317893,70.2 C -2.289298,70.65956 -2.525,71.228595 -2.525,71.7 L -2.525,81.7 C -2.525,82.171405 -2.289298,82.74044 -2.317893,83.2 A 0.7071067811865476,0.7071067811865476 90.00000000026822 0,1 -3.025,83.907107 C -3.48456,83.935702 -4.053595,83.7 -4.525,83.7 L -14.525,83.7 C -14.996405,83.7 -15.56544,83.935702 -16.025,83.907107 A 0.7071067811865476,0.7071067811865476 -179.99999999972437 0,1 -16.732107,83.2 C -16.760702,82.74044 -16.525,82.171405 -16.525,81.7 L -16.525,71.7 M -140.35,90.75 C -140.35,90.278595 -140.585702,89.70956 -140.557107,89.25 A 0.7071067811865476,0.7071067811865476 -89.99999999970163 0,1 -139.85,88.542893 C -139.39044,88.514298 -138.821405,88.75 -138.35,88.75 L -128.35,88.75 C -127.878595,88.75 -127.30956,88.514298 -126.85,88.542893 A 0.7071067811865476,0.7071067811865476 2.733334653626473e-10 0,1 -126.142893,89.25 C -126.114298,89.70956 -126.35,90.278595 -126.35,90.75 L -126.35,100.75 C -126.35,101.221405 -126.114298,101.79044 -126.142893,102.25 A 0.7071067811865476,0.7071067811865476 90.00000000026822 0,1 -126.85,102.957107 C -127.30956,102.985702 -127.878595,102.75 -128.35,102.75 L -138.35,102.75 C -138.821405,102.75 -139.39044,102.985702 -139.85,102.957107 A 0.7071067811865476,0.7071067811865476 -179.99999999972437 0,1 -140.557107,102.25 C -140.585702,101.79044 -140.35,101.221405 -140.35,100.75 L -140.35,90.75 M -121.3,90.75 C -121.3,90.278595 -121.535702,89.70956 -121.507107,89.25 A 0.7071067811865476,0.7071067811865476 -89.99999999970163 0,1 -120.8,88.542893 C -120.34044,88.514298 -119.771405,88.75 -119.3,88.75 L -109.3,88.75 C -108.828595,88.75 -108.25956,88.514298 -107.8,88.542893 A 0.7071067811865476,0.7071067811865476 2.733334653626473e-10 0,1 -107.092893,89.25 C -107.064298,89.70956 -107.3,90.278595 -107.3,90.75 L -107.3,100.75 C -107.3,101.221405 -107.064298,101.79044 -107.092893,102.25 A 0.7071067811865476,0.7071067811865476 90.00000000026822 0,1 -107.8,102.957107 C -108.25956,102.985702 -108.828595,102.75 -109.3,102.75 L -119.3,102.75 C -119.771405,102.75 -120.34044,102.985702 -120.8,102.957107 A 0.7071067811865476,0.7071067811865476 -179.99999999972437 0,1 -121.507107,102.25 C -121.535702,101.79044 -121.3,101.221405 -121.3,100.75 L -121.3,90.75 M -174.6125,117.532402 A 1.6,1.6 0.0 0,1 -177.8125,117.532402 A 1.6,1.6 0.0 0,1 -174.6125,117.532402 M -102.25,90.75 C -102.25,90.278595 -102.485702,89.70956 -102.457107,89.25 A 0.7071067811865476,0.7071067811865476 -89.99999999970163 0,1 -101.75,88.542893 C -101.29044,88.514298 -100.721405,88.75 -100.25,88.75 L -90.25,88.75 C -89.778595,88.75 -89.20956,88.514298 -88.75,88.542893 A 0.7071067811865476,0.7071067811865476 2.733334653626473e-10 0,1 -88.042893,89.25 C -88.014298,89.70956 -88.25,90.278595 -88.25,90.75 L -88.25,100.75 C -88.25,101.221405 -88.014298,101.79044 -88.042893,102.25 A 0.7071067811865476,0.7071067811865476 90.00000000026822 0,1 -88.75,102.957107 C -89.20956,102.985702 -89.778595,102.75 -90.25,102.75 L -100.25,102.75 C -100.721405,102.75 -101.29044,102.985702 -101.75,102.957107 A 0.7071067811865476,0.7071067811865476 -179.99999999972437 0,1 -102.457107,102.25 C -102.485702,101.79044 -102.25,101.221405 -102.25,100.75 L -102.25,90.75 M -83.2,90.75 C -83.2,90.278595 -83.435702,89.70956 -83.407107,89.25 A 0.7071067811865476,0.7071067811865476 -89.99999999970163 0,1 -82.7,88.542893 C -82.24044,88.514298 -81.671405,88.75 -81.2,88.75 L -71.2,88.75 C -70.728595,88.75 -70.15956,88.514298 -69.7,88.542893 A 0.7071067811865476,0.7071067811865476 2.733334653626473e-10 0,1 -68.992893,89.25 C -68.964298,89.70956 -69.2,90.278595 -69.2,90.75 L -69.2,100.75 C -69.2,101.221405 -68.964298,101.79044 -68.992893,102.25 A 0.7071067811865476,0.7071067811865476 90.00000000026822 0,1 -69.7,102.957107 C -70.15956,102.985702 -70.728595,102.75 -71.2,102.75 L -81.2,102.75 C -81.671405,102.75 -82.24044,102.985702 -82.7,102.957107 A 0.7071067811865476,0.7071067811865476 -179.99999999972437 0,1 -83.407107,102.25 C -83.435702,101.79044 -83.2,101.221405 -83.2,100.75 L -83.2,90.75 M -64.15,90.75 C -64.15,90.278595 -64.385702,89.70956 -64.357107,89.25 A 0.7071067811865476,0.7071067811865476 -89.99999999970163 0,1 -63.65,88.542893 C -63.19044,88.514298 -62.621405,88.75 -62.15,88.75 L -52.15,88.75 C -51.678595,88.75 -51.10956,88.514298 -50.65,88.542893 A 0.7071067811865476,0.7071067811865476 2.733334653626473e-10 0,1 -49.942893,89.25 C -49.914298,89.70956 -50.15,90.278595 -50.15,90.75 L -50.15,100.75 C -50.15,101.221405 -49.914298,101.79044 -49.942893,102.25 A 0.7071067811865476,0.7071067811865476 90.00000000026822 0,1 -50.65,102.957107 C -51.10956,102.985702 -51.678595,102.75 -52.15,102.75 L -62.15,102.75 C -62.621405,102.75 -63.19044,102.985702 -63.65,102.957107 A 0.7071067811865476,0.7071067811865476 -179.99999999972437 0,1 -64.357107,102.25 C -64.385702,101.79044 -64.15,101.221405 -64.15,100.75 L -64.15,90.75 M -45.1,90.75 C -45.1,90.278595 -45.335702,89.70956 -45.307107,89.25 A 0.7071067811865476,0.7071067811865476 -89.99999999970163 0,1 -44.6,88.542893 C -44.14044,88.514298 -43.571405,88.75 -43.1,88.75 L -33.1,88.75 C -32.628595,88.75 -32.05956,88.514298 -31.6,88.542893 A 0.7071067811865476,0.7071067811865476 2.733334653626473e-10 0,1 -30.892893,89.25 C -30.864298,89.70956 -31.1,90.278595 -31.1,90.75 L -31.1,100.75 C -31.1,101.221405 -30.864298,101.79044 -30.892893,102.25 A 0.7071067811865476,0.7071067811865476 90.00000000026822 0,1 -31.6,102.957107 C -32.05956,102.985702 -32.628595,102.75 -33.1,102.75 L -43.1,102.75 C -43.571405,102.75 -44.14044,102.985702 -44.6,102.957107 A 0.7071067811865476,0.7071067811865476 -179.99999999972437 0,1 -45.307107,102.25 C -45.335702,101.79044 -45.1,101.221405 -45.1,100.75 L -45.1,90.75 M -26.05,90.75 C -26.05,90.278595 -26.285702,89.70956 -26.257107,89.25 A 0.7071067811865476,0.7071067811865476 -89.99999999970163 0,1 -25.55,88.542893 C -25.09044,88.514298 -24.521405,88.75 -24.05,88.75 L -14.05,88.75 C -13.578595,88.75 -13.00956,88.514298 -12.55,88.542893 A 0.7071067811865476,0.7071067811865476 2.733334653626473e-10 0,1 -11.842893,89.25 C -11.814298,89.70956 -12.05,90.278595 -12.05,90.75 L -12.05,100.75 C -12.05,101.221405 -11.814298,101.79044 -11.842893,102.25 A 0.7071067811865476,0.7071067811865476 90.00000000026822 0,1 -12.55,102.957107 C -13.00956,102.985702 -13.578595,102.75 -14.05,102.75 L -24.05,102.75 C -24.521405,102.75 -25.09044,102.985702 -25.55,102.957107 A 0.7071067811865476,0.7071067811865476 -179.99999999972437 0,1 -26.257107,102.25 C -26.285702,101.79044 -26.05,101.221405 -26.05,100.75 L -26.05,90.75 M -65.075,122.7375 A 1.6000000000000012,1.6000000000000012 0.0 0,1 -68.275,122.7375 A 1.6000000000000012,1.6000000000000012 0.0 0,1 -65.075,122.7375 M 2.525,71.7 C 2.525,71.228595 2.289298,70.65956 2.317893,70.2 A 0.7071067811865476,0.7071067811865476 -89.99999999970163 0,1 3.025,69.492893 C 3.48456,69.464298 4.053595,69.7 4.525,69.7 L 14.525,69.7 C 14.996405,69.7 15.56544,69.464298 16.025,69.492893 A 0.7071067811865476,0.7071067811865476 2.733334653626473e-10 0,1 16.732107,70.2 C 16.760702,70.65956 16.525,71.228595 16.525,71.7 L 16.525,81.7 C 16.525,82.171405 16.760702,82.74044 16.732107,83.2 A 0.7071067811865476,0.7071067811865476 90.00000000026822 0,1 16.025,83.907107 C 15.56544,83.935702 14.996405,83.7 14.525,83.7 L 4.525,83.7 C 4.053595,83.7 3.48456,83.935702 3.025,83.907107 A 0.7071067811865476,0.7071067811865476 -179.99999999972437 0,1 2.317893,83.2 C 2.289298,82.74044 2.525,82.171405 2.525,81.7 L 2.525,71.7 M 21.575,71.7 C 21.575,71.228595 21.339298,70.65956 21.367893,70.2 A 0.7071067811865476,0.7071067811865476 -89.99999999970163 0,1 22.075,69.492893 C 22.53456,69.464298 23.103595,69.7 23.575,69.7 L 33.575,69.7 C 34.046405,69.7 34.61544,69.464298 35.075,69.492893 A 0.7071067811865476,0.7071067811865476 2.733334653626473e-10 0,1 35.782107,70.2 C 35.810702,70.65956 35.575,71.228595 35.575,71.7 L 35.575,81.7 C 35.575,82.171405 35.810702,82.74044 35.782107,83.2 A 0.7071067811865476,0.7071067811865476 90.00000000026822 0,1 35.075,83.907107 C 34.61544,83.935702 34.046405,83.7 33.575,83.7 L 23.575,83.7 C 23.103595,83.7 22.53456,83.935702 22.075,83.907107 A 0.7071067811865476,0.7071067811865476 -179.99999999972437 0,1 21.367893,83.2 C 21.339298,82.74044 21.575,82.171405 21.575,81.7 L 21.575,71.7 M 40.625,71.7 C 40.625,71.228595 40.389298,70.65956 40.417893,70.2 A 0.7071067811865476,0.7071067811865476 -89.99999999970163 0,1 41.125,69.492893 C 41.58456,69.464298 42.153595,69.7 42.625,69.7 L 52.625,69.7 C 53.096405,69.7 53.66544,69.464298 54.125,69.492893 A 0.7071067811865476,0.7071067811865476 2.733334653626473e-10 0,1 54.832107,70.2 C 54.860702,70.65956 54.625,71.228595 54.625,71.7 L 54.625,81.7 C 54.625,82.171405 54.860702,82.74044 54.832107,83.2 A 0.7071067811865476,0.7071067811865476 90.00000000026822 0,1 54.125,83.907107 C 53.66544,83.935702 53.096405,83.7 52.625,83.7 L 42.625,83.7 C 42.153595,83.7 41.58456,83.935702 41.125,83.907107 A 0.7071067811865476,0.7071067811865476 -179.99999999972437 0,1 40.417893,83.2 C 40.389298,82.74044 40.625,82.171405 40.625,81.7 L 40.625,71.7 M 59.675,71.7 C 59.675,71.228595 59.439298,70.65956 59.467893,70.2 A 0.7071067811865476,0.7071067811865476 -89.99999999970163 0,1 60.175,69.492893 C 60.63456,69.464298 61.203595,69.7 61.675,69.7 L 71.675,69.7 C 72.146405,69.7 72.71544,69.464298 73.175,69.492893 A 0.7071067811865476,0.7071067811865476 2.733334653626473e-10 0,1 73.882107,70.2 C 73.910702,70.65956 73.675,71.228595 73.675,71.7 L 73.675,81.7 C 73.675,82.171405 73.910702,82.74044 73.882107,83.2 A 0.7071067811865476,0.7071067811865476 90.00000000026822 0,1 73.175,83.907107 C 72.71544,83.935702 72.146405,83.7 71.675,83.7 L 61.675,83.7 C 61.203595,83.7 60.63456,83.935702 60.175,83.907107 A 0.7071067811865476,0.7071067811865476 -179.99999999972437 0,1 59.467893,83.2 C 59.439298,82.74044 59.675,82.171405 59.675,81.7 L 59.675,71.7 M 78.725,71.7 C 78.725,71.228595 78.489298,70.65956 78.517893,70.2 A 0.7071067811865476,0.7071067811865476 -89.99999999970163 0,1 79.225,69.492893 C 79.68456,69.464298 80.253595,69.7 80.725,69.7 L 90.725,69.7 C 91.196405,69.7 91.76544,69.464298 92.225,69.492893 A 0.7071067811865476,0.7071067811865476 2.733334653626473e-10 0,1 92.932107,70.2 C 92.960702,70.65956 92.725,71.228595 92.725,71.7 L 92.725,81.7 C 92.725,82.171405 92.960702,82.74044 92.932107,83.2 A 0.7071067811865476,0.7071067811865476 90.00000000026822 0,1 92.225,83.907107 C 91.76544,83.935702 91.196405,83.7 90.725,83.7 L 80.725,83.7 C 80.253595,83.7 79.68456,83.935702 79.225,83.907107 A 0.7071067811865476,0.7071067811865476 -179.99999999972437 0,1 78.517893,83.2 C 78.489298,82.74044 78.725,82.171405 78.725,81.7 L 78.725,71.7 M 97.775,71.7 C 97.775,71.228595 97.539298,70.65956 97.567893,70.2 A 0.7071067811865476,0.7071067811865476 -89.99999999970163 0,1 98.275,69.492893 C 98.73456,69.464298 99.303595,69.7 99.775,69.7 L 109.775,69.7 C 110.246405,69.7 110.81544,69.464298 111.275,69.492893 A 0.7071067811865476,0.7071067811865476 2.733334653626473e-10 0,1 111.982107,70.2 C 112.010702,70.65956 111.775,71.228595 111.775,71.7 L 111.775,81.7 C 111.775,82.171405 112.010702,82.74044 111.982107,83.2 A 0.7071067811865476,0.7071067811865476 90.00000000026822 0,1 111.275,83.907107 C 110.81544,83.935702 110.246405,83.7 109.775,83.7 L 99.775,83.7 C 99.303595,83.7 98.73456,83.935702 98.275,83.907107 A 0.7071067811865476,0.7071067811865476 -179.99999999972437 0,1 97.567893,83.2 C 97.539298,82.74044 97.775,82.171405 97.775,81.7 L 97.775,71.7 M 121.5875,71.7 C 121.5875,71.228595 121.351798,70.65956 121.380393,70.2 A 0.7071067811865476,0.7071067811865476 -89.99999999970163 0,1 122.0875,69.492893 C 122.54706,69.464298 123.116095,69.7 123.5875,69.7 L 133.5875,69.7 C 134.058905,69.7 134.62794,69.464298 135.0875,69.492893 A 0.7071067811865476,0.7071067811865476 2.733334653626473e-10 0,1 135.794607,70.2 C 135.823202,70.65956 135.5875,71.228595 135.5875,71.7 L 135.5875,81.7 C 135.5875,82.171405 135.823202,82.74044 135.794607,83.2 A 0.7071067811865476,0.7071067811865476 90.00000000026822 0,1 135.0875,83.907107 C 134.62794,83.935702 134.058905,83.7 133.5875,83.7 L 123.5875,83.7 C 123.116095,83.7 122.54706,83.935702 122.0875,83.907107 A 0.7071067811865476,0.7071067811865476 -179.99999999972437 0,1 121.380393,83.2 C 121.351798,82.74044 121.5875,82.171405 121.5875,81.7 L 121.5875,71.7 M 150.1625,66.9375 C 150.1625,66.466095 149.926798,65.89706 149.955393,65.4375 A 0.7071067811865476,0.7071067811865476 -89.99999999970163 0,1 150.6625,64.730393 C 151.12206,64.701798 151.691095,64.9375 152.1625,64.9375 L 162.1625,64.9375 C 162.633905,64.9375 163.20294,64.701798 163.6625,64.730393 A 0.7071067811865476,0.7071067811865476 2.733334653626473e-10 0,1 164.369607,65.4375 C 164.398202,65.89706 164.1625,66.466095 164.1625,66.9375 L 164.1625,76.9375 C 164.1625,77.408905 164.398202,77.97794 164.369607,78.4375 A 0.7071067811865476,0.7071067811865476 90.00000000026822 0,1 163.6625,79.144607 C 163.20294,79.173202 162.633905,78.9375 162.1625,78.9375 L 152.1625,78.9375 C 151.691095,78.9375 151.12206,79.173202 150.6625,79.144607 A 0.7071067811865476,0.7071067811865476 -179.99999999972437 0,1 149.955393,78.4375 C 149.926798,77.97794 150.1625,77.408905 150.1625,76.9375 L 150.1625,66.9375 M 169.2125,66.9375 C 169.2125,66.466095 168.976798,65.89706 169.005393,65.4375 A 0.7071067811865476,0.7071067811865476 -89.99999999970163 0,1 169.7125,64.730393 C 170.17206,64.701798 170.741095,64.9375 171.2125,64.9375 L 181.2125,64.9375 C 181.683905,64.9375 182.25294,64.701798 182.7125,64.730393 A 0.7071067811865476,0.7071067811865476 2.733334653626473e-10 0,1 183.419607,65.4375 C 183.448202,65.89706 183.2125,66.466095 183.2125,66.9375 L 183.2125,76.9375 C 183.2125,77.408905 183.448202,77.97794 183.419607,78.4375 A 0.7071067811865476,0.7071067811865476 90.00000000026822 0,1 182.7125,79.144607 C 182.25294,79.173202 181.683905,78.9375 181.2125,78.9375 L 171.2125,78.9375 C 170.741095,78.9375 170.17206,79.173202 169.7125,79.144607 A 0.7071067811865476,0.7071067811865476 -179.99999999972437 0,1 169.005393,78.4375 C 168.976798,77.97794 169.2125,77.408905 169.2125,76.9375 L 169.2125,66.9375 M 188.2625,66.9375 C 188.2625,66.466095 188.026798,65.89706 188.055393,65.4375 A 0.7071067811865476,0.7071067811865476 -89.99999999970163 0,1 188.7625,64.730393 C 189.22206,64.701798 189.791095,64.9375 190.2625,64.9375 L 200.2625,64.9375 C 200.733905,64.9375 201.30294,64.701798 201.7625,64.730393 A 0.7071067811865476,0.7071067811865476 2.733334653626473e-10 0,1 202.469607,65.4375 C 202.498202,65.89706 202.2625,66.466095 202.2625,66.9375 L 202.2625,76.9375 C 202.2625,77.408905 202.498202,77.97794 202.469607,78.4375 A 0.7071067811865476,0.7071067811865476 90.00000000026822 0,1 201.7625,79.144607 C 201.30294,79.173202 200.733905,78.9375 200.2625,78.9375 L 190.2625,78.9375 C 189.791095,78.9375 189.22206,79.173202 188.7625,79.144607 A 0.7071067811865476,0.7071067811865476 -179.99999999972437 0,1 188.055393,78.4375 C 188.026798,77.97794 188.2625,77.408905 188.2625,76.9375 L 188.2625,66.9375 M 150.1625,85.9875 C 150.1625,85.516095 149.926798,84.94706 149.955393,84.4875 A 0.7071067811865476,0.7071067811865476 -89.99999999970163 0,1 150.6625,83.780393 C 151.12206,83.751798 151.691095,83.9875 152.1625,83.9875 L 162.1625,83.9875 C 162.633905,83.9875 163.20294,83.751798 163.6625,83.780393 A 0.7071067811865476,0.7071067811865476 2.733334653626473e-10 0,1 164.369607,84.4875 C 164.398202,84.94706 164.1625,85.516095 164.1625,85.9875 L 164.1625,95.9875 C 164.1625,96.458905 164.398202,97.02794 164.369607,97.4875 A 0.7071067811865476,0.7071067811865476 90.00000000026822 0,1 163.6625,98.194607 C 163.20294,98.223202 162.633905,97.9875 162.1625,97.9875 L 152.1625,97.9875 C 151.691095,97.9875 151.12206,98.223202 150.6625,98.194607 A 0.7071067811865476,0.7071067811865476 -179.99999999972437 0,1 149.955393,97.4875 C 149.926798,97.02794 150.1625,96.458905 150.1625,95.9875 L 150.1625,85.9875 M 169.2125,85.9875 C 169.2125,85.516095 168.976798,84.94706 169.005393,84.4875 A 0.7071067811865476,0.7071067811865476 -89.99999999970163 0,1 169.7125,83.780393 C 170.17206,83.751798 170.741095,83.9875 171.2125,83.9875 L 181.2125,83.9875 C 181.683905,83.9875 182.25294,83.751798 182.7125,83.780393 A 0.7071067811865476,0.7071067811865476 2.733334653626473e-10 0,1 183.419607,84.4875 C 183.448202,84.94706 183.2125,85.516095 183.2125,85.9875 L 183.2125,95.9875 C 183.2125,96.458905 183.448202,97.02794 183.419607,97.4875 A 0.7071067811865476,0.7071067811865476 90.00000000026822 0,1 182.7125,98.194607 C 182.25294,98.223202 181.683905,97.9875 181.2125,97.9875 L 171.2125,97.9875 C 170.741095,97.9875 170.17206,98.223202 169.7125,98.194607 A 0.7071067811865476,0.7071067811865476 -179.99999999972437 0,1 169.005393,97.4875 C 168.976798,97.02794 169.2125,96.458905 169.2125,95.9875 L 169.2125,85.9875 M 188.2625,85.9875 C 188.2625,85.516095 188.026798,84.94706 188.055393,84.4875 A 0.7071067811865476,0.7071067811865476 -89.99999999970163 0,1 188.7625,83.780393 C 189.22206,83.751798 189.791095,83.9875 190.2625,83.9875 L 200.2625,83.9875 C 200.733905,83.9875 201.30294,83.751798 201.7625,83.780393 A 0.7071067811865476,0.7071067811865476 2.733334653626473e-10 0,1 202.469607,84.4875 C 202.498202,84.94706 202.2625,85.516095 202.2625,85.9875 L 202.2625,95.9875 C 202.2625,96.458905 202.498202,97.02794 202.469607,97.4875 A 0.7071067811865476,0.7071067811865476 90.00000000026822 0,1 201.7625,98.194607 C 201.30294,98.223202 200.733905,97.9875 200.2625,97.9875 L 190.2625,97.9875 C 189.791095,97.9875 189.22206,98.223202 188.7625,98.194607 A 0.7071067811865476,0.7071067811865476 -179.99999999972437 0,1 188.055393,97.4875 C 188.026798,97.02794 188.2625,96.458905 188.2625,95.9875 L 188.2625,85.9875 M -7.0,90.75 C -7.0,90.278595 -7.235702,89.70956 -7.207107,89.25 A 0.7071067811865476,0.7071067811865476 -89.99999999970163 0,1 -6.5,88.542893 C -6.04044,88.514298 -5.471405,88.75 -5.0,88.75 L 5.0,88.75 C 5.471405,88.75 6.04044,88.514298 6.5,88.542893 A 0.7071067811865476,0.7071067811865476 2.733334653626473e-10 0,1 7.207107,89.25 C 7.235702,89.70956 7.0,90.278595 7.0,90.75 L 7.0,100.75 C 7.0,101.221405 7.235702,101.79044 7.207107,102.25 A 0.7071067811865476,0.7071067811865476 90.00000000026822 0,1 6.5,102.957107 C 6.04044,102.985702 5.471405,102.75 5.0,102.75 L -5.0,102.75 C -5.471405,102.75 -6.04044,102.985702 -6.5,102.957107 A 0.7071067811865476,0.7071067811865476 -179.99999999972437 0,1 -7.207107,102.25 C -7.235702,101.79044 -7.0,101.221405 -7.0,100.75 L -7.0,90.75 M 12.05,90.75 C 12.05,90.278595 11.814298,89.70956 11.842893,89.25 A 0.7071067811865476,0.7071067811865476 -89.99999999970163 0,1 12.55,88.542893 C 13.00956,88.514298 13.578595,88.75 14.05,88.75 L 24.05,88.75 C 24.521405,88.75 25.09044,88.514298 25.55,88.542893 A 0.7071067811865476,0.7071067811865476 2.733334653626473e-10 0,1 26.257107,89.25 C 26.285702,89.70956 26.05,90.278595 26.05,90.75 L 26.05,100.75 C 26.05,101.221405 26.285702,101.79044 26.257107,102.25 A 0.7071067811865476,0.7071067811865476 90.00000000026822 0,1 25.55,102.957107 C 25.09044,102.985702 24.521405,102.75 24.05,102.75 L 14.05,102.75 C 13.578595,102.75 13.00956,102.985702 12.55,102.957107 A 0.7071067811865476,0.7071067811865476 -179.99999999972437 0,1 11.842893,102.25 C 11.814298,101.79044 12.05,101.221405 12.05,100.75 L 12.05,90.75 M 31.1,90.75 C 31.1,90.278595 30.864298,89.70956 30.892893,89.25 A 0.7071067811865476,0.7071067811865476 -89.99999999970163 0,1 31.6,88.542893 C 32.05956,88.514298 32.628595,88.75 33.1,88.75 L 43.1,88.75 C 43.571405,88.75 44.14044,88.514298 44.6,88.542893 A 0.7071067811865476,0.7071067811865476 2.733334653626473e-10 0,1 45.307107,89.25 C 45.335702,89.70956 45.1,90.278595 45.1,90.75 L 45.1,100.75 C 45.1,101.221405 45.335702,101.79044 45.307107,102.25 A 0.7071067811865476,0.7071067811865476 90.00000000026822 0,1 44.6,102.957107 C 44.14044,102.985702 43.571405,102.75 43.1,102.75 L 33.1,102.75 C 32.628595,102.75 32.05956,102.985702 31.6,102.957107 A 0.7071067811865476,0.7071067811865476 -179.99999999972437 0,1 30.892893,102.25 C 30.864298,101.79044 31.1,101.221405 31.1,100.75 L 31.1,90.75 M 50.15,90.75 C 50.15,90.278595 49.914298,89.70956 49.942893,89.25 A 0.7071067811865476,0.7071067811865476 -89.99999999970163 0,1 50.65,88.542893 C 51.10956,88.514298 51.678595,88.75 52.15,88.75 L 62.15,88.75 C 62.621405,88.75 63.19044,88.514298 63.65,88.542893 A 0.7071067811865476,0.7071067811865476 2.733334653626473e-10 0,1 64.357107,89.25 C 64.385702,89.70956 64.15,90.278595 64.15,90.75 L 64.15,100.75 C 64.15,101.221405 64.385702,101.79044 64.357107,102.25 A 0.7071067811865476,0.7071067811865476 90.00000000026822 0,1 63.65,102.957107 C 63.19044,102.985702 62.621405,102.75 62.15,102.75 L 52.15,102.75 C 51.678595,102.75 51.10956,102.985702 50.65,102.957107 A 0.7071067811865476,0.7071067811865476 -179.99999999972437 0,1 49.942893,102.25 C 49.914298,101.79044 50.15,101.221405 50.15,100.75 L 50.15,90.75 M 69.2,90.75 C 69.2,90.278595 68.964298,89.70956 68.992893,89.25 A 0.7071067811865476,0.7071067811865476 -89.99999999970163 0,1 69.7,88.542893 C 70.15956,88.514298 70.728595,88.75 71.2,88.75 L 81.2,88.75 C 81.671405,88.75 82.24044,88.514298 82.7,88.542893 A 0.7071067811865476,0.7071067811865476 2.733334653626473e-10 0,1 83.407107,89.25 C 83.435702,89.70956 83.2,90.278595 83.2,90.75 L 83.2,100.75 C 83.2,101.221405 83.435702,101.79044 83.407107,102.25 A 0.7071067811865476,0.7071067811865476 90.00000000026822 0,1 82.7,102.957107 C 82.24044,102.985702 81.671405,102.75 81.2,102.75 L 71.2,102.75 C 70.728595,102.75 70.15956,102.985702 69.7,102.957107 A 0.7071067811865476,0.7071067811865476 -179.99999999972437 0,1 68.992893,102.25 C 68.964298,101.79044 69.2,101.221405 69.2,100.75 L 69.2,90.75 M 88.25,90.75 C 88.25,90.278595 88.014298,89.70956 88.042893,89.25 A 0.7071067811865476,0.7071067811865476 -89.99999999970163 0,1 88.75,88.542893 C 89.20956,88.514298 89.778595,88.75 90.25,88.75 L 100.25,88.75 C 100.721405,88.75 101.29044,88.514298 101.75,88.542893 A 0.7071067811865476,0.7071067811865476 2.733334653626473e-10 0,1 102.457107,89.25 C 102.485702,89.70956 102.25,90.278595 102.25,90.75 L 102.25,100.75 C 102.25,101.221405 102.485702,101.79044 102.457107,102.25 A 0.7071067811865476,0.7071067811865476 90.00000000026822 0,1 101.75,102.957107 C 101.29044,102.985702 100.721405,102.75 100.25,102.75 L 90.25,102.75 C 89.778595,102.75 89.20956,102.985702 88.75,102.957107 A 0.7071067811865476,0.7071067811865476 -179.99999999972437 0,1 88.042893,102.25 C 88.014298,101.79044 88.25,101.221405 88.25,100.75 L 88.25,90.75 M 68.275,122.7375 A 1.6000000000000012,1.6000000000000012 0.0 0,1 65.075,122.7375 A 1.6000000000000012,1.6000000000000012 0.0 0,1 68.275,122.7375 M 107.3,90.75 C 107.3,90.278595 107.064298,89.70956 107.092893,89.25 A 0.7071067811865476,0.7071067811865476 -89.99999999970163 0,1 107.8,88.542893 C 108.25956,88.514298 108.828595,88.75 109.3,88.75 L 119.3,88.75 C 119.771405,88.75 120.34044,88.514298 120.8,88.542893 A 0.7071067811865476,0.7071067811865476 2.733334653626473e-10 0,1 121.507107,89.25 C 121.535702,89.70956 121.3,90.278595 121.3,90.75 L 121.3,100.75 C 121.3,101.221405 121.535702,101.79044 121.507107,102.25 A 0.7071067811865476,0.7071067811865476 90.00000000026822 0,1 120.8,102.957107 C 120.34044,102.985702 119.771405,102.75 119.3,102.75 L 109.3,102.75 C 108.828595,102.75 108.25956,102.985702 107.8,102.957107 A 0.7071067811865476,0.7071067811865476 -179.99999999972437 0,1 107.092893,102.25 C 107.064298,101.79044 107.3,101.221405 107.3,100.75 L 107.3,90.75 M 126.35,90.75 C 126.35,90.278595 126.114298,89.70956 126.142893,89.25 A 0.7071067811865476,0.7071067811865476 -89.99999999970163 0,1 126.85,88.542893 C 127.30956,88.514298 127.878595,88.75 128.35,88.75 L 138.35,88.75 C 138.821405,88.75 139.39044,88.514298 139.85,88.542893 A 0.7071067811865476,0.7071067811865476 2.733334653626473e-10 0,1 140.557107,89.25 C 140.585702,89.70956 140.35,90.278595 140.35,90.75 L 140.35,100.75 C 140.35,101.221405 140.585702,101.79044 140.557107,102.25 A 0.7071067811865476,0.7071067811865476 90.00000000026822 0,1 139.85,102.957107 C 139.39044,102.985702 138.821405,102.75 138.35,102.75 L 128.35,102.75 C 127.878595,102.75 127.30956,102.985702 126.85,102.957107 A 0.7071067811865476,0.7071067811865476 -179.99999999972437 0,1 126.142893,102.25 C 126.114298,101.79044 126.35,101.221405 126.35,100.75 L 126.35,90.75 M 177.8125,117.532402 A 1.6,1.6 0.0 0,1 174.6125,117.532402 A 1.6,1.6 0.0 0,1 177.8125,117.532402" />
      <path d="M -4.5,148.55 L -4.5,147.55 L -8.0,147.55 A 1.5,1.5 0.0 0,1 -9.5,146.05 L -9.5,143.7875 L -59.53125,143.7875 C -61.11875,143.7875 -61.739267,142.870927 -62.507813,141.481865 A 4.7625,4.7625 0.0 0,0 -70.842188,141.481865 C -71.610733,142.870927 -72.23125,143.7875 -73.81875,143.7875 L -123.825,143.7875 C -139.28321,143.790767 -154.737125,142.473564 -169.196676,139.927275 C -170.760184,139.652321 -171.192683,138.637214 -171.678221,137.125788 A 4.7625,4.7625 -167.64049874902997 0,0 -179.789598,135.438237 C -180.837653,136.630603 -181.639149,137.389038 -183.181997,137.01517 C -192.030998,134.87161 -200.337296,132.24952 -207.871435,129.232173 C -209.345202,128.642115 -210.075,127.535841 -210.075,125.948341 L -210.075,125.728242 C -210.075,125.061576 -210.408333,124.728242 -211.075,124.728242 L -212.725,124.728242 L -212.725,125.228242 A 0.5,0.5 0.0 0,1 -213.225,125.728242 L -215.925,125.728242 A 0.5,0.5 0.0 0,1 -216.425,125.228242 L -216.425,124.728242 L -218.075,124.728242 C -218.741667,124.728242 -219.075,125.061576 -219.075,125.728242 L -219.075,128.490742 C -219.075,129.157409 -218.77573,129.637569 -218.173956,129.924471 A 133.35,63.5 0.0 0,0 -177.181918,143.245195 A 133.35,63.5 0.0 0,0 -123.825,148.55 L -4.5,148.55 M -173.6125,138.582402 A 2.6,2.6 0.0 0,1 -178.8125,138.582402 A 2.6,2.6 0.0 0,1 -173.6125,138.582402 M -64.075,143.7875 A 2.6000000000000014,2.6000000000000014 0.0 0,1 -69.275,143.7875 A 2.6000000000000014,2.6000000000000014 0.0 0,1 -64.075,143.7875" />
      <path d="M 218.173956,129.924471 C 218.77573,129.637569 219.075,129.157409 219.075,128.490742 L 219.075,125.728242 C 219.075,125.061576 218.741667,124.728242 218.075,124.728242 L 216.425,124.728242 L 216.425,125.228242 A 0.5,0.5 0.0 0,1 215.925,125.728242 L 213.225,125.728242 A 0.5,0.5 0.0 0,1 212.725,125.228242 L 212.725,124.728242 L 211.075,124.728242 C 210.408333,124.728242 210.075,125.061576 210.075,125.728242 L 210.075,125.948341 C 210.075,127.535841 209.345202,128.642115 207.871435,129.232173 C 200.337296,132.24952 192.030998,134.87161 183.181997,137.01517 C 181.639149,137.389038 180.837653,136.630603 179.789598,135.438237 A 4.7625,4.7625 0.0 0,0 171.678221,137.125788 C 171.192683,138.637214 170.760184,139.652321 169.196676,139.927275 C 154.737125,142.473564 139.28321,143.790767 123.825,143.7875 L 73.81875,143.7875 C 72.23125,143.7875 71.610733,142.870927 70.842187,141.481865 A 4.7625,4.7625 0.0 0,0 62.507812,141.481865 C 61.739267,142.870927 61.11875,143.7875 59.53125,143.7875 L 9.5,143.7875 L 9.5,146.05 A 1.5,1.5 0.0 0,1 8.0,147.55 L 4.5,147.55 L 4.5,148.55 L 123.825,148.55 A 133.35,63.5 0.0 0,0 177.181918,143.245195 A 133.35,63.5 0.0 0,0 218.173956,129.924471 M 178.8125,138.582402 A 2.6,2.6 0.0 0,1 173.6125,138.582402 A 2.6,2.6 0.0 0,1 178.8125,138.582402 M 69.275,143.7875 A 2.6000000000000014,2.6000000000000014 0.0 0,1 64.075,143.7875 A 2.6000000000000014,2.6000000000000014 0.0 0,1 69.275,143.7875" />
      <path d="M -218.075,-124.728242 L -216.425,-124.728242 L -216.425,-125.228242 A 0.5,0.5 0.0 0,1 -215.925,-125.728242 L -213.225,-125.728242 A 0.5,0.5 0.0 0,1 -212.725,-125.228242 L -212.725,-124.728242 L -211.075,-124.728242 C -210.408333,-124.728242 -210.075,-125.061576 -210.075,-125.728242 L -210.075,-125.948341 C -210.075,-127.535841 -209.345202,-128.642115 -207.871435,-129.232173 C -200.337296,-132.24952 -192.030998,-134.87161 -183.181997,-137.01517 C -181.639149,-137.389038 -180.837653,-136.630603 -179.789598,-135.438237 A 4.7625,4.7625 -11.145674118505378 0,0 -171.678221,-137.125788 C -171.192683,-138.637214 -170.760184,-139.652321 -169.196676,-139.927275 C -154.737125,-142.473564 -139.28321,-143.790767 -123.825,-143.7875 L -73.81875,-143.7875 C -72.23125,-143.7875 -71.610733,-142.870927 -70.842187,-141.481865 A 4.7625,4.7625 0.0 0,0 -62.507813,-141.481865 C -61.739267,-142.870927 -61.11875,-143.7875 -59.53125,-143.7875 L 59.53125,-143.7875 C 61.11875,-143.7875 61.739267,-142.870927 62.507813,-141.481865 A 4.7625,4.7625 0.0 0,0 70.842187,-141.481865 C 71.610733,-142.870927 72.23125,-143.7875 73.81875,-143.7875 L 123.825,-143.7875 C 139.28321,-143.790767 154.737125,-142.473564 169.196676,-139.927275 C 170.760184,-139.652321 171.192683,-138.637214 171.678221,-137.125788 A 4.7625,4.7625 0.0 0,0 179.789598,-135.438237 C 180.837653,-136.630603 181.639149,-137.389038 183.181997,-137.01517 C 192.030998,-134.87161 200.337296,-132.24952 207.871435,-129.232173 C 209.345202,-128.642115 210.075,-127.535841 210.075,-125.948341 L 210.075,-125.728242 C 210.075,-125.061576 210.408333,-124.728242 211.075,-124.728242 L 212.725,-124.728242 L 212.725,-125.228242 A 0.5,0.5 0.0 0,1 213.225,-125.728242 L 215.925,-125.728242 A 0.5,0.5 0.0 0,1 216.425,-125.228242 L 216.425,-124.728242 L 218.075,-124.728242 C 218.741667,-124.728242 219.075,-125.061576 219.075,-125.728242 L 219.075,-128.490742 C 219.075,-129.157409 218.77573,-129.637569 218.173956,-129.924471 A 133.35,63.5 0.0 0,0 177.181918,-143.245195 A 133.35,63.5 0.0 0,0 123.825,-148.55 L -123.825,-148.55 A 133.35,63.5 0.0 0,0 -177.181918,-143.245195 A 133.35,63.5 0.0 0,0 -218.173956,-129.924471 C -218.77573,-129.637569 -219.075,-129.157409 -219.075,-128.490742 L -219.075,-125.728242 C -219.075,-125.061576 -218.741667,-124.728242 -218.075,-124.728242 M -64.075,-143.7875 A 2.6000000000000014,2.6000000000000014 0.0 0,1 -69.275,-143.7875 A 2.6000000000000014,2.6000000000000014 0.0 0,1 -64.075,-143.7875 M 69.275,-143.7875 A 2.6000000000000014,2.6000000000000014 0.0 0,1 64.075,-143.7875 A 2.6000000000000014,2.6000000000000014 0.0 0,1 69.275,-143.7875 M -173.6125,-138.582402 A 2.6,2.6 0.0 0,1 -178.8125,-138.582402 A 2.6,2.6 0.0 0,1 -173.6125,-138.582402 M 178.8125,-138.582402 A 2.6,2.6 0.0 0,1 173.6125,-138.582402 A 2.6,2.6 0.0 0,1 178.8125,-138.582402" />
      <path d="M -123.825,-0.5 L 123.825,-0.5 A 133.35,63.5 0.0 0,0 218.173956,-19.125529 C 218.77573,-19.412431 219.075,-19.892591 219.075,-20.559258 L 219.075,-107.440742 C 219.075,-108.107409 218.77573,-108.587569 218.173956,-108.874471 A 133.35,63.5 0.0 0,0 123.825,-127.5 L -123.825,-127.5 A 133.35,63.5 0.0 0,0 -218.173956,-108.874471 C -218.77573,-108.587569 -219.075,-108.107409 -219.075,-107.440742 L -219.075,-20.559258 C -219.075,-19.892591 -218.77573,-19.412431 -218.173956,-19.125529 A 133.35,63.5 0.0 0,0 -123.825,-0.5 M -173.6125,-117.532402 A 2.6,2.6 0.0 0,1 -178.8125,-117.532402 A 2.6,2.6 0.0 0,1 -173.6125,-117.532402 M -64.075,-122.7375 A 2.6000000000000014,2.6000000000000014 0.0 0,1 -69.275,-122.7375 A 2.6000000000000014,2.6000000000000014 0.0 0,1 -64.075,-122.7375 M 69.275,-122.7375 A 2.6000000000000014,2.6000000000000014 0.0 0,1 64.075,-122.7375 A 2.6000000000000014,2.6000000000000014 0.0 0,1 69.275,-122.7375 M 178.8125,-117.532402 A 2.6,2.6 0.0 0,1 173.6125,-117.532402 A 2.6,2.6 0.0 0,1 178.8125,-117.532402 M -173.6125,-10.467598 A 2.6,2.6 0.0 0,1 -178.8125,-10.467598 A 2.6,2.6 0.0 0,1 -173.6125,-10.467598 M -5.9,-18.0 A 1.1,1.1 0.0 0,1 -8.1,-18.0 A 1.1,1.1 0.0 0,1 -5.9,-18.0 M -64.075,-5.2625 A 2.6000000000000014,2.6000000000000014 0.0 0,1 -69.275,-5.2625 A 2.6000000000000014,2.6000000000000014 0.0 0,1 -64.075,-5.2625 M -5.9,-4.0 A 1.1,1.1 0.0 0,1 -8.1,-4.0 A 1.1,1.1 0.0 0,1 -5.9,-4.0 M 8.1,-18.0 A 1.1,1.1 0.0 0,1 5.9,-18.0 A 1.1,1.1 0.0 0,1 8.1,-18.0 M 8.1,-4.0 A 1.1,1.1 0.0 0,1 5.9,-4.0 A 1.1,1.1 0.0 0,1 8.1,-4.0 M 69.275,-5.2625 A 2.6000000000000014,2.6000000000000014 0.0 0,1 64.075,-5.2625 A 2.6000000000000014,2.6000000000000014 0.0 0,1 69.275,-5.2625 M 178.8125,-10.467598 A 2.6,2.6 0.0 0,1 173.6125,-10.467598 A 2.6,2.6 0.0 0,1 178.8125,-10.467598" />
    </g>
  </g>
</svg>