%TF.GenerationSoftware,KiCad,Pcbnew,(6.0.11-0)*%
%TF.CreationDate,2023-07-18T22:13:56+01:00*%
%TF.ProjectId,ltbs-base,6c746273-2d62-4617-9365-2e6b69636164,0.3*%
%TF.SameCoordinates,Original*%
%TF.FileFunction,Copper,L2,Bot*%
%TF.FilePolarity,Positive*%
%FSLAX46Y46*%
G04 Gerber Fmt 4.6, Leading zero omitted, Abs format (unit mm)*
G04 Created by KiCad (PCBNEW (6.0.11-0)) date 2023-07-18 22:13:56*
%MOMM*%
%LPD*%
G01*
G04 APERTURE LIST*
G04 APERTURE END LIST*
%TA.AperFunction,NonConductor*%
G36*
X332987496Y-22652921D02*
G01*
X332987828Y-22652987D01*
X332987829Y-22652987D01*
X333000000Y-22655408D01*
X333012170Y-22652987D01*
X333018853Y-22652987D01*
X333035748Y-22651580D01*
X333155960Y-22655212D01*
X333584868Y-22668172D01*
X333592452Y-22668632D01*
X333833435Y-22690530D01*
X334171372Y-22721240D01*
X334178928Y-22722157D01*
X334753635Y-22809626D01*
X334761121Y-22810998D01*
X335329494Y-22933006D01*
X335336884Y-22934828D01*
X335896831Y-23090925D01*
X335904097Y-23093189D01*
X336453624Y-23282818D01*
X336460728Y-23285512D01*
X336752742Y-23406468D01*
X336997804Y-23507976D01*
X337004745Y-23511100D01*
X337527397Y-23765580D01*
X337534136Y-23769117D01*
X338040478Y-24054695D01*
X338046977Y-24058623D01*
X338462520Y-24327293D01*
X338535150Y-24374252D01*
X338541413Y-24378575D01*
X338988266Y-24707375D01*
X339009630Y-24723095D01*
X339015622Y-24727789D01*
X339462188Y-25099956D01*
X339467885Y-25105003D01*
X339668893Y-25294219D01*
X339891176Y-25503462D01*
X339896538Y-25508824D01*
X340064329Y-25687071D01*
X340294997Y-25932115D01*
X340300044Y-25937812D01*
X340414741Y-26075438D01*
X340639693Y-26345359D01*
X340672211Y-26384378D01*
X340676905Y-26390370D01*
X341021425Y-26858587D01*
X341025748Y-26864850D01*
X341300237Y-27289393D01*
X341341372Y-27353016D01*
X341345305Y-27359522D01*
X341522145Y-27673067D01*
X341630883Y-27865864D01*
X341634420Y-27872603D01*
X341888900Y-28395255D01*
X341892024Y-28402196D01*
X341960894Y-28568462D01*
X342036250Y-28750387D01*
X342114483Y-28939259D01*
X342117182Y-28946376D01*
X342306811Y-29495903D01*
X342309075Y-29503169D01*
X342465172Y-30063116D01*
X342466994Y-30070506D01*
X342589002Y-30638879D01*
X342590374Y-30646365D01*
X342677843Y-31221072D01*
X342678760Y-31228628D01*
X342728939Y-31780808D01*
X342731368Y-31807541D01*
X342731828Y-31815139D01*
X342748420Y-32364252D01*
X342747013Y-32381147D01*
X342747013Y-32387830D01*
X342744592Y-32400000D01*
X342747013Y-32412171D01*
X342747013Y-32412172D01*
X342747079Y-32412504D01*
X342749500Y-32437085D01*
X342749500Y-126362915D01*
X342747079Y-126387496D01*
X342744592Y-126400000D01*
X342747013Y-126412170D01*
X342747013Y-126418853D01*
X342748420Y-126435748D01*
X342731828Y-126984861D01*
X342731368Y-126992452D01*
X342709470Y-127233435D01*
X342678760Y-127571372D01*
X342677843Y-127578928D01*
X342590374Y-128153635D01*
X342589002Y-128161121D01*
X342466994Y-128729494D01*
X342465172Y-128736884D01*
X342309075Y-129296831D01*
X342306811Y-129304097D01*
X342117182Y-129853624D01*
X342114483Y-129860741D01*
X341892024Y-130397804D01*
X341888900Y-130404745D01*
X341634420Y-130927397D01*
X341630883Y-130934136D01*
X341500214Y-131165819D01*
X341345310Y-131440470D01*
X341341372Y-131446984D01*
X341025748Y-131935150D01*
X341021425Y-131941413D01*
X340756181Y-132301891D01*
X340676905Y-132409630D01*
X340672216Y-132415615D01*
X340633717Y-132461811D01*
X340300044Y-132862188D01*
X340294997Y-132867885D01*
X340172980Y-132997506D01*
X339896538Y-133291176D01*
X339891176Y-133296538D01*
X339750301Y-133429149D01*
X339467885Y-133694997D01*
X339462188Y-133700044D01*
X339250266Y-133876659D01*
X339019228Y-134069206D01*
X339015622Y-134072211D01*
X339009637Y-134076900D01*
X338772805Y-134251164D01*
X338541413Y-134421425D01*
X338535150Y-134425748D01*
X338335743Y-134554675D01*
X338046984Y-134741372D01*
X338040478Y-134745305D01*
X337798056Y-134882032D01*
X337534136Y-135030883D01*
X337527397Y-135034420D01*
X337004745Y-135288900D01*
X336997804Y-135292024D01*
X336791988Y-135377276D01*
X336460728Y-135514488D01*
X336453627Y-135517181D01*
X336409599Y-135532374D01*
X335904097Y-135706811D01*
X335896831Y-135709075D01*
X335336884Y-135865172D01*
X335329494Y-135866994D01*
X334761121Y-135989002D01*
X334753635Y-135990374D01*
X334178928Y-136077843D01*
X334171372Y-136078760D01*
X333833435Y-136109470D01*
X333592452Y-136131368D01*
X333584868Y-136131828D01*
X333162436Y-136144592D01*
X333035748Y-136148420D01*
X333018853Y-136147013D01*
X333012170Y-136147013D01*
X333000000Y-136144592D01*
X332987830Y-136147013D01*
X332987826Y-136147013D01*
X332980607Y-136148449D01*
X332960690Y-136150784D01*
X198443216Y-141133856D01*
X198438552Y-141133942D01*
X166361448Y-141133942D01*
X166356784Y-141133856D01*
X31839310Y-136150784D01*
X31819393Y-136148449D01*
X31812174Y-136147013D01*
X31812170Y-136147013D01*
X31800000Y-136144592D01*
X31787830Y-136147013D01*
X31781147Y-136147013D01*
X31764252Y-136148420D01*
X31637564Y-136144592D01*
X31215132Y-136131828D01*
X31207548Y-136131368D01*
X30966565Y-136109470D01*
X30628628Y-136078760D01*
X30621072Y-136077843D01*
X30046365Y-135990374D01*
X30038879Y-135989002D01*
X29470506Y-135866994D01*
X29463116Y-135865172D01*
X28903169Y-135709075D01*
X28895903Y-135706811D01*
X28390401Y-135532374D01*
X28346373Y-135517181D01*
X28339272Y-135514488D01*
X28008012Y-135377276D01*
X27802196Y-135292024D01*
X27795255Y-135288900D01*
X27272603Y-135034420D01*
X27265864Y-135030883D01*
X27001944Y-134882032D01*
X26759522Y-134745305D01*
X26753016Y-134741372D01*
X26464258Y-134554675D01*
X26264850Y-134425748D01*
X26258587Y-134421425D01*
X26027195Y-134251164D01*
X25790363Y-134076900D01*
X25784378Y-134072211D01*
X25780773Y-134069206D01*
X25549734Y-133876659D01*
X25337812Y-133700044D01*
X25332115Y-133694997D01*
X25049699Y-133429149D01*
X24908824Y-133296538D01*
X24903462Y-133291176D01*
X24718115Y-133094278D01*
X36084673Y-133094278D01*
X36102897Y-133425418D01*
X36103558Y-133429145D01*
X36103558Y-133429149D01*
X36145911Y-133668126D01*
X36160770Y-133751971D01*
X36161875Y-133755596D01*
X36161876Y-133755601D01*
X36206990Y-133903623D01*
X36257456Y-134069206D01*
X36391553Y-134372527D01*
X36423216Y-134425748D01*
X36559179Y-134654282D01*
X36559183Y-134654288D01*
X36561119Y-134657542D01*
X36763698Y-134920121D01*
X36766356Y-134922821D01*
X36969038Y-135128712D01*
X36996355Y-135156462D01*
X37071047Y-135215981D01*
X37229800Y-135342485D01*
X37255720Y-135363140D01*
X37538036Y-135537161D01*
X37541483Y-135538750D01*
X37835769Y-135674419D01*
X37835779Y-135674423D01*
X37839213Y-135676006D01*
X37842813Y-135677165D01*
X37842820Y-135677168D01*
X38151281Y-135776501D01*
X38151284Y-135776502D01*
X38154890Y-135777663D01*
X38158606Y-135778382D01*
X38158614Y-135778384D01*
X38476775Y-135839940D01*
X38476784Y-135839941D01*
X38480494Y-135840659D01*
X38484270Y-135840926D01*
X38484275Y-135840927D01*
X38582910Y-135847911D01*
X38742441Y-135859206D01*
X38923548Y-135859206D01*
X38925414Y-135859094D01*
X38925431Y-135859093D01*
X39167424Y-135844504D01*
X39167428Y-135844504D01*
X39171202Y-135844276D01*
X39174924Y-135843596D01*
X39174926Y-135843596D01*
X39259751Y-135828104D01*
X39497447Y-135784693D01*
X39814171Y-135686347D01*
X40116787Y-135550664D01*
X40400910Y-135379608D01*
X40403894Y-135377281D01*
X40403901Y-135377276D01*
X40659430Y-135177993D01*
X40659432Y-135177991D01*
X40662425Y-135175657D01*
X40897544Y-134941766D01*
X40941652Y-134885816D01*
X40967383Y-134853176D01*
X84052436Y-134853176D01*
X84070660Y-135184316D01*
X84128533Y-135510869D01*
X84129638Y-135514494D01*
X84129639Y-135514499D01*
X84178379Y-135674419D01*
X84225219Y-135828104D01*
X84359316Y-136131425D01*
X84372480Y-136153552D01*
X84526942Y-136413180D01*
X84526946Y-136413186D01*
X84528882Y-136416440D01*
X84731461Y-136679019D01*
X84964118Y-136915360D01*
X85065587Y-136996217D01*
X85212336Y-137113155D01*
X85223483Y-137122038D01*
X85505799Y-137296059D01*
X85509246Y-137297648D01*
X85803532Y-137433317D01*
X85803542Y-137433321D01*
X85806976Y-137434904D01*
X85810576Y-137436063D01*
X85810583Y-137436066D01*
X86119044Y-137535399D01*
X86119047Y-137535400D01*
X86122653Y-137536561D01*
X86126369Y-137537280D01*
X86126377Y-137537282D01*
X86444538Y-137598838D01*
X86444547Y-137598839D01*
X86448257Y-137599557D01*
X86452033Y-137599824D01*
X86452038Y-137599825D01*
X86550673Y-137606809D01*
X86710204Y-137618104D01*
X86891311Y-137618104D01*
X86893177Y-137617992D01*
X86893194Y-137617991D01*
X87135187Y-137603402D01*
X87135191Y-137603402D01*
X87138965Y-137603174D01*
X87142687Y-137602494D01*
X87142689Y-137602494D01*
X87216557Y-137589003D01*
X87465210Y-137543591D01*
X87781934Y-137445245D01*
X88084550Y-137309562D01*
X88368673Y-137138506D01*
X88371657Y-137136179D01*
X88371664Y-137136174D01*
X88627193Y-136936891D01*
X88627195Y-136936889D01*
X88630188Y-136934555D01*
X88865307Y-136700664D01*
X88915915Y-136636469D01*
X89068274Y-136443202D01*
X89070624Y-136440221D01*
X89243165Y-136156997D01*
X89319548Y-135989002D01*
X89378862Y-135858549D01*
X89378865Y-135858541D01*
X89380431Y-135855097D01*
X89402419Y-135785572D01*
X107644511Y-135785572D01*
X107662735Y-136116712D01*
X107663396Y-136120439D01*
X107663396Y-136120443D01*
X107668431Y-136148853D01*
X107720608Y-136443265D01*
X107721713Y-136446890D01*
X107721714Y-136446895D01*
X107792460Y-136679019D01*
X107817294Y-136760500D01*
X107951391Y-137063821D01*
X107995254Y-137137548D01*
X108119017Y-137345576D01*
X108119021Y-137345582D01*
X108120957Y-137348836D01*
X108323536Y-137611415D01*
X108330121Y-137618104D01*
X108508539Y-137799347D01*
X108556193Y-137847756D01*
X108815558Y-138054434D01*
X109097874Y-138228455D01*
X109101321Y-138230044D01*
X109395607Y-138365713D01*
X109395617Y-138365717D01*
X109399051Y-138367300D01*
X109402651Y-138368459D01*
X109402658Y-138368462D01*
X109711119Y-138467795D01*
X109711122Y-138467796D01*
X109714728Y-138468957D01*
X109718444Y-138469676D01*
X109718452Y-138469678D01*
X110036613Y-138531234D01*
X110036622Y-138531235D01*
X110040332Y-138531953D01*
X110044108Y-138532220D01*
X110044113Y-138532221D01*
X110142748Y-138539205D01*
X110302279Y-138550500D01*
X110483386Y-138550500D01*
X110485252Y-138550388D01*
X110485269Y-138550387D01*
X110727262Y-138535798D01*
X110727266Y-138535798D01*
X110731040Y-138535570D01*
X110734762Y-138534890D01*
X110734764Y-138534890D01*
X110808632Y-138521399D01*
X111057285Y-138475987D01*
X111374009Y-138377641D01*
X111676625Y-138241958D01*
X111960748Y-138070902D01*
X111963732Y-138068575D01*
X111963739Y-138068570D01*
X112219268Y-137869287D01*
X112219270Y-137869285D01*
X112222263Y-137866951D01*
X112319708Y-137770015D01*
X163598976Y-137770015D01*
X163617200Y-138101155D01*
X163617861Y-138104882D01*
X163617861Y-138104886D01*
X163640042Y-138230044D01*
X163675073Y-138427708D01*
X163676178Y-138431333D01*
X163676179Y-138431338D01*
X163712389Y-138550146D01*
X163771759Y-138744943D01*
X163905856Y-139048264D01*
X163907797Y-139051526D01*
X164073482Y-139330019D01*
X164073486Y-139330025D01*
X164075422Y-139333279D01*
X164278001Y-139595858D01*
X164280659Y-139598558D01*
X164479425Y-139800471D01*
X164510658Y-139832199D01*
X164706744Y-139988452D01*
X164733194Y-140009529D01*
X164770023Y-140038877D01*
X165052339Y-140212898D01*
X165055786Y-140214487D01*
X165350072Y-140350156D01*
X165350082Y-140350160D01*
X165353516Y-140351743D01*
X165357116Y-140352902D01*
X165357123Y-140352905D01*
X165665584Y-140452238D01*
X165665587Y-140452239D01*
X165669193Y-140453400D01*
X165672909Y-140454119D01*
X165672917Y-140454121D01*
X165991078Y-140515677D01*
X165991087Y-140515678D01*
X165994797Y-140516396D01*
X165998573Y-140516663D01*
X165998578Y-140516664D01*
X166097213Y-140523648D01*
X166256744Y-140534943D01*
X166437851Y-140534943D01*
X166439717Y-140534831D01*
X166439734Y-140534830D01*
X166681727Y-140520241D01*
X166681731Y-140520241D01*
X166685505Y-140520013D01*
X166689227Y-140519333D01*
X166689229Y-140519333D01*
X166763097Y-140505842D01*
X167011750Y-140460430D01*
X167328474Y-140362084D01*
X167631090Y-140226401D01*
X167915213Y-140055345D01*
X167918197Y-140053018D01*
X167918204Y-140053013D01*
X168173733Y-139853730D01*
X168173735Y-139853728D01*
X168176728Y-139851394D01*
X168411847Y-139617503D01*
X168443139Y-139577810D01*
X168552223Y-139439438D01*
X174145066Y-139439438D01*
X174171883Y-139661044D01*
X174237519Y-139874400D01*
X174339901Y-140072759D01*
X174343310Y-140077201D01*
X174343312Y-140077205D01*
X174429975Y-140190146D01*
X174475790Y-140249854D01*
X174640893Y-140400086D01*
X174829990Y-140518707D01*
X175037105Y-140601966D01*
X175042593Y-140603103D01*
X175042598Y-140603104D01*
X175192896Y-140634229D01*
X175255690Y-140647233D01*
X175260303Y-140647499D01*
X175310526Y-140650395D01*
X175310530Y-140650395D01*
X175312349Y-140650500D01*
X175456630Y-140650500D01*
X175459417Y-140650251D01*
X175459423Y-140650251D01*
X175528997Y-140644041D01*
X175622339Y-140635711D01*
X175627753Y-140634230D01*
X175627758Y-140634229D01*
X175755104Y-140599390D01*
X175837651Y-140576808D01*
X175842709Y-140574396D01*
X175842713Y-140574394D01*
X175959462Y-140518707D01*
X176039129Y-140480708D01*
X176220405Y-140350448D01*
X176322194Y-140245410D01*
X176371846Y-140194174D01*
X176371848Y-140194171D01*
X176375749Y-140190146D01*
X176500250Y-140004868D01*
X176589974Y-139800471D01*
X176591282Y-139795023D01*
X176591284Y-139795017D01*
X176640775Y-139588872D01*
X176640775Y-139588871D01*
X176642085Y-139583415D01*
X176650386Y-139439438D01*
X188145066Y-139439438D01*
X188171883Y-139661044D01*
X188237519Y-139874400D01*
X188339901Y-140072759D01*
X188343310Y-140077201D01*
X188343312Y-140077205D01*
X188429975Y-140190146D01*
X188475790Y-140249854D01*
X188640893Y-140400086D01*
X188829990Y-140518707D01*
X189037105Y-140601966D01*
X189042593Y-140603103D01*
X189042598Y-140603104D01*
X189192896Y-140634229D01*
X189255690Y-140647233D01*
X189260303Y-140647499D01*
X189310526Y-140650395D01*
X189310530Y-140650395D01*
X189312349Y-140650500D01*
X189456630Y-140650500D01*
X189459417Y-140650251D01*
X189459423Y-140650251D01*
X189528997Y-140644041D01*
X189622339Y-140635711D01*
X189627753Y-140634230D01*
X189627758Y-140634229D01*
X189755104Y-140599390D01*
X189837651Y-140576808D01*
X189842709Y-140574396D01*
X189842713Y-140574394D01*
X189959462Y-140518707D01*
X190039129Y-140480708D01*
X190220405Y-140350448D01*
X190322194Y-140245410D01*
X190371846Y-140194174D01*
X190371848Y-140194171D01*
X190375749Y-140190146D01*
X190500250Y-140004868D01*
X190589974Y-139800471D01*
X190591282Y-139795023D01*
X190591284Y-139795017D01*
X190640775Y-139588872D01*
X190640775Y-139588871D01*
X190642085Y-139583415D01*
X190654934Y-139360562D01*
X190628117Y-139138956D01*
X190562481Y-138925600D01*
X190471033Y-138748424D01*
X190462672Y-138732226D01*
X190460099Y-138727241D01*
X190456690Y-138722799D01*
X190456688Y-138722795D01*
X190327620Y-138554590D01*
X190324210Y-138550146D01*
X190159107Y-138399914D01*
X189970010Y-138281293D01*
X189762895Y-138198034D01*
X189757407Y-138196897D01*
X189757402Y-138196896D01*
X189573732Y-138158860D01*
X189544310Y-138152767D01*
X189539697Y-138152501D01*
X189489474Y-138149605D01*
X189489470Y-138149605D01*
X189487651Y-138149500D01*
X189343370Y-138149500D01*
X189340583Y-138149749D01*
X189340577Y-138149749D01*
X189271003Y-138155959D01*
X189177661Y-138164289D01*
X189172247Y-138165770D01*
X189172242Y-138165771D01*
X189058470Y-138196896D01*
X188962349Y-138223192D01*
X188957291Y-138225604D01*
X188957287Y-138225606D01*
X188923005Y-138241958D01*
X188760871Y-138319292D01*
X188579595Y-138449552D01*
X188547392Y-138482783D01*
X188496017Y-138535798D01*
X188424251Y-138609854D01*
X188299750Y-138795132D01*
X188210026Y-138999529D01*
X188208718Y-139004977D01*
X188208716Y-139004983D01*
X188159225Y-139211128D01*
X188157915Y-139216585D01*
X188157592Y-139222190D01*
X188150003Y-139353818D01*
X188145066Y-139439438D01*
X176650386Y-139439438D01*
X176654934Y-139360562D01*
X176628117Y-139138956D01*
X176562481Y-138925600D01*
X176471033Y-138748424D01*
X176462672Y-138732226D01*
X176460099Y-138727241D01*
X176456690Y-138722799D01*
X176456688Y-138722795D01*
X176327620Y-138554590D01*
X176324210Y-138550146D01*
X176159107Y-138399914D01*
X175970010Y-138281293D01*
X175762895Y-138198034D01*
X175757407Y-138196897D01*
X175757402Y-138196896D01*
X175573732Y-138158860D01*
X175544310Y-138152767D01*
X175539697Y-138152501D01*
X175489474Y-138149605D01*
X175489470Y-138149605D01*
X175487651Y-138149500D01*
X175343370Y-138149500D01*
X175340583Y-138149749D01*
X175340577Y-138149749D01*
X175271003Y-138155959D01*
X175177661Y-138164289D01*
X175172247Y-138165770D01*
X175172242Y-138165771D01*
X175058470Y-138196896D01*
X174962349Y-138223192D01*
X174957291Y-138225604D01*
X174957287Y-138225606D01*
X174923005Y-138241958D01*
X174760871Y-138319292D01*
X174579595Y-138449552D01*
X174547392Y-138482783D01*
X174496017Y-138535798D01*
X174424251Y-138609854D01*
X174299750Y-138795132D01*
X174210026Y-138999529D01*
X174208718Y-139004977D01*
X174208716Y-139004983D01*
X174159225Y-139211128D01*
X174157915Y-139216585D01*
X174157592Y-139222190D01*
X174150003Y-139353818D01*
X174145066Y-139439438D01*
X168552223Y-139439438D01*
X168614814Y-139360041D01*
X168617164Y-139357060D01*
X168789705Y-139073836D01*
X168914084Y-138800280D01*
X168925402Y-138775388D01*
X168925405Y-138775380D01*
X168926971Y-138771936D01*
X169026974Y-138455731D01*
X169066881Y-138243513D01*
X169087564Y-138133526D01*
X169087565Y-138133521D01*
X169088264Y-138129802D01*
X169109954Y-137798871D01*
X169108366Y-137770015D01*
X195690046Y-137770015D01*
X195708270Y-138101155D01*
X195708931Y-138104882D01*
X195708931Y-138104886D01*
X195731112Y-138230044D01*
X195766143Y-138427708D01*
X195767248Y-138431333D01*
X195767249Y-138431338D01*
X195803459Y-138550146D01*
X195862829Y-138744943D01*
X195996926Y-139048264D01*
X195998867Y-139051526D01*
X196164552Y-139330019D01*
X196164556Y-139330025D01*
X196166492Y-139333279D01*
X196369071Y-139595858D01*
X196371729Y-139598558D01*
X196570495Y-139800471D01*
X196601728Y-139832199D01*
X196797814Y-139988452D01*
X196824264Y-140009529D01*
X196861093Y-140038877D01*
X197143409Y-140212898D01*
X197146856Y-140214487D01*
X197441142Y-140350156D01*
X197441152Y-140350160D01*
X197444586Y-140351743D01*
X197448186Y-140352902D01*
X197448193Y-140352905D01*
X197756654Y-140452238D01*
X197756657Y-140452239D01*
X197760263Y-140453400D01*
X197763979Y-140454119D01*
X197763987Y-140454121D01*
X198082148Y-140515677D01*
X198082157Y-140515678D01*
X198085867Y-140516396D01*
X198089643Y-140516663D01*
X198089648Y-140516664D01*
X198188283Y-140523648D01*
X198347814Y-140534943D01*
X198528921Y-140534943D01*
X198530787Y-140534831D01*
X198530804Y-140534830D01*
X198772797Y-140520241D01*
X198772801Y-140520241D01*
X198776575Y-140520013D01*
X198780297Y-140519333D01*
X198780299Y-140519333D01*
X198854167Y-140505842D01*
X199102820Y-140460430D01*
X199419544Y-140362084D01*
X199722160Y-140226401D01*
X200006283Y-140055345D01*
X200009267Y-140053018D01*
X200009274Y-140053013D01*
X200264803Y-139853730D01*
X200264805Y-139853728D01*
X200267798Y-139851394D01*
X200502917Y-139617503D01*
X200534209Y-139577810D01*
X200705884Y-139360041D01*
X200708234Y-139357060D01*
X200880775Y-139073836D01*
X201005154Y-138800280D01*
X201016472Y-138775388D01*
X201016475Y-138775380D01*
X201018041Y-138771936D01*
X201118044Y-138455731D01*
X201157951Y-138243513D01*
X201178634Y-138133526D01*
X201178635Y-138133521D01*
X201179334Y-138129802D01*
X201201024Y-137798871D01*
X201182800Y-137467731D01*
X201153963Y-137305013D01*
X201125588Y-137144908D01*
X201124927Y-137141178D01*
X201119701Y-137124029D01*
X201029350Y-136827582D01*
X201028241Y-136823943D01*
X200894144Y-136520622D01*
X200805682Y-136371931D01*
X200726518Y-136238867D01*
X200726514Y-136238861D01*
X200724578Y-136235607D01*
X200521999Y-135973028D01*
X200329679Y-135777663D01*
X200292005Y-135739392D01*
X200292004Y-135739391D01*
X200289342Y-135736687D01*
X200265851Y-135717968D01*
X251652436Y-135717968D01*
X251652644Y-135721748D01*
X251652644Y-135721749D01*
X251656365Y-135789353D01*
X251670660Y-136049108D01*
X251671321Y-136052835D01*
X251671321Y-136052839D01*
X251700072Y-136215068D01*
X251728533Y-136375661D01*
X251729638Y-136379286D01*
X251729639Y-136379291D01*
X251772714Y-136520622D01*
X251825219Y-136692896D01*
X251959316Y-136996217D01*
X251961257Y-136999479D01*
X252126942Y-137277972D01*
X252126946Y-137277978D01*
X252128882Y-137281232D01*
X252131198Y-137284234D01*
X252151938Y-137311117D01*
X252331461Y-137543811D01*
X252564118Y-137780152D01*
X252823483Y-137986830D01*
X253105799Y-138160851D01*
X253109246Y-138162440D01*
X253403532Y-138298109D01*
X253403542Y-138298113D01*
X253406976Y-138299696D01*
X253410576Y-138300855D01*
X253410583Y-138300858D01*
X253719044Y-138400191D01*
X253719047Y-138400192D01*
X253722653Y-138401353D01*
X253726369Y-138402072D01*
X253726377Y-138402074D01*
X254044538Y-138463630D01*
X254044547Y-138463631D01*
X254048257Y-138464349D01*
X254052033Y-138464616D01*
X254052038Y-138464617D01*
X254150673Y-138471601D01*
X254310204Y-138482896D01*
X254491311Y-138482896D01*
X254493177Y-138482784D01*
X254493194Y-138482783D01*
X254735187Y-138468194D01*
X254735191Y-138468194D01*
X254738965Y-138467966D01*
X254742687Y-138467286D01*
X254742689Y-138467286D01*
X254857728Y-138446276D01*
X255065210Y-138408383D01*
X255381934Y-138310037D01*
X255684550Y-138174354D01*
X255968673Y-138003298D01*
X255971657Y-138000971D01*
X255971664Y-138000966D01*
X256227193Y-137801683D01*
X256227195Y-137801681D01*
X256230188Y-137799347D01*
X256465307Y-137565456D01*
X256559186Y-137446372D01*
X256668274Y-137307994D01*
X256670624Y-137305013D01*
X256843165Y-137021789D01*
X256931466Y-136827582D01*
X256978862Y-136723341D01*
X256978865Y-136723333D01*
X256980431Y-136719889D01*
X257080434Y-136403684D01*
X257129011Y-136145359D01*
X257141024Y-136081479D01*
X257141025Y-136081474D01*
X257141724Y-136077755D01*
X257163414Y-135746824D01*
X257145190Y-135415684D01*
X257139144Y-135381566D01*
X257087978Y-135092861D01*
X257087317Y-135089131D01*
X257078777Y-135061108D01*
X257015403Y-134853176D01*
X275236586Y-134853176D01*
X275254810Y-135184316D01*
X275312683Y-135510869D01*
X275313788Y-135514494D01*
X275313789Y-135514499D01*
X275362529Y-135674419D01*
X275409369Y-135828104D01*
X275543466Y-136131425D01*
X275556630Y-136153552D01*
X275711092Y-136413180D01*
X275711096Y-136413186D01*
X275713032Y-136416440D01*
X275915611Y-136679019D01*
X276148268Y-136915360D01*
X276249737Y-136996217D01*
X276396486Y-137113155D01*
X276407633Y-137122038D01*
X276689949Y-137296059D01*
X276693396Y-137297648D01*
X276987682Y-137433317D01*
X276987692Y-137433321D01*
X276991126Y-137434904D01*
X276994726Y-137436063D01*
X276994733Y-137436066D01*
X277303194Y-137535399D01*
X277303197Y-137535400D01*
X277306803Y-137536561D01*
X277310519Y-137537280D01*
X277310527Y-137537282D01*
X277628688Y-137598838D01*
X277628697Y-137598839D01*
X277632407Y-137599557D01*
X277636183Y-137599824D01*
X277636188Y-137599825D01*
X277734823Y-137606809D01*
X277894354Y-137618104D01*
X278075461Y-137618104D01*
X278077327Y-137617992D01*
X278077344Y-137617991D01*
X278319337Y-137603402D01*
X278319341Y-137603402D01*
X278323115Y-137603174D01*
X278326837Y-137602494D01*
X278326839Y-137602494D01*
X278400707Y-137589003D01*
X278649360Y-137543591D01*
X278966084Y-137445245D01*
X279268700Y-137309562D01*
X279552823Y-137138506D01*
X279555807Y-137136179D01*
X279555814Y-137136174D01*
X279811343Y-136936891D01*
X279811345Y-136936889D01*
X279814338Y-136934555D01*
X280049457Y-136700664D01*
X280100065Y-136636469D01*
X280252424Y-136443202D01*
X280254774Y-136440221D01*
X280427315Y-136156997D01*
X280503698Y-135989002D01*
X280563012Y-135858549D01*
X280563015Y-135858541D01*
X280564581Y-135855097D01*
X280664584Y-135538892D01*
X280725874Y-135212963D01*
X280747564Y-134882032D01*
X280729340Y-134550892D01*
X280727349Y-134539654D01*
X280672128Y-134228069D01*
X280671467Y-134224339D01*
X280662927Y-134196316D01*
X280575890Y-133910743D01*
X280574781Y-133907104D01*
X280440684Y-133603783D01*
X280334568Y-133425418D01*
X280273058Y-133322028D01*
X280273054Y-133322022D01*
X280271118Y-133318768D01*
X280249262Y-133290438D01*
X280097925Y-133094278D01*
X323204349Y-133094278D01*
X323222573Y-133425418D01*
X323223234Y-133429145D01*
X323223234Y-133429149D01*
X323265587Y-133668126D01*
X323280446Y-133751971D01*
X323281551Y-133755596D01*
X323281552Y-133755601D01*
X323326666Y-133903623D01*
X323377132Y-134069206D01*
X323511229Y-134372527D01*
X323542892Y-134425748D01*
X323678855Y-134654282D01*
X323678859Y-134654288D01*
X323680795Y-134657542D01*
X323883374Y-134920121D01*
X323886032Y-134922821D01*
X324088714Y-135128712D01*
X324116031Y-135156462D01*
X324190723Y-135215981D01*
X324349476Y-135342485D01*
X324375396Y-135363140D01*
X324657712Y-135537161D01*
X324661159Y-135538750D01*
X324955445Y-135674419D01*
X324955455Y-135674423D01*
X324958889Y-135676006D01*
X324962489Y-135677165D01*
X324962496Y-135677168D01*
X325270957Y-135776501D01*
X325270960Y-135776502D01*
X325274566Y-135777663D01*
X325278282Y-135778382D01*
X325278290Y-135778384D01*
X325596451Y-135839940D01*
X325596460Y-135839941D01*
X325600170Y-135840659D01*
X325603946Y-135840926D01*
X325603951Y-135840927D01*
X325702586Y-135847911D01*
X325862117Y-135859206D01*
X326043224Y-135859206D01*
X326045090Y-135859094D01*
X326045107Y-135859093D01*
X326287100Y-135844504D01*
X326287104Y-135844504D01*
X326290878Y-135844276D01*
X326294600Y-135843596D01*
X326294602Y-135843596D01*
X326379427Y-135828104D01*
X326617123Y-135784693D01*
X326933847Y-135686347D01*
X327236463Y-135550664D01*
X327520586Y-135379608D01*
X327523570Y-135377281D01*
X327523577Y-135377276D01*
X327779106Y-135177993D01*
X327779108Y-135177991D01*
X327782101Y-135175657D01*
X328017220Y-134941766D01*
X328061328Y-134885816D01*
X328220187Y-134684304D01*
X328222537Y-134681323D01*
X328395078Y-134398099D01*
X328460403Y-134254424D01*
X328530775Y-134099651D01*
X328530778Y-134099643D01*
X328532344Y-134096199D01*
X328632347Y-133779994D01*
X328670292Y-133578211D01*
X328692937Y-133457789D01*
X328692938Y-133457784D01*
X328693637Y-133454065D01*
X328715327Y-133123134D01*
X328697103Y-132791994D01*
X328685153Y-132724562D01*
X328639891Y-132469171D01*
X328639230Y-132465441D01*
X328630690Y-132437418D01*
X328555775Y-132191617D01*
X328542544Y-132148206D01*
X328408447Y-131844885D01*
X328342842Y-131734613D01*
X328240821Y-131563130D01*
X328240817Y-131563124D01*
X328238881Y-131559870D01*
X328036302Y-131297291D01*
X327803645Y-131060950D01*
X327544280Y-130854272D01*
X327261964Y-130680251D01*
X327224012Y-130662755D01*
X326964231Y-130542993D01*
X326964221Y-130542989D01*
X326960787Y-130541406D01*
X326957187Y-130540247D01*
X326957180Y-130540244D01*
X326648719Y-130440911D01*
X326648716Y-130440910D01*
X326645110Y-130439749D01*
X326641394Y-130439030D01*
X326641386Y-130439028D01*
X326323225Y-130377472D01*
X326323216Y-130377471D01*
X326319506Y-130376753D01*
X326315730Y-130376486D01*
X326315725Y-130376485D01*
X326217090Y-130369501D01*
X326057559Y-130358206D01*
X325876452Y-130358206D01*
X325874586Y-130358318D01*
X325874569Y-130358319D01*
X325632576Y-130372908D01*
X325632572Y-130372908D01*
X325628798Y-130373136D01*
X325625076Y-130373816D01*
X325625074Y-130373816D01*
X325608993Y-130376753D01*
X325302553Y-130432719D01*
X324985829Y-130531065D01*
X324683213Y-130666748D01*
X324399090Y-130837804D01*
X324396106Y-130840131D01*
X324396099Y-130840136D01*
X324140570Y-131039419D01*
X324137575Y-131041755D01*
X323902456Y-131275646D01*
X323697139Y-131536089D01*
X323524598Y-131819313D01*
X323512971Y-131844885D01*
X323388901Y-132117761D01*
X323388898Y-132117769D01*
X323387332Y-132121213D01*
X323287329Y-132437418D01*
X323226039Y-132763347D01*
X323204349Y-133094278D01*
X280097925Y-133094278D01*
X280077481Y-133067779D01*
X280068539Y-133056189D01*
X279883170Y-132867885D01*
X279838545Y-132822553D01*
X279838544Y-132822552D01*
X279835882Y-132819848D01*
X279576517Y-132613170D01*
X279294201Y-132439149D01*
X279230170Y-132409630D01*
X278996468Y-132301891D01*
X278996458Y-132301887D01*
X278993024Y-132300304D01*
X278989424Y-132299145D01*
X278989417Y-132299142D01*
X278680956Y-132199809D01*
X278680953Y-132199808D01*
X278677347Y-132198647D01*
X278673631Y-132197928D01*
X278673623Y-132197926D01*
X278355462Y-132136370D01*
X278355453Y-132136369D01*
X278351743Y-132135651D01*
X278347967Y-132135384D01*
X278347962Y-132135383D01*
X278249327Y-132128399D01*
X278089796Y-132117104D01*
X277908689Y-132117104D01*
X277906823Y-132117216D01*
X277906806Y-132117217D01*
X277664813Y-132131806D01*
X277664809Y-132131806D01*
X277661035Y-132132034D01*
X277657313Y-132132714D01*
X277657311Y-132132714D01*
X277641230Y-132135651D01*
X277334790Y-132191617D01*
X277018066Y-132289963D01*
X276715450Y-132425646D01*
X276431327Y-132596702D01*
X276428343Y-132599029D01*
X276428336Y-132599034D01*
X276185699Y-132788263D01*
X276169812Y-132800653D01*
X275934693Y-133034544D01*
X275932351Y-133037514D01*
X275932349Y-133037517D01*
X275839926Y-133154755D01*
X275729376Y-133294987D01*
X275556835Y-133578211D01*
X275545208Y-133603783D01*
X275421138Y-133876659D01*
X275421135Y-133876667D01*
X275419569Y-133880111D01*
X275319566Y-134196316D01*
X275314285Y-134224402D01*
X275259817Y-134514052D01*
X275258276Y-134522245D01*
X275236586Y-134853176D01*
X257015403Y-134853176D01*
X256991740Y-134775535D01*
X256990631Y-134771896D01*
X256856534Y-134468575D01*
X256713040Y-134227383D01*
X256688908Y-134186820D01*
X256688904Y-134186814D01*
X256686968Y-134183560D01*
X256484389Y-133920981D01*
X256318282Y-133752244D01*
X256254395Y-133687345D01*
X256254394Y-133687344D01*
X256251732Y-133684640D01*
X255992367Y-133477962D01*
X255710051Y-133303941D01*
X255672099Y-133286445D01*
X255412318Y-133166683D01*
X255412308Y-133166679D01*
X255408874Y-133165096D01*
X255405274Y-133163937D01*
X255405267Y-133163934D01*
X255096806Y-133064601D01*
X255096803Y-133064600D01*
X255093197Y-133063439D01*
X255089481Y-133062720D01*
X255089473Y-133062718D01*
X254771312Y-133001162D01*
X254771303Y-133001161D01*
X254767593Y-133000443D01*
X254763817Y-133000176D01*
X254763812Y-133000175D01*
X254665177Y-132993191D01*
X254505646Y-132981896D01*
X254324539Y-132981896D01*
X254322673Y-132982008D01*
X254322656Y-132982009D01*
X254080663Y-132996598D01*
X254080659Y-132996598D01*
X254076885Y-132996826D01*
X254073163Y-132997506D01*
X254073161Y-132997506D01*
X254057080Y-133000443D01*
X253750640Y-133056409D01*
X253433916Y-133154755D01*
X253131300Y-133290438D01*
X252847177Y-133461494D01*
X252844193Y-133463821D01*
X252844186Y-133463826D01*
X252603534Y-133651507D01*
X252585662Y-133665445D01*
X252350543Y-133899336D01*
X252348201Y-133902306D01*
X252348199Y-133902309D01*
X252192627Y-134099651D01*
X252145226Y-134159779D01*
X251972685Y-134443003D01*
X251930320Y-134536179D01*
X251836988Y-134741451D01*
X251836985Y-134741459D01*
X251835419Y-134744903D01*
X251735416Y-135061108D01*
X251708246Y-135205594D01*
X251675962Y-135377276D01*
X251674126Y-135387037D01*
X251652436Y-135717968D01*
X200265851Y-135717968D01*
X200057849Y-135552219D01*
X200032945Y-135532374D01*
X200032944Y-135532373D01*
X200029977Y-135530009D01*
X199747661Y-135355988D01*
X199605755Y-135290568D01*
X199449928Y-135218730D01*
X199449918Y-135218726D01*
X199446484Y-135217143D01*
X199442884Y-135215984D01*
X199442877Y-135215981D01*
X199134416Y-135116648D01*
X199134413Y-135116647D01*
X199130807Y-135115486D01*
X199127091Y-135114767D01*
X199127083Y-135114765D01*
X198808922Y-135053209D01*
X198808913Y-135053208D01*
X198805203Y-135052490D01*
X198801427Y-135052223D01*
X198801422Y-135052222D01*
X198702787Y-135045238D01*
X198543256Y-135033943D01*
X198362149Y-135033943D01*
X198360283Y-135034055D01*
X198360266Y-135034056D01*
X198118273Y-135048645D01*
X198118269Y-135048645D01*
X198114495Y-135048873D01*
X198110773Y-135049553D01*
X198110771Y-135049553D01*
X198047503Y-135061108D01*
X197788250Y-135108456D01*
X197471526Y-135206802D01*
X197168910Y-135342485D01*
X196884787Y-135513541D01*
X196881803Y-135515868D01*
X196881796Y-135515873D01*
X196626267Y-135715156D01*
X196623272Y-135717492D01*
X196388153Y-135951383D01*
X196385811Y-135954353D01*
X196385809Y-135954356D01*
X196226060Y-136156997D01*
X196182836Y-136211826D01*
X196010295Y-136495050D01*
X195955514Y-136615534D01*
X195874598Y-136793498D01*
X195874595Y-136793506D01*
X195873029Y-136796950D01*
X195773026Y-137113155D01*
X195767055Y-137144908D01*
X195724845Y-137369375D01*
X195711736Y-137439084D01*
X195690046Y-137770015D01*
X169108366Y-137770015D01*
X169091730Y-137467731D01*
X169062893Y-137305013D01*
X169034518Y-137144908D01*
X169033857Y-137141178D01*
X169028631Y-137124029D01*
X168938280Y-136827582D01*
X168937171Y-136823943D01*
X168803074Y-136520622D01*
X168714612Y-136371931D01*
X168635448Y-136238867D01*
X168635444Y-136238861D01*
X168633508Y-136235607D01*
X168430929Y-135973028D01*
X168238609Y-135777663D01*
X168200935Y-135739392D01*
X168200934Y-135739391D01*
X168198272Y-135736687D01*
X167966779Y-135552219D01*
X167941875Y-135532374D01*
X167941874Y-135532373D01*
X167938907Y-135530009D01*
X167656591Y-135355988D01*
X167514685Y-135290568D01*
X167358858Y-135218730D01*
X167358848Y-135218726D01*
X167355414Y-135217143D01*
X167351814Y-135215984D01*
X167351807Y-135215981D01*
X167043346Y-135116648D01*
X167043343Y-135116647D01*
X167039737Y-135115486D01*
X167036021Y-135114767D01*
X167036013Y-135114765D01*
X166717852Y-135053209D01*
X166717843Y-135053208D01*
X166714133Y-135052490D01*
X166710357Y-135052223D01*
X166710352Y-135052222D01*
X166611717Y-135045238D01*
X166452186Y-135033943D01*
X166271079Y-135033943D01*
X166269213Y-135034055D01*
X166269196Y-135034056D01*
X166027203Y-135048645D01*
X166027199Y-135048645D01*
X166023425Y-135048873D01*
X166019703Y-135049553D01*
X166019701Y-135049553D01*
X165956433Y-135061108D01*
X165697180Y-135108456D01*
X165380456Y-135206802D01*
X165077840Y-135342485D01*
X164793717Y-135513541D01*
X164790733Y-135515868D01*
X164790726Y-135515873D01*
X164535197Y-135715156D01*
X164532202Y-135717492D01*
X164297083Y-135951383D01*
X164294741Y-135954353D01*
X164294739Y-135954356D01*
X164134990Y-136156997D01*
X164091766Y-136211826D01*
X163919225Y-136495050D01*
X163864444Y-136615534D01*
X163783528Y-136793498D01*
X163783525Y-136793506D01*
X163781959Y-136796950D01*
X163681956Y-137113155D01*
X163675985Y-137144908D01*
X163633775Y-137369375D01*
X163620666Y-137439084D01*
X163598976Y-137770015D01*
X112319708Y-137770015D01*
X112457382Y-137633060D01*
X112469173Y-137618104D01*
X112660349Y-137375598D01*
X112662699Y-137372617D01*
X112835240Y-137089393D01*
X112954279Y-136827582D01*
X112970937Y-136790945D01*
X112970940Y-136790937D01*
X112972506Y-136787493D01*
X113072509Y-136471288D01*
X113117393Y-136232605D01*
X113133099Y-136149083D01*
X113133100Y-136149078D01*
X113133799Y-136145359D01*
X113155489Y-135814428D01*
X113151769Y-135746824D01*
X113147784Y-135674419D01*
X113137265Y-135483288D01*
X113125955Y-135419467D01*
X113080053Y-135160465D01*
X113079392Y-135156735D01*
X113070852Y-135128712D01*
X112983815Y-134843139D01*
X112982706Y-134839500D01*
X112848609Y-134536179D01*
X112753187Y-134375789D01*
X112680983Y-134254424D01*
X112680979Y-134254418D01*
X112679043Y-134251164D01*
X112476464Y-133988585D01*
X112274690Y-133783616D01*
X112246470Y-133754949D01*
X112246469Y-133754948D01*
X112243807Y-133752244D01*
X111984442Y-133545566D01*
X111702126Y-133371545D01*
X111594716Y-133322028D01*
X111404393Y-133234287D01*
X111404383Y-133234283D01*
X111400949Y-133232700D01*
X111397349Y-133231541D01*
X111397342Y-133231538D01*
X111088881Y-133132205D01*
X111088878Y-133132204D01*
X111085272Y-133131043D01*
X111081556Y-133130324D01*
X111081548Y-133130322D01*
X110763387Y-133068766D01*
X110763378Y-133068765D01*
X110759668Y-133068047D01*
X110755892Y-133067780D01*
X110755887Y-133067779D01*
X110657252Y-133060795D01*
X110497721Y-133049500D01*
X110316614Y-133049500D01*
X110314748Y-133049612D01*
X110314731Y-133049613D01*
X110072738Y-133064202D01*
X110072734Y-133064202D01*
X110068960Y-133064430D01*
X110065238Y-133065110D01*
X110065236Y-133065110D01*
X110049155Y-133068047D01*
X109742715Y-133124013D01*
X109425991Y-133222359D01*
X109123375Y-133358042D01*
X108839252Y-133529098D01*
X108836268Y-133531425D01*
X108836261Y-133531430D01*
X108620057Y-133700044D01*
X108577737Y-133733049D01*
X108342618Y-133966940D01*
X108340276Y-133969910D01*
X108340274Y-133969913D01*
X108255928Y-134076905D01*
X108137301Y-134227383D01*
X107964760Y-134510607D01*
X107909979Y-134631091D01*
X107829063Y-134809055D01*
X107829060Y-134809063D01*
X107827494Y-134812507D01*
X107727491Y-135128712D01*
X107712514Y-135208356D01*
X107679943Y-135381566D01*
X107666201Y-135454641D01*
X107644511Y-135785572D01*
X89402419Y-135785572D01*
X89480434Y-135538892D01*
X89541724Y-135212963D01*
X89563414Y-134882032D01*
X89545190Y-134550892D01*
X89543199Y-134539654D01*
X89487978Y-134228069D01*
X89487317Y-134224339D01*
X89478777Y-134196316D01*
X89391740Y-133910743D01*
X89390631Y-133907104D01*
X89256534Y-133603783D01*
X89150418Y-133425418D01*
X89088908Y-133322028D01*
X89088904Y-133322022D01*
X89086968Y-133318768D01*
X89065112Y-133290438D01*
X88893331Y-133067779D01*
X88884389Y-133056189D01*
X88699020Y-132867885D01*
X88654395Y-132822553D01*
X88654394Y-132822552D01*
X88651732Y-132819848D01*
X88392367Y-132613170D01*
X88110051Y-132439149D01*
X88046020Y-132409630D01*
X87812318Y-132301891D01*
X87812308Y-132301887D01*
X87808874Y-132300304D01*
X87805274Y-132299145D01*
X87805267Y-132299142D01*
X87496806Y-132199809D01*
X87496803Y-132199808D01*
X87493197Y-132198647D01*
X87489481Y-132197928D01*
X87489473Y-132197926D01*
X87171312Y-132136370D01*
X87171303Y-132136369D01*
X87167593Y-132135651D01*
X87163817Y-132135384D01*
X87163812Y-132135383D01*
X87065177Y-132128399D01*
X86905646Y-132117104D01*
X86724539Y-132117104D01*
X86722673Y-132117216D01*
X86722656Y-132117217D01*
X86480663Y-132131806D01*
X86480659Y-132131806D01*
X86476885Y-132132034D01*
X86473163Y-132132714D01*
X86473161Y-132132714D01*
X86457080Y-132135651D01*
X86150640Y-132191617D01*
X85833916Y-132289963D01*
X85531300Y-132425646D01*
X85247177Y-132596702D01*
X85244193Y-132599029D01*
X85244186Y-132599034D01*
X85001549Y-132788263D01*
X84985662Y-132800653D01*
X84750543Y-133034544D01*
X84748201Y-133037514D01*
X84748199Y-133037517D01*
X84655776Y-133154755D01*
X84545226Y-133294987D01*
X84372685Y-133578211D01*
X84361058Y-133603783D01*
X84236988Y-133876659D01*
X84236985Y-133876667D01*
X84235419Y-133880111D01*
X84135416Y-134196316D01*
X84130135Y-134224402D01*
X84075667Y-134514052D01*
X84074126Y-134522245D01*
X84052436Y-134853176D01*
X40967383Y-134853176D01*
X41100511Y-134684304D01*
X41102861Y-134681323D01*
X41275402Y-134398099D01*
X41340727Y-134254424D01*
X41411099Y-134099651D01*
X41411102Y-134099643D01*
X41412668Y-134096199D01*
X41512671Y-133779994D01*
X41550616Y-133578211D01*
X41573261Y-133457789D01*
X41573262Y-133457784D01*
X41573961Y-133454065D01*
X41595651Y-133123134D01*
X41577427Y-132791994D01*
X41565477Y-132724562D01*
X41520215Y-132469171D01*
X41519554Y-132465441D01*
X41511014Y-132437418D01*
X41436099Y-132191617D01*
X41422868Y-132148206D01*
X41288771Y-131844885D01*
X41223166Y-131734613D01*
X41121145Y-131563130D01*
X41121141Y-131563124D01*
X41119205Y-131559870D01*
X40916626Y-131297291D01*
X40683969Y-131060950D01*
X40424604Y-130854272D01*
X40142288Y-130680251D01*
X40104336Y-130662755D01*
X39844555Y-130542993D01*
X39844545Y-130542989D01*
X39841111Y-130541406D01*
X39837511Y-130540247D01*
X39837504Y-130540244D01*
X39529043Y-130440911D01*
X39529040Y-130440910D01*
X39525434Y-130439749D01*
X39521718Y-130439030D01*
X39521710Y-130439028D01*
X39203549Y-130377472D01*
X39203540Y-130377471D01*
X39199830Y-130376753D01*
X39196054Y-130376486D01*
X39196049Y-130376485D01*
X39097414Y-130369501D01*
X38937883Y-130358206D01*
X38756776Y-130358206D01*
X38754910Y-130358318D01*
X38754893Y-130358319D01*
X38512900Y-130372908D01*
X38512896Y-130372908D01*
X38509122Y-130373136D01*
X38505400Y-130373816D01*
X38505398Y-130373816D01*
X38489317Y-130376753D01*
X38182877Y-130432719D01*
X37866153Y-130531065D01*
X37563537Y-130666748D01*
X37279414Y-130837804D01*
X37276430Y-130840131D01*
X37276423Y-130840136D01*
X37020894Y-131039419D01*
X37017899Y-131041755D01*
X36782780Y-131275646D01*
X36577463Y-131536089D01*
X36404922Y-131819313D01*
X36393295Y-131844885D01*
X36269225Y-132117761D01*
X36269222Y-132117769D01*
X36267656Y-132121213D01*
X36167653Y-132437418D01*
X36106363Y-132763347D01*
X36084673Y-133094278D01*
X24718115Y-133094278D01*
X24627020Y-132997506D01*
X24505003Y-132867885D01*
X24499956Y-132862188D01*
X24166283Y-132461811D01*
X24127784Y-132415615D01*
X24123095Y-132409630D01*
X24043820Y-132301891D01*
X23778575Y-131941413D01*
X23774252Y-131935150D01*
X23458628Y-131446984D01*
X23454690Y-131440470D01*
X23299787Y-131165819D01*
X23169117Y-130934136D01*
X23165580Y-130927397D01*
X22911100Y-130404745D01*
X22907976Y-130397804D01*
X22685517Y-129860741D01*
X22682818Y-129853624D01*
X22493189Y-129304097D01*
X22490925Y-129296831D01*
X22334828Y-128736884D01*
X22333006Y-128729494D01*
X22210998Y-128161121D01*
X22209626Y-128153635D01*
X22122157Y-127578928D01*
X22121240Y-127571372D01*
X22090530Y-127233435D01*
X22068632Y-126992452D01*
X22068172Y-126984861D01*
X22051580Y-126435748D01*
X22052987Y-126418853D01*
X22052987Y-126412170D01*
X22055408Y-126400000D01*
X22052921Y-126387496D01*
X22050500Y-126362915D01*
X22050500Y-125439438D01*
X174145066Y-125439438D01*
X174171883Y-125661044D01*
X174237519Y-125874400D01*
X174339901Y-126072759D01*
X174343310Y-126077201D01*
X174343312Y-126077205D01*
X174429975Y-126190146D01*
X174475790Y-126249854D01*
X174640893Y-126400086D01*
X174829990Y-126518707D01*
X175037105Y-126601966D01*
X175042593Y-126603103D01*
X175042598Y-126603104D01*
X175192896Y-126634229D01*
X175255690Y-126647233D01*
X175260303Y-126647499D01*
X175310526Y-126650395D01*
X175310530Y-126650395D01*
X175312349Y-126650500D01*
X175456630Y-126650500D01*
X175459417Y-126650251D01*
X175459423Y-126650251D01*
X175528997Y-126644041D01*
X175622339Y-126635711D01*
X175627753Y-126634230D01*
X175627758Y-126634229D01*
X175755104Y-126599390D01*
X175837651Y-126576808D01*
X175842709Y-126574396D01*
X175842713Y-126574394D01*
X175959462Y-126518707D01*
X176039129Y-126480708D01*
X176220405Y-126350448D01*
X176375749Y-126190146D01*
X176500250Y-126004868D01*
X176589974Y-125800471D01*
X176591282Y-125795023D01*
X176591284Y-125795017D01*
X176640775Y-125588872D01*
X176640775Y-125588871D01*
X176642085Y-125583415D01*
X176650386Y-125439438D01*
X188145066Y-125439438D01*
X188171883Y-125661044D01*
X188237519Y-125874400D01*
X188339901Y-126072759D01*
X188343310Y-126077201D01*
X188343312Y-126077205D01*
X188429975Y-126190146D01*
X188475790Y-126249854D01*
X188640893Y-126400086D01*
X188829990Y-126518707D01*
X189037105Y-126601966D01*
X189042593Y-126603103D01*
X189042598Y-126603104D01*
X189192896Y-126634229D01*
X189255690Y-126647233D01*
X189260303Y-126647499D01*
X189310526Y-126650395D01*
X189310530Y-126650395D01*
X189312349Y-126650500D01*
X189456630Y-126650500D01*
X189459417Y-126650251D01*
X189459423Y-126650251D01*
X189528997Y-126644041D01*
X189622339Y-126635711D01*
X189627753Y-126634230D01*
X189627758Y-126634229D01*
X189755104Y-126599390D01*
X189837651Y-126576808D01*
X189842709Y-126574396D01*
X189842713Y-126574394D01*
X189959462Y-126518707D01*
X190039129Y-126480708D01*
X190220405Y-126350448D01*
X190375749Y-126190146D01*
X190500250Y-126004868D01*
X190589974Y-125800471D01*
X190591282Y-125795023D01*
X190591284Y-125795017D01*
X190640775Y-125588872D01*
X190640775Y-125588871D01*
X190642085Y-125583415D01*
X190654934Y-125360562D01*
X190628117Y-125138956D01*
X190562481Y-124925600D01*
X190460099Y-124727241D01*
X190456690Y-124722799D01*
X190456688Y-124722795D01*
X190327620Y-124554590D01*
X190324210Y-124550146D01*
X190159107Y-124399914D01*
X189970010Y-124281293D01*
X189762895Y-124198034D01*
X189757407Y-124196897D01*
X189757402Y-124196896D01*
X189592845Y-124162818D01*
X189544310Y-124152767D01*
X189539697Y-124152501D01*
X189489474Y-124149605D01*
X189489470Y-124149605D01*
X189487651Y-124149500D01*
X189343370Y-124149500D01*
X189340583Y-124149749D01*
X189340577Y-124149749D01*
X189271003Y-124155959D01*
X189177661Y-124164289D01*
X189172247Y-124165770D01*
X189172242Y-124165771D01*
X189058470Y-124196896D01*
X188962349Y-124223192D01*
X188957291Y-124225604D01*
X188957287Y-124225606D01*
X188861610Y-124271242D01*
X188760871Y-124319292D01*
X188579595Y-124449552D01*
X188424251Y-124609854D01*
X188299750Y-124795132D01*
X188210026Y-124999529D01*
X188208718Y-125004977D01*
X188208716Y-125004983D01*
X188159225Y-125211128D01*
X188157915Y-125216585D01*
X188145066Y-125439438D01*
X176650386Y-125439438D01*
X176654934Y-125360562D01*
X176628117Y-125138956D01*
X176562481Y-124925600D01*
X176460099Y-124727241D01*
X176456690Y-124722799D01*
X176456688Y-124722795D01*
X176327620Y-124554590D01*
X176324210Y-124550146D01*
X176159107Y-124399914D01*
X175970010Y-124281293D01*
X175762895Y-124198034D01*
X175757407Y-124196897D01*
X175757402Y-124196896D01*
X175592845Y-124162818D01*
X175544310Y-124152767D01*
X175539697Y-124152501D01*
X175489474Y-124149605D01*
X175489470Y-124149605D01*
X175487651Y-124149500D01*
X175343370Y-124149500D01*
X175340583Y-124149749D01*
X175340577Y-124149749D01*
X175271003Y-124155959D01*
X175177661Y-124164289D01*
X175172247Y-124165770D01*
X175172242Y-124165771D01*
X175058470Y-124196896D01*
X174962349Y-124223192D01*
X174957291Y-124225604D01*
X174957287Y-124225606D01*
X174861610Y-124271242D01*
X174760871Y-124319292D01*
X174579595Y-124449552D01*
X174424251Y-124609854D01*
X174299750Y-124795132D01*
X174210026Y-124999529D01*
X174208718Y-125004977D01*
X174208716Y-125004983D01*
X174159225Y-125211128D01*
X174157915Y-125216585D01*
X174145066Y-125439438D01*
X22050500Y-125439438D01*
X22050500Y-119385572D01*
X22644511Y-119385572D01*
X22662735Y-119716712D01*
X22720608Y-120043265D01*
X22721713Y-120046890D01*
X22721714Y-120046895D01*
X22797475Y-120295471D01*
X22817294Y-120360500D01*
X22951391Y-120663821D01*
X22953332Y-120667083D01*
X23119017Y-120945576D01*
X23119021Y-120945582D01*
X23120957Y-120948836D01*
X23323536Y-121211415D01*
X23556193Y-121447756D01*
X23815558Y-121654434D01*
X24097874Y-121828455D01*
X24101321Y-121830044D01*
X24395607Y-121965713D01*
X24395617Y-121965717D01*
X24399051Y-121967300D01*
X24402651Y-121968459D01*
X24402658Y-121968462D01*
X24711119Y-122067795D01*
X24711122Y-122067796D01*
X24714728Y-122068957D01*
X24718444Y-122069676D01*
X24718452Y-122069678D01*
X25036613Y-122131234D01*
X25036622Y-122131235D01*
X25040332Y-122131953D01*
X25044108Y-122132220D01*
X25044113Y-122132221D01*
X25142748Y-122139205D01*
X25302279Y-122150500D01*
X25483386Y-122150500D01*
X25485252Y-122150388D01*
X25485269Y-122150387D01*
X25727262Y-122135798D01*
X25727266Y-122135798D01*
X25731040Y-122135570D01*
X25734762Y-122134890D01*
X25734764Y-122134890D01*
X25808632Y-122121399D01*
X26057285Y-122075987D01*
X26374009Y-121977641D01*
X26676625Y-121841958D01*
X26960748Y-121670902D01*
X26963732Y-121668575D01*
X26963739Y-121668570D01*
X27219268Y-121469287D01*
X27219270Y-121469285D01*
X27222263Y-121466951D01*
X27457382Y-121233060D01*
X27662699Y-120972617D01*
X27835240Y-120689393D01*
X27890021Y-120568909D01*
X27970937Y-120390945D01*
X27970940Y-120390937D01*
X27972506Y-120387493D01*
X28072509Y-120071288D01*
X28133799Y-119745359D01*
X28155489Y-119414428D01*
X28153901Y-119385572D01*
X336644511Y-119385572D01*
X336662735Y-119716712D01*
X336720608Y-120043265D01*
X336721713Y-120046890D01*
X336721714Y-120046895D01*
X336797475Y-120295471D01*
X336817294Y-120360500D01*
X336951391Y-120663821D01*
X336953332Y-120667083D01*
X337119017Y-120945576D01*
X337119021Y-120945582D01*
X337120957Y-120948836D01*
X337323536Y-121211415D01*
X337556193Y-121447756D01*
X337815558Y-121654434D01*
X338097874Y-121828455D01*
X338101321Y-121830044D01*
X338395607Y-121965713D01*
X338395617Y-121965717D01*
X338399051Y-121967300D01*
X338402651Y-121968459D01*
X338402658Y-121968462D01*
X338711119Y-122067795D01*
X338711122Y-122067796D01*
X338714728Y-122068957D01*
X338718444Y-122069676D01*
X338718452Y-122069678D01*
X339036613Y-122131234D01*
X339036622Y-122131235D01*
X339040332Y-122131953D01*
X339044108Y-122132220D01*
X339044113Y-122132221D01*
X339142748Y-122139205D01*
X339302279Y-122150500D01*
X339483386Y-122150500D01*
X339485252Y-122150388D01*
X339485269Y-122150387D01*
X339727262Y-122135798D01*
X339727266Y-122135798D01*
X339731040Y-122135570D01*
X339734762Y-122134890D01*
X339734764Y-122134890D01*
X339808632Y-122121399D01*
X340057285Y-122075987D01*
X340374009Y-121977641D01*
X340676625Y-121841958D01*
X340960748Y-121670902D01*
X340963732Y-121668575D01*
X340963739Y-121668570D01*
X341219268Y-121469287D01*
X341219270Y-121469285D01*
X341222263Y-121466951D01*
X341457382Y-121233060D01*
X341662699Y-120972617D01*
X341835240Y-120689393D01*
X341890021Y-120568909D01*
X341970937Y-120390945D01*
X341970940Y-120390937D01*
X341972506Y-120387493D01*
X342072509Y-120071288D01*
X342133799Y-119745359D01*
X342155489Y-119414428D01*
X342137265Y-119083288D01*
X342079392Y-118756735D01*
X342073015Y-118735809D01*
X341983815Y-118443139D01*
X341982706Y-118439500D01*
X341848609Y-118136179D01*
X341696715Y-117880868D01*
X341680983Y-117854424D01*
X341680979Y-117854418D01*
X341679043Y-117851164D01*
X341476464Y-117588585D01*
X341243807Y-117352244D01*
X340984442Y-117145566D01*
X340702126Y-116971545D01*
X340539819Y-116896720D01*
X340404393Y-116834287D01*
X340404383Y-116834283D01*
X340400949Y-116832700D01*
X340397349Y-116831541D01*
X340397342Y-116831538D01*
X340088881Y-116732205D01*
X340088878Y-116732204D01*
X340085272Y-116731043D01*
X340081556Y-116730324D01*
X340081548Y-116730322D01*
X339763387Y-116668766D01*
X339763378Y-116668765D01*
X339759668Y-116668047D01*
X339755892Y-116667780D01*
X339755887Y-116667779D01*
X339657252Y-116660795D01*
X339497721Y-116649500D01*
X339316614Y-116649500D01*
X339314748Y-116649612D01*
X339314731Y-116649613D01*
X339072738Y-116664202D01*
X339072734Y-116664202D01*
X339068960Y-116664430D01*
X339065238Y-116665110D01*
X339065236Y-116665110D01*
X339049155Y-116668047D01*
X338742715Y-116724013D01*
X338425991Y-116822359D01*
X338123375Y-116958042D01*
X337839252Y-117129098D01*
X337836268Y-117131425D01*
X337836261Y-117131430D01*
X337604477Y-117312195D01*
X337577737Y-117333049D01*
X337342618Y-117566940D01*
X337340276Y-117569910D01*
X337340274Y-117569913D01*
X337166871Y-117789874D01*
X337137301Y-117827383D01*
X336964760Y-118110607D01*
X336946050Y-118151758D01*
X336829063Y-118409055D01*
X336829060Y-118409063D01*
X336827494Y-118412507D01*
X336727491Y-118728712D01*
X336721520Y-118760465D01*
X336670486Y-119031856D01*
X336666201Y-119054641D01*
X336644511Y-119385572D01*
X28153901Y-119385572D01*
X28137265Y-119083288D01*
X28079392Y-118756735D01*
X28073015Y-118735809D01*
X27983815Y-118443139D01*
X27982706Y-118439500D01*
X27848609Y-118136179D01*
X27696715Y-117880868D01*
X27680983Y-117854424D01*
X27680979Y-117854418D01*
X27679043Y-117851164D01*
X27476464Y-117588585D01*
X27243807Y-117352244D01*
X26984442Y-117145566D01*
X26702126Y-116971545D01*
X26539819Y-116896720D01*
X26404393Y-116834287D01*
X26404383Y-116834283D01*
X26400949Y-116832700D01*
X26397349Y-116831541D01*
X26397342Y-116831538D01*
X26088881Y-116732205D01*
X26088878Y-116732204D01*
X26085272Y-116731043D01*
X26081556Y-116730324D01*
X26081548Y-116730322D01*
X25921056Y-116699271D01*
X38996668Y-116699271D01*
X38996755Y-116703273D01*
X38996755Y-116703280D01*
X39002280Y-116956487D01*
X39003349Y-117005465D01*
X39048883Y-117308330D01*
X39049979Y-117312190D01*
X39049980Y-117312195D01*
X39061351Y-117352244D01*
X39132531Y-117602953D01*
X39252937Y-117884560D01*
X39408149Y-118148585D01*
X39595651Y-118390747D01*
X39812404Y-118607122D01*
X39815585Y-118609576D01*
X39815586Y-118609577D01*
X40051701Y-118791739D01*
X40051705Y-118791742D01*
X40054894Y-118794202D01*
X40058373Y-118796239D01*
X40235179Y-118899763D01*
X40319189Y-118948953D01*
X40322874Y-118950521D01*
X40322878Y-118950523D01*
X40460098Y-119008910D01*
X40601006Y-119068867D01*
X40895775Y-119152001D01*
X41116338Y-119184768D01*
X41195419Y-119196516D01*
X41195421Y-119196516D01*
X41198718Y-119197006D01*
X41202049Y-119197146D01*
X41202053Y-119197146D01*
X41238737Y-119198683D01*
X41282084Y-119200500D01*
X41477474Y-119200500D01*
X41600915Y-119192626D01*
X41701639Y-119186201D01*
X41701644Y-119186200D01*
X41705647Y-119185945D01*
X41709584Y-119185183D01*
X41709586Y-119185183D01*
X42002401Y-119128530D01*
X42002405Y-119128529D01*
X42006338Y-119127768D01*
X42297200Y-119031856D01*
X42573518Y-118899763D01*
X42830812Y-118733631D01*
X43064910Y-118536152D01*
X43272019Y-118310529D01*
X43448780Y-118060418D01*
X43592328Y-117789874D01*
X43661380Y-117606651D01*
X43698919Y-117507044D01*
X43698921Y-117507038D01*
X43700336Y-117503283D01*
X43714649Y-117442969D01*
X43770124Y-117209207D01*
X43770125Y-117209202D01*
X43771053Y-117205291D01*
X43803332Y-116900729D01*
X43801883Y-116834287D01*
X43798937Y-116699271D01*
X320996668Y-116699271D01*
X320996755Y-116703273D01*
X320996755Y-116703280D01*
X321002280Y-116956487D01*
X321003349Y-117005465D01*
X321048883Y-117308330D01*
X321049979Y-117312190D01*
X321049980Y-117312195D01*
X321061351Y-117352244D01*
X321132531Y-117602953D01*
X321252937Y-117884560D01*
X321408149Y-118148585D01*
X321595651Y-118390747D01*
X321812404Y-118607122D01*
X321815585Y-118609576D01*
X321815586Y-118609577D01*
X322051701Y-118791739D01*
X322051705Y-118791742D01*
X322054894Y-118794202D01*
X322058373Y-118796239D01*
X322235179Y-118899763D01*
X322319189Y-118948953D01*
X322322874Y-118950521D01*
X322322878Y-118950523D01*
X322460098Y-119008910D01*
X322601006Y-119068867D01*
X322895775Y-119152001D01*
X323116338Y-119184768D01*
X323195419Y-119196516D01*
X323195421Y-119196516D01*
X323198718Y-119197006D01*
X323202049Y-119197146D01*
X323202053Y-119197146D01*
X323238737Y-119198683D01*
X323282084Y-119200500D01*
X323477474Y-119200500D01*
X323600915Y-119192626D01*
X323701639Y-119186201D01*
X323701644Y-119186200D01*
X323705647Y-119185945D01*
X323709584Y-119185183D01*
X323709586Y-119185183D01*
X324002401Y-119128530D01*
X324002405Y-119128529D01*
X324006338Y-119127768D01*
X324297200Y-119031856D01*
X324573518Y-118899763D01*
X324830812Y-118733631D01*
X325064910Y-118536152D01*
X325272019Y-118310529D01*
X325448780Y-118060418D01*
X325592328Y-117789874D01*
X325661380Y-117606651D01*
X325698919Y-117507044D01*
X325698921Y-117507038D01*
X325700336Y-117503283D01*
X325714649Y-117442969D01*
X325770124Y-117209207D01*
X325770125Y-117209202D01*
X325771053Y-117205291D01*
X325803332Y-116900729D01*
X325801883Y-116834287D01*
X325796739Y-116598552D01*
X325796739Y-116598547D01*
X325796651Y-116594535D01*
X325751117Y-116291670D01*
X325667469Y-115997047D01*
X325547063Y-115715440D01*
X325391851Y-115451415D01*
X325204349Y-115209253D01*
X324987596Y-114992878D01*
X324984414Y-114990423D01*
X324748299Y-114808261D01*
X324748295Y-114808258D01*
X324745106Y-114805798D01*
X324568538Y-114702413D01*
X324484275Y-114653075D01*
X324484272Y-114653073D01*
X324480811Y-114651047D01*
X324477126Y-114649479D01*
X324477122Y-114649477D01*
X324290051Y-114569878D01*
X324198994Y-114531133D01*
X323904225Y-114447999D01*
X323674014Y-114413799D01*
X323604581Y-114403484D01*
X323604579Y-114403484D01*
X323601282Y-114402994D01*
X323597951Y-114402854D01*
X323597947Y-114402854D01*
X323561263Y-114401317D01*
X323517916Y-114399500D01*
X323322526Y-114399500D01*
X323199085Y-114407374D01*
X323098361Y-114413799D01*
X323098356Y-114413800D01*
X323094353Y-114414055D01*
X323090416Y-114414817D01*
X323090414Y-114414817D01*
X322797599Y-114471470D01*
X322797595Y-114471471D01*
X322793662Y-114472232D01*
X322502800Y-114568144D01*
X322226482Y-114700237D01*
X321969188Y-114866369D01*
X321735090Y-115063848D01*
X321527981Y-115289471D01*
X321351220Y-115539582D01*
X321207672Y-115810126D01*
X321206257Y-115813882D01*
X321206256Y-115813883D01*
X321135768Y-116000919D01*
X321099664Y-116096717D01*
X321098735Y-116100632D01*
X321054317Y-116287805D01*
X321028947Y-116394709D01*
X320996668Y-116699271D01*
X43798937Y-116699271D01*
X43796739Y-116598552D01*
X43796739Y-116598547D01*
X43796651Y-116594535D01*
X43751117Y-116291670D01*
X43667469Y-115997047D01*
X43547063Y-115715440D01*
X43391851Y-115451415D01*
X43204349Y-115209253D01*
X42987596Y-114992878D01*
X42984414Y-114990423D01*
X42748299Y-114808261D01*
X42748295Y-114808258D01*
X42745106Y-114805798D01*
X42568538Y-114702413D01*
X42484275Y-114653075D01*
X42484272Y-114653073D01*
X42480811Y-114651047D01*
X42477126Y-114649479D01*
X42477122Y-114649477D01*
X42290051Y-114569878D01*
X42198994Y-114531133D01*
X41904225Y-114447999D01*
X41674014Y-114413799D01*
X41604581Y-114403484D01*
X41604579Y-114403484D01*
X41601282Y-114402994D01*
X41597951Y-114402854D01*
X41597947Y-114402854D01*
X41561263Y-114401317D01*
X41517916Y-114399500D01*
X41322526Y-114399500D01*
X41199085Y-114407374D01*
X41098361Y-114413799D01*
X41098356Y-114413800D01*
X41094353Y-114414055D01*
X41090416Y-114414817D01*
X41090414Y-114414817D01*
X40797599Y-114471470D01*
X40797595Y-114471471D01*
X40793662Y-114472232D01*
X40502800Y-114568144D01*
X40226482Y-114700237D01*
X39969188Y-114866369D01*
X39735090Y-115063848D01*
X39527981Y-115289471D01*
X39351220Y-115539582D01*
X39207672Y-115810126D01*
X39206257Y-115813882D01*
X39206256Y-115813883D01*
X39135768Y-116000919D01*
X39099664Y-116096717D01*
X39098735Y-116100632D01*
X39054317Y-116287805D01*
X39028947Y-116394709D01*
X38996668Y-116699271D01*
X25921056Y-116699271D01*
X25763387Y-116668766D01*
X25763378Y-116668765D01*
X25759668Y-116668047D01*
X25755892Y-116667780D01*
X25755887Y-116667779D01*
X25657252Y-116660795D01*
X25497721Y-116649500D01*
X25316614Y-116649500D01*
X25314748Y-116649612D01*
X25314731Y-116649613D01*
X25072738Y-116664202D01*
X25072734Y-116664202D01*
X25068960Y-116664430D01*
X25065238Y-116665110D01*
X25065236Y-116665110D01*
X25049155Y-116668047D01*
X24742715Y-116724013D01*
X24425991Y-116822359D01*
X24123375Y-116958042D01*
X23839252Y-117129098D01*
X23836268Y-117131425D01*
X23836261Y-117131430D01*
X23604477Y-117312195D01*
X23577737Y-117333049D01*
X23342618Y-117566940D01*
X23340276Y-117569910D01*
X23340274Y-117569913D01*
X23166871Y-117789874D01*
X23137301Y-117827383D01*
X22964760Y-118110607D01*
X22946050Y-118151758D01*
X22829063Y-118409055D01*
X22829060Y-118409063D01*
X22827494Y-118412507D01*
X22727491Y-118728712D01*
X22721520Y-118760465D01*
X22670486Y-119031856D01*
X22666201Y-119054641D01*
X22644511Y-119385572D01*
X22050500Y-119385572D01*
X22050500Y-39385572D01*
X22644511Y-39385572D01*
X22662735Y-39716712D01*
X22720608Y-40043265D01*
X22721713Y-40046890D01*
X22721714Y-40046895D01*
X22797475Y-40295471D01*
X22817294Y-40360500D01*
X22951391Y-40663821D01*
X22953332Y-40667083D01*
X23119017Y-40945576D01*
X23119021Y-40945582D01*
X23120957Y-40948836D01*
X23323536Y-41211415D01*
X23556193Y-41447756D01*
X23815558Y-41654434D01*
X24097874Y-41828455D01*
X24101321Y-41830044D01*
X24395607Y-41965713D01*
X24395617Y-41965717D01*
X24399051Y-41967300D01*
X24402651Y-41968459D01*
X24402658Y-41968462D01*
X24711119Y-42067795D01*
X24711122Y-42067796D01*
X24714728Y-42068957D01*
X24718444Y-42069676D01*
X24718452Y-42069678D01*
X25036613Y-42131234D01*
X25036622Y-42131235D01*
X25040332Y-42131953D01*
X25044108Y-42132220D01*
X25044113Y-42132221D01*
X25142748Y-42139205D01*
X25302279Y-42150500D01*
X25483386Y-42150500D01*
X25485252Y-42150388D01*
X25485269Y-42150387D01*
X25727262Y-42135798D01*
X25727266Y-42135798D01*
X25731040Y-42135570D01*
X25734762Y-42134890D01*
X25734764Y-42134890D01*
X25808632Y-42121399D01*
X26057285Y-42075987D01*
X26374009Y-41977641D01*
X26676625Y-41841958D01*
X26960748Y-41670902D01*
X26963732Y-41668575D01*
X26963739Y-41668570D01*
X27219268Y-41469287D01*
X27219270Y-41469285D01*
X27222263Y-41466951D01*
X27457382Y-41233060D01*
X27662699Y-40972617D01*
X27835240Y-40689393D01*
X27890021Y-40568909D01*
X27970937Y-40390945D01*
X27970940Y-40390937D01*
X27972506Y-40387493D01*
X28072509Y-40071288D01*
X28133799Y-39745359D01*
X28155489Y-39414428D01*
X28153901Y-39385572D01*
X336644511Y-39385572D01*
X336662735Y-39716712D01*
X336720608Y-40043265D01*
X336721713Y-40046890D01*
X336721714Y-40046895D01*
X336797475Y-40295471D01*
X336817294Y-40360500D01*
X336951391Y-40663821D01*
X336953332Y-40667083D01*
X337119017Y-40945576D01*
X337119021Y-40945582D01*
X337120957Y-40948836D01*
X337323536Y-41211415D01*
X337556193Y-41447756D01*
X337815558Y-41654434D01*
X338097874Y-41828455D01*
X338101321Y-41830044D01*
X338395607Y-41965713D01*
X338395617Y-41965717D01*
X338399051Y-41967300D01*
X338402651Y-41968459D01*
X338402658Y-41968462D01*
X338711119Y-42067795D01*
X338711122Y-42067796D01*
X338714728Y-42068957D01*
X338718444Y-42069676D01*
X338718452Y-42069678D01*
X339036613Y-42131234D01*
X339036622Y-42131235D01*
X339040332Y-42131953D01*
X339044108Y-42132220D01*
X339044113Y-42132221D01*
X339142748Y-42139205D01*
X339302279Y-42150500D01*
X339483386Y-42150500D01*
X339485252Y-42150388D01*
X339485269Y-42150387D01*
X339727262Y-42135798D01*
X339727266Y-42135798D01*
X339731040Y-42135570D01*
X339734762Y-42134890D01*
X339734764Y-42134890D01*
X339808632Y-42121399D01*
X340057285Y-42075987D01*
X340374009Y-41977641D01*
X340676625Y-41841958D01*
X340960748Y-41670902D01*
X340963732Y-41668575D01*
X340963739Y-41668570D01*
X341219268Y-41469287D01*
X341219270Y-41469285D01*
X341222263Y-41466951D01*
X341457382Y-41233060D01*
X341662699Y-40972617D01*
X341835240Y-40689393D01*
X341890021Y-40568909D01*
X341970937Y-40390945D01*
X341970940Y-40390937D01*
X341972506Y-40387493D01*
X342072509Y-40071288D01*
X342133799Y-39745359D01*
X342155489Y-39414428D01*
X342137265Y-39083288D01*
X342079392Y-38756735D01*
X342070852Y-38728712D01*
X341983815Y-38443139D01*
X341982706Y-38439500D01*
X341848609Y-38136179D01*
X341783004Y-38025907D01*
X341680983Y-37854424D01*
X341680979Y-37854418D01*
X341679043Y-37851164D01*
X341476464Y-37588585D01*
X341243807Y-37352244D01*
X340984442Y-37145566D01*
X340702126Y-36971545D01*
X340664173Y-36954049D01*
X340404393Y-36834287D01*
X340404383Y-36834283D01*
X340400949Y-36832700D01*
X340397349Y-36831541D01*
X340397342Y-36831538D01*
X340088881Y-36732205D01*
X340088878Y-36732204D01*
X340085272Y-36731043D01*
X340081556Y-36730324D01*
X340081548Y-36730322D01*
X339763387Y-36668766D01*
X339763378Y-36668765D01*
X339759668Y-36668047D01*
X339755892Y-36667780D01*
X339755887Y-36667779D01*
X339657252Y-36660795D01*
X339497721Y-36649500D01*
X339316614Y-36649500D01*
X339314748Y-36649612D01*
X339314731Y-36649613D01*
X339072738Y-36664202D01*
X339072734Y-36664202D01*
X339068960Y-36664430D01*
X339065238Y-36665110D01*
X339065236Y-36665110D01*
X339049155Y-36668047D01*
X338742715Y-36724013D01*
X338425991Y-36822359D01*
X338123375Y-36958042D01*
X337839252Y-37129098D01*
X337836268Y-37131425D01*
X337836261Y-37131430D01*
X337815103Y-37147931D01*
X337577737Y-37333049D01*
X337342618Y-37566940D01*
X337137301Y-37827383D01*
X336964760Y-38110607D01*
X336953133Y-38136179D01*
X336829063Y-38409055D01*
X336829060Y-38409063D01*
X336827494Y-38412507D01*
X336727491Y-38728712D01*
X336666201Y-39054641D01*
X336644511Y-39385572D01*
X28153901Y-39385572D01*
X28137265Y-39083288D01*
X28079392Y-38756735D01*
X28070852Y-38728712D01*
X27983815Y-38443139D01*
X27982706Y-38439500D01*
X27848609Y-38136179D01*
X27783004Y-38025907D01*
X27680983Y-37854424D01*
X27680979Y-37854418D01*
X27679043Y-37851164D01*
X27476464Y-37588585D01*
X27243807Y-37352244D01*
X26984442Y-37145566D01*
X26702126Y-36971545D01*
X26664173Y-36954049D01*
X26404393Y-36834287D01*
X26404383Y-36834283D01*
X26400949Y-36832700D01*
X26397349Y-36831541D01*
X26397342Y-36831538D01*
X26088881Y-36732205D01*
X26088878Y-36732204D01*
X26085272Y-36731043D01*
X26081556Y-36730324D01*
X26081548Y-36730322D01*
X25763387Y-36668766D01*
X25763378Y-36668765D01*
X25759668Y-36668047D01*
X25755892Y-36667780D01*
X25755887Y-36667779D01*
X25657252Y-36660795D01*
X25497721Y-36649500D01*
X25316614Y-36649500D01*
X25314748Y-36649612D01*
X25314731Y-36649613D01*
X25072738Y-36664202D01*
X25072734Y-36664202D01*
X25068960Y-36664430D01*
X25065238Y-36665110D01*
X25065236Y-36665110D01*
X25049155Y-36668047D01*
X24742715Y-36724013D01*
X24425991Y-36822359D01*
X24123375Y-36958042D01*
X23839252Y-37129098D01*
X23836268Y-37131425D01*
X23836261Y-37131430D01*
X23815103Y-37147931D01*
X23577737Y-37333049D01*
X23342618Y-37566940D01*
X23137301Y-37827383D01*
X22964760Y-38110607D01*
X22953133Y-38136179D01*
X22829063Y-38409055D01*
X22829060Y-38409063D01*
X22827494Y-38412507D01*
X22727491Y-38728712D01*
X22666201Y-39054641D01*
X22644511Y-39385572D01*
X22050500Y-39385572D01*
X22050500Y-32437085D01*
X22052921Y-32412504D01*
X22052987Y-32412172D01*
X22052987Y-32412171D01*
X22055408Y-32400000D01*
X22052987Y-32387830D01*
X22052987Y-32381147D01*
X22051580Y-32364252D01*
X22068172Y-31815139D01*
X22068632Y-31807541D01*
X22071062Y-31780808D01*
X22121240Y-31228628D01*
X22122157Y-31221072D01*
X22209626Y-30646365D01*
X22210998Y-30638879D01*
X22333006Y-30070506D01*
X22334828Y-30063116D01*
X22490925Y-29503169D01*
X22493189Y-29495903D01*
X22682818Y-28946376D01*
X22685517Y-28939259D01*
X22763751Y-28750387D01*
X22839106Y-28568462D01*
X22907976Y-28402196D01*
X22911100Y-28395255D01*
X23165580Y-27872603D01*
X23169117Y-27865864D01*
X23277855Y-27673067D01*
X23454695Y-27359522D01*
X23458628Y-27353016D01*
X23499764Y-27289393D01*
X23774252Y-26864850D01*
X23778575Y-26858587D01*
X24123095Y-26390370D01*
X24127789Y-26384378D01*
X24160308Y-26345359D01*
X24385259Y-26075438D01*
X24460153Y-25985572D01*
X36044511Y-25985572D01*
X36062735Y-26316712D01*
X36120608Y-26643265D01*
X36121713Y-26646890D01*
X36121714Y-26646895D01*
X36186233Y-26858587D01*
X36217294Y-26960500D01*
X36351391Y-27263821D01*
X36353332Y-27267083D01*
X36519017Y-27545576D01*
X36519021Y-27545582D01*
X36520957Y-27548836D01*
X36723536Y-27811415D01*
X36956193Y-28047756D01*
X37215558Y-28254434D01*
X37497874Y-28428455D01*
X37501321Y-28430044D01*
X37795607Y-28565713D01*
X37795617Y-28565717D01*
X37799051Y-28567300D01*
X37802651Y-28568459D01*
X37802658Y-28568462D01*
X38111119Y-28667795D01*
X38111122Y-28667796D01*
X38114728Y-28668957D01*
X38118444Y-28669676D01*
X38118452Y-28669678D01*
X38436613Y-28731234D01*
X38436622Y-28731235D01*
X38440332Y-28731953D01*
X38444108Y-28732220D01*
X38444113Y-28732221D01*
X38542748Y-28739205D01*
X38702279Y-28750500D01*
X38883386Y-28750500D01*
X38885252Y-28750388D01*
X38885269Y-28750387D01*
X39127262Y-28735798D01*
X39127266Y-28735798D01*
X39131040Y-28735570D01*
X39134762Y-28734890D01*
X39134764Y-28734890D01*
X39208632Y-28721399D01*
X39457285Y-28675987D01*
X39774009Y-28577641D01*
X40076625Y-28441958D01*
X40360748Y-28270902D01*
X40363732Y-28268575D01*
X40363739Y-28268570D01*
X40619268Y-28069287D01*
X40619270Y-28069285D01*
X40622263Y-28066951D01*
X40857382Y-27833060D01*
X41062699Y-27572617D01*
X41235240Y-27289393D01*
X41323804Y-27094608D01*
X41370937Y-26990945D01*
X41370940Y-26990937D01*
X41372506Y-26987493D01*
X41472509Y-26671288D01*
X41525335Y-26390370D01*
X41533099Y-26349083D01*
X41533100Y-26349078D01*
X41533799Y-26345359D01*
X41555489Y-26014428D01*
X41553901Y-25985572D01*
X116044511Y-25985572D01*
X116062735Y-26316712D01*
X116120608Y-26643265D01*
X116121713Y-26646890D01*
X116121714Y-26646895D01*
X116186233Y-26858587D01*
X116217294Y-26960500D01*
X116351391Y-27263821D01*
X116353332Y-27267083D01*
X116519017Y-27545576D01*
X116519021Y-27545582D01*
X116520957Y-27548836D01*
X116723536Y-27811415D01*
X116956193Y-28047756D01*
X117215558Y-28254434D01*
X117497874Y-28428455D01*
X117501321Y-28430044D01*
X117795607Y-28565713D01*
X117795617Y-28565717D01*
X117799051Y-28567300D01*
X117802651Y-28568459D01*
X117802658Y-28568462D01*
X118111119Y-28667795D01*
X118111122Y-28667796D01*
X118114728Y-28668957D01*
X118118444Y-28669676D01*
X118118452Y-28669678D01*
X118436613Y-28731234D01*
X118436622Y-28731235D01*
X118440332Y-28731953D01*
X118444108Y-28732220D01*
X118444113Y-28732221D01*
X118542748Y-28739205D01*
X118702279Y-28750500D01*
X118883386Y-28750500D01*
X118885252Y-28750388D01*
X118885269Y-28750387D01*
X119127262Y-28735798D01*
X119127266Y-28735798D01*
X119131040Y-28735570D01*
X119134762Y-28734890D01*
X119134764Y-28734890D01*
X119208632Y-28721399D01*
X119457285Y-28675987D01*
X119774009Y-28577641D01*
X120076625Y-28441958D01*
X120360748Y-28270902D01*
X120363732Y-28268575D01*
X120363739Y-28268570D01*
X120619268Y-28069287D01*
X120619270Y-28069285D01*
X120622263Y-28066951D01*
X120857382Y-27833060D01*
X121062699Y-27572617D01*
X121235240Y-27289393D01*
X121323804Y-27094608D01*
X121370937Y-26990945D01*
X121370940Y-26990937D01*
X121372506Y-26987493D01*
X121472509Y-26671288D01*
X121525335Y-26390370D01*
X121533099Y-26349083D01*
X121533100Y-26349078D01*
X121533799Y-26345359D01*
X121555489Y-26014428D01*
X121553901Y-25985572D01*
X139644511Y-25985572D01*
X139662735Y-26316712D01*
X139720608Y-26643265D01*
X139721713Y-26646890D01*
X139721714Y-26646895D01*
X139786233Y-26858587D01*
X139817294Y-26960500D01*
X139951391Y-27263821D01*
X139953332Y-27267083D01*
X140119017Y-27545576D01*
X140119021Y-27545582D01*
X140120957Y-27548836D01*
X140323536Y-27811415D01*
X140556193Y-28047756D01*
X140815558Y-28254434D01*
X141097874Y-28428455D01*
X141101321Y-28430044D01*
X141395607Y-28565713D01*
X141395617Y-28565717D01*
X141399051Y-28567300D01*
X141402651Y-28568459D01*
X141402658Y-28568462D01*
X141711119Y-28667795D01*
X141711122Y-28667796D01*
X141714728Y-28668957D01*
X141718444Y-28669676D01*
X141718452Y-28669678D01*
X142036613Y-28731234D01*
X142036622Y-28731235D01*
X142040332Y-28731953D01*
X142044108Y-28732220D01*
X142044113Y-28732221D01*
X142142748Y-28739205D01*
X142302279Y-28750500D01*
X142483386Y-28750500D01*
X142485252Y-28750388D01*
X142485269Y-28750387D01*
X142727262Y-28735798D01*
X142727266Y-28735798D01*
X142731040Y-28735570D01*
X142734762Y-28734890D01*
X142734764Y-28734890D01*
X142808632Y-28721399D01*
X143057285Y-28675987D01*
X143374009Y-28577641D01*
X143676625Y-28441958D01*
X143960748Y-28270902D01*
X143963732Y-28268575D01*
X143963739Y-28268570D01*
X144219268Y-28069287D01*
X144219270Y-28069285D01*
X144222263Y-28066951D01*
X144457382Y-27833060D01*
X144662699Y-27572617D01*
X144835240Y-27289393D01*
X144923804Y-27094608D01*
X144970937Y-26990945D01*
X144970940Y-26990937D01*
X144972506Y-26987493D01*
X145072509Y-26671288D01*
X145125335Y-26390370D01*
X145133099Y-26349083D01*
X145133100Y-26349078D01*
X145133799Y-26345359D01*
X145155489Y-26014428D01*
X145153901Y-25985572D01*
X219644511Y-25985572D01*
X219662735Y-26316712D01*
X219720608Y-26643265D01*
X219721713Y-26646890D01*
X219721714Y-26646895D01*
X219786233Y-26858587D01*
X219817294Y-26960500D01*
X219951391Y-27263821D01*
X219953332Y-27267083D01*
X220119017Y-27545576D01*
X220119021Y-27545582D01*
X220120957Y-27548836D01*
X220323536Y-27811415D01*
X220556193Y-28047756D01*
X220815558Y-28254434D01*
X221097874Y-28428455D01*
X221101321Y-28430044D01*
X221395607Y-28565713D01*
X221395617Y-28565717D01*
X221399051Y-28567300D01*
X221402651Y-28568459D01*
X221402658Y-28568462D01*
X221711119Y-28667795D01*
X221711122Y-28667796D01*
X221714728Y-28668957D01*
X221718444Y-28669676D01*
X221718452Y-28669678D01*
X222036613Y-28731234D01*
X222036622Y-28731235D01*
X222040332Y-28731953D01*
X222044108Y-28732220D01*
X222044113Y-28732221D01*
X222142748Y-28739205D01*
X222302279Y-28750500D01*
X222483386Y-28750500D01*
X222485252Y-28750388D01*
X222485269Y-28750387D01*
X222727262Y-28735798D01*
X222727266Y-28735798D01*
X222731040Y-28735570D01*
X222734762Y-28734890D01*
X222734764Y-28734890D01*
X222808632Y-28721399D01*
X223057285Y-28675987D01*
X223374009Y-28577641D01*
X223676625Y-28441958D01*
X223960748Y-28270902D01*
X223963732Y-28268575D01*
X223963739Y-28268570D01*
X224219268Y-28069287D01*
X224219270Y-28069285D01*
X224222263Y-28066951D01*
X224457382Y-27833060D01*
X224662699Y-27572617D01*
X224835240Y-27289393D01*
X224923804Y-27094608D01*
X224970937Y-26990945D01*
X224970940Y-26990937D01*
X224972506Y-26987493D01*
X225072509Y-26671288D01*
X225125335Y-26390370D01*
X225133099Y-26349083D01*
X225133100Y-26349078D01*
X225133799Y-26345359D01*
X225155489Y-26014428D01*
X225153901Y-25985572D01*
X243244511Y-25985572D01*
X243262735Y-26316712D01*
X243320608Y-26643265D01*
X243321713Y-26646890D01*
X243321714Y-26646895D01*
X243386233Y-26858587D01*
X243417294Y-26960500D01*
X243551391Y-27263821D01*
X243553332Y-27267083D01*
X243719017Y-27545576D01*
X243719021Y-27545582D01*
X243720957Y-27548836D01*
X243923536Y-27811415D01*
X244156193Y-28047756D01*
X244415558Y-28254434D01*
X244697874Y-28428455D01*
X244701321Y-28430044D01*
X244995607Y-28565713D01*
X244995617Y-28565717D01*
X244999051Y-28567300D01*
X245002651Y-28568459D01*
X245002658Y-28568462D01*
X245311119Y-28667795D01*
X245311122Y-28667796D01*
X245314728Y-28668957D01*
X245318444Y-28669676D01*
X245318452Y-28669678D01*
X245636613Y-28731234D01*
X245636622Y-28731235D01*
X245640332Y-28731953D01*
X245644108Y-28732220D01*
X245644113Y-28732221D01*
X245742748Y-28739205D01*
X245902279Y-28750500D01*
X246083386Y-28750500D01*
X246085252Y-28750388D01*
X246085269Y-28750387D01*
X246327262Y-28735798D01*
X246327266Y-28735798D01*
X246331040Y-28735570D01*
X246334762Y-28734890D01*
X246334764Y-28734890D01*
X246408632Y-28721399D01*
X246657285Y-28675987D01*
X246974009Y-28577641D01*
X247276625Y-28441958D01*
X247560748Y-28270902D01*
X247563732Y-28268575D01*
X247563739Y-28268570D01*
X247819268Y-28069287D01*
X247819270Y-28069285D01*
X247822263Y-28066951D01*
X248057382Y-27833060D01*
X248262699Y-27572617D01*
X248435240Y-27289393D01*
X248523804Y-27094608D01*
X248570937Y-26990945D01*
X248570940Y-26990937D01*
X248572506Y-26987493D01*
X248672509Y-26671288D01*
X248725335Y-26390370D01*
X248733099Y-26349083D01*
X248733100Y-26349078D01*
X248733799Y-26345359D01*
X248755489Y-26014428D01*
X248753901Y-25985572D01*
X323244511Y-25985572D01*
X323262735Y-26316712D01*
X323320608Y-26643265D01*
X323321713Y-26646890D01*
X323321714Y-26646895D01*
X323386233Y-26858587D01*
X323417294Y-26960500D01*
X323551391Y-27263821D01*
X323553332Y-27267083D01*
X323719017Y-27545576D01*
X323719021Y-27545582D01*
X323720957Y-27548836D01*
X323923536Y-27811415D01*
X324156193Y-28047756D01*
X324415558Y-28254434D01*
X324697874Y-28428455D01*
X324701321Y-28430044D01*
X324995607Y-28565713D01*
X324995617Y-28565717D01*
X324999051Y-28567300D01*
X325002651Y-28568459D01*
X325002658Y-28568462D01*
X325311119Y-28667795D01*
X325311122Y-28667796D01*
X325314728Y-28668957D01*
X325318444Y-28669676D01*
X325318452Y-28669678D01*
X325636613Y-28731234D01*
X325636622Y-28731235D01*
X325640332Y-28731953D01*
X325644108Y-28732220D01*
X325644113Y-28732221D01*
X325742748Y-28739205D01*
X325902279Y-28750500D01*
X326083386Y-28750500D01*
X326085252Y-28750388D01*
X326085269Y-28750387D01*
X326327262Y-28735798D01*
X326327266Y-28735798D01*
X326331040Y-28735570D01*
X326334762Y-28734890D01*
X326334764Y-28734890D01*
X326408632Y-28721399D01*
X326657285Y-28675987D01*
X326974009Y-28577641D01*
X327276625Y-28441958D01*
X327560748Y-28270902D01*
X327563732Y-28268575D01*
X327563739Y-28268570D01*
X327819268Y-28069287D01*
X327819270Y-28069285D01*
X327822263Y-28066951D01*
X328057382Y-27833060D01*
X328262699Y-27572617D01*
X328435240Y-27289393D01*
X328523804Y-27094608D01*
X328570937Y-26990945D01*
X328570940Y-26990937D01*
X328572506Y-26987493D01*
X328672509Y-26671288D01*
X328725335Y-26390370D01*
X328733099Y-26349083D01*
X328733100Y-26349078D01*
X328733799Y-26345359D01*
X328755489Y-26014428D01*
X328737265Y-25683288D01*
X328679392Y-25356735D01*
X328670852Y-25328712D01*
X328583815Y-25043139D01*
X328582706Y-25039500D01*
X328448609Y-24736179D01*
X328383004Y-24625907D01*
X328280983Y-24454424D01*
X328280979Y-24454418D01*
X328279043Y-24451164D01*
X328076464Y-24188585D01*
X327843807Y-23952244D01*
X327584442Y-23745566D01*
X327302126Y-23571545D01*
X327264174Y-23554049D01*
X327004393Y-23434287D01*
X327004383Y-23434283D01*
X327000949Y-23432700D01*
X326997349Y-23431541D01*
X326997342Y-23431538D01*
X326688881Y-23332205D01*
X326688878Y-23332204D01*
X326685272Y-23331043D01*
X326681556Y-23330324D01*
X326681548Y-23330322D01*
X326363387Y-23268766D01*
X326363378Y-23268765D01*
X326359668Y-23268047D01*
X326355892Y-23267780D01*
X326355887Y-23267779D01*
X326257252Y-23260795D01*
X326097721Y-23249500D01*
X325916614Y-23249500D01*
X325914748Y-23249612D01*
X325914731Y-23249613D01*
X325672738Y-23264202D01*
X325672734Y-23264202D01*
X325668960Y-23264430D01*
X325665238Y-23265110D01*
X325665236Y-23265110D01*
X325649155Y-23268047D01*
X325342715Y-23324013D01*
X325025991Y-23422359D01*
X324723375Y-23558042D01*
X324439252Y-23729098D01*
X324436268Y-23731425D01*
X324436261Y-23731430D01*
X324180732Y-23930713D01*
X324177737Y-23933049D01*
X323942618Y-24166940D01*
X323737301Y-24427383D01*
X323564760Y-24710607D01*
X323553133Y-24736179D01*
X323429063Y-25009055D01*
X323429060Y-25009063D01*
X323427494Y-25012507D01*
X323327491Y-25328712D01*
X323266201Y-25654641D01*
X323244511Y-25985572D01*
X248753901Y-25985572D01*
X248737265Y-25683288D01*
X248679392Y-25356735D01*
X248670852Y-25328712D01*
X248583815Y-25043139D01*
X248582706Y-25039500D01*
X248448609Y-24736179D01*
X248383004Y-24625907D01*
X248280983Y-24454424D01*
X248280979Y-24454418D01*
X248279043Y-24451164D01*
X248076464Y-24188585D01*
X247843807Y-23952244D01*
X247584442Y-23745566D01*
X247302126Y-23571545D01*
X247264174Y-23554049D01*
X247004393Y-23434287D01*
X247004383Y-23434283D01*
X247000949Y-23432700D01*
X246997349Y-23431541D01*
X246997342Y-23431538D01*
X246688881Y-23332205D01*
X246688878Y-23332204D01*
X246685272Y-23331043D01*
X246681556Y-23330324D01*
X246681548Y-23330322D01*
X246363387Y-23268766D01*
X246363378Y-23268765D01*
X246359668Y-23268047D01*
X246355892Y-23267780D01*
X246355887Y-23267779D01*
X246257252Y-23260795D01*
X246097721Y-23249500D01*
X245916614Y-23249500D01*
X245914748Y-23249612D01*
X245914731Y-23249613D01*
X245672738Y-23264202D01*
X245672734Y-23264202D01*
X245668960Y-23264430D01*
X245665238Y-23265110D01*
X245665236Y-23265110D01*
X245649155Y-23268047D01*
X245342715Y-23324013D01*
X245025991Y-23422359D01*
X244723375Y-23558042D01*
X244439252Y-23729098D01*
X244436268Y-23731425D01*
X244436261Y-23731430D01*
X244180732Y-23930713D01*
X244177737Y-23933049D01*
X243942618Y-24166940D01*
X243737301Y-24427383D01*
X243564760Y-24710607D01*
X243553133Y-24736179D01*
X243429063Y-25009055D01*
X243429060Y-25009063D01*
X243427494Y-25012507D01*
X243327491Y-25328712D01*
X243266201Y-25654641D01*
X243244511Y-25985572D01*
X225153901Y-25985572D01*
X225137265Y-25683288D01*
X225079392Y-25356735D01*
X225070852Y-25328712D01*
X224983815Y-25043139D01*
X224982706Y-25039500D01*
X224848609Y-24736179D01*
X224783004Y-24625907D01*
X224680983Y-24454424D01*
X224680979Y-24454418D01*
X224679043Y-24451164D01*
X224476464Y-24188585D01*
X224243807Y-23952244D01*
X223984442Y-23745566D01*
X223702126Y-23571545D01*
X223664174Y-23554049D01*
X223404393Y-23434287D01*
X223404383Y-23434283D01*
X223400949Y-23432700D01*
X223397349Y-23431541D01*
X223397342Y-23431538D01*
X223088881Y-23332205D01*
X223088878Y-23332204D01*
X223085272Y-23331043D01*
X223081556Y-23330324D01*
X223081548Y-23330322D01*
X222763387Y-23268766D01*
X222763378Y-23268765D01*
X222759668Y-23268047D01*
X222755892Y-23267780D01*
X222755887Y-23267779D01*
X222657252Y-23260795D01*
X222497721Y-23249500D01*
X222316614Y-23249500D01*
X222314748Y-23249612D01*
X222314731Y-23249613D01*
X222072738Y-23264202D01*
X222072734Y-23264202D01*
X222068960Y-23264430D01*
X222065238Y-23265110D01*
X222065236Y-23265110D01*
X222049155Y-23268047D01*
X221742715Y-23324013D01*
X221425991Y-23422359D01*
X221123375Y-23558042D01*
X220839252Y-23729098D01*
X220836268Y-23731425D01*
X220836261Y-23731430D01*
X220580732Y-23930713D01*
X220577737Y-23933049D01*
X220342618Y-24166940D01*
X220137301Y-24427383D01*
X219964760Y-24710607D01*
X219953133Y-24736179D01*
X219829063Y-25009055D01*
X219829060Y-25009063D01*
X219827494Y-25012507D01*
X219727491Y-25328712D01*
X219666201Y-25654641D01*
X219644511Y-25985572D01*
X145153901Y-25985572D01*
X145137265Y-25683288D01*
X145079392Y-25356735D01*
X145070852Y-25328712D01*
X144983815Y-25043139D01*
X144982706Y-25039500D01*
X144848609Y-24736179D01*
X144783004Y-24625907D01*
X144680983Y-24454424D01*
X144680979Y-24454418D01*
X144679043Y-24451164D01*
X144476464Y-24188585D01*
X144243807Y-23952244D01*
X143984442Y-23745566D01*
X143702126Y-23571545D01*
X143664174Y-23554049D01*
X143404393Y-23434287D01*
X143404383Y-23434283D01*
X143400949Y-23432700D01*
X143397349Y-23431541D01*
X143397342Y-23431538D01*
X143088881Y-23332205D01*
X143088878Y-23332204D01*
X143085272Y-23331043D01*
X143081556Y-23330324D01*
X143081548Y-23330322D01*
X142763387Y-23268766D01*
X142763378Y-23268765D01*
X142759668Y-23268047D01*
X142755892Y-23267780D01*
X142755887Y-23267779D01*
X142657252Y-23260795D01*
X142497721Y-23249500D01*
X142316614Y-23249500D01*
X142314748Y-23249612D01*
X142314731Y-23249613D01*
X142072738Y-23264202D01*
X142072734Y-23264202D01*
X142068960Y-23264430D01*
X142065238Y-23265110D01*
X142065236Y-23265110D01*
X142049155Y-23268047D01*
X141742715Y-23324013D01*
X141425991Y-23422359D01*
X141123375Y-23558042D01*
X140839252Y-23729098D01*
X140836268Y-23731425D01*
X140836261Y-23731430D01*
X140580732Y-23930713D01*
X140577737Y-23933049D01*
X140342618Y-24166940D01*
X140137301Y-24427383D01*
X139964760Y-24710607D01*
X139953133Y-24736179D01*
X139829063Y-25009055D01*
X139829060Y-25009063D01*
X139827494Y-25012507D01*
X139727491Y-25328712D01*
X139666201Y-25654641D01*
X139644511Y-25985572D01*
X121553901Y-25985572D01*
X121537265Y-25683288D01*
X121479392Y-25356735D01*
X121470852Y-25328712D01*
X121383815Y-25043139D01*
X121382706Y-25039500D01*
X121248609Y-24736179D01*
X121183004Y-24625907D01*
X121080983Y-24454424D01*
X121080979Y-24454418D01*
X121079043Y-24451164D01*
X120876464Y-24188585D01*
X120643807Y-23952244D01*
X120384442Y-23745566D01*
X120102126Y-23571545D01*
X120064174Y-23554049D01*
X119804393Y-23434287D01*
X119804383Y-23434283D01*
X119800949Y-23432700D01*
X119797349Y-23431541D01*
X119797342Y-23431538D01*
X119488881Y-23332205D01*
X119488878Y-23332204D01*
X119485272Y-23331043D01*
X119481556Y-23330324D01*
X119481548Y-23330322D01*
X119163387Y-23268766D01*
X119163378Y-23268765D01*
X119159668Y-23268047D01*
X119155892Y-23267780D01*
X119155887Y-23267779D01*
X119057252Y-23260795D01*
X118897721Y-23249500D01*
X118716614Y-23249500D01*
X118714748Y-23249612D01*
X118714731Y-23249613D01*
X118472738Y-23264202D01*
X118472734Y-23264202D01*
X118468960Y-23264430D01*
X118465238Y-23265110D01*
X118465236Y-23265110D01*
X118449155Y-23268047D01*
X118142715Y-23324013D01*
X117825991Y-23422359D01*
X117523375Y-23558042D01*
X117239252Y-23729098D01*
X117236268Y-23731425D01*
X117236261Y-23731430D01*
X116980732Y-23930713D01*
X116977737Y-23933049D01*
X116742618Y-24166940D01*
X116537301Y-24427383D01*
X116364760Y-24710607D01*
X116353133Y-24736179D01*
X116229063Y-25009055D01*
X116229060Y-25009063D01*
X116227494Y-25012507D01*
X116127491Y-25328712D01*
X116066201Y-25654641D01*
X116044511Y-25985572D01*
X41553901Y-25985572D01*
X41537265Y-25683288D01*
X41479392Y-25356735D01*
X41470852Y-25328712D01*
X41383815Y-25043139D01*
X41382706Y-25039500D01*
X41248609Y-24736179D01*
X41183004Y-24625907D01*
X41080983Y-24454424D01*
X41080979Y-24454418D01*
X41079043Y-24451164D01*
X40876464Y-24188585D01*
X40643807Y-23952244D01*
X40384442Y-23745566D01*
X40102126Y-23571545D01*
X40064174Y-23554049D01*
X39804393Y-23434287D01*
X39804383Y-23434283D01*
X39800949Y-23432700D01*
X39797349Y-23431541D01*
X39797342Y-23431538D01*
X39488881Y-23332205D01*
X39488878Y-23332204D01*
X39485272Y-23331043D01*
X39481556Y-23330324D01*
X39481548Y-23330322D01*
X39163387Y-23268766D01*
X39163378Y-23268765D01*
X39159668Y-23268047D01*
X39155892Y-23267780D01*
X39155887Y-23267779D01*
X39057252Y-23260795D01*
X38897721Y-23249500D01*
X38716614Y-23249500D01*
X38714748Y-23249612D01*
X38714731Y-23249613D01*
X38472738Y-23264202D01*
X38472734Y-23264202D01*
X38468960Y-23264430D01*
X38465238Y-23265110D01*
X38465236Y-23265110D01*
X38449155Y-23268047D01*
X38142715Y-23324013D01*
X37825991Y-23422359D01*
X37523375Y-23558042D01*
X37239252Y-23729098D01*
X37236268Y-23731425D01*
X37236261Y-23731430D01*
X36980732Y-23930713D01*
X36977737Y-23933049D01*
X36742618Y-24166940D01*
X36537301Y-24427383D01*
X36364760Y-24710607D01*
X36353133Y-24736179D01*
X36229063Y-25009055D01*
X36229060Y-25009063D01*
X36227494Y-25012507D01*
X36127491Y-25328712D01*
X36066201Y-25654641D01*
X36044511Y-25985572D01*
X24460153Y-25985572D01*
X24499956Y-25937812D01*
X24505003Y-25932115D01*
X24735671Y-25687071D01*
X24903462Y-25508824D01*
X24908824Y-25503462D01*
X25131107Y-25294219D01*
X25332115Y-25105003D01*
X25337812Y-25099956D01*
X25784378Y-24727789D01*
X25790370Y-24723095D01*
X25811735Y-24707375D01*
X26258587Y-24378575D01*
X26264850Y-24374252D01*
X26337480Y-24327293D01*
X26753023Y-24058623D01*
X26759522Y-24054695D01*
X27265864Y-23769117D01*
X27272603Y-23765580D01*
X27795255Y-23511100D01*
X27802196Y-23507976D01*
X28047258Y-23406468D01*
X28339272Y-23285512D01*
X28346376Y-23282818D01*
X28895903Y-23093189D01*
X28903169Y-23090925D01*
X29463116Y-22934828D01*
X29470506Y-22933006D01*
X30038879Y-22810998D01*
X30046365Y-22809626D01*
X30621072Y-22722157D01*
X30628628Y-22721240D01*
X30966565Y-22690530D01*
X31207548Y-22668632D01*
X31215132Y-22668172D01*
X31644040Y-22655212D01*
X31764252Y-22651580D01*
X31781147Y-22652987D01*
X31787830Y-22652987D01*
X31800000Y-22655408D01*
X31812171Y-22652987D01*
X31812172Y-22652987D01*
X31812504Y-22652921D01*
X31837085Y-22650500D01*
X332962915Y-22650500D01*
X332987496Y-22652921D01*
G37*
%TD.AperFunction*%
M02*
