<?xml version="1.0" encoding="UTF-8" standalone="no"?>
<svg
   version="1.1"
   width="332.84161mm"
   height="135.12801mm"
   viewBox="0 0 332.841600 135.128000"
   id="svg30433"
   xmlns="http://www.w3.org/2000/svg"
   xmlns:svg="http://www.w3.org/2000/svg">
  <path
     style="fill:none;fill-opacity:0;stroke:#ff0000;stroke-linecap:round;stroke-linejoin:round;stroke-miterlimit:4;stroke-dasharray:none;stroke-opacity:1;stroke-width:0.01"
     d="m 327.032140,17.475000 v 94.000000 m -311.199997,10.000000 134.554467,4.984440 M 5.832143,17.475000 v 94.000000 M 15.832143,7.475000 A 10.000000,10.000000 0 0 0 5.832143,17.475000 m 321.199997,0 A 10.000000,10.000000 0 0 0 317.032140,7.475000 M 5.832143,111.475000 a 10.000000,10.000000 0 0 0 10.000000,10.000000 m 166.645537,4.984440 134.554460,-4.984440 m -166.645530,4.984440 h 32.091070 M 317.032140,7.475000 H 15.832143 m 301.199997,114.000000 a 10.000000,10.000000 0 0 0 10.000000,-10.000000 M 14.032143,110.475000 V 15.075000 m 304.799997,95.400000 H 14.032143 M 318.832140,15.075000 v 95.400000 M 14.032143,15.075000 h 304.799997 m -7.240170,103.108700 a 1.600000,1.600000 0 0 1 -1.600000,1.600000 1.600000,1.600000 0 0 1 -1.600000,-1.600000 1.600000,1.600000 0 0 1 1.600000,-1.600000 1.600000,1.600000 0 0 1 1.600000,1.600000 z M 231.632140,11.075000 a 1.600000,1.600000 0 0 1 -1.600000,1.600000 1.600000,1.600000 0 0 1 -1.600000,-1.600000 1.600000,1.600000 0 0 1 1.600000,-1.600000 1.600000,1.600000 0 0 1 1.600000,1.600000 z M 96.024216,120.807390 a 1.600000,1.600000 0 0 1 -1.600000,1.600000 1.600000,1.600000 0 0 1 -1.600000,-1.600000 1.600000,1.600000 0 0 1 1.600000,-1.600000 1.600000,1.600000 0 0 1 1.600000,1.600000 z m -71.551912,-2.623690 a 1.600000,1.600000 0 0 1 -1.600000,1.600000 1.600000,1.600000 0 0 1 -1.600000,-1.600000 1.600000,1.600000 0 0 1 1.600000,-1.600000 1.600000,1.600000 0 0 1 1.600000,1.600000 z m 239.151916,1.758910 a 1.600000,1.600000 0 0 1 -1.600000,1.600000 1.600000,1.600000 0 0 1 -1.600000,-1.600000 1.600000,1.600000 0 0 1 1.600000,-1.600000 1.600000,1.600000 0 0 1 1.600000,1.600000 z M 24.432144,11.075000 a 1.600000,1.600000 0 0 1 -1.600000,1.600000 1.600000,1.600000 0 0 1 -1.600000,-1.600000 1.600000,1.600000 0 0 1 1.600000,-1.600000 1.600000,1.600000 0 0 1 1.600000,1.600000 z m 159.645536,111.784440 a 1.600000,1.600000 0 0 1 -1.600000,1.600000 1.600000,1.600000 0 0 1 -1.600000,-1.600000 1.600000,1.600000 0 0 1 1.600000,-1.600000 1.600000,1.600000 0 0 1 1.600000,1.600000 z M 11.032143,24.475000 a 1.600000,1.600000 0 0 1 -1.600000,1.600000 1.600000,1.600000 0 0 1 -1.600000,-1.600000 1.600000,1.600000 0 0 1 1.600000,-1.600000 1.600000,1.600000 0 0 1 1.600000,1.600000 z m 61.407921,95.467610 a 1.600000,1.600000 0 0 1 -1.600000,1.600000 1.600000,1.600000 0 0 1 -1.600000,-1.600000 1.600000,1.600000 0 0 1 1.600000,-1.600000 1.600000,1.600000 0 0 1 1.600000,1.600000 z M 208.032140,11.075000 a 1.600000,1.600000 0 0 1 -1.600000,1.600000 1.600000,1.600000 0 0 1 -1.600000,-1.600000 1.600000,1.600000 0 0 1 1.600000,-1.600000 1.600000,1.600000 0 0 1 1.600000,1.600000 z m 32.007920,109.732390 a 1.600000,1.600000 0 0 1 -1.600000,1.600000 1.600000,1.600000 0 0 1 -1.600000,-1.600000 1.600000,1.600000 0 0 1 1.600000,-1.600000 1.600000,1.600000 0 0 1 1.600000,1.600000 z M 104.432140,11.075000 a 1.600000,1.600000 0 0 1 -1.600000,1.600000 1.600000,1.600000 0 0 1 -1.600000,-1.600000 1.600000,1.600000 0 0 1 1.600000,-1.600000 1.600000,1.600000 0 0 1 1.600000,1.600000 z m 47.554470,111.784440 a 1.600000,1.600000 0 0 1 -1.600000,1.600000 1.600000,1.600000 0 0 1 -1.600000,-1.600000 1.600000,1.600000 0 0 1 1.600000,-1.600000 1.600000,1.600000 0 0 1 1.600000,1.600000 z M 325.032130,24.475000 a 1.600000,1.600000 0 0 1 -1.600000,1.600000 1.600000,1.600000 0 0 1 -1.600000,-1.600000 1.600000,1.600000 0 0 1 1.600000,-1.600000 1.600000,1.600000 0 0 1 1.600000,1.600000 z M 128.032140,11.075000 a 1.600000,1.600000 0 0 1 -1.600000,1.600000 1.600000,1.600000 0 0 1 -1.600000,-1.600000 1.600000,1.600000 0 0 1 1.600000,-1.600000 1.600000,1.600000 0 0 1 1.600000,1.600000 z m 196.999990,93.400000 a 1.600000,1.600000 0 0 1 -1.600000,1.600000 1.600000,1.600000 0 0 1 -1.600000,-1.600000 1.600000,1.600000 0 0 1 1.600000,-1.600000 1.600000,1.600000 0 0 1 1.600000,1.600000 z m -313.999987,0 a 1.600000,1.600000 0 0 1 -1.600000,1.600000 1.600000,1.600000 0 0 1 -1.600000,-1.600000 1.600000,1.600000 0 0 1 1.600000,-1.600000 1.600000,1.600000 0 0 1 1.600000,1.600000 z M 311.632130,11.075000 a 1.600000,1.600000 0 0 1 -1.600000,1.600000 1.600000,1.600000 0 0 1 -1.600000,-1.600000 1.600000,1.600000 0 0 1 1.600000,-1.600000 1.600000,1.600000 0 0 1 1.600000,1.600000 z"
     id="path29944" />
</svg>
