<?xml version="1.0" encoding="UTF-8" standalone="no"?>
<svg
   version="1.1"
   width="332.84161mm"
   height="135.12801mm"
   viewBox="0 0 332841600 135128000"
   id="svg21328"
   sodipodi:docname="ltbs-top-brd.svg"
   inkscape:version="1.1.2 (b8e25be8, 2022-02-05)"
   xmlns:inkscape="http://www.inkscape.org/namespaces/inkscape"
   xmlns:sodipodi="http://sodipodi.sourceforge.net/DTD/sodipodi-0.dtd"
   xmlns="http://www.w3.org/2000/svg"
   xmlns:svg="http://www.w3.org/2000/svg"
   xmlns:rdf="http://www.w3.org/1999/02/22-rdf-syntax-ns#"
   xmlns:cc="http://creativecommons.org/ns#"
   xmlns:dc="http://purl.org/dc/elements/1.1/">
  <defs
     id="defs21332" />
  <sodipodi:namedview
     id="namedview21330"
     pagecolor="#ffffff"
     bordercolor="#666666"
     borderopacity="1.0"
     inkscape:pageshadow="2"
     inkscape:pageopacity="0.0"
     inkscape:pagecheckerboard="0"
     inkscape:document-units="mm"
     showgrid="false"
     inkscape:zoom="2.7051218"
     inkscape:cx="566.70276"
     inkscape:cy="255.25653"
     inkscape:window-width="3840"
     inkscape:window-height="2107"
     inkscape:window-x="0"
     inkscape:window-y="25"
     inkscape:window-maximized="0"
     inkscape:current-layer="svg21328"
     units="mm" />
  <title
     id="title18682">SVG Picture created as ltbs-top-brd.svg date 2023/08/23 14:26:08 </title>
  <desc
     id="desc18684">Picture generated by PCBNEW </desc>
  <path
     id="path21002"
     style="fill:none;fill-opacity:0;stroke:#ff0000;stroke-width:10000;stroke-linecap:round;stroke-linejoin:round;stroke-miterlimit:4;stroke-dasharray:none;stroke-opacity:1"
     d="m 327032140,17475000 v 94000000 m -311199997,10000000 134554467,4984440 M 5832143,17475000 v 94000000 M 15832143,7475000 A 10000000,10000000 0 0 0 5832143,17475000 m 321199997,0 A 10000000,10000000 0 0 0 317032140,7475000 M 5832143,111475000 a 10000000,10000000 0 0 0 10000000,10000000 m 166645537,4984440 134554460,-4984440 m -166645530,4984440 h 32091070 M 317032140,7475000 H 15832143 m 301199997,114000000 a 10000000,10000000 0 0 0 10000000,-10000000 M 14032143,110475000 V 15075000 m 304799997,95400000 H 14032143 M 318832140,15075000 v 95400000 M 14032143,15075000 h 304799997 m -7240170,103108700 a 1600000,1600000 0 0 1 -1600000,1600000 1600000,1600000 0 0 1 -1600000,-1600000 1600000,1600000 0 0 1 1600000,-1600000 1600000,1600000 0 0 1 1600000,1600000 z M 231632140,11075000 a 1600000,1600000 0 0 1 -1600000,1600000 1600000,1600000 0 0 1 -1600000,-1600000 1600000,1600000 0 0 1 1600000,-1600000 1600000,1600000 0 0 1 1600000,1600000 z M 96024216,120807390 a 1600000,1600000 0 0 1 -1600000,1600000 1600000,1600000 0 0 1 -1600000,-1600000 1600000,1600000 0 0 1 1600000,-1600000 1600000,1600000 0 0 1 1600000,1600000 z m -71551912,-2623690 a 1600000,1600000 0 0 1 -1600000,1600000 1600000,1600000 0 0 1 -1600000,-1600000 1600000,1600000 0 0 1 1600000,-1600000 1600000,1600000 0 0 1 1600000,1600000 z m 239151916,1758910 a 1600000,1600000 0 0 1 -1600000,1600000 1600000,1600000 0 0 1 -1600000,-1600000 1600000,1600000 0 0 1 1600000,-1600000 1600000,1600000 0 0 1 1600000,1600000 z M 24432144,11075000 a 1600000,1600000 0 0 1 -1600000,1600000 1600000,1600000 0 0 1 -1600000,-1600000 1600000,1600000 0 0 1 1600000,-1600000 1600000,1600000 0 0 1 1600000,1600000 z m 159645536,111784440 a 1600000,1600000 0 0 1 -1600000,1600000 1600000,1600000 0 0 1 -1600000,-1600000 1600000,1600000 0 0 1 1600000,-1600000 1600000,1600000 0 0 1 1600000,1600000 z M 11032143,24475000 a 1600000,1600000 0 0 1 -1600000,1600000 1600000,1600000 0 0 1 -1600000,-1600000 1600000,1600000 0 0 1 1600000,-1600000 1600000,1600000 0 0 1 1600000,1600000 z m 61407921,95467610 a 1600000,1600000 0 0 1 -1600000,1600000 1600000,1600000 0 0 1 -1600000,-1600000 1600000,1600000 0 0 1 1600000,-1600000 1600000,1600000 0 0 1 1600000,1600000 z M 208032140,11075000 a 1600000,1600000 0 0 1 -1600000,1600000 1600000,1600000 0 0 1 -1600000,-1600000 1600000,1600000 0 0 1 1600000,-1600000 1600000,1600000 0 0 1 1600000,1600000 z m 32007920,109732390 a 1600000,1600000 0 0 1 -1600000,1600000 1600000,1600000 0 0 1 -1600000,-1600000 1600000,1600000 0 0 1 1600000,-1600000 1600000,1600000 0 0 1 1600000,1600000 z M 104432140,11075000 a 1600000,1600000 0 0 1 -1600000,1600000 1600000,1600000 0 0 1 -1600000,-1600000 1600000,1600000 0 0 1 1600000,-1600000 1600000,1600000 0 0 1 1600000,1600000 z m 47554470,111784440 a 1600000,1600000 0 0 1 -1600000,1600000 1600000,1600000 0 0 1 -1600000,-1600000 1600000,1600000 0 0 1 1600000,-1600000 1600000,1600000 0 0 1 1600000,1600000 z M 325032130,24475000 a 1600000,1600000 0 0 1 -1600000,1600000 1600000,1600000 0 0 1 -1600000,-1600000 1600000,1600000 0 0 1 1600000,-1600000 1600000,1600000 0 0 1 1600000,1600000 z M 128032140,11075000 a 1600000,1600000 0 0 1 -1600000,1600000 1600000,1600000 0 0 1 -1600000,-1600000 1600000,1600000 0 0 1 1600000,-1600000 1600000,1600000 0 0 1 1600000,1600000 z m 196999990,93400000 a 1600000,1600000 0 0 1 -1600000,1600000 1600000,1600000 0 0 1 -1600000,-1600000 1600000,1600000 0 0 1 1600000,-1600000 1600000,1600000 0 0 1 1600000,1600000 z m -313999987,0 a 1600000,1600000 0 0 1 -1600000,1600000 1600000,1600000 0 0 1 -1600000,-1600000 1600000,1600000 0 0 1 1600000,-1600000 1600000,1600000 0 0 1 1600000,1600000 z M 311632130,11075000 a 1600000,1600000 0 0 1 -1600000,1600000 1600000,1600000 0 0 1 -1600000,-1600000 1600000,1600000 0 0 1 1600000,-1600000 1600000,1600000 0 0 1 1600000,1600000 z" />
  <metadata
     id="metadata28214">
    <rdf:RDF>
      <cc:Work
         rdf:about="">
        <dc:title>SVG Picture created as ltbs-top-brd.svg date 2023/08/23 14:26:08 </dc:title>
      </cc:Work>
    </rdf:RDF>
  </metadata>
</svg>
