<svg width="2in" viewBox="0 0 432 552" xmlns="http://www.w3.org/2000/svg">
  <g style="fill: goldenrod;">
    <circle cx="24" cy="48" r="18"></circle>
    <circle cx="72" cy="48" r="18"></circle>
    <circle cx="120" cy="48" r="18"></circle>
    <circle cx="168" cy="48" r="18"></circle>
    <circle cx="216" cy="48" r="18"></circle>
    <circle cx="264" cy="48" r="18"></circle>
    <circle cx="312" cy="48" r="18"></circle>
    <circle cx="360" cy="48" r="18"></circle>
    <circle cx="408" cy="48" r="18"></circle>
    <circle cx="48" cy="72" r="18"></circle>
    <circle cx="192" cy="72" r="18"></circle>
    <circle cx="240" cy="72" r="18"></circle>
    <circle cx="384" cy="72" r="18"></circle>
    <circle cx="24" cy="96" r="18"></circle>
    <circle cx="120" cy="96" r="18"></circle>
    <circle cx="216" cy="96" r="18"></circle>
    <circle cx="312" cy="96" r="18"></circle>
    <circle cx="408" cy="96" r="18"></circle>
    <circle cx="96" cy="120" r="18"></circle>
    <circle cx="144" cy="120" r="18"></circle>
    <circle cx="288" cy="120" r="18"></circle>
    <circle cx="336" cy="120" r="18"></circle>
    <circle cx="24" cy="144" r="18"></circle>
    <circle cx="120" cy="144" r="18"></circle>
    <circle cx="312" cy="144" r="18"></circle>
    <circle cx="408" cy="144" r="18"></circle>
    <circle cx="48" cy="168" r="18"></circle>
    <circle cx="192" cy="168" r="18"></circle>
    <circle cx="240" cy="168" r="18"></circle>
    <circle cx="384" cy="168" r="18"></circle>
    <circle cx="24" cy="192" r="18"></circle>
    <circle cx="72" cy="192" r="18"></circle>
    <circle cx="216" cy="192" r="18"></circle>
    <circle cx="360" cy="192" r="18"></circle>
    <circle cx="408" cy="192" r="18"></circle>
    <circle cx="48" cy="216" r="18"></circle>
    <circle cx="96" cy="216" r="18"></circle>
    <circle cx="336" cy="216" r="18"></circle>
    <circle cx="24" cy="240" r="18"></circle>
    <circle cx="72" cy="240" r="18"></circle>
    <circle cx="120" cy="240" r="18"></circle>
    <circle cx="168" cy="240" r="18"></circle>
    <circle cx="216" cy="240" r="18"></circle>
    <circle cx="264" cy="240" r="18"></circle>
    <circle cx="312" cy="240" r="18"></circle>
    <circle cx="408" cy="240" r="18"></circle>
    <circle cx="48" cy="264" r="18"></circle>
    <circle cx="96" cy="264" r="18"></circle>
    <circle cx="144" cy="264" r="18"></circle>
    <circle cx="192" cy="264" r="18"></circle>
    <circle cx="24" cy="288" r="18"></circle>
    <circle cx="72" cy="288" r="18"></circle>
    <circle cx="120" cy="288" r="18"></circle>
    <circle cx="168" cy="288" r="18"></circle>
    <circle cx="216" cy="288" r="18"></circle>
    <circle cx="408" cy="288" r="18"></circle>
    <circle cx="48" cy="312" r="18"></circle>
    <circle cx="96" cy="312" r="18"></circle>
    <circle cx="144" cy="312" r="18"></circle>
    <circle cx="192" cy="312" r="18"></circle>
    <circle cx="72" cy="336" r="18"></circle>
    <circle cx="120" cy="336" r="18"></circle>
    <circle cx="168" cy="336" r="18"></circle>
    <circle cx="216" cy="336" r="18"></circle>
    <circle cx="408" cy="336" r="18"></circle>
    <circle cx="96" cy="360" r="18"></circle>
    <circle cx="144" cy="360" r="18"></circle>
    <circle cx="192" cy="360" r="18"></circle>
    <circle cx="240" cy="360" r="18"></circle>
    <circle cx="120" cy="384" r="18"></circle>
    <circle cx="168" cy="384" r="18"></circle>
    <circle cx="216" cy="384" r="18"></circle>
    <circle cx="264" cy="384" r="18"></circle>
    <circle cx="408" cy="384" r="18"></circle>
    <circle cx="144" cy="408" r="18"></circle>
    <circle cx="192" cy="408" r="18"></circle>
    <circle cx="240" cy="408" r="18"></circle>
    <circle cx="288" cy="408" r="18"></circle>
    <circle cx="168" cy="432" r="18"></circle>
    <circle cx="216" cy="432" r="18"></circle>
    <circle cx="264" cy="432" r="18"></circle>
    <circle cx="312" cy="432" r="18"></circle>
    <circle cx="408" cy="432" r="18"></circle>
    <circle cx="192" cy="456" r="18"></circle>
    <circle cx="288" cy="456" r="18"></circle>
    <circle cx="336" cy="456" r="18"></circle>
    <circle cx="168" cy="480" r="18"></circle>
    <circle cx="264" cy="480" r="18"></circle>
    <circle cx="360" cy="480" r="18"></circle>
    <circle cx="408" cy="480" r="18"></circle>
    <circle cx="48" cy="504" r="18"></circle>
    <circle cx="96" cy="504" r="18"></circle>
    <circle cx="144" cy="504" r="18"></circle>
    <circle cx="192" cy="504" r="18"></circle>
    <circle cx="240" cy="504" r="18"></circle>
    <circle cx="288" cy="504" r="18"></circle>
    <circle cx="384" cy="504" r="18"></circle>
    <circle cx="408" cy="528" r="18"></circle>
  </g>
</svg>
