%TF.GenerationSoftware,KiCad,Pcbnew,(6.0.11-0)*%
%TF.CreationDate,2023-07-18T22:07:45+01:00*%
%TF.ProjectId,ltbs-top,6c746273-2d74-46f7-902e-6b696361645f,0.3*%
%TF.SameCoordinates,Original*%
%TF.FileFunction,Copper,L1,Top*%
%TF.FilePolarity,Positive*%
%FSLAX46Y46*%
G04 Gerber Fmt 4.6, Leading zero omitted, Abs format (unit mm)*
G04 Created by KiCad (PCBNEW (6.0.11-0)) date 2023-07-18 22:07:45*
%MOMM*%
%LPD*%
G01*
G04 APERTURE LIST*
G04 APERTURE END LIST*
%TA.AperFunction,NonConductor*%
G36*
X332987496Y-22652921D02*
G01*
X332987828Y-22652987D01*
X332987829Y-22652987D01*
X333000000Y-22655408D01*
X333012170Y-22652987D01*
X333018853Y-22652987D01*
X333035748Y-22651580D01*
X333155960Y-22655212D01*
X333584868Y-22668172D01*
X333592452Y-22668632D01*
X333833435Y-22690530D01*
X334171372Y-22721240D01*
X334178928Y-22722157D01*
X334753635Y-22809626D01*
X334761121Y-22810998D01*
X335329494Y-22933006D01*
X335336884Y-22934828D01*
X335896831Y-23090925D01*
X335904097Y-23093189D01*
X336453624Y-23282818D01*
X336460728Y-23285512D01*
X336752742Y-23406468D01*
X336997804Y-23507976D01*
X337004745Y-23511100D01*
X337527397Y-23765580D01*
X337534136Y-23769117D01*
X338040478Y-24054695D01*
X338046977Y-24058623D01*
X338267318Y-24201085D01*
X338535150Y-24374252D01*
X338541413Y-24378575D01*
X339009630Y-24723095D01*
X339015615Y-24727784D01*
X339109558Y-24806075D01*
X339462188Y-25099956D01*
X339467885Y-25105003D01*
X339634115Y-25261481D01*
X339891176Y-25503462D01*
X339896538Y-25508824D01*
X340063442Y-25686129D01*
X340294997Y-25932115D01*
X340300044Y-25937812D01*
X340390750Y-26046651D01*
X340613451Y-26313871D01*
X340672211Y-26384378D01*
X340676905Y-26390370D01*
X341021425Y-26858587D01*
X341025748Y-26864850D01*
X341238512Y-27193925D01*
X341341372Y-27353016D01*
X341345305Y-27359522D01*
X341522145Y-27673067D01*
X341630883Y-27865864D01*
X341634420Y-27872603D01*
X341888900Y-28395255D01*
X341892024Y-28402196D01*
X342114483Y-28939259D01*
X342117182Y-28946376D01*
X342306811Y-29495903D01*
X342309075Y-29503169D01*
X342465172Y-30063116D01*
X342466994Y-30070506D01*
X342589002Y-30638879D01*
X342590374Y-30646365D01*
X342677843Y-31221072D01*
X342678760Y-31228628D01*
X342700640Y-31469399D01*
X342728939Y-31780808D01*
X342731368Y-31807541D01*
X342731828Y-31815139D01*
X342748420Y-32364252D01*
X342747013Y-32381147D01*
X342747013Y-32387830D01*
X342744592Y-32400000D01*
X342747013Y-32412171D01*
X342747013Y-32412172D01*
X342747079Y-32412504D01*
X342749500Y-32437085D01*
X342749500Y-126362915D01*
X342747079Y-126387496D01*
X342744592Y-126400000D01*
X342747013Y-126412170D01*
X342747013Y-126418853D01*
X342748420Y-126435748D01*
X342731828Y-126984861D01*
X342731368Y-126992452D01*
X342709470Y-127233435D01*
X342678760Y-127571372D01*
X342677843Y-127578928D01*
X342590374Y-128153635D01*
X342589002Y-128161121D01*
X342466994Y-128729494D01*
X342465172Y-128736884D01*
X342309075Y-129296831D01*
X342306811Y-129304097D01*
X342117182Y-129853624D01*
X342114483Y-129860741D01*
X341892024Y-130397804D01*
X341888900Y-130404745D01*
X341634420Y-130927397D01*
X341630883Y-130934136D01*
X341353623Y-131425731D01*
X341345310Y-131440470D01*
X341341377Y-131446977D01*
X341084086Y-131844920D01*
X341025748Y-131935150D01*
X341021425Y-131941413D01*
X340705928Y-132370187D01*
X340676905Y-132409630D01*
X340672211Y-132415622D01*
X340300044Y-132862188D01*
X340294997Y-132867885D01*
X340112218Y-133062055D01*
X339896538Y-133291176D01*
X339891176Y-133296538D01*
X339756182Y-133423613D01*
X339467885Y-133694997D01*
X339462188Y-133700044D01*
X339232877Y-133891151D01*
X339040308Y-134051638D01*
X339015622Y-134072211D01*
X339009637Y-134076900D01*
X338865994Y-134182594D01*
X338541413Y-134421425D01*
X338535150Y-134425748D01*
X338098903Y-134707804D01*
X338046984Y-134741372D01*
X338040478Y-134745305D01*
X337792424Y-134885208D01*
X337534136Y-135030883D01*
X337527397Y-135034420D01*
X337004745Y-135288900D01*
X336997804Y-135292024D01*
X336830026Y-135361520D01*
X336460728Y-135514488D01*
X336453624Y-135517182D01*
X335904097Y-135706811D01*
X335896831Y-135709075D01*
X335336884Y-135865172D01*
X335329494Y-135866994D01*
X334761121Y-135989002D01*
X334753635Y-135990374D01*
X334178928Y-136077843D01*
X334171372Y-136078760D01*
X333833435Y-136109470D01*
X333592452Y-136131368D01*
X333584868Y-136131828D01*
X333162436Y-136144592D01*
X333035748Y-136148420D01*
X333018853Y-136147013D01*
X333012170Y-136147013D01*
X333000000Y-136144592D01*
X332987830Y-136147013D01*
X332987826Y-136147013D01*
X332980607Y-136148449D01*
X332960690Y-136150784D01*
X198443216Y-141133856D01*
X198438552Y-141133942D01*
X166361448Y-141133942D01*
X166356784Y-141133856D01*
X77076103Y-137826538D01*
X164499493Y-137826538D01*
X164524999Y-138093874D01*
X164588829Y-138354728D01*
X164689647Y-138603635D01*
X164825340Y-138835381D01*
X164828193Y-138838948D01*
X164939690Y-138978368D01*
X164993066Y-139045112D01*
X165189311Y-139228434D01*
X165281504Y-139292391D01*
X165406211Y-139378904D01*
X165406216Y-139378907D01*
X165409964Y-139381507D01*
X165414049Y-139383539D01*
X165414052Y-139383541D01*
X165530183Y-139441315D01*
X165650403Y-139501123D01*
X165654737Y-139502544D01*
X165654740Y-139502545D01*
X165901258Y-139583358D01*
X165901263Y-139583359D01*
X165905591Y-139584778D01*
X165910082Y-139585558D01*
X165910083Y-139585558D01*
X166166401Y-139630063D01*
X166166409Y-139630064D01*
X166170182Y-139630719D01*
X166174019Y-139630910D01*
X166253461Y-139634865D01*
X166253469Y-139634865D01*
X166255032Y-139634943D01*
X166422688Y-139634943D01*
X166424956Y-139634778D01*
X166424968Y-139634778D01*
X166555288Y-139625322D01*
X166622311Y-139620459D01*
X166626766Y-139619475D01*
X166626769Y-139619475D01*
X166880085Y-139563548D01*
X166880089Y-139563547D01*
X166884545Y-139562563D01*
X167052082Y-139499089D01*
X167131406Y-139469036D01*
X167131409Y-139469035D01*
X167135676Y-139467418D01*
X167370441Y-139337017D01*
X167512719Y-139228434D01*
X167580298Y-139176860D01*
X167580302Y-139176856D01*
X167583923Y-139174093D01*
X167771650Y-138982057D01*
X167929690Y-138764934D01*
X168016778Y-138599406D01*
X168052605Y-138531311D01*
X168052608Y-138531305D01*
X168054730Y-138527271D01*
X168114168Y-138358958D01*
X168142630Y-138278359D01*
X168142630Y-138278358D01*
X168144153Y-138274046D01*
X168196085Y-138010565D01*
X168196312Y-138006009D01*
X168205246Y-137826538D01*
X196590563Y-137826538D01*
X196616069Y-138093874D01*
X196679899Y-138354728D01*
X196780717Y-138603635D01*
X196916410Y-138835381D01*
X196919263Y-138838948D01*
X197030760Y-138978368D01*
X197084136Y-139045112D01*
X197280381Y-139228434D01*
X197372574Y-139292391D01*
X197497281Y-139378904D01*
X197497286Y-139378907D01*
X197501034Y-139381507D01*
X197505119Y-139383539D01*
X197505122Y-139383541D01*
X197621253Y-139441315D01*
X197741473Y-139501123D01*
X197745807Y-139502544D01*
X197745810Y-139502545D01*
X197992328Y-139583358D01*
X197992333Y-139583359D01*
X197996661Y-139584778D01*
X198001152Y-139585558D01*
X198001153Y-139585558D01*
X198257471Y-139630063D01*
X198257479Y-139630064D01*
X198261252Y-139630719D01*
X198265089Y-139630910D01*
X198344531Y-139634865D01*
X198344539Y-139634865D01*
X198346102Y-139634943D01*
X198513758Y-139634943D01*
X198516026Y-139634778D01*
X198516038Y-139634778D01*
X198646358Y-139625322D01*
X198713381Y-139620459D01*
X198717836Y-139619475D01*
X198717839Y-139619475D01*
X198971155Y-139563548D01*
X198971159Y-139563547D01*
X198975615Y-139562563D01*
X199143152Y-139499089D01*
X199222476Y-139469036D01*
X199222479Y-139469035D01*
X199226746Y-139467418D01*
X199461511Y-139337017D01*
X199603789Y-139228434D01*
X199671368Y-139176860D01*
X199671372Y-139176856D01*
X199674993Y-139174093D01*
X199862720Y-138982057D01*
X200020760Y-138764934D01*
X200107848Y-138599406D01*
X200143675Y-138531311D01*
X200143678Y-138531305D01*
X200145800Y-138527271D01*
X200205238Y-138358958D01*
X200233700Y-138278359D01*
X200233700Y-138278358D01*
X200235223Y-138274046D01*
X200287155Y-138010565D01*
X200287382Y-138006009D01*
X200300280Y-137746917D01*
X200300280Y-137746911D01*
X200300507Y-137742348D01*
X200275001Y-137475012D01*
X200228499Y-137284970D01*
X200212256Y-137218592D01*
X200211171Y-137214158D01*
X200174983Y-137124813D01*
X200112066Y-136969480D01*
X200112066Y-136969479D01*
X200110353Y-136965251D01*
X199974660Y-136733505D01*
X199863746Y-136594814D01*
X199809786Y-136527340D01*
X199809785Y-136527338D01*
X199806934Y-136523774D01*
X199610689Y-136340452D01*
X199450971Y-136229651D01*
X199393789Y-136189982D01*
X199393784Y-136189979D01*
X199390036Y-136187379D01*
X199385951Y-136185347D01*
X199385948Y-136185345D01*
X199171008Y-136078415D01*
X199149597Y-136067763D01*
X199145263Y-136066342D01*
X199145260Y-136066341D01*
X198898742Y-135985528D01*
X198898737Y-135985527D01*
X198894409Y-135984108D01*
X198889917Y-135983328D01*
X198633599Y-135938823D01*
X198633591Y-135938822D01*
X198629818Y-135938167D01*
X198621157Y-135937736D01*
X198546539Y-135934021D01*
X198546531Y-135934021D01*
X198544968Y-135933943D01*
X198377312Y-135933943D01*
X198375044Y-135934108D01*
X198375032Y-135934108D01*
X198244712Y-135943564D01*
X198177689Y-135948427D01*
X198173234Y-135949411D01*
X198173231Y-135949411D01*
X197919915Y-136005338D01*
X197919911Y-136005339D01*
X197915455Y-136006323D01*
X197833759Y-136037275D01*
X197668594Y-136099850D01*
X197668591Y-136099851D01*
X197664324Y-136101468D01*
X197429559Y-136231869D01*
X197425927Y-136234641D01*
X197219702Y-136392026D01*
X197219698Y-136392030D01*
X197216077Y-136394793D01*
X197212892Y-136398051D01*
X197212891Y-136398052D01*
X197141663Y-136470915D01*
X197028350Y-136586829D01*
X197025665Y-136590518D01*
X196888190Y-136779388D01*
X196870310Y-136803952D01*
X196868186Y-136807990D01*
X196747395Y-137037575D01*
X196747392Y-137037581D01*
X196745270Y-137041615D01*
X196743750Y-137045920D01*
X196743748Y-137045924D01*
X196684339Y-137214158D01*
X196655847Y-137294840D01*
X196648623Y-137331494D01*
X196608959Y-137532731D01*
X196603915Y-137558321D01*
X196603688Y-137562874D01*
X196603688Y-137562877D01*
X196594527Y-137746917D01*
X196590563Y-137826538D01*
X168205246Y-137826538D01*
X168209210Y-137746917D01*
X168209210Y-137746911D01*
X168209437Y-137742348D01*
X168183931Y-137475012D01*
X168137429Y-137284970D01*
X168121186Y-137218592D01*
X168120101Y-137214158D01*
X168083913Y-137124813D01*
X168020996Y-136969480D01*
X168020996Y-136969479D01*
X168019283Y-136965251D01*
X167883590Y-136733505D01*
X167772676Y-136594814D01*
X167718716Y-136527340D01*
X167718715Y-136527338D01*
X167715864Y-136523774D01*
X167519619Y-136340452D01*
X167359901Y-136229651D01*
X167302719Y-136189982D01*
X167302714Y-136189979D01*
X167298966Y-136187379D01*
X167294881Y-136185347D01*
X167294878Y-136185345D01*
X167079938Y-136078415D01*
X167058527Y-136067763D01*
X167054193Y-136066342D01*
X167054190Y-136066341D01*
X166807672Y-135985528D01*
X166807667Y-135985527D01*
X166803339Y-135984108D01*
X166798847Y-135983328D01*
X166542529Y-135938823D01*
X166542521Y-135938822D01*
X166538748Y-135938167D01*
X166530087Y-135937736D01*
X166455469Y-135934021D01*
X166455461Y-135934021D01*
X166453898Y-135933943D01*
X166286242Y-135933943D01*
X166283974Y-135934108D01*
X166283962Y-135934108D01*
X166153642Y-135943564D01*
X166086619Y-135948427D01*
X166082164Y-135949411D01*
X166082161Y-135949411D01*
X165828845Y-136005338D01*
X165828841Y-136005339D01*
X165824385Y-136006323D01*
X165742689Y-136037275D01*
X165577524Y-136099850D01*
X165577521Y-136099851D01*
X165573254Y-136101468D01*
X165338489Y-136231869D01*
X165334857Y-136234641D01*
X165128632Y-136392026D01*
X165128628Y-136392030D01*
X165125007Y-136394793D01*
X165121822Y-136398051D01*
X165121821Y-136398052D01*
X165050593Y-136470915D01*
X164937280Y-136586829D01*
X164934595Y-136590518D01*
X164797120Y-136779388D01*
X164779240Y-136803952D01*
X164777116Y-136807990D01*
X164656325Y-137037575D01*
X164656322Y-137037581D01*
X164654200Y-137041615D01*
X164652680Y-137045920D01*
X164652678Y-137045924D01*
X164593269Y-137214158D01*
X164564777Y-137294840D01*
X164557553Y-137331494D01*
X164517889Y-137532731D01*
X164512845Y-137558321D01*
X164512618Y-137562874D01*
X164512618Y-137562877D01*
X164503457Y-137746917D01*
X164499493Y-137826538D01*
X77076103Y-137826538D01*
X31839310Y-136150784D01*
X31819393Y-136148449D01*
X31812174Y-136147013D01*
X31812170Y-136147013D01*
X31800000Y-136144592D01*
X31787830Y-136147013D01*
X31781147Y-136147013D01*
X31764252Y-136148420D01*
X31637564Y-136144592D01*
X31215132Y-136131828D01*
X31207548Y-136131368D01*
X30966565Y-136109470D01*
X30628628Y-136078760D01*
X30621072Y-136077843D01*
X30046365Y-135990374D01*
X30038879Y-135989002D01*
X29470506Y-135866994D01*
X29463116Y-135865172D01*
X28903169Y-135709075D01*
X28895903Y-135706811D01*
X28346376Y-135517182D01*
X28339272Y-135514488D01*
X27969974Y-135361520D01*
X27802196Y-135292024D01*
X27795255Y-135288900D01*
X27272603Y-135034420D01*
X27265864Y-135030883D01*
X27007576Y-134885208D01*
X26759522Y-134745305D01*
X26753016Y-134741372D01*
X26701098Y-134707804D01*
X26264850Y-134425748D01*
X26258587Y-134421425D01*
X25934006Y-134182594D01*
X25790363Y-134076900D01*
X25784378Y-134072211D01*
X25759693Y-134051638D01*
X25567123Y-133891151D01*
X25337812Y-133700044D01*
X25332115Y-133694997D01*
X25043818Y-133423613D01*
X24908824Y-133296538D01*
X24903462Y-133291176D01*
X24771322Y-133150801D01*
X36985190Y-133150801D01*
X37010696Y-133418137D01*
X37074526Y-133678991D01*
X37076238Y-133683217D01*
X37076239Y-133683221D01*
X37142668Y-133847225D01*
X37175344Y-133927898D01*
X37311037Y-134159644D01*
X37313890Y-134163211D01*
X37460074Y-134346005D01*
X37478763Y-134369375D01*
X37675008Y-134552697D01*
X37767201Y-134616654D01*
X37891908Y-134703167D01*
X37891913Y-134703170D01*
X37895661Y-134705770D01*
X37899746Y-134707802D01*
X37899749Y-134707804D01*
X37996513Y-134755943D01*
X38136100Y-134825386D01*
X38140434Y-134826807D01*
X38140437Y-134826808D01*
X38386955Y-134907621D01*
X38386960Y-134907622D01*
X38391288Y-134909041D01*
X38395779Y-134909821D01*
X38395780Y-134909821D01*
X38652098Y-134954326D01*
X38652106Y-134954327D01*
X38655879Y-134954982D01*
X38659716Y-134955173D01*
X38739158Y-134959128D01*
X38739166Y-134959128D01*
X38740729Y-134959206D01*
X38908385Y-134959206D01*
X38910653Y-134959041D01*
X38910665Y-134959041D01*
X39040985Y-134949585D01*
X39108008Y-134944722D01*
X39112463Y-134943738D01*
X39112466Y-134943738D01*
X39266642Y-134909699D01*
X84952953Y-134909699D01*
X84978459Y-135177035D01*
X84979544Y-135181469D01*
X84979545Y-135181475D01*
X84995646Y-135247275D01*
X85042289Y-135437889D01*
X85044001Y-135442115D01*
X85044002Y-135442119D01*
X85069988Y-135506274D01*
X85143107Y-135686796D01*
X85278800Y-135918542D01*
X85349000Y-136006323D01*
X85425090Y-136101468D01*
X85446526Y-136128273D01*
X85642771Y-136311595D01*
X85680622Y-136337853D01*
X85859671Y-136462065D01*
X85859676Y-136462068D01*
X85863424Y-136464668D01*
X85867509Y-136466700D01*
X85867512Y-136466702D01*
X85892763Y-136479264D01*
X86103863Y-136584284D01*
X86108197Y-136585705D01*
X86108200Y-136585706D01*
X86354718Y-136666519D01*
X86354723Y-136666520D01*
X86359051Y-136667939D01*
X86363542Y-136668719D01*
X86363543Y-136668719D01*
X86619861Y-136713224D01*
X86619869Y-136713225D01*
X86623642Y-136713880D01*
X86627479Y-136714071D01*
X86706921Y-136718026D01*
X86706929Y-136718026D01*
X86708492Y-136718104D01*
X86876148Y-136718104D01*
X86878416Y-136717939D01*
X86878428Y-136717939D01*
X87008748Y-136708483D01*
X87075771Y-136703620D01*
X87080226Y-136702636D01*
X87080229Y-136702636D01*
X87333545Y-136646709D01*
X87333549Y-136646708D01*
X87338005Y-136645724D01*
X87505542Y-136582250D01*
X87584866Y-136552197D01*
X87584869Y-136552196D01*
X87589136Y-136550579D01*
X87823901Y-136420178D01*
X87924291Y-136343563D01*
X88033758Y-136260021D01*
X88033762Y-136260017D01*
X88037383Y-136257254D01*
X88107679Y-136185345D01*
X88221924Y-136068477D01*
X88225110Y-136065218D01*
X88383150Y-135848095D01*
X88421875Y-135774491D01*
X108537103Y-135774491D01*
X108562609Y-136041827D01*
X108563694Y-136046261D01*
X108563695Y-136046267D01*
X108609790Y-136234641D01*
X108626439Y-136302681D01*
X108628151Y-136306907D01*
X108628152Y-136306911D01*
X108725544Y-136547359D01*
X108727257Y-136551588D01*
X108862950Y-136783334D01*
X108865803Y-136786901D01*
X109011815Y-136969480D01*
X109030676Y-136993065D01*
X109226921Y-137176387D01*
X109287759Y-137218592D01*
X109443821Y-137326857D01*
X109443826Y-137326860D01*
X109447574Y-137329460D01*
X109451659Y-137331492D01*
X109451662Y-137331494D01*
X109567794Y-137389268D01*
X109688013Y-137449076D01*
X109692347Y-137450497D01*
X109692350Y-137450498D01*
X109938868Y-137531311D01*
X109938873Y-137531312D01*
X109943201Y-137532731D01*
X109947692Y-137533511D01*
X109947693Y-137533511D01*
X110204011Y-137578016D01*
X110204019Y-137578017D01*
X110207792Y-137578672D01*
X110211629Y-137578863D01*
X110291071Y-137582818D01*
X110291079Y-137582818D01*
X110292642Y-137582896D01*
X110460298Y-137582896D01*
X110462566Y-137582731D01*
X110462578Y-137582731D01*
X110592898Y-137573275D01*
X110659921Y-137568412D01*
X110664376Y-137567428D01*
X110664379Y-137567428D01*
X110917695Y-137511501D01*
X110917699Y-137511500D01*
X110922155Y-137510516D01*
X111089692Y-137447042D01*
X111169016Y-137416989D01*
X111169019Y-137416988D01*
X111173286Y-137415371D01*
X111408051Y-137284970D01*
X111550329Y-137176387D01*
X111617908Y-137124813D01*
X111617912Y-137124809D01*
X111621533Y-137122046D01*
X111809260Y-136930010D01*
X111898076Y-136807990D01*
X111964613Y-136716579D01*
X111964615Y-136716576D01*
X111967300Y-136712887D01*
X112052694Y-136550579D01*
X112090215Y-136479264D01*
X112090218Y-136479258D01*
X112092340Y-136475224D01*
X112095350Y-136466702D01*
X112180240Y-136226312D01*
X112180240Y-136226311D01*
X112181763Y-136221999D01*
X112212443Y-136066341D01*
X112232814Y-135962990D01*
X112232815Y-135962984D01*
X112233695Y-135958518D01*
X112233922Y-135953962D01*
X112242856Y-135774491D01*
X252552953Y-135774491D01*
X252578459Y-136041827D01*
X252579544Y-136046261D01*
X252579545Y-136046267D01*
X252625640Y-136234641D01*
X252642289Y-136302681D01*
X252644001Y-136306907D01*
X252644002Y-136306911D01*
X252741394Y-136547359D01*
X252743107Y-136551588D01*
X252878800Y-136783334D01*
X252881653Y-136786901D01*
X253027665Y-136969480D01*
X253046526Y-136993065D01*
X253242771Y-137176387D01*
X253303609Y-137218592D01*
X253459671Y-137326857D01*
X253459676Y-137326860D01*
X253463424Y-137329460D01*
X253467509Y-137331492D01*
X253467512Y-137331494D01*
X253583644Y-137389268D01*
X253703863Y-137449076D01*
X253708197Y-137450497D01*
X253708200Y-137450498D01*
X253954718Y-137531311D01*
X253954723Y-137531312D01*
X253959051Y-137532731D01*
X253963542Y-137533511D01*
X253963543Y-137533511D01*
X254219861Y-137578016D01*
X254219869Y-137578017D01*
X254223642Y-137578672D01*
X254227479Y-137578863D01*
X254306921Y-137582818D01*
X254306929Y-137582818D01*
X254308492Y-137582896D01*
X254476148Y-137582896D01*
X254478416Y-137582731D01*
X254478428Y-137582731D01*
X254608748Y-137573275D01*
X254675771Y-137568412D01*
X254680226Y-137567428D01*
X254680229Y-137567428D01*
X254933545Y-137511501D01*
X254933549Y-137511500D01*
X254938005Y-137510516D01*
X255105542Y-137447042D01*
X255184866Y-137416989D01*
X255184869Y-137416988D01*
X255189136Y-137415371D01*
X255423901Y-137284970D01*
X255566179Y-137176387D01*
X255633758Y-137124813D01*
X255633762Y-137124809D01*
X255637383Y-137122046D01*
X255825110Y-136930010D01*
X255913926Y-136807990D01*
X255980463Y-136716579D01*
X255980465Y-136716576D01*
X255983150Y-136712887D01*
X256068544Y-136550579D01*
X256106065Y-136479264D01*
X256106068Y-136479258D01*
X256108190Y-136475224D01*
X256111200Y-136466702D01*
X256196090Y-136226312D01*
X256196090Y-136226311D01*
X256197613Y-136221999D01*
X256228293Y-136066341D01*
X256248664Y-135962990D01*
X256248665Y-135962984D01*
X256249545Y-135958518D01*
X256249772Y-135953962D01*
X256262670Y-135694870D01*
X256262670Y-135694864D01*
X256262897Y-135690301D01*
X256237391Y-135422965D01*
X256221301Y-135357207D01*
X256173561Y-135162111D01*
X256147674Y-135098198D01*
X256074456Y-134917433D01*
X256074456Y-134917432D01*
X256072743Y-134913204D01*
X256070691Y-134909699D01*
X276137103Y-134909699D01*
X276162609Y-135177035D01*
X276163694Y-135181469D01*
X276163695Y-135181475D01*
X276179796Y-135247275D01*
X276226439Y-135437889D01*
X276228151Y-135442115D01*
X276228152Y-135442119D01*
X276254138Y-135506274D01*
X276327257Y-135686796D01*
X276462950Y-135918542D01*
X276533150Y-136006323D01*
X276609240Y-136101468D01*
X276630676Y-136128273D01*
X276826921Y-136311595D01*
X276864772Y-136337853D01*
X277043821Y-136462065D01*
X277043826Y-136462068D01*
X277047574Y-136464668D01*
X277051659Y-136466700D01*
X277051662Y-136466702D01*
X277076913Y-136479264D01*
X277288013Y-136584284D01*
X277292347Y-136585705D01*
X277292350Y-136585706D01*
X277538868Y-136666519D01*
X277538873Y-136666520D01*
X277543201Y-136667939D01*
X277547692Y-136668719D01*
X277547693Y-136668719D01*
X277804011Y-136713224D01*
X277804019Y-136713225D01*
X277807792Y-136713880D01*
X277811629Y-136714071D01*
X277891071Y-136718026D01*
X277891079Y-136718026D01*
X277892642Y-136718104D01*
X278060298Y-136718104D01*
X278062566Y-136717939D01*
X278062578Y-136717939D01*
X278192898Y-136708483D01*
X278259921Y-136703620D01*
X278264376Y-136702636D01*
X278264379Y-136702636D01*
X278517695Y-136646709D01*
X278517699Y-136646708D01*
X278522155Y-136645724D01*
X278689692Y-136582250D01*
X278769016Y-136552197D01*
X278769019Y-136552196D01*
X278773286Y-136550579D01*
X279008051Y-136420178D01*
X279108441Y-136343563D01*
X279217908Y-136260021D01*
X279217912Y-136260017D01*
X279221533Y-136257254D01*
X279291829Y-136185345D01*
X279406074Y-136068477D01*
X279409260Y-136065218D01*
X279567300Y-135848095D01*
X279640442Y-135709075D01*
X279690215Y-135614472D01*
X279690218Y-135614466D01*
X279692340Y-135610432D01*
X279751778Y-135442119D01*
X279780240Y-135361520D01*
X279780240Y-135361519D01*
X279781763Y-135357207D01*
X279817275Y-135177035D01*
X279832814Y-135098198D01*
X279832815Y-135098192D01*
X279833695Y-135093726D01*
X279833922Y-135089170D01*
X279846820Y-134830078D01*
X279846820Y-134830072D01*
X279847047Y-134825509D01*
X279821541Y-134558173D01*
X279815818Y-134534782D01*
X279758796Y-134301753D01*
X279757711Y-134297319D01*
X279754101Y-134288405D01*
X279658606Y-134052641D01*
X279658606Y-134052640D01*
X279656893Y-134048412D01*
X279521200Y-133816666D01*
X279407553Y-133674557D01*
X279356326Y-133610501D01*
X279356325Y-133610499D01*
X279353474Y-133606935D01*
X279157229Y-133423613D01*
X279035693Y-133339300D01*
X278940329Y-133273143D01*
X278940324Y-133273140D01*
X278936576Y-133270540D01*
X278932491Y-133268508D01*
X278932488Y-133268506D01*
X278760635Y-133183011D01*
X278696137Y-133150924D01*
X278695762Y-133150801D01*
X324104866Y-133150801D01*
X324130372Y-133418137D01*
X324194202Y-133678991D01*
X324195914Y-133683217D01*
X324195915Y-133683221D01*
X324262344Y-133847225D01*
X324295020Y-133927898D01*
X324430713Y-134159644D01*
X324433566Y-134163211D01*
X324579750Y-134346005D01*
X324598439Y-134369375D01*
X324794684Y-134552697D01*
X324886877Y-134616654D01*
X325011584Y-134703167D01*
X325011589Y-134703170D01*
X325015337Y-134705770D01*
X325019422Y-134707802D01*
X325019425Y-134707804D01*
X325116189Y-134755943D01*
X325255776Y-134825386D01*
X325260110Y-134826807D01*
X325260113Y-134826808D01*
X325506631Y-134907621D01*
X325506636Y-134907622D01*
X325510964Y-134909041D01*
X325515455Y-134909821D01*
X325515456Y-134909821D01*
X325771774Y-134954326D01*
X325771782Y-134954327D01*
X325775555Y-134954982D01*
X325779392Y-134955173D01*
X325858834Y-134959128D01*
X325858842Y-134959128D01*
X325860405Y-134959206D01*
X326028061Y-134959206D01*
X326030329Y-134959041D01*
X326030341Y-134959041D01*
X326160661Y-134949585D01*
X326227684Y-134944722D01*
X326232139Y-134943738D01*
X326232142Y-134943738D01*
X326485458Y-134887811D01*
X326485462Y-134887810D01*
X326489918Y-134886826D01*
X326648333Y-134826808D01*
X326736779Y-134793299D01*
X326736782Y-134793298D01*
X326741049Y-134791681D01*
X326975814Y-134661280D01*
X327027704Y-134621679D01*
X327185671Y-134501123D01*
X327185675Y-134501119D01*
X327189296Y-134498356D01*
X327214370Y-134472707D01*
X327373837Y-134309579D01*
X327377023Y-134306320D01*
X327486658Y-134155698D01*
X327532376Y-134092889D01*
X327532378Y-134092886D01*
X327535063Y-134089197D01*
X327635991Y-133897364D01*
X327657978Y-133855574D01*
X327657981Y-133855568D01*
X327660103Y-133851534D01*
X327719541Y-133683221D01*
X327748003Y-133602622D01*
X327748003Y-133602621D01*
X327749526Y-133598309D01*
X327801458Y-133334828D01*
X327804529Y-133273143D01*
X327814583Y-133071180D01*
X327814583Y-133071174D01*
X327814810Y-133066611D01*
X327789304Y-132799275D01*
X327725474Y-132538421D01*
X327624656Y-132289514D01*
X327488963Y-132057768D01*
X327378049Y-131919077D01*
X327324089Y-131851603D01*
X327324088Y-131851601D01*
X327321237Y-131848037D01*
X327124992Y-131664715D01*
X326965274Y-131553914D01*
X326908092Y-131514245D01*
X326908087Y-131514242D01*
X326904339Y-131511642D01*
X326900254Y-131509610D01*
X326900251Y-131509608D01*
X326728398Y-131424113D01*
X326663900Y-131392026D01*
X326659566Y-131390605D01*
X326659563Y-131390604D01*
X326413045Y-131309791D01*
X326413040Y-131309790D01*
X326408712Y-131308371D01*
X326404220Y-131307591D01*
X326147902Y-131263086D01*
X326147894Y-131263085D01*
X326144121Y-131262430D01*
X326135460Y-131261999D01*
X326060842Y-131258284D01*
X326060834Y-131258284D01*
X326059271Y-131258206D01*
X325891615Y-131258206D01*
X325889347Y-131258371D01*
X325889335Y-131258371D01*
X325759015Y-131267827D01*
X325691992Y-131272690D01*
X325687537Y-131273674D01*
X325687534Y-131273674D01*
X325434218Y-131329601D01*
X325434214Y-131329602D01*
X325429758Y-131330586D01*
X325304193Y-131378158D01*
X325182897Y-131424113D01*
X325182894Y-131424114D01*
X325178627Y-131425731D01*
X324943862Y-131556132D01*
X324940230Y-131558904D01*
X324734005Y-131716289D01*
X324734001Y-131716293D01*
X324730380Y-131719056D01*
X324542653Y-131911092D01*
X324384613Y-132128215D01*
X324382489Y-132132253D01*
X324261698Y-132361838D01*
X324261695Y-132361844D01*
X324259573Y-132365878D01*
X324258053Y-132370183D01*
X324258051Y-132370187D01*
X324198642Y-132538421D01*
X324170150Y-132619103D01*
X324118218Y-132882584D01*
X324117991Y-132887137D01*
X324117991Y-132887140D01*
X324107838Y-133091102D01*
X324104866Y-133150801D01*
X278695762Y-133150801D01*
X278691803Y-133149503D01*
X278691800Y-133149502D01*
X278445282Y-133068689D01*
X278445277Y-133068688D01*
X278440949Y-133067269D01*
X278410920Y-133062055D01*
X278180139Y-133021984D01*
X278180131Y-133021983D01*
X278176358Y-133021328D01*
X278167697Y-133020897D01*
X278093079Y-133017182D01*
X278093071Y-133017182D01*
X278091508Y-133017104D01*
X277923852Y-133017104D01*
X277921584Y-133017269D01*
X277921572Y-133017269D01*
X277791252Y-133026725D01*
X277724229Y-133031588D01*
X277719774Y-133032572D01*
X277719771Y-133032572D01*
X277466455Y-133088499D01*
X277466451Y-133088500D01*
X277461995Y-133089484D01*
X277336430Y-133137056D01*
X277215134Y-133183011D01*
X277215131Y-133183012D01*
X277210864Y-133184629D01*
X276976099Y-133315030D01*
X276972467Y-133317802D01*
X276766242Y-133475187D01*
X276766238Y-133475191D01*
X276762617Y-133477954D01*
X276574890Y-133669990D01*
X276556688Y-133694997D01*
X276420591Y-133881974D01*
X276416850Y-133887113D01*
X276393320Y-133931837D01*
X276293935Y-134120736D01*
X276293932Y-134120742D01*
X276291810Y-134124776D01*
X276290290Y-134129081D01*
X276290288Y-134129085D01*
X276230879Y-134297319D01*
X276202387Y-134378001D01*
X276183211Y-134475293D01*
X276171486Y-134534782D01*
X276150455Y-134641482D01*
X276150228Y-134646035D01*
X276150228Y-134646038D01*
X276138193Y-134887811D01*
X276137103Y-134909699D01*
X256070691Y-134909699D01*
X255937050Y-134681458D01*
X255826136Y-134542767D01*
X255772176Y-134475293D01*
X255772175Y-134475291D01*
X255769324Y-134471727D01*
X255573079Y-134288405D01*
X255413361Y-134177604D01*
X255356179Y-134137935D01*
X255356174Y-134137932D01*
X255352426Y-134135332D01*
X255348341Y-134133300D01*
X255348338Y-134133298D01*
X255225547Y-134072211D01*
X255111987Y-134015716D01*
X255107653Y-134014295D01*
X255107650Y-134014294D01*
X254861132Y-133933481D01*
X254861127Y-133933480D01*
X254856799Y-133932061D01*
X254832823Y-133927898D01*
X254595989Y-133886776D01*
X254595981Y-133886775D01*
X254592208Y-133886120D01*
X254583547Y-133885689D01*
X254508929Y-133881974D01*
X254508921Y-133881974D01*
X254507358Y-133881896D01*
X254339702Y-133881896D01*
X254337434Y-133882061D01*
X254337422Y-133882061D01*
X254207102Y-133891517D01*
X254140079Y-133896380D01*
X254135624Y-133897364D01*
X254135621Y-133897364D01*
X253882305Y-133953291D01*
X253882301Y-133953292D01*
X253877845Y-133954276D01*
X253752279Y-134001849D01*
X253630984Y-134047803D01*
X253630981Y-134047804D01*
X253626714Y-134049421D01*
X253391949Y-134179822D01*
X253388317Y-134182594D01*
X253182092Y-134339979D01*
X253182088Y-134339983D01*
X253178467Y-134342746D01*
X253175282Y-134346004D01*
X253175281Y-134346005D01*
X253149388Y-134372492D01*
X252990740Y-134534782D01*
X252977700Y-134552697D01*
X252838862Y-134743440D01*
X252832700Y-134751905D01*
X252786432Y-134839847D01*
X252709785Y-134985528D01*
X252709782Y-134985534D01*
X252707660Y-134989568D01*
X252706140Y-134993873D01*
X252706138Y-134993877D01*
X252619760Y-135238480D01*
X252618237Y-135242793D01*
X252595686Y-135357207D01*
X252579784Y-135437889D01*
X252566305Y-135506274D01*
X252566078Y-135510827D01*
X252566078Y-135510830D01*
X252554088Y-135751696D01*
X252552953Y-135774491D01*
X112242856Y-135774491D01*
X112246820Y-135694870D01*
X112246820Y-135694864D01*
X112247047Y-135690301D01*
X112221541Y-135422965D01*
X112205451Y-135357207D01*
X112157711Y-135162111D01*
X112131824Y-135098198D01*
X112058606Y-134917433D01*
X112058606Y-134917432D01*
X112056893Y-134913204D01*
X111921200Y-134681458D01*
X111810286Y-134542767D01*
X111756326Y-134475293D01*
X111756325Y-134475291D01*
X111753474Y-134471727D01*
X111557229Y-134288405D01*
X111397511Y-134177604D01*
X111340329Y-134137935D01*
X111340324Y-134137932D01*
X111336576Y-134135332D01*
X111332491Y-134133300D01*
X111332488Y-134133298D01*
X111209697Y-134072211D01*
X111096137Y-134015716D01*
X111091803Y-134014295D01*
X111091800Y-134014294D01*
X110845282Y-133933481D01*
X110845277Y-133933480D01*
X110840949Y-133932061D01*
X110816973Y-133927898D01*
X110580139Y-133886776D01*
X110580131Y-133886775D01*
X110576358Y-133886120D01*
X110567697Y-133885689D01*
X110493079Y-133881974D01*
X110493071Y-133881974D01*
X110491508Y-133881896D01*
X110323852Y-133881896D01*
X110321584Y-133882061D01*
X110321572Y-133882061D01*
X110191252Y-133891517D01*
X110124229Y-133896380D01*
X110119774Y-133897364D01*
X110119771Y-133897364D01*
X109866455Y-133953291D01*
X109866451Y-133953292D01*
X109861995Y-133954276D01*
X109736430Y-134001848D01*
X109615134Y-134047803D01*
X109615131Y-134047804D01*
X109610864Y-134049421D01*
X109376099Y-134179822D01*
X109372467Y-134182594D01*
X109166242Y-134339979D01*
X109166238Y-134339983D01*
X109162617Y-134342746D01*
X109159432Y-134346004D01*
X109159431Y-134346005D01*
X109133538Y-134372492D01*
X108974890Y-134534782D01*
X108961850Y-134552697D01*
X108823012Y-134743440D01*
X108816850Y-134751905D01*
X108770582Y-134839847D01*
X108693935Y-134985528D01*
X108693932Y-134985534D01*
X108691810Y-134989568D01*
X108690290Y-134993873D01*
X108690288Y-134993877D01*
X108603910Y-135238480D01*
X108602387Y-135242793D01*
X108579836Y-135357207D01*
X108563934Y-135437889D01*
X108550455Y-135506274D01*
X108550228Y-135510827D01*
X108550228Y-135510830D01*
X108538238Y-135751696D01*
X108537103Y-135774491D01*
X88421875Y-135774491D01*
X88456292Y-135709075D01*
X88506065Y-135614472D01*
X88506068Y-135614466D01*
X88508190Y-135610432D01*
X88567628Y-135442119D01*
X88596090Y-135361520D01*
X88596090Y-135361519D01*
X88597613Y-135357207D01*
X88633125Y-135177035D01*
X88648664Y-135098198D01*
X88648665Y-135098192D01*
X88649545Y-135093726D01*
X88649772Y-135089170D01*
X88662670Y-134830078D01*
X88662670Y-134830072D01*
X88662897Y-134825509D01*
X88637391Y-134558173D01*
X88631668Y-134534782D01*
X88574646Y-134301753D01*
X88573561Y-134297319D01*
X88569951Y-134288405D01*
X88474456Y-134052641D01*
X88474456Y-134052640D01*
X88472743Y-134048412D01*
X88337050Y-133816666D01*
X88223403Y-133674557D01*
X88172176Y-133610501D01*
X88172175Y-133610499D01*
X88169324Y-133606935D01*
X87973079Y-133423613D01*
X87851543Y-133339300D01*
X87756179Y-133273143D01*
X87756174Y-133273140D01*
X87752426Y-133270540D01*
X87748341Y-133268508D01*
X87748338Y-133268506D01*
X87576485Y-133183011D01*
X87511987Y-133150924D01*
X87507653Y-133149503D01*
X87507650Y-133149502D01*
X87261132Y-133068689D01*
X87261127Y-133068688D01*
X87256799Y-133067269D01*
X87226770Y-133062055D01*
X86995989Y-133021984D01*
X86995981Y-133021983D01*
X86992208Y-133021328D01*
X86983547Y-133020897D01*
X86908929Y-133017182D01*
X86908921Y-133017182D01*
X86907358Y-133017104D01*
X86739702Y-133017104D01*
X86737434Y-133017269D01*
X86737422Y-133017269D01*
X86607102Y-133026725D01*
X86540079Y-133031588D01*
X86535624Y-133032572D01*
X86535621Y-133032572D01*
X86282305Y-133088499D01*
X86282301Y-133088500D01*
X86277845Y-133089484D01*
X86152280Y-133137056D01*
X86030984Y-133183011D01*
X86030981Y-133183012D01*
X86026714Y-133184629D01*
X85791949Y-133315030D01*
X85788317Y-133317802D01*
X85582092Y-133475187D01*
X85582088Y-133475191D01*
X85578467Y-133477954D01*
X85390740Y-133669990D01*
X85372538Y-133694997D01*
X85236441Y-133881974D01*
X85232700Y-133887113D01*
X85209170Y-133931837D01*
X85109785Y-134120736D01*
X85109782Y-134120742D01*
X85107660Y-134124776D01*
X85106140Y-134129081D01*
X85106138Y-134129085D01*
X85046729Y-134297319D01*
X85018237Y-134378001D01*
X84999061Y-134475293D01*
X84987336Y-134534782D01*
X84966305Y-134641482D01*
X84966078Y-134646035D01*
X84966078Y-134646038D01*
X84954043Y-134887811D01*
X84952953Y-134909699D01*
X39266642Y-134909699D01*
X39365782Y-134887811D01*
X39365786Y-134887810D01*
X39370242Y-134886826D01*
X39528657Y-134826808D01*
X39617103Y-134793299D01*
X39617106Y-134793298D01*
X39621373Y-134791681D01*
X39856138Y-134661280D01*
X39908028Y-134621679D01*
X40065995Y-134501123D01*
X40065999Y-134501119D01*
X40069620Y-134498356D01*
X40094694Y-134472707D01*
X40254161Y-134309579D01*
X40257347Y-134306320D01*
X40366982Y-134155698D01*
X40412700Y-134092889D01*
X40412702Y-134092886D01*
X40415387Y-134089197D01*
X40516315Y-133897364D01*
X40538302Y-133855574D01*
X40538305Y-133855568D01*
X40540427Y-133851534D01*
X40599865Y-133683221D01*
X40628327Y-133602622D01*
X40628327Y-133602621D01*
X40629850Y-133598309D01*
X40681782Y-133334828D01*
X40684853Y-133273143D01*
X40694907Y-133071180D01*
X40694907Y-133071174D01*
X40695134Y-133066611D01*
X40669628Y-132799275D01*
X40605798Y-132538421D01*
X40504980Y-132289514D01*
X40369287Y-132057768D01*
X40258373Y-131919077D01*
X40204413Y-131851603D01*
X40204412Y-131851601D01*
X40201561Y-131848037D01*
X40005316Y-131664715D01*
X39845598Y-131553914D01*
X39788416Y-131514245D01*
X39788411Y-131514242D01*
X39784663Y-131511642D01*
X39780578Y-131509610D01*
X39780575Y-131509608D01*
X39608722Y-131424113D01*
X39544224Y-131392026D01*
X39539890Y-131390605D01*
X39539887Y-131390604D01*
X39293369Y-131309791D01*
X39293364Y-131309790D01*
X39289036Y-131308371D01*
X39284544Y-131307591D01*
X39028226Y-131263086D01*
X39028218Y-131263085D01*
X39024445Y-131262430D01*
X39015784Y-131261999D01*
X38941166Y-131258284D01*
X38941158Y-131258284D01*
X38939595Y-131258206D01*
X38771939Y-131258206D01*
X38769671Y-131258371D01*
X38769659Y-131258371D01*
X38639339Y-131267827D01*
X38572316Y-131272690D01*
X38567861Y-131273674D01*
X38567858Y-131273674D01*
X38314542Y-131329601D01*
X38314538Y-131329602D01*
X38310082Y-131330586D01*
X38184517Y-131378158D01*
X38063221Y-131424113D01*
X38063218Y-131424114D01*
X38058951Y-131425731D01*
X37824186Y-131556132D01*
X37820554Y-131558904D01*
X37614329Y-131716289D01*
X37614325Y-131716293D01*
X37610704Y-131719056D01*
X37422977Y-131911092D01*
X37264937Y-132128215D01*
X37262813Y-132132253D01*
X37142022Y-132361838D01*
X37142019Y-132361844D01*
X37139897Y-132365878D01*
X37138377Y-132370183D01*
X37138375Y-132370187D01*
X37078966Y-132538421D01*
X37050474Y-132619103D01*
X36998542Y-132882584D01*
X36998315Y-132887137D01*
X36998315Y-132887140D01*
X36988162Y-133091102D01*
X36985190Y-133150801D01*
X24771322Y-133150801D01*
X24687782Y-133062055D01*
X24505003Y-132867885D01*
X24499956Y-132862188D01*
X24127789Y-132415622D01*
X24123095Y-132409630D01*
X24094073Y-132370187D01*
X23778575Y-131941413D01*
X23774252Y-131935150D01*
X23715914Y-131844920D01*
X23458623Y-131446977D01*
X23454690Y-131440470D01*
X23446378Y-131425731D01*
X23169117Y-130934136D01*
X23165580Y-130927397D01*
X22911100Y-130404745D01*
X22907976Y-130397804D01*
X22685517Y-129860741D01*
X22682818Y-129853624D01*
X22493189Y-129304097D01*
X22490925Y-129296831D01*
X22334828Y-128736884D01*
X22333006Y-128729494D01*
X22210998Y-128161121D01*
X22209626Y-128153635D01*
X22122157Y-127578928D01*
X22121240Y-127571372D01*
X22090530Y-127233435D01*
X22068632Y-126992452D01*
X22068172Y-126984861D01*
X22051580Y-126435748D01*
X22052987Y-126418853D01*
X22052987Y-126412170D01*
X22055408Y-126400000D01*
X22052921Y-126387496D01*
X22050500Y-126362915D01*
X22050500Y-122875000D01*
X32269592Y-122875000D01*
X32274500Y-122899674D01*
X32289034Y-122972740D01*
X32344399Y-123055601D01*
X32427260Y-123110966D01*
X32525000Y-123130408D01*
X32537171Y-123127987D01*
X32537172Y-123127987D01*
X32537504Y-123127921D01*
X32562085Y-123125500D01*
X46487915Y-123125500D01*
X46512496Y-123127921D01*
X46512828Y-123127987D01*
X46512829Y-123127987D01*
X46525000Y-123130408D01*
X46622740Y-123110966D01*
X46705601Y-123055601D01*
X46760966Y-122972740D01*
X46775500Y-122899674D01*
X46780408Y-122875000D01*
X51319592Y-122875000D01*
X51324500Y-122899674D01*
X51339034Y-122972740D01*
X51394399Y-123055601D01*
X51477260Y-123110966D01*
X51575000Y-123130408D01*
X51587171Y-123127987D01*
X51587172Y-123127987D01*
X51587504Y-123127921D01*
X51612085Y-123125500D01*
X65537915Y-123125500D01*
X65562496Y-123127921D01*
X65562828Y-123127987D01*
X65562829Y-123127987D01*
X65575000Y-123130408D01*
X65672740Y-123110966D01*
X65755601Y-123055601D01*
X65810966Y-122972740D01*
X65825500Y-122899674D01*
X65830408Y-122875000D01*
X70369592Y-122875000D01*
X70374500Y-122899674D01*
X70389034Y-122972740D01*
X70444399Y-123055601D01*
X70527260Y-123110966D01*
X70625000Y-123130408D01*
X70637171Y-123127987D01*
X70637172Y-123127987D01*
X70637504Y-123127921D01*
X70662085Y-123125500D01*
X84587915Y-123125500D01*
X84612496Y-123127921D01*
X84612828Y-123127987D01*
X84612829Y-123127987D01*
X84625000Y-123130408D01*
X84722740Y-123110966D01*
X84805601Y-123055601D01*
X84860966Y-122972740D01*
X84875500Y-122899674D01*
X84880408Y-122875000D01*
X89419592Y-122875000D01*
X89424500Y-122899674D01*
X89439034Y-122972740D01*
X89494399Y-123055601D01*
X89577260Y-123110966D01*
X89675000Y-123130408D01*
X89687171Y-123127987D01*
X89687172Y-123127987D01*
X89687504Y-123127921D01*
X89712085Y-123125500D01*
X103637915Y-123125500D01*
X103662496Y-123127921D01*
X103662828Y-123127987D01*
X103662829Y-123127987D01*
X103675000Y-123130408D01*
X103772740Y-123110966D01*
X103855601Y-123055601D01*
X103910966Y-122972740D01*
X103925500Y-122899674D01*
X103930408Y-122875000D01*
X108469592Y-122875000D01*
X108474500Y-122899674D01*
X108489034Y-122972740D01*
X108544399Y-123055601D01*
X108627260Y-123110966D01*
X108725000Y-123130408D01*
X108737171Y-123127987D01*
X108737172Y-123127987D01*
X108737504Y-123127921D01*
X108762085Y-123125500D01*
X122687915Y-123125500D01*
X122712496Y-123127921D01*
X122712828Y-123127987D01*
X122712829Y-123127987D01*
X122725000Y-123130408D01*
X122822740Y-123110966D01*
X122905601Y-123055601D01*
X122960966Y-122972740D01*
X122975500Y-122899674D01*
X122980408Y-122875000D01*
X127519592Y-122875000D01*
X127524500Y-122899674D01*
X127539034Y-122972740D01*
X127594399Y-123055601D01*
X127677260Y-123110966D01*
X127775000Y-123130408D01*
X127787171Y-123127987D01*
X127787172Y-123127987D01*
X127787504Y-123127921D01*
X127812085Y-123125500D01*
X141737915Y-123125500D01*
X141762496Y-123127921D01*
X141762828Y-123127987D01*
X141762829Y-123127987D01*
X141775000Y-123130408D01*
X141872740Y-123110966D01*
X141955601Y-123055601D01*
X142010966Y-122972740D01*
X142025500Y-122899674D01*
X142030408Y-122875000D01*
X146569592Y-122875000D01*
X146574500Y-122899674D01*
X146589034Y-122972740D01*
X146644399Y-123055601D01*
X146727260Y-123110966D01*
X146825000Y-123130408D01*
X146837171Y-123127987D01*
X146837172Y-123127987D01*
X146837504Y-123127921D01*
X146862085Y-123125500D01*
X160787915Y-123125500D01*
X160812496Y-123127921D01*
X160812828Y-123127987D01*
X160812829Y-123127987D01*
X160825000Y-123130408D01*
X160922740Y-123110966D01*
X161005601Y-123055601D01*
X161060966Y-122972740D01*
X161075500Y-122899674D01*
X161080408Y-122875000D01*
X165619592Y-122875000D01*
X165624500Y-122899674D01*
X165639034Y-122972740D01*
X165694399Y-123055601D01*
X165777260Y-123110966D01*
X165875000Y-123130408D01*
X165887171Y-123127987D01*
X165887172Y-123127987D01*
X165887504Y-123127921D01*
X165912085Y-123125500D01*
X179837915Y-123125500D01*
X179862496Y-123127921D01*
X179862828Y-123127987D01*
X179862829Y-123127987D01*
X179875000Y-123130408D01*
X179972740Y-123110966D01*
X180055601Y-123055601D01*
X180110966Y-122972740D01*
X180125500Y-122899674D01*
X180130408Y-122875000D01*
X184669592Y-122875000D01*
X184674500Y-122899674D01*
X184689034Y-122972740D01*
X184744399Y-123055601D01*
X184827260Y-123110966D01*
X184925000Y-123130408D01*
X184937171Y-123127987D01*
X184937172Y-123127987D01*
X184937504Y-123127921D01*
X184962085Y-123125500D01*
X198887915Y-123125500D01*
X198912496Y-123127921D01*
X198912828Y-123127987D01*
X198912829Y-123127987D01*
X198925000Y-123130408D01*
X199022740Y-123110966D01*
X199105601Y-123055601D01*
X199160966Y-122972740D01*
X199175500Y-122899674D01*
X199180408Y-122875000D01*
X203719592Y-122875000D01*
X203724500Y-122899674D01*
X203739034Y-122972740D01*
X203794399Y-123055601D01*
X203877260Y-123110966D01*
X203975000Y-123130408D01*
X203987171Y-123127987D01*
X203987172Y-123127987D01*
X203987504Y-123127921D01*
X204012085Y-123125500D01*
X217937915Y-123125500D01*
X217962496Y-123127921D01*
X217962828Y-123127987D01*
X217962829Y-123127987D01*
X217975000Y-123130408D01*
X218072740Y-123110966D01*
X218155601Y-123055601D01*
X218210966Y-122972740D01*
X218225500Y-122899674D01*
X218230408Y-122875000D01*
X222769592Y-122875000D01*
X222774500Y-122899674D01*
X222789034Y-122972740D01*
X222844399Y-123055601D01*
X222927260Y-123110966D01*
X223025000Y-123130408D01*
X223037171Y-123127987D01*
X223037172Y-123127987D01*
X223037504Y-123127921D01*
X223062085Y-123125500D01*
X236987915Y-123125500D01*
X237012496Y-123127921D01*
X237012828Y-123127987D01*
X237012829Y-123127987D01*
X237025000Y-123130408D01*
X237122740Y-123110966D01*
X237205601Y-123055601D01*
X237260966Y-122972740D01*
X237275500Y-122899674D01*
X237280408Y-122875000D01*
X241819592Y-122875000D01*
X241824500Y-122899674D01*
X241839034Y-122972740D01*
X241894399Y-123055601D01*
X241977260Y-123110966D01*
X242075000Y-123130408D01*
X242087171Y-123127987D01*
X242087172Y-123127987D01*
X242087504Y-123127921D01*
X242112085Y-123125500D01*
X256037915Y-123125500D01*
X256062496Y-123127921D01*
X256062828Y-123127987D01*
X256062829Y-123127987D01*
X256075000Y-123130408D01*
X256172740Y-123110966D01*
X256255601Y-123055601D01*
X256310966Y-122972740D01*
X256325500Y-122899674D01*
X256330408Y-122875000D01*
X260869592Y-122875000D01*
X260874500Y-122899674D01*
X260889034Y-122972740D01*
X260944399Y-123055601D01*
X261027260Y-123110966D01*
X261125000Y-123130408D01*
X261137171Y-123127987D01*
X261137172Y-123127987D01*
X261137504Y-123127921D01*
X261162085Y-123125500D01*
X275087915Y-123125500D01*
X275112496Y-123127921D01*
X275112828Y-123127987D01*
X275112829Y-123127987D01*
X275125000Y-123130408D01*
X275222740Y-123110966D01*
X275305601Y-123055601D01*
X275360966Y-122972740D01*
X275375500Y-122899674D01*
X275380408Y-122875000D01*
X279919592Y-122875000D01*
X279924500Y-122899674D01*
X279939034Y-122972740D01*
X279994399Y-123055601D01*
X280077260Y-123110966D01*
X280175000Y-123130408D01*
X280187171Y-123127987D01*
X280187172Y-123127987D01*
X280187504Y-123127921D01*
X280212085Y-123125500D01*
X294137915Y-123125500D01*
X294162496Y-123127921D01*
X294162828Y-123127987D01*
X294162829Y-123127987D01*
X294175000Y-123130408D01*
X294272740Y-123110966D01*
X294355601Y-123055601D01*
X294410966Y-122972740D01*
X294425500Y-122899674D01*
X294430408Y-122875000D01*
X298969592Y-122875000D01*
X298974500Y-122899674D01*
X298989034Y-122972740D01*
X299044399Y-123055601D01*
X299127260Y-123110966D01*
X299225000Y-123130408D01*
X299237171Y-123127987D01*
X299237172Y-123127987D01*
X299237504Y-123127921D01*
X299262085Y-123125500D01*
X313187915Y-123125500D01*
X313212496Y-123127921D01*
X313212828Y-123127987D01*
X313212829Y-123127987D01*
X313225000Y-123130408D01*
X313322740Y-123110966D01*
X313405601Y-123055601D01*
X313460966Y-122972740D01*
X313475500Y-122899674D01*
X313480408Y-122875000D01*
X318019592Y-122875000D01*
X318024500Y-122899674D01*
X318039034Y-122972740D01*
X318094399Y-123055601D01*
X318177260Y-123110966D01*
X318275000Y-123130408D01*
X318287171Y-123127987D01*
X318287172Y-123127987D01*
X318287504Y-123127921D01*
X318312085Y-123125500D01*
X332237915Y-123125500D01*
X332262496Y-123127921D01*
X332262828Y-123127987D01*
X332262829Y-123127987D01*
X332275000Y-123130408D01*
X332372740Y-123110966D01*
X332455601Y-123055601D01*
X332510966Y-122972740D01*
X332525500Y-122899674D01*
X332530408Y-122875000D01*
X332527921Y-122862496D01*
X332525500Y-122837915D01*
X332525500Y-119442095D01*
X337545028Y-119442095D01*
X337570534Y-119709431D01*
X337634364Y-119970285D01*
X337735182Y-120219192D01*
X337870875Y-120450938D01*
X337873728Y-120454505D01*
X337985225Y-120593925D01*
X338038601Y-120660669D01*
X338234846Y-120843991D01*
X338327039Y-120907948D01*
X338451746Y-120994461D01*
X338451751Y-120994464D01*
X338455499Y-120997064D01*
X338459584Y-120999096D01*
X338459587Y-120999098D01*
X338575718Y-121056872D01*
X338695938Y-121116680D01*
X338700272Y-121118101D01*
X338700275Y-121118102D01*
X338946793Y-121198915D01*
X338946798Y-121198916D01*
X338951126Y-121200335D01*
X338955617Y-121201115D01*
X338955618Y-121201115D01*
X339211936Y-121245620D01*
X339211944Y-121245621D01*
X339215717Y-121246276D01*
X339219554Y-121246467D01*
X339298996Y-121250422D01*
X339299004Y-121250422D01*
X339300567Y-121250500D01*
X339468223Y-121250500D01*
X339470491Y-121250335D01*
X339470503Y-121250335D01*
X339600823Y-121240879D01*
X339667846Y-121236016D01*
X339672301Y-121235032D01*
X339672304Y-121235032D01*
X339925620Y-121179105D01*
X339925624Y-121179104D01*
X339930080Y-121178120D01*
X340097617Y-121114646D01*
X340176941Y-121084593D01*
X340176944Y-121084592D01*
X340181211Y-121082975D01*
X340415976Y-120952574D01*
X340558254Y-120843991D01*
X340625833Y-120792417D01*
X340625837Y-120792413D01*
X340629458Y-120789650D01*
X340817185Y-120597614D01*
X340975225Y-120380491D01*
X341062313Y-120214963D01*
X341098140Y-120146868D01*
X341098143Y-120146862D01*
X341100265Y-120142828D01*
X341159703Y-119974515D01*
X341188165Y-119893916D01*
X341188165Y-119893915D01*
X341189688Y-119889603D01*
X341241620Y-119626122D01*
X341241847Y-119621566D01*
X341254745Y-119362474D01*
X341254745Y-119362468D01*
X341254972Y-119357905D01*
X341229466Y-119090569D01*
X341165636Y-118829715D01*
X341064818Y-118580808D01*
X340929125Y-118349062D01*
X340818211Y-118210371D01*
X340764251Y-118142897D01*
X340764250Y-118142895D01*
X340761399Y-118139331D01*
X340565154Y-117956009D01*
X340405436Y-117845208D01*
X340348254Y-117805539D01*
X340348249Y-117805536D01*
X340344501Y-117802936D01*
X340340416Y-117800904D01*
X340340413Y-117800902D01*
X340168560Y-117715407D01*
X340104062Y-117683320D01*
X340099728Y-117681899D01*
X340099725Y-117681898D01*
X339853207Y-117601085D01*
X339853202Y-117601084D01*
X339848874Y-117599665D01*
X339844382Y-117598885D01*
X339588064Y-117554380D01*
X339588056Y-117554379D01*
X339584283Y-117553724D01*
X339575622Y-117553293D01*
X339501004Y-117549578D01*
X339500996Y-117549578D01*
X339499433Y-117549500D01*
X339331777Y-117549500D01*
X339329509Y-117549665D01*
X339329497Y-117549665D01*
X339199177Y-117559121D01*
X339132154Y-117563984D01*
X339127699Y-117564968D01*
X339127696Y-117564968D01*
X338874380Y-117620895D01*
X338874376Y-117620896D01*
X338869920Y-117621880D01*
X338744354Y-117669453D01*
X338623059Y-117715407D01*
X338623056Y-117715408D01*
X338618789Y-117717025D01*
X338384024Y-117847426D01*
X338380392Y-117850198D01*
X338174167Y-118007583D01*
X338174163Y-118007587D01*
X338170542Y-118010350D01*
X337982815Y-118202386D01*
X337824775Y-118419509D01*
X337822651Y-118423547D01*
X337701860Y-118653132D01*
X337701857Y-118653138D01*
X337699735Y-118657172D01*
X337698215Y-118661477D01*
X337698213Y-118661481D01*
X337638804Y-118829715D01*
X337610312Y-118910397D01*
X337558380Y-119173878D01*
X337558153Y-119178431D01*
X337558153Y-119178434D01*
X337548992Y-119362474D01*
X337545028Y-119442095D01*
X332525500Y-119442095D01*
X332525500Y-108912085D01*
X332527921Y-108887504D01*
X332527987Y-108887172D01*
X332527987Y-108887171D01*
X332530408Y-108875000D01*
X332510966Y-108777260D01*
X332455601Y-108694399D01*
X332372740Y-108639034D01*
X332299674Y-108624500D01*
X332275000Y-108619592D01*
X332262829Y-108622013D01*
X332262828Y-108622013D01*
X332262496Y-108622079D01*
X332237915Y-108624500D01*
X318312085Y-108624500D01*
X318287504Y-108622079D01*
X318287172Y-108622013D01*
X318287171Y-108622013D01*
X318275000Y-108619592D01*
X318250326Y-108624500D01*
X318177260Y-108639034D01*
X318094399Y-108694399D01*
X318039034Y-108777260D01*
X318019592Y-108875000D01*
X318022013Y-108887171D01*
X318022013Y-108887172D01*
X318022079Y-108887504D01*
X318024500Y-108912085D01*
X318024500Y-122837915D01*
X318022079Y-122862496D01*
X318019592Y-122875000D01*
X313480408Y-122875000D01*
X313477921Y-122862496D01*
X313475500Y-122837915D01*
X313475500Y-108912085D01*
X313477921Y-108887504D01*
X313477987Y-108887172D01*
X313477987Y-108887171D01*
X313480408Y-108875000D01*
X313460966Y-108777260D01*
X313405601Y-108694399D01*
X313322740Y-108639034D01*
X313249674Y-108624500D01*
X313225000Y-108619592D01*
X313212829Y-108622013D01*
X313212828Y-108622013D01*
X313212496Y-108622079D01*
X313187915Y-108624500D01*
X299262085Y-108624500D01*
X299237504Y-108622079D01*
X299237172Y-108622013D01*
X299237171Y-108622013D01*
X299225000Y-108619592D01*
X299200326Y-108624500D01*
X299127260Y-108639034D01*
X299044399Y-108694399D01*
X298989034Y-108777260D01*
X298969592Y-108875000D01*
X298972013Y-108887171D01*
X298972013Y-108887172D01*
X298972079Y-108887504D01*
X298974500Y-108912085D01*
X298974500Y-122837915D01*
X298972079Y-122862496D01*
X298969592Y-122875000D01*
X294430408Y-122875000D01*
X294427921Y-122862496D01*
X294425500Y-122837915D01*
X294425500Y-108912085D01*
X294427921Y-108887504D01*
X294427987Y-108887172D01*
X294427987Y-108887171D01*
X294430408Y-108875000D01*
X294410966Y-108777260D01*
X294355601Y-108694399D01*
X294272740Y-108639034D01*
X294199674Y-108624500D01*
X294175000Y-108619592D01*
X294162829Y-108622013D01*
X294162828Y-108622013D01*
X294162496Y-108622079D01*
X294137915Y-108624500D01*
X280212085Y-108624500D01*
X280187504Y-108622079D01*
X280187172Y-108622013D01*
X280187171Y-108622013D01*
X280175000Y-108619592D01*
X280150326Y-108624500D01*
X280077260Y-108639034D01*
X279994399Y-108694399D01*
X279939034Y-108777260D01*
X279919592Y-108875000D01*
X279922013Y-108887171D01*
X279922013Y-108887172D01*
X279922079Y-108887504D01*
X279924500Y-108912085D01*
X279924500Y-122837915D01*
X279922079Y-122862496D01*
X279919592Y-122875000D01*
X275380408Y-122875000D01*
X275377921Y-122862496D01*
X275375500Y-122837915D01*
X275375500Y-108912085D01*
X275377921Y-108887504D01*
X275377987Y-108887172D01*
X275377987Y-108887171D01*
X275380408Y-108875000D01*
X275360966Y-108777260D01*
X275305601Y-108694399D01*
X275222740Y-108639034D01*
X275149674Y-108624500D01*
X275125000Y-108619592D01*
X275112829Y-108622013D01*
X275112828Y-108622013D01*
X275112496Y-108622079D01*
X275087915Y-108624500D01*
X261162085Y-108624500D01*
X261137504Y-108622079D01*
X261137172Y-108622013D01*
X261137171Y-108622013D01*
X261125000Y-108619592D01*
X261100326Y-108624500D01*
X261027260Y-108639034D01*
X260944399Y-108694399D01*
X260889034Y-108777260D01*
X260869592Y-108875000D01*
X260872013Y-108887171D01*
X260872013Y-108887172D01*
X260872079Y-108887504D01*
X260874500Y-108912085D01*
X260874500Y-122837915D01*
X260872079Y-122862496D01*
X260869592Y-122875000D01*
X256330408Y-122875000D01*
X256327921Y-122862496D01*
X256325500Y-122837915D01*
X256325500Y-108912085D01*
X256327921Y-108887504D01*
X256327987Y-108887172D01*
X256327987Y-108887171D01*
X256330408Y-108875000D01*
X256310966Y-108777260D01*
X256255601Y-108694399D01*
X256172740Y-108639034D01*
X256099674Y-108624500D01*
X256075000Y-108619592D01*
X256062829Y-108622013D01*
X256062828Y-108622013D01*
X256062496Y-108622079D01*
X256037915Y-108624500D01*
X242112085Y-108624500D01*
X242087504Y-108622079D01*
X242087172Y-108622013D01*
X242087171Y-108622013D01*
X242075000Y-108619592D01*
X242050326Y-108624500D01*
X241977260Y-108639034D01*
X241894399Y-108694399D01*
X241839034Y-108777260D01*
X241819592Y-108875000D01*
X241822013Y-108887171D01*
X241822013Y-108887172D01*
X241822079Y-108887504D01*
X241824500Y-108912085D01*
X241824500Y-122837915D01*
X241822079Y-122862496D01*
X241819592Y-122875000D01*
X237280408Y-122875000D01*
X237277921Y-122862496D01*
X237275500Y-122837915D01*
X237275500Y-108912085D01*
X237277921Y-108887504D01*
X237277987Y-108887172D01*
X237277987Y-108887171D01*
X237280408Y-108875000D01*
X237260966Y-108777260D01*
X237205601Y-108694399D01*
X237122740Y-108639034D01*
X237049674Y-108624500D01*
X237025000Y-108619592D01*
X237012829Y-108622013D01*
X237012828Y-108622013D01*
X237012496Y-108622079D01*
X236987915Y-108624500D01*
X223062085Y-108624500D01*
X223037504Y-108622079D01*
X223037172Y-108622013D01*
X223037171Y-108622013D01*
X223025000Y-108619592D01*
X223000326Y-108624500D01*
X222927260Y-108639034D01*
X222844399Y-108694399D01*
X222789034Y-108777260D01*
X222769592Y-108875000D01*
X222772013Y-108887171D01*
X222772013Y-108887172D01*
X222772079Y-108887504D01*
X222774500Y-108912085D01*
X222774500Y-122837915D01*
X222772079Y-122862496D01*
X222769592Y-122875000D01*
X218230408Y-122875000D01*
X218227921Y-122862496D01*
X218225500Y-122837915D01*
X218225500Y-108912085D01*
X218227921Y-108887504D01*
X218227987Y-108887172D01*
X218227987Y-108887171D01*
X218230408Y-108875000D01*
X218210966Y-108777260D01*
X218155601Y-108694399D01*
X218072740Y-108639034D01*
X217999674Y-108624500D01*
X217975000Y-108619592D01*
X217962829Y-108622013D01*
X217962828Y-108622013D01*
X217962496Y-108622079D01*
X217937915Y-108624500D01*
X204012085Y-108624500D01*
X203987504Y-108622079D01*
X203987172Y-108622013D01*
X203987171Y-108622013D01*
X203975000Y-108619592D01*
X203950326Y-108624500D01*
X203877260Y-108639034D01*
X203794399Y-108694399D01*
X203739034Y-108777260D01*
X203719592Y-108875000D01*
X203722013Y-108887171D01*
X203722013Y-108887172D01*
X203722079Y-108887504D01*
X203724500Y-108912085D01*
X203724500Y-122837915D01*
X203722079Y-122862496D01*
X203719592Y-122875000D01*
X199180408Y-122875000D01*
X199177921Y-122862496D01*
X199175500Y-122837915D01*
X199175500Y-108912085D01*
X199177921Y-108887504D01*
X199177987Y-108887172D01*
X199177987Y-108887171D01*
X199180408Y-108875000D01*
X199160966Y-108777260D01*
X199105601Y-108694399D01*
X199022740Y-108639034D01*
X198949674Y-108624500D01*
X198925000Y-108619592D01*
X198912829Y-108622013D01*
X198912828Y-108622013D01*
X198912496Y-108622079D01*
X198887915Y-108624500D01*
X184962085Y-108624500D01*
X184937504Y-108622079D01*
X184937172Y-108622013D01*
X184937171Y-108622013D01*
X184925000Y-108619592D01*
X184900326Y-108624500D01*
X184827260Y-108639034D01*
X184744399Y-108694399D01*
X184689034Y-108777260D01*
X184669592Y-108875000D01*
X184672013Y-108887171D01*
X184672013Y-108887172D01*
X184672079Y-108887504D01*
X184674500Y-108912085D01*
X184674500Y-122837915D01*
X184672079Y-122862496D01*
X184669592Y-122875000D01*
X180130408Y-122875000D01*
X180127921Y-122862496D01*
X180125500Y-122837915D01*
X180125500Y-108912085D01*
X180127921Y-108887504D01*
X180127987Y-108887172D01*
X180127987Y-108887171D01*
X180130408Y-108875000D01*
X180110966Y-108777260D01*
X180055601Y-108694399D01*
X179972740Y-108639034D01*
X179899674Y-108624500D01*
X179875000Y-108619592D01*
X179862829Y-108622013D01*
X179862828Y-108622013D01*
X179862496Y-108622079D01*
X179837915Y-108624500D01*
X165912085Y-108624500D01*
X165887504Y-108622079D01*
X165887172Y-108622013D01*
X165887171Y-108622013D01*
X165875000Y-108619592D01*
X165850326Y-108624500D01*
X165777260Y-108639034D01*
X165694399Y-108694399D01*
X165639034Y-108777260D01*
X165619592Y-108875000D01*
X165622013Y-108887171D01*
X165622013Y-108887172D01*
X165622079Y-108887504D01*
X165624500Y-108912085D01*
X165624500Y-122837915D01*
X165622079Y-122862496D01*
X165619592Y-122875000D01*
X161080408Y-122875000D01*
X161077921Y-122862496D01*
X161075500Y-122837915D01*
X161075500Y-108912085D01*
X161077921Y-108887504D01*
X161077987Y-108887172D01*
X161077987Y-108887171D01*
X161080408Y-108875000D01*
X161060966Y-108777260D01*
X161005601Y-108694399D01*
X160922740Y-108639034D01*
X160849674Y-108624500D01*
X160825000Y-108619592D01*
X160812829Y-108622013D01*
X160812828Y-108622013D01*
X160812496Y-108622079D01*
X160787915Y-108624500D01*
X146862085Y-108624500D01*
X146837504Y-108622079D01*
X146837172Y-108622013D01*
X146837171Y-108622013D01*
X146825000Y-108619592D01*
X146800326Y-108624500D01*
X146727260Y-108639034D01*
X146644399Y-108694399D01*
X146589034Y-108777260D01*
X146569592Y-108875000D01*
X146572013Y-108887171D01*
X146572013Y-108887172D01*
X146572079Y-108887504D01*
X146574500Y-108912085D01*
X146574500Y-122837915D01*
X146572079Y-122862496D01*
X146569592Y-122875000D01*
X142030408Y-122875000D01*
X142027921Y-122862496D01*
X142025500Y-122837915D01*
X142025500Y-108912085D01*
X142027921Y-108887504D01*
X142027987Y-108887172D01*
X142027987Y-108887171D01*
X142030408Y-108875000D01*
X142010966Y-108777260D01*
X141955601Y-108694399D01*
X141872740Y-108639034D01*
X141799674Y-108624500D01*
X141775000Y-108619592D01*
X141762829Y-108622013D01*
X141762828Y-108622013D01*
X141762496Y-108622079D01*
X141737915Y-108624500D01*
X127812085Y-108624500D01*
X127787504Y-108622079D01*
X127787172Y-108622013D01*
X127787171Y-108622013D01*
X127775000Y-108619592D01*
X127750326Y-108624500D01*
X127677260Y-108639034D01*
X127594399Y-108694399D01*
X127539034Y-108777260D01*
X127519592Y-108875000D01*
X127522013Y-108887171D01*
X127522013Y-108887172D01*
X127522079Y-108887504D01*
X127524500Y-108912085D01*
X127524500Y-122837915D01*
X127522079Y-122862496D01*
X127519592Y-122875000D01*
X122980408Y-122875000D01*
X122977921Y-122862496D01*
X122975500Y-122837915D01*
X122975500Y-108912085D01*
X122977921Y-108887504D01*
X122977987Y-108887172D01*
X122977987Y-108887171D01*
X122980408Y-108875000D01*
X122960966Y-108777260D01*
X122905601Y-108694399D01*
X122822740Y-108639034D01*
X122749674Y-108624500D01*
X122725000Y-108619592D01*
X122712829Y-108622013D01*
X122712828Y-108622013D01*
X122712496Y-108622079D01*
X122687915Y-108624500D01*
X108762085Y-108624500D01*
X108737504Y-108622079D01*
X108737172Y-108622013D01*
X108737171Y-108622013D01*
X108725000Y-108619592D01*
X108700326Y-108624500D01*
X108627260Y-108639034D01*
X108544399Y-108694399D01*
X108489034Y-108777260D01*
X108469592Y-108875000D01*
X108472013Y-108887171D01*
X108472013Y-108887172D01*
X108472079Y-108887504D01*
X108474500Y-108912085D01*
X108474500Y-122837915D01*
X108472079Y-122862496D01*
X108469592Y-122875000D01*
X103930408Y-122875000D01*
X103927921Y-122862496D01*
X103925500Y-122837915D01*
X103925500Y-108912085D01*
X103927921Y-108887504D01*
X103927987Y-108887172D01*
X103927987Y-108887171D01*
X103930408Y-108875000D01*
X103910966Y-108777260D01*
X103855601Y-108694399D01*
X103772740Y-108639034D01*
X103699674Y-108624500D01*
X103675000Y-108619592D01*
X103662829Y-108622013D01*
X103662828Y-108622013D01*
X103662496Y-108622079D01*
X103637915Y-108624500D01*
X89712085Y-108624500D01*
X89687504Y-108622079D01*
X89687172Y-108622013D01*
X89687171Y-108622013D01*
X89675000Y-108619592D01*
X89650326Y-108624500D01*
X89577260Y-108639034D01*
X89494399Y-108694399D01*
X89439034Y-108777260D01*
X89419592Y-108875000D01*
X89422013Y-108887171D01*
X89422013Y-108887172D01*
X89422079Y-108887504D01*
X89424500Y-108912085D01*
X89424500Y-122837915D01*
X89422079Y-122862496D01*
X89419592Y-122875000D01*
X84880408Y-122875000D01*
X84877921Y-122862496D01*
X84875500Y-122837915D01*
X84875500Y-108912085D01*
X84877921Y-108887504D01*
X84877987Y-108887172D01*
X84877987Y-108887171D01*
X84880408Y-108875000D01*
X84860966Y-108777260D01*
X84805601Y-108694399D01*
X84722740Y-108639034D01*
X84649674Y-108624500D01*
X84625000Y-108619592D01*
X84612829Y-108622013D01*
X84612828Y-108622013D01*
X84612496Y-108622079D01*
X84587915Y-108624500D01*
X70662085Y-108624500D01*
X70637504Y-108622079D01*
X70637172Y-108622013D01*
X70637171Y-108622013D01*
X70625000Y-108619592D01*
X70600326Y-108624500D01*
X70527260Y-108639034D01*
X70444399Y-108694399D01*
X70389034Y-108777260D01*
X70369592Y-108875000D01*
X70372013Y-108887171D01*
X70372013Y-108887172D01*
X70372079Y-108887504D01*
X70374500Y-108912085D01*
X70374500Y-122837915D01*
X70372079Y-122862496D01*
X70369592Y-122875000D01*
X65830408Y-122875000D01*
X65827921Y-122862496D01*
X65825500Y-122837915D01*
X65825500Y-108912085D01*
X65827921Y-108887504D01*
X65827987Y-108887172D01*
X65827987Y-108887171D01*
X65830408Y-108875000D01*
X65810966Y-108777260D01*
X65755601Y-108694399D01*
X65672740Y-108639034D01*
X65599674Y-108624500D01*
X65575000Y-108619592D01*
X65562829Y-108622013D01*
X65562828Y-108622013D01*
X65562496Y-108622079D01*
X65537915Y-108624500D01*
X51612085Y-108624500D01*
X51587504Y-108622079D01*
X51587172Y-108622013D01*
X51587171Y-108622013D01*
X51575000Y-108619592D01*
X51550326Y-108624500D01*
X51477260Y-108639034D01*
X51394399Y-108694399D01*
X51339034Y-108777260D01*
X51319592Y-108875000D01*
X51322013Y-108887171D01*
X51322013Y-108887172D01*
X51322079Y-108887504D01*
X51324500Y-108912085D01*
X51324500Y-122837915D01*
X51322079Y-122862496D01*
X51319592Y-122875000D01*
X46780408Y-122875000D01*
X46777921Y-122862496D01*
X46775500Y-122837915D01*
X46775500Y-108912085D01*
X46777921Y-108887504D01*
X46777987Y-108887172D01*
X46777987Y-108887171D01*
X46780408Y-108875000D01*
X46760966Y-108777260D01*
X46705601Y-108694399D01*
X46622740Y-108639034D01*
X46549674Y-108624500D01*
X46525000Y-108619592D01*
X46512829Y-108622013D01*
X46512828Y-108622013D01*
X46512496Y-108622079D01*
X46487915Y-108624500D01*
X32562085Y-108624500D01*
X32537504Y-108622079D01*
X32537172Y-108622013D01*
X32537171Y-108622013D01*
X32525000Y-108619592D01*
X32500326Y-108624500D01*
X32427260Y-108639034D01*
X32344399Y-108694399D01*
X32289034Y-108777260D01*
X32269592Y-108875000D01*
X32272013Y-108887171D01*
X32272013Y-108887172D01*
X32272079Y-108887504D01*
X32274500Y-108912085D01*
X32274500Y-122837915D01*
X32272079Y-122862496D01*
X32269592Y-122875000D01*
X22050500Y-122875000D01*
X22050500Y-119442095D01*
X23545028Y-119442095D01*
X23570534Y-119709431D01*
X23634364Y-119970285D01*
X23735182Y-120219192D01*
X23870875Y-120450938D01*
X23873728Y-120454505D01*
X23985225Y-120593925D01*
X24038601Y-120660669D01*
X24234846Y-120843991D01*
X24327039Y-120907948D01*
X24451746Y-120994461D01*
X24451751Y-120994464D01*
X24455499Y-120997064D01*
X24459584Y-120999096D01*
X24459587Y-120999098D01*
X24575718Y-121056872D01*
X24695938Y-121116680D01*
X24700272Y-121118101D01*
X24700275Y-121118102D01*
X24946793Y-121198915D01*
X24946798Y-121198916D01*
X24951126Y-121200335D01*
X24955617Y-121201115D01*
X24955618Y-121201115D01*
X25211936Y-121245620D01*
X25211944Y-121245621D01*
X25215717Y-121246276D01*
X25219554Y-121246467D01*
X25298996Y-121250422D01*
X25299004Y-121250422D01*
X25300567Y-121250500D01*
X25468223Y-121250500D01*
X25470491Y-121250335D01*
X25470503Y-121250335D01*
X25600823Y-121240879D01*
X25667846Y-121236016D01*
X25672301Y-121235032D01*
X25672304Y-121235032D01*
X25925620Y-121179105D01*
X25925624Y-121179104D01*
X25930080Y-121178120D01*
X26097617Y-121114646D01*
X26176941Y-121084593D01*
X26176944Y-121084592D01*
X26181211Y-121082975D01*
X26415976Y-120952574D01*
X26558254Y-120843991D01*
X26625833Y-120792417D01*
X26625837Y-120792413D01*
X26629458Y-120789650D01*
X26817185Y-120597614D01*
X26975225Y-120380491D01*
X27062313Y-120214963D01*
X27098140Y-120146868D01*
X27098143Y-120146862D01*
X27100265Y-120142828D01*
X27159703Y-119974515D01*
X27188165Y-119893916D01*
X27188165Y-119893915D01*
X27189688Y-119889603D01*
X27241620Y-119626122D01*
X27241847Y-119621566D01*
X27254745Y-119362474D01*
X27254745Y-119362468D01*
X27254972Y-119357905D01*
X27229466Y-119090569D01*
X27165636Y-118829715D01*
X27064818Y-118580808D01*
X26929125Y-118349062D01*
X26818211Y-118210371D01*
X26764251Y-118142897D01*
X26764250Y-118142895D01*
X26761399Y-118139331D01*
X26565154Y-117956009D01*
X26405436Y-117845208D01*
X26348254Y-117805539D01*
X26348249Y-117805536D01*
X26344501Y-117802936D01*
X26340416Y-117800904D01*
X26340413Y-117800902D01*
X26168560Y-117715407D01*
X26104062Y-117683320D01*
X26099728Y-117681899D01*
X26099725Y-117681898D01*
X25853207Y-117601085D01*
X25853202Y-117601084D01*
X25848874Y-117599665D01*
X25844382Y-117598885D01*
X25588064Y-117554380D01*
X25588056Y-117554379D01*
X25584283Y-117553724D01*
X25575622Y-117553293D01*
X25501004Y-117549578D01*
X25500996Y-117549578D01*
X25499433Y-117549500D01*
X25331777Y-117549500D01*
X25329509Y-117549665D01*
X25329497Y-117549665D01*
X25199177Y-117559121D01*
X25132154Y-117563984D01*
X25127699Y-117564968D01*
X25127696Y-117564968D01*
X24874380Y-117620895D01*
X24874376Y-117620896D01*
X24869920Y-117621880D01*
X24744354Y-117669453D01*
X24623059Y-117715407D01*
X24623056Y-117715408D01*
X24618789Y-117717025D01*
X24384024Y-117847426D01*
X24380392Y-117850198D01*
X24174167Y-118007583D01*
X24174163Y-118007587D01*
X24170542Y-118010350D01*
X23982815Y-118202386D01*
X23824775Y-118419509D01*
X23822651Y-118423547D01*
X23701860Y-118653132D01*
X23701857Y-118653138D01*
X23699735Y-118657172D01*
X23698215Y-118661477D01*
X23698213Y-118661481D01*
X23638804Y-118829715D01*
X23610312Y-118910397D01*
X23558380Y-119173878D01*
X23558153Y-119178431D01*
X23558153Y-119178434D01*
X23548992Y-119362474D01*
X23545028Y-119442095D01*
X22050500Y-119442095D01*
X22050500Y-103825000D01*
X32269592Y-103825000D01*
X32274500Y-103849674D01*
X32289034Y-103922740D01*
X32344399Y-104005601D01*
X32427260Y-104060966D01*
X32525000Y-104080408D01*
X32537171Y-104077987D01*
X32537172Y-104077987D01*
X32537504Y-104077921D01*
X32562085Y-104075500D01*
X46487915Y-104075500D01*
X46512496Y-104077921D01*
X46512828Y-104077987D01*
X46512829Y-104077987D01*
X46525000Y-104080408D01*
X46622740Y-104060966D01*
X46705601Y-104005601D01*
X46760966Y-103922740D01*
X46775500Y-103849674D01*
X46780408Y-103825000D01*
X56082092Y-103825000D01*
X56087000Y-103849674D01*
X56101534Y-103922740D01*
X56156899Y-104005601D01*
X56239760Y-104060966D01*
X56337500Y-104080408D01*
X56349671Y-104077987D01*
X56349672Y-104077987D01*
X56350004Y-104077921D01*
X56374585Y-104075500D01*
X70300415Y-104075500D01*
X70324996Y-104077921D01*
X70325328Y-104077987D01*
X70325329Y-104077987D01*
X70337500Y-104080408D01*
X70435240Y-104060966D01*
X70518101Y-104005601D01*
X70573466Y-103922740D01*
X70588000Y-103849674D01*
X70592908Y-103825000D01*
X79894592Y-103825000D01*
X79899500Y-103849674D01*
X79914034Y-103922740D01*
X79969399Y-104005601D01*
X80052260Y-104060966D01*
X80150000Y-104080408D01*
X80162171Y-104077987D01*
X80162172Y-104077987D01*
X80162504Y-104077921D01*
X80187085Y-104075500D01*
X94112915Y-104075500D01*
X94137496Y-104077921D01*
X94137828Y-104077987D01*
X94137829Y-104077987D01*
X94150000Y-104080408D01*
X94247740Y-104060966D01*
X94330601Y-104005601D01*
X94385966Y-103922740D01*
X94400500Y-103849674D01*
X94405408Y-103825000D01*
X98944592Y-103825000D01*
X98949500Y-103849674D01*
X98964034Y-103922740D01*
X99019399Y-104005601D01*
X99102260Y-104060966D01*
X99200000Y-104080408D01*
X99212171Y-104077987D01*
X99212172Y-104077987D01*
X99212504Y-104077921D01*
X99237085Y-104075500D01*
X113162915Y-104075500D01*
X113187496Y-104077921D01*
X113187828Y-104077987D01*
X113187829Y-104077987D01*
X113200000Y-104080408D01*
X113297740Y-104060966D01*
X113380601Y-104005601D01*
X113435966Y-103922740D01*
X113450500Y-103849674D01*
X113455408Y-103825000D01*
X117994592Y-103825000D01*
X117999500Y-103849674D01*
X118014034Y-103922740D01*
X118069399Y-104005601D01*
X118152260Y-104060966D01*
X118250000Y-104080408D01*
X118262171Y-104077987D01*
X118262172Y-104077987D01*
X118262504Y-104077921D01*
X118287085Y-104075500D01*
X132212915Y-104075500D01*
X132237496Y-104077921D01*
X132237828Y-104077987D01*
X132237829Y-104077987D01*
X132250000Y-104080408D01*
X132347740Y-104060966D01*
X132430601Y-104005601D01*
X132485966Y-103922740D01*
X132500500Y-103849674D01*
X132505408Y-103825000D01*
X137044592Y-103825000D01*
X137049500Y-103849674D01*
X137064034Y-103922740D01*
X137119399Y-104005601D01*
X137202260Y-104060966D01*
X137300000Y-104080408D01*
X137312171Y-104077987D01*
X137312172Y-104077987D01*
X137312504Y-104077921D01*
X137337085Y-104075500D01*
X151262915Y-104075500D01*
X151287496Y-104077921D01*
X151287828Y-104077987D01*
X151287829Y-104077987D01*
X151300000Y-104080408D01*
X151397740Y-104060966D01*
X151480601Y-104005601D01*
X151535966Y-103922740D01*
X151550500Y-103849674D01*
X151555408Y-103825000D01*
X156094592Y-103825000D01*
X156099500Y-103849674D01*
X156114034Y-103922740D01*
X156169399Y-104005601D01*
X156252260Y-104060966D01*
X156350000Y-104080408D01*
X156362171Y-104077987D01*
X156362172Y-104077987D01*
X156362504Y-104077921D01*
X156387085Y-104075500D01*
X170312915Y-104075500D01*
X170337496Y-104077921D01*
X170337828Y-104077987D01*
X170337829Y-104077987D01*
X170350000Y-104080408D01*
X170447740Y-104060966D01*
X170530601Y-104005601D01*
X170585966Y-103922740D01*
X170600500Y-103849674D01*
X170605408Y-103825000D01*
X175144592Y-103825000D01*
X175149500Y-103849674D01*
X175164034Y-103922740D01*
X175219399Y-104005601D01*
X175302260Y-104060966D01*
X175400000Y-104080408D01*
X175412171Y-104077987D01*
X175412172Y-104077987D01*
X175412504Y-104077921D01*
X175437085Y-104075500D01*
X189362915Y-104075500D01*
X189387496Y-104077921D01*
X189387828Y-104077987D01*
X189387829Y-104077987D01*
X189400000Y-104080408D01*
X189497740Y-104060966D01*
X189580601Y-104005601D01*
X189635966Y-103922740D01*
X189650500Y-103849674D01*
X189655408Y-103825000D01*
X194194592Y-103825000D01*
X194199500Y-103849674D01*
X194214034Y-103922740D01*
X194269399Y-104005601D01*
X194352260Y-104060966D01*
X194450000Y-104080408D01*
X194462171Y-104077987D01*
X194462172Y-104077987D01*
X194462504Y-104077921D01*
X194487085Y-104075500D01*
X208412915Y-104075500D01*
X208437496Y-104077921D01*
X208437828Y-104077987D01*
X208437829Y-104077987D01*
X208450000Y-104080408D01*
X208547740Y-104060966D01*
X208630601Y-104005601D01*
X208685966Y-103922740D01*
X208700500Y-103849674D01*
X208705408Y-103825000D01*
X213244592Y-103825000D01*
X213249500Y-103849674D01*
X213264034Y-103922740D01*
X213319399Y-104005601D01*
X213402260Y-104060966D01*
X213500000Y-104080408D01*
X213512171Y-104077987D01*
X213512172Y-104077987D01*
X213512504Y-104077921D01*
X213537085Y-104075500D01*
X227462915Y-104075500D01*
X227487496Y-104077921D01*
X227487828Y-104077987D01*
X227487829Y-104077987D01*
X227500000Y-104080408D01*
X227597740Y-104060966D01*
X227680601Y-104005601D01*
X227735966Y-103922740D01*
X227750500Y-103849674D01*
X227755408Y-103825000D01*
X232294592Y-103825000D01*
X232299500Y-103849674D01*
X232314034Y-103922740D01*
X232369399Y-104005601D01*
X232452260Y-104060966D01*
X232550000Y-104080408D01*
X232562171Y-104077987D01*
X232562172Y-104077987D01*
X232562504Y-104077921D01*
X232587085Y-104075500D01*
X246512915Y-104075500D01*
X246537496Y-104077921D01*
X246537828Y-104077987D01*
X246537829Y-104077987D01*
X246550000Y-104080408D01*
X246647740Y-104060966D01*
X246730601Y-104005601D01*
X246785966Y-103922740D01*
X246800500Y-103849674D01*
X246805408Y-103825000D01*
X251344592Y-103825000D01*
X251349500Y-103849674D01*
X251364034Y-103922740D01*
X251419399Y-104005601D01*
X251502260Y-104060966D01*
X251600000Y-104080408D01*
X251612171Y-104077987D01*
X251612172Y-104077987D01*
X251612504Y-104077921D01*
X251637085Y-104075500D01*
X265562915Y-104075500D01*
X265587496Y-104077921D01*
X265587828Y-104077987D01*
X265587829Y-104077987D01*
X265600000Y-104080408D01*
X265697740Y-104060966D01*
X265780601Y-104005601D01*
X265835966Y-103922740D01*
X265850500Y-103849674D01*
X265855408Y-103825000D01*
X270394592Y-103825000D01*
X270399500Y-103849674D01*
X270414034Y-103922740D01*
X270469399Y-104005601D01*
X270552260Y-104060966D01*
X270650000Y-104080408D01*
X270662171Y-104077987D01*
X270662172Y-104077987D01*
X270662504Y-104077921D01*
X270687085Y-104075500D01*
X284612915Y-104075500D01*
X284637496Y-104077921D01*
X284637828Y-104077987D01*
X284637829Y-104077987D01*
X284650000Y-104080408D01*
X284747740Y-104060966D01*
X284830601Y-104005601D01*
X284885966Y-103922740D01*
X284900500Y-103849674D01*
X284905408Y-103825000D01*
X289444592Y-103825000D01*
X289449500Y-103849674D01*
X289464034Y-103922740D01*
X289519399Y-104005601D01*
X289602260Y-104060966D01*
X289700000Y-104080408D01*
X289712171Y-104077987D01*
X289712172Y-104077987D01*
X289712504Y-104077921D01*
X289737085Y-104075500D01*
X303662915Y-104075500D01*
X303687496Y-104077921D01*
X303687828Y-104077987D01*
X303687829Y-104077987D01*
X303700000Y-104080408D01*
X303797740Y-104060966D01*
X303880601Y-104005601D01*
X303935966Y-103922740D01*
X303950500Y-103849674D01*
X303955408Y-103825000D01*
X313257092Y-103825000D01*
X313262000Y-103849674D01*
X313276534Y-103922740D01*
X313331899Y-104005601D01*
X313414760Y-104060966D01*
X313512500Y-104080408D01*
X313524671Y-104077987D01*
X313524672Y-104077987D01*
X313525004Y-104077921D01*
X313549585Y-104075500D01*
X327475415Y-104075500D01*
X327499996Y-104077921D01*
X327500328Y-104077987D01*
X327500329Y-104077987D01*
X327512500Y-104080408D01*
X327610240Y-104060966D01*
X327693101Y-104005601D01*
X327748466Y-103922740D01*
X327763000Y-103849674D01*
X327767908Y-103825000D01*
X327765421Y-103812496D01*
X327763000Y-103787915D01*
X327763000Y-89862085D01*
X327765421Y-89837504D01*
X327765487Y-89837172D01*
X327765487Y-89837171D01*
X327767908Y-89825000D01*
X327748466Y-89727260D01*
X327693101Y-89644399D01*
X327610240Y-89589034D01*
X327537174Y-89574500D01*
X327512500Y-89569592D01*
X327500329Y-89572013D01*
X327500328Y-89572013D01*
X327499996Y-89572079D01*
X327475415Y-89574500D01*
X313549585Y-89574500D01*
X313525004Y-89572079D01*
X313524672Y-89572013D01*
X313524671Y-89572013D01*
X313512500Y-89569592D01*
X313487826Y-89574500D01*
X313414760Y-89589034D01*
X313331899Y-89644399D01*
X313276534Y-89727260D01*
X313257092Y-89825000D01*
X313259513Y-89837171D01*
X313259513Y-89837172D01*
X313259579Y-89837504D01*
X313262000Y-89862085D01*
X313262000Y-103787915D01*
X313259579Y-103812496D01*
X313257092Y-103825000D01*
X303955408Y-103825000D01*
X303952921Y-103812496D01*
X303950500Y-103787915D01*
X303950500Y-89862085D01*
X303952921Y-89837504D01*
X303952987Y-89837172D01*
X303952987Y-89837171D01*
X303955408Y-89825000D01*
X303935966Y-89727260D01*
X303880601Y-89644399D01*
X303797740Y-89589034D01*
X303724674Y-89574500D01*
X303700000Y-89569592D01*
X303687829Y-89572013D01*
X303687828Y-89572013D01*
X303687496Y-89572079D01*
X303662915Y-89574500D01*
X289737085Y-89574500D01*
X289712504Y-89572079D01*
X289712172Y-89572013D01*
X289712171Y-89572013D01*
X289700000Y-89569592D01*
X289675326Y-89574500D01*
X289602260Y-89589034D01*
X289519399Y-89644399D01*
X289464034Y-89727260D01*
X289444592Y-89825000D01*
X289447013Y-89837171D01*
X289447013Y-89837172D01*
X289447079Y-89837504D01*
X289449500Y-89862085D01*
X289449500Y-103787915D01*
X289447079Y-103812496D01*
X289444592Y-103825000D01*
X284905408Y-103825000D01*
X284902921Y-103812496D01*
X284900500Y-103787915D01*
X284900500Y-89862085D01*
X284902921Y-89837504D01*
X284902987Y-89837172D01*
X284902987Y-89837171D01*
X284905408Y-89825000D01*
X284885966Y-89727260D01*
X284830601Y-89644399D01*
X284747740Y-89589034D01*
X284674674Y-89574500D01*
X284650000Y-89569592D01*
X284637829Y-89572013D01*
X284637828Y-89572013D01*
X284637496Y-89572079D01*
X284612915Y-89574500D01*
X270687085Y-89574500D01*
X270662504Y-89572079D01*
X270662172Y-89572013D01*
X270662171Y-89572013D01*
X270650000Y-89569592D01*
X270625326Y-89574500D01*
X270552260Y-89589034D01*
X270469399Y-89644399D01*
X270414034Y-89727260D01*
X270394592Y-89825000D01*
X270397013Y-89837171D01*
X270397013Y-89837172D01*
X270397079Y-89837504D01*
X270399500Y-89862085D01*
X270399500Y-103787915D01*
X270397079Y-103812496D01*
X270394592Y-103825000D01*
X265855408Y-103825000D01*
X265852921Y-103812496D01*
X265850500Y-103787915D01*
X265850500Y-89862085D01*
X265852921Y-89837504D01*
X265852987Y-89837172D01*
X265852987Y-89837171D01*
X265855408Y-89825000D01*
X265835966Y-89727260D01*
X265780601Y-89644399D01*
X265697740Y-89589034D01*
X265624674Y-89574500D01*
X265600000Y-89569592D01*
X265587829Y-89572013D01*
X265587828Y-89572013D01*
X265587496Y-89572079D01*
X265562915Y-89574500D01*
X251637085Y-89574500D01*
X251612504Y-89572079D01*
X251612172Y-89572013D01*
X251612171Y-89572013D01*
X251600000Y-89569592D01*
X251575326Y-89574500D01*
X251502260Y-89589034D01*
X251419399Y-89644399D01*
X251364034Y-89727260D01*
X251344592Y-89825000D01*
X251347013Y-89837171D01*
X251347013Y-89837172D01*
X251347079Y-89837504D01*
X251349500Y-89862085D01*
X251349500Y-103787915D01*
X251347079Y-103812496D01*
X251344592Y-103825000D01*
X246805408Y-103825000D01*
X246802921Y-103812496D01*
X246800500Y-103787915D01*
X246800500Y-89862085D01*
X246802921Y-89837504D01*
X246802987Y-89837172D01*
X246802987Y-89837171D01*
X246805408Y-89825000D01*
X246785966Y-89727260D01*
X246730601Y-89644399D01*
X246647740Y-89589034D01*
X246574674Y-89574500D01*
X246550000Y-89569592D01*
X246537829Y-89572013D01*
X246537828Y-89572013D01*
X246537496Y-89572079D01*
X246512915Y-89574500D01*
X232587085Y-89574500D01*
X232562504Y-89572079D01*
X232562172Y-89572013D01*
X232562171Y-89572013D01*
X232550000Y-89569592D01*
X232525326Y-89574500D01*
X232452260Y-89589034D01*
X232369399Y-89644399D01*
X232314034Y-89727260D01*
X232294592Y-89825000D01*
X232297013Y-89837171D01*
X232297013Y-89837172D01*
X232297079Y-89837504D01*
X232299500Y-89862085D01*
X232299500Y-103787915D01*
X232297079Y-103812496D01*
X232294592Y-103825000D01*
X227755408Y-103825000D01*
X227752921Y-103812496D01*
X227750500Y-103787915D01*
X227750500Y-89862085D01*
X227752921Y-89837504D01*
X227752987Y-89837172D01*
X227752987Y-89837171D01*
X227755408Y-89825000D01*
X227735966Y-89727260D01*
X227680601Y-89644399D01*
X227597740Y-89589034D01*
X227524674Y-89574500D01*
X227500000Y-89569592D01*
X227487829Y-89572013D01*
X227487828Y-89572013D01*
X227487496Y-89572079D01*
X227462915Y-89574500D01*
X213537085Y-89574500D01*
X213512504Y-89572079D01*
X213512172Y-89572013D01*
X213512171Y-89572013D01*
X213500000Y-89569592D01*
X213475326Y-89574500D01*
X213402260Y-89589034D01*
X213319399Y-89644399D01*
X213264034Y-89727260D01*
X213244592Y-89825000D01*
X213247013Y-89837171D01*
X213247013Y-89837172D01*
X213247079Y-89837504D01*
X213249500Y-89862085D01*
X213249500Y-103787915D01*
X213247079Y-103812496D01*
X213244592Y-103825000D01*
X208705408Y-103825000D01*
X208702921Y-103812496D01*
X208700500Y-103787915D01*
X208700500Y-89862085D01*
X208702921Y-89837504D01*
X208702987Y-89837172D01*
X208702987Y-89837171D01*
X208705408Y-89825000D01*
X208685966Y-89727260D01*
X208630601Y-89644399D01*
X208547740Y-89589034D01*
X208474674Y-89574500D01*
X208450000Y-89569592D01*
X208437829Y-89572013D01*
X208437828Y-89572013D01*
X208437496Y-89572079D01*
X208412915Y-89574500D01*
X194487085Y-89574500D01*
X194462504Y-89572079D01*
X194462172Y-89572013D01*
X194462171Y-89572013D01*
X194450000Y-89569592D01*
X194425326Y-89574500D01*
X194352260Y-89589034D01*
X194269399Y-89644399D01*
X194214034Y-89727260D01*
X194194592Y-89825000D01*
X194197013Y-89837171D01*
X194197013Y-89837172D01*
X194197079Y-89837504D01*
X194199500Y-89862085D01*
X194199500Y-103787915D01*
X194197079Y-103812496D01*
X194194592Y-103825000D01*
X189655408Y-103825000D01*
X189652921Y-103812496D01*
X189650500Y-103787915D01*
X189650500Y-89862085D01*
X189652921Y-89837504D01*
X189652987Y-89837172D01*
X189652987Y-89837171D01*
X189655408Y-89825000D01*
X189635966Y-89727260D01*
X189580601Y-89644399D01*
X189497740Y-89589034D01*
X189424674Y-89574500D01*
X189400000Y-89569592D01*
X189387829Y-89572013D01*
X189387828Y-89572013D01*
X189387496Y-89572079D01*
X189362915Y-89574500D01*
X175437085Y-89574500D01*
X175412504Y-89572079D01*
X175412172Y-89572013D01*
X175412171Y-89572013D01*
X175400000Y-89569592D01*
X175375326Y-89574500D01*
X175302260Y-89589034D01*
X175219399Y-89644399D01*
X175164034Y-89727260D01*
X175144592Y-89825000D01*
X175147013Y-89837171D01*
X175147013Y-89837172D01*
X175147079Y-89837504D01*
X175149500Y-89862085D01*
X175149500Y-103787915D01*
X175147079Y-103812496D01*
X175144592Y-103825000D01*
X170605408Y-103825000D01*
X170602921Y-103812496D01*
X170600500Y-103787915D01*
X170600500Y-89862085D01*
X170602921Y-89837504D01*
X170602987Y-89837172D01*
X170602987Y-89837171D01*
X170605408Y-89825000D01*
X170585966Y-89727260D01*
X170530601Y-89644399D01*
X170447740Y-89589034D01*
X170374674Y-89574500D01*
X170350000Y-89569592D01*
X170337829Y-89572013D01*
X170337828Y-89572013D01*
X170337496Y-89572079D01*
X170312915Y-89574500D01*
X156387085Y-89574500D01*
X156362504Y-89572079D01*
X156362172Y-89572013D01*
X156362171Y-89572013D01*
X156350000Y-89569592D01*
X156325326Y-89574500D01*
X156252260Y-89589034D01*
X156169399Y-89644399D01*
X156114034Y-89727260D01*
X156094592Y-89825000D01*
X156097013Y-89837171D01*
X156097013Y-89837172D01*
X156097079Y-89837504D01*
X156099500Y-89862085D01*
X156099500Y-103787915D01*
X156097079Y-103812496D01*
X156094592Y-103825000D01*
X151555408Y-103825000D01*
X151552921Y-103812496D01*
X151550500Y-103787915D01*
X151550500Y-89862085D01*
X151552921Y-89837504D01*
X151552987Y-89837172D01*
X151552987Y-89837171D01*
X151555408Y-89825000D01*
X151535966Y-89727260D01*
X151480601Y-89644399D01*
X151397740Y-89589034D01*
X151324674Y-89574500D01*
X151300000Y-89569592D01*
X151287829Y-89572013D01*
X151287828Y-89572013D01*
X151287496Y-89572079D01*
X151262915Y-89574500D01*
X137337085Y-89574500D01*
X137312504Y-89572079D01*
X137312172Y-89572013D01*
X137312171Y-89572013D01*
X137300000Y-89569592D01*
X137275326Y-89574500D01*
X137202260Y-89589034D01*
X137119399Y-89644399D01*
X137064034Y-89727260D01*
X137044592Y-89825000D01*
X137047013Y-89837171D01*
X137047013Y-89837172D01*
X137047079Y-89837504D01*
X137049500Y-89862085D01*
X137049500Y-103787915D01*
X137047079Y-103812496D01*
X137044592Y-103825000D01*
X132505408Y-103825000D01*
X132502921Y-103812496D01*
X132500500Y-103787915D01*
X132500500Y-89862085D01*
X132502921Y-89837504D01*
X132502987Y-89837172D01*
X132502987Y-89837171D01*
X132505408Y-89825000D01*
X132485966Y-89727260D01*
X132430601Y-89644399D01*
X132347740Y-89589034D01*
X132274674Y-89574500D01*
X132250000Y-89569592D01*
X132237829Y-89572013D01*
X132237828Y-89572013D01*
X132237496Y-89572079D01*
X132212915Y-89574500D01*
X118287085Y-89574500D01*
X118262504Y-89572079D01*
X118262172Y-89572013D01*
X118262171Y-89572013D01*
X118250000Y-89569592D01*
X118225326Y-89574500D01*
X118152260Y-89589034D01*
X118069399Y-89644399D01*
X118014034Y-89727260D01*
X117994592Y-89825000D01*
X117997013Y-89837171D01*
X117997013Y-89837172D01*
X117997079Y-89837504D01*
X117999500Y-89862085D01*
X117999500Y-103787915D01*
X117997079Y-103812496D01*
X117994592Y-103825000D01*
X113455408Y-103825000D01*
X113452921Y-103812496D01*
X113450500Y-103787915D01*
X113450500Y-89862085D01*
X113452921Y-89837504D01*
X113452987Y-89837172D01*
X113452987Y-89837171D01*
X113455408Y-89825000D01*
X113435966Y-89727260D01*
X113380601Y-89644399D01*
X113297740Y-89589034D01*
X113224674Y-89574500D01*
X113200000Y-89569592D01*
X113187829Y-89572013D01*
X113187828Y-89572013D01*
X113187496Y-89572079D01*
X113162915Y-89574500D01*
X99237085Y-89574500D01*
X99212504Y-89572079D01*
X99212172Y-89572013D01*
X99212171Y-89572013D01*
X99200000Y-89569592D01*
X99175326Y-89574500D01*
X99102260Y-89589034D01*
X99019399Y-89644399D01*
X98964034Y-89727260D01*
X98944592Y-89825000D01*
X98947013Y-89837171D01*
X98947013Y-89837172D01*
X98947079Y-89837504D01*
X98949500Y-89862085D01*
X98949500Y-103787915D01*
X98947079Y-103812496D01*
X98944592Y-103825000D01*
X94405408Y-103825000D01*
X94402921Y-103812496D01*
X94400500Y-103787915D01*
X94400500Y-89862085D01*
X94402921Y-89837504D01*
X94402987Y-89837172D01*
X94402987Y-89837171D01*
X94405408Y-89825000D01*
X94385966Y-89727260D01*
X94330601Y-89644399D01*
X94247740Y-89589034D01*
X94174674Y-89574500D01*
X94150000Y-89569592D01*
X94137829Y-89572013D01*
X94137828Y-89572013D01*
X94137496Y-89572079D01*
X94112915Y-89574500D01*
X80187085Y-89574500D01*
X80162504Y-89572079D01*
X80162172Y-89572013D01*
X80162171Y-89572013D01*
X80150000Y-89569592D01*
X80125326Y-89574500D01*
X80052260Y-89589034D01*
X79969399Y-89644399D01*
X79914034Y-89727260D01*
X79894592Y-89825000D01*
X79897013Y-89837171D01*
X79897013Y-89837172D01*
X79897079Y-89837504D01*
X79899500Y-89862085D01*
X79899500Y-103787915D01*
X79897079Y-103812496D01*
X79894592Y-103825000D01*
X70592908Y-103825000D01*
X70590421Y-103812496D01*
X70588000Y-103787915D01*
X70588000Y-89862085D01*
X70590421Y-89837504D01*
X70590487Y-89837172D01*
X70590487Y-89837171D01*
X70592908Y-89825000D01*
X70573466Y-89727260D01*
X70518101Y-89644399D01*
X70435240Y-89589034D01*
X70362174Y-89574500D01*
X70337500Y-89569592D01*
X70325329Y-89572013D01*
X70325328Y-89572013D01*
X70324996Y-89572079D01*
X70300415Y-89574500D01*
X56374585Y-89574500D01*
X56350004Y-89572079D01*
X56349672Y-89572013D01*
X56349671Y-89572013D01*
X56337500Y-89569592D01*
X56312826Y-89574500D01*
X56239760Y-89589034D01*
X56156899Y-89644399D01*
X56101534Y-89727260D01*
X56082092Y-89825000D01*
X56084513Y-89837171D01*
X56084513Y-89837172D01*
X56084579Y-89837504D01*
X56087000Y-89862085D01*
X56087000Y-103787915D01*
X56084579Y-103812496D01*
X56082092Y-103825000D01*
X46780408Y-103825000D01*
X46777921Y-103812496D01*
X46775500Y-103787915D01*
X46775500Y-89862085D01*
X46777921Y-89837504D01*
X46777987Y-89837172D01*
X46777987Y-89837171D01*
X46780408Y-89825000D01*
X46760966Y-89727260D01*
X46705601Y-89644399D01*
X46622740Y-89589034D01*
X46549674Y-89574500D01*
X46525000Y-89569592D01*
X46512829Y-89572013D01*
X46512828Y-89572013D01*
X46512496Y-89572079D01*
X46487915Y-89574500D01*
X32562085Y-89574500D01*
X32537504Y-89572079D01*
X32537172Y-89572013D01*
X32537171Y-89572013D01*
X32525000Y-89569592D01*
X32500326Y-89574500D01*
X32427260Y-89589034D01*
X32344399Y-89644399D01*
X32289034Y-89727260D01*
X32269592Y-89825000D01*
X32272013Y-89837171D01*
X32272013Y-89837172D01*
X32272079Y-89837504D01*
X32274500Y-89862085D01*
X32274500Y-103787915D01*
X32272079Y-103812496D01*
X32269592Y-103825000D01*
X22050500Y-103825000D01*
X22050500Y-85775000D01*
X54725842Y-85775000D01*
X54730750Y-85799674D01*
X54745284Y-85872740D01*
X54800649Y-85955601D01*
X54883510Y-86010966D01*
X54981250Y-86030408D01*
X54993421Y-86027987D01*
X54993422Y-86027987D01*
X54993754Y-86027921D01*
X55018335Y-86025500D01*
X61944165Y-86025500D01*
X61968746Y-86027921D01*
X61969078Y-86027987D01*
X61969079Y-86027987D01*
X61981250Y-86030408D01*
X62078990Y-86010966D01*
X62161851Y-85955601D01*
X62217216Y-85872740D01*
X62231750Y-85799674D01*
X62236658Y-85775000D01*
X78725842Y-85775000D01*
X78730750Y-85799674D01*
X78745284Y-85872740D01*
X78800649Y-85955601D01*
X78883510Y-86010966D01*
X78981250Y-86030408D01*
X78993421Y-86027987D01*
X78993422Y-86027987D01*
X78993754Y-86027921D01*
X79018335Y-86025500D01*
X85944165Y-86025500D01*
X85968746Y-86027921D01*
X85969078Y-86027987D01*
X85969079Y-86027987D01*
X85981250Y-86030408D01*
X86078990Y-86010966D01*
X86161851Y-85955601D01*
X86217216Y-85872740D01*
X86231750Y-85799674D01*
X86236658Y-85775000D01*
X86234171Y-85762496D01*
X86231750Y-85737915D01*
X86231750Y-84775000D01*
X94182092Y-84775000D01*
X94187000Y-84799674D01*
X94201534Y-84872740D01*
X94256899Y-84955601D01*
X94339760Y-85010966D01*
X94437500Y-85030408D01*
X94449671Y-85027987D01*
X94449672Y-85027987D01*
X94450004Y-85027921D01*
X94474585Y-85025500D01*
X108400415Y-85025500D01*
X108424996Y-85027921D01*
X108425328Y-85027987D01*
X108425329Y-85027987D01*
X108437500Y-85030408D01*
X108535240Y-85010966D01*
X108618101Y-84955601D01*
X108673466Y-84872740D01*
X108688000Y-84799674D01*
X108692908Y-84775000D01*
X113232092Y-84775000D01*
X113237000Y-84799674D01*
X113251534Y-84872740D01*
X113306899Y-84955601D01*
X113389760Y-85010966D01*
X113487500Y-85030408D01*
X113499671Y-85027987D01*
X113499672Y-85027987D01*
X113500004Y-85027921D01*
X113524585Y-85025500D01*
X127450415Y-85025500D01*
X127474996Y-85027921D01*
X127475328Y-85027987D01*
X127475329Y-85027987D01*
X127487500Y-85030408D01*
X127585240Y-85010966D01*
X127668101Y-84955601D01*
X127723466Y-84872740D01*
X127738000Y-84799674D01*
X127742908Y-84775000D01*
X132282092Y-84775000D01*
X132287000Y-84799674D01*
X132301534Y-84872740D01*
X132356899Y-84955601D01*
X132439760Y-85010966D01*
X132537500Y-85030408D01*
X132549671Y-85027987D01*
X132549672Y-85027987D01*
X132550004Y-85027921D01*
X132574585Y-85025500D01*
X146500415Y-85025500D01*
X146524996Y-85027921D01*
X146525328Y-85027987D01*
X146525329Y-85027987D01*
X146537500Y-85030408D01*
X146635240Y-85010966D01*
X146718101Y-84955601D01*
X146773466Y-84872740D01*
X146788000Y-84799674D01*
X146792908Y-84775000D01*
X151332092Y-84775000D01*
X151337000Y-84799674D01*
X151351534Y-84872740D01*
X151406899Y-84955601D01*
X151489760Y-85010966D01*
X151587500Y-85030408D01*
X151599671Y-85027987D01*
X151599672Y-85027987D01*
X151600004Y-85027921D01*
X151624585Y-85025500D01*
X165550415Y-85025500D01*
X165574996Y-85027921D01*
X165575328Y-85027987D01*
X165575329Y-85027987D01*
X165587500Y-85030408D01*
X165685240Y-85010966D01*
X165768101Y-84955601D01*
X165823466Y-84872740D01*
X165838000Y-84799674D01*
X165842908Y-84775000D01*
X170382092Y-84775000D01*
X170387000Y-84799674D01*
X170401534Y-84872740D01*
X170456899Y-84955601D01*
X170539760Y-85010966D01*
X170637500Y-85030408D01*
X170649671Y-85027987D01*
X170649672Y-85027987D01*
X170650004Y-85027921D01*
X170674585Y-85025500D01*
X184600415Y-85025500D01*
X184624996Y-85027921D01*
X184625328Y-85027987D01*
X184625329Y-85027987D01*
X184637500Y-85030408D01*
X184735240Y-85010966D01*
X184818101Y-84955601D01*
X184873466Y-84872740D01*
X184888000Y-84799674D01*
X184892908Y-84775000D01*
X189432092Y-84775000D01*
X189437000Y-84799674D01*
X189451534Y-84872740D01*
X189506899Y-84955601D01*
X189589760Y-85010966D01*
X189687500Y-85030408D01*
X189699671Y-85027987D01*
X189699672Y-85027987D01*
X189700004Y-85027921D01*
X189724585Y-85025500D01*
X203650415Y-85025500D01*
X203674996Y-85027921D01*
X203675328Y-85027987D01*
X203675329Y-85027987D01*
X203687500Y-85030408D01*
X203785240Y-85010966D01*
X203868101Y-84955601D01*
X203923466Y-84872740D01*
X203938000Y-84799674D01*
X203942908Y-84775000D01*
X208482092Y-84775000D01*
X208487000Y-84799674D01*
X208501534Y-84872740D01*
X208556899Y-84955601D01*
X208639760Y-85010966D01*
X208737500Y-85030408D01*
X208749671Y-85027987D01*
X208749672Y-85027987D01*
X208750004Y-85027921D01*
X208774585Y-85025500D01*
X222700415Y-85025500D01*
X222724996Y-85027921D01*
X222725328Y-85027987D01*
X222725329Y-85027987D01*
X222737500Y-85030408D01*
X222835240Y-85010966D01*
X222918101Y-84955601D01*
X222973466Y-84872740D01*
X222988000Y-84799674D01*
X222992908Y-84775000D01*
X227532092Y-84775000D01*
X227537000Y-84799674D01*
X227551534Y-84872740D01*
X227606899Y-84955601D01*
X227689760Y-85010966D01*
X227787500Y-85030408D01*
X227799671Y-85027987D01*
X227799672Y-85027987D01*
X227800004Y-85027921D01*
X227824585Y-85025500D01*
X241750415Y-85025500D01*
X241774996Y-85027921D01*
X241775328Y-85027987D01*
X241775329Y-85027987D01*
X241787500Y-85030408D01*
X241885240Y-85010966D01*
X241968101Y-84955601D01*
X242023466Y-84872740D01*
X242038000Y-84799674D01*
X242042908Y-84775000D01*
X246582092Y-84775000D01*
X246587000Y-84799674D01*
X246601534Y-84872740D01*
X246656899Y-84955601D01*
X246739760Y-85010966D01*
X246837500Y-85030408D01*
X246849671Y-85027987D01*
X246849672Y-85027987D01*
X246850004Y-85027921D01*
X246874585Y-85025500D01*
X260800415Y-85025500D01*
X260824996Y-85027921D01*
X260825328Y-85027987D01*
X260825329Y-85027987D01*
X260837500Y-85030408D01*
X260935240Y-85010966D01*
X261018101Y-84955601D01*
X261073466Y-84872740D01*
X261088000Y-84799674D01*
X261092908Y-84775000D01*
X265632092Y-84775000D01*
X265637000Y-84799674D01*
X265651534Y-84872740D01*
X265706899Y-84955601D01*
X265789760Y-85010966D01*
X265887500Y-85030408D01*
X265899671Y-85027987D01*
X265899672Y-85027987D01*
X265900004Y-85027921D01*
X265924585Y-85025500D01*
X279850415Y-85025500D01*
X279874996Y-85027921D01*
X279875328Y-85027987D01*
X279875329Y-85027987D01*
X279887500Y-85030408D01*
X279985240Y-85010966D01*
X280068101Y-84955601D01*
X280123466Y-84872740D01*
X280138000Y-84799674D01*
X280142908Y-84775000D01*
X284682092Y-84775000D01*
X284687000Y-84799674D01*
X284701534Y-84872740D01*
X284756899Y-84955601D01*
X284839760Y-85010966D01*
X284937500Y-85030408D01*
X284949671Y-85027987D01*
X284949672Y-85027987D01*
X284950004Y-85027921D01*
X284974585Y-85025500D01*
X298900415Y-85025500D01*
X298924996Y-85027921D01*
X298925328Y-85027987D01*
X298925329Y-85027987D01*
X298937500Y-85030408D01*
X299035240Y-85010966D01*
X299118101Y-84955601D01*
X299173466Y-84872740D01*
X299188000Y-84799674D01*
X299192908Y-84775000D01*
X310875842Y-84775000D01*
X310880750Y-84799674D01*
X310895284Y-84872740D01*
X310950649Y-84955601D01*
X311033510Y-85010966D01*
X311131250Y-85030408D01*
X311143421Y-85027987D01*
X311143422Y-85027987D01*
X311143754Y-85027921D01*
X311168335Y-85025500D01*
X325094165Y-85025500D01*
X325118746Y-85027921D01*
X325119078Y-85027987D01*
X325119079Y-85027987D01*
X325131250Y-85030408D01*
X325228990Y-85010966D01*
X325311851Y-84955601D01*
X325367216Y-84872740D01*
X325381750Y-84799674D01*
X325386658Y-84775000D01*
X325384171Y-84762496D01*
X325381750Y-84737915D01*
X325381750Y-70812085D01*
X325384171Y-70787504D01*
X325384237Y-70787172D01*
X325384237Y-70787171D01*
X325386658Y-70775000D01*
X325367216Y-70677260D01*
X325311851Y-70594399D01*
X325228990Y-70539034D01*
X325155924Y-70524500D01*
X325131250Y-70519592D01*
X325119079Y-70522013D01*
X325119078Y-70522013D01*
X325118746Y-70522079D01*
X325094165Y-70524500D01*
X311168335Y-70524500D01*
X311143754Y-70522079D01*
X311143422Y-70522013D01*
X311143421Y-70522013D01*
X311131250Y-70519592D01*
X311106576Y-70524500D01*
X311033510Y-70539034D01*
X310950649Y-70594399D01*
X310895284Y-70677260D01*
X310875842Y-70775000D01*
X310878263Y-70787171D01*
X310878263Y-70787172D01*
X310878329Y-70787504D01*
X310880750Y-70812085D01*
X310880750Y-84737915D01*
X310878329Y-84762496D01*
X310875842Y-84775000D01*
X299192908Y-84775000D01*
X299190421Y-84762496D01*
X299188000Y-84737915D01*
X299188000Y-70812085D01*
X299190421Y-70787504D01*
X299190487Y-70787172D01*
X299190487Y-70787171D01*
X299192908Y-70775000D01*
X299173466Y-70677260D01*
X299118101Y-70594399D01*
X299035240Y-70539034D01*
X298962174Y-70524500D01*
X298937500Y-70519592D01*
X298925329Y-70522013D01*
X298925328Y-70522013D01*
X298924996Y-70522079D01*
X298900415Y-70524500D01*
X284974585Y-70524500D01*
X284950004Y-70522079D01*
X284949672Y-70522013D01*
X284949671Y-70522013D01*
X284937500Y-70519592D01*
X284912826Y-70524500D01*
X284839760Y-70539034D01*
X284756899Y-70594399D01*
X284701534Y-70677260D01*
X284682092Y-70775000D01*
X284684513Y-70787171D01*
X284684513Y-70787172D01*
X284684579Y-70787504D01*
X284687000Y-70812085D01*
X284687000Y-84737915D01*
X284684579Y-84762496D01*
X284682092Y-84775000D01*
X280142908Y-84775000D01*
X280140421Y-84762496D01*
X280138000Y-84737915D01*
X280138000Y-70812085D01*
X280140421Y-70787504D01*
X280140487Y-70787172D01*
X280140487Y-70787171D01*
X280142908Y-70775000D01*
X280123466Y-70677260D01*
X280068101Y-70594399D01*
X279985240Y-70539034D01*
X279912174Y-70524500D01*
X279887500Y-70519592D01*
X279875329Y-70522013D01*
X279875328Y-70522013D01*
X279874996Y-70522079D01*
X279850415Y-70524500D01*
X265924585Y-70524500D01*
X265900004Y-70522079D01*
X265899672Y-70522013D01*
X265899671Y-70522013D01*
X265887500Y-70519592D01*
X265862826Y-70524500D01*
X265789760Y-70539034D01*
X265706899Y-70594399D01*
X265651534Y-70677260D01*
X265632092Y-70775000D01*
X265634513Y-70787171D01*
X265634513Y-70787172D01*
X265634579Y-70787504D01*
X265637000Y-70812085D01*
X265637000Y-84737915D01*
X265634579Y-84762496D01*
X265632092Y-84775000D01*
X261092908Y-84775000D01*
X261090421Y-84762496D01*
X261088000Y-84737915D01*
X261088000Y-70812085D01*
X261090421Y-70787504D01*
X261090487Y-70787172D01*
X261090487Y-70787171D01*
X261092908Y-70775000D01*
X261073466Y-70677260D01*
X261018101Y-70594399D01*
X260935240Y-70539034D01*
X260862174Y-70524500D01*
X260837500Y-70519592D01*
X260825329Y-70522013D01*
X260825328Y-70522013D01*
X260824996Y-70522079D01*
X260800415Y-70524500D01*
X246874585Y-70524500D01*
X246850004Y-70522079D01*
X246849672Y-70522013D01*
X246849671Y-70522013D01*
X246837500Y-70519592D01*
X246812826Y-70524500D01*
X246739760Y-70539034D01*
X246656899Y-70594399D01*
X246601534Y-70677260D01*
X246582092Y-70775000D01*
X246584513Y-70787171D01*
X246584513Y-70787172D01*
X246584579Y-70787504D01*
X246587000Y-70812085D01*
X246587000Y-84737915D01*
X246584579Y-84762496D01*
X246582092Y-84775000D01*
X242042908Y-84775000D01*
X242040421Y-84762496D01*
X242038000Y-84737915D01*
X242038000Y-70812085D01*
X242040421Y-70787504D01*
X242040487Y-70787172D01*
X242040487Y-70787171D01*
X242042908Y-70775000D01*
X242023466Y-70677260D01*
X241968101Y-70594399D01*
X241885240Y-70539034D01*
X241812174Y-70524500D01*
X241787500Y-70519592D01*
X241775329Y-70522013D01*
X241775328Y-70522013D01*
X241774996Y-70522079D01*
X241750415Y-70524500D01*
X227824585Y-70524500D01*
X227800004Y-70522079D01*
X227799672Y-70522013D01*
X227799671Y-70522013D01*
X227787500Y-70519592D01*
X227762826Y-70524500D01*
X227689760Y-70539034D01*
X227606899Y-70594399D01*
X227551534Y-70677260D01*
X227532092Y-70775000D01*
X227534513Y-70787171D01*
X227534513Y-70787172D01*
X227534579Y-70787504D01*
X227537000Y-70812085D01*
X227537000Y-84737915D01*
X227534579Y-84762496D01*
X227532092Y-84775000D01*
X222992908Y-84775000D01*
X222990421Y-84762496D01*
X222988000Y-84737915D01*
X222988000Y-70812085D01*
X222990421Y-70787504D01*
X222990487Y-70787172D01*
X222990487Y-70787171D01*
X222992908Y-70775000D01*
X222973466Y-70677260D01*
X222918101Y-70594399D01*
X222835240Y-70539034D01*
X222762174Y-70524500D01*
X222737500Y-70519592D01*
X222725329Y-70522013D01*
X222725328Y-70522013D01*
X222724996Y-70522079D01*
X222700415Y-70524500D01*
X208774585Y-70524500D01*
X208750004Y-70522079D01*
X208749672Y-70522013D01*
X208749671Y-70522013D01*
X208737500Y-70519592D01*
X208712826Y-70524500D01*
X208639760Y-70539034D01*
X208556899Y-70594399D01*
X208501534Y-70677260D01*
X208482092Y-70775000D01*
X208484513Y-70787171D01*
X208484513Y-70787172D01*
X208484579Y-70787504D01*
X208487000Y-70812085D01*
X208487000Y-84737915D01*
X208484579Y-84762496D01*
X208482092Y-84775000D01*
X203942908Y-84775000D01*
X203940421Y-84762496D01*
X203938000Y-84737915D01*
X203938000Y-70812085D01*
X203940421Y-70787504D01*
X203940487Y-70787172D01*
X203940487Y-70787171D01*
X203942908Y-70775000D01*
X203923466Y-70677260D01*
X203868101Y-70594399D01*
X203785240Y-70539034D01*
X203712174Y-70524500D01*
X203687500Y-70519592D01*
X203675329Y-70522013D01*
X203675328Y-70522013D01*
X203674996Y-70522079D01*
X203650415Y-70524500D01*
X189724585Y-70524500D01*
X189700004Y-70522079D01*
X189699672Y-70522013D01*
X189699671Y-70522013D01*
X189687500Y-70519592D01*
X189662826Y-70524500D01*
X189589760Y-70539034D01*
X189506899Y-70594399D01*
X189451534Y-70677260D01*
X189432092Y-70775000D01*
X189434513Y-70787171D01*
X189434513Y-70787172D01*
X189434579Y-70787504D01*
X189437000Y-70812085D01*
X189437000Y-84737915D01*
X189434579Y-84762496D01*
X189432092Y-84775000D01*
X184892908Y-84775000D01*
X184890421Y-84762496D01*
X184888000Y-84737915D01*
X184888000Y-70812085D01*
X184890421Y-70787504D01*
X184890487Y-70787172D01*
X184890487Y-70787171D01*
X184892908Y-70775000D01*
X184873466Y-70677260D01*
X184818101Y-70594399D01*
X184735240Y-70539034D01*
X184662174Y-70524500D01*
X184637500Y-70519592D01*
X184625329Y-70522013D01*
X184625328Y-70522013D01*
X184624996Y-70522079D01*
X184600415Y-70524500D01*
X170674585Y-70524500D01*
X170650004Y-70522079D01*
X170649672Y-70522013D01*
X170649671Y-70522013D01*
X170637500Y-70519592D01*
X170612826Y-70524500D01*
X170539760Y-70539034D01*
X170456899Y-70594399D01*
X170401534Y-70677260D01*
X170382092Y-70775000D01*
X170384513Y-70787171D01*
X170384513Y-70787172D01*
X170384579Y-70787504D01*
X170387000Y-70812085D01*
X170387000Y-84737915D01*
X170384579Y-84762496D01*
X170382092Y-84775000D01*
X165842908Y-84775000D01*
X165840421Y-84762496D01*
X165838000Y-84737915D01*
X165838000Y-70812085D01*
X165840421Y-70787504D01*
X165840487Y-70787172D01*
X165840487Y-70787171D01*
X165842908Y-70775000D01*
X165823466Y-70677260D01*
X165768101Y-70594399D01*
X165685240Y-70539034D01*
X165612174Y-70524500D01*
X165587500Y-70519592D01*
X165575329Y-70522013D01*
X165575328Y-70522013D01*
X165574996Y-70522079D01*
X165550415Y-70524500D01*
X151624585Y-70524500D01*
X151600004Y-70522079D01*
X151599672Y-70522013D01*
X151599671Y-70522013D01*
X151587500Y-70519592D01*
X151562826Y-70524500D01*
X151489760Y-70539034D01*
X151406899Y-70594399D01*
X151351534Y-70677260D01*
X151332092Y-70775000D01*
X151334513Y-70787171D01*
X151334513Y-70787172D01*
X151334579Y-70787504D01*
X151337000Y-70812085D01*
X151337000Y-84737915D01*
X151334579Y-84762496D01*
X151332092Y-84775000D01*
X146792908Y-84775000D01*
X146790421Y-84762496D01*
X146788000Y-84737915D01*
X146788000Y-70812085D01*
X146790421Y-70787504D01*
X146790487Y-70787172D01*
X146790487Y-70787171D01*
X146792908Y-70775000D01*
X146773466Y-70677260D01*
X146718101Y-70594399D01*
X146635240Y-70539034D01*
X146562174Y-70524500D01*
X146537500Y-70519592D01*
X146525329Y-70522013D01*
X146525328Y-70522013D01*
X146524996Y-70522079D01*
X146500415Y-70524500D01*
X132574585Y-70524500D01*
X132550004Y-70522079D01*
X132549672Y-70522013D01*
X132549671Y-70522013D01*
X132537500Y-70519592D01*
X132512826Y-70524500D01*
X132439760Y-70539034D01*
X132356899Y-70594399D01*
X132301534Y-70677260D01*
X132282092Y-70775000D01*
X132284513Y-70787171D01*
X132284513Y-70787172D01*
X132284579Y-70787504D01*
X132287000Y-70812085D01*
X132287000Y-84737915D01*
X132284579Y-84762496D01*
X132282092Y-84775000D01*
X127742908Y-84775000D01*
X127740421Y-84762496D01*
X127738000Y-84737915D01*
X127738000Y-70812085D01*
X127740421Y-70787504D01*
X127740487Y-70787172D01*
X127740487Y-70787171D01*
X127742908Y-70775000D01*
X127723466Y-70677260D01*
X127668101Y-70594399D01*
X127585240Y-70539034D01*
X127512174Y-70524500D01*
X127487500Y-70519592D01*
X127475329Y-70522013D01*
X127475328Y-70522013D01*
X127474996Y-70522079D01*
X127450415Y-70524500D01*
X113524585Y-70524500D01*
X113500004Y-70522079D01*
X113499672Y-70522013D01*
X113499671Y-70522013D01*
X113487500Y-70519592D01*
X113462826Y-70524500D01*
X113389760Y-70539034D01*
X113306899Y-70594399D01*
X113251534Y-70677260D01*
X113232092Y-70775000D01*
X113234513Y-70787171D01*
X113234513Y-70787172D01*
X113234579Y-70787504D01*
X113237000Y-70812085D01*
X113237000Y-84737915D01*
X113234579Y-84762496D01*
X113232092Y-84775000D01*
X108692908Y-84775000D01*
X108690421Y-84762496D01*
X108688000Y-84737915D01*
X108688000Y-70812085D01*
X108690421Y-70787504D01*
X108690487Y-70787172D01*
X108690487Y-70787171D01*
X108692908Y-70775000D01*
X108673466Y-70677260D01*
X108618101Y-70594399D01*
X108535240Y-70539034D01*
X108462174Y-70524500D01*
X108437500Y-70519592D01*
X108425329Y-70522013D01*
X108425328Y-70522013D01*
X108424996Y-70522079D01*
X108400415Y-70524500D01*
X94474585Y-70524500D01*
X94450004Y-70522079D01*
X94449672Y-70522013D01*
X94449671Y-70522013D01*
X94437500Y-70519592D01*
X94412826Y-70524500D01*
X94339760Y-70539034D01*
X94256899Y-70594399D01*
X94201534Y-70677260D01*
X94182092Y-70775000D01*
X94184513Y-70787171D01*
X94184513Y-70787172D01*
X94184579Y-70787504D01*
X94187000Y-70812085D01*
X94187000Y-84737915D01*
X94184579Y-84762496D01*
X94182092Y-84775000D01*
X86231750Y-84775000D01*
X86231750Y-69812085D01*
X86234171Y-69787504D01*
X86234237Y-69787172D01*
X86234237Y-69787171D01*
X86236658Y-69775000D01*
X86217216Y-69677260D01*
X86161851Y-69594399D01*
X86078990Y-69539034D01*
X86005924Y-69524500D01*
X85981250Y-69519592D01*
X85969079Y-69522013D01*
X85969078Y-69522013D01*
X85968746Y-69522079D01*
X85944165Y-69524500D01*
X79018335Y-69524500D01*
X78993754Y-69522079D01*
X78993422Y-69522013D01*
X78993421Y-69522013D01*
X78981250Y-69519592D01*
X78956576Y-69524500D01*
X78883510Y-69539034D01*
X78800649Y-69594399D01*
X78745284Y-69677260D01*
X78725842Y-69775000D01*
X78728263Y-69787171D01*
X78728263Y-69787172D01*
X78728329Y-69787504D01*
X78730750Y-69812085D01*
X78730750Y-85737915D01*
X78728329Y-85762496D01*
X78725842Y-85775000D01*
X62236658Y-85775000D01*
X62234171Y-85762496D01*
X62231750Y-85737915D01*
X62231750Y-84775000D01*
X63225842Y-84775000D01*
X63230750Y-84799674D01*
X63245284Y-84872740D01*
X63300649Y-84955601D01*
X63383510Y-85010966D01*
X63481250Y-85030408D01*
X63493421Y-85027987D01*
X63493422Y-85027987D01*
X63493754Y-85027921D01*
X63518335Y-85025500D01*
X77444165Y-85025500D01*
X77468746Y-85027921D01*
X77469078Y-85027987D01*
X77469079Y-85027987D01*
X77481250Y-85030408D01*
X77578990Y-85010966D01*
X77661851Y-84955601D01*
X77717216Y-84872740D01*
X77731750Y-84799674D01*
X77736658Y-84775000D01*
X77734171Y-84762496D01*
X77731750Y-84737915D01*
X77731750Y-70812085D01*
X77734171Y-70787504D01*
X77734237Y-70787172D01*
X77734237Y-70787171D01*
X77736658Y-70775000D01*
X77717216Y-70677260D01*
X77661851Y-70594399D01*
X77578990Y-70539034D01*
X77505924Y-70524500D01*
X77481250Y-70519592D01*
X77469079Y-70522013D01*
X77469078Y-70522013D01*
X77468746Y-70522079D01*
X77444165Y-70524500D01*
X63518335Y-70524500D01*
X63493754Y-70522079D01*
X63493422Y-70522013D01*
X63493421Y-70522013D01*
X63481250Y-70519592D01*
X63456576Y-70524500D01*
X63383510Y-70539034D01*
X63300649Y-70594399D01*
X63245284Y-70677260D01*
X63225842Y-70775000D01*
X63228263Y-70787171D01*
X63228263Y-70787172D01*
X63228329Y-70787504D01*
X63230750Y-70812085D01*
X63230750Y-84737915D01*
X63228329Y-84762496D01*
X63225842Y-84775000D01*
X62231750Y-84775000D01*
X62231750Y-69812085D01*
X62234171Y-69787504D01*
X62234237Y-69787172D01*
X62234237Y-69787171D01*
X62236658Y-69775000D01*
X62217216Y-69677260D01*
X62161851Y-69594399D01*
X62078990Y-69539034D01*
X62005924Y-69524500D01*
X61981250Y-69519592D01*
X61969079Y-69522013D01*
X61969078Y-69522013D01*
X61968746Y-69522079D01*
X61944165Y-69524500D01*
X55018335Y-69524500D01*
X54993754Y-69522079D01*
X54993422Y-69522013D01*
X54993421Y-69522013D01*
X54981250Y-69519592D01*
X54956576Y-69524500D01*
X54883510Y-69539034D01*
X54800649Y-69594399D01*
X54745284Y-69677260D01*
X54725842Y-69775000D01*
X54728263Y-69787171D01*
X54728263Y-69787172D01*
X54728329Y-69787504D01*
X54730750Y-69812085D01*
X54730750Y-85737915D01*
X54728329Y-85762496D01*
X54725842Y-85775000D01*
X22050500Y-85775000D01*
X22050500Y-84775000D01*
X32269592Y-84775000D01*
X32274500Y-84799674D01*
X32289034Y-84872740D01*
X32344399Y-84955601D01*
X32427260Y-85010966D01*
X32525000Y-85030408D01*
X32537171Y-85027987D01*
X32537172Y-85027987D01*
X32537504Y-85027921D01*
X32562085Y-85025500D01*
X46487915Y-85025500D01*
X46512496Y-85027921D01*
X46512828Y-85027987D01*
X46512829Y-85027987D01*
X46525000Y-85030408D01*
X46622740Y-85010966D01*
X46705601Y-84955601D01*
X46760966Y-84872740D01*
X46775500Y-84799674D01*
X46780408Y-84775000D01*
X46777921Y-84762496D01*
X46775500Y-84737915D01*
X46775500Y-70812085D01*
X46777921Y-70787504D01*
X46777987Y-70787172D01*
X46777987Y-70787171D01*
X46780408Y-70775000D01*
X46760966Y-70677260D01*
X46705601Y-70594399D01*
X46622740Y-70539034D01*
X46549674Y-70524500D01*
X46525000Y-70519592D01*
X46512829Y-70522013D01*
X46512828Y-70522013D01*
X46512496Y-70522079D01*
X46487915Y-70524500D01*
X32562085Y-70524500D01*
X32537504Y-70522079D01*
X32537172Y-70522013D01*
X32537171Y-70522013D01*
X32525000Y-70519592D01*
X32500326Y-70524500D01*
X32427260Y-70539034D01*
X32344399Y-70594399D01*
X32289034Y-70677260D01*
X32269592Y-70775000D01*
X32272013Y-70787171D01*
X32272013Y-70787172D01*
X32272079Y-70787504D01*
X32274500Y-70812085D01*
X32274500Y-84737915D01*
X32272079Y-84762496D01*
X32269592Y-84775000D01*
X22050500Y-84775000D01*
X22050500Y-66725000D01*
X297613342Y-66725000D01*
X297618250Y-66749674D01*
X297632784Y-66822740D01*
X297688149Y-66905601D01*
X297771010Y-66960966D01*
X297868750Y-66980408D01*
X297880921Y-66977987D01*
X297880922Y-66977987D01*
X297881254Y-66977921D01*
X297905835Y-66975500D01*
X304831665Y-66975500D01*
X304856246Y-66977921D01*
X304856578Y-66977987D01*
X304856579Y-66977987D01*
X304868750Y-66980408D01*
X304966490Y-66960966D01*
X305049351Y-66905601D01*
X305104716Y-66822740D01*
X305119250Y-66749674D01*
X305124158Y-66725000D01*
X321613342Y-66725000D01*
X321618250Y-66749674D01*
X321632784Y-66822740D01*
X321688149Y-66905601D01*
X321771010Y-66960966D01*
X321868750Y-66980408D01*
X321880921Y-66977987D01*
X321880922Y-66977987D01*
X321881254Y-66977921D01*
X321905835Y-66975500D01*
X328831665Y-66975500D01*
X328856246Y-66977921D01*
X328856578Y-66977987D01*
X328856579Y-66977987D01*
X328868750Y-66980408D01*
X328966490Y-66960966D01*
X329049351Y-66905601D01*
X329104716Y-66822740D01*
X329119250Y-66749674D01*
X329124158Y-66725000D01*
X329121671Y-66712496D01*
X329119250Y-66687915D01*
X329119250Y-50762085D01*
X329121671Y-50737504D01*
X329121737Y-50737172D01*
X329121737Y-50737171D01*
X329124158Y-50725000D01*
X329104716Y-50627260D01*
X329049351Y-50544399D01*
X328966490Y-50489034D01*
X328893424Y-50474500D01*
X328868750Y-50469592D01*
X328856579Y-50472013D01*
X328856578Y-50472013D01*
X328856246Y-50472079D01*
X328831665Y-50474500D01*
X321905835Y-50474500D01*
X321881254Y-50472079D01*
X321880922Y-50472013D01*
X321880921Y-50472013D01*
X321868750Y-50469592D01*
X321844076Y-50474500D01*
X321771010Y-50489034D01*
X321688149Y-50544399D01*
X321632784Y-50627260D01*
X321613342Y-50725000D01*
X321615763Y-50737171D01*
X321615763Y-50737172D01*
X321615829Y-50737504D01*
X321618250Y-50762085D01*
X321618250Y-66687915D01*
X321615829Y-66712496D01*
X321613342Y-66725000D01*
X305124158Y-66725000D01*
X305121671Y-66712496D01*
X305119250Y-66687915D01*
X305119250Y-65725000D01*
X306113342Y-65725000D01*
X306118250Y-65749674D01*
X306132784Y-65822740D01*
X306188149Y-65905601D01*
X306271010Y-65960966D01*
X306368750Y-65980408D01*
X306380921Y-65977987D01*
X306380922Y-65977987D01*
X306381254Y-65977921D01*
X306405835Y-65975500D01*
X320331665Y-65975500D01*
X320356246Y-65977921D01*
X320356578Y-65977987D01*
X320356579Y-65977987D01*
X320368750Y-65980408D01*
X320466490Y-65960966D01*
X320549351Y-65905601D01*
X320604716Y-65822740D01*
X320619250Y-65749674D01*
X320624158Y-65725000D01*
X320621671Y-65712496D01*
X320619250Y-65687915D01*
X320619250Y-51762085D01*
X320621671Y-51737504D01*
X320621737Y-51737172D01*
X320621737Y-51737171D01*
X320624158Y-51725000D01*
X320604716Y-51627260D01*
X320549351Y-51544399D01*
X320466490Y-51489034D01*
X320393424Y-51474500D01*
X320368750Y-51469592D01*
X320356579Y-51472013D01*
X320356578Y-51472013D01*
X320356246Y-51472079D01*
X320331665Y-51474500D01*
X306405835Y-51474500D01*
X306381254Y-51472079D01*
X306380922Y-51472013D01*
X306380921Y-51472013D01*
X306368750Y-51469592D01*
X306344076Y-51474500D01*
X306271010Y-51489034D01*
X306188149Y-51544399D01*
X306132784Y-51627260D01*
X306113342Y-51725000D01*
X306115763Y-51737171D01*
X306115763Y-51737172D01*
X306115829Y-51737504D01*
X306118250Y-51762085D01*
X306118250Y-65687915D01*
X306115829Y-65712496D01*
X306113342Y-65725000D01*
X305119250Y-65725000D01*
X305119250Y-50762085D01*
X305121671Y-50737504D01*
X305121737Y-50737172D01*
X305121737Y-50737171D01*
X305124158Y-50725000D01*
X305104716Y-50627260D01*
X305049351Y-50544399D01*
X304966490Y-50489034D01*
X304893424Y-50474500D01*
X304868750Y-50469592D01*
X304856579Y-50472013D01*
X304856578Y-50472013D01*
X304856246Y-50472079D01*
X304831665Y-50474500D01*
X297905835Y-50474500D01*
X297881254Y-50472079D01*
X297880922Y-50472013D01*
X297880921Y-50472013D01*
X297868750Y-50469592D01*
X297844076Y-50474500D01*
X297771010Y-50489034D01*
X297688149Y-50544399D01*
X297632784Y-50627260D01*
X297613342Y-50725000D01*
X297615763Y-50737171D01*
X297615763Y-50737172D01*
X297615829Y-50737504D01*
X297618250Y-50762085D01*
X297618250Y-66687915D01*
X297615829Y-66712496D01*
X297613342Y-66725000D01*
X22050500Y-66725000D01*
X22050500Y-65725000D01*
X32269592Y-65725000D01*
X32274500Y-65749674D01*
X32289034Y-65822740D01*
X32344399Y-65905601D01*
X32427260Y-65960966D01*
X32525000Y-65980408D01*
X32537171Y-65977987D01*
X32537172Y-65977987D01*
X32537504Y-65977921D01*
X32562085Y-65975500D01*
X46487915Y-65975500D01*
X46512496Y-65977921D01*
X46512828Y-65977987D01*
X46512829Y-65977987D01*
X46525000Y-65980408D01*
X46622740Y-65960966D01*
X46705601Y-65905601D01*
X46760966Y-65822740D01*
X46775500Y-65749674D01*
X46780408Y-65725000D01*
X51319592Y-65725000D01*
X51324500Y-65749674D01*
X51339034Y-65822740D01*
X51394399Y-65905601D01*
X51477260Y-65960966D01*
X51575000Y-65980408D01*
X51587171Y-65977987D01*
X51587172Y-65977987D01*
X51587504Y-65977921D01*
X51612085Y-65975500D01*
X65537915Y-65975500D01*
X65562496Y-65977921D01*
X65562828Y-65977987D01*
X65562829Y-65977987D01*
X65575000Y-65980408D01*
X65672740Y-65960966D01*
X65755601Y-65905601D01*
X65810966Y-65822740D01*
X65825500Y-65749674D01*
X65830408Y-65725000D01*
X77513342Y-65725000D01*
X77518250Y-65749674D01*
X77532784Y-65822740D01*
X77588149Y-65905601D01*
X77671010Y-65960966D01*
X77768750Y-65980408D01*
X77780921Y-65977987D01*
X77780922Y-65977987D01*
X77781254Y-65977921D01*
X77805835Y-65975500D01*
X91731665Y-65975500D01*
X91756246Y-65977921D01*
X91756578Y-65977987D01*
X91756579Y-65977987D01*
X91768750Y-65980408D01*
X91866490Y-65960966D01*
X91949351Y-65905601D01*
X92004716Y-65822740D01*
X92019250Y-65749674D01*
X92024158Y-65725000D01*
X103707092Y-65725000D01*
X103712000Y-65749674D01*
X103726534Y-65822740D01*
X103781899Y-65905601D01*
X103864760Y-65960966D01*
X103962500Y-65980408D01*
X103974671Y-65977987D01*
X103974672Y-65977987D01*
X103975004Y-65977921D01*
X103999585Y-65975500D01*
X117925415Y-65975500D01*
X117949996Y-65977921D01*
X117950328Y-65977987D01*
X117950329Y-65977987D01*
X117962500Y-65980408D01*
X118060240Y-65960966D01*
X118143101Y-65905601D01*
X118198466Y-65822740D01*
X118213000Y-65749674D01*
X118217908Y-65725000D01*
X122757092Y-65725000D01*
X122762000Y-65749674D01*
X122776534Y-65822740D01*
X122831899Y-65905601D01*
X122914760Y-65960966D01*
X123012500Y-65980408D01*
X123024671Y-65977987D01*
X123024672Y-65977987D01*
X123025004Y-65977921D01*
X123049585Y-65975500D01*
X136975415Y-65975500D01*
X136999996Y-65977921D01*
X137000328Y-65977987D01*
X137000329Y-65977987D01*
X137012500Y-65980408D01*
X137110240Y-65960966D01*
X137193101Y-65905601D01*
X137248466Y-65822740D01*
X137263000Y-65749674D01*
X137267908Y-65725000D01*
X141807092Y-65725000D01*
X141812000Y-65749674D01*
X141826534Y-65822740D01*
X141881899Y-65905601D01*
X141964760Y-65960966D01*
X142062500Y-65980408D01*
X142074671Y-65977987D01*
X142074672Y-65977987D01*
X142075004Y-65977921D01*
X142099585Y-65975500D01*
X156025415Y-65975500D01*
X156049996Y-65977921D01*
X156050328Y-65977987D01*
X156050329Y-65977987D01*
X156062500Y-65980408D01*
X156160240Y-65960966D01*
X156243101Y-65905601D01*
X156298466Y-65822740D01*
X156313000Y-65749674D01*
X156317908Y-65725000D01*
X160857092Y-65725000D01*
X160862000Y-65749674D01*
X160876534Y-65822740D01*
X160931899Y-65905601D01*
X161014760Y-65960966D01*
X161112500Y-65980408D01*
X161124671Y-65977987D01*
X161124672Y-65977987D01*
X161125004Y-65977921D01*
X161149585Y-65975500D01*
X175075415Y-65975500D01*
X175099996Y-65977921D01*
X175100328Y-65977987D01*
X175100329Y-65977987D01*
X175112500Y-65980408D01*
X175210240Y-65960966D01*
X175293101Y-65905601D01*
X175348466Y-65822740D01*
X175363000Y-65749674D01*
X175367908Y-65725000D01*
X179907092Y-65725000D01*
X179912000Y-65749674D01*
X179926534Y-65822740D01*
X179981899Y-65905601D01*
X180064760Y-65960966D01*
X180162500Y-65980408D01*
X180174671Y-65977987D01*
X180174672Y-65977987D01*
X180175004Y-65977921D01*
X180199585Y-65975500D01*
X194125415Y-65975500D01*
X194149996Y-65977921D01*
X194150328Y-65977987D01*
X194150329Y-65977987D01*
X194162500Y-65980408D01*
X194260240Y-65960966D01*
X194343101Y-65905601D01*
X194398466Y-65822740D01*
X194413000Y-65749674D01*
X194417908Y-65725000D01*
X198957092Y-65725000D01*
X198962000Y-65749674D01*
X198976534Y-65822740D01*
X199031899Y-65905601D01*
X199114760Y-65960966D01*
X199212500Y-65980408D01*
X199224671Y-65977987D01*
X199224672Y-65977987D01*
X199225004Y-65977921D01*
X199249585Y-65975500D01*
X213175415Y-65975500D01*
X213199996Y-65977921D01*
X213200328Y-65977987D01*
X213200329Y-65977987D01*
X213212500Y-65980408D01*
X213310240Y-65960966D01*
X213393101Y-65905601D01*
X213448466Y-65822740D01*
X213463000Y-65749674D01*
X213467908Y-65725000D01*
X218007092Y-65725000D01*
X218012000Y-65749674D01*
X218026534Y-65822740D01*
X218081899Y-65905601D01*
X218164760Y-65960966D01*
X218262500Y-65980408D01*
X218274671Y-65977987D01*
X218274672Y-65977987D01*
X218275004Y-65977921D01*
X218299585Y-65975500D01*
X232225415Y-65975500D01*
X232249996Y-65977921D01*
X232250328Y-65977987D01*
X232250329Y-65977987D01*
X232262500Y-65980408D01*
X232360240Y-65960966D01*
X232443101Y-65905601D01*
X232498466Y-65822740D01*
X232513000Y-65749674D01*
X232517908Y-65725000D01*
X237057092Y-65725000D01*
X237062000Y-65749674D01*
X237076534Y-65822740D01*
X237131899Y-65905601D01*
X237214760Y-65960966D01*
X237312500Y-65980408D01*
X237324671Y-65977987D01*
X237324672Y-65977987D01*
X237325004Y-65977921D01*
X237349585Y-65975500D01*
X251275415Y-65975500D01*
X251299996Y-65977921D01*
X251300328Y-65977987D01*
X251300329Y-65977987D01*
X251312500Y-65980408D01*
X251410240Y-65960966D01*
X251493101Y-65905601D01*
X251548466Y-65822740D01*
X251563000Y-65749674D01*
X251567908Y-65725000D01*
X256107092Y-65725000D01*
X256112000Y-65749674D01*
X256126534Y-65822740D01*
X256181899Y-65905601D01*
X256264760Y-65960966D01*
X256362500Y-65980408D01*
X256374671Y-65977987D01*
X256374672Y-65977987D01*
X256375004Y-65977921D01*
X256399585Y-65975500D01*
X270325415Y-65975500D01*
X270349996Y-65977921D01*
X270350328Y-65977987D01*
X270350329Y-65977987D01*
X270362500Y-65980408D01*
X270460240Y-65960966D01*
X270543101Y-65905601D01*
X270598466Y-65822740D01*
X270613000Y-65749674D01*
X270617908Y-65725000D01*
X275157092Y-65725000D01*
X275162000Y-65749674D01*
X275176534Y-65822740D01*
X275231899Y-65905601D01*
X275314760Y-65960966D01*
X275412500Y-65980408D01*
X275424671Y-65977987D01*
X275424672Y-65977987D01*
X275425004Y-65977921D01*
X275449585Y-65975500D01*
X289375415Y-65975500D01*
X289399996Y-65977921D01*
X289400328Y-65977987D01*
X289400329Y-65977987D01*
X289412500Y-65980408D01*
X289510240Y-65960966D01*
X289593101Y-65905601D01*
X289648466Y-65822740D01*
X289663000Y-65749674D01*
X289667908Y-65725000D01*
X289665421Y-65712496D01*
X289663000Y-65687915D01*
X289663000Y-51762085D01*
X289665421Y-51737504D01*
X289665487Y-51737172D01*
X289665487Y-51737171D01*
X289667908Y-51725000D01*
X289648466Y-51627260D01*
X289593101Y-51544399D01*
X289510240Y-51489034D01*
X289437174Y-51474500D01*
X289412500Y-51469592D01*
X289400329Y-51472013D01*
X289400328Y-51472013D01*
X289399996Y-51472079D01*
X289375415Y-51474500D01*
X275449585Y-51474500D01*
X275425004Y-51472079D01*
X275424672Y-51472013D01*
X275424671Y-51472013D01*
X275412500Y-51469592D01*
X275387826Y-51474500D01*
X275314760Y-51489034D01*
X275231899Y-51544399D01*
X275176534Y-51627260D01*
X275157092Y-51725000D01*
X275159513Y-51737171D01*
X275159513Y-51737172D01*
X275159579Y-51737504D01*
X275162000Y-51762085D01*
X275162000Y-65687915D01*
X275159579Y-65712496D01*
X275157092Y-65725000D01*
X270617908Y-65725000D01*
X270615421Y-65712496D01*
X270613000Y-65687915D01*
X270613000Y-51762085D01*
X270615421Y-51737504D01*
X270615487Y-51737172D01*
X270615487Y-51737171D01*
X270617908Y-51725000D01*
X270598466Y-51627260D01*
X270543101Y-51544399D01*
X270460240Y-51489034D01*
X270387174Y-51474500D01*
X270362500Y-51469592D01*
X270350329Y-51472013D01*
X270350328Y-51472013D01*
X270349996Y-51472079D01*
X270325415Y-51474500D01*
X256399585Y-51474500D01*
X256375004Y-51472079D01*
X256374672Y-51472013D01*
X256374671Y-51472013D01*
X256362500Y-51469592D01*
X256337826Y-51474500D01*
X256264760Y-51489034D01*
X256181899Y-51544399D01*
X256126534Y-51627260D01*
X256107092Y-51725000D01*
X256109513Y-51737171D01*
X256109513Y-51737172D01*
X256109579Y-51737504D01*
X256112000Y-51762085D01*
X256112000Y-65687915D01*
X256109579Y-65712496D01*
X256107092Y-65725000D01*
X251567908Y-65725000D01*
X251565421Y-65712496D01*
X251563000Y-65687915D01*
X251563000Y-51762085D01*
X251565421Y-51737504D01*
X251565487Y-51737172D01*
X251565487Y-51737171D01*
X251567908Y-51725000D01*
X251548466Y-51627260D01*
X251493101Y-51544399D01*
X251410240Y-51489034D01*
X251337174Y-51474500D01*
X251312500Y-51469592D01*
X251300329Y-51472013D01*
X251300328Y-51472013D01*
X251299996Y-51472079D01*
X251275415Y-51474500D01*
X237349585Y-51474500D01*
X237325004Y-51472079D01*
X237324672Y-51472013D01*
X237324671Y-51472013D01*
X237312500Y-51469592D01*
X237287826Y-51474500D01*
X237214760Y-51489034D01*
X237131899Y-51544399D01*
X237076534Y-51627260D01*
X237057092Y-51725000D01*
X237059513Y-51737171D01*
X237059513Y-51737172D01*
X237059579Y-51737504D01*
X237062000Y-51762085D01*
X237062000Y-65687915D01*
X237059579Y-65712496D01*
X237057092Y-65725000D01*
X232517908Y-65725000D01*
X232515421Y-65712496D01*
X232513000Y-65687915D01*
X232513000Y-51762085D01*
X232515421Y-51737504D01*
X232515487Y-51737172D01*
X232515487Y-51737171D01*
X232517908Y-51725000D01*
X232498466Y-51627260D01*
X232443101Y-51544399D01*
X232360240Y-51489034D01*
X232287174Y-51474500D01*
X232262500Y-51469592D01*
X232250329Y-51472013D01*
X232250328Y-51472013D01*
X232249996Y-51472079D01*
X232225415Y-51474500D01*
X218299585Y-51474500D01*
X218275004Y-51472079D01*
X218274672Y-51472013D01*
X218274671Y-51472013D01*
X218262500Y-51469592D01*
X218237826Y-51474500D01*
X218164760Y-51489034D01*
X218081899Y-51544399D01*
X218026534Y-51627260D01*
X218007092Y-51725000D01*
X218009513Y-51737171D01*
X218009513Y-51737172D01*
X218009579Y-51737504D01*
X218012000Y-51762085D01*
X218012000Y-65687915D01*
X218009579Y-65712496D01*
X218007092Y-65725000D01*
X213467908Y-65725000D01*
X213465421Y-65712496D01*
X213463000Y-65687915D01*
X213463000Y-51762085D01*
X213465421Y-51737504D01*
X213465487Y-51737172D01*
X213465487Y-51737171D01*
X213467908Y-51725000D01*
X213448466Y-51627260D01*
X213393101Y-51544399D01*
X213310240Y-51489034D01*
X213237174Y-51474500D01*
X213212500Y-51469592D01*
X213200329Y-51472013D01*
X213200328Y-51472013D01*
X213199996Y-51472079D01*
X213175415Y-51474500D01*
X199249585Y-51474500D01*
X199225004Y-51472079D01*
X199224672Y-51472013D01*
X199224671Y-51472013D01*
X199212500Y-51469592D01*
X199187826Y-51474500D01*
X199114760Y-51489034D01*
X199031899Y-51544399D01*
X198976534Y-51627260D01*
X198957092Y-51725000D01*
X198959513Y-51737171D01*
X198959513Y-51737172D01*
X198959579Y-51737504D01*
X198962000Y-51762085D01*
X198962000Y-65687915D01*
X198959579Y-65712496D01*
X198957092Y-65725000D01*
X194417908Y-65725000D01*
X194415421Y-65712496D01*
X194413000Y-65687915D01*
X194413000Y-51762085D01*
X194415421Y-51737504D01*
X194415487Y-51737172D01*
X194415487Y-51737171D01*
X194417908Y-51725000D01*
X194398466Y-51627260D01*
X194343101Y-51544399D01*
X194260240Y-51489034D01*
X194187174Y-51474500D01*
X194162500Y-51469592D01*
X194150329Y-51472013D01*
X194150328Y-51472013D01*
X194149996Y-51472079D01*
X194125415Y-51474500D01*
X180199585Y-51474500D01*
X180175004Y-51472079D01*
X180174672Y-51472013D01*
X180174671Y-51472013D01*
X180162500Y-51469592D01*
X180137826Y-51474500D01*
X180064760Y-51489034D01*
X179981899Y-51544399D01*
X179926534Y-51627260D01*
X179907092Y-51725000D01*
X179909513Y-51737171D01*
X179909513Y-51737172D01*
X179909579Y-51737504D01*
X179912000Y-51762085D01*
X179912000Y-65687915D01*
X179909579Y-65712496D01*
X179907092Y-65725000D01*
X175367908Y-65725000D01*
X175365421Y-65712496D01*
X175363000Y-65687915D01*
X175363000Y-51762085D01*
X175365421Y-51737504D01*
X175365487Y-51737172D01*
X175365487Y-51737171D01*
X175367908Y-51725000D01*
X175348466Y-51627260D01*
X175293101Y-51544399D01*
X175210240Y-51489034D01*
X175137174Y-51474500D01*
X175112500Y-51469592D01*
X175100329Y-51472013D01*
X175100328Y-51472013D01*
X175099996Y-51472079D01*
X175075415Y-51474500D01*
X161149585Y-51474500D01*
X161125004Y-51472079D01*
X161124672Y-51472013D01*
X161124671Y-51472013D01*
X161112500Y-51469592D01*
X161087826Y-51474500D01*
X161014760Y-51489034D01*
X160931899Y-51544399D01*
X160876534Y-51627260D01*
X160857092Y-51725000D01*
X160859513Y-51737171D01*
X160859513Y-51737172D01*
X160859579Y-51737504D01*
X160862000Y-51762085D01*
X160862000Y-65687915D01*
X160859579Y-65712496D01*
X160857092Y-65725000D01*
X156317908Y-65725000D01*
X156315421Y-65712496D01*
X156313000Y-65687915D01*
X156313000Y-51762085D01*
X156315421Y-51737504D01*
X156315487Y-51737172D01*
X156315487Y-51737171D01*
X156317908Y-51725000D01*
X156298466Y-51627260D01*
X156243101Y-51544399D01*
X156160240Y-51489034D01*
X156087174Y-51474500D01*
X156062500Y-51469592D01*
X156050329Y-51472013D01*
X156050328Y-51472013D01*
X156049996Y-51472079D01*
X156025415Y-51474500D01*
X142099585Y-51474500D01*
X142075004Y-51472079D01*
X142074672Y-51472013D01*
X142074671Y-51472013D01*
X142062500Y-51469592D01*
X142037826Y-51474500D01*
X141964760Y-51489034D01*
X141881899Y-51544399D01*
X141826534Y-51627260D01*
X141807092Y-51725000D01*
X141809513Y-51737171D01*
X141809513Y-51737172D01*
X141809579Y-51737504D01*
X141812000Y-51762085D01*
X141812000Y-65687915D01*
X141809579Y-65712496D01*
X141807092Y-65725000D01*
X137267908Y-65725000D01*
X137265421Y-65712496D01*
X137263000Y-65687915D01*
X137263000Y-51762085D01*
X137265421Y-51737504D01*
X137265487Y-51737172D01*
X137265487Y-51737171D01*
X137267908Y-51725000D01*
X137248466Y-51627260D01*
X137193101Y-51544399D01*
X137110240Y-51489034D01*
X137037174Y-51474500D01*
X137012500Y-51469592D01*
X137000329Y-51472013D01*
X137000328Y-51472013D01*
X136999996Y-51472079D01*
X136975415Y-51474500D01*
X123049585Y-51474500D01*
X123025004Y-51472079D01*
X123024672Y-51472013D01*
X123024671Y-51472013D01*
X123012500Y-51469592D01*
X122987826Y-51474500D01*
X122914760Y-51489034D01*
X122831899Y-51544399D01*
X122776534Y-51627260D01*
X122757092Y-51725000D01*
X122759513Y-51737171D01*
X122759513Y-51737172D01*
X122759579Y-51737504D01*
X122762000Y-51762085D01*
X122762000Y-65687915D01*
X122759579Y-65712496D01*
X122757092Y-65725000D01*
X118217908Y-65725000D01*
X118215421Y-65712496D01*
X118213000Y-65687915D01*
X118213000Y-51762085D01*
X118215421Y-51737504D01*
X118215487Y-51737172D01*
X118215487Y-51737171D01*
X118217908Y-51725000D01*
X118198466Y-51627260D01*
X118143101Y-51544399D01*
X118060240Y-51489034D01*
X117987174Y-51474500D01*
X117962500Y-51469592D01*
X117950329Y-51472013D01*
X117950328Y-51472013D01*
X117949996Y-51472079D01*
X117925415Y-51474500D01*
X103999585Y-51474500D01*
X103975004Y-51472079D01*
X103974672Y-51472013D01*
X103974671Y-51472013D01*
X103962500Y-51469592D01*
X103937826Y-51474500D01*
X103864760Y-51489034D01*
X103781899Y-51544399D01*
X103726534Y-51627260D01*
X103707092Y-51725000D01*
X103709513Y-51737171D01*
X103709513Y-51737172D01*
X103709579Y-51737504D01*
X103712000Y-51762085D01*
X103712000Y-65687915D01*
X103709579Y-65712496D01*
X103707092Y-65725000D01*
X92024158Y-65725000D01*
X92021671Y-65712496D01*
X92019250Y-65687915D01*
X92019250Y-51762085D01*
X92021671Y-51737504D01*
X92021737Y-51737172D01*
X92021737Y-51737171D01*
X92024158Y-51725000D01*
X92004716Y-51627260D01*
X91949351Y-51544399D01*
X91866490Y-51489034D01*
X91793424Y-51474500D01*
X91768750Y-51469592D01*
X91756579Y-51472013D01*
X91756578Y-51472013D01*
X91756246Y-51472079D01*
X91731665Y-51474500D01*
X77805835Y-51474500D01*
X77781254Y-51472079D01*
X77780922Y-51472013D01*
X77780921Y-51472013D01*
X77768750Y-51469592D01*
X77744076Y-51474500D01*
X77671010Y-51489034D01*
X77588149Y-51544399D01*
X77532784Y-51627260D01*
X77513342Y-51725000D01*
X77515763Y-51737171D01*
X77515763Y-51737172D01*
X77515829Y-51737504D01*
X77518250Y-51762085D01*
X77518250Y-65687915D01*
X77515829Y-65712496D01*
X77513342Y-65725000D01*
X65830408Y-65725000D01*
X65827921Y-65712496D01*
X65825500Y-65687915D01*
X65825500Y-51762085D01*
X65827921Y-51737504D01*
X65827987Y-51737172D01*
X65827987Y-51737171D01*
X65830408Y-51725000D01*
X65810966Y-51627260D01*
X65755601Y-51544399D01*
X65672740Y-51489034D01*
X65599674Y-51474500D01*
X65575000Y-51469592D01*
X65562829Y-51472013D01*
X65562828Y-51472013D01*
X65562496Y-51472079D01*
X65537915Y-51474500D01*
X51612085Y-51474500D01*
X51587504Y-51472079D01*
X51587172Y-51472013D01*
X51587171Y-51472013D01*
X51575000Y-51469592D01*
X51550326Y-51474500D01*
X51477260Y-51489034D01*
X51394399Y-51544399D01*
X51339034Y-51627260D01*
X51319592Y-51725000D01*
X51322013Y-51737171D01*
X51322013Y-51737172D01*
X51322079Y-51737504D01*
X51324500Y-51762085D01*
X51324500Y-65687915D01*
X51322079Y-65712496D01*
X51319592Y-65725000D01*
X46780408Y-65725000D01*
X46777921Y-65712496D01*
X46775500Y-65687915D01*
X46775500Y-51762085D01*
X46777921Y-51737504D01*
X46777987Y-51737172D01*
X46777987Y-51737171D01*
X46780408Y-51725000D01*
X46760966Y-51627260D01*
X46705601Y-51544399D01*
X46622740Y-51489034D01*
X46549674Y-51474500D01*
X46525000Y-51469592D01*
X46512829Y-51472013D01*
X46512828Y-51472013D01*
X46512496Y-51472079D01*
X46487915Y-51474500D01*
X32562085Y-51474500D01*
X32537504Y-51472079D01*
X32537172Y-51472013D01*
X32537171Y-51472013D01*
X32525000Y-51469592D01*
X32500326Y-51474500D01*
X32427260Y-51489034D01*
X32344399Y-51544399D01*
X32289034Y-51627260D01*
X32269592Y-51725000D01*
X32272013Y-51737171D01*
X32272013Y-51737172D01*
X32272079Y-51737504D01*
X32274500Y-51762085D01*
X32274500Y-65687915D01*
X32272079Y-65712496D01*
X32269592Y-65725000D01*
X22050500Y-65725000D01*
X22050500Y-47650000D01*
X150075842Y-47650000D01*
X150080750Y-47674674D01*
X150095284Y-47747740D01*
X150150649Y-47830601D01*
X150233510Y-47885966D01*
X150331250Y-47905408D01*
X150343421Y-47902987D01*
X150343422Y-47902987D01*
X150343754Y-47902921D01*
X150368335Y-47900500D01*
X157294165Y-47900500D01*
X157318746Y-47902921D01*
X157319078Y-47902987D01*
X157319079Y-47902987D01*
X157331250Y-47905408D01*
X157428990Y-47885966D01*
X157511851Y-47830601D01*
X157567216Y-47747740D01*
X157581750Y-47674674D01*
X157586658Y-47650000D01*
X250075842Y-47650000D01*
X250080750Y-47674674D01*
X250095284Y-47747740D01*
X250150649Y-47830601D01*
X250233510Y-47885966D01*
X250331250Y-47905408D01*
X250343421Y-47902987D01*
X250343422Y-47902987D01*
X250343754Y-47902921D01*
X250368335Y-47900500D01*
X257294165Y-47900500D01*
X257318746Y-47902921D01*
X257319078Y-47902987D01*
X257319079Y-47902987D01*
X257331250Y-47905408D01*
X257428990Y-47885966D01*
X257511851Y-47830601D01*
X257567216Y-47747740D01*
X257581750Y-47674674D01*
X257586658Y-47650000D01*
X257584171Y-47637496D01*
X257581750Y-47612915D01*
X257581750Y-46650000D01*
X268013342Y-46650000D01*
X268018250Y-46674674D01*
X268032784Y-46747740D01*
X268088149Y-46830601D01*
X268171010Y-46885966D01*
X268268750Y-46905408D01*
X268280921Y-46902987D01*
X268280922Y-46902987D01*
X268281254Y-46902921D01*
X268305835Y-46900500D01*
X282231665Y-46900500D01*
X282256246Y-46902921D01*
X282256578Y-46902987D01*
X282256579Y-46902987D01*
X282268750Y-46905408D01*
X282366490Y-46885966D01*
X282449351Y-46830601D01*
X282504716Y-46747740D01*
X282519250Y-46674674D01*
X282524158Y-46650000D01*
X291825842Y-46650000D01*
X291830750Y-46674674D01*
X291845284Y-46747740D01*
X291900649Y-46830601D01*
X291983510Y-46885966D01*
X292081250Y-46905408D01*
X292093421Y-46902987D01*
X292093422Y-46902987D01*
X292093754Y-46902921D01*
X292118335Y-46900500D01*
X306044165Y-46900500D01*
X306068746Y-46902921D01*
X306069078Y-46902987D01*
X306069079Y-46902987D01*
X306081250Y-46905408D01*
X306178990Y-46885966D01*
X306261851Y-46830601D01*
X306317216Y-46747740D01*
X306331750Y-46674674D01*
X306336658Y-46650000D01*
X315638342Y-46650000D01*
X315643250Y-46674674D01*
X315657784Y-46747740D01*
X315713149Y-46830601D01*
X315796010Y-46885966D01*
X315893750Y-46905408D01*
X315905921Y-46902987D01*
X315905922Y-46902987D01*
X315906254Y-46902921D01*
X315930835Y-46900500D01*
X329856665Y-46900500D01*
X329881246Y-46902921D01*
X329881578Y-46902987D01*
X329881579Y-46902987D01*
X329893750Y-46905408D01*
X329991490Y-46885966D01*
X330074351Y-46830601D01*
X330129716Y-46747740D01*
X330144250Y-46674674D01*
X330149158Y-46650000D01*
X330146671Y-46637496D01*
X330144250Y-46612915D01*
X330144250Y-39442095D01*
X337545028Y-39442095D01*
X337570534Y-39709431D01*
X337634364Y-39970285D01*
X337735182Y-40219192D01*
X337870875Y-40450938D01*
X337873728Y-40454505D01*
X337985225Y-40593925D01*
X338038601Y-40660669D01*
X338234846Y-40843991D01*
X338327039Y-40907948D01*
X338451746Y-40994461D01*
X338451751Y-40994464D01*
X338455499Y-40997064D01*
X338459584Y-40999096D01*
X338459587Y-40999098D01*
X338575719Y-41056872D01*
X338695938Y-41116680D01*
X338700272Y-41118101D01*
X338700275Y-41118102D01*
X338946793Y-41198915D01*
X338946798Y-41198916D01*
X338951126Y-41200335D01*
X338955617Y-41201115D01*
X338955618Y-41201115D01*
X339211936Y-41245620D01*
X339211944Y-41245621D01*
X339215717Y-41246276D01*
X339219554Y-41246467D01*
X339298996Y-41250422D01*
X339299004Y-41250422D01*
X339300567Y-41250500D01*
X339468223Y-41250500D01*
X339470491Y-41250335D01*
X339470503Y-41250335D01*
X339600823Y-41240879D01*
X339667846Y-41236016D01*
X339672301Y-41235032D01*
X339672304Y-41235032D01*
X339925620Y-41179105D01*
X339925624Y-41179104D01*
X339930080Y-41178120D01*
X340097617Y-41114646D01*
X340176941Y-41084593D01*
X340176944Y-41084592D01*
X340181211Y-41082975D01*
X340415976Y-40952574D01*
X340558254Y-40843991D01*
X340625833Y-40792417D01*
X340625837Y-40792413D01*
X340629458Y-40789650D01*
X340817185Y-40597614D01*
X340975225Y-40380491D01*
X341062313Y-40214963D01*
X341098140Y-40146868D01*
X341098143Y-40146862D01*
X341100265Y-40142828D01*
X341159703Y-39974515D01*
X341188165Y-39893916D01*
X341188165Y-39893915D01*
X341189688Y-39889603D01*
X341241620Y-39626122D01*
X341241847Y-39621566D01*
X341254745Y-39362474D01*
X341254745Y-39362468D01*
X341254972Y-39357905D01*
X341229466Y-39090569D01*
X341165636Y-38829715D01*
X341064818Y-38580808D01*
X340929125Y-38349062D01*
X340818211Y-38210371D01*
X340764251Y-38142897D01*
X340764250Y-38142895D01*
X340761399Y-38139331D01*
X340565154Y-37956009D01*
X340405436Y-37845208D01*
X340348254Y-37805539D01*
X340348249Y-37805536D01*
X340344501Y-37802936D01*
X340340416Y-37800904D01*
X340340413Y-37800902D01*
X340168560Y-37715407D01*
X340104062Y-37683320D01*
X340099728Y-37681899D01*
X340099725Y-37681898D01*
X339853207Y-37601085D01*
X339853202Y-37601084D01*
X339848874Y-37599665D01*
X339844382Y-37598885D01*
X339588064Y-37554380D01*
X339588056Y-37554379D01*
X339584283Y-37553724D01*
X339575622Y-37553293D01*
X339501004Y-37549578D01*
X339500996Y-37549578D01*
X339499433Y-37549500D01*
X339331777Y-37549500D01*
X339329509Y-37549665D01*
X339329497Y-37549665D01*
X339199177Y-37559121D01*
X339132154Y-37563984D01*
X339127699Y-37564968D01*
X339127696Y-37564968D01*
X338874380Y-37620895D01*
X338874376Y-37620896D01*
X338869920Y-37621880D01*
X338744354Y-37669453D01*
X338623059Y-37715407D01*
X338623056Y-37715408D01*
X338618789Y-37717025D01*
X338384024Y-37847426D01*
X338380392Y-37850198D01*
X338174167Y-38007583D01*
X338174163Y-38007587D01*
X338170542Y-38010350D01*
X337982815Y-38202386D01*
X337824775Y-38419509D01*
X337822651Y-38423547D01*
X337701860Y-38653132D01*
X337701857Y-38653138D01*
X337699735Y-38657172D01*
X337698215Y-38661477D01*
X337698213Y-38661481D01*
X337638804Y-38829715D01*
X337610312Y-38910397D01*
X337558380Y-39173878D01*
X337558153Y-39178431D01*
X337558153Y-39178434D01*
X337548992Y-39362474D01*
X337545028Y-39442095D01*
X330144250Y-39442095D01*
X330144250Y-32687085D01*
X330146671Y-32662504D01*
X330146737Y-32662172D01*
X330146737Y-32662171D01*
X330149158Y-32650000D01*
X330129716Y-32552260D01*
X330074351Y-32469399D01*
X329991490Y-32414034D01*
X329918424Y-32399500D01*
X329893750Y-32394592D01*
X329881579Y-32397013D01*
X329881578Y-32397013D01*
X329881246Y-32397079D01*
X329856665Y-32399500D01*
X315930835Y-32399500D01*
X315906254Y-32397079D01*
X315905922Y-32397013D01*
X315905921Y-32397013D01*
X315893750Y-32394592D01*
X315869076Y-32399500D01*
X315796010Y-32414034D01*
X315713149Y-32469399D01*
X315657784Y-32552260D01*
X315638342Y-32650000D01*
X315640763Y-32662171D01*
X315640763Y-32662172D01*
X315640829Y-32662504D01*
X315643250Y-32687085D01*
X315643250Y-46612915D01*
X315640829Y-46637496D01*
X315638342Y-46650000D01*
X306336658Y-46650000D01*
X306334171Y-46637496D01*
X306331750Y-46612915D01*
X306331750Y-32687085D01*
X306334171Y-32662504D01*
X306334237Y-32662172D01*
X306334237Y-32662171D01*
X306336658Y-32650000D01*
X306317216Y-32552260D01*
X306261851Y-32469399D01*
X306178990Y-32414034D01*
X306105924Y-32399500D01*
X306081250Y-32394592D01*
X306069079Y-32397013D01*
X306069078Y-32397013D01*
X306068746Y-32397079D01*
X306044165Y-32399500D01*
X292118335Y-32399500D01*
X292093754Y-32397079D01*
X292093422Y-32397013D01*
X292093421Y-32397013D01*
X292081250Y-32394592D01*
X292056576Y-32399500D01*
X291983510Y-32414034D01*
X291900649Y-32469399D01*
X291845284Y-32552260D01*
X291825842Y-32650000D01*
X291828263Y-32662171D01*
X291828263Y-32662172D01*
X291828329Y-32662504D01*
X291830750Y-32687085D01*
X291830750Y-46612915D01*
X291828329Y-46637496D01*
X291825842Y-46650000D01*
X282524158Y-46650000D01*
X282521671Y-46637496D01*
X282519250Y-46612915D01*
X282519250Y-32687085D01*
X282521671Y-32662504D01*
X282521737Y-32662172D01*
X282521737Y-32662171D01*
X282524158Y-32650000D01*
X282504716Y-32552260D01*
X282449351Y-32469399D01*
X282366490Y-32414034D01*
X282293424Y-32399500D01*
X282268750Y-32394592D01*
X282256579Y-32397013D01*
X282256578Y-32397013D01*
X282256246Y-32397079D01*
X282231665Y-32399500D01*
X268305835Y-32399500D01*
X268281254Y-32397079D01*
X268280922Y-32397013D01*
X268280921Y-32397013D01*
X268268750Y-32394592D01*
X268244076Y-32399500D01*
X268171010Y-32414034D01*
X268088149Y-32469399D01*
X268032784Y-32552260D01*
X268013342Y-32650000D01*
X268015763Y-32662171D01*
X268015763Y-32662172D01*
X268015829Y-32662504D01*
X268018250Y-32687085D01*
X268018250Y-46612915D01*
X268015829Y-46637496D01*
X268013342Y-46650000D01*
X257581750Y-46650000D01*
X257581750Y-31687085D01*
X257584171Y-31662504D01*
X257584237Y-31662172D01*
X257584237Y-31662171D01*
X257586658Y-31650000D01*
X257567216Y-31552260D01*
X257511851Y-31469399D01*
X257428990Y-31414034D01*
X257355924Y-31399500D01*
X257331250Y-31394592D01*
X257319079Y-31397013D01*
X257319078Y-31397013D01*
X257318746Y-31397079D01*
X257294165Y-31399500D01*
X250368335Y-31399500D01*
X250343754Y-31397079D01*
X250343422Y-31397013D01*
X250343421Y-31397013D01*
X250331250Y-31394592D01*
X250306576Y-31399500D01*
X250233510Y-31414034D01*
X250150649Y-31469399D01*
X250095284Y-31552260D01*
X250075842Y-31650000D01*
X250078263Y-31662171D01*
X250078263Y-31662172D01*
X250078329Y-31662504D01*
X250080750Y-31687085D01*
X250080750Y-47612915D01*
X250078329Y-47637496D01*
X250075842Y-47650000D01*
X157586658Y-47650000D01*
X157584171Y-47637496D01*
X157581750Y-47612915D01*
X157581750Y-46650000D01*
X196575842Y-46650000D01*
X196580750Y-46674674D01*
X196595284Y-46747740D01*
X196650649Y-46830601D01*
X196733510Y-46885966D01*
X196831250Y-46905408D01*
X196843421Y-46902987D01*
X196843422Y-46902987D01*
X196843754Y-46902921D01*
X196868335Y-46900500D01*
X210794165Y-46900500D01*
X210818746Y-46902921D01*
X210819078Y-46902987D01*
X210819079Y-46902987D01*
X210831250Y-46905408D01*
X210928990Y-46885966D01*
X211011851Y-46830601D01*
X211067216Y-46747740D01*
X211081750Y-46674674D01*
X211086658Y-46650000D01*
X211084171Y-46637496D01*
X211081750Y-46612915D01*
X211081750Y-32687085D01*
X211084171Y-32662504D01*
X211084237Y-32662172D01*
X211084237Y-32662171D01*
X211086658Y-32650000D01*
X211067216Y-32552260D01*
X211011851Y-32469399D01*
X210928990Y-32414034D01*
X210855924Y-32399500D01*
X210831250Y-32394592D01*
X210819079Y-32397013D01*
X210819078Y-32397013D01*
X210818746Y-32397079D01*
X210794165Y-32399500D01*
X196868335Y-32399500D01*
X196843754Y-32397079D01*
X196843422Y-32397013D01*
X196843421Y-32397013D01*
X196831250Y-32394592D01*
X196806576Y-32399500D01*
X196733510Y-32414034D01*
X196650649Y-32469399D01*
X196595284Y-32552260D01*
X196575842Y-32650000D01*
X196578263Y-32662171D01*
X196578263Y-32662172D01*
X196578329Y-32662504D01*
X196580750Y-32687085D01*
X196580750Y-46612915D01*
X196578329Y-46637496D01*
X196575842Y-46650000D01*
X157581750Y-46650000D01*
X157581750Y-31687085D01*
X157584171Y-31662504D01*
X157584237Y-31662172D01*
X157584237Y-31662171D01*
X157586658Y-31650000D01*
X157567216Y-31552260D01*
X157511851Y-31469399D01*
X157428990Y-31414034D01*
X157355924Y-31399500D01*
X157331250Y-31394592D01*
X157319079Y-31397013D01*
X157319078Y-31397013D01*
X157318746Y-31397079D01*
X157294165Y-31399500D01*
X150368335Y-31399500D01*
X150343754Y-31397079D01*
X150343422Y-31397013D01*
X150343421Y-31397013D01*
X150331250Y-31394592D01*
X150306576Y-31399500D01*
X150233510Y-31414034D01*
X150150649Y-31469399D01*
X150095284Y-31552260D01*
X150075842Y-31650000D01*
X150078263Y-31662171D01*
X150078263Y-31662172D01*
X150078329Y-31662504D01*
X150080750Y-31687085D01*
X150080750Y-47612915D01*
X150078329Y-47637496D01*
X150075842Y-47650000D01*
X22050500Y-47650000D01*
X22050500Y-46650000D01*
X32269592Y-46650000D01*
X32274500Y-46674674D01*
X32289034Y-46747740D01*
X32344399Y-46830601D01*
X32427260Y-46885966D01*
X32525000Y-46905408D01*
X32537171Y-46902987D01*
X32537172Y-46902987D01*
X32537504Y-46902921D01*
X32562085Y-46900500D01*
X46487915Y-46900500D01*
X46512496Y-46902921D01*
X46512828Y-46902987D01*
X46512829Y-46902987D01*
X46525000Y-46905408D01*
X46622740Y-46885966D01*
X46705601Y-46830601D01*
X46760966Y-46747740D01*
X46775500Y-46674674D01*
X46780408Y-46650000D01*
X51319592Y-46650000D01*
X51324500Y-46674674D01*
X51339034Y-46747740D01*
X51394399Y-46830601D01*
X51477260Y-46885966D01*
X51575000Y-46905408D01*
X51587171Y-46902987D01*
X51587172Y-46902987D01*
X51587504Y-46902921D01*
X51612085Y-46900500D01*
X65537915Y-46900500D01*
X65562496Y-46902921D01*
X65562828Y-46902987D01*
X65562829Y-46902987D01*
X65575000Y-46905408D01*
X65672740Y-46885966D01*
X65755601Y-46830601D01*
X65810966Y-46747740D01*
X65825500Y-46674674D01*
X65830408Y-46650000D01*
X70369592Y-46650000D01*
X70374500Y-46674674D01*
X70389034Y-46747740D01*
X70444399Y-46830601D01*
X70527260Y-46885966D01*
X70625000Y-46905408D01*
X70637171Y-46902987D01*
X70637172Y-46902987D01*
X70637504Y-46902921D01*
X70662085Y-46900500D01*
X84587915Y-46900500D01*
X84612496Y-46902921D01*
X84612828Y-46902987D01*
X84612829Y-46902987D01*
X84625000Y-46905408D01*
X84722740Y-46885966D01*
X84805601Y-46830601D01*
X84860966Y-46747740D01*
X84875500Y-46674674D01*
X84880408Y-46650000D01*
X89419592Y-46650000D01*
X89424500Y-46674674D01*
X89439034Y-46747740D01*
X89494399Y-46830601D01*
X89577260Y-46885966D01*
X89675000Y-46905408D01*
X89687171Y-46902987D01*
X89687172Y-46902987D01*
X89687504Y-46902921D01*
X89712085Y-46900500D01*
X103637915Y-46900500D01*
X103662496Y-46902921D01*
X103662828Y-46902987D01*
X103662829Y-46902987D01*
X103675000Y-46905408D01*
X103772740Y-46885966D01*
X103855601Y-46830601D01*
X103910966Y-46747740D01*
X103925500Y-46674674D01*
X103930408Y-46650000D01*
X108469592Y-46650000D01*
X108474500Y-46674674D01*
X108489034Y-46747740D01*
X108544399Y-46830601D01*
X108627260Y-46885966D01*
X108725000Y-46905408D01*
X108737171Y-46902987D01*
X108737172Y-46902987D01*
X108737504Y-46902921D01*
X108762085Y-46900500D01*
X122687915Y-46900500D01*
X122712496Y-46902921D01*
X122712828Y-46902987D01*
X122712829Y-46902987D01*
X122725000Y-46905408D01*
X122822740Y-46885966D01*
X122905601Y-46830601D01*
X122960966Y-46747740D01*
X122975500Y-46674674D01*
X122980408Y-46650000D01*
X127519592Y-46650000D01*
X127524500Y-46674674D01*
X127539034Y-46747740D01*
X127594399Y-46830601D01*
X127677260Y-46885966D01*
X127775000Y-46905408D01*
X127787171Y-46902987D01*
X127787172Y-46902987D01*
X127787504Y-46902921D01*
X127812085Y-46900500D01*
X141737915Y-46900500D01*
X141762496Y-46902921D01*
X141762828Y-46902987D01*
X141762829Y-46902987D01*
X141775000Y-46905408D01*
X141872740Y-46885966D01*
X141955601Y-46830601D01*
X142010966Y-46747740D01*
X142025500Y-46674674D01*
X142030408Y-46650000D01*
X142027921Y-46637496D01*
X142025500Y-46612915D01*
X142025500Y-32687085D01*
X142027921Y-32662504D01*
X142027987Y-32662172D01*
X142027987Y-32662171D01*
X142030408Y-32650000D01*
X142010966Y-32552260D01*
X141955601Y-32469399D01*
X141872740Y-32414034D01*
X141799674Y-32399500D01*
X141775000Y-32394592D01*
X141762829Y-32397013D01*
X141762828Y-32397013D01*
X141762496Y-32397079D01*
X141737915Y-32399500D01*
X127812085Y-32399500D01*
X127787504Y-32397079D01*
X127787172Y-32397013D01*
X127787171Y-32397013D01*
X127775000Y-32394592D01*
X127750326Y-32399500D01*
X127677260Y-32414034D01*
X127594399Y-32469399D01*
X127539034Y-32552260D01*
X127519592Y-32650000D01*
X127522013Y-32662171D01*
X127522013Y-32662172D01*
X127522079Y-32662504D01*
X127524500Y-32687085D01*
X127524500Y-46612915D01*
X127522079Y-46637496D01*
X127519592Y-46650000D01*
X122980408Y-46650000D01*
X122977921Y-46637496D01*
X122975500Y-46612915D01*
X122975500Y-32687085D01*
X122977921Y-32662504D01*
X122977987Y-32662172D01*
X122977987Y-32662171D01*
X122980408Y-32650000D01*
X122960966Y-32552260D01*
X122905601Y-32469399D01*
X122822740Y-32414034D01*
X122749674Y-32399500D01*
X122725000Y-32394592D01*
X122712829Y-32397013D01*
X122712828Y-32397013D01*
X122712496Y-32397079D01*
X122687915Y-32399500D01*
X108762085Y-32399500D01*
X108737504Y-32397079D01*
X108737172Y-32397013D01*
X108737171Y-32397013D01*
X108725000Y-32394592D01*
X108700326Y-32399500D01*
X108627260Y-32414034D01*
X108544399Y-32469399D01*
X108489034Y-32552260D01*
X108469592Y-32650000D01*
X108472013Y-32662171D01*
X108472013Y-32662172D01*
X108472079Y-32662504D01*
X108474500Y-32687085D01*
X108474500Y-46612915D01*
X108472079Y-46637496D01*
X108469592Y-46650000D01*
X103930408Y-46650000D01*
X103927921Y-46637496D01*
X103925500Y-46612915D01*
X103925500Y-32687085D01*
X103927921Y-32662504D01*
X103927987Y-32662172D01*
X103927987Y-32662171D01*
X103930408Y-32650000D01*
X103910966Y-32552260D01*
X103855601Y-32469399D01*
X103772740Y-32414034D01*
X103699674Y-32399500D01*
X103675000Y-32394592D01*
X103662829Y-32397013D01*
X103662828Y-32397013D01*
X103662496Y-32397079D01*
X103637915Y-32399500D01*
X89712085Y-32399500D01*
X89687504Y-32397079D01*
X89687172Y-32397013D01*
X89687171Y-32397013D01*
X89675000Y-32394592D01*
X89650326Y-32399500D01*
X89577260Y-32414034D01*
X89494399Y-32469399D01*
X89439034Y-32552260D01*
X89419592Y-32650000D01*
X89422013Y-32662171D01*
X89422013Y-32662172D01*
X89422079Y-32662504D01*
X89424500Y-32687085D01*
X89424500Y-46612915D01*
X89422079Y-46637496D01*
X89419592Y-46650000D01*
X84880408Y-46650000D01*
X84877921Y-46637496D01*
X84875500Y-46612915D01*
X84875500Y-32687085D01*
X84877921Y-32662504D01*
X84877987Y-32662172D01*
X84877987Y-32662171D01*
X84880408Y-32650000D01*
X84860966Y-32552260D01*
X84805601Y-32469399D01*
X84722740Y-32414034D01*
X84649674Y-32399500D01*
X84625000Y-32394592D01*
X84612829Y-32397013D01*
X84612828Y-32397013D01*
X84612496Y-32397079D01*
X84587915Y-32399500D01*
X70662085Y-32399500D01*
X70637504Y-32397079D01*
X70637172Y-32397013D01*
X70637171Y-32397013D01*
X70625000Y-32394592D01*
X70600326Y-32399500D01*
X70527260Y-32414034D01*
X70444399Y-32469399D01*
X70389034Y-32552260D01*
X70369592Y-32650000D01*
X70372013Y-32662171D01*
X70372013Y-32662172D01*
X70372079Y-32662504D01*
X70374500Y-32687085D01*
X70374500Y-46612915D01*
X70372079Y-46637496D01*
X70369592Y-46650000D01*
X65830408Y-46650000D01*
X65827921Y-46637496D01*
X65825500Y-46612915D01*
X65825500Y-32687085D01*
X65827921Y-32662504D01*
X65827987Y-32662172D01*
X65827987Y-32662171D01*
X65830408Y-32650000D01*
X65810966Y-32552260D01*
X65755601Y-32469399D01*
X65672740Y-32414034D01*
X65599674Y-32399500D01*
X65575000Y-32394592D01*
X65562829Y-32397013D01*
X65562828Y-32397013D01*
X65562496Y-32397079D01*
X65537915Y-32399500D01*
X51612085Y-32399500D01*
X51587504Y-32397079D01*
X51587172Y-32397013D01*
X51587171Y-32397013D01*
X51575000Y-32394592D01*
X51550326Y-32399500D01*
X51477260Y-32414034D01*
X51394399Y-32469399D01*
X51339034Y-32552260D01*
X51319592Y-32650000D01*
X51322013Y-32662171D01*
X51322013Y-32662172D01*
X51322079Y-32662504D01*
X51324500Y-32687085D01*
X51324500Y-46612915D01*
X51322079Y-46637496D01*
X51319592Y-46650000D01*
X46780408Y-46650000D01*
X46777921Y-46637496D01*
X46775500Y-46612915D01*
X46775500Y-32687085D01*
X46777921Y-32662504D01*
X46777987Y-32662172D01*
X46777987Y-32662171D01*
X46780408Y-32650000D01*
X46760966Y-32552260D01*
X46705601Y-32469399D01*
X46622740Y-32414034D01*
X46549674Y-32399500D01*
X46525000Y-32394592D01*
X46512829Y-32397013D01*
X46512828Y-32397013D01*
X46512496Y-32397079D01*
X46487915Y-32399500D01*
X32562085Y-32399500D01*
X32537504Y-32397079D01*
X32537172Y-32397013D01*
X32537171Y-32397013D01*
X32525000Y-32394592D01*
X32500326Y-32399500D01*
X32427260Y-32414034D01*
X32344399Y-32469399D01*
X32289034Y-32552260D01*
X32269592Y-32650000D01*
X32272013Y-32662171D01*
X32272013Y-32662172D01*
X32272079Y-32662504D01*
X32274500Y-32687085D01*
X32274500Y-46612915D01*
X32272079Y-46637496D01*
X32269592Y-46650000D01*
X22050500Y-46650000D01*
X22050500Y-39442095D01*
X23545028Y-39442095D01*
X23570534Y-39709431D01*
X23634364Y-39970285D01*
X23735182Y-40219192D01*
X23870875Y-40450938D01*
X23873728Y-40454505D01*
X23985225Y-40593925D01*
X24038601Y-40660669D01*
X24234846Y-40843991D01*
X24327039Y-40907948D01*
X24451746Y-40994461D01*
X24451751Y-40994464D01*
X24455499Y-40997064D01*
X24459584Y-40999096D01*
X24459587Y-40999098D01*
X24575718Y-41056872D01*
X24695938Y-41116680D01*
X24700272Y-41118101D01*
X24700275Y-41118102D01*
X24946793Y-41198915D01*
X24946798Y-41198916D01*
X24951126Y-41200335D01*
X24955617Y-41201115D01*
X24955618Y-41201115D01*
X25211936Y-41245620D01*
X25211944Y-41245621D01*
X25215717Y-41246276D01*
X25219554Y-41246467D01*
X25298996Y-41250422D01*
X25299004Y-41250422D01*
X25300567Y-41250500D01*
X25468223Y-41250500D01*
X25470491Y-41250335D01*
X25470503Y-41250335D01*
X25600823Y-41240879D01*
X25667846Y-41236016D01*
X25672301Y-41235032D01*
X25672304Y-41235032D01*
X25925620Y-41179105D01*
X25925624Y-41179104D01*
X25930080Y-41178120D01*
X26097617Y-41114646D01*
X26176941Y-41084593D01*
X26176944Y-41084592D01*
X26181211Y-41082975D01*
X26415976Y-40952574D01*
X26558254Y-40843991D01*
X26625833Y-40792417D01*
X26625837Y-40792413D01*
X26629458Y-40789650D01*
X26817185Y-40597614D01*
X26975225Y-40380491D01*
X27062313Y-40214963D01*
X27098140Y-40146868D01*
X27098143Y-40146862D01*
X27100265Y-40142828D01*
X27159703Y-39974515D01*
X27188165Y-39893916D01*
X27188165Y-39893915D01*
X27189688Y-39889603D01*
X27241620Y-39626122D01*
X27241847Y-39621566D01*
X27254745Y-39362474D01*
X27254745Y-39362468D01*
X27254972Y-39357905D01*
X27229466Y-39090569D01*
X27165636Y-38829715D01*
X27064818Y-38580808D01*
X26929125Y-38349062D01*
X26818211Y-38210371D01*
X26764251Y-38142897D01*
X26764250Y-38142895D01*
X26761399Y-38139331D01*
X26565154Y-37956009D01*
X26405436Y-37845208D01*
X26348254Y-37805539D01*
X26348249Y-37805536D01*
X26344501Y-37802936D01*
X26340416Y-37800904D01*
X26340413Y-37800902D01*
X26168560Y-37715407D01*
X26104062Y-37683320D01*
X26099728Y-37681899D01*
X26099725Y-37681898D01*
X25853207Y-37601085D01*
X25853202Y-37601084D01*
X25848874Y-37599665D01*
X25844382Y-37598885D01*
X25588064Y-37554380D01*
X25588056Y-37554379D01*
X25584283Y-37553724D01*
X25575622Y-37553293D01*
X25501004Y-37549578D01*
X25500996Y-37549578D01*
X25499433Y-37549500D01*
X25331777Y-37549500D01*
X25329509Y-37549665D01*
X25329497Y-37549665D01*
X25199177Y-37559121D01*
X25132154Y-37563984D01*
X25127699Y-37564968D01*
X25127696Y-37564968D01*
X24874380Y-37620895D01*
X24874376Y-37620896D01*
X24869920Y-37621880D01*
X24744354Y-37669453D01*
X24623059Y-37715407D01*
X24623056Y-37715408D01*
X24618789Y-37717025D01*
X24384024Y-37847426D01*
X24380392Y-37850198D01*
X24174167Y-38007583D01*
X24174163Y-38007587D01*
X24170542Y-38010350D01*
X23982815Y-38202386D01*
X23824775Y-38419509D01*
X23822651Y-38423547D01*
X23701860Y-38653132D01*
X23701857Y-38653138D01*
X23699735Y-38657172D01*
X23698215Y-38661477D01*
X23698213Y-38661481D01*
X23638804Y-38829715D01*
X23610312Y-38910397D01*
X23558380Y-39173878D01*
X23558153Y-39178431D01*
X23558153Y-39178434D01*
X23548992Y-39362474D01*
X23545028Y-39442095D01*
X22050500Y-39442095D01*
X22050500Y-32437085D01*
X22052921Y-32412504D01*
X22052987Y-32412172D01*
X22052987Y-32412171D01*
X22055408Y-32400000D01*
X22052987Y-32387830D01*
X22052987Y-32381147D01*
X22051580Y-32364252D01*
X22068172Y-31815139D01*
X22068632Y-31807541D01*
X22071062Y-31780808D01*
X22099360Y-31469399D01*
X22121240Y-31228628D01*
X22122157Y-31221072D01*
X22209626Y-30646365D01*
X22210998Y-30638879D01*
X22333006Y-30070506D01*
X22334828Y-30063116D01*
X22490925Y-29503169D01*
X22493189Y-29495903D01*
X22682818Y-28946376D01*
X22685517Y-28939259D01*
X22907976Y-28402196D01*
X22911100Y-28395255D01*
X23165580Y-27872603D01*
X23169117Y-27865864D01*
X23277855Y-27673067D01*
X23454695Y-27359522D01*
X23458628Y-27353016D01*
X23561489Y-27193925D01*
X23774252Y-26864850D01*
X23778575Y-26858587D01*
X24123095Y-26390370D01*
X24127789Y-26384378D01*
X24186550Y-26313871D01*
X24409250Y-26046651D01*
X24413047Y-26042095D01*
X36945028Y-26042095D01*
X36970534Y-26309431D01*
X37034364Y-26570285D01*
X37135182Y-26819192D01*
X37270875Y-27050938D01*
X37273728Y-27054505D01*
X37385225Y-27193925D01*
X37438601Y-27260669D01*
X37634846Y-27443991D01*
X37727039Y-27507948D01*
X37851746Y-27594461D01*
X37851751Y-27594464D01*
X37855499Y-27597064D01*
X37859584Y-27599096D01*
X37859587Y-27599098D01*
X37975718Y-27656872D01*
X38095938Y-27716680D01*
X38100272Y-27718101D01*
X38100275Y-27718102D01*
X38346793Y-27798915D01*
X38346798Y-27798916D01*
X38351126Y-27800335D01*
X38355617Y-27801115D01*
X38355618Y-27801115D01*
X38611936Y-27845620D01*
X38611944Y-27845621D01*
X38615717Y-27846276D01*
X38619554Y-27846467D01*
X38698996Y-27850422D01*
X38699004Y-27850422D01*
X38700567Y-27850500D01*
X38868223Y-27850500D01*
X38870491Y-27850335D01*
X38870503Y-27850335D01*
X39000823Y-27840879D01*
X39067846Y-27836016D01*
X39072301Y-27835032D01*
X39072304Y-27835032D01*
X39325620Y-27779105D01*
X39325624Y-27779104D01*
X39330080Y-27778120D01*
X39497617Y-27714646D01*
X39576941Y-27684593D01*
X39576944Y-27684592D01*
X39581211Y-27682975D01*
X39815976Y-27552574D01*
X39958254Y-27443991D01*
X40025833Y-27392417D01*
X40025837Y-27392413D01*
X40029458Y-27389650D01*
X40217185Y-27197614D01*
X40375225Y-26980491D01*
X40462313Y-26814963D01*
X40498140Y-26746868D01*
X40498143Y-26746862D01*
X40500265Y-26742828D01*
X40559703Y-26574515D01*
X40588165Y-26493916D01*
X40588165Y-26493915D01*
X40589688Y-26489603D01*
X40641620Y-26226122D01*
X40649121Y-26075438D01*
X40650781Y-26042095D01*
X116945028Y-26042095D01*
X116970534Y-26309431D01*
X117034364Y-26570285D01*
X117135182Y-26819192D01*
X117270875Y-27050938D01*
X117273728Y-27054505D01*
X117385225Y-27193925D01*
X117438601Y-27260669D01*
X117634846Y-27443991D01*
X117727039Y-27507948D01*
X117851746Y-27594461D01*
X117851751Y-27594464D01*
X117855499Y-27597064D01*
X117859584Y-27599096D01*
X117859587Y-27599098D01*
X117975718Y-27656872D01*
X118095938Y-27716680D01*
X118100272Y-27718101D01*
X118100275Y-27718102D01*
X118346793Y-27798915D01*
X118346798Y-27798916D01*
X118351126Y-27800335D01*
X118355617Y-27801115D01*
X118355618Y-27801115D01*
X118611936Y-27845620D01*
X118611944Y-27845621D01*
X118615717Y-27846276D01*
X118619554Y-27846467D01*
X118698996Y-27850422D01*
X118699004Y-27850422D01*
X118700567Y-27850500D01*
X118868223Y-27850500D01*
X118870491Y-27850335D01*
X118870503Y-27850335D01*
X119000823Y-27840879D01*
X119067846Y-27836016D01*
X119072301Y-27835032D01*
X119072304Y-27835032D01*
X119325620Y-27779105D01*
X119325624Y-27779104D01*
X119330080Y-27778120D01*
X119497617Y-27714646D01*
X119576941Y-27684593D01*
X119576944Y-27684592D01*
X119581211Y-27682975D01*
X119815976Y-27552574D01*
X119958254Y-27443991D01*
X120025833Y-27392417D01*
X120025837Y-27392413D01*
X120029458Y-27389650D01*
X120217185Y-27197614D01*
X120375225Y-26980491D01*
X120462313Y-26814963D01*
X120498140Y-26746868D01*
X120498143Y-26746862D01*
X120500265Y-26742828D01*
X120559703Y-26574515D01*
X120588165Y-26493916D01*
X120588165Y-26493915D01*
X120589688Y-26489603D01*
X120641620Y-26226122D01*
X120649121Y-26075438D01*
X120650781Y-26042095D01*
X140545028Y-26042095D01*
X140570534Y-26309431D01*
X140634364Y-26570285D01*
X140735182Y-26819192D01*
X140870875Y-27050938D01*
X140873728Y-27054505D01*
X140985225Y-27193925D01*
X141038601Y-27260669D01*
X141234846Y-27443991D01*
X141327039Y-27507948D01*
X141451746Y-27594461D01*
X141451751Y-27594464D01*
X141455499Y-27597064D01*
X141459584Y-27599096D01*
X141459587Y-27599098D01*
X141575718Y-27656872D01*
X141695938Y-27716680D01*
X141700272Y-27718101D01*
X141700275Y-27718102D01*
X141946793Y-27798915D01*
X141946798Y-27798916D01*
X141951126Y-27800335D01*
X141955617Y-27801115D01*
X141955618Y-27801115D01*
X142211936Y-27845620D01*
X142211944Y-27845621D01*
X142215717Y-27846276D01*
X142219554Y-27846467D01*
X142298996Y-27850422D01*
X142299004Y-27850422D01*
X142300567Y-27850500D01*
X142468223Y-27850500D01*
X142470491Y-27850335D01*
X142470503Y-27850335D01*
X142600823Y-27840879D01*
X142667846Y-27836016D01*
X142672301Y-27835032D01*
X142672304Y-27835032D01*
X142925620Y-27779105D01*
X142925624Y-27779104D01*
X142930080Y-27778120D01*
X143097617Y-27714646D01*
X143176941Y-27684593D01*
X143176944Y-27684592D01*
X143181211Y-27682975D01*
X143415976Y-27552574D01*
X143558254Y-27443991D01*
X143625833Y-27392417D01*
X143625837Y-27392413D01*
X143629458Y-27389650D01*
X143817185Y-27197614D01*
X143975225Y-26980491D01*
X144062313Y-26814963D01*
X144098140Y-26746868D01*
X144098143Y-26746862D01*
X144100265Y-26742828D01*
X144159703Y-26574515D01*
X144188165Y-26493916D01*
X144188165Y-26493915D01*
X144189688Y-26489603D01*
X144241620Y-26226122D01*
X144249121Y-26075438D01*
X144250781Y-26042095D01*
X220545028Y-26042095D01*
X220570534Y-26309431D01*
X220634364Y-26570285D01*
X220735182Y-26819192D01*
X220870875Y-27050938D01*
X220873728Y-27054505D01*
X220985225Y-27193925D01*
X221038601Y-27260669D01*
X221234846Y-27443991D01*
X221327039Y-27507948D01*
X221451746Y-27594461D01*
X221451751Y-27594464D01*
X221455499Y-27597064D01*
X221459584Y-27599096D01*
X221459587Y-27599098D01*
X221575719Y-27656872D01*
X221695938Y-27716680D01*
X221700272Y-27718101D01*
X221700275Y-27718102D01*
X221946793Y-27798915D01*
X221946798Y-27798916D01*
X221951126Y-27800335D01*
X221955617Y-27801115D01*
X221955618Y-27801115D01*
X222211936Y-27845620D01*
X222211944Y-27845621D01*
X222215717Y-27846276D01*
X222219554Y-27846467D01*
X222298996Y-27850422D01*
X222299004Y-27850422D01*
X222300567Y-27850500D01*
X222468223Y-27850500D01*
X222470491Y-27850335D01*
X222470503Y-27850335D01*
X222600823Y-27840879D01*
X222667846Y-27836016D01*
X222672301Y-27835032D01*
X222672304Y-27835032D01*
X222925620Y-27779105D01*
X222925624Y-27779104D01*
X222930080Y-27778120D01*
X223097617Y-27714646D01*
X223176941Y-27684593D01*
X223176944Y-27684592D01*
X223181211Y-27682975D01*
X223415976Y-27552574D01*
X223558254Y-27443991D01*
X223625833Y-27392417D01*
X223625837Y-27392413D01*
X223629458Y-27389650D01*
X223817185Y-27197614D01*
X223975225Y-26980491D01*
X224062313Y-26814963D01*
X224098140Y-26746868D01*
X224098143Y-26746862D01*
X224100265Y-26742828D01*
X224159703Y-26574515D01*
X224188165Y-26493916D01*
X224188165Y-26493915D01*
X224189688Y-26489603D01*
X224241620Y-26226122D01*
X224249121Y-26075438D01*
X224250781Y-26042095D01*
X244145028Y-26042095D01*
X244170534Y-26309431D01*
X244234364Y-26570285D01*
X244335182Y-26819192D01*
X244470875Y-27050938D01*
X244473728Y-27054505D01*
X244585225Y-27193925D01*
X244638601Y-27260669D01*
X244834846Y-27443991D01*
X244927039Y-27507948D01*
X245051746Y-27594461D01*
X245051751Y-27594464D01*
X245055499Y-27597064D01*
X245059584Y-27599096D01*
X245059587Y-27599098D01*
X245175719Y-27656872D01*
X245295938Y-27716680D01*
X245300272Y-27718101D01*
X245300275Y-27718102D01*
X245546793Y-27798915D01*
X245546798Y-27798916D01*
X245551126Y-27800335D01*
X245555617Y-27801115D01*
X245555618Y-27801115D01*
X245811936Y-27845620D01*
X245811944Y-27845621D01*
X245815717Y-27846276D01*
X245819554Y-27846467D01*
X245898996Y-27850422D01*
X245899004Y-27850422D01*
X245900567Y-27850500D01*
X246068223Y-27850500D01*
X246070491Y-27850335D01*
X246070503Y-27850335D01*
X246200823Y-27840879D01*
X246267846Y-27836016D01*
X246272301Y-27835032D01*
X246272304Y-27835032D01*
X246525620Y-27779105D01*
X246525624Y-27779104D01*
X246530080Y-27778120D01*
X246697617Y-27714646D01*
X246776941Y-27684593D01*
X246776944Y-27684592D01*
X246781211Y-27682975D01*
X247015976Y-27552574D01*
X247158254Y-27443991D01*
X247225833Y-27392417D01*
X247225837Y-27392413D01*
X247229458Y-27389650D01*
X247417185Y-27197614D01*
X247575225Y-26980491D01*
X247662313Y-26814963D01*
X247698140Y-26746868D01*
X247698143Y-26746862D01*
X247700265Y-26742828D01*
X247759703Y-26574515D01*
X247788165Y-26493916D01*
X247788165Y-26493915D01*
X247789688Y-26489603D01*
X247841620Y-26226122D01*
X247849121Y-26075438D01*
X247850781Y-26042095D01*
X324145028Y-26042095D01*
X324170534Y-26309431D01*
X324234364Y-26570285D01*
X324335182Y-26819192D01*
X324470875Y-27050938D01*
X324473728Y-27054505D01*
X324585225Y-27193925D01*
X324638601Y-27260669D01*
X324834846Y-27443991D01*
X324927039Y-27507948D01*
X325051746Y-27594461D01*
X325051751Y-27594464D01*
X325055499Y-27597064D01*
X325059584Y-27599096D01*
X325059587Y-27599098D01*
X325175719Y-27656872D01*
X325295938Y-27716680D01*
X325300272Y-27718101D01*
X325300275Y-27718102D01*
X325546793Y-27798915D01*
X325546798Y-27798916D01*
X325551126Y-27800335D01*
X325555617Y-27801115D01*
X325555618Y-27801115D01*
X325811936Y-27845620D01*
X325811944Y-27845621D01*
X325815717Y-27846276D01*
X325819554Y-27846467D01*
X325898996Y-27850422D01*
X325899004Y-27850422D01*
X325900567Y-27850500D01*
X326068223Y-27850500D01*
X326070491Y-27850335D01*
X326070503Y-27850335D01*
X326200823Y-27840879D01*
X326267846Y-27836016D01*
X326272301Y-27835032D01*
X326272304Y-27835032D01*
X326525620Y-27779105D01*
X326525624Y-27779104D01*
X326530080Y-27778120D01*
X326697617Y-27714646D01*
X326776941Y-27684593D01*
X326776944Y-27684592D01*
X326781211Y-27682975D01*
X327015976Y-27552574D01*
X327158254Y-27443991D01*
X327225833Y-27392417D01*
X327225837Y-27392413D01*
X327229458Y-27389650D01*
X327417185Y-27197614D01*
X327575225Y-26980491D01*
X327662313Y-26814963D01*
X327698140Y-26746868D01*
X327698143Y-26746862D01*
X327700265Y-26742828D01*
X327759703Y-26574515D01*
X327788165Y-26493916D01*
X327788165Y-26493915D01*
X327789688Y-26489603D01*
X327841620Y-26226122D01*
X327849121Y-26075438D01*
X327854745Y-25962474D01*
X327854745Y-25962468D01*
X327854972Y-25957905D01*
X327829466Y-25690569D01*
X327765636Y-25429715D01*
X327664818Y-25180808D01*
X327529125Y-24949062D01*
X327418211Y-24810371D01*
X327364251Y-24742897D01*
X327364250Y-24742895D01*
X327361399Y-24739331D01*
X327165154Y-24556009D01*
X327005436Y-24445208D01*
X326948254Y-24405539D01*
X326948249Y-24405536D01*
X326944501Y-24402936D01*
X326940416Y-24400904D01*
X326940413Y-24400902D01*
X326768560Y-24315407D01*
X326704062Y-24283320D01*
X326699728Y-24281899D01*
X326699725Y-24281898D01*
X326453207Y-24201085D01*
X326453202Y-24201084D01*
X326448874Y-24199665D01*
X326444382Y-24198885D01*
X326188064Y-24154380D01*
X326188056Y-24154379D01*
X326184283Y-24153724D01*
X326175622Y-24153293D01*
X326101004Y-24149578D01*
X326100996Y-24149578D01*
X326099433Y-24149500D01*
X325931777Y-24149500D01*
X325929509Y-24149665D01*
X325929497Y-24149665D01*
X325799177Y-24159121D01*
X325732154Y-24163984D01*
X325727699Y-24164968D01*
X325727696Y-24164968D01*
X325474380Y-24220895D01*
X325474376Y-24220896D01*
X325469920Y-24221880D01*
X325344355Y-24269452D01*
X325223059Y-24315407D01*
X325223056Y-24315408D01*
X325218789Y-24317025D01*
X324984024Y-24447426D01*
X324980392Y-24450198D01*
X324774167Y-24607583D01*
X324774163Y-24607587D01*
X324770542Y-24610350D01*
X324582815Y-24802386D01*
X324424775Y-25019509D01*
X324422651Y-25023547D01*
X324301860Y-25253132D01*
X324301857Y-25253138D01*
X324299735Y-25257172D01*
X324298215Y-25261477D01*
X324298213Y-25261481D01*
X324211843Y-25506062D01*
X324210312Y-25510397D01*
X324158380Y-25773878D01*
X324158153Y-25778431D01*
X324158153Y-25778434D01*
X324148992Y-25962474D01*
X324145028Y-26042095D01*
X247850781Y-26042095D01*
X247854745Y-25962474D01*
X247854745Y-25962468D01*
X247854972Y-25957905D01*
X247829466Y-25690569D01*
X247765636Y-25429715D01*
X247664818Y-25180808D01*
X247529125Y-24949062D01*
X247418211Y-24810371D01*
X247364251Y-24742897D01*
X247364250Y-24742895D01*
X247361399Y-24739331D01*
X247165154Y-24556009D01*
X247005436Y-24445208D01*
X246948254Y-24405539D01*
X246948249Y-24405536D01*
X246944501Y-24402936D01*
X246940416Y-24400904D01*
X246940413Y-24400902D01*
X246768560Y-24315407D01*
X246704062Y-24283320D01*
X246699728Y-24281899D01*
X246699725Y-24281898D01*
X246453207Y-24201085D01*
X246453202Y-24201084D01*
X246448874Y-24199665D01*
X246444382Y-24198885D01*
X246188064Y-24154380D01*
X246188056Y-24154379D01*
X246184283Y-24153724D01*
X246175622Y-24153293D01*
X246101004Y-24149578D01*
X246100996Y-24149578D01*
X246099433Y-24149500D01*
X245931777Y-24149500D01*
X245929509Y-24149665D01*
X245929497Y-24149665D01*
X245799177Y-24159121D01*
X245732154Y-24163984D01*
X245727699Y-24164968D01*
X245727696Y-24164968D01*
X245474380Y-24220895D01*
X245474376Y-24220896D01*
X245469920Y-24221880D01*
X245344355Y-24269452D01*
X245223059Y-24315407D01*
X245223056Y-24315408D01*
X245218789Y-24317025D01*
X244984024Y-24447426D01*
X244980392Y-24450198D01*
X244774167Y-24607583D01*
X244774163Y-24607587D01*
X244770542Y-24610350D01*
X244582815Y-24802386D01*
X244424775Y-25019509D01*
X244422651Y-25023547D01*
X244301860Y-25253132D01*
X244301857Y-25253138D01*
X244299735Y-25257172D01*
X244298215Y-25261477D01*
X244298213Y-25261481D01*
X244211843Y-25506062D01*
X244210312Y-25510397D01*
X244158380Y-25773878D01*
X244158153Y-25778431D01*
X244158153Y-25778434D01*
X244148992Y-25962474D01*
X244145028Y-26042095D01*
X224250781Y-26042095D01*
X224254745Y-25962474D01*
X224254745Y-25962468D01*
X224254972Y-25957905D01*
X224229466Y-25690569D01*
X224165636Y-25429715D01*
X224064818Y-25180808D01*
X223929125Y-24949062D01*
X223818211Y-24810371D01*
X223764251Y-24742897D01*
X223764250Y-24742895D01*
X223761399Y-24739331D01*
X223565154Y-24556009D01*
X223405436Y-24445208D01*
X223348254Y-24405539D01*
X223348249Y-24405536D01*
X223344501Y-24402936D01*
X223340416Y-24400904D01*
X223340413Y-24400902D01*
X223168560Y-24315407D01*
X223104062Y-24283320D01*
X223099728Y-24281899D01*
X223099725Y-24281898D01*
X222853207Y-24201085D01*
X222853202Y-24201084D01*
X222848874Y-24199665D01*
X222844382Y-24198885D01*
X222588064Y-24154380D01*
X222588056Y-24154379D01*
X222584283Y-24153724D01*
X222575622Y-24153293D01*
X222501004Y-24149578D01*
X222500996Y-24149578D01*
X222499433Y-24149500D01*
X222331777Y-24149500D01*
X222329509Y-24149665D01*
X222329497Y-24149665D01*
X222199177Y-24159121D01*
X222132154Y-24163984D01*
X222127699Y-24164968D01*
X222127696Y-24164968D01*
X221874380Y-24220895D01*
X221874376Y-24220896D01*
X221869920Y-24221880D01*
X221744355Y-24269452D01*
X221623059Y-24315407D01*
X221623056Y-24315408D01*
X221618789Y-24317025D01*
X221384024Y-24447426D01*
X221380392Y-24450198D01*
X221174167Y-24607583D01*
X221174163Y-24607587D01*
X221170542Y-24610350D01*
X220982815Y-24802386D01*
X220824775Y-25019509D01*
X220822651Y-25023547D01*
X220701860Y-25253132D01*
X220701857Y-25253138D01*
X220699735Y-25257172D01*
X220698215Y-25261477D01*
X220698213Y-25261481D01*
X220611843Y-25506062D01*
X220610312Y-25510397D01*
X220558380Y-25773878D01*
X220558153Y-25778431D01*
X220558153Y-25778434D01*
X220548992Y-25962474D01*
X220545028Y-26042095D01*
X144250781Y-26042095D01*
X144254745Y-25962474D01*
X144254745Y-25962468D01*
X144254972Y-25957905D01*
X144229466Y-25690569D01*
X144165636Y-25429715D01*
X144064818Y-25180808D01*
X143929125Y-24949062D01*
X143818211Y-24810371D01*
X143764251Y-24742897D01*
X143764250Y-24742895D01*
X143761399Y-24739331D01*
X143565154Y-24556009D01*
X143405436Y-24445208D01*
X143348254Y-24405539D01*
X143348249Y-24405536D01*
X143344501Y-24402936D01*
X143340416Y-24400904D01*
X143340413Y-24400902D01*
X143168560Y-24315407D01*
X143104062Y-24283320D01*
X143099728Y-24281899D01*
X143099725Y-24281898D01*
X142853207Y-24201085D01*
X142853202Y-24201084D01*
X142848874Y-24199665D01*
X142844382Y-24198885D01*
X142588064Y-24154380D01*
X142588056Y-24154379D01*
X142584283Y-24153724D01*
X142575622Y-24153293D01*
X142501004Y-24149578D01*
X142500996Y-24149578D01*
X142499433Y-24149500D01*
X142331777Y-24149500D01*
X142329509Y-24149665D01*
X142329497Y-24149665D01*
X142199177Y-24159121D01*
X142132154Y-24163984D01*
X142127699Y-24164968D01*
X142127696Y-24164968D01*
X141874380Y-24220895D01*
X141874376Y-24220896D01*
X141869920Y-24221880D01*
X141744354Y-24269453D01*
X141623059Y-24315407D01*
X141623056Y-24315408D01*
X141618789Y-24317025D01*
X141384024Y-24447426D01*
X141380392Y-24450198D01*
X141174167Y-24607583D01*
X141174163Y-24607587D01*
X141170542Y-24610350D01*
X140982815Y-24802386D01*
X140824775Y-25019509D01*
X140822651Y-25023547D01*
X140701860Y-25253132D01*
X140701857Y-25253138D01*
X140699735Y-25257172D01*
X140698215Y-25261477D01*
X140698213Y-25261481D01*
X140611843Y-25506062D01*
X140610312Y-25510397D01*
X140558380Y-25773878D01*
X140558153Y-25778431D01*
X140558153Y-25778434D01*
X140548992Y-25962474D01*
X140545028Y-26042095D01*
X120650781Y-26042095D01*
X120654745Y-25962474D01*
X120654745Y-25962468D01*
X120654972Y-25957905D01*
X120629466Y-25690569D01*
X120565636Y-25429715D01*
X120464818Y-25180808D01*
X120329125Y-24949062D01*
X120218211Y-24810371D01*
X120164251Y-24742897D01*
X120164250Y-24742895D01*
X120161399Y-24739331D01*
X119965154Y-24556009D01*
X119805436Y-24445208D01*
X119748254Y-24405539D01*
X119748249Y-24405536D01*
X119744501Y-24402936D01*
X119740416Y-24400904D01*
X119740413Y-24400902D01*
X119568560Y-24315407D01*
X119504062Y-24283320D01*
X119499728Y-24281899D01*
X119499725Y-24281898D01*
X119253207Y-24201085D01*
X119253202Y-24201084D01*
X119248874Y-24199665D01*
X119244382Y-24198885D01*
X118988064Y-24154380D01*
X118988056Y-24154379D01*
X118984283Y-24153724D01*
X118975622Y-24153293D01*
X118901004Y-24149578D01*
X118900996Y-24149578D01*
X118899433Y-24149500D01*
X118731777Y-24149500D01*
X118729509Y-24149665D01*
X118729497Y-24149665D01*
X118599177Y-24159121D01*
X118532154Y-24163984D01*
X118527699Y-24164968D01*
X118527696Y-24164968D01*
X118274380Y-24220895D01*
X118274376Y-24220896D01*
X118269920Y-24221880D01*
X118144354Y-24269453D01*
X118023059Y-24315407D01*
X118023056Y-24315408D01*
X118018789Y-24317025D01*
X117784024Y-24447426D01*
X117780392Y-24450198D01*
X117574167Y-24607583D01*
X117574163Y-24607587D01*
X117570542Y-24610350D01*
X117382815Y-24802386D01*
X117224775Y-25019509D01*
X117222651Y-25023547D01*
X117101860Y-25253132D01*
X117101857Y-25253138D01*
X117099735Y-25257172D01*
X117098215Y-25261477D01*
X117098213Y-25261481D01*
X117011843Y-25506062D01*
X117010312Y-25510397D01*
X116958380Y-25773878D01*
X116958153Y-25778431D01*
X116958153Y-25778434D01*
X116948992Y-25962474D01*
X116945028Y-26042095D01*
X40650781Y-26042095D01*
X40654745Y-25962474D01*
X40654745Y-25962468D01*
X40654972Y-25957905D01*
X40629466Y-25690569D01*
X40565636Y-25429715D01*
X40464818Y-25180808D01*
X40329125Y-24949062D01*
X40218211Y-24810371D01*
X40164251Y-24742897D01*
X40164250Y-24742895D01*
X40161399Y-24739331D01*
X39965154Y-24556009D01*
X39805436Y-24445208D01*
X39748254Y-24405539D01*
X39748249Y-24405536D01*
X39744501Y-24402936D01*
X39740416Y-24400904D01*
X39740413Y-24400902D01*
X39568560Y-24315407D01*
X39504062Y-24283320D01*
X39499728Y-24281899D01*
X39499725Y-24281898D01*
X39253207Y-24201085D01*
X39253202Y-24201084D01*
X39248874Y-24199665D01*
X39244382Y-24198885D01*
X38988064Y-24154380D01*
X38988056Y-24154379D01*
X38984283Y-24153724D01*
X38975622Y-24153293D01*
X38901004Y-24149578D01*
X38900996Y-24149578D01*
X38899433Y-24149500D01*
X38731777Y-24149500D01*
X38729509Y-24149665D01*
X38729497Y-24149665D01*
X38599177Y-24159121D01*
X38532154Y-24163984D01*
X38527699Y-24164968D01*
X38527696Y-24164968D01*
X38274380Y-24220895D01*
X38274376Y-24220896D01*
X38269920Y-24221880D01*
X38144354Y-24269453D01*
X38023059Y-24315407D01*
X38023056Y-24315408D01*
X38018789Y-24317025D01*
X37784024Y-24447426D01*
X37780392Y-24450198D01*
X37574167Y-24607583D01*
X37574163Y-24607587D01*
X37570542Y-24610350D01*
X37382815Y-24802386D01*
X37224775Y-25019509D01*
X37222651Y-25023547D01*
X37101860Y-25253132D01*
X37101857Y-25253138D01*
X37099735Y-25257172D01*
X37098215Y-25261477D01*
X37098213Y-25261481D01*
X37011843Y-25506062D01*
X37010312Y-25510397D01*
X36958380Y-25773878D01*
X36958153Y-25778431D01*
X36958153Y-25778434D01*
X36948992Y-25962474D01*
X36945028Y-26042095D01*
X24413047Y-26042095D01*
X24499956Y-25937812D01*
X24505003Y-25932115D01*
X24736558Y-25686129D01*
X24903462Y-25508824D01*
X24908824Y-25503462D01*
X25165885Y-25261481D01*
X25332115Y-25105003D01*
X25337812Y-25099956D01*
X25690442Y-24806075D01*
X25784385Y-24727784D01*
X25790370Y-24723095D01*
X26258587Y-24378575D01*
X26264850Y-24374252D01*
X26532682Y-24201085D01*
X26753023Y-24058623D01*
X26759522Y-24054695D01*
X27265864Y-23769117D01*
X27272603Y-23765580D01*
X27795255Y-23511100D01*
X27802196Y-23507976D01*
X28047258Y-23406468D01*
X28339272Y-23285512D01*
X28346376Y-23282818D01*
X28895903Y-23093189D01*
X28903169Y-23090925D01*
X29463116Y-22934828D01*
X29470506Y-22933006D01*
X30038879Y-22810998D01*
X30046365Y-22809626D01*
X30621072Y-22722157D01*
X30628628Y-22721240D01*
X30966565Y-22690530D01*
X31207548Y-22668632D01*
X31215132Y-22668172D01*
X31644040Y-22655212D01*
X31764252Y-22651580D01*
X31781147Y-22652987D01*
X31787830Y-22652987D01*
X31800000Y-22655408D01*
X31812171Y-22652987D01*
X31812172Y-22652987D01*
X31812504Y-22652921D01*
X31837085Y-22650500D01*
X332962915Y-22650500D01*
X332987496Y-22652921D01*
G37*
%TD.AperFunction*%
M02*
