<svg height="6.75in" viewBox="-0.75 -0.75 6.75 6.75" width="6.75in" xmlns="http://www.w3.org/2000/svg">
<g>
<path d="M0.75,0.9375 m0.046875,0 a0.046875,0.046875,0,0,0,-0.046875,0.046875 l0,3.65625 a0.046875,0.046875,0,0,0,0.046875,0.046875 l3.65625,0 a0.046875,0.046875,0,0,0,0.046875,-0.046875 l0,-3.65625 a0.046875,0.046875,0,0,0,-0.046875,-0.046875 z M1.125,1.3125 l0,3 l3,0 l0,-3 z" fill="none" stroke="black" stroke-width="0.01"/>
<circle cx="0.9140625" cy="1.1015625" fill="none" r="0.05905511811023623" stroke="black" stroke-width="0.01"/>
<circle cx="0.9140625" cy="4.5234375" fill="none" r="0.05905511811023623" stroke="black" stroke-width="0.01"/>
<circle cx="4.3359375" cy="4.5234375" fill="none" r="0.05905511811023623" stroke="black" stroke-width="0.01"/>
<circle cx="4.3359375" cy="1.1015625" fill="none" r="0.05905511811023623" stroke="black" stroke-width="0.01"/>
</g>
</svg>