<svg height="6.75in" viewBox="-0.75 -0.75 6.75 6.75" width="6.75in" xmlns="http://www.w3.org/2000/svg">
<g>
<path d="M0,0 m0.1875,0 a0.1875,0.1875,0,0,0,-0.1875,0.1875 l0,4.875 a0.1875,0.1875,0,0,0,0.1875,0.1875 l4.875,0 a0.1875,0.1875,0,0,0,0.1875,-0.1875 l0,-4.875 a0.1875,0.1875,0,0,0,-0.1875,-0.1875 M0.75,0.9375 l0,3.75 l3.75,0 l0,-3.75 z" fill="none" stroke="black" stroke-width="0.01"/>
<g>
<path d="M0.75,0.9375 m0.046875,0 a0.046875,0.046875,0,0,0,-0.046875,0.046875 l0,3.65625 a0.046875,0.046875,0,0,0,0.046875,0.046875 l3.65625,0 a0.046875,0.046875,0,0,0,0.046875,-0.046875 l0,-3.65625 a0.046875,0.046875,0,0,0,-0.046875,-0.046875 z M1.125,1.3125 l0,3 l3,0 l0,-3 z" fill="none" stroke="black" stroke-width="0.01"/>
<circle cx="0.9140625" cy="1.1015625" fill="none" r="0.11811023622047245" stroke="black" stroke-width="0.01"/>
<circle cx="0.9140625" cy="4.5234375" fill="none" r="0.11811023622047245" stroke="black" stroke-width="0.01"/>
<circle cx="4.3359375" cy="4.5234375" fill="none" r="0.11811023622047245" stroke="black" stroke-width="0.01"/>
<circle cx="4.3359375" cy="1.1015625" fill="none" r="0.11811023622047245" stroke="black" stroke-width="0.01"/>
</g>
<g>
<path d="M1.2294095,1.4169095 l0,0.5411811 l0.5411811,0 l0,-0.5411811 z M1.2294095,2.1669095 l0,0.5411811 l0.5411811,0 l0,-0.5411811 z M1.2294095,2.9169095 l0,0.5411811 l0.5411811,0 l0,-0.5411811 z M1.2294095,3.6669095 l0,0.5411811 l0.5411811,0 l0,-0.5411811 z M1.9794095,1.4169095 l0,0.5411811 l0.5411811,0 l0,-0.5411811 z M1.9794095,2.1669095 l0,0.5411811 l0.5411811,0 l0,-0.5411811 z M1.9794095,2.9169095 l0,0.5411811 l0.5411811,0 l0,-0.5411811 z M1.9794095,3.6669095 l0,0.5411811 l0.5411811,0 l0,-0.5411811 z M2.7294095,1.4169095 l0,0.5411811 l0.5411811,0 l0,-0.5411811 z M2.7294095,2.1669095 l0,0.5411811 l0.5411811,0 l0,-0.5411811 z M2.7294095,2.9169095 l0,0.5411811 l0.5411811,0 l0,-0.5411811 z M2.7294095,3.6669095 l0,0.5411811 l0.5411811,0 l0,-0.5411811 z M3.4794095,1.4169095 l0,0.5411811 l0.5411811,0 l0,-0.5411811 z M3.4794095,2.1669095 l0,0.5411811 l0.5411811,0 l0,-0.5411811 z M3.4794095,2.9169095 l0,0.5411811 l0.5411811,0 l0,-0.5411811 z M3.4794095,3.6669095 l0,0.5411811 l0.5411811,0 l0,-0.5411811 z M0,0 m0.1875,0 a0.1875,0.1875,0,0,0,-0.1875,0.1875 l0,4.875 a0.1875,0.1875,0,0,0,0.1875,0.1875 l4.875,0 a0.1875,0.1875,0,0,0,0.1875,-0.1875 l0,-4.875 a0.1875,0.1875,0,0,0,-0.1875,-0.1875 z" fill="none" stroke="black" stroke-width="0.01"/>
<circle cx="0.9140625" cy="1.1015625" fill="none" r="0.05905511811023623" stroke="black" stroke-width="0.01"/>
<circle cx="0.9140625" cy="4.5234375" fill="none" r="0.05905511811023623" stroke="black" stroke-width="0.01"/>
<circle cx="4.3359375" cy="4.5234375" fill="none" r="0.05905511811023623" stroke="black" stroke-width="0.01"/>
<circle cx="4.3359375" cy="1.1015625" fill="none" r="0.05905511811023623" stroke="black" stroke-width="0.01"/>
</g>
<g>
<path d="M0,0 m0.1875,0 a0.1875,0.1875,0,0,0,-0.1875,0.1875 l0,4.875 a0.1875,0.1875,0,0,0,0.1875,0.1875 l4.875,0 a0.1875,0.1875,0,0,0,0.1875,-0.1875 l0,-4.875 a0.1875,0.1875,0,0,0,-0.1875,-0.1875 z M1.078125,1.265625 l0,3.09375 l3.09375,0 l0,-3.09375 z" fill="none" stroke="black" stroke-width="0.01"/>
<circle cx="0.9140625" cy="1.1015625" fill="none" r="0.0984251968503937" stroke="black" stroke-width="0.01"/>
<circle cx="0.9140625" cy="4.5234375" fill="none" r="0.0984251968503937" stroke="black" stroke-width="0.01"/>
<circle cx="4.3359375" cy="4.5234375" fill="none" r="0.0984251968503937" stroke="black" stroke-width="0.01"/>
<circle cx="4.3359375" cy="1.1015625" fill="none" r="0.0984251968503937" stroke="black" stroke-width="0.01"/>
</g>
<g>
<path d="M0,0 m0.1875,0 a0.1875,0.1875,0,0,0,-0.1875,0.1875 l0,4.875 a0.1875,0.1875,0,0,0,0.1875,0.1875 l4.875,0 a0.1875,0.1875,0,0,0,0.1875,-0.1875 l0,-4.875 a0.1875,0.1875,0,0,0,-0.1875,-0.1875 L3.5625,0 L3.5625,1.265625 L4.171875,1.265625 l0,3.09375 l-3.09375,0 l0,-3.09375 L1.6875,1.265625 L1.6875,0 z" fill="none" stroke="black" stroke-width="0.01"/>
<circle cx="0.9140625" cy="1.1015625" fill="none" r="0.0984251968503937" stroke="black" stroke-width="0.01"/>
<circle cx="0.9140625" cy="4.5234375" fill="none" r="0.0984251968503937" stroke="black" stroke-width="0.01"/>
<circle cx="4.3359375" cy="4.5234375" fill="none" r="0.0984251968503937" stroke="black" stroke-width="0.01"/>
<circle cx="4.3359375" cy="1.1015625" fill="none" r="0.0984251968503937" stroke="black" stroke-width="0.01"/>
</g>
<g>
<path d="M0,0 m0.1875,0 a0.1875,0.1875,0,0,0,-0.1875,0.1875 l0,4.875 a0.1875,0.1875,0,0,0,0.1875,0.1875 l4.875,0 a0.1875,0.1875,0,0,0,0.1875,-0.1875 l0,-4.875 a0.1875,0.1875,0,0,0,-0.1875,-0.1875 L3.5625,0 L3.5625,1.3125 L1.6875,1.3125 L1.6875,0 z" fill="none" stroke="black" stroke-width="0.01"/>
<circle cx="0.9140625" cy="1.1015625" fill="none" r="0.0984251968503937" stroke="black" stroke-width="0.01"/>
<circle cx="0.9140625" cy="4.5234375" fill="none" r="0.0984251968503937" stroke="black" stroke-width="0.01"/>
<circle cx="4.3359375" cy="4.5234375" fill="none" r="0.0984251968503937" stroke="black" stroke-width="0.01"/>
<circle cx="4.3359375" cy="1.1015625" fill="none" r="0.0984251968503937" stroke="black" stroke-width="0.01"/>
</g>
</g>
</svg>