<svg height="5.75in" viewBox="-1.375 -1.5625 5.75 5.75" width="5.75in" xmlns="http://www.w3.org/2000/svg">
<g>
<path d="M-1,-1.3125 a0.125,0.125,0,0,0,-0.125,0.125 l0,5 a0.125,0.125,0,0,0,0.125,0.125 l5,0 a0.125,0.125,0,0,0,0.125,-0.125 l0,-5 a0.125,0.125,0,0,0,-0.125,-0.125 z" fill="none" stroke="goldenrod" stroke-width="0.01"/>
<path d="M-0.34375,-0.375 a0.03125,0.03125,0,0,0,-0.03125,0.03125 l0,3.6875 a0.03125,0.03125,0,0,0,0.03125,0.03125 l3.6875,0 a0.03125,0.03125,0,0,0,0.03125,-0.03125 l0,-3.6875 a0.03125,0.03125,0,0,0,-0.03125,-0.03125 z" fill="none" stroke="goldenrod" stroke-width="0.01"/>
</g>
</svg>