<svg height="5.75in" viewBox="-1.375 -1.5625 5.75 5.75" width="5.75in" xmlns="http://www.w3.org/2000/svg">
<g>
<path d="M-1,-1.3125 a0.125,0.125,0,0,0,-0.125,0.125 l0,5 a0.125,0.125,0,0,0,0.125,0.125 l5,0 a0.125,0.125,0,0,0,0.125,-0.125 l0,-5 a0.125,0.125,0,0,0,-0.125,-0.125 l-1.3125,0 a0.0625,0.0625,0,0,0,-0.0625,0.0625 l0,1.125 a0.0625,0.0625,0,0,0,0.0625,0.0625 l0.3125,0 a0.0625,0.0625,0,0,1,0.0625,0.0625 l0,3 a0.0625,0.0625,0,0,1,-0.0625,0.0625 l-3,0 a0.0625,0.0625,0,0,1,-0.0625,-0.0625 l0,-3 a0.0625,0.0625,0,0,1,0.0625,-0.0625 l0.3125,0 a0.0625,0.0625,0,0,0,0.0625,-0.0625 l0,-1.125 a0.0625,0.0625,0,0,0,-0.0625,-0.0625 z" fill="none" stroke="goldenrod" stroke-width="0.01"/>
<circle cx="-0.21751968503937008" cy="-0.21751968503937008" fill="none" r="0.0984251968503937" stroke="goldenrod" stroke-width="0.01"/>
<circle cx="3.21751968503937" cy="-0.21751968503937008" fill="none" r="0.0984251968503937" stroke="goldenrod" stroke-width="0.01"/>
<circle cx="-0.21751968503937008" cy="3.21751968503937" fill="none" r="0.0984251968503937" stroke="goldenrod" stroke-width="0.01"/>
<circle cx="3.21751968503937" cy="3.21751968503937" fill="none" r="0.0984251968503937" stroke="goldenrod" stroke-width="0.01"/>
</g>
</svg>