<svg height="5.75in" viewBox="-1.375 -1.5625 5.75 5.75" width="5.75in" xmlns="http://www.w3.org/2000/svg">
<g>
<path d="M-1,-1.3125 a0.125,0.125,0,0,0,-0.125,0.125 l0,5 a0.125,0.125,0,0,0,0.125,0.125 l5,0 a0.125,0.125,0,0,0,0.125,-0.125 l0,-5 a0.125,0.125,0,0,0,-0.125,-0.125 z" fill="none" stroke="goldenrod" stroke-width="0.01"/>
<path d="M0.03125,0 a0.03125,0.03125,0,0,0,-0.03125,0.03125 l0,2.9375 a0.03125,0.03125,0,0,0,0.03125,0.03125 l2.9375,0 a0.03125,0.03125,0,0,0,0.03125,-0.03125 l0,-2.9375 a0.03125,0.03125,0,0,0,-0.03125,-0.03125 z" fill="none" stroke="goldenrod" stroke-width="0.01"/>
<circle cx="-0.21751968503937008" cy="-0.21751968503937008" fill="none" r="0.05905511811023623" stroke="goldenrod" stroke-width="0.01"/>
<circle cx="3.21751968503937" cy="-0.21751968503937008" fill="none" r="0.05905511811023623" stroke="goldenrod" stroke-width="0.01"/>
<circle cx="-0.21751968503937008" cy="3.21751968503937" fill="none" r="0.05905511811023623" stroke="goldenrod" stroke-width="0.01"/>
<circle cx="3.21751968503937" cy="3.21751968503937" fill="none" r="0.05905511811023623" stroke="goldenrod" stroke-width="0.01"/>
<circle cx="0.75" cy="0.75" fill="none" r="0.0984251968503937" stroke="goldenrod" stroke-width="0.01"/>
<circle cx="0.75" cy="0.75" fill="none" r="0.19685039370078738" stroke="goldenrod" stroke-width="0.01"/>
<circle cx="2.25" cy="0.75" fill="none" r="0.0984251968503937" stroke="goldenrod" stroke-width="0.01"/>
<circle cx="2.25" cy="0.75" fill="none" r="0.19685039370078738" stroke="goldenrod" stroke-width="0.01"/>
<circle cx="0.75" cy="1.5" fill="none" r="0.0984251968503937" stroke="goldenrod" stroke-width="0.01"/>
<circle cx="0.75" cy="1.5" fill="none" r="0.23622047244094488" stroke="goldenrod" stroke-width="0.01"/>
<circle cx="2.25" cy="1.5" fill="none" r="0.0984251968503937" stroke="goldenrod" stroke-width="0.01"/>
<circle cx="2.25" cy="1.5" fill="none" r="0.23622047244094488" stroke="goldenrod" stroke-width="0.01"/>
<circle cx="0.75" cy="2.25" fill="none" r="0.0984251968503937" stroke="goldenrod" stroke-width="0.01"/>
<circle cx="0.75" cy="2.25" fill="none" r="0.2755905511811024" stroke="goldenrod" stroke-width="0.01"/>
<circle cx="2.25" cy="2.25" fill="none" r="0.0984251968503937" stroke="goldenrod" stroke-width="0.01"/>
<circle cx="2.25" cy="2.25" fill="none" r="0.2755905511811024" stroke="goldenrod" stroke-width="0.01"/>
</g>
</svg>