<svg height="4.25in" viewBox="-0.625 -0.625 4.25 4.25" width="4.25in" xmlns="http://www.w3.org/2000/svg">
<g>
<path d="M-0.3125,-0.375 a0.0625,0.0625,0,0,0,-0.0625,0.0625 l0,3.625 a0.0625,0.0625,0,0,0,0.0625,0.0625 l3.625,0 a0.0625,0.0625,0,0,0,0.0625,-0.0625 l0,-3.625 a0.0625,0.0625,0,0,0,-0.0625,-0.0625 z" fill="none" stroke="goldenrod" stroke-width="0.01"/>
<path d="M0.03125,0 a0.03125,0.03125,0,0,0,-0.03125,0.03125 l0,2.9375 a0.03125,0.03125,0,0,0,0.03125,0.03125 l2.9375,0 a0.03125,0.03125,0,0,0,0.03125,-0.03125 l0,-2.9375 a0.03125,0.03125,0,0,0,-0.03125,-0.03125 z" fill="none" stroke="goldenrod" stroke-width="0.01"/>
<circle cx="-0.21751968503937008" cy="-0.21751968503937008" fill="none" r="0.05905511811023623" stroke="goldenrod" stroke-width="0.01"/>
<circle cx="3.21751968503937" cy="-0.21751968503937008" fill="none" r="0.05905511811023623" stroke="goldenrod" stroke-width="0.01"/>
<circle cx="-0.21751968503937008" cy="3.21751968503937" fill="none" r="0.05905511811023623" stroke="goldenrod" stroke-width="0.01"/>
<circle cx="3.21751968503937" cy="3.21751968503937" fill="none" r="0.05905511811023623" stroke="goldenrod" stroke-width="0.01"/>
</g>
</svg>