M48
; DRILL file {KiCad (6.0.11-0)} date Wednesday, 19 July 2023 at 11:21:02
; FORMAT={-:-/ absolute / inch / decimal}
; #@! TF.CreationDate,2023-07-19T11:21:02+01:00
; #@! TF.GenerationSoftware,Kicad,Pcbnew,(6.0.11-0)
; #@! TF.FileFunction,NonPlated,1,2,NPTH
FMAT,2
INCH
; #@! TA.AperFunction,NonPlated,NPTH,ComponentDrill
T1C0.0689
; #@! TA.AperFunction,NonPlated,NPTH,ComponentDrill
T2C0.1200
; #@! TA.AperFunction,NonPlated,NPTH,ComponentDrill
T3C0.1201
; #@! TA.AperFunction,NonPlated,NPTH,ComponentDrill
T4C0.1570
; #@! TA.AperFunction,NonPlated,NPTH,ComponentDrill
T5C0.1575
%
G90
G05
T1
X0.7375Y-0.9375
X0.8313Y-3.9375
X0.925Y-1.6875
X1.0188Y-2.4375
X1.1375Y-0.9375
X1.2063Y-3.1875
X1.2313Y-3.9375
X1.325Y-1.6875
X1.4187Y-2.4375
X1.4875Y-0.9375
X1.6062Y-3.1875
X1.7688Y-3.9375
X1.8625Y-1.6875
X1.8875Y-0.9375
X2.05Y-2.4375
X2.1688Y-3.9375
X2.2375Y-0.9375
X2.2625Y-1.6875
X2.425Y-3.1875
X2.45Y-2.4375
X2.6125Y-1.6875
X2.6375Y-0.9375
X2.7063Y-3.9401
X2.8Y-2.4375
X2.825Y-3.1875
X2.9875Y-0.9375
X3.0125Y-1.6875
X3.1063Y-3.9401
X3.175Y-3.1875
X3.2Y-2.4375
X3.3625Y-1.6875
X3.3875Y-0.9375
X3.55Y-2.4375
X3.575Y-3.1875
X3.7375Y-0.9375
X3.7625Y-1.6875
X3.925Y-3.1875
X3.95Y-2.4375
X4.1125Y-1.6875
X4.1375Y-0.9375
X4.3Y-2.4375
X4.325Y-3.1875
X4.4875Y-0.9375
X4.5125Y-1.6875
X4.675Y-3.1875
X4.7Y-2.4375
X4.8625Y-1.6875
X4.8875Y-0.9375
X5.05Y-2.4375
X5.075Y-3.1875
X5.2375Y-0.9375
X5.2625Y-1.6875
X5.425Y-3.1875
X5.45Y-2.4375
X5.5187Y-3.9375
X5.6125Y-1.6875
X5.6375Y-0.9375
X5.8Y-2.4375
X5.825Y-3.1875
X5.9188Y-3.9375
X5.9875Y-0.9375
X6.0125Y-1.6875
X6.175Y-3.1875
X6.2Y-2.4375
X6.3625Y-1.6875
X6.3875Y-0.9375
X6.55Y-2.4375
X6.575Y-3.1875
X6.7375Y-0.9375
X6.7625Y-1.6875
X6.925Y-3.1875
X6.95Y-2.4375
X7.1125Y-1.6875
X7.1375Y-0.9375
X7.3Y-2.4375
X7.325Y-3.1875
X7.4875Y-0.9375
X7.5125Y-1.6875
X7.675Y-3.1875
X7.7Y-2.4375
X7.8625Y-1.6875
X7.8875Y-0.9375
X8.05Y-2.4375
X8.075Y-3.1875
X8.2375Y-0.9375
X8.2375Y-3.9375
X8.2625Y-1.6875
X8.425Y-3.1875
X8.45Y-2.4375
X8.6125Y-1.6875
X8.6375Y-0.9375
X8.6375Y-3.9375
X8.8Y-2.4375
X8.825Y-3.1875
X8.9875Y-0.9375
X8.9875Y-3.9375
X9.0125Y-1.6875
X9.175Y-3.1875
X9.2Y-2.4375
X9.3625Y-1.6875
X9.3875Y-0.9375
X9.3875Y-3.9375
X9.55Y-2.4375
X9.575Y-3.1875
X9.7375Y-0.9375
X9.7375Y-3.9375
X9.7625Y-1.6875
X9.95Y-2.4375
X10.1125Y-1.6875
X10.1375Y-0.9375
X10.1375Y-3.9375
X10.2062Y-3.1875
X10.4875Y-0.9375
X10.4875Y-3.9375
X10.5125Y-1.6875
X10.6062Y-3.1875
X10.7687Y-2.4375
X10.8875Y-0.9375
X10.8875Y-3.9375
X11.05Y-1.6875
X11.1687Y-2.4375
X11.2375Y-0.9375
X11.2375Y-3.1875
X11.2375Y-3.9375
X11.45Y-1.6875
X11.6375Y-0.9375
X11.6375Y-3.1875
X11.6375Y-3.9375
X11.9875Y-0.9375
X11.9875Y-1.6875
X11.9875Y-2.4375
X11.9875Y-3.1875
X11.9875Y-3.9375
X12.3875Y-0.9375
X12.3875Y-1.6875
X12.3875Y-2.4375
X12.3875Y-3.1875
X12.3875Y-3.9375
T2
X0.9363Y-2.9125
X1.8762Y-2.9125
X3.7502Y-4.2125
X7.6873Y-4.2125
X10.4987Y-2.1625
X11.4387Y-2.1625
T3
X0.7875Y-0.8375
X0.9313Y-4.1375
X0.975Y-1.5875
X1.0375Y-0.7375
X1.0687Y-2.3375
X1.1813Y-4.0375
X1.225Y-1.4875
X1.2562Y-3.0875
X1.3187Y-2.2375
X1.5062Y-2.9875
X1.5375Y-0.8375
X1.7875Y-0.7375
X1.8688Y-4.1375
X1.9125Y-1.5875
X2.1Y-2.3375
X2.1188Y-4.0375
X2.1625Y-1.4875
X2.2875Y-0.8375
X2.35Y-2.2375
X2.475Y-3.0875
X2.5375Y-0.7375
X2.6625Y-1.5875
X2.725Y-2.9875
X2.8063Y-4.1401
X2.85Y-2.3375
X2.9125Y-1.4875
X3.0375Y-0.8375
X3.0563Y-4.0401
X3.1Y-2.2375
X3.225Y-3.0875
X3.2875Y-0.7375
X3.4125Y-1.5875
X3.475Y-2.9875
X3.6Y-2.3375
X3.6625Y-1.4875
X3.7875Y-0.8375
X3.85Y-2.2375
X3.975Y-3.0875
X4.0375Y-0.7375
X4.1625Y-1.5875
X4.225Y-2.9875
X4.35Y-2.3375
X4.4125Y-1.4875
X4.5375Y-0.8375
X4.6Y-2.2375
X4.725Y-3.0875
X4.7875Y-0.7375
X4.9125Y-1.5875
X4.975Y-2.9875
X5.1Y-2.3375
X5.1625Y-1.4875
X5.2875Y-0.8375
X5.35Y-2.2375
X5.475Y-3.0875
X5.5375Y-0.7375
X5.5687Y-3.8375
X5.6625Y-1.5875
X5.725Y-2.9875
X5.8187Y-3.7375
X5.85Y-2.3375
X5.9125Y-1.4875
X6.0375Y-0.8375
X6.1Y-2.2375
X6.225Y-3.0875
X6.2875Y-0.7375
X6.4125Y-1.5875
X6.475Y-2.9875
X6.6Y-2.3375
X6.6625Y-1.4875
X6.7875Y-0.8375
X6.85Y-2.2375
X6.975Y-3.0875
X7.0375Y-0.7375
X7.1625Y-1.5875
X7.225Y-2.9875
X7.35Y-2.3375
X7.4125Y-1.4875
X7.5375Y-0.8375
X7.6Y-2.2375
X7.725Y-3.0875
X7.7875Y-0.7375
X7.9125Y-1.5875
X7.975Y-2.9875
X8.1Y-2.3375
X8.1625Y-1.4875
X8.2875Y-0.8375
X8.2875Y-3.8375
X8.35Y-2.2375
X8.475Y-3.0875
X8.5375Y-0.7375
X8.5375Y-3.7375
X8.6625Y-1.5875
X8.725Y-2.9875
X8.85Y-2.3375
X8.9125Y-1.4875
X9.0375Y-0.8375
X9.0375Y-3.8375
X9.1Y-2.2375
X9.225Y-3.0875
X9.2875Y-0.7375
X9.2875Y-3.7375
X9.4125Y-1.5875
X9.475Y-2.9875
X9.6Y-2.3375
X9.6625Y-1.4875
X9.7875Y-0.8375
X9.7875Y-3.8375
X9.85Y-2.2375
X10.0375Y-0.7375
X10.0375Y-3.7375
X10.1625Y-1.5875
X10.2562Y-3.0875
X10.4125Y-1.4875
X10.5062Y-2.9875
X10.5375Y-0.8375
X10.5375Y-3.8375
X10.7875Y-0.7375
X10.7875Y-3.7375
X10.8187Y-2.3375
X11.0687Y-2.2375
X11.1Y-1.5875
X11.2875Y-0.8375
X11.2875Y-3.0875
X11.2875Y-3.8375
X11.35Y-1.4875
X11.5375Y-0.7375
X11.5375Y-2.9875
X11.5375Y-3.7375
X12.0375Y-0.8375
X12.0375Y-1.5875
X12.0375Y-2.3375
X12.0375Y-3.0875
X12.0375Y-3.8375
X12.2875Y-0.7375
X12.2875Y-1.4875
X12.2875Y-2.2375
X12.2875Y-2.9875
X12.2875Y-3.7375
T4
X0.9363Y-3.5113
X1.8762Y-3.5113
X3.7502Y-3.6137
X7.6873Y-3.6137
X10.4987Y-2.7613
X11.4387Y-2.7613
T5
X0.9375Y-0.9375
X1.0313Y-3.9375
X1.125Y-1.6875
X1.2188Y-2.4375
X1.4062Y-3.1875
X1.6875Y-0.9375
X1.9688Y-3.9375
X2.0625Y-1.6875
X2.25Y-2.4375
X2.4375Y-0.9375
X2.625Y-3.1875
X2.8125Y-1.6875
X2.9063Y-3.9401
X3.0Y-2.4375
X3.1875Y-0.9375
X3.375Y-3.1875
X3.5625Y-1.6875
X3.75Y-2.4375
X3.9375Y-0.9375
X4.125Y-3.1875
X4.3125Y-1.6875
X4.5Y-2.4375
X4.6875Y-0.9375
X4.875Y-3.1875
X5.0625Y-1.6875
X5.25Y-2.4375
X5.4375Y-0.9375
X5.625Y-3.1875
X5.7188Y-3.9375
X5.8125Y-1.6875
X6.0Y-2.4375
X6.1875Y-0.9375
X6.375Y-3.1875
X6.5625Y-1.6875
X6.75Y-2.4375
X6.9375Y-0.9375
X7.125Y-3.1875
X7.3125Y-1.6875
X7.5Y-2.4375
X7.6875Y-0.9375
X7.875Y-3.1875
X8.0625Y-1.6875
X8.25Y-2.4375
X8.4375Y-0.9375
X8.4375Y-3.9375
X8.625Y-3.1875
X8.8125Y-1.6875
X9.0Y-2.4375
X9.1875Y-0.9375
X9.1875Y-3.9375
X9.375Y-3.1875
X9.5625Y-1.6875
X9.75Y-2.4375
X9.9375Y-0.9375
X9.9375Y-3.9375
X10.3125Y-1.6875
X10.4062Y-3.1875
X10.6875Y-0.9375
X10.6875Y-3.9375
X10.9688Y-2.4375
X11.25Y-1.6875
X11.4375Y-0.9375
X11.4375Y-3.1875
X11.4375Y-3.9375
X12.1875Y-0.9375
X12.1875Y-1.6875
X12.1875Y-2.4375
X12.1875Y-3.1875
X12.1875Y-3.9375
T0
M30
