M48
; DRILL file {KiCad (6.0.11-0)} date Wednesday, 19 July 2023 at 11:21:02
; FORMAT={-:-/ absolute / inch / decimal}
; #@! TF.CreationDate,2023-07-19T11:21:02+01:00
; #@! TF.GenerationSoftware,Kicad,Pcbnew,(6.0.11-0)
; #@! TF.FileFunction,Plated,1,2,PTH
FMAT,2
INCH
; #@! TA.AperFunction,Plated,PTH,ViaDrill
T1C0.0157
%
G90
G05
T1
X0.75Y-4.2188
X0.8494Y-1.4119
X0.8672Y-4.2422
X0.9432Y-2.1619
X1.1307Y-2.9119
X1.2188Y-0.6563
X1.4062Y-0.6563
X1.4063Y-1.4063
X1.4063Y-3.4688
X1.5Y-2.1563
X1.6875Y-2.9063
X1.8047Y-4.2422
X1.9688Y-0.6563
X2.3438Y-1.4063
X2.5313Y-2.1563
X2.7188Y-0.6563
X2.7422Y-4.2422
X2.9063Y-2.9063
X3.0938Y-1.4063
X3.2813Y-2.1563
X3.4688Y-0.6563
X3.6563Y-2.9063
X3.8438Y-1.4063
X4.0313Y-2.1563
X4.2188Y-0.6563
X4.2656Y-4.0078
X4.2891Y-3.6563
X4.3359Y-4.0078
X4.4063Y-2.9063
X4.4063Y-4.0078
X4.4766Y-4.0078
X4.5469Y-4.0078
X4.5938Y-1.4063
X4.6172Y-4.0078
X4.6875Y-4.0078
X4.7578Y-4.0078
X4.7813Y-2.1563
X4.9688Y-0.6563
X5.1563Y-2.9063
X5.3438Y-1.4063
X5.5313Y-2.1563
X5.7188Y-0.6563
X5.9063Y-2.9063
X6.0Y-3.6563
X6.0Y-4.2188
X6.0938Y-1.4063
X6.2813Y-2.1563
X6.4688Y-0.6563
X6.6563Y-2.9063
X6.8438Y-1.4063
X7.0313Y-2.1563
X7.2188Y-0.6563
X7.4063Y-2.9063
X7.5938Y-1.4063
X7.7813Y-2.1563
X7.9688Y-0.6563
X8.1563Y-2.9063
X8.1563Y-4.2188
X8.3438Y-1.4063
X8.5313Y-2.1563
X8.7188Y-0.6563
X8.7188Y-3.6563
X8.9063Y-2.9063
X9.0938Y-1.4063
X9.2813Y-2.1563
X9.4688Y-0.6563
X9.4688Y-3.6563
X9.6563Y-2.9063
X9.8438Y-1.4063
X10.0313Y-2.1563
X10.2188Y-0.6563
X10.2188Y-3.6563
X10.5938Y-1.4063
X10.6875Y-2.9063
X10.9688Y-0.6563
X10.9688Y-3.6563
X11.25Y-2.1563
X11.5313Y-1.4063
X11.7188Y-0.6563
X11.7188Y-2.9063
X11.7188Y-3.6563
X11.9062Y-4.2187
X11.9063Y-0.6563
X11.9063Y-1.4063
X11.9063Y-2.1563
X11.9063Y-2.9063
X12.4688Y-0.6563
X12.4688Y-1.4063
X12.4688Y-2.1563
X12.4688Y-2.9063
X12.4688Y-3.6563
T0
M30
