%TF.GenerationSoftware,KiCad,Pcbnew,(6.0.11-0)*%
%TF.CreationDate,2023-07-19T11:20:52+01:00*%
%TF.ProjectId,keybird,6b657962-6972-4642-9e6b-696361645f70,0.3*%
%TF.SameCoordinates,Original*%
%TF.FileFunction,Soldermask,Bot*%
%TF.FilePolarity,Negative*%
%FSLAX46Y46*%
G04 Gerber Fmt 4.6, Leading zero omitted, Abs format (unit mm)*
G04 Created by KiCad (PCBNEW (6.0.11-0)) date 2023-07-19 11:20:52*
%MOMM*%
%LPD*%
G01*
G04 APERTURE LIST*
G04 Aperture macros list*
%AMRoundRect*
0 Rectangle with rounded corners*
0 $1 Rounding radius*
0 $2 $3 $4 $5 $6 $7 $8 $9 X,Y pos of 4 corners*
0 Add a 4 corners polygon primitive as box body*
4,1,4,$2,$3,$4,$5,$6,$7,$8,$9,$2,$3,0*
0 Add four circle primitives for the rounded corners*
1,1,$1+$1,$2,$3*
1,1,$1+$1,$4,$5*
1,1,$1+$1,$6,$7*
1,1,$1+$1,$8,$9*
0 Add four rect primitives between the rounded corners*
20,1,$1+$1,$2,$3,$4,$5,0*
20,1,$1+$1,$4,$5,$6,$7,0*
20,1,$1+$1,$6,$7,$8,$9,0*
20,1,$1+$1,$8,$9,$2,$3,0*%
G04 Aperture macros list end*
%ADD10C,4.000000*%
%ADD11C,1.750000*%
%ADD12C,3.050000*%
%ADD13RoundRect,0.250000X-1.025000X-1.000000X1.025000X-1.000000X1.025000X1.000000X-1.025000X1.000000X0*%
%ADD14C,3.987800*%
%ADD15C,3.048000*%
%ADD16RoundRect,0.250000X1.025000X1.000000X-1.025000X1.000000X-1.025000X-1.000000X1.025000X-1.000000X0*%
%ADD17R,1.200000X0.900000*%
%ADD18RoundRect,0.396875X0.396875X-1.508125X0.396875X1.508125X-0.396875X1.508125X-0.396875X-1.508125X0*%
%ADD19RoundRect,0.396875X-1.508125X-0.396875X1.508125X-0.396875X1.508125X0.396875X-1.508125X0.396875X0*%
G04 APERTURE END LIST*
D10*
%TO.C,SW67*%
X290512500Y-80962500D03*
D11*
X295592500Y-80962500D03*
D12*
X293052500Y-75882500D03*
X286702500Y-78422500D03*
D11*
X285432500Y-80962500D03*
D13*
X283427500Y-78422500D03*
X296354500Y-75882500D03*
%TD*%
D10*
%TO.C,SW30*%
X52387500Y-42862500D03*
D11*
X57467500Y-42862500D03*
D12*
X54927500Y-37782500D03*
X48577500Y-40322500D03*
D11*
X47307500Y-42862500D03*
D13*
X45302500Y-40322500D03*
X58229500Y-37782500D03*
%TD*%
D10*
%TO.C,SW17*%
X309562500Y-23812500D03*
D11*
X314642500Y-23812500D03*
D12*
X312102500Y-18732500D03*
X305752500Y-21272500D03*
D11*
X304482500Y-23812500D03*
D13*
X302477500Y-21272500D03*
X315404500Y-18732500D03*
%TD*%
D10*
%TO.C,SW53*%
X152400000Y-61912500D03*
D11*
X157480000Y-61912500D03*
D12*
X154940000Y-56832500D03*
X148590000Y-59372500D03*
D11*
X147320000Y-61912500D03*
D13*
X145315000Y-59372500D03*
X158242000Y-56832500D03*
%TD*%
D10*
%TO.C,SW12*%
X119062500Y-23812500D03*
D11*
X124142500Y-23812500D03*
D12*
X121602500Y-18732500D03*
X115252500Y-21272500D03*
D11*
X113982500Y-23812500D03*
D13*
X111977500Y-21272500D03*
X124904500Y-18732500D03*
%TD*%
D10*
%TO.C,SW11*%
X80962500Y-23812500D03*
D11*
X86042500Y-23812500D03*
D12*
X83502500Y-18732500D03*
X77152500Y-21272500D03*
D11*
X75882500Y-23812500D03*
D13*
X73877500Y-21272500D03*
X86804500Y-18732500D03*
%TD*%
D10*
%TO.C,SW25*%
X223837500Y-42862500D03*
D11*
X228917500Y-42862500D03*
D12*
X226377500Y-37782500D03*
X220027500Y-40322500D03*
D11*
X218757500Y-42862500D03*
D13*
X216752500Y-40322500D03*
X229679500Y-37782500D03*
%TD*%
D10*
%TO.C,SW84*%
X214312500Y-100012500D03*
D11*
X219392500Y-100012500D03*
D12*
X216852500Y-94932500D03*
X210502500Y-97472500D03*
D11*
X209232500Y-100012500D03*
D13*
X207227500Y-97472500D03*
X220154500Y-94932500D03*
%TD*%
D10*
%TO.C,SW01*%
X61912500Y-23812500D03*
D11*
X66992500Y-23812500D03*
D12*
X64452500Y-18732500D03*
X58102500Y-21272500D03*
D11*
X56832500Y-23812500D03*
D13*
X54827500Y-21272500D03*
X67754500Y-18732500D03*
%TD*%
D10*
%TO.C,SW07*%
X290512500Y-23812500D03*
D11*
X295592500Y-23812500D03*
D12*
X293052500Y-18732500D03*
X286702500Y-21272500D03*
D11*
X285432500Y-23812500D03*
D13*
X283427500Y-21272500D03*
X296354500Y-18732500D03*
%TD*%
D10*
%TO.C,SW10*%
X42862500Y-23812500D03*
D11*
X47942500Y-23812500D03*
D12*
X45402500Y-18732500D03*
X39052500Y-21272500D03*
D11*
X37782500Y-23812500D03*
D13*
X35777500Y-21272500D03*
X48704500Y-18732500D03*
%TD*%
D10*
%TO.C,SW06*%
X252412500Y-23812500D03*
D11*
X257492500Y-23812500D03*
D12*
X254952500Y-18732500D03*
X248602500Y-21272500D03*
D11*
X247332500Y-23812500D03*
D13*
X245327500Y-21272500D03*
X258254500Y-18732500D03*
%TD*%
D12*
%TO.C,SW20*%
X31115000Y-37782500D03*
D10*
X28575000Y-42862500D03*
D11*
X23495000Y-42862500D03*
X33655000Y-42862500D03*
D12*
X24765000Y-40322500D03*
D13*
X21490000Y-40322500D03*
X34417000Y-37782500D03*
%TD*%
D10*
%TO.C,SW83*%
X145256250Y-100012500D03*
D12*
X147796250Y-94932500D03*
D11*
X140176250Y-100012500D03*
D12*
X141446250Y-97472500D03*
D11*
X150336250Y-100012500D03*
D13*
X138171250Y-97472500D03*
X151098250Y-94932500D03*
%TD*%
D12*
%TO.C,SW56*%
X274796250Y-59372500D03*
D10*
X278606250Y-61912500D03*
D12*
X281146250Y-56832500D03*
D11*
X273526250Y-61912500D03*
X283686250Y-61912500D03*
D13*
X271521250Y-59372500D03*
X284448250Y-56832500D03*
%TD*%
D10*
%TO.C,SW31*%
X90487500Y-42862500D03*
D11*
X95567500Y-42862500D03*
D12*
X93027500Y-37782500D03*
X86677500Y-40322500D03*
D11*
X85407500Y-42862500D03*
D13*
X83402500Y-40322500D03*
X96329500Y-37782500D03*
%TD*%
D10*
%TO.C,SW00*%
X23812500Y-23812500D03*
D11*
X28892500Y-23812500D03*
D12*
X26352500Y-18732500D03*
X20002500Y-21272500D03*
D11*
X18732500Y-23812500D03*
D13*
X16727500Y-21272500D03*
X29654500Y-18732500D03*
%TD*%
D10*
%TO.C,SW34*%
X204787500Y-42862500D03*
D11*
X209867500Y-42862500D03*
D12*
X207327500Y-37782500D03*
X200977500Y-40322500D03*
D11*
X199707500Y-42862500D03*
D13*
X197702500Y-40322500D03*
X210629500Y-37782500D03*
%TD*%
D10*
%TO.C,SW05*%
X214312500Y-23812500D03*
D11*
X219392500Y-23812500D03*
D12*
X216852500Y-18732500D03*
X210502500Y-21272500D03*
D11*
X209232500Y-23812500D03*
D13*
X207227500Y-21272500D03*
X220154500Y-18732500D03*
%TD*%
D10*
%TO.C,SW27*%
X309562500Y-42862500D03*
D11*
X314642500Y-42862500D03*
D12*
X312102500Y-37782500D03*
X305752500Y-40322500D03*
D11*
X304482500Y-42862500D03*
D13*
X302477500Y-40322500D03*
X315404500Y-37782500D03*
%TD*%
D10*
%TO.C,SW61*%
X85725000Y-80962500D03*
D11*
X90805000Y-80962500D03*
D12*
X88265000Y-75882500D03*
X81915000Y-78422500D03*
D11*
X80645000Y-80962500D03*
D13*
X78640000Y-78422500D03*
X91567000Y-75882500D03*
%TD*%
D10*
%TO.C,SW76*%
X271462728Y-100012584D03*
D11*
X276542728Y-100012584D03*
D12*
X274002728Y-94932584D03*
X267652728Y-97472584D03*
D11*
X266382728Y-100012584D03*
D13*
X264377728Y-97472584D03*
X277304728Y-94932584D03*
%TD*%
D11*
%TO.C,SW50*%
X36036250Y-61912500D03*
D12*
X27146250Y-59372500D03*
D10*
X30956250Y-61912500D03*
D11*
X25876250Y-61912500D03*
D12*
X33496250Y-56832500D03*
D13*
X23871250Y-59372500D03*
X36798250Y-56832500D03*
%TD*%
D10*
%TO.C,SW44*%
X209550000Y-61912500D03*
D11*
X214630000Y-61912500D03*
D12*
X212090000Y-56832500D03*
X205740000Y-59372500D03*
D11*
X204470000Y-61912500D03*
D13*
X202465000Y-59372500D03*
X215392000Y-56832500D03*
%TD*%
D10*
%TO.C,SW86*%
X252412500Y-100012500D03*
D11*
X257492500Y-100012500D03*
D12*
X254952500Y-94932500D03*
X248602500Y-97472500D03*
D11*
X247332500Y-100012500D03*
D13*
X245327500Y-97472500D03*
X258254500Y-94932500D03*
%TD*%
D14*
%TO.C,ST_SPACE*%
X195256250Y-91787500D03*
D15*
X95256250Y-106997500D03*
D14*
X95256250Y-91787500D03*
D15*
X195256250Y-106997500D03*
%TD*%
D10*
%TO.C,SW40*%
X57150000Y-61912500D03*
D11*
X62230000Y-61912500D03*
D12*
X59690000Y-56832500D03*
X53340000Y-59372500D03*
D11*
X52070000Y-61912500D03*
D13*
X50065000Y-59372500D03*
X62992000Y-56832500D03*
%TD*%
D12*
%TO.C,SW60*%
X31908750Y-78422500D03*
D10*
X35718750Y-80962500D03*
D12*
X38258750Y-75882500D03*
D11*
X30638750Y-80962500D03*
X40798750Y-80962500D03*
D13*
X28633750Y-78422500D03*
X41560750Y-75882500D03*
%TD*%
D10*
%TO.C,SW03*%
X138112500Y-23812500D03*
D11*
X143192500Y-23812500D03*
D12*
X140652500Y-18732500D03*
X134302500Y-21272500D03*
D11*
X133032500Y-23812500D03*
D13*
X131027500Y-21272500D03*
X143954500Y-18732500D03*
%TD*%
D10*
%TO.C,SW33*%
X166687500Y-42862500D03*
D11*
X171767500Y-42862500D03*
D12*
X169227500Y-37782500D03*
X162877500Y-40322500D03*
D11*
X161607500Y-42862500D03*
D13*
X159602500Y-40322500D03*
X172529500Y-37782500D03*
%TD*%
D10*
%TO.C,SW42*%
X133350000Y-61912500D03*
D11*
X138430000Y-61912500D03*
D12*
X135890000Y-56832500D03*
X129540000Y-59372500D03*
D11*
X128270000Y-61912500D03*
D13*
X126265000Y-59372500D03*
X139192000Y-56832500D03*
%TD*%
D10*
%TO.C,SW21*%
X71437500Y-42862500D03*
D11*
X76517500Y-42862500D03*
D12*
X73977500Y-37782500D03*
X67627500Y-40322500D03*
D11*
X66357500Y-42862500D03*
D13*
X64352500Y-40322500D03*
X77279500Y-37782500D03*
%TD*%
D14*
%TO.C,ST_SHIFT*%
X47656750Y-89187500D03*
X23780750Y-89187500D03*
D15*
X23780750Y-73977500D03*
X47656750Y-73977500D03*
%TD*%
D10*
%TO.C,SW23*%
X147637500Y-42862500D03*
D11*
X152717500Y-42862500D03*
D12*
X150177500Y-37782500D03*
X143827500Y-40322500D03*
D11*
X142557500Y-42862500D03*
D13*
X140552500Y-40322500D03*
X153479500Y-37782500D03*
%TD*%
D12*
%TO.C,SW36*%
X288290000Y-37782500D03*
D10*
X285750000Y-42862500D03*
D11*
X280670000Y-42862500D03*
X290830000Y-42862500D03*
D12*
X281940000Y-40322500D03*
D13*
X278665000Y-40322500D03*
X291592000Y-37782500D03*
%TD*%
D10*
%TO.C,SW43*%
X171450000Y-61912500D03*
D11*
X176530000Y-61912500D03*
D12*
X173990000Y-56832500D03*
X167640000Y-59372500D03*
D11*
X166370000Y-61912500D03*
D13*
X164365000Y-59372500D03*
X177292000Y-56832500D03*
%TD*%
D10*
%TO.C,SW35*%
X242887500Y-42862500D03*
D11*
X247967500Y-42862500D03*
D12*
X245427500Y-37782500D03*
X239077500Y-40322500D03*
D11*
X237807500Y-42862500D03*
D13*
X235802500Y-40322500D03*
X248729500Y-37782500D03*
%TD*%
D10*
%TO.C,SW41*%
X95250000Y-61912500D03*
D11*
X100330000Y-61912500D03*
D12*
X97790000Y-56832500D03*
X91440000Y-59372500D03*
D11*
X90170000Y-61912500D03*
D13*
X88165000Y-59372500D03*
X101092000Y-56832500D03*
%TD*%
D10*
%TO.C,SW63*%
X161925000Y-80962500D03*
D11*
X167005000Y-80962500D03*
D12*
X164465000Y-75882500D03*
X158115000Y-78422500D03*
D11*
X156845000Y-80962500D03*
D13*
X154840000Y-78422500D03*
X167767000Y-75882500D03*
%TD*%
D10*
%TO.C,SW65*%
X238125000Y-80962500D03*
D11*
X243205000Y-80962500D03*
D12*
X240665000Y-75882500D03*
X234315000Y-78422500D03*
D11*
X233045000Y-80962500D03*
D13*
X231040000Y-78422500D03*
X243967000Y-75882500D03*
%TD*%
D10*
%TO.C,SW47*%
X309562500Y-61912500D03*
D11*
X314642500Y-61912500D03*
D12*
X312102500Y-56832500D03*
X305752500Y-59372500D03*
D11*
X304482500Y-61912500D03*
D13*
X302477500Y-59372500D03*
X315404500Y-56832500D03*
%TD*%
D10*
%TO.C,SW54*%
X190500000Y-61912500D03*
D11*
X195580000Y-61912500D03*
D12*
X193040000Y-56832500D03*
X186690000Y-59372500D03*
D11*
X185420000Y-61912500D03*
D13*
X183415000Y-59372500D03*
X196342000Y-56832500D03*
%TD*%
D10*
%TO.C,SW52*%
X114300000Y-61912500D03*
D11*
X119380000Y-61912500D03*
D12*
X116840000Y-56832500D03*
X110490000Y-59372500D03*
D11*
X109220000Y-61912500D03*
D13*
X107215000Y-59372500D03*
X120142000Y-56832500D03*
%TD*%
D10*
%TO.C,SW26*%
X261937500Y-42862500D03*
D11*
X267017500Y-42862500D03*
D12*
X264477500Y-37782500D03*
X258127500Y-40322500D03*
D11*
X256857500Y-42862500D03*
D13*
X254852500Y-40322500D03*
X267779500Y-37782500D03*
%TD*%
D10*
%TO.C,SW22*%
X109537500Y-42862500D03*
D11*
X114617500Y-42862500D03*
D12*
X112077500Y-37782500D03*
X105727500Y-40322500D03*
D11*
X104457500Y-42862500D03*
D13*
X102452500Y-40322500D03*
X115379500Y-37782500D03*
%TD*%
D10*
%TO.C,SW55*%
X228600000Y-61912500D03*
D11*
X233680000Y-61912500D03*
D12*
X231140000Y-56832500D03*
X224790000Y-59372500D03*
D11*
X223520000Y-61912500D03*
D13*
X221515000Y-59372500D03*
X234442000Y-56832500D03*
%TD*%
D12*
%TO.C,SW81*%
X47466272Y-105092500D03*
X53816272Y-102552500D03*
D11*
X44926272Y-100012500D03*
X55086272Y-100012500D03*
D10*
X50006272Y-100012500D03*
D16*
X57091272Y-102552500D03*
X44164272Y-105092500D03*
%TD*%
D10*
%TO.C,SW04*%
X176212500Y-23812500D03*
D11*
X181292500Y-23812500D03*
D12*
X178752500Y-18732500D03*
X172402500Y-21272500D03*
D11*
X171132500Y-23812500D03*
D13*
X169127500Y-21272500D03*
X182054500Y-18732500D03*
%TD*%
D10*
%TO.C,SW14*%
X195262500Y-23812500D03*
D11*
X200342500Y-23812500D03*
D12*
X197802500Y-18732500D03*
X191452500Y-21272500D03*
D11*
X190182500Y-23812500D03*
D13*
X188177500Y-21272500D03*
X201104500Y-18732500D03*
%TD*%
D10*
%TO.C,SW87*%
X290512500Y-100012500D03*
D11*
X295592500Y-100012500D03*
D12*
X293052500Y-94932500D03*
X286702500Y-97472500D03*
D11*
X285432500Y-100012500D03*
D13*
X283427500Y-97472500D03*
X296354500Y-94932500D03*
%TD*%
D10*
%TO.C,SW71*%
X104775088Y-80962568D03*
D11*
X109855088Y-80962568D03*
D12*
X107315088Y-75882568D03*
X100965088Y-78422568D03*
D11*
X99695088Y-80962568D03*
D13*
X97690088Y-78422568D03*
X110617088Y-75882568D03*
%TD*%
D10*
%TO.C,SW51*%
X76200000Y-61912500D03*
D11*
X81280000Y-61912500D03*
D12*
X78740000Y-56832500D03*
X72390000Y-59372500D03*
D11*
X71120000Y-61912500D03*
D13*
X69115000Y-59372500D03*
X82042000Y-56832500D03*
%TD*%
D10*
%TO.C,SW72*%
X142875120Y-80962568D03*
D11*
X147955120Y-80962568D03*
D12*
X145415120Y-75882568D03*
X139065120Y-78422568D03*
D11*
X137795120Y-80962568D03*
D13*
X135790120Y-78422568D03*
X148717120Y-75882568D03*
%TD*%
D10*
%TO.C,SW70*%
X66675056Y-80962568D03*
D11*
X71755056Y-80962568D03*
D12*
X69215056Y-75882568D03*
X62865056Y-78422568D03*
D11*
X61595056Y-80962568D03*
D13*
X59590056Y-78422568D03*
X72517056Y-75882568D03*
%TD*%
D10*
%TO.C,SW74*%
X219075184Y-80962568D03*
D11*
X224155184Y-80962568D03*
D12*
X221615184Y-75882568D03*
X215265184Y-78422568D03*
D11*
X213995184Y-80962568D03*
D13*
X211990184Y-78422568D03*
X224917184Y-75882568D03*
%TD*%
D10*
%TO.C,SW45*%
X247650000Y-61912500D03*
D11*
X252730000Y-61912500D03*
D12*
X250190000Y-56832500D03*
X243840000Y-59372500D03*
D11*
X242570000Y-61912500D03*
D13*
X240565000Y-59372500D03*
X253492000Y-56832500D03*
%TD*%
D11*
%TO.C,SW66*%
X269398750Y-80962500D03*
D12*
X260508750Y-78422500D03*
D10*
X264318750Y-80962500D03*
D11*
X259238750Y-80962500D03*
D12*
X266858750Y-75882500D03*
D13*
X257233750Y-78422500D03*
X270160750Y-75882500D03*
%TD*%
D12*
%TO.C,SW82*%
X71278812Y-105158202D03*
X77628812Y-102618202D03*
D11*
X68738812Y-100078202D03*
X78898812Y-100078202D03*
D10*
X73818812Y-100078202D03*
D16*
X80903812Y-102618202D03*
X67976812Y-105158202D03*
%TD*%
D10*
%TO.C,SW57*%
X309562500Y-80962500D03*
D11*
X314642500Y-80962500D03*
D12*
X312102500Y-75882500D03*
X305752500Y-78422500D03*
D11*
X304482500Y-80962500D03*
D13*
X302477500Y-78422500D03*
X315404500Y-75882500D03*
%TD*%
D10*
%TO.C,SW85*%
X233362500Y-100012500D03*
D11*
X238442500Y-100012500D03*
D12*
X235902500Y-94932500D03*
X229552500Y-97472500D03*
D11*
X228282500Y-100012500D03*
D13*
X226277500Y-97472500D03*
X239204500Y-94932500D03*
%TD*%
D14*
%TO.C,ST_ENTER*%
X290544250Y-70137500D03*
X266668250Y-70137500D03*
D15*
X266668250Y-54927500D03*
X290544250Y-54927500D03*
%TD*%
D10*
%TO.C,SW32*%
X128587500Y-42862500D03*
D11*
X133667500Y-42862500D03*
D12*
X131127500Y-37782500D03*
X124777500Y-40322500D03*
D11*
X123507500Y-42862500D03*
D13*
X121502500Y-40322500D03*
X134429500Y-37782500D03*
%TD*%
D10*
%TO.C,SW15*%
X233362500Y-23812500D03*
D11*
X238442500Y-23812500D03*
D12*
X235902500Y-18732500D03*
X229552500Y-21272500D03*
D11*
X228282500Y-23812500D03*
D13*
X226277500Y-21272500D03*
X239204500Y-18732500D03*
%TD*%
D10*
%TO.C,SW02*%
X100012500Y-23812500D03*
D11*
X105092500Y-23812500D03*
D12*
X102552500Y-18732500D03*
X96202500Y-21272500D03*
D11*
X94932500Y-23812500D03*
D13*
X92927500Y-21272500D03*
X105854500Y-18732500D03*
%TD*%
D10*
%TO.C,SW77*%
X309562500Y-100012500D03*
D11*
X314642500Y-100012500D03*
D12*
X312102500Y-94932500D03*
X305752500Y-97472500D03*
D11*
X304482500Y-100012500D03*
D13*
X302477500Y-97472500D03*
X315404500Y-94932500D03*
%TD*%
D10*
%TO.C,SW13*%
X157162500Y-23812500D03*
D11*
X162242500Y-23812500D03*
D12*
X159702500Y-18732500D03*
X153352500Y-21272500D03*
D11*
X152082500Y-23812500D03*
D13*
X150077500Y-21272500D03*
X163004500Y-18732500D03*
%TD*%
D10*
%TO.C,SW73*%
X180975152Y-80962568D03*
D11*
X186055152Y-80962568D03*
D12*
X183515152Y-75882568D03*
X177165152Y-78422568D03*
D11*
X175895152Y-80962568D03*
D13*
X173890152Y-78422568D03*
X186817152Y-75882568D03*
%TD*%
D10*
%TO.C,SW24*%
X185737500Y-42862500D03*
D11*
X190817500Y-42862500D03*
D12*
X188277500Y-37782500D03*
X181927500Y-40322500D03*
D11*
X180657500Y-42862500D03*
D13*
X178652500Y-40322500D03*
X191579500Y-37782500D03*
%TD*%
D10*
%TO.C,SW62*%
X123825000Y-80962500D03*
D11*
X128905000Y-80962500D03*
D12*
X126365000Y-75882500D03*
X120015000Y-78422500D03*
D11*
X118745000Y-80962500D03*
D13*
X116740000Y-78422500D03*
X129667000Y-75882500D03*
%TD*%
D10*
%TO.C,SW16*%
X271462500Y-23812500D03*
D11*
X276542500Y-23812500D03*
D12*
X274002500Y-18732500D03*
X267652500Y-21272500D03*
D11*
X266382500Y-23812500D03*
D13*
X264377500Y-21272500D03*
X277304500Y-18732500D03*
%TD*%
D10*
%TO.C,SW64*%
X200025000Y-80962500D03*
D11*
X205105000Y-80962500D03*
D12*
X202565000Y-75882500D03*
X196215000Y-78422500D03*
D11*
X194945000Y-80962500D03*
D13*
X192940000Y-78422500D03*
X205867000Y-75882500D03*
%TD*%
D12*
%TO.C,SW80*%
X23653772Y-105092500D03*
X30003772Y-102552500D03*
D11*
X21113772Y-100012500D03*
X31273772Y-100012500D03*
D10*
X26193772Y-100012500D03*
D16*
X33278772Y-102552500D03*
X20351772Y-105092500D03*
%TD*%
D17*
%TO.C,D32*%
X121443788Y-43593788D03*
X121443788Y-46893788D03*
%TD*%
%TO.C,D80*%
X36314135Y-101662584D03*
X36314135Y-98362584D03*
%TD*%
%TO.C,D36*%
X278606288Y-43593788D03*
X278606288Y-46893788D03*
%TD*%
%TO.C,D10*%
X35718780Y-24543772D03*
X35718780Y-27843772D03*
%TD*%
%TO.C,D54*%
X183356404Y-62643804D03*
X183356404Y-65943804D03*
%TD*%
%TO.C,D64*%
X192881412Y-81693820D03*
X192881412Y-84993820D03*
%TD*%
%TO.C,D22*%
X102393788Y-43593788D03*
X102393788Y-46893788D03*
%TD*%
%TO.C,D71*%
X97631332Y-81693820D03*
X97631332Y-84993820D03*
%TD*%
%TO.C,D16*%
X264318972Y-24498459D03*
X264318972Y-27798459D03*
%TD*%
%TO.C,D11*%
X73818796Y-24593772D03*
X73818796Y-27893772D03*
%TD*%
%TO.C,D27*%
X302418788Y-43593788D03*
X302418788Y-46893788D03*
%TD*%
%TO.C,D26*%
X254793788Y-43593788D03*
X254793788Y-46893788D03*
%TD*%
%TO.C,D34*%
X197643788Y-43593788D03*
X197643788Y-46893788D03*
%TD*%
%TO.C,D84*%
X207168924Y-100743836D03*
X207168924Y-104043836D03*
%TD*%
%TO.C,D76*%
X264318972Y-100743836D03*
X264318972Y-104043836D03*
%TD*%
%TO.C,D65*%
X230981444Y-81693820D03*
X230981444Y-84993820D03*
%TD*%
%TO.C,D70*%
X59531300Y-81693820D03*
X59531300Y-84993820D03*
%TD*%
%TO.C,D15*%
X226218796Y-24540598D03*
X226218796Y-27840598D03*
%TD*%
%TO.C,D13*%
X150018876Y-24491452D03*
X150018876Y-27791452D03*
%TD*%
%TO.C,D01*%
X54768796Y-24593772D03*
X54768796Y-27893772D03*
%TD*%
%TO.C,D42*%
X126206356Y-62643804D03*
X126206356Y-65943804D03*
%TD*%
%TO.C,D24*%
X178593788Y-43593788D03*
X178593788Y-46893788D03*
%TD*%
%TO.C,D07*%
X283368796Y-24540598D03*
X283368796Y-27840598D03*
%TD*%
%TO.C,D45*%
X240506452Y-62643804D03*
X240506452Y-65943804D03*
%TD*%
%TO.C,D57*%
X302419004Y-81693820D03*
X302419004Y-84993820D03*
%TD*%
%TO.C,D20*%
X21431268Y-43593788D03*
X21431268Y-46893788D03*
%TD*%
%TO.C,D44*%
X202406420Y-62643804D03*
X202406420Y-65943804D03*
%TD*%
%TO.C,D74*%
X211931428Y-81693820D03*
X211931428Y-84993820D03*
%TD*%
%TO.C,D56*%
X271462728Y-62643804D03*
X271462728Y-65943804D03*
%TD*%
%TO.C,D61*%
X78581316Y-81693820D03*
X78581316Y-84993820D03*
%TD*%
%TO.C,D14*%
X188118796Y-24495309D03*
X188118796Y-27795309D03*
%TD*%
%TO.C,D21*%
X64293788Y-43593788D03*
X64293788Y-46893788D03*
%TD*%
%TO.C,D00*%
X16668764Y-24543772D03*
X16668764Y-27843772D03*
%TD*%
%TO.C,D23*%
X140493788Y-43593788D03*
X140493788Y-46893788D03*
%TD*%
%TO.C,D77*%
X302419004Y-100743836D03*
X302419004Y-104043836D03*
%TD*%
%TO.C,D62*%
X116681348Y-81693820D03*
X116681348Y-84993820D03*
%TD*%
%TO.C,D47*%
X302419004Y-62643804D03*
X302419004Y-65943804D03*
%TD*%
%TO.C,D06*%
X245268956Y-24543772D03*
X245268956Y-27843772D03*
%TD*%
%TO.C,D35*%
X235743788Y-43593788D03*
X235743788Y-46893788D03*
%TD*%
%TO.C,D31*%
X83343788Y-43593788D03*
X83343788Y-46893788D03*
%TD*%
%TO.C,D82*%
X83939133Y-101662584D03*
X83939133Y-98362584D03*
%TD*%
D18*
%TO.C,U1*%
X106521348Y-106505000D03*
X109061348Y-106505000D03*
X111601348Y-106505000D03*
X114141348Y-106505000D03*
X116681348Y-106505000D03*
X119221348Y-106505000D03*
X121761348Y-106505000D03*
X124301348Y-106505000D03*
X126841348Y-106505000D03*
D19*
X127476348Y-103330000D03*
X127476348Y-100790000D03*
X127476348Y-98250000D03*
X127476348Y-95710000D03*
X127476348Y-93170000D03*
D18*
X126841348Y-89995000D03*
X124301348Y-89995000D03*
X121761348Y-89995000D03*
X119221348Y-89995000D03*
X116681348Y-89995000D03*
X114141348Y-89995000D03*
X111601348Y-89995000D03*
X109061348Y-89995000D03*
X106521348Y-89995000D03*
%TD*%
D17*
%TO.C,D04*%
X169068892Y-24635228D03*
X169068892Y-27935228D03*
%TD*%
%TO.C,D87*%
X283368988Y-100743836D03*
X283368988Y-104043836D03*
%TD*%
%TO.C,D30*%
X45243788Y-43593788D03*
X45243788Y-46893788D03*
%TD*%
%TO.C,D40*%
X50006292Y-62643804D03*
X50006292Y-65943804D03*
%TD*%
%TO.C,D43*%
X164306388Y-62643804D03*
X164306388Y-65943804D03*
%TD*%
%TO.C,D12*%
X111918796Y-24593772D03*
X111918796Y-27893772D03*
%TD*%
%TO.C,D41*%
X88106324Y-62643804D03*
X88106324Y-65943804D03*
%TD*%
%TO.C,D17*%
X302419056Y-24540598D03*
X302419056Y-27840598D03*
%TD*%
%TO.C,D33*%
X159543788Y-43593788D03*
X159543788Y-46893788D03*
%TD*%
%TO.C,D25*%
X216693788Y-43593788D03*
X216693788Y-46893788D03*
%TD*%
%TO.C,D63*%
X154781380Y-81693820D03*
X154781380Y-84993820D03*
%TD*%
%TO.C,D60*%
X28575024Y-81693820D03*
X28575024Y-84993820D03*
%TD*%
%TO.C,D02*%
X92868796Y-24593772D03*
X92868796Y-27893772D03*
%TD*%
%TO.C,D67*%
X283368988Y-81693820D03*
X283368988Y-84993820D03*
%TD*%
%TO.C,D03*%
X130968912Y-24593772D03*
X130968912Y-27893772D03*
%TD*%
%TO.C,D50*%
X23812520Y-62643804D03*
X23812520Y-65943804D03*
%TD*%
%TO.C,D51*%
X69056308Y-62643804D03*
X69056308Y-65943804D03*
%TD*%
%TO.C,D52*%
X107156340Y-62643804D03*
X107156340Y-65943804D03*
%TD*%
%TO.C,D83*%
X138112616Y-100743836D03*
X138112616Y-104043836D03*
%TD*%
%TO.C,D73*%
X173831396Y-81693820D03*
X173831396Y-84993820D03*
%TD*%
%TO.C,D53*%
X145256372Y-62643804D03*
X145256372Y-65943804D03*
%TD*%
%TO.C,D72*%
X135731364Y-81693820D03*
X135731364Y-84993820D03*
%TD*%
%TO.C,D86*%
X245268956Y-100743836D03*
X245268956Y-104043836D03*
%TD*%
%TO.C,D66*%
X257175216Y-81693820D03*
X257175216Y-84993820D03*
%TD*%
%TO.C,D85*%
X226218940Y-100743836D03*
X226218940Y-104043836D03*
%TD*%
%TO.C,D55*%
X221456436Y-62643804D03*
X221456436Y-65943804D03*
%TD*%
%TO.C,D81*%
X60126655Y-101662584D03*
X60126655Y-98362584D03*
%TD*%
%TO.C,D05*%
X207168796Y-24495309D03*
X207168796Y-27795309D03*
%TD*%
M02*
