%TF.GenerationSoftware,KiCad,Pcbnew,(6.0.11-0)*%
%TF.CreationDate,2023-07-19T11:20:52+01:00*%
%TF.ProjectId,keybird,6b657962-6972-4642-9e6b-696361645f70,0.3*%
%TF.SameCoordinates,Original*%
%TF.FileFunction,Paste,Bot*%
%TF.FilePolarity,Positive*%
%FSLAX46Y46*%
G04 Gerber Fmt 4.6, Leading zero omitted, Abs format (unit mm)*
G04 Created by KiCad (PCBNEW (6.0.11-0)) date 2023-07-19 11:20:52*
%MOMM*%
%LPD*%
G01*
G04 APERTURE LIST*
G04 Aperture macros list*
%AMRoundRect*
0 Rectangle with rounded corners*
0 $1 Rounding radius*
0 $2 $3 $4 $5 $6 $7 $8 $9 X,Y pos of 4 corners*
0 Add a 4 corners polygon primitive as box body*
4,1,4,$2,$3,$4,$5,$6,$7,$8,$9,$2,$3,0*
0 Add four circle primitives for the rounded corners*
1,1,$1+$1,$2,$3*
1,1,$1+$1,$4,$5*
1,1,$1+$1,$6,$7*
1,1,$1+$1,$8,$9*
0 Add four rect primitives between the rounded corners*
20,1,$1+$1,$2,$3,$4,$5,0*
20,1,$1+$1,$4,$5,$6,$7,0*
20,1,$1+$1,$6,$7,$8,$9,0*
20,1,$1+$1,$8,$9,$2,$3,0*%
G04 Aperture macros list end*
%ADD10RoundRect,0.250000X-1.025000X-1.000000X1.025000X-1.000000X1.025000X1.000000X-1.025000X1.000000X0*%
%ADD11RoundRect,0.250000X1.025000X1.000000X-1.025000X1.000000X-1.025000X-1.000000X1.025000X-1.000000X0*%
%ADD12R,1.200000X0.900000*%
G04 APERTURE END LIST*
D10*
%TO.C,SW67*%
X283427500Y-78422500D03*
X296354500Y-75882500D03*
%TD*%
%TO.C,SW30*%
X45302500Y-40322500D03*
X58229500Y-37782500D03*
%TD*%
%TO.C,SW17*%
X302477500Y-21272500D03*
X315404500Y-18732500D03*
%TD*%
%TO.C,SW53*%
X145315000Y-59372500D03*
X158242000Y-56832500D03*
%TD*%
%TO.C,SW12*%
X111977500Y-21272500D03*
X124904500Y-18732500D03*
%TD*%
%TO.C,SW11*%
X73877500Y-21272500D03*
X86804500Y-18732500D03*
%TD*%
%TO.C,SW25*%
X216752500Y-40322500D03*
X229679500Y-37782500D03*
%TD*%
%TO.C,SW84*%
X207227500Y-97472500D03*
X220154500Y-94932500D03*
%TD*%
%TO.C,SW01*%
X54827500Y-21272500D03*
X67754500Y-18732500D03*
%TD*%
%TO.C,SW07*%
X283427500Y-21272500D03*
X296354500Y-18732500D03*
%TD*%
%TO.C,SW10*%
X35777500Y-21272500D03*
X48704500Y-18732500D03*
%TD*%
%TO.C,SW06*%
X245327500Y-21272500D03*
X258254500Y-18732500D03*
%TD*%
%TO.C,SW20*%
X21490000Y-40322500D03*
X34417000Y-37782500D03*
%TD*%
%TO.C,SW83*%
X138171250Y-97472500D03*
X151098250Y-94932500D03*
%TD*%
%TO.C,SW56*%
X271521250Y-59372500D03*
X284448250Y-56832500D03*
%TD*%
%TO.C,SW31*%
X83402500Y-40322500D03*
X96329500Y-37782500D03*
%TD*%
%TO.C,SW00*%
X16727500Y-21272500D03*
X29654500Y-18732500D03*
%TD*%
%TO.C,SW34*%
X197702500Y-40322500D03*
X210629500Y-37782500D03*
%TD*%
%TO.C,SW05*%
X207227500Y-21272500D03*
X220154500Y-18732500D03*
%TD*%
%TO.C,SW27*%
X302477500Y-40322500D03*
X315404500Y-37782500D03*
%TD*%
%TO.C,SW61*%
X78640000Y-78422500D03*
X91567000Y-75882500D03*
%TD*%
%TO.C,SW76*%
X264377728Y-97472584D03*
X277304728Y-94932584D03*
%TD*%
%TO.C,SW50*%
X23871250Y-59372500D03*
X36798250Y-56832500D03*
%TD*%
%TO.C,SW44*%
X202465000Y-59372500D03*
X215392000Y-56832500D03*
%TD*%
%TO.C,SW86*%
X245327500Y-97472500D03*
X258254500Y-94932500D03*
%TD*%
%TO.C,SW40*%
X50065000Y-59372500D03*
X62992000Y-56832500D03*
%TD*%
%TO.C,SW60*%
X28633750Y-78422500D03*
X41560750Y-75882500D03*
%TD*%
%TO.C,SW03*%
X131027500Y-21272500D03*
X143954500Y-18732500D03*
%TD*%
%TO.C,SW33*%
X159602500Y-40322500D03*
X172529500Y-37782500D03*
%TD*%
%TO.C,SW42*%
X126265000Y-59372500D03*
X139192000Y-56832500D03*
%TD*%
%TO.C,SW21*%
X64352500Y-40322500D03*
X77279500Y-37782500D03*
%TD*%
%TO.C,SW23*%
X140552500Y-40322500D03*
X153479500Y-37782500D03*
%TD*%
%TO.C,SW36*%
X278665000Y-40322500D03*
X291592000Y-37782500D03*
%TD*%
%TO.C,SW43*%
X164365000Y-59372500D03*
X177292000Y-56832500D03*
%TD*%
%TO.C,SW35*%
X235802500Y-40322500D03*
X248729500Y-37782500D03*
%TD*%
%TO.C,SW41*%
X88165000Y-59372500D03*
X101092000Y-56832500D03*
%TD*%
%TO.C,SW63*%
X154840000Y-78422500D03*
X167767000Y-75882500D03*
%TD*%
%TO.C,SW65*%
X231040000Y-78422500D03*
X243967000Y-75882500D03*
%TD*%
%TO.C,SW47*%
X302477500Y-59372500D03*
X315404500Y-56832500D03*
%TD*%
%TO.C,SW54*%
X183415000Y-59372500D03*
X196342000Y-56832500D03*
%TD*%
%TO.C,SW52*%
X107215000Y-59372500D03*
X120142000Y-56832500D03*
%TD*%
%TO.C,SW26*%
X254852500Y-40322500D03*
X267779500Y-37782500D03*
%TD*%
%TO.C,SW22*%
X102452500Y-40322500D03*
X115379500Y-37782500D03*
%TD*%
%TO.C,SW55*%
X221515000Y-59372500D03*
X234442000Y-56832500D03*
%TD*%
D11*
%TO.C,SW81*%
X57091272Y-102552500D03*
X44164272Y-105092500D03*
%TD*%
D10*
%TO.C,SW04*%
X169127500Y-21272500D03*
X182054500Y-18732500D03*
%TD*%
%TO.C,SW14*%
X188177500Y-21272500D03*
X201104500Y-18732500D03*
%TD*%
%TO.C,SW87*%
X283427500Y-97472500D03*
X296354500Y-94932500D03*
%TD*%
%TO.C,SW71*%
X97690088Y-78422568D03*
X110617088Y-75882568D03*
%TD*%
%TO.C,SW51*%
X69115000Y-59372500D03*
X82042000Y-56832500D03*
%TD*%
%TO.C,SW72*%
X135790120Y-78422568D03*
X148717120Y-75882568D03*
%TD*%
%TO.C,SW70*%
X59590056Y-78422568D03*
X72517056Y-75882568D03*
%TD*%
%TO.C,SW74*%
X211990184Y-78422568D03*
X224917184Y-75882568D03*
%TD*%
%TO.C,SW45*%
X240565000Y-59372500D03*
X253492000Y-56832500D03*
%TD*%
%TO.C,SW66*%
X257233750Y-78422500D03*
X270160750Y-75882500D03*
%TD*%
D11*
%TO.C,SW82*%
X80903812Y-102618202D03*
X67976812Y-105158202D03*
%TD*%
D10*
%TO.C,SW57*%
X302477500Y-78422500D03*
X315404500Y-75882500D03*
%TD*%
%TO.C,SW85*%
X226277500Y-97472500D03*
X239204500Y-94932500D03*
%TD*%
%TO.C,SW32*%
X121502500Y-40322500D03*
X134429500Y-37782500D03*
%TD*%
%TO.C,SW15*%
X226277500Y-21272500D03*
X239204500Y-18732500D03*
%TD*%
%TO.C,SW02*%
X92927500Y-21272500D03*
X105854500Y-18732500D03*
%TD*%
%TO.C,SW77*%
X302477500Y-97472500D03*
X315404500Y-94932500D03*
%TD*%
%TO.C,SW13*%
X150077500Y-21272500D03*
X163004500Y-18732500D03*
%TD*%
%TO.C,SW73*%
X173890152Y-78422568D03*
X186817152Y-75882568D03*
%TD*%
%TO.C,SW24*%
X178652500Y-40322500D03*
X191579500Y-37782500D03*
%TD*%
%TO.C,SW62*%
X116740000Y-78422500D03*
X129667000Y-75882500D03*
%TD*%
%TO.C,SW16*%
X264377500Y-21272500D03*
X277304500Y-18732500D03*
%TD*%
%TO.C,SW64*%
X192940000Y-78422500D03*
X205867000Y-75882500D03*
%TD*%
D11*
%TO.C,SW80*%
X33278772Y-102552500D03*
X20351772Y-105092500D03*
%TD*%
D12*
%TO.C,D32*%
X121443788Y-43593788D03*
X121443788Y-46893788D03*
%TD*%
%TO.C,D80*%
X36314135Y-101662584D03*
X36314135Y-98362584D03*
%TD*%
%TO.C,D36*%
X278606288Y-43593788D03*
X278606288Y-46893788D03*
%TD*%
%TO.C,D10*%
X35718780Y-24543772D03*
X35718780Y-27843772D03*
%TD*%
%TO.C,D54*%
X183356404Y-62643804D03*
X183356404Y-65943804D03*
%TD*%
%TO.C,D64*%
X192881412Y-81693820D03*
X192881412Y-84993820D03*
%TD*%
%TO.C,D22*%
X102393788Y-43593788D03*
X102393788Y-46893788D03*
%TD*%
%TO.C,D71*%
X97631332Y-81693820D03*
X97631332Y-84993820D03*
%TD*%
%TO.C,D16*%
X264318972Y-24498459D03*
X264318972Y-27798459D03*
%TD*%
%TO.C,D11*%
X73818796Y-24593772D03*
X73818796Y-27893772D03*
%TD*%
%TO.C,D27*%
X302418788Y-43593788D03*
X302418788Y-46893788D03*
%TD*%
%TO.C,D26*%
X254793788Y-43593788D03*
X254793788Y-46893788D03*
%TD*%
%TO.C,D34*%
X197643788Y-43593788D03*
X197643788Y-46893788D03*
%TD*%
%TO.C,D84*%
X207168924Y-100743836D03*
X207168924Y-104043836D03*
%TD*%
%TO.C,D76*%
X264318972Y-100743836D03*
X264318972Y-104043836D03*
%TD*%
%TO.C,D65*%
X230981444Y-81693820D03*
X230981444Y-84993820D03*
%TD*%
%TO.C,D70*%
X59531300Y-81693820D03*
X59531300Y-84993820D03*
%TD*%
%TO.C,D15*%
X226218796Y-24540598D03*
X226218796Y-27840598D03*
%TD*%
%TO.C,D13*%
X150018876Y-24491452D03*
X150018876Y-27791452D03*
%TD*%
%TO.C,D01*%
X54768796Y-24593772D03*
X54768796Y-27893772D03*
%TD*%
%TO.C,D42*%
X126206356Y-62643804D03*
X126206356Y-65943804D03*
%TD*%
%TO.C,D24*%
X178593788Y-43593788D03*
X178593788Y-46893788D03*
%TD*%
%TO.C,D07*%
X283368796Y-24540598D03*
X283368796Y-27840598D03*
%TD*%
%TO.C,D45*%
X240506452Y-62643804D03*
X240506452Y-65943804D03*
%TD*%
%TO.C,D57*%
X302419004Y-81693820D03*
X302419004Y-84993820D03*
%TD*%
%TO.C,D20*%
X21431268Y-43593788D03*
X21431268Y-46893788D03*
%TD*%
%TO.C,D44*%
X202406420Y-62643804D03*
X202406420Y-65943804D03*
%TD*%
%TO.C,D74*%
X211931428Y-81693820D03*
X211931428Y-84993820D03*
%TD*%
%TO.C,D56*%
X271462728Y-62643804D03*
X271462728Y-65943804D03*
%TD*%
%TO.C,D61*%
X78581316Y-81693820D03*
X78581316Y-84993820D03*
%TD*%
%TO.C,D14*%
X188118796Y-24495309D03*
X188118796Y-27795309D03*
%TD*%
%TO.C,D21*%
X64293788Y-43593788D03*
X64293788Y-46893788D03*
%TD*%
%TO.C,D00*%
X16668764Y-24543772D03*
X16668764Y-27843772D03*
%TD*%
%TO.C,D23*%
X140493788Y-43593788D03*
X140493788Y-46893788D03*
%TD*%
%TO.C,D77*%
X302419004Y-100743836D03*
X302419004Y-104043836D03*
%TD*%
%TO.C,D62*%
X116681348Y-81693820D03*
X116681348Y-84993820D03*
%TD*%
%TO.C,D47*%
X302419004Y-62643804D03*
X302419004Y-65943804D03*
%TD*%
%TO.C,D06*%
X245268956Y-24543772D03*
X245268956Y-27843772D03*
%TD*%
%TO.C,D35*%
X235743788Y-43593788D03*
X235743788Y-46893788D03*
%TD*%
%TO.C,D31*%
X83343788Y-43593788D03*
X83343788Y-46893788D03*
%TD*%
%TO.C,D82*%
X83939133Y-101662584D03*
X83939133Y-98362584D03*
%TD*%
%TO.C,D04*%
X169068892Y-24635228D03*
X169068892Y-27935228D03*
%TD*%
%TO.C,D87*%
X283368988Y-100743836D03*
X283368988Y-104043836D03*
%TD*%
%TO.C,D30*%
X45243788Y-43593788D03*
X45243788Y-46893788D03*
%TD*%
%TO.C,D40*%
X50006292Y-62643804D03*
X50006292Y-65943804D03*
%TD*%
%TO.C,D43*%
X164306388Y-62643804D03*
X164306388Y-65943804D03*
%TD*%
%TO.C,D12*%
X111918796Y-24593772D03*
X111918796Y-27893772D03*
%TD*%
%TO.C,D41*%
X88106324Y-62643804D03*
X88106324Y-65943804D03*
%TD*%
%TO.C,D17*%
X302419056Y-24540598D03*
X302419056Y-27840598D03*
%TD*%
%TO.C,D33*%
X159543788Y-43593788D03*
X159543788Y-46893788D03*
%TD*%
%TO.C,D25*%
X216693788Y-43593788D03*
X216693788Y-46893788D03*
%TD*%
%TO.C,D63*%
X154781380Y-81693820D03*
X154781380Y-84993820D03*
%TD*%
%TO.C,D60*%
X28575024Y-81693820D03*
X28575024Y-84993820D03*
%TD*%
%TO.C,D02*%
X92868796Y-24593772D03*
X92868796Y-27893772D03*
%TD*%
%TO.C,D67*%
X283368988Y-81693820D03*
X283368988Y-84993820D03*
%TD*%
%TO.C,D03*%
X130968912Y-24593772D03*
X130968912Y-27893772D03*
%TD*%
%TO.C,D50*%
X23812520Y-62643804D03*
X23812520Y-65943804D03*
%TD*%
%TO.C,D51*%
X69056308Y-62643804D03*
X69056308Y-65943804D03*
%TD*%
%TO.C,D52*%
X107156340Y-62643804D03*
X107156340Y-65943804D03*
%TD*%
%TO.C,D83*%
X138112616Y-100743836D03*
X138112616Y-104043836D03*
%TD*%
%TO.C,D73*%
X173831396Y-81693820D03*
X173831396Y-84993820D03*
%TD*%
%TO.C,D53*%
X145256372Y-62643804D03*
X145256372Y-65943804D03*
%TD*%
%TO.C,D72*%
X135731364Y-81693820D03*
X135731364Y-84993820D03*
%TD*%
%TO.C,D86*%
X245268956Y-100743836D03*
X245268956Y-104043836D03*
%TD*%
%TO.C,D66*%
X257175216Y-81693820D03*
X257175216Y-84993820D03*
%TD*%
%TO.C,D85*%
X226218940Y-100743836D03*
X226218940Y-104043836D03*
%TD*%
%TO.C,D55*%
X221456436Y-62643804D03*
X221456436Y-65943804D03*
%TD*%
%TO.C,D81*%
X60126655Y-101662584D03*
X60126655Y-98362584D03*
%TD*%
%TO.C,D05*%
X207168796Y-24495309D03*
X207168796Y-27795309D03*
%TD*%
M02*
